<?xml version="1.0" encoding="UTF-8" standalone="no"?>
<svg xmlns="http://www.w3.org/2000/svg" xmlns:sodipodi="http://sodipodi.sourceforge.net/DTD/sodipodi-0.dtd" xmlns:inkscape="http://www.inkscape.org/namespaces/inkscape" width="580" height="580" version="1.1">
 <metadata id="metadata7"/>
 <g inkscape:label="Ebene 1" inkscape:groupmode="layer" id="layer1" transform="translate(0,-472.36218)">
  <rect id="rect2935-7-1" width="72" height="24" x="706.36" y="-168" transform="matrix(0,1,-1,0,0,0)" inkscape:export-filename="/home/markus/Downloads/1.png" inkscape:export-xdpi="90" inkscape:export-ydpi="90" fill="#734a08"/>
  <rect id="rect2935-7-1-7" width="72" height="24" x="706.71" y="-431.99" transform="matrix(0,1,-1,0,0,0)" inkscape:export-filename="/home/markus/Downloads/1.png" inkscape:export-xdpi="90" inkscape:export-ydpi="90" fill="#734a08"/>
  <rect id="rect2935-7-1-0" width="96" height="432" x="620.36" y="-504" transform="matrix(0,1,-1,0,0,0)" inkscape:export-filename="/home/markus/Downloads/1.png" inkscape:export-xdpi="90" inkscape:export-ydpi="90" fill="#734a08"/>
  <path inkscape:connector-curvature="0" d="m 528,764.36218 0,57.40025 -29.877,14.59975 -420.408,-0.287 L 48,821.76243 l 0,-57.40025 480,0 z" id="rect2935-7-1-0-5" sodipodi:nodetypes="ccccccc" fill="#734a08"/>
  <path transform="matrix(32,0,0,32,64,492.36218)" sodipodi:type="arc" id="path3803" sodipodi:cx="2.5" sodipodi:cy="11.5" sodipodi:rx="1.5" sodipodi:ry="1.5" d="M 4,11.5 C 4,12.328427 3.3284271,13 2.5,13 1.6715729,13 1,12.328427 1,11.5 1,10.671573 1.6715729,10 2.5,10 3.3284271,10 4,10.671573 4,11.5 z" fill="#734a08"/>
  <path transform="matrix(32,0,0,32,352,492.36218)" sodipodi:type="arc" id="path3803-1" sodipodi:cx="2.5" sodipodi:cy="11.5" sodipodi:rx="1.5" sodipodi:ry="1.5" d="M 4,11.5 C 4,12.328427 3.3284271,13 2.5,13 1.6715729,13 1,12.328427 1,11.5 1,10.671573 1.6715729,10 2.5,10 3.3284271,10 4,10.671573 4,11.5 z" fill="#734a08"/>
 </g>
</svg>
