<?xml version="1.0" encoding="UTF-8" standalone="no"?>
<svg xmlns="http://www.w3.org/2000/svg" xmlns:sodipodi="http://sodipodi.sourceforge.net/DTD/sodipodi-0.dtd" xmlns:inkscape="http://www.inkscape.org/namespaces/inkscape" width="580" height="580" version="1.1">
 <metadata id="metadata3003"/>
 <g inkscape:label="Layer 1" inkscape:groupmode="layer" id="layer1" transform="translate(0,-472.36218)">
  <path inkscape:connector-curvature="0" d="m 489.08175,596.36218 -402.223414,0.009 c -14.807287,-9.4e-4 -26.858334,11.83845 -26.858334,26.38577 l 0,283.15998 c 0,14.54707 12.051047,26.44539 26.858334,26.44539 l 402.223414,0 C 503.88904,932.36218 516,920.46386 516,905.91679 l 0,-283.16735 c 0,-14.53995 -12.11845,-26.38681 -26.91825,-26.38681 z" id="path3760"/>
  <path inkscape:connector-curvature="0" d="m 203.96253,736.88404 c 0,8.43584 -6.77233,15.39738 -15.21606,15.39738 l -89.386531,0 c -8.435852,0 -15.397403,-6.96154 -15.397403,-15.39738 l 0,-89.20521 c 0,-8.43587 6.961551,-15.39741 15.397403,-15.39741 l 89.386531,0 c 8.43584,0 15.21606,6.96154 15.21606,15.39741 z" id="path3758" fill="#ffffff"/>
  <path inkscape:connector-curvature="0" d="m 276,476.36218 24,0 0,132 -24,0 z" id="rect3015"/>
  <path inkscape:connector-curvature="0" d="m 348,737.13889 c 0,8.43584 -6.77233,15.39738 -15.21606,15.39738 l -89.38653,0 C 234.96156,752.53627 228,745.57473 228,737.13889 l 0,-89.20521 c 0,-8.43587 6.96156,-15.39741 15.39741,-15.39741 l 89.38653,0 c 8.43584,0 15.21606,6.96154 15.21606,15.39741 z" id="path3758-1" fill="#ffffff"/>
  <path inkscape:connector-curvature="0" d="m 492.15614,737.05932 c 0,8.43584 -6.77233,15.39738 -15.21606,15.39738 l -89.38653,0 c -8.43585,0 -15.3974,-6.96154 -15.3974,-15.39738 l 0,-89.20521 c 0,-8.43587 6.96155,-15.39741 15.3974,-15.39741 l 89.38653,0 c 8.43584,0 15.21606,6.96154 15.21606,15.39741 z" id="path3758-7" fill="#ffffff"/>
  <path inkscape:connector-curvature="0" d="m 203.96253,736.88404 c 0,8.43584 -6.77233,15.39738 -15.21606,15.39738 l -89.386531,0 c -8.435852,0 -15.397403,-6.96154 -15.397403,-15.39738 l 0,-89.20521 c 0,-8.43587 6.961551,-15.39741 15.397403,-15.39741 l 89.386531,0 c 8.43584,0 15.21606,6.96154 15.21606,15.39741 z" id="path3758-6" inkscape:export-filename="Z:\Sonstiges\Wandern\mapstyles\ElevateDev\_dev\ele_res_svg\48\s_cable_car.png" inkscape:export-xdpi="36.000004" inkscape:export-ydpi="36.000004" opacity="0.25"/>
  <path inkscape:connector-curvature="0" d="m 348,737.13889 c 0,8.43584 -6.77233,15.39738 -15.21606,15.39738 l -89.38653,0 C 234.96156,752.53627 228,745.57473 228,737.13889 l 0,-89.20521 c 0,-8.43587 6.96156,-15.39741 15.39741,-15.39741 l 89.38653,0 c 8.43584,0 15.21606,6.96154 15.21606,15.39741 z" id="path3758-1-5" opacity="0.25"/>
  <path inkscape:connector-curvature="0" d="m 492.15614,737.05932 c 0,8.43584 -6.77233,15.39738 -15.21606,15.39738 l -89.38653,0 c -8.43585,0 -15.3974,-6.96154 -15.3974,-15.39738 l 0,-89.20521 c 0,-8.43587 6.96155,-15.39741 15.3974,-15.39741 l 89.38653,0 c 8.43584,0 15.21606,6.96154 15.21606,15.39741 z" id="path3758-7-9" opacity="0.25"/>
 </g>
</svg>
