<?xml version="1.0" encoding="UTF-8" standalone="no"?>
<svg xmlns="http://www.w3.org/2000/svg" xmlns:sodipodi="http://sodipodi.sourceforge.net/DTD/sodipodi-0.dtd" xmlns:inkscape="http://www.inkscape.org/namespaces/inkscape" version="1.0" width="580" height="580">
 <metadata id="metadata2975"/>
 <path d="M 288.27197,138.47099 C 286.76224,146.8004 92.8253,507.19334 92.8253,507.19334 L 483.17348,506.5467 L 288.27197,138.47099 z" id="path2443" sodipodi:nodetypes="cccc" fill="none" fill-rule="evenodd" stroke="#0092da" stroke-width="26.28"/>
 <path sodipodi:nodetypes="csccc" id="path2383" d="M 288.27197,162.58083 C 287.53256,166.66023 275.50214,187.26222 301.10443,277.13002 C 327.77756,370.75661 399.37636,507.19334 399.37636,507.19334 L 483.17348,506.5467 L 288.27197,162.58083 z" fill="#0092da" fill-rule="evenodd" stroke="#0092da" stroke-width="26.28"/>
 <path d="M 291.6525,162.58083 C 292.3919,166.66023 304.42233,187.26222 278.82004,277.13002 C 252.14691,370.75661 180.54811,507.19334 180.54811,507.19334 L 96.75099,506.5467 L 291.6525,162.58083 z" id="path3155" sodipodi:nodetypes="csccc" fill="#0092da" fill-rule="evenodd" stroke="#0092da" stroke-width="26.28"/>
 <path sodipodi:nodetypes="ccc" id="path3157" d="M 249.69622,63.73048 L 483.17348,506.5467 L 249.69622,63.73048 z" fill="#0092da" fill-rule="evenodd" stroke="#0092da" stroke-width="26.28"/>
 <path d="M 328.51443,66.14146 L 95.393229,506.5467 L 328.51443,66.14146 z" id="path3161" sodipodi:nodetypes="ccc" fill="none" fill-rule="evenodd" stroke="#0092da" stroke-width="26.28"/>
</svg>
