<?xml version="1.0" encoding="UTF-8" standalone="no"?>
<svg xmlns="http://www.w3.org/2000/svg" xmlns:sodipodi="http://sodipodi.sourceforge.net/DTD/sodipodi-0.dtd" xmlns:inkscape="http://www.inkscape.org/namespaces/inkscape" version="1.0" width="580" height="580">
 <metadata id="metadata2975"/>
 <rect id="rect3585-1" width="168.92" height="168.92" x="207.06" y="373" fill="#ffffff" stroke="#000000" stroke-linejoin="round" stroke-linecap="round" stroke-width="20.14" rx="0"/>
 <path sodipodi:nodetypes="ccccccccccccccc" id="path1873" d="M 252.87907,338.30209 L 251.58366,187.28894 L 174.48428,186.77133 L 174.48428,147.45456 L 174.48428,110.13779 L 251.1406,108.74859 L 252.52983,24.092246 L 330.93978,22.722169 L 330.93978,108.87899 L 408.9853,108.87899 L 408.9853,147.45456 L 408.9853,186.03012 L 330.93978,186.03012 L 330.93978,340.05081 C 306.13967,337.1988 277.0394,344.69682 252.87907,338.30209 z"/>
 <rect id="rect3585" width="168.92" height="168.92" x="207.06" y="373" opacity="0.25" stroke="#000000" stroke-linejoin="round" stroke-linecap="round" stroke-width="20.14" rx="0" fill="#000000" fill-opacity="1"/>
 <rect y="373" x="207.06" height="168.92" width="168.92" id="rect3587" fill="none" stroke="#000000" stroke-linejoin="round" stroke-linecap="round" stroke-width="20.14" rx="0"/>
 <path d="M 330.59051,338.30209 L 331.88592,187.28894 L 408.9853,186.77133 L 408.9853,147.45456 L 408.9853,110.13779 L 332.32898,108.74859 L 330.93975,24.092246 L 252.5298,22.722169 L 252.5298,108.87899 L 174.48428,108.87899 L 174.48428,147.45456 L 174.48428,186.03012 L 252.5298,186.03012 L 252.5298,340.05081 C 277.32991,337.1988 306.43018,344.69682 330.59051,338.30209 z" id="path4237" sodipodi:nodetypes="ccccccccccccccc"/>
</svg>
