<?xml version="1.0" encoding="UTF-8" standalone="no"?>
<svg xmlns="http://www.w3.org/2000/svg" xmlns:sodipodi="http://sodipodi.sourceforge.net/DTD/sodipodi-0.dtd" xmlns:inkscape="http://www.inkscape.org/namespaces/inkscape" version="1.1" height="580" width="580">
 <metadata id="metadata3003"/>
 <g inkscape:label="Layer 1" inkscape:groupmode="layer" id="layer1" transform="translate(0,-472.36218)">
  <path d="m 419.94514,476.68623 24.05486,0 -144.3292,323.67595 -24.05488,0 z" id="rect3987" inkscape:connector-curvature="0"/>
  <path sodipodi:type="arc" id="path3879" sodipodi:cx="57.5" sodipodi:cy="42.5" sodipodi:rx="12.5" sodipodi:ry="12.5" d="m 70,42.5 a 12.5,12.5 0 1 1 -25,0 12.5,12.5 0 1 1 25,0 z" transform="matrix(3.3915098,0,0,3.3915098,74.594314,445.82914)"/>
  <path d="m 173.30192,632.36398 c -9.88011,-0.12474 -19.56941,8.5846 -16.83173,23.81616 l 30.05666,169.74633 c 5.70582,30.68084 27.35217,56.85752 58.36458,66.39326 8.11438,2.53512 16.25883,3.81957 24.37322,3.81957 l 58.65247,0.22288 c 26.72682,0 26.75438,-36.03293 0.21859,-35.83666 l -56.02934,-0.22468 c -5.44835,-0.40123 -11.16479,-0.58215 -16.61315,-2.24681 -18.03934,-5.66835 -30.6622,-20.7495 -34.10064,-38.42041 L 190.89873,649.77494 c -2.12929,-11.87666 -9.91228,-17.31584 -17.59681,-17.41276 z" id="path15" inkscape:connector-curvature="0" sodipodi:nodetypes="cccccccccccsc"/>
  <path inkscape:connector-curvature="0" d="M 275.99905,644.36218 C 256.11732,644.36218 240,660.1639 240,679.6563 c 0,2.00286 0.23557,3.93379 0.56249,5.84558 l -0.1125,0 17.99952,105.88235 0.1125,0 c 2.85479,16.6943 17.5977,29.44854 35.43655,29.44854 l 89.99761,0 0,105.88235 0,0.77206 c 0.42258,9.3786 8.32942,16.875 17.99953,16.875 9.67009,0 17.57694,-7.4964 17.99952,-16.875 0.0108,-0.26259 0,-0.50662 0,-0.77206 l 0,-132.35294 c 0,-14.61931 -12.08799,-26.47059 -26.99928,-26.47059 l -65.47327,0 -15.97457,-94.08089 -0.1125,0 c -2.8548,-16.69428 -17.59769,-29.44852 -35.43655,-29.44852 z" id="path3808"/>
 </g>
</svg>
