<?xml version="1.0" encoding="UTF-8" standalone="no"?>
<svg xmlns="http://www.w3.org/2000/svg" xmlns:sodipodi="http://sodipodi.sourceforge.net/DTD/sodipodi-0.dtd" xmlns:inkscape="http://www.inkscape.org/namespaces/inkscape" version="1.0" width="580" height="580">
 <metadata id="metadata10"/>
 <path inkscape:connector-curvature="0" d="m 291.2774,58.80842 c -2.4523,1.650106 -5.00507,3.128975 -7.67033,4.3766 -21.62629,9.647623 -49.57692,4.74996 -70.928,13.806595 -21.75399,8.955351 -36.23708,31.301315 -56.39949,40.021075 -19.09978,7.99135 -41.7571,2.46021 -60.640727,10.10679 L 145.13504,229.99215 330.6668,140.70048 291.2774,58.80842 z" id="rect3445-1" fill="#ffffff"/>
 <rect id="rect3447-7" width="205.9" height="197.39" x="31.05" y="289.64" transform="matrix(0.90111171,-0.433587,0.433587,0.90111171,0,0)" fill="#ffffff"/>
 <path inkscape:connector-curvature="0" d="m 433.13339,353.71007 -185.53176,89.24655 41.32955,85.9077 c 17.43912,-4.47294 37.17307,-0.88572 54.14351,-7.98617 20.16241,-8.71976 34.69062,-31.0657 56.44461,-40.02108 21.35108,-9.05662 49.30172,-4.15897 70.92799,-13.80659 4.71049,-2.205 9.00508,-5.15907 13.1298,-8.48249 l -50.4437,-104.85792 z" id="rect3449-4" fill="#ffffff"/>
 <path inkscape:connector-curvature="0" d="m 329.40345,25.419924 c -3.77179,2.707161 -7.33119,5.738548 -10.78358,8.933679 L 331.118,60.342487 311.17514,69.95296 301.79026,50.416177 c -3.38522,3.053347 -6.83541,5.917741 -10.51286,8.392244 L 330.6668,140.70048 145.13504,229.99215 95.638853,127.11948 c -0.856363,0.34676 -1.686433,0.72444 -2.526697,1.12799 -8.334375,4.07268 -15.884276,10.90092 -23.236589,18.1832 l 16.107694,-7.76057 15.521139,32.17026 -19.942859,9.61048 -14.844346,-30.8618 c -2.645639,2.66114 -5.284536,5.36342 -7.941048,7.94105 L 250.66977,556.34215 c 3.99,-4.01081 8.00274,-8.0684 12.09205,-11.82134 l -4.87292,2.34622 -15.52114,-32.17027 19.94286,-9.61047 13.94195,29.0119 c 1.20515,-0.72028 2.46081,-1.37981 3.69981,-1.98526 2.90403,-1.39468 5.90251,-2.41385 8.9788,-3.20349 l -41.32955,-85.95282 185.53176,-89.24655 50.4437,104.85792 c 12.88518,-10.38198 23.84633,-24.58871 38.39677,-32.98242 L 329.40345,25.419924 z m 21.47693,76.071626 15.47602,32.17027 -19.89774,9.56535 -15.47602,-32.17026 19.89774,-9.56536 z m -11.77622,56.80557 85.59187,177.86142 -185.53176,89.24655 -85.59186,-177.86142 185.53175,-89.24655 z m 47.05974,16.46865 15.47602,32.17027 -19.94286,9.56535 -15.47602,-32.17027 19.94286,-9.56535 z m -264.89712,37.17854 15.47602,32.17027 -19.89774,9.61047 -15.52114,-32.17027 19.94286,-9.61047 z m 300.13552,36.09567 15.47602,32.17027 -19.89774,9.61047 -15.47602,-32.21538 19.89774,-9.56536 z m -264.89712,37.22367 15.52114,32.17026 -19.94286,9.56536 -15.47602,-32.17027 19.89774,-9.56535 z m 300.18064,36.05055 15.47602,32.17027 -19.94286,9.61047 -15.47602,-32.17027 19.94286,-9.61047 z m -264.89712,37.22366 15.47602,32.17027 -19.89774,9.56535 -15.52114,-32.17027 19.94286,-9.56535 z m 300.13552,36.05055 15.47602,32.21539 -19.89774,9.56536 -15.47602,-32.17027 19.89774,-9.61048 z m -264.852,37.22367 15.47602,32.17026 -19.94286,9.61048 -15.47602,-32.21539 19.94286,-9.56535 z" id="rect3391" fill="#734a08"/>
 <path inkscape:connector-curvature="0" d="m 291.2774,58.808421 c -2.4523,1.650106 -5.00507,3.128975 -7.67033,4.3766 -21.62629,9.647623 -49.57692,4.74996 -70.928,13.806595 -21.75399,8.955351 -36.23708,31.301314 -56.39949,40.021074 -19.09978,7.99135 -41.7571,2.46021 -60.640727,10.10679 L 145.13504,229.99215 330.6668,140.70048 291.2774,58.808421 z" id="rect3445" opacity="0.332" fill="#734a08"/>
 <rect id="rect3447" width="205.9" height="197.39" x="31.05" y="289.64" transform="matrix(0.90111171,-0.433587,0.433587,0.90111171,0,0)" opacity="0.332" fill="#734a08"/>
 <path inkscape:connector-curvature="0" d="m 433.13339,353.71007 -185.53176,89.24655 41.32955,85.9077 c 17.43912,-4.47294 37.17307,-0.88572 54.14351,-7.98617 20.16241,-8.71976 34.69062,-31.0657 56.44461,-40.02108 21.35108,-9.05662 49.30172,-4.15897 70.92799,-13.80659 4.71049,-2.205 9.00508,-5.15907 13.1298,-8.48249 l -50.4437,-104.85792 z" id="rect3449" opacity="0.332" fill="#734a08"/>
</svg>
