<?xml version="1.0" encoding="UTF-8" standalone="no"?>
<svg xmlns="http://www.w3.org/2000/svg" xmlns:sodipodi="http://sodipodi.sourceforge.net/DTD/sodipodi-0.dtd" xmlns:inkscape="http://www.inkscape.org/namespaces/inkscape" version="1.0" width="580" height="580">
 <metadata id="metadata2975"/>
 <g id="g3968" transform="matrix(0.78859506,0,0,0.69871963,-395.86191,-81.602608)" fill="#da0092" stroke="#da0092">
  <path d="m 851.53939,136.02034 c -7.2794,0.7683 -10.241,9.42997 -7.8438,15.5625 0.649,8.42856 1.2521,16.86793 1.8125,25.3125 9.2386,-1.66742 18.5775,-2.62175 27.875,-2.8125 13.1446,-0.32648 26.5743,0.0939 39.8437,1.6875 0.0939,-1.14643 0.1855,-2.29126 0.2813,-3.4375 0.5744,-6.60122 5.5164,-15.90252 -1.5,-20.8125 -10.9233,-6.91295 -24.0583,4.54804 -35.1875,-0.78125 -8.6126,-4.53785 -14.6296,-14.84694 -25.2812,-14.71875 z m 14.1874,136.40625 c -5.2173,0.13046 -10.4053,0.91388 -15.4062,2.34375 0.4434,13.11965 0.8052,26.23059 1.125,39.34375 7.0777,4.1154 14.6739,7.5153 22.0312,10.7187 10.2474,4.3589 20.7672,8.3836 31.3126,12.4063 0.5106,-14.8585 1.0526,-29.7091 1.6562,-44.5625 -6.4412,-6.79634 -12.9773,-13.46027 -21.4062,-17.75 -6.1838,-1.82287 -12.7567,-2.66393 -19.3126,-2.5 z m -23.9374,151.8438 c -6.7184,0.1614 -13.3014,3.0662 -15.75,9.5312 -2.4296,10.4945 5.1443,19.8377 7.0312,29.8125 4.1554,13.2777 8.2467,26.6333 11.8438,40.0937 18.4977,-6.6035 37.3536,-12.3287 55.2187,-20.3124 0.3032,-7.5589 0.6303,-15.1084 1.0625,-22.6563 1.2729,-5.5242 3.5894,-10.9183 5.5938,-16.375 -3.8385,-1.5928 -7.7213,-3.0528 -11.4376,-4.5625 -13.843,-5.1668 -28.0928,-9.885 -42.2187,-14.9375 0.006,0.6348 0.0257,1.2715 0.0313,1.9063 -3.264,-1.7119 -7.3441,-2.5969 -11.375,-2.5 z m 55.75,155.8124 c -14.6061,5.5037 -29.2011,10.9927 -43.3438,17.5626 0.022,9.1885 0.0424,18.3734 0.0625,27.5624 14.0792,7.6653 28.9132,13.9054 43.875,19.9063 3.8011,-18.0074 9.7386,-35.5459 14.75,-53.1875 -0.049,-7.4384 -9.2099,-10.5162 -15.4375,-8.9062 0.0308,-0.9793 0.0642,-1.9582 0.0938,-2.9376 z m -43.3126,144.25 c -0.0237,6.2325 -0.0571,12.4574 -0.0937,18.6876 -6.1947,-0.2789 -11.9955,6.3962 -8.5,12.2812 4.8981,14.0989 9.8051,28.5053 9.0313,43.5312 13.2997,-4.5583 26.462,-9.4574 39.125,-15.5 0.2202,-14.4943 0.4872,-28.9768 0.6562,-43.4687 -6.8026,-2.8947 -13.7839,-5.4643 -20.6875,-8 -6.446,-2.5374 -12.978,-5.0297 -19.5313,-7.5313 z m 39.5,138.5938 c -12.8216,4.1797 -25.8438,7.7842 -39,10.8438 0.1288,20.3445 0.2848,40.6871 0.4688,61.0312 15.1416,-9.3449 33.1646,-17.3789 41.4375,-34.125 2.1524,-6.1532 -3.4687,-11.4544 -2.25,-17.6875 -0.2808,-6.6903 -0.5014,-13.3704 -0.6563,-20.0625 z" id="path3964" stroke-width="0.705"/>
  <path d="M 298.21875 53.875 C 245.30728 53.825688 195.0259 81.279455 194.09375 124.09375 C 197.484 209.92112 349.0874 200.55153 352 237.8125 C 355.81972 286.67837 199.51039 272.06577 202.09375 349.96875 C 204.05033 409.97989 349.58609 415.57646 349.6875 447.09375 C 349.80051 483.62386 244.99782 493.94691 187.40625 521.90625 C 193.51187 531.74953 392.39879 508.87487 393.03125 445.40625 C 393.60779 387.54437 245.65566 380.03901 245.9375 344.5625 C 246.2057 310.80072 400.59885 308.16089 399.53125 236.625 C 398.46365 165.08911 247.01809 169.78959 242.375 123.375 C 242.17407 99.633569 276.20249 92.405189 301.59375 95.5625 C 314.78718 97.203052 326.18421 110.0812 339.3125 121.09375 C 346.17383 126.84936 358.12431 129.92874 365.21875 131.59375 C 372.31319 133.2588 375.42762 132.44354 381.09375 130.96875 C 384.8727 129.98521 376.89856 117.71452 380.03125 115.53125 C 382.70829 113.66555 396.6417 122.06966 398.1875 119.28125 C 399.959 116.08574 400.68934 112.22726 399.8125 107.6875 C 401.95622 87.256721 364.23994 55.673002 320.90625 55.625 C 313.37674 54.460151 305.77753 53.882045 298.21875 53.875 z M 359.40625 71.9375 C 368.17508 71.9375 375.28125 79.043675 375.28125 87.8125 C 375.28125 96.581325 368.17508 103.6875 359.40625 103.6875 C 350.63743 103.6875 343.53125 96.581325 343.53125 87.8125 C 343.53125 79.043675 350.63743 71.9375 359.40625 71.9375 z " transform="matrix(1.2680779,0,0,1.4311892,501.98376,116.78877)" id="path3966" stroke-width="7.571"/>
 </g>
</svg>
