<?xml version="1.0" encoding="UTF-8" standalone="no"?>
<svg xmlns="http://www.w3.org/2000/svg" xmlns:sodipodi="http://sodipodi.sourceforge.net/DTD/sodipodi-0.dtd" xmlns:inkscape="http://www.inkscape.org/namespaces/inkscape" version="1.0" width="580" height="580">
 <metadata id="metadata2975"/>
 <path id="path5601" d="M 296.24018,45.531207 C 273.12163,48.02894 188.89576,86.598579 186.39803,285.02311 c -2.61391,209.1125 86.66551,253.08421 110.0745,252.6776 V 399.62838 c -19.28482,0 -23.11855,-20.96934 -27.59124,-64.3021 -2.84625,-28.69488 -3.71755,-64.12783 0,-99.38652 2.73008,-24.74498 7.26085,-48.90909 27.47506,-48.90909 L 296.24018,45.531207 z" inkscape:connector-curvature="0" fill="#da0092"/>
 <path id="path5603" d="m 360.13567,537.93306 c 8.94536,0 15.33491,-7.26085 15.33491,-15.45109 l 0.11618,-0.11617 c 0,0 -0.11618,-107.57677 -0.11618,-107.69294 0,-8.48067 -6.91233,-15.21874 -15.33491,-15.21874 h -39.15051 v 138.42086 c 0,0 39.03433,0.11617 39.03433,0 h 0.11618 z" inkscape:connector-curvature="0" fill="#da0092"/>
 <path id="path5605" d="m 360.13567,187.03067 c 8.94536,0 15.33491,-7.26085 15.33491,-15.45109 h 0.11618 c 0,0 -0.11618,-110.713456 -0.11618,-110.829629 0,-8.480674 -6.91233,-15.218744 -15.33491,-15.218744 H 320.98516 V 187.03067 l 39.03433,0.11617 0.11618,-0.11617 z" inkscape:connector-curvature="0" fill="#da0092"/>
</svg>
