<?xml version="1.0" encoding="UTF-8" standalone="no"?>
<svg xmlns="http://www.w3.org/2000/svg" xmlns:sodipodi="http://sodipodi.sourceforge.net/DTD/sodipodi-0.dtd" xmlns:inkscape="http://www.inkscape.org/namespaces/inkscape" version="1.0" width="580" height="580">
 <metadata id="metadata10"/>
 <defs id="defs4">
  <marker viewBox="0 0 10 10" refY="5" refX="10" orient="auto" markerWidth="4" markerUnits="strokeWidth" markerHeight="3" id="ArrowStart">
   <path id="path2295" d="M 10 0 L 0 5 L 10 10 z"/>
  </marker>
  <marker viewBox="0 0 10 10" refY="5" orient="auto" markerWidth="4" markerUnits="strokeWidth" markerHeight="3" id="ArrowEnd">
   <path id="path2292" d="M 0 0 L 10 5 L 0 10 z"/>
  </marker>
  <marker viewBox="0 0 10 10" refY="5" refX="10" orient="auto" markerWidth="4" markerUnits="strokeWidth" markerHeight="3" id="marker8025">
   <path id="path8027" d="M 10,0 L 0,5 L 10,10 L 10,0 z "/>
  </marker>
  <marker viewBox="0 0 10 10" refY="5" orient="auto" markerWidth="4" markerUnits="strokeWidth" markerHeight="3" id="marker8021">
   <path id="path8023" d="M 0,0 L 10,5 L 0,10 L 0,0 z "/>
  </marker>
 </defs>
 <path inkscape:connector-curvature="0" d="m 255.54329,30.023018 c -12.38461,0 -24.7293,8.950932 -24.7293,23.269264 l -0.27375,460.275148 25.45931,0 0.22813,36.40956 233.74203,-0.13681 0.1825,-36.27267 21.90048,0.1825 0,-465.20276 c 2e-5,-9.922496 -5.7476,-18.524159 -16.56224,-18.524159 l -239.94716,-7.3e-5 z m 39.10149,50.872997 153.1665,0 c 8.48026,0 15.14785,3.453721 15.14783,15.147834 l 0,121.000171 c 0,8.1962 -4.38136,14.14406 -13.73343,14.14406 l -154.17027,-0.41063 c -8.90367,0 -16.56224,-6.57799 -16.56224,-16.15161 l 0.77564,-118.992625 c 0,-9.524812 6.59904,-14.7372 15.37597,-14.7372 z" id="path1897" fill="#ac39ac" fill-rule="evenodd"/>
 <path inkscape:connector-curvature="0" d="m 231.93765,188.22906 -23.39207,-0.13856 c -0.15167,95.18395 0.54204,283.03441 0.93847,286.24857 0.84623,6.86114 0.33452,13.96928 -1.42713,20.44495 C 171.38607,587.16482 52.726944,544.73423 69.575001,454.84235 106.57922,365.67741 158.46664,305.34233 184.29099,200.17568 l 2.29889,78.17716 c -23.24106,45.22549 -64.24291,124.65241 -96.040801,191.04495 -2.678984,61.29779 70.240481,81.49351 93.078121,15.69859 10.1772,-115.16979 -0.38265,-240.70811 -0.57396,-361.06217 14.84053,-44.118183 31.21551,-48.341209 47.83371,-46.239872" id="path1899" fill="#ac39ac" fill-rule="evenodd"/>
</svg>
