<?xml version="1.0" encoding="UTF-8" standalone="no"?>
<svg xmlns="http://www.w3.org/2000/svg" xmlns:sodipodi="http://sodipodi.sourceforge.net/DTD/sodipodi-0.dtd" xmlns:inkscape="http://www.inkscape.org/namespaces/inkscape" width="580" height="580" version="1.1">
 <metadata id="metadata7"/>
 <g inkscape:label="Ebene 1" inkscape:groupmode="layer" id="layer1" transform="translate(0,-472.36218)">
  <path d="m 123.24393,984.95931 c 5.8982,-34.518 119.70766,-31.4878 171.65594,-30.27274 51.94829,1.21506 143.52297,3.93039 160.52148,34.44822 16.99852,30.51801 -103.25512,51.54891 -178.15102,48.01881 -74.8959,-3.53 -159.9246,-17.6762 -154.0264,-52.19429 z" id="path3799" inkscape:connector-curvature="0" sodipodi:nodetypes="zzzzz" stroke="#000000" stroke-linejoin="round" stroke-width="12"/>
  <path d="m 252.65853,1035.3163 c -13.36958,-250.56081 0.6151,-11.687 -11.22318,-275.11033 -60.36854,15.47275 -89.47889,8.74612 -97.26191,-40.44979 -7.78305,-49.1959 67.73597,-45.6691 67.73597,-45.6691 0,0 -42.98953,-43.15338 -24.31548,-68.72114 23.45808,-32.11789 55.57824,-23.05202 55.57824,-23.05202 0,0 -19.92992,-17.76576 1.15788,-44.36428 21.0878,-26.59852 42.26262,-17.8327 42.26262,-17.8327 0,0 1.54386,-27.44315 35.31533,-28.70629 33.77146,-1.26315 42.84157,35.6654 42.84157,35.6654 0,0 60.83979,-1.24214 69.47281,31.7509 8.63302,32.99304 -33.57853,58.71742 -33.57853,58.71742 0,0 24.54709,12.49276 18.52608,39.57989 -6.02099,27.08714 -21.8963,30.50501 -21.8963,30.50501 0,0 38.86776,19.2735 36,36 -4.65605,27.15688 -54.7771,21.22655 -54.7771,21.22655 0,0 18.7771,14.77345 18.7771,38.77345 0,24 -62.93898,24.61349 -62.93898,24.61349 0,0 0.81096,25.30887 -10.29123,228.30374 -72,0 0.61511,-1.2302 -71.38489,-1.2302 z" id="path3873" inkscape:connector-curvature="0" sodipodi:nodetypes="cczcsczczczczcsczccc" fill="#ffffff"/>
  <path d="m 335.32526,1035.008 c 5.55401,-101.55087 8.72744,-164.40189 9.61016,-193.04413 0.33769,-10.95732 0.36973,-15.71491 0.40625,-20.5625 6.11351,-0.48066 13.82215,-1.30492 21.8125,-2.90625 8.58627,-1.72076 17.44183,-4.14014 25.3125,-8.71875 7.87067,-4.57861 15.78125,-13.09884 15.78125,-24.34375 0,-10.64658 -2.9392,-19.67877 -6.6875,-27.03125 1.12657,-0.12434 2.16477,-0.14514 3.3125,-0.3125 7.53443,-1.09867 15.65021,-3.10044 23.125,-7.65625 7.47479,-4.55581 14.3115,-12.57359 16.09375,-22.96875 1.54472,-9.00974 -2.4441,-16.52731 -6.78125,-22.09375 -4.33715,-5.56644 -9.64029,-10.03338 -14.84375,-13.875 -1.62518,-1.19984 -3.19332,-2.2153 -4.78125,-3.28125 4.95025,-6.11273 9.54623,-14.80501 12.1875,-26.6875 3.84482,-17.29696 -2.43185,-31.7116 -9.46875,-40.21875 -0.49261,-0.59553 -0.9984,-1.00941 -1.5,-1.5625 3.11826,-2.69346 6.40617,-5.71909 9.6875,-9.375 10.81419,-12.04867 21.94106,-30.91214 16.21875,-52.78125 -3.03669,-11.60539 -10.87509,-20.24639 -19.53125,-25.90625 -8.65616,-5.65986 -18.2904,-8.88775 -27.3125,-11 -10.53054,-2.46541 -19.26238,-3.25075 -25.75,-3.5625 -1.68057,-3.96458 -3.9996,-8.67995 -7.46875,-13.53125 -7.95963,-11.13084 -23.0219,-23.17133 -44.3125,-22.375 l 0,5e-5 c -20.12255,0.75264 -33.49885,10.45803 -39.90625,20.21875 -1.60897,2.45102 -2.82832,4.9281 -3.78125,7.25 -1.93925,-0.0192 -3.93286,-0.0276 -6.09375,0.28125 -10.81503,1.54575 -24.59265,7.97816 -36.75,23.3125 -11.16813,14.08662 -13.42509,28.56187 -11.40625,39.375 -0.42816,0.0589 -0.78456,0.0245 -1.21875,0.0937 -13.45517,2.14583 -30.79015,9.7439 -44.375,28.34375 -6.91023,9.46121 -7.99284,20.92629 -6.1875,30.75 1.80534,9.82371 6.08254,18.71049 10.75,26.46875 1.74404,2.89895 3.56287,5.45928 5.375,8.03125 -5.12624,0.74273 -10.57221,1.77275 -16.125,3.40625 -10.22274,3.00729 -20.93852,7.83373 -29.125,16.84375 -8.18648,9.01002 -12.69159,22.60826 -10.28125,37.84375 4.23914,26.79531 16.37793,46.30859 36.5625,53.84375 16.9039,6.31045 36.96928,4.83462 61.1875,-0.40625 2.26763,51.06199 3.80221,87.37319 4.34375,102.625 0.30862,8.69183 0.41015,13.30482 0.4375,15.6875 0.0274,2.38268 0.0478,1.53555 0,1.9375 -0.0478,0.40195 -0.14608,2.36476 -0.0625,4.71875 0.0836,2.35399 0.28078,6.4273 0.6875,14.375 0.81343,15.8954 3.0852,52.7395 6.4276,115.37973 l 23.68261,1.5225 c -2.69518,-50.5171 -5.41518,-103.92961 -6.14141,-118.12093 -0.40496,-7.91332 -0.61602,-11.98678 -0.6875,-14 -0.0715,-2.01322 -0.11035,-0.6293 -0.0625,-1.03125 0.0478,-0.40195 0.18826,-2.27406 0.15625,-5.0625 -0.032,-2.78844 -0.15711,-7.50423 -0.46875,-16.28125 -0.62329,-17.55403 -2.00846,-51.28446 -4.96875,-117.15625 l -0.65625,-14.75 c -42.40097,10.63642 -90.35068,19.74451 -93.95055,-19.18802 -3.59987,-38.93253 42.77139,-46.52943 63.58055,-48.36829 -13.49166,-17.15305 -35.88934,-49.64919 -25.09875,-64.91244 9.87323,-13.51804 20.31182,-17.46179 28.78125,-18.8125 21.89503,-5.27676 3.60268,-1.31009 26.39869,-5.60066 0,0 -6.07974,-15.29144 -6.77987,-19.11569 -0.84217,-4.60014 -0.5551,-12.66445 8.03743,-23.5024 8.93046,-11.26418 16.29941,-13.74778 21.34375,-14.46875 5.04434,-0.72097 6.9375,0.25 6.9375,0.25 l 15.625,6.46875 0.9375,-16.875 c 0,0 0.22386,-3.69211 3.03125,-7.96875 2.80739,-4.27664 7.10108,-8.927 20.75,-9.4375 l -5e-5,0 c 12.48086,-0.46682 18.85671,5.35735 23.875,12.375 5.01829,7.01765 6.875,14.1875 6.875,14.1875 l 2.28125,9.3125 9.625,-0.1875 c 0,0 13.96605,-0.21519 28.5,3.1875 7.26697,1.70134 14.47691,4.33222 19.65625,7.71875 5.17934,3.38653 8.15768,6.98387 9.4375,11.875 2.91071,11.12393 -2.74167,21.62572 -10.875,30.6875 -8.13333,9.06178 -17.34375,14.75 -17.34375,14.75 l -18.34375,11.1875 19.15625,9.75 c 0,0 3.98736,2.08274 7.71875,6.59375 3.73139,4.51101 6.70744,9.89733 4.53125,19.6875 -2.54896,11.4672 -6.66953,16.55169 -9.5,19.09375 -2.83047,2.54206 -3.1875,2.28125 -3.1875,2.28125 l -33.59375,7.25 30.78125,15.25 c 0,0 8.97122,4.48986 17.28125,10.625 4.15501,3.06757 8.01226,6.56083 10.15625,9.3125 2.14399,2.75167 1.95166,3.92774 2.0625,3.28125 -0.54577,3.18328 -1.70508,4.59237 -4.9375,6.5625 -3.23242,1.97013 -8.51591,3.56164 -14.09375,4.375 -11.15568,1.62672 -22.5,0.40625 -22.5,0.40625 l -42.34375,-5.03125 33.5,26.375 c 0,0 14.1875,11.60278 14.1875,29.34375 0,0.75509 0.0866,1.30733 -3.84375,3.59375 -3.93039,2.28642 -10.82028,4.50489 -17.96875,5.9375 -14.29694,2.86523 -29.21875,3.0625 -29.21875,3.0625 l -14,0.15625 2.28125,13.8125 c 0,0 -0.0482,-0.91641 -0.0312,3.1875 0.0169,4.10391 -0.0639,11.91134 -0.5,26.0625 -0.83073,26.95538 -3.41104,100.75737 -8.4013,193.10113 z" id="path3777" inkscape:connector-curvature="0" sodipodi:nodetypes="cscssscssssscsscsssscsccscssccssscsssscscsssccsscsscczccccssscccsccscccsssscccssscccsscsscccsssccccscc" color="#000000" stroke-width="24" fill="#666666"/>
  <path d="m 300.19516,989.40127 8.69889,-242.69869" id="path3779" inkscape:connector-curvature="0" sodipodi:nodetypes="cc" fill="none" stroke="#666666" stroke-linecap="round" stroke-width="12"/>
  <path d="M 278.01303,915.02587 271.92381,704.51303" id="path3779-3" inkscape:connector-curvature="0" sodipodi:nodetypes="cc" fill="none" stroke="#666666" stroke-linecap="round" stroke-width="12"/>
  <path d="m 387.40417,966.87047 c 15.49134,2.2837 29.79065,5.47625 40.90625,9.78125 11.1156,4.305 18.72138,9.74448 21.875,15.40625 1.32183,2.37312 1.24468,3.30119 0.21875,5.28129 -1.02593,1.98 -3.78916,4.78864 -8.28125,7.56254 -8.98418,5.5477 -24.34878,10.92 -42.65625,15.1563 -36.61494,8.4725 -85.16889,12.8253 -121.90625,11.0937 -37.17811,-1.7523 -76.91767,-6.1793 -106,-14.25 -14.54117,-4.0354 -26.37841,-9.0718 -33.65625,-14.5313 -7.27784,-5.45954 -9.80996,-10.20308 -8.75,-16.40628 0.93251,-5.45733 6.74661,-10.6143 18.1875,-14.84375 11.44089,-4.22945 27.467,-7.04256 45.03125,-8.71875 -0.46589,-10.94529 -0.38325,1.23306 -1.125,-11.9375 -18.11893,1.72913 -34.91312,4.53365 -48.09375,9.40625 -13.18063,4.8726 -23.79591,12.29208 -25.8125,24.09375 -1.88914,11.05581 3.99708,21.01988 13.34375,28.03128 9.34667,7.0115 22.31553,12.2116 37.65625,16.4688 30.68144,8.5144 70.93846,12.9098 108.65625,14.6875 38.15854,1.7985 87.17003,-2.6164 125.15625,-11.4063 18.99311,-4.3949 35.15821,-9.7565 46.28125,-16.625 5.56152,-3.4342 10.03562,-7.2524 12.625,-12.25 2.58938,-4.99764 2.52155,-11.39992 -0.40625,-16.65628 -5.34564,-9.59715 -15.54114,-15.92476 -28,-20.75 -12.45886,-4.82524 -27.47932,-8.10701 -43.5,-10.46875 z" id="path3799-8" inkscape:connector-curvature="0" sodipodi:nodetypes="cssssssssssccsssssssssscc" color="#000000" stroke-width="12"/>
 </g>
</svg>
