<?xml version="1.0" encoding="UTF-8" standalone="no"?>
<svg xmlns="http://www.w3.org/2000/svg" xmlns:sodipodi="http://sodipodi.sourceforge.net/DTD/sodipodi-0.dtd" xmlns:inkscape="http://www.inkscape.org/namespaces/inkscape" version="1.0" width="580" height="580">
 <metadata id="metadata1976"/>
 <defs id="defs4">
  <marker viewBox="0 0 10 10" refY="5" refX="10" orient="auto" markerWidth="4" markerUnits="strokeWidth" markerHeight="3" id="ArrowStart">
   <path id="path2111" d="M 10 0 L 0 5 L 10 10 z"/>
  </marker>
  <marker viewBox="0 0 10 10" refY="5" orient="auto" markerWidth="4" markerUnits="strokeWidth" markerHeight="3" id="ArrowEnd">
   <path id="path2108" d="M 0 0 L 10 5 L 0 10 z"/>
  </marker>
 </defs>
 <path inkscape:connector-curvature="0" d="m 257.92966,412.50001 197.94003,0" id="path2872" sodipodi:nodetypes="cc" fill="#0092da" stroke="#0092da" stroke-linejoin="round" stroke-linecap="round" stroke-width="27.772"/>
 <path inkscape:connector-curvature="0" d="m 347.47184,242.49232 c -40.26875,1.25505 -79.22171,13.99699 -119.59736,14.67267 -51.8751,3.40691 -114.35258,5.75741 -166.248234,3.47071 2.965184,1.92376 17.144754,0.55506 17.021947,15.60032 4.182172,7.74011 -9.124012,19.09319 -3.521193,21.35547 65.96268,4.12626 155.61567,39.48996 226.49094,69.28185 36.15443,12.42478 75.65249,10.13401 113.24243,6.8688 19.62677,-3.27463 44.44785,-4.84441 55.18247,-24.50492 4.75689,-13.5389 -0.001,-28.64324 -4.96596,-41.39845 -17.34072,-40.13916 -61.15,-61.94527 -103.16641,-64.95596 -4.79914,-0.39931 -9.62467,-0.52614 -14.43863,-0.39049 z m 38.55873,17.77968 c 17.94903,1.54246 36.09313,10.47981 47.67476,24.03431 12.80756,12.00041 19.54647,29.77237 20.82762,47.43837 -23.26633,0.78595 -42.79819,-0.11896 -64.92557,-0.11896 -11.48912,-23.85082 -24.46082,-46.33274 -35.83234,-70.23983 10.73598,-0.83515 19.21217,-1.8357 32.25553,-1.11386 z m -51.37679,2.56213 c 10.70501,10.4246 25.4254,57.9612 31.09223,70.97345 -19.07488,-0.21329 -48.87445,0.52627 -67.94893,0.2828 -0.19903,-11.8196 -0.91987,-59.0753 -1.11603,-70.89494 12.03609,-0.18477 25.93654,-0.19763 37.97273,-0.36131 z" id="path3660" sodipodi:nodetypes="cccccccccccccccccccccc" fill="#0092da" stroke="#0092da" stroke-linejoin="round" stroke-linecap="round" stroke-width="12.624"/>
 <path inkscape:connector-curvature="0" d="m 327.16594,225.52289 c -18.27592,-3.35914 -40.17955,12.96451 -57.81836,20.51618 l 54.08815,3.73021 62.06645,-7.46042 c -12.75512,-6.61789 -38.72197,-19.31363 -58.33624,-16.78597 z" id="path3662" sodipodi:nodetypes="ccccc" fill="#0092da" stroke="#0092da" stroke-width="5.495"/>
 <path inkscape:connector-curvature="0" d="m 327.16594,185.42304 -0.93255,45.69517" id="path3664" fill="#0092da" stroke="#0092da" stroke-width="15.446"/>
 <path inkscape:connector-curvature="0" sodipodi:nodetypes="ccccccc" d="m 96.009615,161.17664 229.291215,21.44874 236.75165,-20.51618 -11.19064,13.05576 -223.6959,12.1232 -219.96567,-10.2581 -11.190655,-15.85342 z" id="path3666" fill="#0092da" stroke="#0092da" stroke-linejoin="round" stroke-linecap="round" stroke-width="7.574"/>
 <path inkscape:connector-curvature="0" d="M 48.850674,257.35308 C 43.560211,243.27459 38.470807,229.07868 33.224126,214.9707 l -9.792685,0.55693 0,0 c 6.913535,14.41939 13.48966,29.44846 20.404918,43.86474" id="path3726" fill="#0092da" stroke="#0092da" stroke-linejoin="round" stroke-linecap="round" stroke-width="15"/>
 <path inkscape:connector-curvature="0" d="m 60.86539,301.95141 15.103109,43.34089 c 2.499011,-0.80659 9.701244,1.46849 10.256793,-1.57796 -7.987415,-13.99274 -13.925848,-29.23792 -20.444186,-44.1314" id="path3678" fill="#0092da" stroke="#0092da" stroke-linejoin="round" stroke-linecap="round" stroke-width="15"/>
 <path inkscape:connector-curvature="0" d="m 52.197793,253.71646 c -18.760474,0.0422 -31.500403,22.96671 -21.910054,38.95122 8.365028,17.22342 35.246105,18.38763 45.20523,2.09866 12.002568,-17.57369 -1.817002,-42.45215 -23.295176,-41.04988 z m 0.713539,11.87844 c 12.39631,-1.17058 20.206948,15.65486 11.248841,24.30254 -7.935509,9.5955 -25.274,3.16623 -25.142001,-9.23412 -0.448558,-7.79209 6.087334,-14.88022 13.89316,-15.06842 z" id="path3680" fill="#0092da" stroke-linejoin="round" stroke-linecap="round" stroke-width="27.772"/>
</svg>
