<?xml version="1.0" encoding="UTF-8" standalone="no"?>
<svg xmlns="http://www.w3.org/2000/svg" xmlns:sodipodi="http://sodipodi.sourceforge.net/DTD/sodipodi-0.dtd" xmlns:inkscape="http://www.inkscape.org/namespaces/inkscape" version="1.0" width="580" height="580">
 <metadata id="metadata2975"/>
 <g id="g4095" transform="matrix(0.80260466,0,0,0.79862567,59.387035,53.881602)">
  <path id="rect3018-6-8-1" d="M 500.375,37.062504 C 357.22372,38.349311 214.03916,35.918646 70.90625,38.375004 55.944617,42.284435 49.444769,59.859301 51.875,74.000004 53.43233,176.81248 50.454173,279.69554 53.46875,382.46875 58.216363,397.11054 75.928168,402.88464 90,400 c 140.03878,-0.47958 280.10246,0.96882 420.125,-0.8125 15.27991,-3.97416 22.09996,-22.04385 18.9375,-36.46875 -0.54604,-102.2416 1.14023,-204.55393 -0.96875,-306.749996 C 525.20182,43.879948 512.29256,36.492495 500.375,37.062504 Z m -212.78125,15.28125 c 1.42809,-0.0164 2.83967,0.369976 4,1.21875 24.27624,32.721925 46.2709,67.168506 69.9375,100.374996 5.10012,3.84513 5.77385,14.43639 -1.75,15.8125 -16.88792,-4.38674 -32.67213,-12.44566 -48.84375,-19 -0.0291,21.38107 0.49925,43.0402 -1.9375,64.21875 -6.52661,6.38789 -16.71583,3.09902 -24.90625,3.53125 -7.80717,-0.80589 -18.21791,3.25054 -23.875,-4.21875 -1.98557,-20.91234 0.17175,-42.11286 0.21875,-63.125 -13.54054,5.55941 -27.45869,10.39191 -40.90625,16.25 -5.16344,4.792 -15.81397,0.63292 -14.03125,-6.9375 20.04457,-29.56149 42.10685,-57.93801 63,-86.999996 6.5268,-6.635583 9.37889,-17.228858 18.46875,-21.09375 0.20306,-0.01887 0.42099,-0.02891 0.625,-0.03125 z m 54.5,182.874996 c 5.1513,-0.21986 10.65116,2.73785 10.625,8.46875 0.0256,44.85364 0.8412,89.78968 -0.34375,134.65625 -3.80035,8.24645 -14.80061,6.46144 -21.9375,4.46875 -23.92361,-23.22798 -46.3585,-48.1886 -69.625,-72.15625 -0.10052,21.23338 0.68941,42.49805 -0.375,63.71875 0.9313,7.05923 -7.55018,8.8117 -12.90625,8.125 -7.907,-1.53175 -16.15728,1.75425 -23.78125,-1.03125 -6.87529,-2.42026 -4.47704,-10.98566 -5.28125,-16.59375 0.6739,-40.22799 -0.82004,-80.47117 0.5625,-120.6875 -1.52104,-6.7037 6.09214,-8.865 11.25,-8.875 4.07041,-0.12008 8.06969,0.51907 12.03125,1.15625 23.91377,21.54811 45.40951,45.97566 68.28125,68.75 0.0141,-13.84778 -0.1096,-27.71467 -0.0625,-41.5625 1.21411,-8.52552 -2.10781,-18.02028 2.46875,-25.875 8.16276,-4.62597 18.01338,-0.98286 26.90625,-2.28125 0.70364,-0.1624 1.4516,-0.24984 2.1875,-0.28125 z" inkscape:connector-curvature="0" fill="#ffffff" color="#000000" stroke-width="10"/>
  <path inkscape:connector-curvature="0" sodipodi:nodetypes="ccccc" id="path2459-9" d="m 484.34494,60.594226 20.38592,0 0,474.481774 -20.17303,0 -0.21289,-474.481774 z" fill="#734a08" fill-rule="evenodd" stroke="#734a08" stroke-linejoin="round" stroke-linecap="round" stroke-width="25.08"/>
  <path inkscape:connector-curvature="0" sodipodi:nodetypes="ccccc" id="path2459-9-2" d="m 77.26914,62.594226 20.38591,0 0,470.811534 -20.17301,0 -0.2129,-470.811534 z" fill="#734a08" fill-rule="evenodd" stroke="#734a08" stroke-linejoin="round" stroke-linecap="round" stroke-width="24.981"/>
  <path inkscape:connector-curvature="0" id="rect6923" d="M 500.375,37.0625 C 357.22372,38.349307 214.03916,35.918642 70.90625,38.375 55.944617,42.284431 49.444769,59.859297 51.875,74 53.43233,176.81248 50.454173,279.69554 53.46875,382.46875 58.216363,397.11054 75.928168,402.88464 90,400 c 140.03878,-0.47958 280.10246,0.96882 420.125,-0.8125 15.27991,-3.97416 22.09996,-22.04385 18.9375,-36.46875 -0.54604,-102.2416 1.14023,-204.55393 -0.96875,-306.75 C 525.20182,43.879944 512.29256,36.492491 500.375,37.0625 Z" opacity="0.00001" fill="#734a08"/>
  <path id="rect3018-6-8" d="M 500.375,37.0625 C 357.22372,38.349307 214.03916,35.918642 70.90625,38.375 55.944617,42.284431 49.444769,59.859297 51.875,74 53.43233,176.81248 50.454173,279.69554 53.46875,382.46875 58.216363,397.11054 75.928168,402.88464 90,400 c 140.03878,-0.47958 280.10246,0.96882 420.125,-0.8125 15.27991,-3.97416 22.09996,-22.04385 18.9375,-36.46875 -0.54604,-102.2416 1.14023,-204.55393 -0.96875,-306.75 C 525.20182,43.879944 512.29256,36.492491 500.375,37.0625 Z M 287.59375,52.34375 c 1.42809,-0.0164 2.83967,0.369976 4,1.21875 24.27624,32.721925 46.2709,67.16851 69.9375,100.375 5.10012,3.84513 5.77385,14.43639 -1.75,15.8125 -16.88792,-4.38674 -32.67213,-12.44566 -48.84375,-19 -0.0291,21.38107 0.49925,43.0402 -1.9375,64.21875 -6.52661,6.38789 -16.71583,3.09902 -24.90625,3.53125 -7.80717,-0.80589 -18.21791,3.25054 -23.875,-4.21875 -1.98557,-20.91234 0.17175,-42.11286 0.21875,-63.125 -13.54054,5.55941 -27.45869,10.39191 -40.90625,16.25 -5.16344,4.792 -15.81397,0.63292 -14.03125,-6.9375 20.04457,-29.56149 42.10685,-57.93801 63,-87 6.5268,-6.635583 9.37889,-17.228858 18.46875,-21.09375 0.20306,-0.01887 0.42099,-0.02891 0.625,-0.03125 z m 54.5,182.875 c 5.1513,-0.21986 10.65116,2.73785 10.625,8.46875 0.0256,44.85364 0.8412,89.78968 -0.34375,134.65625 -3.80035,8.24645 -14.80061,6.46144 -21.9375,4.46875 -23.92361,-23.22798 -46.3585,-48.1886 -69.625,-72.15625 -0.10052,21.23338 0.68941,42.49805 -0.375,63.71875 0.9313,7.05923 -7.55018,8.8117 -12.90625,8.125 -7.907,-1.53175 -16.15728,1.75425 -23.78125,-1.03125 -6.87529,-2.42026 -4.47704,-10.98566 -5.28125,-16.59375 0.6739,-40.22799 -0.82004,-80.47117 0.5625,-120.6875 -1.52104,-6.7037 6.09214,-8.865 11.25,-8.875 4.07041,-0.12008 8.06969,0.51907 12.03125,1.15625 23.91377,21.54811 45.40951,45.97566 68.28125,68.75 0.0141,-13.84778 -0.1096,-27.71467 -0.0625,-41.5625 1.21411,-8.52552 -2.10781,-18.02028 2.46875,-25.875 8.16276,-4.62597 18.01338,-0.98286 26.90625,-2.28125 0.70364,-0.1624 1.4516,-0.24984 2.1875,-0.28125 z" inkscape:connector-curvature="0" opacity="0.75" fill="#734a08" color="#000000" stroke-width="10"/>
  <path inkscape:connector-curvature="0" id="path3003" d="m 266.10719,217.63085 c -1.41656,-0.36708 -3.3597,-1.53443 -4.3181,-2.5941 -1.65602,-1.83101 -1.73187,-3.47691 -1.52743,-33.14604 l 0.21511,-31.21936 -5.15841,1.93001 c -2.83712,1.06151 -12.5382,4.98182 -21.55796,8.7118 -19.47176,8.05226 -22.16318,8.61836 -25.43221,5.34933 -1.27595,-1.27594 -2.31991,-3.17382 -2.31991,-4.2175 0,-2.58758 9.07835,-15.38389 62.82289,-88.551486 4.40295,-5.99416 8.92758,-12.221847 10.05474,-13.839303 3.04582,-4.370716 8.15042,-7.708626 10.46989,-6.846293 2.11874,0.787703 12.47301,15.015992 37.85528,52.018712 9.42272,13.73661 21.25659,30.83082 26.29749,37.98712 5.0409,7.15629 9.67011,13.89972 10.28714,14.9854 2.5,4.3988 0.27074,10.60191 -3.81009,10.60191 -3.08607,0 -17.90938,-5.32562 -33.94716,-12.19632 -7.66161,-3.28229 -14.24553,-5.96781 -14.6309,-5.96781 -0.38538,0 -0.97169,12.77165 -1.30292,28.38145 -0.33122,15.60979 -0.84137,30.13069 -1.13365,32.26867 -0.85811,6.27687 -2.85207,6.8724 -23.2635,6.9481 -9.3636,0.0347 -18.18374,-0.2372 -19.6003,-0.60429 l 0,0 z" fill="#ffffff"/>
  <path inkscape:connector-curvature="0" id="path3005" d="m 333.44613,383.09341 c -2.03522,-0.62243 -10.49489,-8.72691 -28.60849,-27.40737 -14.14532,-14.58799 -29.90296,-30.82907 -35.01696,-36.09128 l -9.2982,-9.56766 -0.0633,30.87901 c -0.0348,16.98346 -0.34857,32.51378 -0.69729,34.51184 -1.02751,5.88722 -3.86337,6.78446 -20.70271,6.55014 -12.48808,-0.17377 -14.10021,-0.38046 -16.41111,-2.10409 -1.86128,-1.38827 -2.73064,-3.00393 -3.17647,-5.90334 -0.76913,-5.00184 -0.7362,-105.92984 0.04,-122.51285 l 0.57386,-12.26079 3.17872,-1.58795 c 3.25058,-1.62384 10.69065,-2.08813 16.46124,-1.02725 2.5352,0.46607 8.99332,6.54531 37.34998,35.15876 l 34.28478,34.59526 0,-31.39042 c 0,-19.99996 0.35347,-32.40436 0.97409,-34.18468 1.40343,-4.0259 4.51199,-4.74244 20.57415,-4.74244 l 14.01153,0 2.65475,2.65476 2.65476,2.65476 0,68.4695 0,68.46952 -2.72369,2.60946 c -2.25503,2.16045 -3.62244,2.6526 -7.94681,2.86015 -2.87271,0.13789 -6.52349,-0.14698 -8.11284,-0.63304 l 0,0 z" fill="#ffffff"/>
 </g>
</svg>
