<?xml version="1.0" encoding="UTF-8" standalone="no"?>
<svg xmlns="http://www.w3.org/2000/svg" xmlns:sodipodi="http://sodipodi.sourceforge.net/DTD/sodipodi-0.dtd" xmlns:inkscape="http://www.inkscape.org/namespaces/inkscape" width="580" height="580" version="1.1">
 <metadata id="metadata7"/>
 <g inkscape:label="Ebene 1" inkscape:groupmode="layer" id="layer1" transform="translate(0,-472.36218)">
  <path d="m 356,685.49805 c 0,23.62174 0,47.24349 0,70.86523 -107.95433,0.24577 -215.95069,-0.50756 -323.878906,0.39258 -12.644331,2.23959 -16.848126,21.44126 -5.820313,28.40039 9.771314,6.40448 21.889145,1.7557 32.699219,3.20508 99,0 198,0 297,0 0,24.70443 0,49.40885 0,74.11328 68.66233,-30.00684 137.32525,-60.01234 205.98828,-90.01758 C 493.32529,742.45236 424.66231,712.44765 356,682.44141 c 0,1.01888 0,2.03776 0,3.05664 z" id="path2994" inkscape:connector-curvature="0" visibility="visible" shape-rendering="auto" mix-blend-mode="normal" color-interpolation-filters="linearRGB" isolation="auto" stroke-dasharray="none" stroke-opacity="1" white-space="normal" opacity="1" fill="#666666" solid-opacity="1" stroke-miterlimit="4" image-rendering="auto" fill-opacity="1" solid-color="#000000" stroke="#ffffff" display="inline" color="#000000" fill-rule="nonzero" stroke-linecap="round" stroke-linejoin="miter" stroke-width="8" color-rendering="auto" stroke-dashoffset="0" color-interpolation="sRGB"/>
 </g>
</svg>
