<?xml version="1.0" encoding="UTF-8" standalone="no"?>
<svg xmlns="http://www.w3.org/2000/svg" xmlns:xlink="http://www.w3.org/1999/xlink" xmlns:sodipodi="http://sodipodi.sourceforge.net/DTD/sodipodi-0.dtd" xmlns:inkscape="http://www.inkscape.org/namespaces/inkscape" version="1.0" width="580" height="580">
 <metadata id="metadata2975"/>
 <defs id="defs4">
  <symbol viewBox="244.5 110 489 219.9" id="symbol-university">
   <path id="path4460" d="M79,43l57,119c0,0,21-96,104-96s124,106,124,106l43-133l82-17L0,17L79,43z"/>
   <path id="path4462" d="M94,176l-21,39" stroke-width="20" stroke="#000000" fill="none"/>
   <path id="path4464" d="M300,19c0,10.5-22.6,19-50.5,19S199,29.5,199,19s22.6-19,50.5-19S300,8.5,300,19z"/>
   <path id="path4466" d="M112,216l-16-38L64,88c0,0-9-8-4-35s16-24,16-24" stroke-width="20" stroke="#000000" ill="none"/>
  </symbol>
  <radialGradient gradientUnits="userSpaceOnUse" gradientTransform="scale(0.79354273,1.2601716)" xlink:href="#linearGradient829" id="radialGradient874" cx="180.25" cy="198.42" r="101.58"/>
  <linearGradient id="linearGradient829">
   <stop id="stop830" stop-color="#ffffff" stop-opacity="0.342"/>
   <stop offset="1" id="stop831" stop-color="#ffffff" stop-opacity="0"/>
  </linearGradient>
  <radialGradient gradientUnits="userSpaceOnUse" gradientTransform="scale(1.007004,0.99304475)" xlink:href="#linearGradient829" id="radialGradient832" cx="360.85" cy="167.47" r="46.39"/>
  <linearGradient gradientUnits="userSpaceOnUse" gradientTransform="scale(0.74491357,1.3424376)" xlink:href="#linearGradient855" id="linearGradient850" x1="465.29" y1="248.24" x2="463.27" y2="405.77"/>
  <linearGradient id="linearGradient855">
   <stop id="stop856" stop-color="#ffffff" stop-opacity="0"/>
   <stop offset="1" id="stop857" stop-color="#ffa617" stop-opacity="0.733"/>
  </linearGradient>
  <linearGradient gradientUnits="userSpaceOnUse" gradientTransform="scale(1.4586159,0.68558144)" xlink:href="#linearGradient855" id="linearGradient854" x1="157.81" y1="120.96" x2="155.41" y2="231.63"/>
 </defs>
 <path inkscape:connector-curvature="0" id="path6571" d="m 472.00214,95.129535 c 0,0 -37.79355,128.088355 -148.8412,89.907265 -0.0193,0.0801 13.39948,-111.59212 148.8412,-89.907265 z" fill="#ac39ac"/>
 <path inkscape:connector-curvature="0" id="path6573" d="m 285.86201,253.57666 c 19.18974,-18.98341 45.39515,-30.43536 74.48919,-30.43536 58.70418,0 106.47225,47.5617 106.47225,106.369 0,2.16659 0,4.02366 -0.10316,6.29342 h -0.20632 c -1.85708,23.00707 -9.1822,51.58536 -26.51497,87.0761 0,0 -29.81632,57.0534 -53.75195,83.25875 l -2.16656,2.06343 c -11.55509,11.6583 -27.85609,18.98341 -45.4982,18.98341 -21.66591,0 -40.85566,-10.52342 -52.51395,-26.82439 h -0.30951 c -11.6583,16.30097 -30.84804,26.82439 -52.51389,26.82439 -17.84854,0 -33.94318,-7.22196 -45.60147,-18.98341 l -2.16657,-2.06343 c -23.72927,-26.20535 -53.75195,-83.25875 -53.75195,-83.25875 -17.33268,-35.49074 -24.6578,-64.27536 -26.30854,-87.0761 h -0.51585 c -0.30951,-2.16657 -0.30951,-4.02365 -0.30951,-6.29342 0,-58.8073 47.76805,-106.369 106.67852,-106.369 28.99096,0 55.19634,11.45195 74.59244,30.43536" fill="#ac39ac"/>
 <path inkscape:connector-curvature="0" d="m 128.25883,55.38435 c 0,0 22.45526,111.90646 119.88471,87.82844 0.0103,0.0697 -2.94058,-96.012823 -119.88471,-87.82844 z" id="path10957" fill="#ac39ac"/>
 <path inkscape:connector-curvature="0" d="m 282.75941,231.04959 c 0,0 -1.08211,-114.9027 -12.98541,-144.877322 -11.9033,-29.97462 40.03836,0 40.03836,0 L 282.75941,231.04959 z" id="path10959" fill="#ac39ac" stroke="#ac39ac" stroke-width="4.836"/>
</svg>
