<?xml version="1.0" encoding="UTF-8" standalone="no"?>
<svg xmlns="http://www.w3.org/2000/svg" xmlns:sodipodi="http://sodipodi.sourceforge.net/DTD/sodipodi-0.dtd" xmlns:inkscape="http://www.inkscape.org/namespaces/inkscape" version="1.0" width="580" height="580">
 <metadata id="metadata2975"/>
 <defs id="defs4">
  <marker inkscape:stockid="Arrow1Lstart" orient="auto" refY="0.0" refX="0.0" id="Arrow1Lstart" inkscape:isstock="true">
   <path id="path4195" d="M 0.0,0.0 L 5.0,-5.0 L -12.5,0.0 L 5.0,5.0 L 0.0,0.0 z " transform="scale(0.8) translate(12.5,0)" fill-rule="evenodd" stroke="#000000" stroke-width="1.25"/>
  </marker>
  <symbol viewBox="244.5 110 489 219.9" id="symbol-university">
   <path id="path4460" d="M79,43l57,119c0,0,21-96,104-96s124,106,124,106l43-133l82-17L0,17L79,43z"/>
   <path id="path4462" d="M94,176l-21,39" stroke-width="20" stroke="#000000" fill="none"/>
   <path id="path4464" d="M300,19c0,10.5-22.6,19-50.5,19S199,29.5,199,19s22.6-19,50.5-19S300,8.5,300,19z"/>
   <path id="path4466" d="M112,216l-16-38L64,88c0,0-9-8-4-35s16-24,16-24" stroke-width="20" stroke="#000000" ill="none"/>
  </symbol>
 </defs>
 <rect id="rect3585-1" width="168.92" height="168.92" x="211.69" y="372.15" rx="0" fill="#ffffff" stroke="#000000" stroke-linejoin="round" stroke-linecap="round" stroke-width="20.14"/>
 <rect id="rect3585" width="168.92" height="168.92" x="211.69" y="372.15" rx="0" opacity="0.25" stroke="#000000" stroke-linejoin="round" stroke-linecap="round" stroke-width="20.14" fill="#000000" fill-opacity="1"/>
 <circle id="path4189" cx="290.75" cy="61.1" r="32.24" stroke-linejoin="round" stroke-linecap="square"/>
 <path inkscape:connector-curvature="0" d="m 319.44451,136.57115 18.24164,78.15681" id="path4817" sodipodi:nodetypes="cc" stroke="#000000" stroke-linejoin="round" stroke-linecap="round" stroke-width="82.5"/>
 <path inkscape:connector-curvature="0" d="M 314.47081,122.54582 244.36917,133.47678 203.29022,80.007892" id="path5329" sodipodi:nodetypes="ccc" stroke-opacity="0" fill="none" stroke="#000000" stroke-linejoin="round" stroke-linecap="round" stroke-width="56.673"/>
 <path inkscape:connector-curvature="0" d="m 365.96559,300.43445 -96.94942,1.14646" id="path5331" sodipodi:nodetypes="cc" fill="none" stroke="#000000" stroke-linejoin="round" stroke-linecap="round" stroke-width="46"/>
 <path inkscape:connector-curvature="0" d="m 352.96944,225.1524 -83.4273,67.60084" id="path5333" sodipodi:nodetypes="cc" fill="none" stroke="#000000" stroke-linejoin="round" stroke-linecap="round" stroke-width="50"/>
 <path inkscape:connector-curvature="0" sodipodi:nodetypes="cc" id="path4057" d="m 344.93314,218.39474 -75.391,74.3585" fill="none" stroke="#000000" stroke-linejoin="round" stroke-linecap="round" stroke-width="50"/>
 <path inkscape:connector-curvature="0" sodipodi:nodetypes="ccc" id="path4059" d="m 314.47081,128.66215 -70.10164,4.81463 -41.07895,-53.468888" fill="none" stroke="#000000" stroke-linejoin="round" stroke-linecap="round" stroke-width="36.9"/>
 <rect rx="0" y="372.15" x="211.69" height="168.92" width="168.92" id="rect3587" fill="none" stroke="#000000" stroke-linejoin="round" stroke-linecap="round" stroke-width="20.14"/>
</svg>
