<?xml version="1.0" encoding="UTF-8" standalone="no"?>
<svg xmlns="http://www.w3.org/2000/svg" xmlns:sodipodi="http://sodipodi.sourceforge.net/DTD/sodipodi-0.dtd" xmlns:inkscape="http://www.inkscape.org/namespaces/inkscape" version="1.0" width="580" height="580">
 <metadata id="metadata2975"/>
 <path d="m 282.70549,300.01445 c -8.84877,-2.08474 -11.79873,-4.75143 -74.50908,-67.35446 l -62.39257,-62.28579 144.58928,-0.005 144.58929,-0.005 -60.90402,61.00842 c -33.4972,33.55463 -63.13231,62.4517 -65.8558,64.21572 -7.78113,5.03988 -16.49497,6.55118 -25.5171,4.42559 z" id="path3754-1" inkscape:connector-curvature="0" fill="#ffffff" color="#000000" stroke-width="16.52"/>
 <path d="m 406.0167,337.48394 -48.77141,-48.77887 49.02275,-49.01525 49.02275,-49.01525 0,97.79413 c 0,53.78676 -0.1131,97.79412 -0.25134,97.79412 -0.13824,0 -22.19848,-21.9505 -49.02275,-48.77888 z" id="path3756-7" inkscape:connector-curvature="0" fill="#ffffff" color="#000000" stroke-width="16.52"/>
 <path d="m 194.99862,357.86805 49.19229,-49.19228 5.52452,5.04909 c 6.84797,6.25866 13.85186,10.28825 22.85426,13.14887 9.56408,3.0391 26.79226,3.09162 36.14808,0.1102 8.19249,-2.6107 17.01459,-7.89378 23.04396,-13.79978 l 4.72233,-4.6257 49.25095,49.25094 49.25095,49.25095 -144.58982,0 -144.58981,0 49.19229,-49.19229 z" id="path3758-4" inkscape:connector-curvature="0" fill="#ffffff" color="#000000" stroke-width="16.52"/>
 <path d="m 126.54529,288.70878 0.0534,-99.03207 48.96075,49.51791 c 26.92841,27.23485 48.96459,49.74243 48.96929,50.01685 0.005,0.27441 -22.05168,22.55578 -49.01418,49.51416 l -49.02274,49.01522 0.0534,-99.03207 z" id="path3760-0" inkscape:connector-curvature="0" fill="#ffffff" color="#000000" stroke-width="16.52"/>
 <path d="m 126.19975,188.66899 99.8279,100.31358 -99.8279,99.82789 0,-200.14147 z m 310.56587,-18.8088 -122.9636,122.49265 c -6.11287,6.11275 -13.82967,9.16905 -23.15042,9.16892 -9.645,1.3e-4 -17.68558,-3.21806 -24.12175,-9.65461 l -122.00696,-122.00696 292.24273,0 z m 19.29447,218.95027 -99.8279,-99.82789 99.8279,-100.31358 0,200.14147 z m -312.02288,18.80879 100.31356,-99.8279 4.34164,4.34163 c 11.57744,11.25399 25.56382,16.88093 41.95919,16.88082 16.39489,1.1e-4 30.21939,-5.62683 41.47355,-16.88082 l 4.34161,-4.34163 100.29886,99.8279 -292.72841,0 z m -44.843821,27.00637 384.844411,0 0,-292.25746 -384.844411,0 0,292.25746 z" id="flowRoot3192" inkscape:connector-curvature="0" fill="#734a08"/>
 <path d="m 282.70549,300.01445 c -8.84877,-2.08474 -11.79873,-4.75143 -74.50908,-67.35446 l -62.39257,-62.28579 144.58928,-0.005 144.58929,-0.005 -60.90402,61.00842 c -33.4972,33.55463 -63.13231,62.4517 -65.8558,64.21572 -7.78113,5.03988 -16.49497,6.55118 -25.5171,4.42559 z" id="path3754" inkscape:connector-curvature="0" opacity="0.1" color="#000000" stroke-width="16.52" fill="#734a08"/>
 <path d="m 406.0167,337.48394 -48.77141,-48.77887 49.02275,-49.01525 49.02275,-49.01525 0,97.79413 c 0,53.78676 -0.1131,97.79412 -0.25134,97.79412 -0.13824,0 -22.19848,-21.9505 -49.02275,-48.77888 z" id="path3756" inkscape:connector-curvature="0" opacity="0.1" fill="#734a08" color="#000000" stroke-width="16.52"/>
 <path d="m 194.99862,357.86805 49.19229,-49.19228 5.52452,5.04909 c 6.84797,6.25866 13.85186,10.28825 22.85426,13.14887 9.56408,3.0391 26.79226,3.09162 36.14808,0.1102 8.19249,-2.6107 17.01459,-7.89378 23.04396,-13.79978 l 4.72233,-4.6257 49.25095,49.25094 49.25095,49.25095 -144.58982,0 -144.58981,0 49.19229,-49.19229 z" id="path3758" inkscape:connector-curvature="0" opacity="0.1" fill="#734a08" color="#000000" stroke-width="16.52"/>
 <path d="m 126.54529,288.70878 0.0534,-99.03207 48.96075,49.51791 c 26.92841,27.23485 48.96459,49.74243 48.96929,50.01685 0.005,0.27441 -22.05168,22.55578 -49.01418,49.51416 l -49.02274,49.01522 0.0534,-99.03207 z" id="path3760" inkscape:connector-curvature="0" opacity="0.1" fill="#734a08" color="#000000" stroke-width="16.52"/>
</svg>
