<?xml version="1.0" encoding="UTF-8" standalone="no"?>
<svg xmlns="http://www.w3.org/2000/svg" xmlns:sodipodi="http://sodipodi.sourceforge.net/DTD/sodipodi-0.dtd" xmlns:inkscape="http://www.inkscape.org/namespaces/inkscape" width="580" height="580" version="1.1">
 <metadata id="metadata20"/>
 <g id="g4142" transform="matrix(1.1424875,0,0,1.1424875,-41.327178,-41.320735)">
  <path inkscape:connector-curvature="0" id="path8" d="m 142.58,135.83 c -0.641,0.005 -1.291,0.042 -1.944,0.096 -24.11,1.476 -33.366,34.12 -13.853,48.09 18.729,14.415 46.808,-2.868 42.24,-26.18 -2.299,-13.08 -13.187,-22.1 -26.442,-22 l -10e-5,0" mix-blend-mode="normal" isolation="auto" white-space="normal" fill="#0092da" color-rendering="auto" solid-opacity="1" color-interpolation-filters="linearRGB" shape-rendering="auto" image-rendering="auto" stroke-linejoin="round" stroke-linecap="round" color-interpolation="sRGB" color="#000000" stroke-width="666.88" solid-color="#000000"/>
  <path inkscape:connector-curvature="0" id="path10" d="m 115.35962,194.70933 a 13.10488,13.10488 0 0 0 -8.17315,2.72502 l -41.492,31.06 a 13.10488,13.10488 0 0 0 -4.718638,6.79402 l -13.1,44.574 a 13.10488,13.10488 0 1 0 25.14317,7.39152 l 11.874,-40.39 37.999998,-28.45 a 13.10488,13.10488 0 0 0 -7.53285,-23.70457 m -12.75237,147.5904 a 18.214182,18.214182 0 0 0 -16.973724,10.79166 l -30.09,64.98 a 18.214182,18.214182 0 1 0 33.05276,15.30632 l 30.090004,-64.98 A 18.214182,18.214182 0 0 0 102.6079,342.29984 M 99.364385,268.66668 A 18.12976,18.12976 0 0 0 81.85516,287.38025 l 1.308,70.21 a 18.12976,18.12976 0 1 0 36.24956,-0.67544 l -1.308,-70.21 A 18.12976,18.12976 0 0 0 99.36374,268.66657 m 14.52915,-0.81774 a 18.12976,18.12976 0 0 0 -13.76505,28.95838 l 43.611,60.18 a 18.12976,18.12976 0 1 0 29.35827,-21.274 L 129.49,275.53 a 18.12976,18.12976 0 0 0 -15.59312,-7.68427 z m 46.09341,63.85971 a 16.6022,16.6022 0 0 0 -15.86899,18.81402 l 9.158,75.883 a 16.6022,16.6022 0 1 0 32.96186,-3.9781 l -9.158,-75.883 A 16.6022,16.6022 0 0 0 159.9863,331.70854 M 137.34984,200.47569 a 13.10488,13.10488 0 0 0 -11.70389,18.43792 l 18.04,42.06 a 13.10488,13.10488 0 0 0 3.48318,4.75622 l 27.665,23.866 a 13.10488,13.10488 0 1 0 17.11878,-19.84337 L 166.58,247.87 149.73,208.58 a 13.10488,13.10488 0 0 0 -12.38114,-8.10699 z m -14.86502,-7.76295 a 29.827684,29.827684 0 0 0 -28.311605,24.95437 l -11.564,64.45 a 29.827684,29.827684 0 1 0 58.711655,10.53501 l 11.564,-64.45 a 29.827684,29.827684 0 0 0 -30.40006,-35.48937" mix-blend-mode="normal" isolation="auto" white-space="normal" fill="#0092da" color-rendering="auto" solid-opacity="1" color-interpolation-filters="linearRGB" shape-rendering="auto" image-rendering="auto" stroke-linejoin="round" stroke-linecap="round" color-interpolation="sRGB" color="#000000" stroke-width="482.04999" solid-color="#000000"/>
  <path d="m 234.82,171.86 -22.866,40.25 113.09,66.17 -113.09,65.7 22.866,40.25 137.46,-80.1 137.06,79.77 23.25,-40.06 L 417.82,278.112 532.72,212.16 509.47,172.1 371.68,251.43 234.81,171.86 m 214.3,49.26 11.714,19.443 -65.62,37.481 65.62,37.481 -11.714,19.443 -76.78,-43.857 -76.78,43.857 -11.714,-19.443 65.62,-37.481 -65.62,-37.481 11.714,-19.443 76.78,43.857 76.78,-43.857" id="path12" inkscape:connector-curvature="0" fill="#0092da"/>
  <path id="path14" d="m 289.79,324.87 -5.467,-9.237 32.628,-18.639 c 17.946,-10.251 32.495,-18.855 32.33,-19.12 -0.163,-0.265 -14.733,-8.717 -32.378,-18.783 -17.644,-10.07 -32.08,-18.571 -32.09,-18.899 -0.008,-0.721 10.09,-17.697 10.781,-18.12 0.268,-0.166 17.485,9.409 38.26,21.276 20.775,11.868 38.1,21.577 38.493,21.577 0.396,0 17.718,-9.71 38.493,-21.577 20.775,-11.868 37.992,-21.442 38.26,-21.276 0.692,0.428 10.789,17.403 10.781,18.12 -0.004,0.328 -14.443,8.833 -32.09,18.899 -17.644,10.07 -32.21,18.519 -32.378,18.783 -0.163,0.265 14.386,8.868 32.33,19.12 l 32.628,18.639 -5.467,9.237 c -3.707,6.264 -5.815,9.155 -6.548,8.981 -0.594,-0.141 -17.938,-9.894 -38.541,-21.674 -36.17,-20.678 -37.523,-21.382 -39.27,-20.372 -21.265,12.311 -73.42,41.858 -74.22,42.05 -0.733,0.173 -2.842,-2.719 -6.548,-8.982" inkscape:connector-curvature="0" fill="#ffffff"/>
 </g>
</svg>
