<?xml version="1.0" encoding="UTF-8" standalone="no"?>
<svg xmlns="http://www.w3.org/2000/svg" xmlns:sodipodi="http://sodipodi.sourceforge.net/DTD/sodipodi-0.dtd" xmlns:inkscape="http://www.inkscape.org/namespaces/inkscape" version="1.0" width="580" height="580">
 <metadata id="metadata2975"/>
 <path inkscape:connector-curvature="0" id="path5679" d="m 121.52892,132.23153 100.56651,27.37779 55.84341,-38.73987 19.40016,4.65362 -55.2995,38.86073 304.78178,83.58383 -22.3011,81.83115 -305.93008,-83.4025 C 100.07394,211.16174 121.64979,132.11067 121.64979,132.11067" fill="#0092da"/>
 <path inkscape:connector-curvature="0" id="path5681" d="m 385.87862,341.52348 c -0.36262,-6.82934 -1.63179,-13.35649 -3.86794,-19.52101 l 137.91632,38.43767 -4.41188,16.92225 -129.6365,-35.83891 z" fill="#0092da"/>
 <path inkscape:connector-curvature="0" id="path5683" d="m 260.65398,306.89331 c 3.74706,-5.43929 8.15894,-10.33465 13.17518,-14.50478 L 43.747015,228.86967 v 18.25184 l 216.906965,59.7718 z" fill="#0092da"/>
 <path inkscape:connector-curvature="0" id="path5685" d="m 317.52481,367.39035 c 12.38951,0 22.42198,-9.97204 22.42198,-22.36155 0,-12.38949 -10.03247,-22.42197 -22.42198,-22.42197 -12.38949,0 -22.42196,10.03248 -22.42196,22.42197 0,12.38951 10.03247,22.36155 22.42196,22.36155 z m 224.58241,137.43283 c -10.93902,0 -21.33411,-2.4779 -30.58091,-6.64803 -9.60942,-4.41187 -20.36714,-7.01064 -31.60834,-7.01064 -11.24121,0 -21.99892,2.59877 -31.48747,7.01064 -9.36768,4.17013 -19.76277,6.64803 -30.70179,6.64803 -10.93904,0 -21.33413,-2.4779 -30.7018,-6.64803 -9.54898,-4.41187 -20.3067,-7.01064 -31.48747,-7.01064 -11.30165,0 -21.99892,2.59877 -31.60834,7.01064 -9.2468,4.17013 -19.76276,6.64803 -30.64136,6.64803 -10.87858,0 -21.33412,-2.4779 -30.64135,-6.64803 -9.60943,-4.41187 -20.42757,-7.01064 -31.60835,-7.01064 -11.18077,0 -21.99892,2.59877 -31.48747,7.01064 -9.30723,4.17013 -19.8232,6.64803 -30.70178,6.64803 -10.8786,0 -21.33413,-2.4779 -30.70181,-6.64803 -9.48854,-4.41187 -20.30669,-7.01064 -31.48746,-7.01064 -11.180769,0 -21.998925,2.59877 -31.5479,7.01064 -9.307246,4.17013 -19.823206,6.64803 -30.641362,6.64803 L 43.747015,322.18377 295.34459,391.50455 c -17.34531,-8.40069 -29.3722,-25.98774 -29.3722,-46.47575 0,-28.5865 23.14723,-51.67328 51.6733,-51.67328 28.52608,0 51.6733,23.14722 51.6733,51.67328 0,28.52609 -23.20766,51.6733 -51.6733,51.6733 -1.69223,0 -3.44488,-0.36262 -5.07667,-0.54393 l 229.29646,63.21668 0.24174,45.44833 z" fill="#0092da"/>
</svg>
