<?xml version="1.0" encoding="UTF-8" standalone="no"?>
<svg xmlns:i="http://ns.adobe.com/AdobeIllustrator/10.0/" xmlns="http://www.w3.org/2000/svg" xmlns:sodipodi="http://sodipodi.sourceforge.net/DTD/sodipodi-0.dtd" xmlns:inkscape="http://www.inkscape.org/namespaces/inkscape" version="1.0" width="580" height="580">
 <metadata id="metadata2975"/>
 <path d="m 151.21755,94.26521 c -7.88534,3.300843 -13.57013,6.78506 -19.25491,11.18619 -5.68479,3.85098 -9.71915,8.61887 -13.57013,13.57013 -4.40113,4.5845 -8.06873,9.53577 -11.00281,14.85379 l 36.30927,-9.35239 0,0 c 2.38394,-10.0859 4.95126,-20.17181 7.51858,-30.25772 z" i:knockout="Off" stroke-miterlimit="10" id="path10544-7" inkscape:connector-curvature="0" fill="#ffffff" fill-rule="evenodd" stroke="#000000" stroke-width="0.183"/>
 <path d="m 190.09415,78.311136 81.42078,-19.805056 56.11433,46.39518 -14.85379,59.23179 -62.34925,28.97406 -78.85347,-20.90534 -11.73633,-48.22898 30.25773,-45.661654 z" i:knockout="Off" stroke-miterlimit="10" id="path10546-4" inkscape:connector-curvature="0" fill="#ffffff" fill-rule="evenodd" stroke="#000000" stroke-width="0.183"/>
 <path d="m 345.23376,108.56886 -9.89744,56.11433 61.79398,61.79911 66.0169,-9.90253 20.3552,-74.08558 -72.2518,-59.231789 -66.01684,25.306459 z" i:knockout="Off" stroke-miterlimit="10" id="path10548-0" inkscape:connector-curvature="0" fill="#ffffff" fill-rule="evenodd" stroke="#000000" stroke-width="0.183"/>
 <path d="m 409.9669,247.38764 62.3493,-11.18619 37.0428,62.34925 -51.1631,84.53825 -64.183,-6.05154 -23.4676,-53.73548 39.4216,-75.91429 z" i:knockout="Off" stroke-miterlimit="10" id="path10550-9" inkscape:connector-curvature="0" fill="#ffffff" fill-rule="evenodd" stroke="#000000" stroke-width="0.183"/>
 <path d="m 503.8576,423.79935 -29.7076,-34.47547 51.8966,-87.66081 17.9712,-9.89743 c 0.1834,21.27209 -1.467,39.23826 -4.9512,57.39798 -4.2178,17.96617 -10.4578,34.29209 -16.6876,47.49546 -6.2298,12.46476 -11.9197,21.2721 -18.5214,27.14027 z" i:knockout="Off" stroke-miterlimit="10" id="path10552-4" inkscape:connector-curvature="0" fill="#ffffff" fill-rule="evenodd" stroke="#000000" stroke-width="0.183"/>
 <path d="m 195.22879,360.16643 73.53544,-54.28052 82.70445,21.63886 26.40672,62.17096 -45.66163,59.96022 -103.05965,-21.63886 -33.92533,-67.85066 z" i:knockout="Off" stroke-miterlimit="10" id="path10554-8" inkscape:connector-curvature="0" fill="#ffffff" fill-rule="evenodd" stroke="#000000" stroke-width="0.183"/>
 <path d="m 353.48586,531.80517 c -15.22055,2.21074 -30.62448,3.85098 -46.94532,4.21774 -16.87097,0.36676 -34.84223,0 -51.16306,-1.82871 -17.42111,-2.56732 -33.55857,-7.15182 -47.67884,-11.74142 -14.12027,-4.94617 -24.9397,-10.44758 -34.47547,-17.23264 l -1.28366,-24.76142 48.77912,-37.0377 109.29967,19.26001 31.3529,48.04561 -7.88534,21.07853 z" i:knockout="Off" stroke-miterlimit="10" id="path10556-8" inkscape:connector-curvature="0" fill="#ffffff" fill-rule="evenodd" stroke="#000000" stroke-width="0.183"/>
 <path d="m 95.46999,259.85749 67.30051,-68.4008 72.80192,20.3552 18.5214,78.85347 -75.91938,58.68674 -66.01686,-1.8389 -16.68759,-87.65571 z" i:knockout="Off" stroke-miterlimit="10" id="path10558-2" inkscape:connector-curvature="0" fill="#ffffff" fill-rule="evenodd" stroke="#000000" stroke-width="0.183"/>
 <path d="M 70.71367,399.41488 C 64.8455,401.79373 59.3441,395.55371 53.47593,382.72219 47.05763,368.7853 38.43876,340.72814 35.50468,319.8228 32.75397,298.72899 32.93735,278.1955 36.78834,257.47355 l 38.32645,12.28647 20.3552,85.09348 -24.75632,44.56138 z" i:knockout="Off" stroke-miterlimit="10" id="path10560-4" inkscape:connector-curvature="0" fill="#ffffff" fill-rule="evenodd" stroke="#000000" stroke-width="0.183"/>
 <path d="M 291.6875 37.21875 C 143.19033 37.21875 22.65625 151.99467 22.65625 293.40625 C 22.65625 434.81273 143.18524 549.5625 291.6875 549.5625 C 440.18977 549.5625 560.71877 434.81272 560.71875 293.40625 C 560.71875 151.99468 440.18469 37.218751 291.6875 37.21875 z M 271.5 58.5 L 327.625 104.90625 L 312.78125 164.125 L 250.4375 193.09375 L 171.5625 172.1875 L 159.84375 123.96875 L 190.09375 78.3125 L 271.5 58.5 z M 411.25 83.25 L 483.5 142.5 L 463.15625 216.59375 L 397.125 226.46875 L 335.34375 164.6875 L 345.21875 108.5625 L 411.25 83.25 z M 151.21875 94.25 C 148.65143 104.33591 146.07144 114.44535 143.6875 124.53125 L 107.375 133.875 C 110.30908 128.55698 114.00512 123.61575 118.40625 119.03125 C 122.25723 114.07999 126.28395 109.28848 131.96875 105.4375 C 137.65353 101.03637 143.33342 97.550847 151.21875 94.25 z M 162.78125 191.46875 L 235.5625 211.8125 L 254.09375 290.65625 L 178.1875 349.34375 L 112.15625 347.5 L 95.46875 259.84375 L 162.78125 191.46875 z M 472.3125 236.1875 L 509.34375 298.5625 L 458.1875 383.09375 L 394 377.03125 L 370.53125 323.3125 L 409.96875 247.375 L 472.3125 236.1875 z M 36.78125 257.46875 L 75.125 269.75 L 95.46875 354.84375 L 70.71875 399.40625 C 64.850589 401.78509 59.336915 395.55027 53.46875 382.71875 C 47.050446 368.78185 38.434082 340.71784 35.5 319.8125 C 32.749296 298.71868 32.930267 278.1907 36.78125 257.46875 z M 544.03125 291.75 C 544.21466 313.0221 542.54672 330.99653 539.0625 349.15625 C 534.84475 367.1224 528.60483 383.45288 522.375 396.65625 C 516.14519 409.121 510.44544 417.94433 503.84375 423.8125 L 474.15625 389.3125 L 526.03125 301.65625 L 544.03125 291.75 z M 268.75 305.875 L 351.46875 327.53125 L 377.875 389.6875 L 332.21875 449.65625 L 229.15625 428.03125 L 195.21875 360.15625 L 268.75 305.875 z M 220.71875 443.40625 L 330.03125 462.6875 L 361.375 510.71875 L 353.5 531.8125 C 338.27944 534.02323 322.85209 535.66449 306.53125 536.03125 C 289.66029 536.39803 271.69583 536.01621 255.375 534.1875 C 237.95388 531.62017 221.80777 527.0271 207.6875 522.4375 C 193.56723 517.49135 182.75452 512.00381 173.21875 505.21875 L 171.9375 480.46875 L 220.71875 443.40625 z " id="path10456" fill="#39ac39" fill-rule="evenodd" stroke-width="0.183" stroke-miterlimit="10"/>
 <g id="g3051">
  <path id="path10544" stroke-miterlimit="10" i:knockout="Off" d="M 151.21755,94.265209 C 143.33221,97.566052 137.64742,101.05027 131.96264,105.4514 C 126.27785,109.30238 122.24349,114.07027 118.39251,119.02153 C 113.99138,123.60603 110.32378,128.5573 107.3897,133.87532 L 143.69897,124.52293 L 143.69897,124.52293 C 146.08291,114.43703 148.65023,104.35112 151.21755,94.265209 z" opacity="0.202" fill="#39ac39" fill-rule="evenodd" stroke="#000000" stroke-width="0.183"/>
  <path id="path10546" stroke-miterlimit="10" i:knockout="Off" d="M 190.09415,78.311135 L 271.51493,58.506079 L 327.62926,104.90126 L 312.77547,164.13305 L 250.42622,193.10711 L 171.57275,172.20177 L 159.83642,123.97279 L 190.09415,78.311135 z" opacity="0.202" fill="#39ac39" fill-rule="evenodd" stroke="#000000" stroke-width="0.183"/>
  <path id="path10548" stroke-miterlimit="10" i:knockout="Off" d="M 345.23376,108.56886 L 335.33632,164.68319 L 397.1303,226.4823 L 463.1472,216.57977 L 483.5024,142.49419 L 411.2506,83.2624 L 345.23376,108.56886 z" opacity="0.202" fill="#39ac39" fill-rule="evenodd" stroke="#000000" stroke-width="0.183"/>
  <path id="path10550" stroke-miterlimit="10" i:knockout="Off" d="M 409.9669,247.38764 L 472.3162,236.20145 L 509.359,298.5507 L 458.1959,383.08895 L 394.0129,377.03741 L 370.5453,323.30193 L 409.9669,247.38764 z" opacity="0.202" fill="#39ac39" fill-rule="evenodd" stroke="#000000" stroke-width="0.183"/>
  <path id="path10552" stroke-miterlimit="10" i:knockout="Off" d="M 503.8576,423.79935 L 474.15,389.32388 L 526.0466,301.66307 L 544.0178,291.76564 C 544.2012,313.03773 542.5508,331.0039 539.0666,349.16362 C 534.8488,367.12979 528.6088,383.45571 522.379,396.65908 C 516.1492,409.12384 510.4593,417.93118 503.8576,423.79935 z" opacity="0.202" fill="#39ac39" fill-rule="evenodd" stroke="#000000" stroke-width="0.183"/>
  <path id="path10554" stroke-miterlimit="10" i:knockout="Off" d="M 195.22879,360.16643 L 268.76423,305.88591 L 351.46868,327.52477 L 377.8754,389.69573 L 332.21377,449.65595 L 229.15412,428.01709 L 195.22879,360.16643 z" opacity="0.202" fill="#39ac39" fill-rule="evenodd" stroke="#000000" stroke-width="0.183"/>
  <path id="path10556" stroke-miterlimit="10" i:knockout="Off" d="M 353.48586,531.80517 C 338.26531,534.01591 322.86138,535.65615 306.54054,536.02291 C 289.66957,536.38967 271.69831,536.02291 255.37748,534.1942 C 237.95637,531.62688 221.81891,527.04238 207.69864,522.45278 C 193.57837,517.50661 182.75894,512.0052 173.22317,505.22014 L 171.93951,480.45872 L 220.71863,443.42102 L 330.0183,462.68103 L 361.3712,510.72664 L 353.48586,531.80517 z" opacity="0.202" fill="#39ac39" fill-rule="evenodd" stroke="#000000" stroke-width="0.183"/>
  <path id="path10558" stroke-miterlimit="10" i:knockout="Off" d="M 95.46999,259.85749 L 162.7705,191.45669 L 235.57242,211.81189 L 254.09382,290.66536 L 178.17444,349.3521 L 112.15758,347.5132 L 95.46999,259.85749 z" opacity="0.202" fill="#39ac39" fill-rule="evenodd" stroke="#000000" stroke-width="0.183"/>
  <path id="path10560" stroke-miterlimit="10" i:knockout="Off" d="M 70.71367,399.41488 C 64.8455,401.79373 59.3441,395.55371 53.47593,382.72219 C 47.05763,368.7853 38.43876,340.72814 35.50468,319.8228 C 32.75397,298.72899 32.93735,278.1955 36.78834,257.47355 L 75.11479,269.76002 L 95.46999,354.8535 L 70.71367,399.41488 z" opacity="0.202" fill="#39ac39" fill-rule="evenodd" stroke="#000000" stroke-width="0.183"/>
 </g>
</svg>
