<?xml version="1.0" encoding="UTF-8" standalone="no"?>
<svg xmlns:i="http://ns.adobe.com/AdobeIllustrator/10.0/" xmlns="http://www.w3.org/2000/svg" xmlns:sodipodi="http://sodipodi.sourceforge.net/DTD/sodipodi-0.dtd" xmlns:inkscape="http://www.inkscape.org/namespaces/inkscape" version="1.0" width="580" height="580">
 <metadata id="metadata1976"/>
 <path transform="matrix(0.9469422,0,0,0.9469422,-173.30816,-736.76327)" d="m 505.71429,305.71429 a 288.57144,288.57144 0 1 1 -577.142879,0 288.57144,288.57144 0 1 1 577.142879,0 z" sodipodi:ry="288.57144" sodipodi:rx="288.57144" sodipodi:cy="305.71429" sodipodi:cx="217.14285" id="path3267-1" sodipodi:type="arc" fill="#ffffff"/>
 <path d="m 499.28,294.97084 c -3.6288,1.10796 -8.31529,0.8955 -14.46268,-0.41918 -6.24789,-1.42205 -11.94294,-8.05145 -22.32336,-7.6848 -10.63285,0.36894 -25.65062,9.89383 -40.16129,9.89383 -14.71624,-0.31296 -31.24403,-10.31529 -46.26068,-10.31529 -14.96638,0.10621 -28.5724,10.47178 -42.9334,10.78817 -14.61346,0.0514 -29.17665,-9.68138 -43.48739,-9.89155 -14.51295,-0.36779 -28.26972,8.63169 -41.82548,8.52432 -13.3536,-0.26156 -25.19603,-9.8413 -38.44911,-9.42094 -13.60601,0.52883 -28.52214,11.05202 -41.82546,11.68367 -13.40385,0.2113 -25.54897,-9.78647 -37.39027,-9.89384 -11.94183,-0.21017 -25.3468,7.31472 -33.409665,8.99948 -8.062879,1.52829 -13.152565,1.68591 -15.066916,0.47402 l 0,27.89165 c 1.914351,1.20959 7.004037,1.05311 15.066916,-0.47402 8.062865,-1.68475 21.466705,-9.20965 33.409665,-8.99948 11.84244,0.10622 23.98642,10.10399 37.39027,9.89156 13.30332,-0.5243 28.21945,-11.3136 41.82546,-11.68255 13.25308,-0.52542 25.09437,9.26219 38.44911,9.47236 13.55576,0.10737 27.31253,-8.83842 41.82548,-8.57571 14.31074,0.20902 28.87393,9.94292 43.48739,9.89267 14.361,-0.31639 27.96702,-10.68424 42.9334,-10.78932 15.01665,-0.0503 31.54444,10.10514 46.26068,10.37014 14.51067,0 29.52959,-9.52832 40.16129,-9.89497 10.38042,-0.47517 16.07547,6.2616 22.32336,7.62996 6.14739,1.31582 10.83388,1.52598 14.46268,0.42034 l 0,-27.89052 z" i:knockout="Off" id="path113" inkscape:connector-curvature="0" fill="#39ac39" fill-rule="evenodd"/>
 <path d="m 260.47341,280.13354 115.29475,-61.51719 c -9.06799,-19.89274 -15.46895,-34.88883 -19.19827,-45.57192 -3.83097,-10.63057 -5.44262,-12.99836 -3.27585,-18.05036 2.21703,-5.20964 -0.85666,-5.99889 16.02521,-12.89214 16.8796,-7.15711 67.37217,-27.68033 83.8497,-28.67977 16.12574,-0.84181 15.47125,16.9447 12.80075,22.94473 -2.92406,5.84013 -17.94071,7.31358 -29.32855,11.94524 -11.5409,4.42035 -24.23884,9.36612 -38.90255,14.83961 l 52.75872,116.08743 c -6.80185,5.84013 -15.82304,8.10514 -28.01729,7.20851 -12.39642,-1.20732 -28.92536,-12.99493 -44.34404,-13.0509 -15.36961,0.0559 -32.90596,13.2108 -46.96429,13.47237 -14.10974,-0.0537 -25.29654,-11.41867 -37.08873,-12.57459 -11.84016,-1.16164 -22.97672,0.7847 -33.60956,5.83898 z" i:knockout="Off" id="path115" inkscape:connector-curvature="0" fill="#39ac39" fill-rule="evenodd"/>
 <path d="m 467.61679,179.68067 c 17.77506,0 32.19891,15.06347 32.19891,33.62555 0,18.56206 -14.42497,33.62553 -32.19891,33.62553 -17.77395,0 -32.20008,-15.06347 -32.20008,-33.62553 0,-18.56208 14.42498,-33.62555 32.20008,-33.62555" i:knockout="Off" id="path117" inkscape:connector-curvature="0" fill="#39ac39" fill-rule="evenodd"/>
 <path d="m 182.66944,282.3951 c -13.65627,-2.52656 -27.56383,-6.41692 -42.68099,-11.68366 -15.21881,-5.57512 -41.169837,-13.04975 -47.318364,-20.36447 -6.14738,-7.52488 -1.663058,-22.57466 10.734494,-23.25885 12.44554,-0.68418 37.13786,10.36671 62.78733,19.52381 25.49757,9.05316 54.67421,20.36676 89.09245,34.52218 -4.23303,2.31527 -9.82647,3.05199 -16.98239,1.99886 -7.25649,-1.21188 -16.42727,-7.89495 -25.75001,-8.10398 -9.37299,-0.15876 -19.19942,2.36781 -29.88252,7.36611 z" i:knockout="Off" id="path119" inkscape:connector-curvature="0" fill="#39ac39" fill-rule="evenodd"/>
 <path d="m 499.28,341.65072 c -3.6288,0.99829 -8.31529,0.84181 -14.46268,-0.47402 -6.24789,-1.36723 -11.94294,-8.10626 -22.32336,-7.63224 -10.63285,0.36779 -25.65062,9.89267 -40.16129,9.89267 -14.71624,-0.31411 -31.24403,-10.31301 -46.26068,-10.31301 -14.96638,0.10623 -28.5724,10.47295 -42.9334,10.78703 -14.61346,0.0537 -29.17665,-9.68137 -43.48739,-9.89268 -14.51295,-0.36894 -28.26972,8.63054 -41.82548,8.52546 -13.3536,-0.2627 -25.19603,-9.84129 -38.44911,-9.41981 -13.60601,0.52541 -28.52214,11.04975 -41.82546,11.68369 -13.40385,0.20901 -25.54897,-9.78991 -37.39027,-9.89498 -11.94183,-0.20903 -25.3468,7.31471 -33.409665,8.99947 -8.062879,1.63336 -13.152565,1.57855 -15.066916,0.42148 l 0,27.89049 c 1.914351,1.15705 7.004037,1.21189 15.066916,-0.42146 8.062865,-1.68591 21.466705,-9.20851 33.409665,-8.99948 11.84244,0.10508 23.98642,10.10398 37.39027,9.89495 13.30332,-0.63391 28.21945,-11.15825 41.82546,-11.68366 13.25308,-0.42146 25.09437,9.1571 38.44911,9.41981 13.55576,0.10509 27.31253,-8.8944 41.82548,-8.52546 14.31074,0.21131 28.87393,9.94638 43.48739,9.8927 14.361,-0.31413 27.96702,-10.68425 42.9334,-10.78705 15.01665,0 31.54444,9.99891 46.26068,10.31303 14.51067,0 29.52959,-9.5249 40.16129,-9.8927 10.38042,-0.36894 16.07547,6.26046 22.32336,7.68365 6.14739,1.31583 10.83388,1.52714 14.46268,0.42263 l 0,-27.89051 z" i:knockout="Off" id="path121" inkscape:connector-curvature="0" fill="#39ac39" fill-rule="evenodd"/>
 <path d="m 497.78,387.42518 c -3.6288,0.99828 -8.31529,0.84181 -14.46268,-0.47401 -6.24789,-1.36724 -11.94294,-8.10627 -22.32336,-7.63225 -10.63284,0.36778 -25.65062,9.89267 -40.16129,9.89267 -14.71624,-0.31411 -31.24403,-10.31302 -46.26068,-10.31302 -14.96638,0.10623 -28.5724,10.47295 -42.9334,10.78704 -14.61346,0.0537 -29.17664,-9.68137 -43.48739,-9.89268 -14.51295,-0.36894 -28.26972,8.63053 -41.82548,8.52547 -13.3536,-0.26272 -25.19603,-9.8413 -38.44911,-9.41983 -13.60601,0.52542 -28.52213,11.04975 -41.82546,11.68369 -13.40384,0.20903 -25.54897,-9.78989 -37.39027,-9.89498 -11.94182,-0.20903 -25.3468,7.31472 -33.409668,8.99948 -8.062873,1.63335 -13.152559,1.57854 -15.066917,0.42149 l 0,27.89048 c 1.914358,1.15706 7.004044,1.21189 15.066917,-0.42147 8.062868,-1.6859 21.466708,-9.2085 33.409668,-8.99948 11.84244,0.10508 23.98643,10.10399 37.39027,9.89497 13.30333,-0.63392 28.21945,-11.15825 41.82546,-11.68367 13.25308,-0.42147 25.09438,9.1571 38.44911,9.41981 13.55576,0.10509 27.31253,-8.89439 41.82548,-8.52547 14.31075,0.21132 28.87393,9.94639 43.48739,9.8927 14.361,-0.31411 27.96702,-10.68424 42.9334,-10.78704 15.01665,0 31.54444,9.99891 46.26068,10.31302 14.51067,0 29.52959,-9.5249 40.16129,-9.8927 10.38042,-0.36893 16.07547,6.26046 22.32336,7.68365 6.14739,1.31584 10.83388,1.52714 14.46268,0.42265 l 0,-27.89052 z" i:knockout="Off" id="path4736" inkscape:connector-curvature="0" fill="#39ac39" fill-rule="evenodd"/>
</svg>
