<?xml version="1.0" encoding="UTF-8" standalone="no"?>
<svg xmlns="http://www.w3.org/2000/svg" xmlns:sodipodi="http://sodipodi.sourceforge.net/DTD/sodipodi-0.dtd" xmlns:inkscape="http://www.inkscape.org/namespaces/inkscape" version="1.0" width="580" height="580">
 <metadata id="metadata2975"/>
 <path sodipodi:nodetypes="cszss" id="1" d="m 267.85182,251.40922 c -0.13241,0.62664 -33.46645,-26.84185 -68.29185,-63.38297 -7.93845,-8.32954 -53.79638,-48.44046 -11.49905,-72.81437 43.28286,-24.941812 55.3302,35.48456 58.74395,48.82656 12.03167,47.02355 21.17936,86.74414 21.04695,87.37078 z" inkscape:connector-curvature="0" fill="#734a08" stroke="#734a08" stroke-linejoin="round" stroke-linecap="round" stroke-width="13.0587"/>
 <path sodipodi:nodetypes="cszss" id="2" d="m 314.49743,250.17227 c -0.60924,0.19873 6.5273,-42.38528 20.78029,-90.79632 3.24896,-11.03529 15.07921,-70.779612 57.34973,-46.35931 43.25543,24.9893 -3.08499,65.62914 -12.94,75.25465 -34.73369,33.92488 -64.58078,61.70226 -65.19002,61.90098 z" inkscape:connector-curvature="0" fill="#734a08" stroke="#734a08" stroke-linejoin="round" stroke-linecap="round" stroke-width="13.0587"/>
 <path sodipodi:nodetypes="cszss" id="3" d="m 334.37264,291.27233 c -0.47648,-0.42799 39.97895,-15.56187 89.03719,-27.45099 11.18282,-2.71013 68.84886,-22.3688 68.80862,26.44872 -0.0412,49.95496 -58.39563,30.17507 -71.65702,26.46047 -46.73942,-13.09205 -85.71231,-25.03021 -86.18879,-25.4582 z" inkscape:connector-curvature="0" fill="#734a08" stroke="#734a08" stroke-linejoin="round" stroke-linecap="round" stroke-width="13.0587"/>
 <path sodipodi:nodetypes="cszss" id="4" d="m 245.62735,289.7871 c 0.47648,0.42799 -39.97895,15.56187 -89.03719,27.45099 -11.18282,2.71013 -68.84886,22.3688 -68.80862,-26.44872 0.04119,-49.95496 58.39563,-30.17508 71.65702,-26.46047 46.73942,13.09204 85.71231,25.03021 86.18879,25.4582 z" inkscape:connector-curvature="0" fill="#734a08" stroke="#734a08" stroke-linejoin="round" stroke-linecap="round" stroke-width="13.0587"/>
 <path sodipodi:nodetypes="cszss" id="5" d="m 312.8386,330.34019 c 0.13241,-0.62664 33.46645,26.84185 68.29185,63.38297 7.93845,8.32954 53.79638,48.44046 11.49905,72.81437 -43.28286,24.94182 -55.3302,-35.48456 -58.74395,-48.82656 -12.03167,-47.02355 -21.17936,-86.74414 -21.04695,-87.37078 z" inkscape:connector-curvature="0" fill="#734a08" stroke="#734a08" stroke-linejoin="round" stroke-linecap="round" stroke-width="13.0587"/>
 <path sodipodi:nodetypes="cszss" id="6" d="m 268.10161,330.30562 c -0.13241,-0.62664 -33.46645,26.84185 -68.29185,63.38297 -7.93845,8.32954 -53.79638,48.44046 -11.49905,72.81437 43.28286,24.94182 55.3302,-35.48456 58.74395,-48.82656 12.03167,-47.02355 21.17936,-86.74414 21.04695,-87.37078 z" inkscape:connector-curvature="0" fill="#734a08" stroke="#734a08" stroke-linejoin="round" stroke-linecap="round" stroke-width="13.0587"/>
</svg>
