<svg xmlns="http://www.w3.org/2000/svg" viewBox="0 0 580 580">
 <g transform="translate(4 12)">
  <g stroke-linejoin="round" stroke-linecap="round" stroke-width="10.973">
   <path fill="#fff" stroke="#fff" d="m134.15 357.9h311.7v109.97h-311.7z"/>
   <path opacity="0.2" fill="#734a08" stroke="#734a08" d="m134.15 357.9h311.7v109.97h-311.7z"/>
  </g>
  <g fill="#734a08" stroke="#734a08">
   <g stroke-width="20">
    <path d="m128.65 355.67h322.05"/>
    <path d="m128.65 467.69h322.05"/>
   </g>
   <path d="m137.93 410.49h305.11" stroke-dasharray="38.934 38.934" stroke-width="19.467"/>
  </g>
 </g>
 <g transform="matrix(.8 0 0 .79574 57.675 87.91)" fill="#734a08">
  <path d="m259.09 314.47l-1.185-138.2-70.56-.474v-35.981-34.15l70.15-1.271 1.271-77.47 71.76-1.254v78.85h71.42v35.3 35.3h-71.42v140.95c-22.696-2.61-49.33 4.252-71.44-1.6"/>
  <path d="m325.56 314.47l1.185-138.2 70.56-.474v-35.981-34.15l-70.15-1.271-1.271-77.47-71.76-1.254v78.85h-71.42v35.3 35.3h71.42v140.95c22.696-2.61 49.33 4.252 71.44-1.6"/>
 </g>
</svg>
