<?xml version="1.0" encoding="UTF-8" standalone="no"?>
<svg xmlns="http://www.w3.org/2000/svg" xmlns:sodipodi="http://sodipodi.sourceforge.net/DTD/sodipodi-0.dtd" xmlns:inkscape="http://www.inkscape.org/namespaces/inkscape" viewBox="0 0 580 580" version="1.1">
 <metadata id="metadata48"/>
 <g transform="translate(0 45.4)" id="g4">
  <g transform="translate(-9.14)" id="g6" stroke-linejoin="round" stroke-linecap="round" stroke="#734a08">
   <path d="m333.18 128.38l18.99 74.43" id="path8" stroke-width="75.13" fill="#d53b3b"/>
   <g id="g10" fill="none">
    <path d="m328 115.03l-72.976 10.409-42.763-50.918" id="path12" stroke-width="33.01"/>
    <path d="m381.61 284.43l-100.92 1.092" id="path14" stroke-width="41.818"/>
    <path d="m368.08 212.74l-86.85 64.38" id="path16" stroke-width="45.666"/>
   </g>
   <g id="g18" stroke-width="45.666">
    <path d="m 301.03516,20.083984 c -12.82417,0.520085 -24.63342,9.503369 -28.89212,21.56251 -4.76618,12.310305 -2.1841,27.678728 7.94317,36.583142 8.35337,7.900893 20.96413,11.21291 31.99949,7.631036 13.97609,-4.061897 25.28963,-17.617478 24.74024,-32.487627 -0.10614,-14.303983 -10.04785,-28.739586 -24.35489,-31.911518 -3.73773,-0.887615 -7.58362,-1.506125 -11.43589,-1.377543 z" id="path20" inkscape:connector-curvature="0" shape-rendering="auto" mix-blend-mode="normal" color-interpolation-filters="linearRGB" isolation="auto" white-space="normal" fill="#734a08" solid-opacity="1" image-rendering="auto" solid-color="#000000" stroke="none" color="#000000" stroke-linecap="butt" stroke-linejoin="miter" color-rendering="auto" color-interpolation="sRGB"/>
    <path d="m359.72 206.3l-78.48 70.811" id="path22" fill="none"/>
   </g>
   <path d="m328 120.85l-72.976 4.585-42.763-50.918" id="path24" stroke-width="33.01" fill="none"/>
  </g>
  <g transform="translate(.325-8.491)" id="g26">
   <g id="g28" stroke-linejoin="round" stroke-linecap="round" stroke-width="10.973">
    <path d="m134.15 357.9h311.7v109.97h-311.7z" id="path30" stroke="#fff" fill="#fff"/>
    <path d="m134.15 357.9h311.7v109.97h-311.7z" id="path32" stroke="#734a08" fill="#734a08" opacity="0.2"/>
   </g>
   <g id="g34" stroke="#734a08" fill="#734a08">
    <g id="g36" stroke-width="20">
     <path d="m128.65 355.67h322.05" id="path38"/>
     <path d="m128.65 467.69h322.05" id="path40"/>
    </g>
    <path d="m137.93 410.49h305.11" id="path42" stroke-dasharray="38.934 38.934" stroke-width="19.467"/>
   </g>
  </g>
 </g>
</svg>
