<?xml version="1.0" encoding="UTF-8" standalone="no"?>
<svg xmlns="http://www.w3.org/2000/svg" xmlns:sodipodi="http://sodipodi.sourceforge.net/DTD/sodipodi-0.dtd" xmlns:inkscape="http://www.inkscape.org/namespaces/inkscape" version="1.0" width="580" height="580">
 <metadata id="metadata10"/>
 <path inkscape:connector-curvature="0" d="m 184.78155,542.01606 55.55066,-326.72348 52.30492,-31.31861 51.16448,32.1539 c 0,0 46.84413,331.20079 41.39798,328.54447 -5.44615,-2.65628 -199.3288,1.32817 -200.41804,-2.65628 z" id="path3457-1" sodipodi:nodetypes="ccccsc" fill="#ffffff" fill-rule="evenodd"/>
 <path d="M 184.78155,542.01606 L 240.33221,215.29258 L 292.63713,183.97397 L 343.80161,216.12787 C 343.80161,216.12787 390.64574,547.32866 385.19959,544.67234 C 379.75344,542.01606 185.87079,546.00051 184.78155,542.01606 z" id="path3457" sodipodi:nodetypes="ccccsc" opacity="0.5" fill="#734a08" fill-rule="evenodd" stroke-width="14.07"/>
 <path d="M 78.35819,96.82824 L 139.07109,40.013241 L 286.19495,240.60115 L 267.45324,258.73256 L 78.35819,96.82824 z" id="path4180" sodipodi:nodetypes="ccccc" fill="#734a08" fill-rule="evenodd" stroke="#734a08" stroke-linejoin="round" stroke-linecap="round" stroke-width="24.6"/>
 <path id="path4188" d="M 506.19495,96.82824 L 445.48205,40.013241 L 298.35819,240.60115 L 317.0999,258.73256 L 506.19495,96.82824 z" sodipodi:nodetypes="ccccc" fill="#734a08" fill-rule="evenodd" stroke="#734a08" stroke-linejoin="round" stroke-linecap="round" stroke-width="24.6"/>
 <path id="path4194" d="M 506.19495,421.91756 L 445.48205,478.73256 L 298.35819,278.14465 L 317.0999,260.01324 L 506.19495,421.91756 z" sodipodi:nodetypes="ccccc" fill="#734a08" fill-rule="evenodd" stroke="#734a08" stroke-linejoin="round" stroke-linecap="round" stroke-width="24.6"/>
 <path d="M 78.35819,421.91756 L 139.07109,478.73256 L 286.19495,278.14465 L 267.45324,260.01324 L 78.35819,421.91756 z" id="path4196" sodipodi:nodetypes="ccccc" fill="#734a08" fill-rule="evenodd" stroke="#734a08" stroke-linejoin="round" stroke-linecap="round" stroke-width="24.6"/>
</svg>
