<?xml version="1.0" encoding="UTF-8" standalone="no"?>
<svg xmlns="http://www.w3.org/2000/svg" xmlns:sodipodi="http://sodipodi.sourceforge.net/DTD/sodipodi-0.dtd" xmlns:inkscape="http://www.inkscape.org/namespaces/inkscape" version="1.0" width="580" height="580">
 <metadata id="metadata2975"/>
 <path id="path6" d="M 96.846181,370.80896 C 102.4913,372.47363 116.35648,371.07296 111.60422,361.70746 C 108.96749,356.51055 96.561781,349.96831 91.082089,348.41661 C 82.825026,346.07754 68.952006,356.22926 79.553903,362.73923 L 77.248266,369.65614 C 68.369948,365.41377 65.839627,352.43073 66.562444,343.14131 C 67.070722,336.60829 72.969579,329.71905 75.306458,323.5434 C 81.690537,306.6719 86.934133,290.09091 91.899553,272.81938 C 93.884361,265.91515 94.472298,252.8491 100.47456,248.29662 C 106.09859,244.03004 114.73562,243.40867 121.05076,240.26608 C 125.70584,237.94892 128.74698,233.18201 133.75367,231.63378 C 144.50371,228.3102 155.09465,229.16675 160.25121,217.48408 C 171.13843,233.91982 180.22725,249.23501 182.03372,269.36092 C 183.31796,283.66855 173.55128,298.33817 170.25422,312.01521 C 167.94973,321.57554 168.65987,331.31339 166.14903,340.83568 C 163.01682,352.70971 156.90804,363.68454 153.928,375.42024 C 152.1296,382.49969 153.74124,390.55444 151.53129,397.32264 C 147.57597,409.43761 124.99571,416.67731 127.68062,431.90258 C 128.92106,438.93824 137.12452,440.32162 142.95893,441.51594 C 156.50686,444.28847 171.09116,442.57769 184.4604,440.48417 C 188.91259,439.78671 194.31815,440.64787 197.7939,437.17212 C 206.18527,428.7819 196.27103,412.92719 198.98938,403.08788 C 200.93649,396.03609 207.6067,389.89157 211.09051,383.48997 C 218.66453,369.56853 225.07766,354.90352 229.42033,339.68286 L 230.57315,339.68286 C 230.84982,353.09936 234.08809,369.91437 239.23543,382.33715 C 242.48522,390.18093 250.85353,401.43474 250.62528,410.00479 C 250.23332,424.6917 227.98046,434.29814 238.65325,451.48436 C 249.39061,468.77318 274.76876,451.37946 288.21408,448.33717 C 295.5852,446.66904 305.46947,448.85248 309.08701,439.92851 C 314.08102,427.61179 303.94429,415.93605 302.24388,404.2407 C 300.29677,390.85648 302.81107,377.3904 300.35902,363.89205 C 298.56524,354.01355 290.52433,342.51879 290.79409,332.76595 C 290.98315,325.90322 295.85496,317.777 297.43663,310.86239 L 341.24374,331.43444 L 359.68884,341.9885 C 359.76953,351.78745 359.50093,363.49548 361.22093,373.1146 C 362.04289,377.70858 366.35674,382.34983 365.04137,387.09829 C 362.47635,396.35081 339.82923,405.84427 344.92584,415.64784 C 347.72719,421.03612 355.4603,422.88178 360.84165,424.26516 C 374.47028,427.76973 410.17653,433.03465 420.19567,420.25566 C 424.61097,414.62414 424.24437,405.25403 424.24668,398.47661 C 424.2536,381.39414 426.0543,363.29604 421.94104,346.59977 C 436.77551,355.74739 440.14866,374.13023 447.58434,389.25406 C 450.15974,394.49247 455.52611,402.79968 453.77036,408.83468 C 451.06124,418.14254 423.2933,432.67613 436.14146,445.243 C 439.70367,448.72797 446.17905,448.98736 450.76151,450.38227 C 464.02123,454.41713 504.26958,461.00203 510.53746,443.41924 C 516.39493,426.98697 514.89973,397.96937 510.82336,381.18433 C 508.42434,371.30583 502.85162,362.73693 501.87749,352.36386 C 500.98175,342.81968 507.59316,333.16021 508.29869,323.5434 C 509.27973,310.15571 505.14112,298.39927 504.72956,285.50038 C 504.46556,277.20239 507.24962,268.6577 507.24962,260.13837 C 519.91218,293.70269 506.65707,329.81588 515.87386,363.89205 C 517.21574,368.85263 517.74027,396.98486 527.67641,394.15123 C 531.40232,393.08949 532.50442,386.62909 531.75624,383.48997 C 528.49376,369.79218 522.58441,357.68182 522.55214,343.14131 C 522.536,335.91084 525.83997,328.45902 526.6481,321.23776 C 531.41962,278.59269 538.08406,219.28709 501.48092,188.01689 C 485.15931,174.07356 467.47968,163.88933 449.60869,152.34454 C 435.62385,143.31024 421.3116,132.76288 404.64876,129.16712 C 392.42658,126.5297 379.02852,130.4275 366.60575,129.82365 C 339.51912,128.5069 312.91322,123.37997 285.90844,120.84308 C 273.6194,119.68853 261.44678,122.05792 249.01825,119.72046 C 222.3132,114.69798 202.56196,94.517658 176.39067,87.917425 C 168.10075,85.82695 153.73433,87.259511 145.26457,88.747339 C 137.26631,90.15251 133.03086,95.755093 126.80217,100.1901 C 108.71422,113.07054 84.992786,133.72502 74.977328,154.07815 C 68.829116,166.5724 68.169934,183.26946 64.225681,196.73335 C 58.476689,216.35778 47.555231,232.68515 44.322613,253.22146 C 40.93713,274.7296 46.123546,297.32254 46.122162,318.93212 C 46.121125,335.17764 37.033456,355.04993 42.817608,370.80896 C 50.903017,392.83817 93.824875,400.11707 96.846181,370.80896 z" fill="#734a08"/>
</svg>
