<svg height="580" width="580" xmlns="http://www.w3.org/2000/svg"><path d="m526.95 42.214c20.03-16.182 40.32 21.035 16.75 30.489-24.15 18.45-48.3 36.897-72.44 55.357 5.78 51.79 11.57 103.59 17.35 155.39-9.37 7.15-18.74 14.31-28.11 21.47-15.35-44.21-30.72-88.42-46.08-132.63-18.95 14.48-37.91 28.95-56.86 43.43-.14 13.06-.28 26.11-.41 39.17-7.42 5.66-14.83 11.33-22.24 16.98-6.37-15.7-10.81-32.87-18.37-47.67-13.14-9.31-26.27-18.63-39.4-27.95 7.99-5.04 15.26-13.74 23.69-16.6 12.09 3.08 24.17 6.17 36.24 9.25 18.96-14.47 37.91-28.95 56.86-43.44-38.62-26.45-77.24-52.891-115.86-79.341 9.36-7.156 18.73-14.312 28.09-21.468 48.07 18.691 96.14 37.376 144.21 56.069 25.53-19.501 51.06-39.004 76.58-58.506zm-485.876 510.936c0-110.75 0-221.52 0-332.27h236.496v332.27" style="opacity:.8;fill:none;stroke:#fff;stroke-linejoin:round;stroke-linecap:round;stroke-width:40"/><path d="m526.95 42.214c20.03-16.182 40.32 21.035 16.75 30.489-24.15 18.45-48.3 36.897-72.44 55.357 5.78 51.79 11.57 103.59 17.35 155.39-9.37 7.15-18.74 14.31-28.11 21.47-15.35-44.21-30.72-88.42-46.08-132.63-18.95 14.48-37.91 28.95-56.86 43.43-.14 13.06-.28 26.11-.41 39.17-7.42 5.66-14.83 11.33-22.24 16.98-6.37-15.7-10.81-32.87-18.37-47.67-13.14-9.31-26.27-18.63-39.4-27.95 7.99-5.04 15.26-13.74 23.69-16.6 12.09 3.08 24.17 6.17 36.24 9.25 18.96-14.47 37.91-28.95 56.86-43.44-38.62-26.45-77.24-52.891-115.86-79.341 9.36-7.156 18.73-14.312 28.09-21.468 48.07 18.691 96.14 37.376 144.21 56.069 25.53-19.501 51.06-39.004 76.58-58.506z" fill="#0073be"/><g stroke-linecap="round" stroke-linejoin="round"><path d="m60.649 532.13c0-96.74 0-193.49 0-290.23h197.351v290.23" fill="#0092d9" stroke="#0073be" stroke-width="38.7"/><path d="m96.515 275.86h125.605v248.33c-41.87 0-83.74 0-125.605 0 0-82.78 0-165.55 0-248.33z" fill="#bad8ec" stroke="#bfe3f5" stroke-width="34.68"/></g></svg>