<svg height="580" width="580" xmlns="http://www.w3.org/2000/svg"><path d="m286.71 517.43c-6.26-11.13-12.52-22.25-18.78-33.38-24.57 0-49.14 0-73.71 0 3.69-28.01 33.56-39.31 55.2-51.47 17.03-2.09 17.76-13.39 14.97-27.04-4.38-58.43-8.77-116.87-13.15-175.3-64.67-3.71-129.34-7.42-194.008-11.13-23.486.46-43.496-34.38-16.325-45.51 23.037-10.42 49.113-8.64 73.683-12.67 46.25-5.18 92.49-10.35 138.74-15.53 4.64-19.24 9.27-38.48 13.91-57.714-8.81 0-17.62 0-26.43 0-4.1-12.445 9.22-7.466 16.68-8.344 8.01-1.27 18.86 3.731 23.37-5.232 5.81-8.045 11.61-15.234 16.92-2.736 3.77 9.744 12.97 8.278 21.6 7.968 6.5 2.084 22.27-5.107 20.18 5.561-1.83 6.508-15.75.931-22.24 2.783-9.14-.619 1.47 14.304.7 20.274 3 12.48 6.01 24.96 9.02 37.44 64.21 7.19 128.41 14.37 192.62 21.56 21.66 1.06 47.32 25.31 23.44 43.55-18.49 13.21-42.34 8.27-63.69 11.08-50.09 2.88-100.19 5.77-150.28 8.65-4.87 64.9-9.74 129.81-14.61 194.71 23.01 11.27 49.15 21.37 64.96 42.38 9.43 17.31-8.62 18.29-20.44 16.72-18.09 0-36.17 0-54.25 0-6.03 11.13-12.05 22.25-18.08 33.38z" style="fill:none;opacity:.8;stroke:#fff;stroke-linejoin:round;stroke-linecap:round;stroke-width:40"/><path d="m286.71 517.43c-6.26-11.13-12.52-22.25-18.78-33.38-24.57 0-49.14 0-73.71 0 3.69-28.01 33.56-39.31 55.2-51.47 17.03-2.09 17.76-13.39 14.97-27.04-4.38-58.43-8.77-116.87-13.15-175.3-64.67-3.71-129.34-7.42-194.008-11.13-23.486.46-43.496-34.38-16.325-45.51 23.037-10.42 49.113-8.64 73.683-12.67 46.25-5.18 92.49-10.35 138.74-15.53 4.64-19.24 9.27-38.48 13.91-57.714-8.81 0-17.62 0-26.43 0-4.1-12.445 9.22-7.466 16.68-8.344 8.01-1.27 18.86 3.731 23.37-5.232 5.81-8.045 11.61-15.234 16.92-2.736 3.77 9.744 12.97 8.278 21.6 7.968 6.5 2.084 22.27-5.107 20.18 5.561-1.83 6.508-15.75.931-22.24 2.783-9.14-.619 1.47 14.304.7 20.274 3 12.48 6.01 24.96 9.02 37.44 64.21 7.19 128.41 14.37 192.62 21.56 21.66 1.06 47.32 25.31 23.44 43.55-18.49 13.21-42.34 8.27-63.69 11.08-50.09 2.88-100.19 5.77-150.28 8.65-4.87 64.9-9.74 129.81-14.61 194.71 23.01 11.27 49.15 21.37 64.96 42.38 9.43 17.31-8.62 18.29-20.44 16.72-18.09 0-36.17 0-54.25 0-6.03 11.13-12.05 22.25-18.08 33.38z" fill="#0073be"/></svg>