<?xml version="1.0" encoding="UTF-8"?>
<svg width="580" height="580" version="1.1" xmlns="http://www.w3.org/2000/svg"><g fill="none" stroke="#fff"><path d="m442 30.3c-1.81 5.76 4.44 25.5-4.89 18.3-8.8-8.56-14.3-4.59-18 5.86 1.22 5.99 14.1 8.89 19.7 13.7 6.85 4.78 1.42 16.6 3.16 24.4 3.59 14.7-8.01 3.09-14.6 0.104-9.48-3.45-14.8-9.32-12.2-19.7 1.05-9.84 1.11-18.7-11.3-15-10.4-2.83-0.99 16.6-5.96 17.7-6.54-1.28-16.6-15.6-19.9-4.99-9.73 8.93 0.11 12.6 8.21 16.8 13.1 5.06-14 7.62-9.6 14.4 3.43 10.7 9.09 13.2 17.6 5.15 7.56-5.47 15.1-9.81 22.7-1.81 3.61 4.24 23.8 8.48 12.3 12.7-7.71 3.53-15.4 10.8-23.2 12-7.6-4.38-15.2-8.75-22.8-13.1-4.36 7.51-12.5 16 0.56 18.8 14.6 4.23-1.35 8.47-7.24 12.7-7.45 1.18 3.57 19.5 8.02 13.9 7.59-4.25 18.1-13.6 14.6 1.43-4.86 11.4 11.6 9.56 16 7.05 0-8.72 0-17.4 0.1-26.2 8.96-5.17 17.9-10.4 26.9-15.5v31c-7.99 4.63-16 9.27-24 13.9 4.31 7.54 7.62 18.8 16.6 8.94 10.9-10.5 6.66 5.41 7.39 12.6-2.69 7.04 18.7 6.67 16 0 0.12-8.69-2.68-22.4 8.55-11.9 7.48 9.92 14.1-5.32 14.1-10.4-7.54-4.37-15.1-8.74-22.7-13.1v-31.1l26.8 15.5v27.7c8.68 0 20.1 2.81 16-9.89-3.62-14.7 8-3.07 14.6-0.11 4.75 5.86 15.1-12.8 8.03-13.9-7.46-4.46-20.8-8.91-6.04-13.4 12.3-1.53 2.43-14.9-1.91-17.4-7.56 4.37-15.1 8.71-22.7 13.1-8.97-5.18-18-10.4-26.9-15.5 8.95-5.17 17.9-10.3 26.8-15.5 8 4.6 16 9.22 24 13.8 4.36-7.5 12.5-16-0.56-18.8-14.6-4.24 1.36-8.48 7.24-12.7 7.45-1.19-3.57-19.5-8.02-13.9-7.59 4.25-18.1 13.6-14.6-1.43 4.86-11.5-11.6-9.55-16-7.05v26.2c-8.97 5.18-17.9 10.3-26.9 15.5v-31c7.99-4.63 16-9.26 24-13.9-4.32-7.54-7.62-18.8-16.6-8.94-10.9 10.5-6.66-5.41-7.39-12.6 2.37-8.56-11.5-2.36-16-4.23z" opacity=".8" stroke-linecap="round" stroke-linejoin="round" stroke-width="39.4"/><g transform="matrix(.789 0 0 .789 38.3 36.1)" opacity=".8" stroke-linecap="round" stroke-linejoin="round" stroke-width="75"><path d="m31.7 267c85.5-45.6 171-91.2 257-137 85.5 45.6 171 91.2 257 137-8.31 5.58-14.2 22.9-25.5 14.2-27.1-10.3-53.6-22.9-81.1-31.7-50.6-5.82-101-12.8-152-17.9-51.3 6.39-103 11.6-154 18.7-27.9 11.3-55.8 22.5-83.7 33.8-5.7-5.71-11.4-11.4-17.1-17.1z" fill-rule="evenodd"/><path d="m457 267c10.1 1.18 24.9-2.37 32 1.79v306c-10.1-1.18-24.9 2.37-32-1.79v-306z"/><path d="m84.8 267c10.1 1.18 24.9-2.37 32 1.79v306c-10.1-1.18-24.9 2.37-32-1.79v-306z"/></g><path d="m269 470c3.41 24 4.89 48.4 9.55 72.1 14.7 21.1 38.6-2.81 29.5-21.6-3.33-23-5-46.3-9.39-69-9.93-15.2-21.1-29.7-31.5-44.6 8.06-14 16.1-28.1 24.2-42.2 7.26 9.78 14.4 20 26.6 23.6 10.7 6.37 30.6 16.4 32.8-4.2-1.38-13.4-18-15.2-27.2-22.4-13.5-12-23-28.3-36-41-18.5-15-42.4-2.04-49.5 17.8-9.81 18.1-21.8 35.2-30.1 54-1.47 27.1 1.37 54.7 0 81.7-8.68 19.6-18.9 38.6-26.5 58.5-2.87 24.1 32.2 23.5 34.6 1.72 8.14-18 17.3-35.6 24.8-53.9 0.76-16.2-0.1-32.4 0-48.7 9.43 12.7 18.9 25.5 28.3 38.2zm19.4-158c42.1 0.11 21.2-68.3-13.7-45-20.1 12.4-10.2 46.1 13.7 45zm-85.8 67.1c12.5-22.1 26-43.6 37.9-66-2.37-8-21.3-21.7-26.5-8.55-12 21.2-25.1 42-36.5 63.6 0.61 6.53 20.4 20.4 25 11zm134 16.1v142" opacity=".8" stroke-linecap="square" stroke-width="39.4"/></g><g transform="matrix(.986 0 0 .986 -28.8 17.7)"><path d="m302 458c3.46 24.3 4.96 49 9.69 73.1 14.9 21.4 39.1-2.86 29.9-21.9-3.37-23.3-5.07-46.9-9.52-70-10.1-15.4-21.4-30.1-32-45.2 8.18-14.2 16.4-28.5 24.5-42.8 7.36 9.92 14.6 20.2 27 24 10.9 6.46 31 16.6 33.3-4.26-1.4-13.6-18.2-15.4-27.6-22.7-13.7-12.1-23.4-28.7-36.5-41.6-18.8-15.2-43-2.07-50.2 18.1-9.94 18.4-22.1 35.7-30.5 54.7-1.49 27.5 1.39 55.5 0 82.8-8.8 19.8-19.2 39.1-26.9 59.3-2.92 24.5 32.7 23.8 35.1 1.74 8.25-18.3 17.6-36.1 25.1-54.6 0.76-16.4-0.11-32.9 0-49.4 9.56 12.9 19.1 25.8 28.7 38.7zm19.7-161c42.7 0.1 21.4-69.3-13.8-45.6-20.4 12.6-10.3 46.8 13.8 45.6zm-87 68c12.7-22.4 26.4-44.2 38.4-66.9-2.4-8.12-21.6-22-26.8-8.68-12.2 21.5-25.4 42.6-37 64.5 0.62 6.62 20.7 20.6 25.4 11.2z" fill="#0073be" stroke="#0092da" stroke-width=".8"/><g stroke="#0073be"><path d="m371 382v144" fill="#0092da" fill-rule="evenodd" stroke-linecap="round" stroke-width="10.3"/><g transform="matrix(.8 0 0 .8 68 18.7)" fill="#0073be" stroke-linecap="round" stroke-linejoin="round"><path d="m31.7 267c85.5-45.6 171-91.2 257-137 85.5 45.6 171 91.2 257 137-8.31 5.58-14.2 22.9-25.5 14.2-27.1-10.3-53.6-22.9-81.1-31.7-50.6-5.82-101-12.8-152-17.9-51.3 6.39-103 11.6-154 18.7-27.9 11.3-55.8 22.5-83.7 33.8-5.7-5.71-11.4-11.4-17.1-17.1z" fill-rule="evenodd" stroke-width="22.9"/><g stroke-width="25.2"><path d="m457 267c10.1 1.18 24.9-2.37 32 1.79v306c-10.1-1.18-24.9 2.37-32-1.79v-306z"/><path d="m84.8 267c10.1 1.18 24.9-2.37 32 1.79v306c-10.1-1.18-24.9 2.37-32-1.79v-306z"/></g></g><path d="m478 12.8c-1.83 5.85 4.5 25.9-4.95 18.5-8.93-8.68-14.5-4.66-18.3 5.94 1.24 6.08 14.3 9.01 20 13.9 6.94 4.85 1.44 16.9 3.19 24.7 3.65 14.9-8.12 3.14-14.8 0.104-9.61-3.5-15-9.44-12.4-20 1.08-9.98 1.13-18.9-11.4-15.2-10.6-2.87-1.01 16.9-6.05 18-6.63-1.3-16.8-15.9-20.2-5.06-9.87 9.05 0.11 12.8 8.33 17 13.3 5.13-14.2 7.72-9.74 14.6 3.48 10.9 9.22 13.4 17.8 5.22 7.67-5.54 15.3-9.94 23-1.83 3.67 4.3 24.1 8.6 12.4 12.9-7.82 3.58-15.6 10.9-23.5 12.1-7.71-4.44-15.4-8.87-23.1-13.3-4.43 7.61-12.7 16.2 0.56 19.1 14.8 4.29-1.37 8.59-7.34 12.9-7.55 1.2 3.62 19.8 8.13 14.1 7.7-4.31 18.4-13.8 14.8 1.45-4.93 11.6 11.8 9.69 16.3 7.15 0-8.85 0-17.7 0.1-26.6 9.09-5.25 18.2-10.5 27.3-15.8v31.4c-8.1 4.69-16.2 9.39-24.3 14.1 4.37 7.64 7.73 19.1 16.8 9.06 11.1-10.6 6.76 5.49 7.5 12.8-2.73 7.13 19 6.76 16.3 0 0.12-8.82-2.72-22.8 8.66-12.1 7.6 10.1 14.3-5.4 14.3-10.5-7.65-4.44-15.3-8.87-23-13.3v-31.5c9.07 5.24 18.1 10.5 27.2 15.7v28.1c8.8 0 20.4 2.85 16.2-10-3.67-14.9 8.12-3.11 14.8-0.1 4.82 5.94 15.3-13 8.15-14.1-7.58-4.52-21.1-9.04-6.14-13.5 12.5-1.54 2.47-15.1-1.94-17.7-7.66 4.42-15.3 8.83-23 13.2-9.1-5.26-18.2-10.5-27.3-15.8l27.2-15.7c8.11 4.68 16.2 9.35 24.3 14 4.43-7.61 12.7-16.2-0.56-19.1-14.8-4.29 1.38-8.59 7.34-12.9 7.55-1.2-3.62-19.8-8.13-14.1-7.7 4.31-18.4 13.7-14.8-1.45 4.93-11.6-11.8-9.68-16.3-7.15v26.6l-27.3 15.7v-31.4c8.11-4.7 16.2-9.39 24.3-14.1-4.37-7.65-7.72-19.1-16.8-9.06-11.1 10.6-6.76-5.49-7.5-12.8 2.41-8.68-11.6-2.4-16.3-4.29z" fill="#0073be"/></g></g></svg>
