<svg height="580" width="580" xmlns="http://www.w3.org/2000/svg"><path d="m376.95 358.92v176.74m-84.5-83.3c4.22 29.8 6.08 60.11 11.86 89.56 14.99 24.35 47.83-.21 37.07-23.27-4.28-29.71-6.51-59.85-12.11-89.29-12.35-18.9-26.17-36.9-39.17-55.42 10.03-17.45 20.05-34.92 30.08-52.38 8.82 11.29 16.64 24.13 31.18 28.42 11.61 3.75 23.32 16.81 35.72 9.3 17.7-14.73-2.3-30.2-16.94-35.86-16.43-6.18-24.4-22.52-35.79-34.75-11.05-13.57-22.44-30.86-42.45-29.59-26.55-1.5-34.78 26.67-46.57 44.81-9.39 17.48-21.25 33.85-28.78 52.17-1.74 33.61 1.54 67.77 0 101.21-10.81 24.38-23.54 48.03-33.06 72.89-4.89 26.27 36.87 32.07 40.94 6.51 10.8-23.82 22.89-47.13 32.84-71.3.94-20.1-.13-40.31 0-60.46 11.71 15.82 23.42 31.63 35.13 47.45zm24.08-196.85c27.56 1.53 41.84-37.97 19.08-54.05-20.28-19.01-55.94 3.15-49.04 29.68 2.49 13.91 15.8 24.8 29.96 24.37zm-106.58 83.36c15.53-27.4 32.31-54.19 47.05-81.98-2.85-9.3-22.79-24.14-31.11-13.67-15.53 27.41-32.33 54.19-47.06 81.99 1.47 8.39 24.45 24.93 31.12 13.66z" style="opacity:.8;fill:none;stroke:#fff;stroke-linejoin:round;stroke-linecap:round;stroke-width:41.16"/><path d="m88.889 174.98h31.361v301.94c-10.46 0-20.91 0-31.361 0 0-100.65 0-201.3 0-301.94zm364.521 0h31.36v301.94c-10.45 0-20.9 0-31.36 0 0-100.65 0-201.3 0-301.94zm-416.581.65c83.821-44.71 167.651-89.411 251.471-134.114 83.82 44.703 167.65 89.404 251.47 134.114-6.74 4.33-11.73 17.08-19.6 16.04-28.15-10.8-55.77-23.64-84.26-33.16-49.72-5.76-99.45-12.45-149.17-17.6-50.27 6.21-100.79 11.4-150.89 18.25-27.43 11.08-54.848 22.16-82.268 33.24-5.584-5.59-11.169-11.18-16.753-16.77z" style="opacity:.8;fill:none;stroke:#fff;stroke-linejoin:round;stroke-linecap:round;stroke-width:62.714"/><path d="m292.45 452.36c4.22 29.8 6.08 60.11 11.86 89.56 14.99 24.35 47.83-.21 37.07-23.27-4.28-29.71-6.51-59.85-12.11-89.29-12.35-18.9-26.17-36.9-39.17-55.42 10.03-17.45 20.05-34.92 30.08-52.38 8.82 11.29 16.64 24.13 31.18 28.42 11.61 3.75 23.32 16.81 35.72 9.3 17.7-14.73-2.3-30.2-16.94-35.86-16.43-6.18-24.4-22.52-35.79-34.75-11.05-13.57-22.44-30.86-42.45-29.59-26.55-1.5-34.78 26.67-46.57 44.81-9.39 17.48-21.25 33.85-28.78 52.17-1.74 33.61 1.54 67.77 0 101.21-10.81 24.38-23.54 48.03-33.06 72.89-4.89 26.27 36.87 32.07 40.94 6.51 10.8-23.82 22.89-47.13 32.84-71.3.94-20.1-.13-40.31 0-60.46 11.71 15.82 23.42 31.63 35.13 47.45zm24.08-196.85c27.56 1.53 41.84-37.97 19.08-54.05-20.28-19.01-55.94 3.15-49.04 29.68 2.49 13.91 15.8 24.8 29.96 24.37zm-106.58 83.36c15.53-27.4 32.31-54.19 47.05-81.98-2.85-9.3-22.79-24.14-31.11-13.67-15.53 27.41-32.33 54.19-47.06 81.99 1.47 8.39 24.45 24.93 31.12 13.66z" fill="#0073be" stroke="#0092da" stroke-width=".98"/><g stroke="#0073be" stroke-linecap="round"><path d="m376.95 358.92v176.74" fill="#0092da" fill-rule="evenodd" stroke-width="12.608"/><path d="m36.829 175.63c83.821-44.71 167.651-89.411 251.471-134.114 83.82 44.703 167.65 89.404 251.47 134.114-6.74 4.33-11.73 17.08-19.6 16.04-28.15-10.8-55.77-23.64-84.26-33.16-49.72-5.76-99.45-12.45-149.17-17.6-50.27 6.21-100.79 11.4-150.89 18.25-27.43 11.08-54.848 22.16-82.268 33.24-5.584-5.59-11.169-11.18-16.753-16.77z" fill="#0073be" fill-rule="evenodd" stroke-linejoin="round" stroke-width="22.483"/><path d="m453.41 174.98h31.36v301.94c-10.45 0-20.9 0-31.36 0 0-100.65 0-201.3 0-301.94z" fill="#0073be" stroke-linejoin="round" stroke-width="24.664"/><path d="m88.889 174.98h31.361v301.94c-10.46 0-20.91 0-31.361 0 0-100.65 0-201.3 0-301.94z" fill="#0073be" stroke-linejoin="round" stroke-width="24.664"/></g></svg>