<svg height="580" width="580" xmlns="http://www.w3.org/2000/svg"><g fill="none" stroke="#fff" stroke-linecap="round" stroke-linejoin="round" transform="matrix(.91939 0 0 .91939 24.075 23.294)"><path d="m371.05 414.16v144.29m-68.99-68c3.46 24.32 4.96 49.04 9.69 73.11 14.89 21.37 39.11-2.85 29.9-21.9-3.37-23.29-5.07-46.93-9.52-69.99-10.07-15.44-21.38-30.13-31.97-45.25 8.18-14.25 16.36-28.5 24.54-42.76 7.36 9.91 14.62 20.24 27.01 23.96 10.89 6.46 31.03 16.64 33.29-4.26-1.4-13.62-18.24-15.43-27.61-22.72-13.69-12.1-23.37-28.74-36.55-41.63-18.77-15.18-43.01-2.07-50.21 18.08-9.94 18.36-22.14 35.69-30.53 54.74-1.49 27.49 1.39 55.49 0 82.82-8.8 19.84-19.14 39.09-26.9 59.32-2.92 24.46 32.66 23.84 35.1 1.74 8.25-18.26 17.58-36.1 25.14-54.64.76-16.42-.11-32.91 0-49.36 9.56 12.91 19.12 25.83 28.68 38.74zm19.67-160.71c42.73.1 21.45-69.27-13.85-45.65-20.41 12.6-10.3 46.75 13.85 45.65zm-87.02 68.05c12.69-22.37 26.37-44.24 38.42-66.93-2.4-8.12-21.63-21.99-26.84-8.69-12.2 21.55-25.42 42.6-36.98 64.47.62 6.62 20.7 20.65 25.4 11.15z" opacity=".8" stroke-width="45"/><path d="m298.68 155.03c-68.43 36.5-136.87 72.99-205.303 109.49 4.559 4.57 9.123 9.12 13.673 13.69 9.61-3.88 19.22-7.76 28.83-11.65v242.51c5.69 3.31 17.53.48 25.6 1.42v-245.08c-4.4-2.56-12.46-1.46-19.63-1.26l32.16-12.99c40.87-5.72 82.15-9.85 123.18-14.96 40.52 4.09 81.05 9.64 121.58 14.29 12.06 3.85 23.87 8.63 35.66 13.52-6.17-.82-14.69.71-20.95 0v245.08c5.69 3.31 17.53.48 25.6 1.42v-244.55c8.15 3.39 16.31 6.79 24.54 9.91 9.02 6.95 13.72-6.87 20.36-11.33-68.44-36.5-136.87-72.99-205.3-109.49z" fill-rule="evenodd" opacity=".8" stroke-width="60" transform="translate(0 .0004)"/><path d="m100.25 5.75c-47.02-.6437-82.117 56.311-59.2 97.92 16.917 39.03 71.64 51.42 103.54 23.42 12.09-17.21 26.63-25.71 48.03-22.54 12.97-13.709 29.87-33.219 44.1-7.706 10.03-17.614 25-14.993 35.16.406 10.58-16.587 25.05-16.564 36.37-.594 25.39-14.858 31.55-36.59 3.82-52.007-32.11-4.224-66.29-.391-99.16-1.524-27.33 1.33-55.23 3.348-69.82-23.739-12.55-8.631-27.43-14.2843-42.84-13.636zm-27.156 44.781c28.806-.619 31.566 49.122.294 48.089-33.719 3.06-32.563-50.161-.294-48.089z" opacity=".8" stroke-width="55.12" transform="matrix(.88901 0 0 .88901 134.78 2.6141)"/></g><path d="m301.79 474.21c3.18 22.36 4.56 45.09 8.9 67.22 13.69 19.64 35.96-2.62 27.49-20.14-3.09-21.41-4.66-43.15-8.75-64.35-9.26-14.19-19.65-27.7-29.39-41.6 7.52-13.1 15.04-26.2 22.56-39.31 6.77 9.11 13.44 18.61 24.83 22.03 10.02 5.94 28.53 15.29 30.61-3.92-1.29-12.52-16.77-14.19-25.38-20.89-12.59-11.12-21.49-26.42-33.61-38.27-17.25-13.96-39.54-1.91-46.16 16.62-9.14 16.88-20.36 32.81-28.07 50.33-1.37 25.27 1.28 51.01 0 76.14-8.09 18.24-17.6 35.94-24.73 54.54-2.69 22.49 30.03 21.92 32.27 1.6 7.58-16.79 16.16-33.19 23.11-50.24.7-15.09-.1-30.25 0-45.38 8.79 11.87 17.58 23.75 26.37 35.62zm18.08-147.76c39.29.1 19.72-63.68-12.73-41.97-18.77 11.59-9.47 42.98 12.73 41.97zm-80 62.57c11.66-20.57 24.24-40.68 35.32-61.54-2.21-7.46-19.89-20.21-24.68-7.99-11.21 19.82-23.37 39.17-34 59.28.57 6.08 19.03 18.98 23.36 10.25z" fill="#0073be" stroke="#0092da" stroke-width=".736"/><g stroke="#0073be" stroke-linecap="round"><path d="m365.21 404.07v132.66" fill="#0092da" fill-rule="evenodd" stroke-width="9.464"/><path d="m109.93 266.49c62.91-33.56 125.83-67.11 188.75-100.66 62.91 33.55 125.83 67.1 188.75 100.66-6.11 4.1-10.43 16.81-18.72 10.41-19.94-7.55-39.41-16.86-59.63-23.3-37.26-4.29-74.52-9.39-111.77-13.15-37.72 4.7-75.68 8.5-113.25 13.76-20.53 8.28-41.04 16.57-61.56 24.87-4.19-4.2-8.38-8.39-12.57-12.59z" fill="#0073be" fill-rule="evenodd" stroke-linejoin="round" stroke-width="16.876"/><path d="m422.61 266c7.41.87 18.3-1.73 23.54 1.31v225.33c-7.42-.87-18.31 1.73-23.54-1.31 0-75.11 0-150.22 0-225.33z" fill="#0073be" stroke-linejoin="round" stroke-width="18.513"/><path d="m149 266c7.42.87 18.3-1.73 23.54 1.31v225.33c-7.42-.87-18.31 1.73-23.54-1.31 0-75.11 0-150.22 0-225.33z" fill="#0073be" stroke-linejoin="round" stroke-width="18.513"/><path d="m100.25 5.75c-47.02-.6437-82.117 56.311-59.2 97.92 16.917 39.03 71.64 51.42 103.54 23.42 12.09-17.21 26.63-25.71 48.03-22.54 12.97-13.709 29.87-33.219 44.1-7.706 10.03-17.614 25-14.993 35.16.406 10.58-16.587 25.05-16.564 36.37-.594 25.39-14.858 31.55-36.59 3.82-52.007-32.11-4.224-66.29-.391-99.16-1.524-27.33 1.33-55.23 3.348-69.82-23.739-12.55-8.631-27.43-14.2843-42.84-13.636zm-27.156 44.781c28.806-.619 31.566 49.122.294 48.089-33.719 3.06-32.563-50.161-.294-48.089z" fill="#0073be" stroke-linejoin="round" stroke-width="10" transform="matrix(.81735 0 0 .81735 147.99 25.697)"/></g></svg>