<svg height="580" width="580" xmlns="http://www.w3.org/2000/svg"><path d="m24.75 25.17h530.5v47.39h-530.5z" style="opacity:.8;fill:none;stroke:#0073be;stroke-linejoin:round;stroke-linecap:round;stroke-width:35.03"/><path d="m24.75 511.74h530.5v47.39h-530.5z" style="opacity:.8;fill:none;stroke:#0073be;stroke-linejoin:round;stroke-linecap:round;stroke-width:35.03"/><path d="m94.729 285.37h89.571c2.22 0 4 1.78 4 4 0 2.21-1.78 4-4 4h-89.571c-2.215 0-3.999-1.79-3.999-4 0-2.22 1.784-4 3.999-4zm102.081-94.9a34.901 30.902 0 0 1 -69.8 0 34.901 30.902 0 1 1 69.8 0zm58.67 59.71h207.94c12.4 0 22.39 9.99 22.39 22.39 0 12.41-9.99 22.4-22.39 22.4h-207.94c-12.4 0-22.39-9.99-22.39-22.4 0-12.4 9.99-22.39 22.39-22.39zm278.31 174.34 3.2-163.14m-486.245 79.97 479.845 3.2m-483.044-159.95-3.199 249.52" style="opacity:.8;fill:none;stroke:#fff;stroke-linejoin:round;stroke-linecap:round;stroke-width:75"/><g fill="#0073be" stroke="#0073be"><path d="m47.546 184.6-3.199 249.52" fill-rule="evenodd" stroke-linecap="round" stroke-width="35.829"/><path d="m50.745 341.35 479.845 3.2" fill-rule="evenodd" stroke-width="35.829"/><path d="m533.79 424.52 3.2-163.14" fill-rule="evenodd" stroke-linecap="round" stroke-width="35.829"/><rect height="44.786" rx="22.393" stroke-width="41.2" width="252.72" x="233.09" y="250.18"/><path d="m196.81 190.47a34.901 30.902 0 1 1 -69.8 0 34.901 30.902 0 1 1 69.8 0z" stroke-width="52.976"/><rect height="7.997" rx="3.999" ry="3.998" stroke-width="35.829" width="97.57" x="90.73" y="285.37"/></g><path d="m27.652 25.17h530.5v47.39h-530.5z" fill="#bbd9ec" stroke-linecap="square" stroke-width="2.395"/><path d="m27.652 511.74h530.5v47.39h-530.5z" fill="#bbd9ec" stroke-linecap="square" stroke-width="2.395"/></svg>