<svg height="580" width="580" xmlns="http://www.w3.org/2000/svg"><path d="m55.896 502.66c46.994-7.66 94.974-8.88 142.204-2.65 46.91 5.28 94.38 3.88 140.94-3.88 53.76-6.62 108.14-11.9 162.34-9.03" style="opacity:.8;fill:none;stroke:#fff;stroke-linejoin:round;stroke-linecap:square;stroke-width:65"/><path d="m267.97 50.75c-29.33-1.286-45.12 26.959-58.47 48.5-11.18 18.83-24.28 36.24-42.11 49.06-30.53 35.56-40.22 83.7-44.4 129.11-3.74 28.46.1 56.89 3.35 85.14-12.13 2.93-36.609-15.55-52.921-4.19-15.34 17.8.333 42.56 11.398 58.48 11.49 16.27 24.423 36.21 47.213 29.17 53.68.8 107.2 12.01 160.97 5.39 26.1-3.18 52.48-5.86 78.25-10.45 34.12-11.41 65.9-33.11 83.28-65.23 19.09-24.16 51.33-34.68 67.83-61.19 13.59-31.56-10.28-72.64-44.89-75.54-17.52 1.22 7.93-19.94 13.34-6.35 12.09-2.55 41.38-4.04 21.22-19.09-34.27-37.41-73.6-69.92-110.39-104.82-21.57-18.706-42.18-38.883-65.72-55.082-7.13 13.583-8.69 30.467-2.52 42.72-14.17 25.922-8.28-22.326-24.43-26.784-10.94-10.826-25.37-18.621-41-18.844zm5.37 16.5c31.15.63 43.47 47.67 19.17 65.5-22.3 4.82-44.86-2.19-66.32-7.35 5.59-18.15 17.2-36.366 30.91-50.354 4.52-3.995 9.88-7.998 16.24-7.796zm205.72 193.22c25.02-2.82 40.59 29.75 21.15 46.85-11.52 10.99-32.36 31.32-45.68 27.56-2.81-21.06-17.34-44.54-4.01-64.58 6.99-7.74 18.58-9.77 28.54-9.83z" style="opacity:.8;fill:none;stroke:#fff;stroke-linejoin:round;stroke-linecap:round;stroke-width:40"/><g fill="#734a08"><path d="m267.97 50.75c-29.33-1.286-45.12 26.959-58.47 48.5-11.18 18.83-24.28 36.24-42.11 49.06-30.53 35.56-40.22 83.7-44.4 129.11-3.74 28.46.1 56.89 3.35 85.14-12.13 2.93-36.609-15.55-52.921-4.19-15.34 17.8.333 42.56 11.398 58.48 11.49 16.27 24.423 36.21 47.213 29.17 53.68.8 107.2 12.01 160.97 5.39 26.1-3.18 52.48-5.86 78.25-10.45 34.12-11.41 65.9-33.11 83.28-65.23 19.09-24.16 51.33-34.68 67.83-61.19 13.59-31.56-10.28-72.64-44.89-75.54-17.52 1.22 7.93-19.94 13.34-6.35 12.09-2.55 41.38-4.04 21.22-19.09-34.27-37.41-73.6-69.92-110.39-104.82-21.57-18.706-42.18-38.883-65.72-55.082-7.13 13.583-8.69 30.467-2.52 42.72-14.17 25.922-8.28-22.326-24.43-26.784-10.94-10.826-25.37-18.621-41-18.844zm5.37 16.5c31.15.63 43.47 47.67 19.17 65.5-22.3 4.82-44.86-2.19-66.32-7.35 5.59-18.15 17.2-36.366 30.91-50.354 4.52-3.995 9.88-7.998 16.24-7.796zm205.72 193.22c25.02-2.82 40.59 29.75 21.15 46.85-11.52 10.99-32.36 31.32-45.68 27.56-2.81-21.06-17.34-44.54-4.01-64.58 6.99-7.74 18.58-9.77 28.54-9.83z" stroke-width="4.716"/><path d="m55.896 502.66c46.994-7.66 94.974-8.88 142.204-2.65 46.91 5.28 94.38 3.88 140.94-3.88 53.76-6.62 108.14-11.9 162.34-9.03" fill-rule="evenodd" stroke="#734a08" stroke-linecap="square" stroke-linejoin="bevel" stroke-width="40"/></g></svg>