<svg height="580" width="580" xmlns="http://www.w3.org/2000/svg"><path d="m177.16788 26.725046c14.74932 23.669131 23.13396 57.636502 41.64353 75.221424h33.57789c-10.53106 26.27615-31.36035 52.55232-35.80719 78.82847 11.93573 23.87146 23.87145 47.74291 35.80719 71.61437-12.53691 25.0738-25.07381 50.14759-37.61072 75.22139 10.53106 26.27616 31.36034 52.55233 35.80719 78.82848-11.93574 23.87146-23.87146 47.74291-35.80719 71.61436h150.44283c-8.694-28.20803-39.56419-56.41607-32.90937-84.6241 9.04968-29.77514 46.65208-59.55029 21.15603-89.32542-11.98948-26.64091-37.23724-53.28184-11.75335-79.92275 12.46605-25.07381 33.32204-50.14762 9.40267-75.22142-3.99844-14.13047-25.40725-39.02113-19.47386-47.01338h33.57788c8.91981-23.669134 34.50253-57.636506 33.57788-75.221424-73.87714 0-147.75427 0-221.63141 0zm112.83212 112.832124c30.08109-1.62889 49.71442 38.57008 29.43525 61.13661-16.95664 22.78774-57.2459 16.44811-64.90552-11.38938-9.12291-23.48346 10.496-50.4804 35.47027-49.74723zm0 150.44283c30.08109-1.62889 49.71442 38.57009 29.43525 61.13662-16.95664 22.78774-57.24591 16.44811-64.90553-11.38939-9.1229-23.48346 10.49601-50.4804 35.47028-49.74723zm-150.44284 225.66426v37.61069h300.88567c0-12.53689 0-25.0738 0-37.61069-100.29522 0-200.59045 0-300.88567 0z" opacity=".8" stroke="#fff" stroke-linecap="round" stroke-linejoin="round" stroke-width="47.9673"/><path d="m177.16788 26.725046c12.5369 25.073806 25.0738 50.147615 37.6107 75.221424h37.61072c-12.53691 25.0738-25.07381 50.14761-37.61072 75.22141 12.53691 25.07381 25.07381 50.14762 37.61072 75.22143-12.53691 25.0738-25.07381 50.14759-37.61072 75.22139 12.53691 25.0738 25.07381 50.14761 37.61072 75.22141-12.53691 25.07381-25.07381 50.14762-37.61072 75.22143h150.44283c-12.53691-25.07381-25.0738-50.14762-37.61071-75.22143 12.53691-25.0738 25.0738-50.14761 37.61071-75.22141-12.53691-25.0738-25.0738-50.14759-37.61071-75.22139 12.53691-25.07381 25.0738-50.14762 37.61071-75.22143-12.53691-25.0738-25.0738-50.14761-37.61071-75.22141h37.61071c12.5369-25.073809 25.0738-50.147618 37.6107-75.221424-75.22141 0-150.44282 0-225.66423 0zm112.83212 112.832124c29.1739-1.51978 49.04572 36.49567 30.69014 59.4616-15.16944 22.88357-54.04423 20.11745-64.54071-5.71576-12.5434-24.00068 6.90637-54.46344 33.85057-53.74584zm0 150.44283c29.1739-1.51978 49.04573 36.49568 30.69014 59.46161-15.16944 22.88356-54.04424 20.11744-64.54072-5.71576-12.54338-24.00068 6.90637-54.46345 33.85058-53.74585zm-150.44284 225.66426v37.61069h300.88567c0-12.53689 0-25.0738 0-37.61069-100.29522 0-200.59045 0-300.88567 0z" fill="#734a08"/></svg>