<svg height="580" width="580" xmlns="http://www.w3.org/2000/svg"><path d="m101.31668 100.58593c.11693 115.2722-.23415 230.55426.17603 345.82028.42748 23.43446 24.49204 37.08119 45.88035 33.78554 99.52699-.13092 199.06781.26185 298.58616-.19639 24.08393-2.00215 37.60336-26.98431 34.16323-49.21032 0-110.06637 0-220.13274 0-330.19911-12.62686 0-25.25372 0-37.88058 0v265.72407c-39.25987 1.08-74.70398 36.68942-75.76115 75.92116-50.50743 0-101.01487 0-151.5223 0-1.05717-39.23174-36.50129-74.84115-75.76116-75.92116 0-88.57469 0-177.14938 0-265.72407-12.62686 0-25.25372 0-37.88058 0zm189.40288 75.92116c-43.07781.55771-93.72145 18.53567-111.19921 61.24577-11.69846 36.39322 23.07333 67.12815 53.71976 79.09857 53.63369 22.59247 125.34232 12.32726 161.73224-35.78998 20.30342-26.32439 4.33941-62.86173-21.27466-78.8164-23.92778-17.22358-53.64924-25.62983-82.97813-25.73796zm-189.40288 322.66495c-1.661658 24.51392 9.55159 58.96992 39.51574 56.94087 101.70715-.13308 203.42858.26616 305.1268-.19963 26.1572 2.1782 41.26905-50.89414 29.99962-52.98367-18.36186 20.66718-47.11051 12.32802-71.3245 14.33089-88.47903.69269-176.95805 1.38539-265.43708 2.07809-15.40036.14546-27.96503-9.33639-37.88058-20.16655zm-31.562095-473.918134c-28.05798-.634142-48.327661 27.636804-44.269893 54.174735.887525 23.695859-5.374394 52.527759 16.862058 68.886539 14.939283 13.77416 33.845307 12.98558 27.407835-9.59225 0-23.03509 0-46.070169 0-69.105251h442.700835v88.727171c28.23642-.26768 48.39183-29.00902 44.26989-55.80989-.63715-23.15142 4.81792-51.131807-16.91554-67.008489-20.37117-16.317824-47.54903-8.375027-71.50368-10.272565-132.8505 0-265.701 0-398.551505 0z" style="opacity:.8;fill:#fff;stroke:#fff;stroke-width:47.0666;stroke-linecap:round;stroke-linejoin:round"/><path d="m101.91218 100.91475h379.29193v342.63487c-126.43064 0-252.86129 0-379.29193 0 0-114.21162 0-228.42325 0-342.63487z" fill="#bebbb7"/><path d="m101.31668 100.58593c.11693 115.2722-.23415 230.55426.17603 345.82028.42748 23.43446 24.49204 37.08119 45.88035 33.78554 99.52699-.13092 199.06781.26185 298.58616-.19639 24.08393-2.00215 37.60336-26.98431 34.16323-49.21032 0-110.06637 0-220.13274 0-330.19911-12.62686 0-25.25372 0-37.88058 0v265.72407c-39.25987 1.08-74.70398 36.68942-75.76115 75.92116-50.50743 0-101.01487 0-151.5223 0-1.05717-39.23174-36.50129-74.84115-75.76116-75.92116 0-88.57469 0-177.14938 0-265.72407-12.62686 0-25.25372 0-37.88058 0zm189.40288 75.92116c-43.07781.55771-93.72145 18.53567-111.19921 61.24577-11.69846 36.39322 23.07333 67.12815 53.71976 79.09857 53.63369 22.59247 125.34232 12.32726 161.73224-35.78998 20.30342-26.32439 4.33941-62.86173-21.27466-78.8164-23.92778-17.22358-53.64924-25.62983-82.97813-25.73796zm-189.40288 322.66495c-1.661658 24.51392 9.55159 58.96992 39.51574 56.94087 101.70715-.13308 203.42858.26616 305.1268-.19963 26.1572 2.1782 41.26905-50.89414 29.99962-52.98367-18.36186 20.66718-47.11051 12.32802-71.3245 14.33089-88.47903.69269-176.95805 1.38539-265.43708 2.07809-15.40036.14546-27.96503-9.33639-37.88058-20.16655zm-31.562095-473.918134c-28.05798-.634142-48.327661 27.636804-44.269893 54.174735.887525 23.695859-5.374394 52.527759 16.862058 68.886539 14.939283 13.77416 33.845307 12.98558 27.407835-9.59225 0-23.03509 0-46.070169 0-69.105251h442.700835v88.727171c28.23642-.26768 48.39183-29.00902 44.26989-55.80989-.63715-23.15142 4.81792-51.131807-16.91554-67.008489-20.37117-16.317824-47.54903-8.375027-71.50368-10.272565-132.8505 0-265.701 0-398.551505 0z" fill="#241c1c" stroke-width="37.9205"/></svg>