<svg height="580" width="580" xmlns="http://www.w3.org/2000/svg"><path d="m23.18847 97.42581c.12404 87.64435-.248557 175.29966.187142 262.93713.63284 22.86277 24.438785 35.64876 45.16443 32.72305 151.754308-.12063 303.519378.24132 455.266958-.18107 22.96927-.7763 37.45899-23.94834 34.14068-45.36183 0-83.37243 0-166.74485 0-250.11728-178.25307 0-356.50614 0-534.75921 0zm0 314.13893c-1.009801 22.60674 7.171806 53.71702 34.297792 55.27113 155.379258.25557 310.786548.31433 466.163558-.0292 26.15914 2.73966 41.2691-48.91376 30.18702-51.57048-19.2074 20.5762-47.89592 13.56431-72.72047 14.80731-140.93939-.0695-281.88347.13908-422.819927-.1043-13.838326-.66501-25.384672-9.2781-35.107973-18.37447z" style="fill:#bebbb7;stroke:#fff;stroke-width:46.9438;stroke-linecap:round;stroke-linejoin:round;stroke-opacity:.8"/><path d="m23.18847 97.42581c.12404 87.64435-.248557 175.29966.187142 262.93713.63284 22.86277 24.438785 35.64876 45.16443 32.72305 151.754308-.12063 303.519378.24132 455.266958-.18107 22.96927-.7763 37.45899-23.94834 34.14068-45.36183 0-83.37243 0-166.74485 0-250.11728-178.25307 0-356.50614 0-534.75921 0zm114.59126 36.95753h305.57669c1.25115 39.10632 37.72306 73.01792 76.39417 73.91503v73.91505c-38.67112.8971-75.14302 34.80873-76.39417 73.91505-101.8589 0-203.71779 0-305.57669 0-1.25114-39.10633-37.72305-73.01795-76.394173-73.91505 0-24.63835 0-49.2767 0-73.91505 38.347716-.67969 75.436233-35.11681 76.394173-73.91503zm152.78834 36.95751c-41.97026.30982-91.86943 14.43494-110.98364 55.44251-13.76693 32.65647 13.38428 65.48614 42.42177 77.70328 51.81936 23.30321 119.52265 20.413 163.5827-17.90413 22.55056-18.64673 26.42962-55.04889 5.73985-76.55893-24.87222-28.1668-64.38396-38.42144-100.76068-38.68273zm-267.3796 240.22389c-1.009801 22.60674 7.171806 53.71702 34.297792 55.27113 155.379258.25557 310.786548.31433 466.163558-.0292 26.15914 2.73966 41.2691-48.91376 30.18702-51.57048-19.2074 20.5762-47.89592 13.56431-72.72047 14.80731-140.93939-.0695-281.88347.13908-422.819927-.1043-13.838326-.66501-25.384672-9.2781-35.107973-18.37447z" fill="#241c1c"/></svg>