<?xml version="1.0" encoding="UTF-8" standalone="no"?>
<svg
   xmlns:dc="http://purl.org/dc/elements/1.1/"
   xmlns:cc="http://creativecommons.org/ns#"
   xmlns:rdf="http://www.w3.org/1999/02/22-rdf-syntax-ns#"
   xmlns:svg="http://www.w3.org/2000/svg"
   xmlns="http://www.w3.org/2000/svg"
   xmlns:sodipodi="http://sodipodi.sourceforge.net/DTD/sodipodi-0.dtd"
   xmlns:inkscape="http://www.inkscape.org/namespaces/inkscape"
   height="580"
   width="580"
   version="1.1"
   id="svg8"
   sodipodi:docname="bar.svg"
   inkscape:version="1.0.1 (3bc2e813f5, 2020-09-07)">
  <metadata
     id="metadata14">
    <rdf:RDF>
      <cc:Work
         rdf:about="">
        <dc:format>image/svg+xml</dc:format>
        <dc:type
           rdf:resource="http://purl.org/dc/dcmitype/StillImage" />
      </cc:Work>
    </rdf:RDF>
  </metadata>
  <defs
     id="defs12" />
  <sodipodi:namedview
     pagecolor="#ffffff"
     bordercolor="#666666"
     borderopacity="1"
     objecttolerance="10"
     gridtolerance="10"
     guidetolerance="10"
     inkscape:pageopacity="0"
     inkscape:pageshadow="2"
     inkscape:window-width="1920"
     inkscape:window-height="1001"
     id="namedview10"
     showgrid="false"
     inkscape:zoom="1.4310345"
     inkscape:cx="290"
     inkscape:cy="290"
     inkscape:window-x="-9"
     inkscape:window-y="-9"
     inkscape:window-maximized="1"
     inkscape:current-layer="svg8" />
  <path
     id="path2"
     style="opacity:0.8;fill:#734a08;stroke:#ffffff;stroke-width:40;stroke-linecap:round;stroke-linejoin:round"
     d="M 500.8,63.026 C 484.96905,52.935026 458.66347,55.864984 438.44875,53.17075 327.28069,48.015231 215.6459,47.233505 104.61641,55.562974 92.397195,56.18006 60.700387,58.681763 82.962131,71.616814 142.99142,127.18121 203.02071,182.7456 263.05,238.31 c 0,66.11333 0,132.22667 0,198.34 -40.61128,29.17495 -82.67571,58.8159 -122.38,87.7 16.2732,9.45054 45.89052,5.82288 67.14124,8.35043 71.81991,1.94937 143.95319,2.94029 215.54017,-3.9698 21.59994,-0.0473 3.36238,-9.66545 -4.06227,-15.00418 C 383.34943,488.0343 347.40971,462.34215 311.47,436.65 c 0,-66.11333 0,-132.22667 0,-198.34 C 374.58,179.882 437.69,121.454 500.8,63.026 Z M 293.45,204.21 c -11.74745,7.34072 -19.36492,-8.51162 -27.88892,-14.31763 -25.81363,-24.3027 -52.51813,-47.78664 -77.77186,-72.60393 4.35041,-7.07383 18.12349,-1.9581 26.48397,-3.51844 57.06165,0.30041 114.22006,-0.60173 171.22103,0.45266 1.61468,8.1428 -11.9695,13.74663 -17.0444,20.56947 C 343.44988,157.93142 318.44994,181.07071 293.45,204.21 Z" />
  <path
     id="path4"
     d="m 160.23,97.146 c 82.16667,0.241667 164.33333,0.483333 246.5,0.725 0.72333,8.45967 1.44667,16.91933 2.17,25.379 -36.00667,31.17333 -72.01333,62.34667 -108.02,93.52 -8.21667,0 -16.43333,0 -24.65,0 -39.15,-35.04 -78.3,-70.08 -117.45,-105.12 0.48333,-4.83467 0.96667,-9.66933 1.45,-14.504 z"
     style="fill:#734a08;fill-opacity:1;opacity:0.33" />
  <path
     id="path6"
     d="M 500.8,63.026 C 488.52674,53.639712 465.52241,56.485902 448.92713,53.839072 338.13278,47.829641 226.88788,47.614634 116.13194,54.550886 105.6384,57.272891 71.154292,53.84975 76.526076,65.659464 138.70072,123.20964 200.87536,180.75982 263.05,238.31 c 0,66.11333 0,132.22667 0,198.34 -40.89333,29.23333 -81.78667,58.46667 -122.68,87.7 13.57518,8.7066 40.11348,5.7112 58.68528,7.99028 74.7228,2.39599 149.79839,3.50762 224.29613,-3.60965 20.7192,0.0973 4.77109,-9.01321 -2.86794,-14.15039 C 384.14565,488.60349 347.80782,462.62675 311.47,436.65 c 0,-66.11333 0,-132.22667 0,-198.34 C 374.58,179.882 437.69,121.454 500.8,63.026 Z M 293.45,204.21 c -11.17273,7.3433 -18.61272,-7.53273 -26.64572,-13.16695 -26.22709,-24.68714 -53.34822,-48.55258 -79.01506,-73.75461 3.82264,-6.94259 16.86914,-2.0438 24.67705,-3.51844 57.66393,0.30068 115.4247,-0.60209 173.02795,0.45266 1.91284,7.68801 -10.99072,12.95746 -15.71832,19.34209 -25.44197,23.54842 -50.88393,47.09683 -76.3259,70.64525 z"
     style="fill:#734a08;fill-opacity:1" />
</svg>
