<?xml version="1.0" encoding="UTF-8"?>
<svg width="580" height="580" version="1.1" xmlns="http://www.w3.org/2000/svg"><path d="m198 1.45c-43 4.77-45.3 63.1-84.7 74.2-67.9 58.7-104 157-77.6 245 23.7 41.6 78.6 21.8 108-2.14 27.6-15 55.2-36.6 88.1-35.4 16.8 46.4 32.8 93.1 48.4 140-2.55 0.396-5.14 0.963-7.75 1.74-35.6 5.14-65.8 43.2-103 28.1-26.1-9.46-49.1-30-77.9-30.6-0.929-0.0192-1.87-0.0174-2.81 0.00586-34 6.78-88.4 15-87.7 59.8-0.546 28.2-11.5 65.8 13.6 86.4 31.9 9.53 60.7-27.9 92.9-12.6 33.1 11.8 65.6 40.9 103 26.7 33.2-11 65.7-41.8 103-27.2 35.7 26.2 88.7 42.9 128 14.9 31.4-33.7 76.5-7.67 113-0.748 33.5-5.93 30-47.6 28.9-73.5 8.42-38.5-26.4-62.8-61.3-67.1-41.3-19.8-77.7 10.6-114 25.7-4.26 1.01-8.44 1.48-12.5 1.54-25.4-69.9-50-140-72.7-211 52.1-17.8 109-17.6 160-38.3 34.5-28.1 11.1-77.6-15.6-102-55.4-66.1-147-101-232-86.3-9.45-9.8-22.6-16.4-36.4-16.5zm-27.4 582c3.23 0.704 2.16 0.47 0 0z" fill="#fff" opacity=".8" stroke="#fff" stroke-linecap="round" stroke-linejoin="round" stroke-width="47"/><path d="m246 242c-40.9 11.6-78.2 32.7-116 51.3-21.3 10.3-60.5 44.5-72.5 6.61-16.9-91.5 33.2-190 116-232 12.5-10.7 10.2-51.9 35.2-33.8 16.6 16.1 40.1 10.5 60.4 8.63 84.7-2.53 172 46.9 205 126-3.85 23.9-32 23.3-50.7 25.6-44.9 9.21-90.4 17-134 32.4 8.33 40.5 25.1 78.6 37 118 15.6 45.7 31.9 91.2 48.6 137-21-12.3-56.4-11.4-60.3-41.9-21.8-66.1-44.4-132-68.5-197z" fill="#2f922e"/><path d="m178 558c-34-8.76-62.3-38.4-99.3-34.4-18 1.32-37.9 23.5-52.6 18.3 0.0501-23.4 0.401-46.8 0.585-70.2 24.5-10.9 50.8-31.1 78.7-19.9 30.4 8.49 56.2 34.4 89.2 32 31.2-5.34 55.7-29.2 86.8-34.6 31.9-3.47 57.5 19.5 85.8 29.8 17.6 8.16 37.8 5.91 54.8-2.77 25.3-10.2 49.2-30.9 78.1-27.1 21.5 6.79 58.4 12.6 57.1 41.7-4.69 17.6 1.84 38.5-5.88 54-14.2-3.38-26.6-14.1-41.1-18.3-16.6-7.35-34.7-2.77-50.1 5.05-23.6 9.86-46.1 26.5-72.4 27.2-37.6-5.12-67.2-39.7-107-35.1-33.4 6.44-60 32.9-94.5 35.5-2.87-0.0237-5.75-0.405-8.52-1.19z" fill="#81c57e"/></svg>
