<?xml version="1.0" encoding="UTF-8" standalone="no"?>
<svg
   xmlns:dc="http://purl.org/dc/elements/1.1/"
   xmlns:cc="http://creativecommons.org/ns#"
   xmlns:rdf="http://www.w3.org/1999/02/22-rdf-syntax-ns#"
   xmlns:svg="http://www.w3.org/2000/svg"
   xmlns="http://www.w3.org/2000/svg"
   xmlns:sodipodi="http://sodipodi.sourceforge.net/DTD/sodipodi-0.dtd"
   xmlns:inkscape="http://www.inkscape.org/namespaces/inkscape"
   height="580"
   width="580"
   version="1.1"
   id="svg20"
   sodipodi:docname="bench.svg"
   inkscape:version="1.0.1 (3bc2e813f5, 2020-09-07)">
  <metadata
     id="metadata26">
    <rdf:RDF>
      <cc:Work
         rdf:about="">
        <dc:format>image/svg+xml</dc:format>
        <dc:type
           rdf:resource="http://purl.org/dc/dcmitype/StillImage" />
      </cc:Work>
    </rdf:RDF>
  </metadata>
  <defs
     id="defs24" />
  <sodipodi:namedview
     pagecolor="#ffffff"
     bordercolor="#666666"
     borderopacity="1"
     objecttolerance="10"
     gridtolerance="10"
     guidetolerance="10"
     inkscape:pageopacity="0"
     inkscape:pageshadow="2"
     inkscape:window-width="1920"
     inkscape:window-height="1001"
     id="namedview22"
     showgrid="false"
     inkscape:zoom="1.4310345"
     inkscape:cx="290"
     inkscape:cy="290"
     inkscape:window-x="-9"
     inkscape:window-y="-9"
     inkscape:window-maximized="1"
     inkscape:current-layer="svg20" />
  <path
     id="path2"
     style="opacity:0.8;fill:none;stroke:#ffffff;stroke-width:40;stroke-linecap:round;stroke-linejoin:round"
     d="m 497.67,396.82782 c 2.09429,38.51511 -46.46459,66.4747 -78.87861,45.49191 -32.61484,-17.57133 -34.66692,-70.25902 -2.49224,-89.50488 29.12569,-20.17568 75.77346,-1.60987 80.4671,34.34922 l 0.67641,4.81078 z m -314.5,0 c 2.09424,38.51543 -46.46486,66.47459 -78.87909,45.49191 -32.616547,-17.57077 -34.664994,-70.25904 -2.49101,-89.50488 29.12545,-20.17582 75.77281,-1.60948 80.46635,34.34922 l 0.67641,4.81078 z m 366.91,-104.83 c 0,20.89333 0,41.78667 0,62.68 -22.23823,15.58304 -48.03696,17.99218 -74.32164,15.91401 -139.13046,-0.0928 -278.26091,-0.1926 -417.39136,-0.28401 -13.147256,-8.63343 -38.290097,-9.73018 -32.449,-30.29366 0,-16.00545 0,-32.01089 0,-48.01634 174.72067,0 349.44133,0 524.162,0 z m -26.21,-157.25 c 0,34.94333 0,69.88667 0,104.83 -157.24667,0 -314.49333,0 -471.74,0 0,-34.94333 0,-69.88667 0,-104.83 157.24667,0 314.49333,0 471.74,0 z m -78.63,94.29 c 0,26.20667 0,52.41333 0,78.62 -8.73667,0 -17.47333,0 -26.21,0 0,-26.20667 0,-52.41333 0,-78.62 8.73667,0 17.47333,0 26.21,0 z m -288.28,-0.38 c 0,26.20667 0,52.41333 0,78.62 -8.73667,0 -17.47333,0 -26.21,0 0,-26.20667 0,-52.41333 0,-78.62 8.73667,0 17.47333,0 26.21,0 z" />
  <g
     fill="#734a08"
     id="g16"
     transform="translate(0,-472.36218)">
    <path
       d="m 156.96,701.02 v 78.62 c -8.74,0 -17.47,0 -26.21,0 0,-26.2 0,-52.41 0,-78.62 z"
       id="path4" />
    <path
       d="m 445.24,701.4 v 78.62 c -8.74,0 -17.47,0 -26.21,0 0,-26.2 0,-52.41 0,-78.62 z"
       id="path6" />
    <path
       d="m 523.87,607.11 v 104.83 c -157.25,0 -314.49,0 -471.74,0 0,-34.94 0,-69.89 0,-104.83 z"
       id="path8" />
    <path
       d="m 550.08,764.36 v 62.68 c -11.77,4.97 -22.89,12.76 -35.08,15.94 -152.21,-0.1 -304.42,-0.21 -456.633,-0.31 -10.816,-5.21 -21.633,-10.42 -32.449,-15.63 0,-20.89 0,-41.79 0,-62.68 z"
       id="path10" />
    <path
       d="m 183.17,869.19 c 1.5,36.09 -40.2,63.68 -72.83,48.28 C 76.527,904.8 67.291,855.65 94.231,831.59 119.07,805.37 167.93,816.03 179.6,850.2 c 2.35,6.03 3.57,12.51 3.57,18.99 z"
       id="path12" />
    <path
       d="m 497.67,869.19 c 1.5,36.09 -40.2,63.68 -72.83,48.28 -33.81,-12.67 -43.05,-61.82 -16.11,-85.88 24.84,-26.22 73.7,-15.56 85.37,18.61 2.35,6.03 3.57,12.51 3.57,18.99 z"
       id="path14" />
  </g>
</svg>
