<svg height="580" width="580" xmlns="http://www.w3.org/2000/svg"><path d="m345.12 265.52c.95 6.05-1 14.89 1.7 19.26 0 0 32.35-.62 30.59 3.08-1.75 3.71-9.42 14.53-11.48 22.13.84 5.61 5.66 14.24 4.2 18.1-49.14.2-98.23.41-147.38.63-3.1-7.47-6.2-14.89-9.31-22.36 10.78-3.4 21.54-6.79 32.3-10.21 1.98-9.36-3.79-10.01-11.31-8.75-22.31.38-44.63.73-66.94 1.09 4.96 6.63 7.02 16.85 16.31 18.03 7.78.53 8.09 8.89 10.86 14.62 2.52 6.17 8.55 5.45 2.8 11.16-7.71 14.55-20.39 36.75-28.11 51.29-36.76-17.78-90.492.88-107.556 48.38-17.065 47.49 22.725 109.73 72.676 114.18 49.89 4.48 78-35.73 85.55-77.28 6.56.75 19.07-4.21 23.19 2.99 5.64 4.71 9.7 9.57 3.17 15.72-3.33 5.84-5.61 13.41-13.66 11.77-9.3-1.04-10.21 3.11-5.6 10.67 12.4-.44 24.85-.87 37.25-1.3 2.08-9.15-5.9-8.65-12.4-9.56 3.6-5.22 3.4-15.19 9.94-16.68 6.95-.89 15.34-2.28 16.83-10.34 4.31-7.78 4.43-17.63 13.16-21.39l94.2-66.51c10.49 16.7-2.74 3.03-21.52 41.38-18.79 38.35 4.48 104.81 59.99 118.23 51.22 11.1 100.87-40.12 95.92-93.43-4.98-53.29-63.02-86.21-113.49-68.39-5.73-24.15-17.03-47.67-17.16-72.44 15.21-11.69 19.76-36.56-1.7-44.07z" style="opacity:.8;fill:none;stroke:#fff;stroke-linejoin:round;stroke-linecap:round;stroke-width:34.737"/><path d="m191.67 58.319c-49.52-.314-91.09 51.411-80.54 99.931 6.91 40.59 46.15 74.03 87.87 69.91 27.88-1.73 53.97-18.38 67.99-42.41 12.71-10.01 31.72 3.25 44.22-7.55 8.56-8.87 15.71-20.68 27.77-24.68 9.66 2.74 14 13.25 21.98 18.12 8.01-5.15 12.64-17.39 23.6-17.34 7.76 4.68 12.68 12.95 20 17.85 8.32-5.35 13.26-18.11 24.59-18.12 7.91 4.47 12.28 13.82 20.54 17.38 11.49-10.39 23.25-21.15 32.84-33.51 0-7-9.48-10.87-13.23-16.59-7.79-6.9-14.36-19.64-26.63-17-16.57 1.33-33.53-.4-50.28.27-40.55 0-81.44.97-121.8-1.01-11.06-9.538-16.95-24.413-30.54-31.179-14.12-9.446-31.29-14.603-48.38-14.072zm-33.69 55.711c24.22-.61 38.69 33.89 21.09 50.65-14.24 15.71-44.72 10.66-50.71-10.42-6.63-18.85 8.82-42.32 29.62-40.23z" style="opacity:.801;fill:none;stroke:#fff;stroke-linejoin:round;stroke-linecap:round;stroke-width:50"/><g transform="matrix(1.0107 0 0 1.0135 -3.0954 -4.0213)"><path d="m73.723 459.22a68.71 68.71 0 0 0 137.417 0 68.71 68.71 0 1 0 -137.417 0z" fill="none" stroke="#0073be" stroke-width="22.791"/><path d="m368.18 457.88a68.71 68.71 0 0 0 137.42 0 68.71 68.71 0 1 0 -137.42 0z" fill="none" stroke="#0073be" stroke-width="22.791"/><path d="m382.46 340.99-176.68.9-62.46 115.99h119.57l124.92-84.77" fill="none" stroke="#0073be" stroke-linejoin="round" stroke-width="18.299"/><g fill-rule="evenodd"><path d="m375.68 271.48c9.59 0 16.84-.22 24.28 11.14 2.14 3.78 3.12 8.41 2.32 13.01-.94 5.24-4.04 10.37-7.69 13.41-4.84 4.04-9.43 3.73-8.69 7.35.96 4.64 3.86 11.11 7 21.6 3.19 10.65 6.97 23.68 10.68 36.51 3.71 12.84 7.36 25.49 10.25 35.34 1.44 4.93 2.7 9.16 3.67 12.33.94 3.09 1.78 5.48 1.7 5.32 3 5.28 3.41 8.72 8.46 13.23 5.64 4.95 10.25 8.6 11.85 9.72 4.06 2.95 5.94 9.17 3.81 12.25-2.71 4.19-8.29 4.82-12.36 3.57-3.87-1.23-10-3.33-17.11-9.22l-.1-.1-.1-.1c-9.89-8.48-13.55-18.77-13.91-19.37l-.53-.79-.35-.88c-.86-2.12-1.37-3.97-2.39-7.29-1.01-3.32-2.3-7.61-3.75-12.57-2.91-9.94-6.54-22.6-10.25-35.42-3.7-12.83-7.48-25.79-10.63-36.3-3.13-10.51-5.12-19.15-5.86-20.98-1.79-4.47-2.7-9.3-1.48-14.14s4.87-8.75 8.15-9.65c7.49-2.09 5.51-7.48 1.67-7.49l-32.09-.1-.1-20.49h33.45z" fill="#0073be" stroke-linecap="round" stroke-width="25"/><path d="m260.6 454.25-60.57-148.28" fill="#fff" stroke="#0073be" stroke-width="21.918"/><path d="m281.43 416.39-36.6 85.19" fill="#0073be" stroke="#0073be" stroke-linecap="round" stroke-width="7.998"/><path d="m242.85 458.11a19.372 17.111 0 0 0 38.74 0 19.372 17.111 0 1 0 -38.74 0z" fill="#0073be" stroke="#0073be" stroke-width="7.273"/><path d="m297.72 416.43-32.33.3" fill="#0073be" stroke="#0073be" stroke-linecap="round" stroke-width="11.177"/><path d="m261.31 500.35-32.34.3" fill="#0073be" stroke="#0073be" stroke-linecap="round" stroke-width="11.177"/><path d="m170.37 292.73h76.03c2.85 0 6.51 5.02 2.85 8.36-3.97 3.77-39.59 11.52-39.59 11.52s-9.78 2.67-14.99 2.04c-5.21-.62-23.19-2.21-24.3-21.92z" fill="#0073be" stroke="#0092da" stroke-width=".584"/></g><path d="m100.25 5.75c-39.915-.2526-73.423 41.329-64.926 80.33 5.576 32.63 37.204 59.51 70.836 56.2 22.48-1.39 43.51-14.78 54.81-34.09 10.25-8.05 25.57 2.61 35.65-6.07 6.9-7.13 12.66-16.624 22.38-19.839 7.79 2.202 11.29 10.647 17.72 14.563 6.46-4.138 10.19-13.98 19.03-13.938 6.25 3.764 10.22 10.407 16.12 14.344 6.71-4.293 10.69-14.551 19.82-14.562 6.38 3.597 9.9 11.109 16.56 13.968 9.26-8.352 18.74-16.999 26.47-26.937 0-5.623-7.64-8.739-10.66-13.337-6.28-5.544-11.58-15.781-21.47-13.663-13.36 1.067-27.03-.322-40.53.219-32.69-.02-65.65.783-98.19-.813-8.91-7.667-13.66-19.624-24.62-25.063-11.38-7.593-25.22-11.7385-39-11.312zm-27.156 44.781c19.527-.486 31.186 27.246 17 40.719-11.48 12.63-36.05 8.572-40.875-8.375-5.349-15.155 7.109-34.022 23.875-32.344z" fill="#0073be" stroke="#0073be" stroke-linecap="round" stroke-linejoin="round" stroke-width="10" transform="matrix(1.2274 0 0 1.2274 69.656 54.452)"/></g></svg>