<svg height="580" width="580" xmlns="http://www.w3.org/2000/svg"><path d="m380.7 134.37c29.01-1.33 58.02-2.65 87.03-3.98 19.2 1.52 26.85 22 22.22 38.4-6.8 57.26-13.47 114.54-20.34 171.79-5.51 20.56-29.86 17.74-46.49 20.69-13.36 1.64-26.72 3.27-40.08 4.91m-146.99-305.956c-40.19.823-80.98 3.847-119.25 17.025 1.5 118.071 3.01 236.141 4.51 354.211-18.77 10.62-32.193 39.91-13.61 56.99 31.64 28.33 76.44 33.88 117.19 37.02 50.71 1.62 104.77-2.51 149.22-29.21 23.98-11.21 27.88-44.13 6.95-60.57-10.66-4-6.03-15.21-6.9-23.93.68-112.32 1.36-224.64 2.05-336.966-45.54-12.559-93.1-15.695-140.16-14.57z" style="opacity:.8;fill:none;stroke:#fff;stroke-linejoin:round;stroke-linecap:round;stroke-width:80"/><path d="m116.54 83.447c40.35-6.942 80.66-14.872 121.03-21.198 43.65 4.553 87.31 9.106 130.97 13.66 2.68 121.131 5.36 242.261 8.04 363.391 6.2 9.69 12.4 19.38 18.59 29.07-68.68 59.63-174.66 78.06-255.7 32.89-11.61-10.13-45.225-20.4-39.38-37.03 6.36-10.66 14.73-20.73 19.86-31.75-1.14-116.34-2.27-232.69-3.41-349.033z" fill="#fff" fill-rule="evenodd"/><path d="m116.54 83.447c40.35-6.942 80.66-14.872 121.03-21.198 43.65 4.553 87.31 9.106 130.97 13.66 2.68 121.131 5.36 242.261 8.04 363.391 6.2 9.69 12.4 19.38 18.59 29.07-68.68 59.63-174.66 78.06-255.7 32.89-11.61-10.13-45.225-20.4-39.38-37.03 6.36-10.66 14.73-20.73 19.86-31.75-1.14-116.34-2.27-232.69-3.41-349.033z" fill="#734a08" fill-rule="evenodd" opacity=".1"/><g fill="none" stroke-linecap="round" stroke-linejoin="round"><path d="m236.05 60.224c-40.19.823-80.98 3.847-119.25 17.025 1.5 118.071 3.01 236.141 4.51 354.211-18.77 10.62-32.193 39.91-13.61 56.99 31.64 28.33 76.44 33.88 117.19 37.02 50.71 1.62 104.77-2.51 149.22-29.21 23.98-11.21 27.88-44.13 6.95-60.57-10.66-4-6.03-15.21-6.9-23.93.68-112.32 1.36-224.64 2.05-336.966-45.54-12.559-93.1-15.695-140.16-14.57z" stroke="#734a08" stroke-width="35"/><path d="m380.7 125.55c31.21-1.33 62.43-2.66 93.65-3.98 19.19 1.52 26.86 22 22.19 38.39-7.52 62.48-14.94 124.97-22.52 187.44-5.51 20.62-29.86 17.72-46.52 20.43-14.82 1.66-29.64 3.31-44.46 4.97" stroke="#734a08" stroke-width="24.869"/><path d="m120.54 427.06c33.78 43.43 94.3 49.61 145.39 45.4 38.78-3.68 82.86-11.32 109.02-43.15" stroke="#fff" stroke-width="22.06"/><path d="m116.34 427.88c33.04 41.46 91.12 48.5 140.75 45.98 42.4-3.43 90.91-11.34 119.86-45.72" stroke="#734a08" stroke-width="30"/><path d="m380.7 134.37c29.01-1.33 58.02-2.65 87.03-3.98 19.2 1.52 26.85 22 22.22 38.4-6.8 57.26-13.47 114.54-20.34 171.79-5.51 20.56-29.86 17.74-46.49 20.69-13.36 1.64-26.72 3.27-40.08 4.91" stroke="#734a08" stroke-width="30"/></g><path d="m245.74 64.719c-43.18.732-88.1 3.875-127.72 22.497-8.95 4.784-3.94 17.254-6 26.074-1.49 29.08-2.98 58.15-4.47 87.23 5.87-2.01 21 4.91 18.4-5.28-.84-23.73-1.68-47.47-2.52-71.21 31.5 24.11 73.63 28.31 111.09 17.98 42.56-10.49 85.6-23.23 129.97-20.13 0 26.21 0 52.42.1 78.64 6.04-1.97 21.47 4.83 18.82-5.27-2.32-36.64-5.25-74.22-7.21-110.29-19.52-13.186-45.24-13.566-68.07-17.204-20.72-2.161-41.56-3.029-62.39-3.037z" fill="#734a08" opacity=".75"/></svg>