<svg height="580" width="580" xmlns="http://www.w3.org/2000/svg"><path d="m333.4082 239.80078c-4.05705 52.83752-7.97544 107.27619-10.74218 151.79892 1.33172 12.36242 11.81493 23 25.33398 23 32.33334-.3331 64.66669-.66662 97.00003-1 13.44016 0 24.05695-9.94808 25.34375-23 .22336-47.57134-.40528-96.53651-.74417-144.5997 0-14.39987-12.04379-25.49157-25.41406-25.59375l-84.09375-6.00586c-14.75458 1.04928-25.63304 15.2893-26.6836 25.40039z" fill="none" opacity=".8" stroke="#fff" stroke-linejoin="round" stroke-width="64"/><path d="m102 163c-4 4-6 11-6 17v208c0 13 10 23 23 23h97c13 0 23-10 23-23l-6-176c-.45443-5.5379-2.1836-11.15846-5-15-4-4-9-7-16-10l-92-30c-6.96524-1.59555-14.15061 1.02707-18 6z" fill="none" opacity=".8" stroke="#fff" stroke-linejoin="round" stroke-width="64"/><g fill="#666"><path d="m333.4082 239.80078c-4.05705 52.83752-7.97544 107.27619-10.74218 151.79892 1.33172 12.36242 11.81493 23 25.33398 23 32.33334-.3331 64.66669-.66662 97.00003-1 13.44016 0 24.05695-9.94808 25.34375-23 .22336-47.57134-.40528-96.53651-.74417-144.5997 0-14.39987-12.04379-25.49157-25.41406-25.59375l-84.09375-6.00586c-14.75458 1.04928-25.63304 15.2893-26.6836 25.40039z"/><path d="m102 163c-4 4-6 11-6 17v208c0 13 10 23 23 23h97c13 0 23-10 23-23l-6-176c-.45443-5.5379-2.1836-11.15846-5-15-4-4-9-7-16-10l-92-30c-6.96524-1.59555-14.15061 1.02707-18 6z"/></g></svg>