<svg height="580" width="580" xmlns="http://www.w3.org/2000/svg"><path d="m239 159c-13 13-20 31-20 50v171c-2 1-5 1-7 2-8 2-11 6-11 10v25c-1 5 4 10 14 12 19 6 42 5 64 6 29 0 59 0 86-5 8-3 14-7 14-11v-27c0-2-1-5-4-7-4-2-9-4-15-5v-171c0-19-7-38-21-51-13-13-32-21-50-21-19 1-37 8-50 22z" fill="none" opacity=".8" stroke="#fff" stroke-linejoin="round" stroke-width="64"/><path d="m239 159c-13 13-20 31-20 50v171c-2 1-5 1-7 2-8 2-11 6-11 10v25c-1 5 4 10 14 12 19 6 42 5 64 6 29 0 59 0 86-5 8-3 14-7 14-11v-27c0-2-1-5-4-7-4-2-9-4-15-5v-171c0-19-7-38-21-51-13-13-32-21-50-21-19 1-37 8-50 22z" fill="#666"/></svg>