<svg height="580" width="580" xmlns="http://www.w3.org/2000/svg"><g fill="none" stroke="#fff"><path d="m226.6 373.43c91.11-20.14 182.22-40.27 273.33-60.41" opacity=".8" stroke-linecap="round" stroke-linejoin="round" stroke-width="87.54"/><path d="m76.114 45.707c-6.879 5.839-1.677 18.244-3.18 26.921.636 46.192 0 92.482 1.446 138.602 13.7 19.21 42.13 27.74 64.74 21.07 23.99-6.32 49.82-21.1 74.05-7.1 23.42 12.27 51.04 12.03 74.8.95 16.07-1.24 9.65-17.38 10.94-27.79-.3-49.05.57-98.26-.41-147.214-19.31 1.059-42.2 17.372-63.94 8.349-23.7-9.619-49.77-20.048-74.63-6.914-23.47 10.498-50.58 12.902-73.064-1.41-3.873-1.157-6.763-4.614-10.752-5.464zm-9.133-1.301c-6.649 5.972-1.735 18.221-3.238 26.887v276.157c7.689 9.07 20.464.44 15.955-11.1 0-96.24 0-192.47 0-288.706-1.213-5.503-8.787-2.434-12.717-3.238z" opacity=".8" stroke-width="47.05"/><path d="m473.3 392.36c-15.49 2.27-9.23 20.41-10.53 31.29v104.18c2.38 15.41 20.49 9.12 31.38 10.43 10.65-.21 29.42 3.26 28.01-13.2 0-40.76 0-81.5 0-122.27-2.38-15.39-20.49-9.1-31.37-10.42-5.84 0-11.66 0-17.49 0zm-278.5-104.84c-17.71 1.67-12.25 21.64-13.11 33.84v203.91c1.83 17.62 21.77 12.09 33.96 12.99 14.1 2.86 29.15-5.28 25.42-21.33 0-34.97 0-69.95 0-104.93-27.24 10.06-61.26-13.61-55.14-43.81.34-31.58 37.85-32.4 55.14-41.76-1.64-12.8 5.06-29.91-8.08-37.91-12.52-2.07-25.5-.53-38.19-1z" opacity=".8" stroke-width="68.09"/></g><path d="m473.3 392.36c-15.49 2.27-9.23 20.41-10.53 31.29v104.18c2.38 15.41 20.49 9.12 31.38 10.43 10.65-.21 29.42 3.26 28.01-13.2 0-40.76 0-81.5 0-122.27-2.38-15.39-20.49-9.1-31.37-10.42-5.84 0-11.66 0-17.49 0z" fill="#5f5f5f" stroke="#5f5f5f" stroke-width="26.743"/><path d="m194.8 287.52c-17.71 1.67-12.25 21.64-13.11 33.84v203.91c1.83 17.62 21.77 12.09 33.96 12.99 14.1 2.86 29.15-5.28 25.42-21.33 0-34.97 0-69.95 0-104.93-27.24 10.06-61.26-13.61-55.14-43.81.34-31.58 37.85-32.4 55.14-41.76-1.64-12.8 5.06-29.91-8.08-37.91-12.52-2.07-25.5-.53-38.19-1z" fill="#5f5f5f" stroke="#5f5f5f" stroke-width="33.34"/><g fill="#2c2c2c" stroke-width="11.195" transform="matrix(.57808 0 0 .57808 -998.78 -119.68)"><path d="m1859.4 286.08c-11.9 10.1-2.9 31.56-5.5 46.57 1.1 79.9 0 159.99 2.5 239.76 23.7 33.25 72.9 48 112 36.45 41.5-10.94 86.2-36.49 128.1-12.27 40.5 21.23 88.3 20.81 129.4 1.65 27.8-2.16 16.7-30.07 18.9-48.07-.5-84.86 1-169.99-.7-254.68-33.4 1.83-73 30.05-110.6 14.44-41-16.64-86.1-34.68-129.1-11.96-40.6 18.16-87.5 22.32-126.4-2.44-6.7-2-11.7-7.98-18.6-9.45z"/><path d="m1843.6 283.83c-11.5 10.33-3 31.52-5.6 46.51v477.74c13.3 15.67 35.4.74 27.6-19.25 0-166.47 0-332.93 0-499.4-2.1-9.52-15.2-4.21-22-5.6z" fill-rule="evenodd"/></g><path d="m226.6 373.43c91.11-20.14 182.22-40.27 273.33-60.41" fill="#2c2c2c" stroke="#2c2c2c" stroke-linecap="round" stroke-width="51.46"/></svg>