<svg height="580" width="580" xmlns="http://www.w3.org/2000/svg"><path d="m254.16 568.61c4.59-4.8 9.18-9.59 13.77-14.39.65.68 1.31 1.37 1.97 2.06-4.59 4.8-9.18 9.59-13.77 14.39-.66-.69-1.32-1.37-1.97-2.06zm21.41 2.03c-.93 0-1.86.1-2.79.1v7.96h6.22c-1.14-2.69-2.3-5.37-3.43-8.06zm-22.39 0c.93 0 1.86.1 2.79.1v7.96c-2.07 0-4.14 0-6.21 0 1.14-2.69 2.3-5.37 3.42-8.06zm12.66 7.04c-.89 1.59-3.07 1.04-3.76-.4-1.58-.69-2.29 2.32-4.06 1.1-.67-.67-1.77-1.99-2.62-.7-1.82-1.19 1.84-2.36 2.45-.83.71 1.53 2.08.34 2.72-.5 1.52-1 2.38.9 3.53 1.28 1.25-.4 2.28-2.44 3.83-1.17.54 1.18 2.13 1.59 2.68.16 1.05-1.25 3.62-.18 3.05 1.49-.75.14-1.34-1.81-2.43-.78-.78 1.72-3.12 1.46-3.9-.1-.5-.28-1.28-.11-1.49.45zm0-2.42c-.89 1.58-3.07 1.04-3.76-.4-1.58-.7-2.31 2.34-4.06 1.06-.65-.72-1.75-2.08-2.62-.76-1.82-1.19 1.83-2.36 2.45-.83.7 1.52 2.08.34 2.72-.5 1.52-1.01 2.38.9 3.53 1.27 1.25-.31 2.06-2.33 3.62-1.3.64.85 2.01 2.02 2.72.5.9-1.41 3.53-.65 3.3 1.08-.63.96-1.18-1.61-2.28-.71-.8 1.49-3.13 1.93-3.9.11-.46-.54-1.78-.34-1.72.48z" style="opacity:.804;fill:none;stroke:#fff;stroke-linejoin:round;stroke-linecap:round;stroke-width:2.255" transform="matrix(18.241 0 0 18.241 -4532.5 -10043)"/><g fill-rule="evenodd" transform="matrix(17.735 0 0 17.735 -4398.6 -9755.9)"><path d="m265.84 575.26c-.89 1.58-3.07 1.04-3.76-.4-1.58-.7-2.31 2.34-4.06 1.06-.65-.72-1.75-2.08-2.62-.76-1.82-1.19 1.83-2.36 2.45-.83.7 1.52 2.08.34 2.72-.5 1.52-1.01 2.38.9 3.53 1.27 1.25-.31 2.06-2.33 3.62-1.3.64.85 2.01 2.02 2.72.5.9-1.41 3.53-.65 3.3 1.08-.63.96-1.18-1.61-2.28-.71-.8 1.49-3.13 1.93-3.9.11-.46-.54-1.78-.34-1.72.48z" fill="#3d9ad4" stroke-width="10.306"/><path d="m265.84 577.68c-.89 1.59-3.07 1.04-3.76-.4-1.58-.69-2.29 2.32-4.06 1.1-.67-.67-1.77-1.99-2.62-.7-1.82-1.19 1.84-2.36 2.45-.83.71 1.53 2.08.34 2.72-.5 1.52-1 2.38.9 3.53 1.28 1.25-.4 2.28-2.44 3.83-1.17.54 1.18 2.13 1.59 2.68.16 1.05-1.25 3.62-.18 3.05 1.49-.75.14-1.34-1.81-2.43-.78-.78 1.72-3.12 1.46-3.9-.1-.5-.28-1.28-.11-1.49.45z" fill="#3d9ad4" stroke-width="10.306"/><g fill="#0073be"><path d="m253.18 570.64c.93 0 1.86.1 2.79.1v7.96c-2.07 0-4.14 0-6.21 0 1.14-2.69 2.3-5.37 3.42-8.06z" stroke-width=".059"/><path d="m275.57 570.64c-.93 0-1.86.1-2.79.1v7.96h6.22c-1.14-2.69-2.3-5.37-3.43-8.06z" stroke-width=".059"/><path d="m254.16 568.61c4.59-4.8 9.18-9.59 13.77-14.39.65.68 1.31 1.37 1.97 2.06-4.59 4.8-9.18 9.59-13.77 14.39-.66-.69-1.32-1.37-1.97-2.06z" stroke="#0073be" stroke-width=".338"/></g></g></svg>