<svg height="580" width="580" xmlns="http://www.w3.org/2000/svg"><path d="m289.94 95.956c-102.74-3.141-226.072 65.574-225.974 179.464v208.62h452.064c0-70.77 0-141.53 0-212.3-2.11-112.99-125.15-177.933-226.09-175.784zm-165.96 138.884h142.76v65.43c-47.59 0-95.17 0-142.76 0 0-21.81 0-43.62 0-65.43zm189.16 0h142.76v65.43c-47.59 0-95.17 0-142.76 0 0-21.81 0-43.62 0-65.43z" fill="none" opacity=".8" stroke="#fff" stroke-linejoin="round" stroke-width="76.14"/><path d="m289.94 95.956a226.03 176.65 0 0 0 -225.974 175.784v.87 211.43h452.064v-211.43-.87a226.03 176.65 0 0 0 -226.09-175.784zm-165.96 138.884h142.76v65.43h-142.76zm189.16 0h142.76v65.43h-142.76z" fill="#bebbb7" stroke="#000" stroke-width="12"/></svg>