<svg height="580" width="580" xmlns="http://www.w3.org/2000/svg"><g stroke-linecap="round" stroke-linejoin="round"><path d="m288.7 38.913c6.55.06 3.81-.03 0 0zm-142.74 28.642c-23.62 8.671-41.09 30.692-41.58 56.105-6.029 49.21-13.386 98.33-18.579 147.59v208.25h34.309c1.33 17.27-3.77 36.2 5.45 51.82 14.27 21.52 53.11 11.79 53.48-14.86.37-12.31.1-24.64.17-36.96h222.96c1.33 17.27-3.77 36.2 5.46 51.82 14.27 21.52 53.11 11.8 53.49-14.86.37-12.31.1-24.64.17-36.96h34.32c-.22-71.57.45-143.19-.33-214.73-7.09-52.11-12.81-104.48-20.76-156.44-9.2-34.529-47.69-45.869-78.21-54.395-83.63-21.242-177.05-17.09-250.35 13.62zm15.69 60.505c87.07.1 174.15-.14 261.22.1 20.56-.1 21.22 22.65 23.26 37.84 4.48 33.41 9.58 66.77 13.67 100.23 1.74 18.89-19.24 17.87-32.29 17.33h-289.24c-20.42.77-17.01-22-14.38-35.48 5.46-35.55 8.81-71.52 15.76-106.77 2.78-9.69 12.69-13.66 22-13.25z" fill="none" opacity=".8" stroke="#fff" stroke-width="40"/><path d="m114.09 117.02h355.52v316.5c-118.51 0-237.01 0-355.52 0 0-105.5 0-211 0-316.5z" fill="#fff" opacity=".765" stroke-opacity=".737" stroke-width="11.8"/><path d="m184.75 69.913h210.52v39.747c-70.17 0-140.35 0-210.52 0 0-13.25 0-26.499 0-39.747z" fill="#fff" opacity=".765" stroke-opacity=".737" stroke-width="11.8"/></g><path d="m288.7 38.913c6.55.06 3.81-.03 0 0zm1.99.03c-49.12 2.057-99.29 9.031-144.73 28.612-23.62 8.671-41.09 30.692-41.58 56.105-6.029 49.21-13.386 98.33-18.579 147.59v208.25h34.309c1.33 17.27-3.77 36.2 5.45 51.82 14.27 21.52 53.11 11.79 53.48-14.86.37-12.31.1-24.64.17-36.96h222.96c1.33 17.27-3.77 36.2 5.46 51.82 14.27 21.52 53.11 11.8 53.49-14.86.37-12.31.1-24.64.17-36.96h34.32c-.22-71.57.45-143.19-.33-214.73-7.09-52.11-12.81-104.48-20.76-156.44-9.2-34.529-47.69-45.869-78.21-54.395-34.53-8.601-69.99-14.356-105.62-14.992zm-84.29 38.869c57.17.187 109.29-1.099 166.44-.444 14.91.06 18 23.982-2.14 24.702-52.83-.19-114.4 1.1-167.21.45-14.24-2.525-11.55-25.692 2.91-24.708zm-44.75 50.248c87.07.1 174.15-.14 261.22.1 20.56-.1 21.22 22.65 23.26 37.84 4.48 33.41 9.58 66.77 13.67 100.23 1.74 18.89-19.24 17.87-32.29 17.33h-289.24c-20.42.77-17.01-22-14.38-35.48 5.46-35.55 8.81-71.52 15.76-106.77 2.78-9.69 12.69-13.66 22-13.25zm-11.96 227.98c24.35-1.28 38.11 32.33 20.05 48.62-16.26 18.21-49.79 4.17-48.43-20.14-.32-15.27 13.08-28.8 28.38-28.48zm282.03 0c24.35-1.27 38.1 32.34 20.04 48.62-16.25 18.21-49.78 4.17-48.42-20.14-.32-15.27 13.08-28.8 28.38-28.48z" fill="#0073be"/></svg>