<?xml version="1.0" encoding="UTF-8"?>
<svg width="580" height="580" version="1.1" xmlns="http://www.w3.org/2000/svg" xmlns:cc="http://creativecommons.org/ns#" xmlns:dc="http://purl.org/dc/elements/1.1/" xmlns:rdf="http://www.w3.org/1999/02/22-rdf-syntax-ns#">
 <metadata>
  <rdf:RDF>
   <cc:Work rdf:about="">
    <dc:format>image/svg+xml</dc:format>
    <dc:type rdf:resource="http://purl.org/dc/dcmitype/StillImage"/>
    <dc:title/>
   </cc:Work>
  </rdf:RDF>
 </metadata>
 <path d="m505.69 132.28c-147.62 0.10001-295.25-0.20001-442.87 0.15-26.014 1.9679-29.225 32.51-26.362 52.781 0.38263 97.345-0.84354 194.78 0.63238 292.07 5.209 23.579 32.883 24.226 52.132 22.442 139.82-0.0736 279.65 0.1973 419.47-0.14176 26.028-1.9864 29.314-32.522 26.428-52.832-0.31345-97.07 0.70201-194.21-0.52432-291.24-2.5764-13.245-15.434-23.524-28.904-23.23z"/>
 <path d="m87.793 171.4c-17.23-3.3178-29.321 11.963-25.108 28.304-0.01614 28.897-0.2259 57.836 0.20878 86.701 1.8376 21.898 27.621 15.388 42.639 16.433 23.998-0.39543 48.07 0.49146 72.013-0.35217 13.548-0.18472 17.95-13.663 16.335-24.925-0.10044-29.855 0.22151-59.741-0.21574-89.566-1.3401-20.961-25.598-15.905-40.043-16.49-21.943-0.0723-43.894 0.36284-65.829-0.10604zm315.16 0.20117c-17.23-3.32-29.31 11.962-25.1 28.299-0.0194 28.899-0.22626 57.839 0.20948 86.706 1.83 21.898 27.612 15.388 42.627 16.433 24-0.39544 48.074 0.49149 72.019-0.35217 13.55-0.18172 17.967-13.658 16.349-24.925-0.10086-29.858 0.22253-59.748-0.21687-89.577-1.3494-20.96-25.613-15.892-40.059-16.481-21.942-0.0717-43.893 0.36123-65.828-0.10409zm-157.64 0.0781c-17.229-3.3186-29.325 11.956-25.112 28.3-0.0177 28.901-0.22825 57.844 0.20783 86.713 1.8405 21.897 27.617 15.397 42.637 16.438 23.996-0.39688 48.066 0.49473 72.007-0.35526 13.549-0.18845 17.958-13.666 16.342-24.931-0.10012-29.857 0.2207-59.746-0.21476-89.573-1.3426-20.959-25.601-15.899-40.045-16.485-21.94-0.0725-43.889 0.36294-65.822-0.10604z" fill="#fff" opacity=".9"/>
 <path d="m272.66 1.0478h26.25v144.35h-26.25v-144.35z"/>
</svg>
