<?xml version="1.0" encoding="UTF-8" standalone="no"?>
<svg
   xmlns:dc="http://purl.org/dc/elements/1.1/"
   xmlns:cc="http://creativecommons.org/ns#"
   xmlns:rdf="http://www.w3.org/1999/02/22-rdf-syntax-ns#"
   xmlns:svg="http://www.w3.org/2000/svg"
   xmlns="http://www.w3.org/2000/svg"
   xmlns:sodipodi="http://sodipodi.sourceforge.net/DTD/sodipodi-0.dtd"
   xmlns:inkscape="http://www.inkscape.org/namespaces/inkscape"
   height="857.32837"
   width="582.1723"
   version="1.1"
   id="svg16"
   sodipodi:docname="cable_car_ctr.svg"
   inkscape:version="1.0.1 (3bc2e813f5, 2020-09-07)">
  <metadata
     id="metadata22">
    <rdf:RDF>
      <cc:Work
         rdf:about="">
        <dc:format>image/svg+xml</dc:format>
        <dc:type
           rdf:resource="http://purl.org/dc/dcmitype/StillImage" />
      </cc:Work>
    </rdf:RDF>
  </metadata>
  <defs
     id="defs20" />
  <sodipodi:namedview
     pagecolor="#ffffff"
     bordercolor="#666666"
     borderopacity="1"
     objecttolerance="10"
     gridtolerance="10"
     guidetolerance="10"
     inkscape:pageopacity="0"
     inkscape:pageshadow="2"
     inkscape:window-width="1920"
     inkscape:window-height="1001"
     id="namedview18"
     showgrid="false"
     inkscape:zoom="0.69051724"
     inkscape:cx="290"
     inkscape:cy="274.43196"
     inkscape:window-x="-9"
     inkscape:window-y="-9"
     inkscape:window-maximized="1"
     inkscape:current-layer="svg16"
     inkscape:document-rotation="0" />
  <g
     id="g845"
     transform="translate(4.2121752,-302.67166)">
    <path
       id="path1237"
       style="opacity:0.8;stroke:#ffffff;stroke-width:50;stroke-linecap:round;stroke-linejoin:round;stroke-miterlimit:4;stroke-dasharray:none"
       d="m 505.69,712.28 c -147.62,0.1 -295.26,-0.2 -442.871,0.15 -19.113,1.26 -29.102,21.25 -26.374,38.59 0.101,100.91 -0.203,201.83 0.152,302.74 1.473,19.42 21.821,28.54 39.093,25.97 144.33,-0.1 288.67,0.2 433,-0.15 19.12,-1.28 29.18,-21.27 26.44,-38.64 -0.1,-100.92 0.2,-201.84 -0.15,-302.74 -1.31,-14.54 -14.82,-26.19 -29.29,-25.92 z M 270.10096,630.62579 h 31.36808 v 97.33325 c -10.45603,0 -20.91205,0 -31.36808,0 0,-32.44666 0,-64.88658 0,-97.33325 z" />
    <path
       d="m 505.69,712.28 c -147.62,0.1 -295.26,-0.2 -442.871,0.15 -19.113,1.26 -29.102,21.25 -26.374,38.59 0.101,100.91 -0.203,201.83 0.152,302.74 1.473,19.42 21.821,28.54 39.093,25.97 144.33,-0.1 288.67,0.2 433,-0.15 19.12,-1.28 29.18,-21.27 26.44,-38.64 -0.1,-100.92 0.2,-201.84 -0.15,-302.74 -1.31,-14.54 -14.82,-26.19 -29.29,-25.92 z"
       id="path2" />
    <path
       d="m 193.88,865.95 c 0,17.57 -19.31,17.74 -32.15,16.84 -28.53,-0.23 -57.11,0.46 -85.613,-0.35 -18.16,-4.43 -12.612,-25.3 -13.466,-39.06 0.229,-26.11 -0.459,-52.27 0.345,-78.35 4.434,-18.16 25.299,-12.62 39.064,-13.47 26.18,0.23 52.4,-0.46 78.55,0.35 18.02,4.53 12.37,25.35 13.27,39.06 z"
       fill="#ffffff"
       opacity="0.9"
       id="path4" />
    <path
       d="m 272.66,581.05 h 26.25 V 725.4 c -8.75,0 -17.5,0 -26.25,0 0,-48.12 0,-96.23 0,-144.35 z"
       id="path6" />
    <g
       fill="#ffffff"
       id="g12"
       transform="translate(0,107.64)">
      <path
         d="m 351.4,758.59 c 0,17.57 -19.32,17.75 -32.16,16.85 -28.53,-0.23 -57.1,0.46 -85.6,-0.35 -18.16,-4.44 -12.62,-25.3 -13.47,-39.07 0.23,-26.11 -0.46,-52.27 0.35,-78.36 4.44,-18.15 25.3,-12.61 39.06,-13.46 26.17,0.23 52.4,-0.46 78.55,0.35 18.02,4.53 12.37,25.34 13.27,39.05 z"
         opacity="0.9"
         id="path8" />
      <path
         d="m 509.06,758.51 c 0,17.57 -19.33,17.74 -32.17,16.84 -28.53,-0.23 -57.11,0.46 -85.61,-0.35 -18.15,-4.43 -12.6,-25.3 -13.46,-39.06 0.23,-26.11 -0.46,-52.27 0.35,-78.36 4.43,-18.15 25.29,-12.61 39.05,-13.46 26.18,0.23 52.4,-0.46 78.56,0.35 18.03,4.52 12.38,25.34 13.28,39.05 z"
         opacity="0.9"
         id="path10" />
    </g>
  </g>
  <rect
     style="opacity:0.8;fill:none;stroke:none;stroke-width:50;stroke-linecap:round;stroke-linejoin:round;stroke-opacity:0.8;paint-order:stroke fill markers"
     id="rect837"
     width="582.1723"
     height="857.32837"
     x="0"
     y="0" />
</svg>
