<svg height="580" width="580" xmlns="http://www.w3.org/2000/svg"><g fill="none"><path d="m379.5 182.8c27.97-18.97 59.96-39.41 95.12-36.53 30.84 8.36 41.5 43.96 46.69 71.87 13.1 66.3-30.47 135.9-93.84 157.14-32.71 11.51-68.5 16.56-102.92 11.51-27.97-2.68-39.76-33.85-31.1-57.9 15.35-54.98 51.7-101.65 86.04-146.09z" opacity=".8" stroke="#fff" stroke-linejoin="round" stroke-width="90"/><path d="m49.379 104.07c-8.463 85.66-7.945 174.6 20.046 256.88 16.7 49.32 52.955 97 106.285 108.45 32.28 6.13 65.95 5.7 98.4.94 53.72-9.61 91.72-56.16 109.05-105.39 29.21-81.94 29.88-171.01 22.02-256.72-1.61-8.455-16.26-2.2-23.72-4.06-110.69.77-221.38.54-332.081-.1z" opacity=".8" stroke="#fff" stroke-linecap="round" stroke-linejoin="round" stroke-width="60"/><path d="m379.5 182.8c27.97-18.97 59.96-39.41 95.12-36.53 30.84 8.36 41.5 43.96 46.69 71.87 13.1 66.3-30.47 135.9-93.84 157.14-32.71 11.51-68.5 16.56-102.92 11.51-27.97-2.68-39.76-33.85-31.1-57.9 15.35-54.98 51.7-101.65 86.04-146.09z" stroke="#734a08" stroke-width="49.923"/></g><path d="m49.379 104.07c-8.463 85.66-7.945 174.6 20.046 256.88 16.7 49.32 52.955 97 106.285 108.45 32.28 6.13 65.95 5.7 98.4.94 53.72-9.61 91.72-56.16 109.05-105.39 29.21-81.94 29.88-171.01 22.02-256.72-1.61-8.455-16.26-2.2-23.72-4.06-110.69.77-221.38.54-332.081-.1z" style="fill:#734a08;fill-rule:evenodd;stroke:#734a08;stroke-linejoin:round;stroke-linecap:round;stroke-width:20.376"/></svg>