<svg height="580" width="580" xmlns="http://www.w3.org/2000/svg"><g stroke-linecap="round" stroke-linejoin="round" stroke-opacity=".784"><path d="m523.57 389.81c2.04 53.78-56.72 97.02-107.45 79.23-51.95-13.95-75.98-82.84-43.94-126.06 28.69-45.53 101.59-48.11 133.42-4.72 11.58 14.51 18.02 32.99 17.97 51.55z" fill="#820000" fill-opacity=".784" stroke="#fff" stroke-width="80"/><path d="m523.57 389.81c2.04 53.78-56.72 97.02-107.45 79.23-51.95-13.95-75.98-82.84-43.94-126.06 28.69-45.53 101.59-48.11 133.42-4.72 11.58 14.51 18.02 32.99 17.97 51.55z" fill="#780000" stroke-width="40"/><path d="m220.14 387.64c2.04 53.79-56.72 97.02-107.45 79.24-51.955-13.96-75.986-82.85-43.944-126.07 28.687-45.53 101.594-48.11 133.424-4.72 11.58 14.51 18.02 32.99 17.97 51.55z" fill="#820000" fill-opacity=".784" stroke="#fff" stroke-width="80"/><path d="m220.14 387.64c2.04 53.79-56.72 97.02-107.45 79.24-51.955-13.96-75.986-82.85-43.944-126.07 28.687-45.53 101.594-48.11 133.424-4.72 11.58 14.51 18.02 32.99 17.97 51.55z" fill="#780000" stroke-width="40"/><path d="m370.41 113.24c2.04 53.78-56.72 97.02-107.45 79.23-51.95-13.95-75.98-82.84-43.94-126.064 28.68-45.529 101.59-48.11 133.42-4.722 11.58 14.515 18.02 32.993 17.97 51.556z" fill="#820000" fill-opacity=".784" stroke="#fff" stroke-width="80"/><path d="m370.41 113.24c2.04 53.78-56.72 97.02-107.45 79.23-51.95-13.95-75.98-82.84-43.94-126.064 28.68-45.529 101.59-48.11 133.42-4.722 11.58 14.515 18.02 32.993 17.97 51.556z" fill="#780000" stroke-width="40"/></g></svg>