<svg height="580" width="580" xmlns="http://www.w3.org/2000/svg"><path d="m331.74 48.643-251.699 475.517zm-85.09-2.603 252.08 478.12zm41.64 80.7c-1.63 8.99-211.022 398.11-211.022 398.11l421.462-.69z" fill="none" opacity=".8" stroke="#fff" stroke-linejoin="round" stroke-width="71.58"/><path d="m288.29 152.77c-.25 1.39-1.7 4.56-2.73 11.26l-204.052 360.13 90.482.69s77.3-147.31 106.1-248.4c5.47-19.21 9.33-35.45 12.03-49.24 2.7 13.79 6.55 30.03 12.02 49.24 28.81 101.09 106.12 248.4 106.12 248.4l90.47-.69-204.06-360.13c-1.01-6.7-2.47-9.87-2.73-11.26l-1.82 3.22z" fill="#0092d9"/><path d="m288.29 152.77c-.25 1.39-1.7 4.56-2.73 11.26l-204.052 360.13 90.482.69s77.3-147.31 106.1-248.4c5.47-19.21 9.33-35.45 12.03-49.24 2.7 13.79 6.55 30.03 12.02 49.24 28.81 101.09 106.12 248.4 106.12 248.4l90.47-.69-204.06-360.13c-1.01-6.7-2.47-9.87-2.73-11.26l-1.82 3.22z" style="opacity:.8;fill:none;stroke:#fff;stroke-linejoin:round;stroke-linecap:round;stroke-width:37.79"/><path d="m288.29 152.77c-5.73 23.17-21.8 41.93-32.12 63.14-58.23 102.75-116.45 205.5-174.662 308.25 30.162.23 60.322.46 90.482.69 43.81-87.46 87.57-176.18 112.14-271.29 2.09-10.33 6.98-35.15 9.31-11.04 20.43 86.59 58.19 167.98 97.64 247.2 8.01 14.06 10.85 40.74 33.38 35.01 24.76-.19 49.51-.38 74.27-.57-68.02-120.04-136.04-240.09-204.06-360.13.22-5.41-1.64-9.08-6.38-11.26z" fill="#0073be"/><path d="m330.6 48.575-247.95 476.325 415.42-2.17-250.85-476.33" fill="none" stroke="#0073be" stroke-width="30"/></svg>