<svg height="580" width="580" xmlns="http://www.w3.org/2000/svg"><path d="m436.54 245.9c2.18 18.52-17.56 19.57-30.75 18.49-18.4-.56-37.04 1.25-55.25-1.16-14.54-6.84-8.41-25.26-9.74-38.13-2.21-13.63 3.94-30.75 20.98-27.05 21.66.58 43.55-1.26 65.04 1.12 14.54 6.55 8.38 24.87 9.72 37.55zm-174.17.64c1.76 18.46-18.35 18.69-31.39 17.85-40.92-.18-81.87.37-122.77-.28-17.072-2.48-12.671-22.27-13.25-34.7.04-11.48-2.369-29.26 13.25-31.08 46.79-.46 93.64-.47 140.43 0 17.41 2.18 13.25 22.15 13.73 34.72zm271.15 143.55c-14.83 0-29.65 0-44.48 0-.25-56.19.5-112.4-.39-168.57-2.67-45.68-46.49-83.64-92.19-78.96-95.39.1-190.78-.13-286.17.1-47.118.69-84.864 46.74-80.798 92.83.389 39.26-.806 78.59.651 117.81 3.931 33.11 36.441 59.2 69.689 55.28h92.108c1.03-38.38 38.37-72.15 77.04-65.04 31.01 4.3 56.25 33.2 57 64.4h224.83c1.02-10.22-6.82-18.9-17.29-17.85zm-274.25 44.64c-35.76-.21-18.97-59.86 11.58-39.97 17.32 10.62 9.04 40.61-11.58 39.97zm0-72.08c-34.59-1.51-58.74 38.74-45.25 69.38 10.93 30.42 54.43 41.72 77.42 17.88 28.13-23.81 17.16-74.98-18.13-85.2-4.54-1.41-9.29-2.06-14.04-2.06z" style="opacity:.8;fill:none;stroke:#fff;stroke-linejoin:round;stroke-linecap:round;stroke-width:40"/><path d="m436.54 245.9c2.18 18.52-17.56 19.57-30.75 18.49-18.4-.56-37.04 1.25-55.25-1.16-14.54-6.84-8.41-25.26-9.74-38.13-2.21-13.63 3.94-30.75 20.98-27.05 21.66.58 43.55-1.26 65.04 1.12 14.54 6.55 8.38 24.87 9.72 37.55zm-174.17.64c1.76 18.46-18.35 18.69-31.39 17.85-40.92-.18-81.87.37-122.77-.28-17.072-2.48-12.671-22.27-13.25-34.7.04-11.48-2.369-29.26 13.25-31.08 46.79-.46 93.64-.47 140.43 0 17.41 2.18 13.25 22.15 13.73 34.72zm271.15 143.55c-14.83 0-29.65 0-44.48 0-.25-56.19.5-112.4-.39-168.57-2.67-45.68-46.49-83.64-92.19-78.96-95.39.1-190.78-.13-286.17.1-47.118.69-84.864 46.74-80.798 92.83.389 39.26-.806 78.59.651 117.81 3.931 33.11 36.441 59.2 69.689 55.28h92.108c1.03-38.38 38.37-72.15 77.04-65.04 31.01 4.3 56.25 33.2 57 64.4h224.83c1.02-10.22-6.82-18.9-17.29-17.85zm-274.25 44.64c-35.76-.21-18.97-59.86 11.58-39.97 17.32 10.62 9.04 40.61-11.58 39.97zm0-72.08c-34.59-1.51-58.74 38.74-45.25 69.38 10.93 30.42 54.43 41.72 77.42 17.88 28.13-23.81 17.16-74.98-18.13-85.2-4.54-1.41-9.29-2.06-14.04-2.06z" fill="#0073be"/></svg>