<svg height="580" width="580" xmlns="http://www.w3.org/2000/svg"><path d="m33.611 125.32-.377 103.12v.1l34.679-.31v240.1h171.507v-89.93h51.68 21.01 30.3v89.93h171.28v-240.1l34.63.31v-.1l-.37-103.12h-34.25v34.3h-34.26v-34.3h-34.26v34.3h-34.24v-34.3h-34.26v102.9h34.26v68.6h-34.26v-34.3h-34.26v34.3h-34.24v-34.3h-.15-34.11-.19v34.3h-34.3v-34.3h-34.3v34.3h-34.3v-68.6h34.3v-102.9h-34.3v34.3h-34.3v-34.3h-34.3v34.3h-34.307v-34.3h-34.3z" style="opacity:.8;fill:none;stroke:#fff;stroke-linejoin:round;stroke-linecap:round;stroke-width:42.662"/><path d="m33.611 125.32-.377 103.12v.1l34.679-.31v240.1h171.509v-89.93h51.68 21.01 30.3v89.93h171.28v-240.1l34.63.31v-.1l-.37-103.12h-34.25v34.3h-34.26v-34.3h-34.26v34.3h-34.24v-34.3h-34.26v102.9h34.26v68.6h-34.26v-34.3h-34.26v34.3h-34.24v-34.3h-.15-34.11-.19v34.3h-34.3v-34.3h-34.3v34.3h-34.3v-68.6h34.3v-102.9h-34.3v34.3h-34.3v-34.3h-34.3v34.3h-34.309v-34.3h-34.3z" fill="#734a08"/></svg>