<svg height="580" width="580" xmlns="http://www.w3.org/2000/svg"><path d="m27.354 410.92c30.775-46.74 64.106-91.91 98.866-135.79 27.76-35.33 64.07-64.32 107-78.82 42.79-15.46 90.87-26.89 135.68-13.35 26.34 8.95 40.02 35.47 59.09 53.87 39.2 45.46 79.82 90.2 113.16 140.26 15.02 18.04 8.14 46.55-16.74 50.44-47.4 13.4-97.34 11.93-146.13 14.3-67.43 2.13-134.94 2.44-202.37 1.63-46.42-4.63-93.283-10.54-137.849-24.82-3.523-1.91-10.006-2.99-10.707-7.72z" style="opacity:.8;fill:none;stroke:#fff;stroke-linejoin:round;stroke-linecap:round;stroke-width:40"/><path d="m27.354 410.92c30.775-46.74 64.106-91.91 98.866-135.79 27.76-35.33 64.07-64.32 107-78.82 42.79-15.46 90.87-26.89 135.68-13.35 26.34 8.95 40.02 35.47 59.09 53.87 39.2 45.46 79.82 90.2 113.16 140.26 15.02 18.04 8.14 46.55-16.74 50.44-47.4 13.4-97.34 11.93-146.13 14.3-67.43 2.13-134.94 2.44-202.37 1.63-46.42-4.63-93.283-10.54-137.849-24.82-3.523-1.91-10.006-2.99-10.707-7.72z" fill="#bebbb7"/><path d="m27.354 410.92c30.775-46.74 64.106-91.91 98.866-135.79 27.76-35.33 64.07-64.32 107-78.82 42.79-15.46 90.87-26.89 135.68-13.35 26.34 8.95 40.02 35.47 59.09 53.87 39.49 45.85 80.53 90.89 113.93 141.49 7.59 8.44 22.14 48.45-1.32 36.02-17.86-17.01-30-39.11-46.68-57.3-37.1-43.66-73.92-87.86-115.18-127.69-19.18-19.01-46.3-34.2-74.03-26.61-34.66 9.05-67.66 24.02-99.59 40.09-57.62 31.43-82.74 95.41-125.084 142.17-13.735 13.28-27.16 37.11-49.567 31.94-2.569-.61-4.561-3.48-3.115-6.02z"/><path d="m146.97 418.17c4.92-28.42 25.56-50.94 42.61-73.14 21.55-24.12 43.39-50.44 73.29-64.31 35.92-4.35 71.18 13.31 98.53 35.52 32.19 26.96 54.84 63.3 75.78 99.17-9.48 10.62-36.08 5.22-52.3 7.99-76.31 2.17-152.9 3.29-229.04-2.87-2.88-.66-6.58-.29-8.87-2.36z"/></svg>