<?xml version="1.0" encoding="UTF-8" standalone="no"?>
<svg
   xmlns:dc="http://purl.org/dc/elements/1.1/"
   xmlns:cc="http://creativecommons.org/ns#"
   xmlns:rdf="http://www.w3.org/1999/02/22-rdf-syntax-ns#"
   xmlns:svg="http://www.w3.org/2000/svg"
   xmlns="http://www.w3.org/2000/svg"
   xmlns:sodipodi="http://sodipodi.sourceforge.net/DTD/sodipodi-0.dtd"
   xmlns:inkscape="http://www.inkscape.org/namespaces/inkscape"
   height="909.36139"
   width="694.60242"
   version="1.1"
   id="svg12"
   sodipodi:docname="chair_lift_ctr.svg"
   inkscape:version="1.0.1 (3bc2e813f5, 2020-09-07)">
  <metadata
     id="metadata18">
    <rdf:RDF>
      <cc:Work
         rdf:about="">
        <dc:format>image/svg+xml</dc:format>
        <dc:type
           rdf:resource="http://purl.org/dc/dcmitype/StillImage" />
        <dc:title />
      </cc:Work>
    </rdf:RDF>
  </metadata>
  <defs
     id="defs16" />
  <sodipodi:namedview
     pagecolor="#ffffff"
     bordercolor="#666666"
     borderopacity="1"
     objecttolerance="10"
     gridtolerance="10"
     guidetolerance="10"
     inkscape:pageopacity="0"
     inkscape:pageshadow="2"
     inkscape:window-width="1920"
     inkscape:window-height="1001"
     id="namedview14"
     showgrid="false"
     inkscape:zoom="0.71551724"
     inkscape:cx="176.70739"
     inkscape:cy="438.56358"
     inkscape:window-x="-9"
     inkscape:window-y="-9"
     inkscape:window-maximized="1"
     inkscape:current-layer="svg12"
     inkscape:document-rotation="0" />
  <path
     id="path841"
     style="opacity:0.8;fill:none;stroke:#ffffff;stroke-width:94.2415;stroke-linecap:round;stroke-linejoin:round;stroke-miterlimit:4;stroke-dasharray:none"
     d="m 316.17781,405.81258 h 23.53534 c -47.08625,98.40811 -94.16474,196.82401 -141.25099,295.23213 -7.84512,0 -15.69024,0 -23.53535,0 47.08625,-98.40812 94.16473,-196.82402 141.251,-295.23213 z M 176.89976,534.79875 c -24.04044,-1.47121 -45.64112,23.92748 -38.17368,48.10769 6.67451,36.75319 12.68681,73.89449 19.77957,110.40399 5.52432,21.09337 27.90921,30.02895 47.27923,27.84469 h 89.55696 v 112.66956 c 1.08919,25.182 42.48684,21.9327 39.48941,-3.2222 -0.10457,-46.7449 0.20041,-93.51676 -0.15684,-140.26155 -1.82982,-18.66542 -21.28699,-27.31217 -37.46789,-25.09181 -21.26956,0 -42.53911,0 -63.80867,0 -6.2127,-34.15376 -11.72833,-68.7227 -18.3767,-102.60568 -4.60941,-17.02272 -21.46125,-28.09742 -38.12139,-27.84469 z M 64.26084,522.12648 c -18.943065,-0.44227 -21.443829,21.33706 -16.53815,35.63398 10.891827,58.24371 21.104003,116.64085 32.422791,174.7943 10.813406,43.67599 55.016799,71.53878 97.364219,68.1541 21.25214,-0.46037 42.66983,1.30873 63.79997,-0.73113 25.54787,-5.69529 12.64323,-43.50452 -10.66528,-36.91566 -24.65038,-0.74915 -49.50989,1.38997 -73.986,-2.01276 -23.53506,-5.03641 -39.66368,-27.5649 -41.60678,-51.6368 C 104.06393,651.67426 93.930177,593.73743 82.41098,536.12554 79.892791,528.13767 72.486348,522.04524 64.26084,522.12648 Z m 152.11961,-44.76813 c 0.66222,36.59975 -45.10088,57.15156 -72.74868,36.95176 -25.28647,-14.5677 -26.95946,-55.58109 -2.6489,-72.01713 27.74366,-22.65485 75.67642,-3.53813 75.39758,35.06537 z" />
  <path
     id="path2"
     style="stroke-width:0.886812;stroke-miterlimit:4;stroke-dasharray:none"
     d="M 334.77822,357.73031 C 297.223,438.8159 259.6717,519.90552 222.11904,600.99373 c -2.27106,-12.84098 -4.6051,-25.64328 -7.09824,-38.34939 -4.60941,-17.02273 -21.45996,-28.09842 -38.12009,-27.84569 -24.04045,-1.47121 -45.64167,23.92745 -38.17423,48.10765 6.6745,36.7532 12.68639,73.89554 19.77916,110.40503 5.52432,21.09337 27.90895,30.02806 47.27897,27.8438 h 89.5571 v 112.66955 c 1.08918,25.182 42.48613,21.9334 39.4887,-3.2216 -0.10456,-46.74485 0.20067,-93.51751 -0.15658,-140.26231 -1.82982,-18.66541 -21.28581,-27.31275 -37.46671,-25.0924 h -63.80864 c -1.38397,-7.60823 -2.73216,-15.2375 -4.06718,-22.87476 43.94151,-94.88069 87.88011,-189.76471 131.82363,-284.6433 z m -165.53827,74.8464 c -10.00541,-0.0543 -20.02118,2.99139 -28.25757,9.71704 -24.31057,16.43605 -22.63624,57.44862 2.65023,72.01632 27.6478,20.19981 73.40936,-0.35239 72.74715,-36.95214 0.19604,-27.14309 -23.44275,-44.65258 -47.13981,-44.78122 z M 64.260842,522.12604 c -18.943065,-0.44227 -21.443074,21.33663 -16.537396,35.63354 10.891829,58.24372 21.102627,116.6411 32.421415,174.79454 10.813406,43.67601 55.017339,71.53895 97.364769,68.15427 21.25212,-0.46037 42.67076,1.30929 63.8009,-0.73056 25.54787,-5.6953 12.64184,-43.50537 -10.66667,-36.91651 -24.65038,-0.74914 -49.51013,1.39115 -73.98624,-2.01159 C 133.12256,756.01331 116.99531,733.48529 115.0522,709.41339 104.06453,651.67513 93.929613,593.73662 82.410416,536.12473 79.892226,528.13687 72.48635,522.0448 64.260842,522.12604 Z" />
  <rect
     style="opacity:0.8;fill:none;stroke:none;stroke-width:104.485;stroke-linecap:round;stroke-linejoin:round;stroke-miterlimit:4;stroke-dasharray:none;stroke-opacity:0.8;paint-order:stroke fill markers"
     id="rect833"
     width="694.60242"
     height="909.36139"
     x="0"
     y="0" />
</svg>
