<?xml version="1.0" encoding="UTF-8" standalone="no"?>
<svg
   xmlns:dc="http://purl.org/dc/elements/1.1/"
   xmlns:cc="http://creativecommons.org/ns#"
   xmlns:rdf="http://www.w3.org/1999/02/22-rdf-syntax-ns#"
   xmlns:svg="http://www.w3.org/2000/svg"
   xmlns="http://www.w3.org/2000/svg"
   xmlns:sodipodi="http://sodipodi.sourceforge.net/DTD/sodipodi-0.dtd"
   xmlns:inkscape="http://www.inkscape.org/namespaces/inkscape"
   height="580"
   viewBox="0 0 580 580"
   width="580"
   version="1.1"
   id="svg8"
   sodipodi:docname="charging_station.svg"
   inkscape:version="1.0.1 (3bc2e813f5, 2020-09-07)">
  <metadata
     id="metadata14">
    <rdf:RDF>
      <cc:Work
         rdf:about="">
        <dc:format>image/svg+xml</dc:format>
        <dc:type
           rdf:resource="http://purl.org/dc/dcmitype/StillImage" />
      </cc:Work>
    </rdf:RDF>
  </metadata>
  <defs
     id="defs12" />
  <sodipodi:namedview
     pagecolor="#ffffff"
     bordercolor="#666666"
     borderopacity="1"
     objecttolerance="10"
     gridtolerance="10"
     guidetolerance="10"
     inkscape:pageopacity="0"
     inkscape:pageshadow="2"
     inkscape:window-width="1920"
     inkscape:window-height="1001"
     id="namedview10"
     showgrid="false"
     inkscape:zoom="1.4310345"
     inkscape:cx="290"
     inkscape:cy="290"
     inkscape:window-x="-9"
     inkscape:window-y="-9"
     inkscape:window-maximized="1"
     inkscape:current-layer="svg8" />
  <path
     id="path2"
     style="opacity:0.8;fill:none;stroke:#ffffff;stroke-width:58.806;stroke-linecap:round;stroke-linejoin:round"
     d="m 263.91,40.777 c -29.37474,2.6249 -15.81399,40.145455 -18.23,59.7431 0,54.94664 0,109.89327 0,164.8399 -26.58705,-4.60136 -64.00872,20.55774 -81.45,13.5229 0.22279,-14.63932 -0.31037,-29.67054 -0.0226,-43.96893 36.18838,-2.7731 39.23441,-41.15221 50.78706,-69.28417 6.10169,-19.60653 13.12424,-54.10665 -15.85445,-47.93883 -0.0622,-17.63896 -0.1897,-35.388011 0.80969,-52.828783 -6.65855,-36.118098 -32.83961,-2.430395 -24.26075,18.820468 -1.40355,15.295202 8.37754,42.455735 -15.61928,35.587345 -13.15655,0 -26.31311,0 -39.46966,0 -0.34527,-18.79154 0.46345,-37.687097 0.1954,-56.317155 C 110.00278,27.628335 89.454649,68.028603 97.232844,87.061717 97.735284,102.95216 102.7973,127.29118 78.386,119.27 c -5.873953,33.91413 11.123278,66.01059 22.01517,97.06444 5.21854,23.94239 39.71581,5.18023 31.83883,30.8959 -1.39121,16.40116 2.95148,33.2833 -1.59064,49.08471 -13.73016,24.67008 -41.517878,37.79938 -55.100907,63.00214 -25.15389,38.18358 -38.354876,85.43409 -33.901848,131.02566 5.788554,34.97833 43.067187,61.81339 77.984055,50.15486 34.5368,-11.12596 46.81099,-50.16308 44.5181,-83.17688 0.85147,-42.44806 -1.09503,-85.01904 0.74921,-127.37849 9.82489,-31.7957 53.21017,-31.06636 80.78203,-35.88234 0.39355,74.59184 -0.90144,149.24268 0.93845,223.77899 -0.39594,30.02056 41.48433,14.8007 60.50495,18.77369 76.47857,0.33815 152.95776,-0.0693 229.4366,0.0573 C 536.43651,375.44845 536.81382,214.0671 536.35844,52.95184 521.37395,30.055781 485.13184,45.883191 460.84828,40.992828 395.20464,40.713084 329.54277,41.551849 263.91,40.777 Z m 215.58,65.083 c 31.54143,2.20242 14.98848,43.28865 19.32083,64.64375 -0.47986,25.19469 0.35075,50.73327 -0.038,75.62624 -13.32353,20.15324 -41.46314,9.36114 -61.85704,11.40001 -50.17526,0 -100.35053,0 -150.52579,0 0.22595,-46.87593 -0.51068,-93.88562 0.50244,-140.64566 21.54445,-21.753375 62.46717,-5.63545 91.93506,-10.71184 33.55107,-0.16221 67.143,0.66382 100.6625,-0.3125 z M 132.24,341.02 c -0.30035,45.8301 0.7067,91.72158 -0.78475,137.49237 2.9392,39.63643 -53.464467,49.12516 -58.801609,7.65669 C 67.609382,450.10611 79.703498,412.79181 97.232355,381.41295 106.40331,366.03394 118.15098,352.11708 132.24,341.02 Z" />
  <path
     id="path4"
     style="stroke:none;fill:#d7efd7;fill-opacity:1"
     d="m 275.78,95.35 c 77.45,0 154.9,0 232.35,0 0,57.79333 0,115.58667 0,173.38 -77.45,0 -154.9,0 -232.35,0 0,-57.79333 0,-115.58667 0,-173.38 z" />
  <path
     id="path6"
     style="stroke:none;fill:#2f922e;fill-opacity:1"
     d="M 245.68,95.783 C 242.01846,71.160512 242.05121,30.39987 278.83082,41.008402 361.07031,41.256124 443.31314,40.466028 525.55,41.424 c 19.41563,8.537449 8.12597,33.274239 11.01,49.772372 0,148.491208 0,296.982418 0,445.473628 -91.70328,-0.67094 -183.60552,1.36298 -275.18414,-1.03158 -29.13436,-6.90923 -10.38196,-50.44508 -15.56742,-72.62951 -0.2609,-56.31322 -0.0706,-112.63285 -0.12844,-168.94891 -27.29868,4.54292 -67.07454,4.2806 -80.14527,32.83317 -2.92097,25.41478 -0.54806,51.27084 -1.34565,76.87611 -0.81481,30.88398 2.92758,62.54436 -4.04267,92.86053 -8.025,29.44796 -38.2062,52.47813 -69.267301,45.26851 -35.656191,-6.33458 -56.399711,-46.30733 -49.610816,-80.23174 3.101676,-57.8249 31.96973,-113.16077 77.499047,-148.90242 16.49064,-12.27165 14.12872,-32.23673 13.47266,-50.07722 0,-10.41564 0,-20.83129 0,-31.24694 C 98.538355,239.90159 94.626344,196.68486 85.139106,174.88397 79.893354,155.74568 63.598497,112.31282 96.812375,118.18016 100.37087,96.75975 91.893964,71.177199 102.16302,51.483429 122.23234,38.75899 122.99252,73.676197 120.6,86.58281 c 0,10.89573 0,21.79146 0,32.68719 18.42,0 36.84,0 55.26,0 3.56592,-23.141342 -8.48725,-53.248286 9.22242,-71.26164 19.51431,0.494283 14.23491,26.250431 14.05758,40.002574 0,10.419688 0,20.839376 0,31.259066 39.53518,-7.15221 14.6791,47.35764 8.33055,67.0927 -6.46131,23.19202 -14.22835,46.47795 -41.82539,46.80808 -3.96815,9.5199 -0.10857,21.43954 -1.41516,32.08765 -0.96464,12.57213 -1.53802,24.89175 15.0485,13.92426 19.77157,-10.33187 52.36926,-8.7691 66.4015,-18.06038 0,-55.1131 0,-110.22621 0,-165.33931 z M 446.39,257.53 c 23.9709,5.56935 60.47115,-0.67388 52.30634,-33.43419 -0.66063,-37.49285 1.75339,-75.22615 -1.57583,-112.55958 -22.16824,-12.842879 -52.46656,-1.32903 -77.80801,-5.26873 -41.45365,0.43578 -83.20925,-1.39504 -124.47237,1.30211 -15.33161,10.8614 -6.04149,32.60082 -8.45013,48.87089 0,33.6965 0,67.393 0,101.0895 53.33333,0 106.66667,0 160,0 z M 71.265,466.24 c -9.160942,29.26758 31.42309,69.19262 52.38975,35.53635 14.27534,-26.31476 6.89993,-57.24553 8.58525,-85.94709 0,-24.93642 0,-49.87284 0,-74.80926 -37.818653,29.9077 -57.41878,78.06823 -60.975,125.22 z" />
</svg>
