<?xml version="1.0" encoding="UTF-8"?>
<svg width="580" height="580" version="1.1" xmlns="http://www.w3.org/2000/svg"><path d="m430 352c-60.4 29.1-121 58.1-181 87.2 16.5 26.9 22.1 60.1 44.9 83.1 35.4 2.66 69.4-15.2 92.7-40.9 26.5-18.4 64-3.31 88.7-25.7-2.89-30.9-25.3-55.1-35.4-83.8-3.21-6.66-6.41-13.3-9.62-20zm-139-288c-30.9 19.2-76.3 2.93-101 34.8-20.8 24.9-55.6 25.9-84.9 32.3-0.914 29.1 24.4 50 31.2 77.2 9.84 40.5 44.4 3.48 66.6-3.58 42-20.2 84.1-40.5 126-60.7-12.8-26.7-25.7-53.3-38.5-80zm37.2-32.6c-18.5 7.22 12.2 53.3-18.4 38-7.89-19.3-26.6-4.54-12.9 9.22 7.44 21.6 46.6 59.6 13.3 74.7-54 26-108 52-162 78-16.1-33.5-32.2-67-48.4-100-13 3.69-26.9 19.5-6.53 15.3 18.5 10.4 1.11 52.5-11.6 24.4-12.2-25.5-20.7-1.28-7.75 11.9 59.9 122 118 245 177 368 19.3-12.1-24.8-51.9 11.7-46.7 1.89 14.1 29.8 34.5 19.7 6.85-6.4-23.6-38.6-54.2-26-74.9 57.6-27.7 115-55.4 173-83.1 16.4 34.1 32.9 68.3 49.3 102 22.8-13.7 46.5-42.4 21.4-65.7-57.3-119-115-238-172-357zm21 74.3c21.3 11.7 5.96 58.8-11.6 27-7.86-11.4-5.52-28.3 11.6-27zm-11.5 55.5c27.9 57.9 55.7 116 83.6 174-60.4 29.1-121 58.1-181 87.2-27.9-57.9-55.7-116-83.6-174l181-87.2zm46 16.1c22.5 12.6 4.01 59.8-12 25.5-10.7-12.3-2.55-24.6 12-25.5zm-259 36.3c21.3 11.7 5.96 58.8-11.6 27.1-7.88-11.4-5.5-28.3 11.6-27.1zm293 35.3c21.3 11.7 5.97 58.8-11.6 27.1-7.85-11.4-5.55-28.3 11.6-27.1zm-259 36.4c21.4 11.7 5.97 58.8-11.6 27-7.85-11.4-5.51-28.3 11.6-27zm293 35.2c21.4 11.7 5.9 58.8-11.6 27.1-7.86-11.4-5.44-28.3 11.6-27.1zm-259 36.4c21.3 11.7 5.95 58.8-11.6 27-7.88-11.4-5.52-28.3 11.6-27zm293 35.2c21.3 11.7 6 58.8-11.5 27.1-7.84-11.4-5.53-28.3 11.5-27.1zm-259 36.4c21.4 11.7 5.91 58.8-11.6 27-7.86-11.4-5.5-28.3 11.6-27z" fill="none" opacity=".8" stroke="#fff" stroke-linecap="round" stroke-linejoin="round" stroke-width="39.1"/><path d="m291 64.2c-2.4 1.61-4.89 3.06-7.5 4.28-21.1 9.42-48.4 4.64-69.3 13.5-21.2 8.75-35.4 30.6-55.1 39.1-18.7 7.81-40.8 2.4-59.2 9.87l48.4 101 181-87.2z" fill="#fff"/><path transform="matrix(.901 -.434 .434 .901 0 0)" d="m33.5 292h201v193h-201z" fill="#fff"/><path d="m430 352-181 87.2 40.4 83.9c17-4.37 36.3-0.87 52.9-7.8 19.7-8.52 33.9-30.4 55.1-39.1 20.9-8.85 48.2-4.07 69.3-13.5 4.6-2.15 8.79-5.04 12.8-8.29z" fill="#fff"/><path d="m328 31.5c-16.3 5.48-6.29 17.2-1.58 27.3 8.58 9.35-7.07 10.2-12.9 14.6-7.31 3.12-8.03-12.6-12.5-17.5-15.8 5.62-5.94 16.6-1.32 26.8 9.84 20.5 19.7 40.9 29.5 61.4l-181 87.2c-16.1-33.5-32.2-67-48.4-101-11.3 4.14-36 26.6-12.8 12.9 7.43-2.88 8.26 13.1 12.9 18.2 6.76 8.67 5.56 14.6-5.57 17-9.6 9.07-11.6-3.61-15.5-10.9-3.59-8.37-9.05-23.6-14.5-6.27 62.3 129 125 259 187 388 7.79-10.1 14.3-8.17 5.25-13-4.46-9.24-8.92-18.5-13.4-27.7 6.78-0.989 17.6-13.5 21.3-5.67 3.94 8.21 7.89 16.4 11.8 24.6 19.7-1.48 7-14.4 2.84-24.9-10.3-21.4-20.6-42.7-30.8-64.1 60.4-29.1 121-58.1 181-87.2 16.4 34.1 32.9 68.3 49.3 102 10.1-12.4 32.3-23.8 35.7-35.9-62.1-129-124-258-186-387zm21 74.3c5.04 10.5 10.1 21 15.1 31.4-6.75 0.961-17.6 13.5-21.2 5.62-4.44-9.24-8.89-18.5-13.3-27.7 6.48-3.11 13-6.23 19.4-9.34zm-11.5 55.5c27.9 57.9 55.7 116 83.6 174-60.4 29.1-121 58.1-181 87.2l-83.6-174c60.4-29.1 121-58.1 181-87.2zm46 16.1c5.04 10.5 10.1 21 15.1 31.4-6.77 0.973-17.6 13.5-21.3 5.63-4.44-9.24-8.89-18.5-13.3-27.7 6.5-3.12 13-6.23 19.5-9.35zm-259 36.3c5.04 10.5 10.1 21 15.1 31.4-6.76 0.981-17.5 13.5-21.2 5.67-4.46-9.24-8.92-18.5-13.4-27.7 6.5-3.13 13-6.26 19.5-9.39zm293 35.3c5.04 10.5 10.1 21 15.1 31.4-6.76 0.981-17.6 13.5-21.2 5.67-4.44-9.25-8.89-18.5-13.3-27.8 6.48-3.11 13-6.23 19.4-9.34zm-259 36.4c5.05 10.5 10.1 21 15.2 31.4-6.77 0.973-17.6 13.5-21.3 5.63-4.44-9.24-8.89-18.5-13.3-27.7 6.48-3.12 13-6.23 19.4-9.35zm293 35.2c5.04 10.5 10.1 21 15.1 31.4-6.77 0.988-17.6 13.5-21.3 5.67-4.44-9.24-8.89-18.5-13.3-27.7 6.49-3.13 13-6.26 19.5-9.39zm-259 36.4c5.04 10.5 10.1 21 15.1 31.4-6.76 0.964-17.6 13.5-21.2 5.62-4.46-9.24-8.91-18.5-13.4-27.7 6.49-3.11 13-6.23 19.5-9.34zm293 35.2 15.1 31.5c-6.76 0.967-17.6 13.5-21.2 5.63-4.44-9.24-8.89-18.5-13.3-27.7 6.48-3.13 13-6.26 19.4-9.39zm-259 36.4c5.04 10.5 10.1 21 15.1 31.4-6.77 0.987-17.6 13.5-21.3 5.67-4.44-9.25-8.89-18.5-13.3-27.7 6.49-3.12 13-6.23 19.5-9.35z" fill="#734a08"/><path d="m291 64.2c-25.8 17.3-60.5 5.37-86.3 22.7-19.9 12.5-34.7 35.3-59.7 37.9-15 2.22-30.8 0.425-45.1 6.14 16.1 33.5 32.2 67 48.4 101l181-87.2c-12.8-26.7-25.7-53.3-38.5-80z" fill="#734a08" opacity=".33"/><path d="m157 249c60.4-29.1 121-58.1 181-87.2 27.9 57.9 55.7 116 83.6 174-60.4 29.1-121 58.1-181 87.2-27.9-57.9-55.7-116-83.6-174z" fill="#734a08" opacity=".33"/><path d="m430 352c-60.4 29.1-121 58.1-181 87.2 13.5 28 26.9 56 40.4 83.9 21-5.08 45.4 0.507 63.6-13.9 18.7-13.6 34.6-34.1 59-37.1 22.2-4.03 47.6-1.03 66.1-16.4 0.618-8.86-7.81-17.7-10.7-26.5-12.4-25.7-24.7-51.4-37.1-77.1z" fill="#734a08" opacity=".33"/></svg>
