<?xml version="1.0" encoding="UTF-8"?>
<svg width="580" height="580" version="1.0" xmlns="http://www.w3.org/2000/svg"><path d="m542 134c6.71 35.1-52.2 51.7-64.8 18.1-16.7-29.5 28.3-65.9 52.7-41 6.84 5.63 11.6 14 12.1 22.9zm-303-65.5c-11.4 35.4 37.4 36.2 59.4 45.3 32.7 11.6 65.8 22.3 96.8 38.1-20.1 31.5-50.3 56.5-85.1 70-31.3-15.9-60.9 10.8-91.3 15.4-52.5 16.7-105 33.5-157 50.2-34.7-13.1-21.6 54 5.96 28.4 120-22.9 248-26.8 358-87.3 22.9-8.96 41-28.4 43.2-53.6 5.1-24.9-12.5-49.5-37.6-53.2-49.7-14.5-100-26.5-150-41.2-13.9-3.94-27.8-7.95-41.6-12.1zm280 446c-34-6.35-71.4-16.9-104-0.423-35.2 2.31-71.2-19.4-105-2.74-37.1 11.5-74.4-16.9-111-1.86-30.3 14.6-58.3-6.94-88-4.96-19.4 3.87-67.4 19.2-57.7-15.9 18.4-22.3 53.4-19.1 79.4-14.1 28.8 6.03 59.4 7.01 87.2-3.84 32.6-1.31 64.2 19.1 96.9 4.28 28.8-11.1 55.9 3.84 84.1 5.3 28.3-1.82 56.3-13.7 84.8-6.66 21.4-0.349 46.3 17.1 34.3 40.8z" color="#256f25" color-rendering="auto" fill="none" image-rendering="auto" opacity=".8" shape-rendering="auto" solid-color="#256f25" stroke="#fff" stroke-linejoin="round" stroke-width="50" style="isolation:auto;mix-blend-mode:normal;paint-order:stroke fill markers"/><path d="m542 134c2.81 21.5-18.7 41.2-39.8 36.5-21.4-3.11-34.5-29.2-24.3-48.2 8.8-19.8 37.4-25.3 53-10.3 6.32 5.62 10.4 13.7 11.1 22.1zm-303-65.5c-22.2 24.6 24.8 34.5 42.2 39.6 38.5 13.1 77.6 25.4 114 43.7-20.1 31.5-50.3 56.4-85.1 70-12.6-10.4-28.1-5.59-41.6-0.506-69.1 22-138 44.1-207 66.1-20.8-4.81-36.5 20.6-15.8 31.5 35.1-3.83 69.9-12.1 105-16.7 66.8-11.2 135-19.3 200-40 34.4-14.1 69.3-28.3 100-48.9 16.1-19.7 29-56.3 7.56-76.1-10.6-16.4-32-15.3-48.7-21.5-51.3-14.1-103-27.5-154-42-5.32-1.93-10.4-5.56-16.3-5.11zm280 446c-25-4e-3 -48.3-15.7-73.8-8.81-23.1 7.33-48.3 13.3-71.9 3.85-23.9-9.92-49.7-3.75-73.2 3.64-29.2 7.49-55.9-13.8-85-8.08-22.4 5.26-45.6 14.2-68.9 6.53-24.5-10.5-51.9-8.6-76.3 0.848-17.3 7.94-21-2.16-18.5-16.9-5.74-19.3 11.7-15.2 25.5-18.9 23.5-9.84 49.6-6.71 72.9 1.82 23.6 7 46.2-4.3 69.2-7.71 27.8-3.76 53.3 15.6 81.2 8.41 23.5-7.34 49.3-13.3 73.2-3.63 23.5 9.46 48.8 3.42 71.9-3.77 25.4-6.77 48.8 8.68 73.8 8.7 1e-5 11.3 1e-5 22.7 2e-5 34z" color="#000000" fill="#2f922e"/></svg>
