<?xml version="1.0" encoding="UTF-8"?>
<svg width="580" height="580" version="1.0" xmlns="http://www.w3.org/2000/svg"><path d="m495 35.4c-82.8 21.6-167 42.1-252 48.3-18.9-24.4-48.4 11-71.9-6.54-28.6-5.56-56.7-13.1-84.7-21.2-8.2 31.5 41.2 22.7 59.6 33 24.1 8.86 56.4 1.58 71.3 26.1 15.9 15.7 14.9 39.7 26 58.3 10.7 24.3 23.6 47.6 39.2 69.1-15.6 25.6-34.1 51.9-27.8 83.7-2.9 30.1 8.85 63.2-6 91.1-11.6 24-29.2 47.5-27.9 75.5 18.8 30 52.2-2.87 53.1-27.7 13-27.1 30.8-55.2 25.7-86.7-2.88-12.9-1.99-44.5 17.6-25.5 30.2 5.34 51.9 29.4 44.9 60.8-3.51 30.8 43.1 46.8 46.3 10.7-3.4-28.4-3.43-62.2-18.7-86.3-14.5-15.7-66.6-13.8-45.8-44.1 10.8-12 21.4-55 36.7-22.1 24 15.5 59.8 29.5 86.7 21.2 14-35.5-31.9-31.3-51.9-41.3-25.7-13.3-36.2-43-58.9-59.2-27-15.7-51.8 6.85-63.4 28.3-22.6-14.2-28.1-46.6-40.8-69.3-12.5-22-21.5-58.5 16.5-54.2 31.9-0.0396 63-8.48 94.4-13.5 45.9-9.06 91.3-20.5 137-32.3-1.49-5.37-2.98-10.7-4.47-16.1zm-132 82.6c-33.3-3.2-45.3 51.7-14.2 63.3 31.6 16.4 65.4-32.1 36.1-54.6-5.93-5.43-13.8-8.89-22-8.7zm-24.8 351c-9.04 24.3 15 26.9 32.1 24.4h84.1c9.04-24.3-15-26.9-32.1-24.4h-84.1zm-167 51.7c-9.04 24.3 15 26.9 32.1 24.4h84c9.04-24.3-15-26.9-32.1-24.4h-84z" color="#256f25" color-rendering="auto" fill="none" image-rendering="auto" opacity=".8" shape-rendering="auto" solid-color="#256f25" stroke="#fff" stroke-linecap="round" stroke-linejoin="round" stroke-width="50" style="isolation:auto;mix-blend-mode:normal;paint-order:normal"/><path d="m495 35.4c-82.8 21.6-167 42.2-252 48.3-6.97-13.8-28.8-14.3-36.3-0.811-40.8-5.1-80.8-15.6-120-26.9-10 16.3 2.47 20.5 18.3 22.6 32.6 9.19 67 16.2 99.6 21.7 2.27 7.84 9.45 13.9 17.6 14.9 13.9 45 32.8 89 60.7 127-8.93 16.7-20.4 32.3-27.3 49.9-1.39 35.8 0.69 71.8 0.734 108-11.9 26.8-25.8 52.8-36.3 80.1-5.88 25.2 36.3 36.1 42.4 10.7 12.2-26.9 25.8-53.3 37.1-80.6 1-21.7-0.138-43.5-0.00391-65.2 19.2 8.35 38.3 16.7 57.5 25 3.92 21.8 5.99 44.1 11.2 65.6 11.1 22.4 49.6 6.25 40.8-17.9-4.24-24.1-6.87-48.7-12.2-72.5-8.09-13.5-25.5-15.6-38.4-23-7.82-3.54-15.6-7.07-23.5-10.6 10.8-18.8 21.6-37.7 32.4-56.5 9.35 10.3 15.6 25.9 31 27.6 19 5.29 37.8 11.3 56.9 16.1 22.9-0.728 20.6-35.7-1.4-35.8-15.7-5.16-32.6-8.62-47.6-14.9-14.8-17.2-28.4-35.6-44-52.1-19.2-15.3-51.3-9.42-60.7 14.3-5.4 10.1-10.9 24-17.1 4.46-19.9-32.4-36.1-68.7-45.5-105 2.93-2.56 5.13-5.95 6.28-9.67 86.5-6.22 171-27.1 255-48.9-1.49-5.37-2.98-10.7-4.47-16.1zm-132 82.6c-9.17 3.4e-4 -17 3.28-23.3 9.83-6.39 6.55-9.58 14.2-9.58 23.1-1.7e-4 9.16 3.19 16.9 9.58 23.3 6.39 6.39 14.2 9.58 23.2 9.58 9.01 0 16.7-3.19 23.3-9.58 6.55-6.39 9.82-14.2 9.82-23.3-2.4e-4 -8.84-3.27-16.5-9.82-23.1-6.55-6.55-14.2-9.83-23.1-9.83zm-24.8 351v24.4h116v-24.4h-116zm-167 51.7v24.4h116v-24.4h-116z" fill="#2f922e"/></svg>
