<svg height="580" width="580" xmlns="http://www.w3.org/2000/svg"><path d="m223.39 361.77c4.85 26.45 7.42 53.46 13.83 79.5 11.82 23.76 52.94 12.62 51.52-13.73-4.6-31.01-9.64-62-15.02-92.89-5.64-17.32-26.2-19.27-40.19-27.16-12.51-5.54-25.01-11.07-37.52-16.61 13.38-22.83 26.77-45.67 40.15-68.5 9.94 10.37 16.32 25.51 29.96 31.11 26.33 7.2 52.5 15.28 78.92 21.9 25.21.61 27.85-40.55 2.23-42.22-20.62-5.98-41.22-11.95-61.84-17.93-18.68-21.32-35.88-44.07-55.58-64.39-23.45-18.12-62.61-11.98-74.82 16.6-18.46 31.66-37.77 62.84-55.67 94.81-4.949 20.01-1.118 41.05-1.827 61.53-.02 25.13 1.576 50.62.564 75.54-14.369 30.66-29.503 60.99-43.37 91.87-12.007 28.97 36.934 49.85 49.423 21.31 15.82-34.1 33.39-67.5 48.07-102.03 1.26-26.29-.18-52.73 0-79.09 23.73 10.13 47.46 20.26 71.18 30.38zm257.94-296.67c-8.32 36.94-16.63 73.87-24.96 110.81-14.2 5.76-28.39 11.52-42.59 17.27-12.37 33.96-24.73 67.92-37.1 101.87 11.76 26.02 23.53 52.03 35.29 78.05-3.24 10.12-6.49 20.26-9.73 30.38-27.38 7.94-54.75 15.89-82.13 23.83-1.62 11.92-3.24 23.83-4.86 35.75-43.59 10.52-87.19 21.05-130.79 31.57 2.13 6.27-2.48 19.66 3.89 21.44 106.92-.24 213.88.48 320.77-.35 18.09-3.03 16.31-22.91 16-36.74 0-134.78 0-269.57 0-404.353-14.59-3.176-29.19-6.351-43.79-9.527zm-250.03 70.89c30.44 1.7 52.89-36.9 33.91-61.697-15.55-25.299-57.02-23.46-70.05 3.305-14.79 25.912 6.6 59.632 36.14 58.392zm-142.354 109.02c20.764-35.84 43.114-70.87 62.854-107.23-.63-12.41-16.31-14.79-24.81-21.51-14.61-9.49-19.76 10.78-26.33 19.77-17.569 30.47-36.743 60.12-53.267 91.11.651 12.4 16.319 14.77 24.824 21.49 5.6 4.44 13.87 3.41 16.729-3.63z" style="opacity:.8;fill:none;stroke:#fff;stroke-linejoin:round;stroke-linecap:round;stroke-width:56.873"/><path d="m223.39 361.77c4.85 26.45 7.42 53.46 13.83 79.5 11.82 23.76 52.94 12.62 51.52-13.73-4.6-31.01-9.64-62-15.02-92.89-5.64-17.32-26.2-19.27-40.19-27.16-12.51-5.54-25.01-11.07-37.52-16.61 13.38-22.83 26.77-45.67 40.15-68.5 9.94 10.37 16.32 25.51 29.96 31.11 26.33 7.2 52.5 15.28 78.92 21.9 25.21.61 27.85-40.55 2.23-42.22-20.62-5.98-41.22-11.95-61.84-17.93-18.68-21.32-35.88-44.07-55.58-64.39-23.45-18.12-62.61-11.98-74.82 16.6-18.46 31.66-37.77 62.84-55.67 94.81-4.949 20.01-1.118 41.05-1.827 61.53-.02 25.13 1.576 50.62.564 75.54-14.369 30.66-29.503 60.99-43.37 91.87-12.007 28.97 36.934 49.85 49.423 21.31 15.82-34.1 33.39-67.5 48.07-102.03 1.26-26.29-.18-52.73 0-79.09 23.73 10.13 47.46 20.26 71.18 30.38zm257.94-296.67c-8.32 36.94-16.63 73.87-24.96 110.81-14.2 5.76-28.39 11.52-42.59 17.27-12.37 33.96-24.73 67.92-37.1 101.87 11.76 26.02 23.53 52.03 35.29 78.05-3.24 10.12-6.49 20.26-9.73 30.38-27.38 7.94-54.75 15.89-82.13 23.83-1.62 11.92-3.24 23.83-4.86 35.75-43.59 10.52-87.19 21.05-130.79 31.57 2.13 6.27-2.48 19.66 3.89 21.44 106.92-.24 213.88.48 320.77-.35 18.09-3.03 16.31-22.91 16-36.74 0-134.78 0-269.57 0-404.353-14.59-3.176-29.19-6.351-43.79-9.527zm-250.03 70.89c30.44 1.7 52.89-36.9 33.91-61.697-15.55-25.299-57.02-23.46-70.05 3.305-14.79 25.912 6.6 59.632 36.14 58.392zm-142.354 109.02c20.764-35.84 43.114-70.87 62.854-107.23-.63-12.41-16.31-14.79-24.81-21.51-14.61-9.49-19.76 10.78-26.33 19.77-17.569 30.47-36.743 60.12-53.267 91.11.651 12.4 16.319 14.77 24.824 21.49 5.6 4.44 13.87 3.41 16.729-3.63z" fill="#2f922e"/></svg>