<svg height="580" width="580" xmlns="http://www.w3.org/2000/svg"><g fill="none" stroke-linecap="round"><path d="m88.110915 538.16177c70.110955-179.19401 134.693275-348.96625 199.850355-497.207792m203.36842 497.207792c-57.46549-138.48723-97.15651-243.32089-154.0599-389.12427-15.26349-36.02674-30.52697-72.05457-45.79047-108.083522" opacity=".8" stroke="#fff" stroke-linejoin="round" stroke-width="80.603"/><path d="m538.05416 117.41952c-164.60627 0-329.21255 0-493.818825 0-16.339751 2.16012-10.486094 21.04616-11.576426 32.49813v298.10325c1.703741 16.65791 20.69161 10.91189 32.139127 11.93658h473.256124c16.34092-2.15945 10.48729-21.04678 11.57755-32.49928 0-99.36775 0-198.7355 0-298.10325.16997-6.24727-5.23206-12.07781-11.57755-11.93543z" opacity=".8" stroke="#fff" stroke-linejoin="round" stroke-opacity=".8" stroke-width="47"/><path d="m84.616645 542.47054c71.326105-182.29978 137.027765-355.01449 203.314135-505.825336m206.89318 505.825336c-58.46147-140.88747-98.84041-247.5381-156.73005-395.86852-15.52803-36.65115-31.05606-73.303414-46.5841-109.956816" stroke="#6c4dda" stroke-width="34.8695"/></g><path d="m538.05416 117.41952h-493.818825c-6.392867 0-11.576426 5.34431-11.576426 11.93543v318.66595c0 6.59227 5.183559 11.93658 11.576426 11.93658h493.818825c6.39398 0 11.57755-5.34431 11.57755-11.93658v-318.66595c0-6.59112-5.18357-11.93543-11.57755-11.93543z" fill="#fff"/><path d="m538.05416 117.41952c-164.60627 0-329.21255 0-493.818825 0-15.709723 1.72891-10.768102 19.60655-11.576426 30.5401v300.06128c1.296486 15.99458 19.242188 11.20493 30.181099 11.93658h475.214152c15.71085-1.72826 10.76931-19.60715 11.57755-30.54125 0-100.02043 0-200.04085 0-300.06128.16997-6.24727-5.23206-12.07781-11.57755-11.93543zm-85.33975 132.03283c-11.18967-35.71059-68.10675-40.80192-84.61529-6.71535-20.32937 35.03718-11.54821 85.9004 22.57954 109.12944v44.47463c-29.24394.40362-58.67096-.88085-87.77905.78394-11.89211-6.83822-9.70835-35.04965-1.59395-43.05644 12.3741.29797 48.88467 6.01977 23.6817-9.50301-41.4199-45.66711-24.03925-129.34701 32.6751-154.307 29.98253-14.02468 66.08231-13.54685 96.88757-2.5045 41.26462 16.49176 65.07067 62.38102 59.85602 105.71297-2.28754 24.00851-13.91016 48.0789-34.58485 61.41062h41.31955v41.46459c-31.53153 0-63.06305 0-94.59458 0 0-14.82487 0-29.64973 0-44.4746 32.16574-21.76599 41.31918-67.85255 26.16824-102.41529zm-257.72495 146.88872c-17.68502 0-35.37003 0-53.05505 0 0-14.59769 0-29.19539 0-43.79308-40.70504-4.76076-69.842342-44.31214-75.538167-82.92864-4.609108-28.40608-1.402659-57.23189-2.30771-85.82927h52.998647c1.40754 29.82934-3.50369 60.37641 4.01404 89.58589 2.03665 12.85462 25.57212 44.9558 20.70058 15.3842.36003-34.9891.0576-69.98013.13263-104.97009h53.05393v120.1358c28.39433-21.64409 25.64243-60.66123 24.88625-92.48982.72777-11.98385-6.16117-33.02189 12.41824-27.64598h40.59666c-1.10833 43.59572 7.15643 91.86676-19.52641 130.00135-13.07184 19.91398-33.80476 36.54758-58.21005 38.69843-.26849 14.61561-.13197 29.2342-.16359 43.85121z" fill="#6c4dda" stroke-width="1.14545"/></svg>