<svg height="580" width="580" xmlns="http://www.w3.org/2000/svg"><g stroke-linecap="round" stroke-linejoin="round"><path d="m292.73438 38.853516c-70.5014 37.594006-141.00252 75.197014-211.503911 112.791014 4.696726 4.70683 9.395068 9.4045 14.091797 14.11133 22.987704-9.29245 45.985904-18.5845 68.974614-27.87695 42.10892-5.89868 84.63181-10.14195 126.90234-15.4043 41.74531 4.2119 83.50046 9.92917 125.25586 14.7168 22.65539 7.23195 44.48423 17.66632 66.8164 26.14062 9.29245 7.15115 14.11867-7.09178 20.9668-11.6875-70.50139-37.594-141.00253-75.197008-211.5039-112.791014zm-34.75782 176.679684c-26.41829.03961-52.83734.19751-79.25195.05664v325.58789h46.06055v-132.36718h49.3457c42.96884-.50975 88.89861 3.78072 127.47852-17.55274 46.52565-29.19316 55.81993-95.34938 24.96484-137.67187-19.07272-27.74522-56.166-36.45392-89.35547-37.40039-26.40724-.61341-52.8239-.69195-79.24219-.65235zm63.31836 38.41992c15.0436-.03087 30.01877.68947 44.08399 5.89454 29.82413 12.8607 38.14596 49.47344 26.84961 76.2832-8.72632 22.72492-35.34008 32.14781-59.16993 33.51172-36.04671 1.50856-72.18254.40661-108.27343.74414v-116.37305h69.53906c8.89477.24798 17.94455-.04202 26.9707-.06055z" fill="#fff" opacity=".8" stroke="#fff" stroke-width="68.6833"/><g fill="#0073be" stroke="#0073be"><path d="m178.72397 541.17788c0-108.52719 0-217.06127 0-325.58777 52.82922.28174 105.68052-.63097 158.49501.59585 33.18947.94647 70.28184 9.65482 89.35456 37.40004 30.85509 42.32249 21.56175 108.47896-24.9639 137.67212-38.5799 21.33346-84.50906 17.04197-127.4779 17.55172-16.45115 0-32.89492 0-49.34606 0v132.36804c-15.3539 0-30.7078 0-46.06171 0zm46.06171-170.7917c36.09089-.33753 72.22594.76462 108.27265-.74394 23.82985-1.36391 50.44328-10.78729 59.1696-33.51221 11.29635-26.80976 2.97505-63.42176-26.84908-76.28246-22.50434-8.3281-47.33567-5.17321-71.05507-5.83449-23.18182 0-46.35628 0-69.5381 0z" stroke-width="18.203"/><path d="m81.230909 151.64513c70.501391-37.594 141.002781-75.198113 211.504171-112.792119 70.50138 37.594006 141.00277 75.198119 211.50416 112.792119-6.84813 4.59572-11.67616 18.83741-20.96861 11.68626-22.33217-8.4743-44.15932-18.9081-66.81471-26.14005-41.7554-4.78763-83.51081-10.50451-125.25612-14.71641-42.27053 5.26235-84.79357 9.50456-126.90249 15.40324-22.98871 9.29245-45.98751 18.58489-68.97521 27.87734-4.696729-4.70683-9.394465-9.40355-14.091191-14.11038z" fill-rule="evenodd" stroke-width="18.9111"/></g></g></svg>