<svg height="580" width="580" xmlns="http://www.w3.org/2000/svg"><path d="m292.73438 38.853516c-70.5014 37.594006-141.00252 75.197014-211.503911 112.791014 4.696726 4.70683 9.395068 9.4045 14.091797 14.11133 22.987704-9.29245 45.985904-18.5845 68.974614-27.87695 42.10892-5.89868 84.63181-10.14195 126.90234-15.4043 41.74531 4.2119 83.50046 9.92917 125.25586 14.7168 22.65539 7.23195 44.48423 17.66632 66.8164 26.14062 9.29245 7.15115 14.11867-7.09178 20.9668-11.6875-70.50139-37.594-141.00253-75.197008-211.5039-112.791014zm-34.75782 176.679684c-26.41829.03961-52.83734.19751-79.25195.05664v325.58789h46.06055v-132.36718h49.3457c42.96884-.50975 88.89861 3.78072 127.47852-17.55274 46.52565-29.19316 55.81993-95.34938 24.96484-137.67187-19.07272-27.74522-56.166-36.45392-89.35547-37.40039-26.40724-.61341-52.8239-.69195-79.24219-.65235zm63.31836 38.41992c15.0436-.03087 30.01877.68947 44.08399 5.89454 29.82413 12.8607 38.14596 49.47344 26.84961 76.2832-8.72632 22.72492-35.34008 32.14781-59.16993 33.51172-36.04671 1.50856-72.18254.40661-108.27343.74414v-116.37305h69.53906c8.89477.24798 17.94455-.04202 26.9707-.06055z" style="opacity:.8;fill:#fff;stroke:#fff;stroke-width:68.6833;stroke-linejoin:round;stroke-linecap:round"/><path d="m180.87533 541.20501c0-108.22798 0-216.46267 0-324.6873 51.75712.28109 103.53537-.62858 155.27136.59303 32.51553.94523 68.86388 9.63137 87.54886 37.29314 30.21867 42.20307 21.12277 108.18102-24.46239 137.29584-37.7927 21.27931-82.79307 16.99259-124.89769 17.50244-16.11333 0-32.22667 0-48.34 0v132.00285c-15.04239 0-30.07775 0-45.12014 0zm45.12014-170.32172c35.35492-.33542 70.75916.75806 106.07885-.73793 23.34214-1.35511 49.41797-10.7537 57.97136-33.42167 11.07571-26.73331 2.90279-63.24759-26.30835-76.07421-22.04574-8.31182-46.37426-5.15212-69.61072-5.81626-22.71507 0-45.42311 0-68.13114 0z" fill="#bbd9ec" stroke-linecap="round" stroke-linejoin="round" stroke-width="17.4728"/><path d="m180.86124 207.73563c-8.26593-.14691-10.29577 8.61638-9.22202 14.84186.1226 106.78699-.24448 213.6129.18319 320.37843 2.13764 9.29125 13.56916 6.76215 20.86137 7.0372 12.27347-.44276 24.79354.89894 36.90496-.69097 8.82816-4.01838 4.67124-14.63792 5.62945-21.95016 0-36.45391 0-72.91452 0-109.36843 35.58038-.42934 71.22417 1.05994 106.74113-1.20752 33.62874-2.62973 69.76573-13.80606 88.49298-42.47142 31.69824-43.76615 26.13925-111.77677-19.36841-145.12733-34.36853-23.66485-78.50933-21.20283-118.85959-21.43763-37.12337 0-74.27492 0-111.36306 0zm9.22976 17.55611c48.53022.27102 97.08159-.61182 145.59772.589 30.45821.86808 65.10857 8.69688 81.77851 35.453 25.15286 37.80231 17.71268 94.75064-21.19323 121.70533-34.84058 20.62859-77.17067 16.9993-116.47113 17.38168-18.83294.26834-37.77157-.52326-56.53405.38909-9.53977 3.13957-5.76332 14.1482-6.50311 21.37994v110.24053c-8.89157 0-17.79019 0-26.68176 0 0-102.37818 0-204.77649 0-307.13857zm35.91152 20.77282c-8.26451-.14759-10.29365 8.61437-9.22272 14.83984.12682 37.2388-.23955 74.50443.18319 111.72981 2.13482 9.29796 13.56986 6.76886 20.86912 7.04391 32.54372-.38909 65.16494.92577 97.65229-.99286 25.9772-1.71737 53.69466-13.79264 63.02306-38.65429 12.62575-30.20159 3.44531-70.55984-28.5418-86.19731-22.94054-10.65308-49.26297-7.00299-74.01423-7.73891-23.30691-.0201-46.71246.0402-69.94891-.0268zm9.21567 17.55678c36.6654.42934 73.41535-1.09349 110.01735 1.3484 24.47648 1.10019 41.5762 24.55305 40.18821 46.75143 1.45844 20.14558-11.44209 41.20351-32.94532 45.82566-27.28064 7.20491-55.86471 3.7165-83.80059 4.54835-11.15322 0-22.29939 0-33.45261 0 0-32.8112 0-65.73644 0-98.47384z" fill="#3d9ad4" stroke-width="15.598"/><path d="m81.230909 151.64513c70.501391-37.594 141.002781-75.198113 211.504171-112.792119 70.50138 37.594006 141.00277 75.198119 211.50416 112.792119-6.84813 4.59572-11.67616 18.83741-20.96861 11.68626-22.33217-8.4743-44.15932-18.9081-66.81471-26.14005-41.7554-4.78763-83.51081-10.50451-125.25612-14.71641-42.27053 5.26235-84.79357 9.50456-126.90249 15.40324-22.98871 9.29245-45.98751 18.58489-68.97521 27.87734-4.696729-4.70683-9.394465-9.40355-14.091191-14.11038z" style="fill-rule:evenodd;stroke-linejoin:round;stroke-linecap:round;stroke-width:18.9111;fill:#bbd9ec;stroke:#3d9ad4"/></svg>