<?xml version="1.0" encoding="UTF-8"?>
<svg width="580" height="580" version="1.1" xmlns="http://www.w3.org/2000/svg"><path d="m144 34.5v37.6c-38.4 0.727-85.9 16.2-96.4 57.8-6.82 37.1 33.1 67.4 66.9 68 26.7 0.639 35.8 28.3 29.5 50.1v47.4c-35.8 4.59-55.1-31.7-78.2-51.9-36-18.9-35 36.7-9.31 48.4 20 27.9 63.3 23.5 84.5 37.8-2.97 22.3 18.3 53.2 37.5 26 1.89-21.4 9.89-42.9 35.4-33.3 36.2-6.24 77.3-32.6 76-73.6-4.87-39.7-48.8-62.4-85.4-62.1-24-2.22-27.9-26.7-24.1-45.8v-39.4c39.6-11.6 50.2 53.6 88.3 43.8 24.9-19.4-11.1-50-30.1-59.6-24.2-10.9-68.4-6.13-60.1-45.8-6.63-13.5-23.5-3.62-34.6-5.54zm277 0c-31.6 18.3-63.2 36.5-94.8 54.8 31.6 18.3 63.2 36.5 94.8 54.8v-36.6c39.2-1.88 54.5 47.9 52.6 73.1h33c13.3-52.2-31.8-110-85.6-110v-36.4zm-277 66.7v70.9c-26.3 3.27-70.4-23.6-49.4-52.6 12.1-14.2 32-16.7 49.4-18.3zm36.5 113c28 1.83 77.7 15.9 64.8 53.2-8.11 25.7-73.6 46.5-64.5 3.98-0.465-19-0.16-38.1-0.246-57.1zm295 3.14c-64.1-1.95-132 37.8-150 101-18.9 2.66-53.7 34.2-24.7 42.6 34.4-0.743 21.3 44.1-5.05 45-15.5 19.6 6.44 37.6 24.4 33 19.6 27.1 22.9 65.7 57.9 80.7 44.1 29.4 103 31.9 152 17.1 16.4-12.7 10.2-62.8-14.5-35.7-52.1 22.3-123 0.227-145-54.5 9.52-21.7 38-6.52 56.5-10.7h75.9l6.35-36.5h-145c-12.3-25.3 17.4-47.2 40.3-36.5h111c13-22.4-2.58-46.8-27.8-36.5h-120c17.5-69.4 115-96.7 168-51.6 21.6-30.3-9.08-64.2-42.1-56.9-6.43-0.704-12.9-1.02-19.4-1.01zm-402 182c-13.3 52.2 31.8 110 85.6 110v36.4l94.8-54.8c-31.6-18.3-63.2-36.5-94.8-54.8v36.5c-39.2 1.88-54.5-47.9-52.6-73.1h-33z" fill="none" opacity=".8" stroke="#fff" stroke-linecap="round" stroke-linejoin="round" stroke-width="58.7"/><path d="m144 34.5v37.6c-38.1 1.56-86.7 15.6-96.4 57.8-7.22 33.6 24.6 58.7 53.8 66.1 14.3 9.13 49.1-0.102 42.6 24.6v74.8c-30.8-3.16-66.7-20.4-69.4-55.2-13.4 0.879-26.7 1.76-40.1 2.64 1.1 47.2 48.5 75.9 91 79.9 23.1-5.72 18.6 13 18.6 27.9-4.4 14.4 6.92 13.1 17.7 12.4 9.98-0.0398 23.4 3.39 18.8-11.3 2.72-8.44-6.62-28.3 7.11-26.3 40.8-1.99 90.9-18.7 101-63.2 7.56-34.6-23.6-61.3-53.8-70-15-11.6-54.7-0.267-54.8-22.2v-68.4c31.7-3.5 53.9 25.9 64 45.3 12-0.712 23.9-1.42 35.9-2.14-1.53-42.6-45.1-66.7-83.2-70.6-22.1 5.44-16.1-13.9-16.7-27.6 4.48-14.4-7.17-12.7-17.7-12.1h-18.8zm277 0c-31.6 18.3-63.2 36.5-94.8 54.8 31.6 18.3 63.2 36.5 94.8 54.8v-36.6c35 1.06 60.9 40.6 47.8 73.1h37.8c13-52.8-31.3-109-85.6-110v-36.4zm-277 66.7v70.9c-22.8-4.9-62.5-10.1-55.2-42.7 8.06-22.1 34.8-26.6 55.2-28.3zm36.5 113c25.5 5.59 65.4 8.37 68.6 41.4-3.23 32.5-41.8 40-68.6 41.3v-82.6zm295 3.14c-61.2-1.02-126 33.3-147 93.5-0.11 19.6-16 16.2-30 16-5.6 4.97-3.82 18.7-6.64 27-6.94 14.4 10.6 8.28 19.3 9.51 16.3-4.78 9.67 35.5 4.16 36.5-9.99 0.0523-22.9-3.35-20.7 11.1 1.02 7.73-9.57 25.3 0.471 25.4h29.6c8.34 56.3 57.9 100 114 107 32.8 5.06 67.7 4.11 98.4-9.78v-44.6c-40.4 33.1-103 25.6-142-6.8-11.8-7.79-40.7-50-12.6-45.5h121l6.35-36.5h-145c0.547-17-7.53-43.8 17.7-36.5h133c2.02-12.2 4.04-24.3 6.06-36.5h-154c8.47-39.9 48.9-67.4 87.9-72.4 28.2-4.17 58.4 2.3 80.5 20.8 2.99-13.5 5.99-26.9 8.98-40.4-21-13-46.1-17.6-70.4-17.5zm-402 182c-13 52.8 31.3 109 85.6 110v36.4l94.8-54.8c-31.6-18.3-63.2-36.5-94.8-54.8v36.5c-35-1.06-60.9-40.6-47.8-73.1h-37.8z"/></svg>
