<svg height="24" width="24" xmlns="http://www.w3.org/2000/svg"><g stroke-linecap="round" stroke-linejoin="round"><path d="m21.285 10.716c-1.742 0-3.483 0-5.225 0m5.317 10.157c0-3.984 0-7.967 0-11.951m-18.411 1.794h5.221m-5.313 10.157c0-3.984 0-7.967 0-11.951" opacity=".8" stroke="#fff" stroke-width="3"/><path d="m21.377 20.873c0-3.984 0-7.967 0-11.951" fill="none" stroke="#5f5f5f" stroke-width="1.456"/><path d="m15.473 6.225c.916 4.777 1.832 9.555 2.748 14.332m-9.443-14.332c-.916 4.777-1.832 9.555-2.748 14.332" opacity=".8" stroke="#fff" stroke-width="4"/><g fill="none"><path d="m21.285 10.716c-1.742 0-3.483 0-5.225 0" stroke="#5f5f5f" stroke-width="1.456"/><g stroke="#5f5f5f" stroke-width="1.456"><path d="m2.874 20.873c0-3.984 0-7.967 0-11.951"/><path d="m2.966 10.716h5.221"/></g><path d="m8.778 6.225c-.916 4.777-1.832 9.555-2.748 14.332" stroke="#2c2c2c" stroke-width="2.08"/><path d="m15.473 6.225c.916 4.777 1.832 9.555 2.748 14.332" stroke="#2c2c2c" stroke-width="2.08"/></g></g></svg>