<?xml version="1.0" encoding="UTF-8" standalone="no"?>
<svg
   xmlns:dc="http://purl.org/dc/elements/1.1/"
   xmlns:cc="http://creativecommons.org/ns#"
   xmlns:rdf="http://www.w3.org/1999/02/22-rdf-syntax-ns#"
   xmlns:svg="http://www.w3.org/2000/svg"
   xmlns="http://www.w3.org/2000/svg"
   xmlns:sodipodi="http://sodipodi.sourceforge.net/DTD/sodipodi-0.dtd"
   xmlns:inkscape="http://www.inkscape.org/namespaces/inkscape"
   height="580"
   width="580"
   version="1.1"
   id="svg6"
   sodipodi:docname="diving.svg"
   inkscape:version="1.0.1 (3bc2e813f5, 2020-09-07)">
  <metadata
     id="metadata12">
    <rdf:RDF>
      <cc:Work
         rdf:about="">
        <dc:format>image/svg+xml</dc:format>
        <dc:type
           rdf:resource="http://purl.org/dc/dcmitype/StillImage" />
      </cc:Work>
    </rdf:RDF>
  </metadata>
  <defs
     id="defs10" />
  <sodipodi:namedview
     pagecolor="#ffffff"
     bordercolor="#666666"
     borderopacity="1"
     objecttolerance="10"
     gridtolerance="10"
     guidetolerance="10"
     inkscape:pageopacity="0"
     inkscape:pageshadow="2"
     inkscape:window-width="1920"
     inkscape:window-height="1001"
     id="namedview8"
     showgrid="false"
     inkscape:zoom="1.3810345"
     inkscape:cx="290"
     inkscape:cy="290"
     inkscape:window-x="-9"
     inkscape:window-y="-9"
     inkscape:window-maximized="1"
     inkscape:current-layer="svg6" />
  <path
     d="m 104.65048,533.00338 c 27.63785,1.37639 54.11717,21.87509 82.09946,9.79231 23.92219,-10.81146 50.95468,-13.14396 75.06474,-1.38689 24.44406,11.53643 49.81703,0.18912 73.5931,-6.70332 31.19696,-8.51048 59.92029,20.69833 91.12768,9.25646 23.69257,-9.0043 50.0049,-16.23295 74.18802,-4.15017 13.93374,5.4425 36.78089,13.90045 30.40373,-8.8467 0,-10.04447 0,-20.08894 0,-30.13341 -27.66917,-1.35537 -54.2633,-20.86644 -82.25602,-9.33001 -24.00569,10.19157 -50.76681,12.5766 -74.91862,1.31335 -24.44406,-11.01109 -49.74397,-0.18912 -73.57222,6.38811 -32.45987,8.0692 -62.93666,-21.47583 -95.31303,-7.70146 -23.89088,10.21258 -50.66244,12.61863 -74.70988,1.31335 -24.50668,-10.96907 -49.923484,-0.34672 -73.801839,6.38811 -17.152587,-3.4252 -12.22307,11.77809 -12.752239,22.9783 1.765984,7.21815 -3.59146,21.89611 2.755435,24.32317 19.986302,-1.63906 37.899765,-13.11245 58.091683,-13.5012 z m 76.80777,-209.07416 c 31.44745,1.90172 53.11519,-38.42325 34.44294,-63.90216 -16.36561,-27.28608 -61.57981,-22.9678 -72.61199,6.90294 -11.43923,26.2354 9.51878,58.0604 38.16905,56.99922 z m -14.12161,155.26901 c 20.18565,0.11557 24.79892,-22.88374 34.35945,-36.42696 17.41978,-30.55368 34.86043,-61.08635 52.29065,-91.62952 49.70222,-31.31017 100.08285,-61.6222 149.35714,-93.58378 16.136,-17.68289 25.56084,-40.50359 38.48216,-60.64506 24.29794,-41.86947 49.11773,-83.46576 73.10255,-125.509645 12.03415,-25.530395 -22.21049,-52.791253 -43.81561,-34.289887 -15.00877,17.72912 -24.47536,39.691416 -36.9792,59.312804 -18.05645,30.868878 -36.1129,61.748268 -54.16936,92.617158 -42.23957,25.9307 -85.00101,51.04187 -126.90659,77.49791 -15.83332,16.19093 -24.25619,38.11856 -36.45734,57.10429 -23.59864,40.97639 -47.49995,81.79518 -70.88985,122.87664 -6.55459,14.81454 5.657,32.83365 21.626,32.67605 z"
     style="opacity:0.8;fill:none;stroke:#ffffff;stroke-width:59.2294;stroke-linecap:round;stroke-linejoin:round"
     id="path2" />
  <path
     d="m 104.65048,533.00338 c 27.63785,1.37639 54.11717,21.87509 82.09946,9.79231 23.92219,-10.81146 50.95468,-13.14396 75.06474,-1.38689 24.44406,11.53643 49.81703,0.18912 73.5931,-6.70332 31.19696,-8.51048 59.92029,20.69833 91.12768,9.25646 23.69257,-9.0043 50.0049,-16.23295 74.18802,-4.15017 13.93374,5.4425 36.78089,13.90045 30.40373,-8.8467 0,-10.04447 0,-20.08894 0,-30.13341 -27.66917,-1.35537 -54.2633,-20.86644 -82.25602,-9.33001 -24.00569,10.19157 -50.76681,12.5766 -74.91862,1.31335 -24.44406,-11.01109 -49.74397,-0.18912 -73.57222,6.38811 -32.45987,8.0692 -62.93666,-21.47583 -95.31303,-7.70146 -23.89088,10.21258 -50.66244,12.61863 -74.70988,1.31335 -24.50668,-10.96907 -49.923484,-0.34672 -73.801839,6.38811 -17.152587,-3.4252 -12.22307,11.77809 -12.752239,22.9783 1.765984,7.21815 -3.59146,21.89611 2.755435,24.32317 19.986302,-1.63906 37.899765,-13.11245 58.091683,-13.5012 z m 76.80777,-209.07416 c 31.44745,1.90172 53.11519,-38.42325 34.44294,-63.90216 -16.36561,-27.28608 -61.57981,-22.9678 -72.61199,6.90294 -11.43923,26.2354 9.51878,58.0604 38.16905,56.99922 z m -14.12161,155.26901 c 20.18565,0.11557 24.79892,-22.88374 34.35945,-36.42696 17.41978,-30.55368 34.86043,-61.08635 52.29065,-91.62952 49.70222,-31.31017 100.08285,-61.6222 149.35714,-93.58378 16.136,-17.68289 25.56084,-40.50359 38.48216,-60.64506 24.29794,-41.86947 49.11773,-83.46576 73.10255,-125.509645 12.03415,-25.530395 -22.21049,-52.791253 -43.81561,-34.289887 -15.00877,17.72912 -24.47536,39.691416 -36.9792,59.312804 -18.05645,30.868878 -36.1129,61.748268 -54.16936,92.617158 -42.23957,25.9307 -85.00101,51.04187 -126.90659,77.49791 -15.83332,16.19093 -24.25619,38.11856 -36.45734,57.10429 -23.59864,40.97639 -47.49995,81.79518 -70.88985,122.87664 -6.55459,14.81454 5.657,32.83365 21.626,32.67605 z"
     fill="#2f922e"
     id="path4"
     style="stroke-width:1.0472" />
</svg>
