<svg height="580" width="580" xmlns="http://www.w3.org/2000/svg"><path d="m291.31547 73.202434c-43.36234 0-87.12592 18.854823-116.7452 56.037706-25.6832 32.24185-32.68866 56.03768-36.19101 93.39616-108.196101.88913-108.573039 40.41102-108.573039 298.86772h523.018499c0-258.4567-.37732-297.98045-108.57303-298.86772-3.50049-37.35848-11.14066-61.78754-36.19102-93.39616-29.52588-37.256856-73.38286-56.037706-116.7452-56.037706zm0 74.716926c47.87188-.18678 74.71692 37.35846 77.05183 74.71694h-154.10366c2.3349-37.35848 29.18032-74.53425 77.05183-74.71694z" style="opacity:.8;fill:#fff;stroke:#fff;stroke-width:50.575;stroke-linecap:round;stroke-linejoin:round"/><path d="m291.31547 73.202434c-43.36234 0-87.12592 18.854823-116.7452 56.037706-25.6832 32.24185-32.68866 56.03768-36.19101 93.39616-108.196101.88913-108.573039 40.41102-108.573039 298.86772h523.018499c0-258.4567-.37732-297.98045-108.57303-298.86772-3.50049-37.35848-11.14066-61.78754-36.19102-93.39616-29.52588-37.256856-73.38286-56.037706-116.7452-56.037706zm0 74.716926c47.87188-.18678 74.71692 37.35846 77.05183 74.71694h-154.10366c2.3349-37.35848 29.18032-74.53425 77.05183-74.71694zm-37.35847 112.0754h74.71694v74.71693h74.71692v74.71694h-74.71692v74.71692h-74.71694v-74.71692h-74.71692v-74.71694h74.71692z" fill="#da0600" stroke-width="37.3585"/></svg>