<?xml version="1.0" encoding="UTF-8"?>
<svg width="580" height="580" enable-background="new 0 0 100 84.211" fill="#000000" version="1.1" viewBox="0 0 580 488" xml:space="preserve" xmlns="http://www.w3.org/2000/svg"><g shape-rendering="auto"><path d="m496 81.8c-30.5 1e-6 -55.3 24.8-55.3 55.3s24.8 55.3 55.3 55.3 55.3-24.8 55.3-55.3-24.8-55.3-55.3-55.3zm0 0.0319c30.5 1e-6 55.3 24.7 55.3 55.3 0 30.5-24.7 55.3-55.3 55.3-30.5 0-55.3-24.7-55.3-55.3 0-30.5 24.7-55.3 55.3-55.3z" color="#000000" color-rendering="auto" dominant-baseline="auto" enable-background="accumulate" image-rendering="auto" solid-color="#000000" stop-color="#000000" style="font-feature-settings:normal;font-variant-alternates:normal;font-variant-caps:normal;font-variant-east-asian:normal;font-variant-ligatures:normal;font-variant-numeric:normal;font-variant-position:normal;font-variation-settings:normal;inline-size:0;isolation:auto;mix-blend-mode:normal;shape-margin:0;shape-padding:0;text-decoration-color:#000000;text-decoration-line:none;text-decoration-style:solid;text-indent:0;text-orientation:mixed;text-transform:none;white-space:normal"/><path d="m553 134c3.68 53.4-79.5 77.3-103 28-26.3-42.9 22.2-102 68.8-78.9 20 8.32 36 28.5 34.5 50.9zm-276-111c-47.4-4.69-66.7 52.6-51.1 89.9 15.1 35.7 28.9 86.2-21.4 99.2-31.2 20.7-69.7 51.7-103 15.2-18.7-10.8-62.3-52-70.7-15.8 27.2 31.2 71.2 42.6 105 67.2 106 61.4 211 126 319 185 27.2 16.6 94.6-29.2 56.5-45.7-26.5 18.9-54.6 30.2-80.7 1.33-77.1-44.2-153-90-230-135 11.7-25.9 64.2-38.7 90.6-61 38.1-9.22-19.9-84.6 22.8-63.9 25.9 21.4 66.4 27.6 82 58.9 7.19 34.3 12.7 78.5 54.3 87.5 24.9 9.72 77.5 44.4 76.1-6.47-23.1-23.2-76.7-24.7-77-69.2-12.6-46.3-16.4-104-41.7-142-42.6-22.4-82.1-54.7-130-64.8z" color="#000000" color-rendering="auto" dominant-baseline="auto" enable-background="accumulate" fill="none" image-rendering="auto" opacity=".8" solid-color="#000000" stop-color="#000000" stroke="#fff" stroke-linejoin="round" stroke-width="48" style="font-feature-settings:normal;font-variant-alternates:normal;font-variant-caps:normal;font-variant-east-asian:normal;font-variant-ligatures:normal;font-variant-numeric:normal;font-variant-position:normal;font-variation-settings:normal;inline-size:0;isolation:auto;mix-blend-mode:normal;shape-margin:0;shape-padding:0;text-decoration-color:#000000;text-decoration-line:none;text-decoration-style:solid;text-indent:0;text-orientation:mixed;text-transform:none;white-space:normal"/><path d="m553 134c1.63 38.1-42.5 67-76.8 50.9-35.4-13.3-45.5-64.4-17.6-90 25.6-27.9 76.7-17.8 90 17.6 2.88 6.79 4.35 14.2 4.34 21.5zm-276-111c-27.8-2.26-54.6 19.4-55 47.8-1.89 28.5 9.59 55.5 15 83.1 2.68 11.1 5.35 22.1 8.03 33.2-34.3 21-68.5 42-103 63.1-32-18.4-63.5-37.6-95.8-55.5-24.1-4.89-21.1 27.3-1.84 30.8 132 77.3 264 155 396 232 24.5 14.1 57.5 8.7 75.5-13.4 26.3-17-9.56-45.2-21.5-16.2-13.4 15.6-35 11.3-49.6 0.128-83.9-49.2-168-98.3-252-148 34.1-20.3 69.1-39.3 103-60.5 16.4-15.8 4.06-37.6 0.801-56.1-0.986-6.79-8.51-22.4 3.07-12.3 30.6 18 61.1 36 91.7 54 7.17 25.5 12.6 51.6 20.9 76.8 9.69 15.5 29.6 17.9 44.7 26.2 19 6.83 36.9 20.6 57.8 18.3 25.7-7.83 8.77-39.9-11.3-42.8-14.8-6.39-29.5-12.8-44.3-19.2-14.7-57.6-29.4-115-44.1-173-38.2-21.1-75.1-44.6-114-63.4-7.59-3.04-15.6-5.57-23.8-5.69z" color="#000000" color-rendering="auto" dominant-baseline="auto" enable-background="accumulate" fill="#2f922e" image-rendering="auto" solid-color="#000000" stop-color="#000000" style="font-feature-settings:normal;font-variant-alternates:normal;font-variant-caps:normal;font-variant-east-asian:normal;font-variant-ligatures:normal;font-variant-numeric:normal;font-variant-position:normal;font-variation-settings:normal;inline-size:0;isolation:auto;mix-blend-mode:normal;shape-margin:0;shape-padding:0;text-decoration-color:#000000;text-decoration-line:none;text-decoration-style:solid;text-indent:0;text-orientation:mixed;text-transform:none;white-space:normal"/></g></svg>
