<svg height="580" width="580" xmlns="http://www.w3.org/2000/svg"><g stroke-linejoin="round"><path d="m401.2 264.67c-18.79-7.36-43.32-4.7-64.34-6.57-52.66-.83-105.63-1.98-158.02 4.08-10.19 1.12-1.61 14.16-2.67 21.15 11.12 84.01 21.87 168.43 33.23 252.17 16.5 6.04 39.43 3.74 58.48 5.04 32.21-.1 64.7 1.03 96.65-3.58 3-5.44 2.24-15.39 3.9-22.62 10.92-83.22 21.85-166.45 32.77-249.67zm-58.35 251.03c-37.1 1.6-74.49 1.31-111.56-.79-11.25-77.95-22.49-155.9-33.74-233.85 59.11.65 118.3 2.49 177.34-1.57-10.68 78.73-21.36 157.47-32.04 236.21z" fill="#da0600" opacity=".8" stroke="#fff" stroke-linecap="round" stroke-width="40"/><path d="m444.23 137.39c.5 16.41-6.49 51.96-29.52 43.53-19.05-16.63-18.54-46.73-12.08-69.26 2.4-22.552 32.34-26.231 36.66-2.6 3.51 8.99 4.9 18.71 4.94 28.33zm-27.85-85.709c13.68 7.027 52.3 20.988 41.31-7.671-12.72-8.311-28.22 5.153-41.31 7.671zm10.49 0c-13.68 7.029-52.3 20.989-41.31-7.671 12.72-8.311 28.22 5.153 41.31 7.671z" fill="#da0600" opacity=".8" stroke="#fff" stroke-linecap="round" stroke-width="55"/><path d="m426.87 51.681c-13.68 7.029-52.3 20.989-41.31-7.671 12.72-8.311 28.22 5.153 41.31 7.671z" fill="#734a08" opacity=".985" stroke="#734a08" stroke-linecap="round" stroke-width="15"/><path d="m542.96 142.82c-67.11-.18-134.23-1.16-201.33-.84-27.19.33-51.51 21.54-54.7 48.68-.85 4.97-1.32 10.03-1.11 15.07" fill="none" opacity=".8" stroke="#fff" stroke-width="90"/><path d="m416.38 51.681c13.68 7.027 52.3 20.988 41.31-7.671-12.72-8.311-28.22 5.153-41.31 7.671z" fill="#734a08" opacity=".985" stroke="#734a08" stroke-linecap="round" stroke-width="15"/></g><path d="m421.44 51.138c.17 30.653-.53 61.322.82 91.952" fill="none" stroke="#734a08" stroke-linecap="round" stroke-width="30"/><path d="m444.23 137.39c.5 16.41-6.49 51.96-29.52 43.53-19.05-16.63-18.54-46.73-12.08-69.26 2.4-22.552 32.34-26.231 36.66-2.6 3.51 8.99 4.9 18.71 4.94 28.33z" style="opacity:.985;fill:#734a08;stroke:#734a08;stroke-linejoin:round;stroke-linecap:round;stroke-width:30"/><path d="m542.96 142.82c-67.11-.18-134.23-1.16-201.33-.84-27.19.33-51.51 21.54-54.7 48.68-.85 4.97-1.32 10.03-1.11 15.07" fill="none" stroke="#734a08" stroke-width="50"/><path d="m188.19 276.64c64.96.53 129.93 1.06 194.89 1.58-10.52 83.18-21.04 166.37-31.56 249.55-44.45.53-88.9 1.05-133.35 1.58-9.99-84.24-19.98-168.47-29.98-252.71z" fill="#d0c2ac" fill-rule="evenodd"/><path d="m401.2 264.67c-18.79-7.36-43.32-4.7-64.34-6.57-52.66-.83-105.63-1.98-158.02 4.08-10.19 1.12-1.61 14.16-2.67 21.15 11.12 84.01 21.87 168.43 33.23 252.17 16.5 6.04 39.43 3.74 58.48 5.04 32.21-.1 64.7 1.03 96.65-3.58 3-5.44 2.24-15.39 3.9-22.62 10.92-83.22 21.85-166.45 32.77-249.67zm-58.35 251.03c-37.1 1.6-74.49 1.31-111.56-.79-11.25-77.95-22.49-155.9-33.74-233.85 59.11.65 118.3 2.49 177.34-1.57-10.68 78.73-21.36 157.47-32.04 236.21z" fill="#734a08"/></svg>