<svg height="580" width="580" xmlns="http://www.w3.org/2000/svg"><path d="m114.55 36.374c-10.09 3.252-3.88 16.984-5.5 25.159.58 82.097 1.15 164.187 1.73 246.287 5.33 22.54 31.41 30.55 50.55 38.51 37.31 15.49 75.46-4.74 111.25-14.73 21-7.95 44.2-7.4 64.58 2.12 29.9 12.55 62.65 24.61 95.28 15.18 17.95-5.89 41.69-8.42 54.07-22.77 0-92.68 0-185.37 0-278.052-12.76-12.36-35.61 12.073-53.4 11.413-29.02 9.245-59.01.197-85.78-11.553-23.18-10.745-49.77-15.12-74.25-5.88-35.33 9.204-72.23 30.437-109.22 16.324-17.41-5.049-33.19-14.178-49.31-22.008zm-15.32-2.172c-9.74 3.558-3.733 16.955-5.399 25.099v480.929c3.378 8.67 17.689 5.84 24.989 3.77 3.59-11.41.71-24.5 1.64-36.59 0-155.94 0-311.88 0-467.809-1.77-9.205-14.67-4.036-21.23-5.399z" style="opacity:.8;fill:none;stroke:#fff;stroke-linejoin:round;stroke-linecap:round;stroke-width:50.19"/><path d="m114.55 36.374c-10.09 3.252-3.88 16.984-5.5 25.159.58 82.097 1.15 164.187 1.73 246.287 5.33 22.54 31.41 30.55 50.55 38.51 37.31 15.49 75.46-4.74 111.25-14.73 21-7.95 44.2-7.4 64.58 2.12 29.9 12.55 62.65 24.61 95.28 15.18 17.95-5.89 41.69-8.42 54.07-22.77 0-92.68 0-185.37 0-278.052-12.76-12.36-35.61 12.073-53.4 11.413-29.02 9.245-59.01.197-85.78-11.553-23.18-10.745-49.77-15.12-74.25-5.88-35.33 9.204-72.23 30.437-109.22 16.324-17.41-5.049-33.19-14.178-49.31-22.008z" stroke-width="11.195"/><path d="m99.23 34.202c-9.74 3.558-3.733 16.955-5.399 25.099v480.929c3.378 8.67 17.689 5.84 24.989 3.77 3.59-11.41.71-24.5 1.64-36.59 0-155.94 0-311.88 0-467.809-1.77-9.205-14.67-4.036-21.23-5.399z" fill-rule="evenodd" stroke="#000" stroke-width="10.806"/><path d="m140.21 85.181c-5.64 26.099 8.4 54.109 33.5 63.949 13.11 7.46 29.66 6.83 39.57 19.27 6.62 5.75 13.24 11.5 19.87 17.26-23.01-13.09-50.52-8.6-74.21 0 11.82 25.35 40.5 46.1 69.05 35.4 16.19-.12 21.94-28.89 33.91-9.09 8.75 9.91 35 21.7 36.89 25.29-25.76.63-54.7 2.11-73.37 22.55-10.39 12.95-48.23 28.23-14.78 35.53 21.87 12.86 48.36 24.89 73.55 13.69 25.75-9.05 47.36-35.39 43.1-63.71 26.95 4.57 56.85 6.31 77.33 27.03 16.62 11.64 27.24 37.19 40.57 46.69 5.7-12.17-19.01-30.74-26.57-43.07-18.86-22.35-47.34-33.06-75.89-35.13-21.13 1.06 10.22-18.57 4.46-32.42 3.38-41.66-25.56-83.42-65.96-94.46-11.66 43.38 2.08 92.18 36.28 121.71-24.84-7.3-45.96-23.33-64.36-41.06 19.18-21.4 21.42-55.69 2.18-77.81-8.88-9.12-28.24-34.084-37.12-26.906-10.48 28.536-6.11 62.256 14.78 85.016 7.66 8.88-9.24-7.32-13.34-10.45-13.93-7.03-11.61-22.95-18.56-35.07-12.13-23.33-38.5-33.471-60.88-44.209z" fill="#bebbb7" stroke="#bebbb7" stroke-linecap="round" stroke-linejoin="round" stroke-width="2.415"/></svg>