<svg enable-background="new 0 0 580 580" height="580" viewBox="0 0 580 580" width="580" xmlns="http://www.w3.org/2000/svg"><path d="m477.07 219.83c-41.03-24.84-82.05-49.68-123.08-74.52-36.95 25.29-74.77 49.67-111.17 75.52-27.96 38.41-55.92 76.81-83.88 115.21h41.56v171.84h309.43c0-57.28 0-114.56 0-171.84h40.3c-24.39-38.74-48.77-77.47-73.16-116.21zm-161.61 24.68h78.26v80.93c-26.09 0-52.17 0-78.26 0 0-26.98 0-53.95 0-80.93zm129.78 247.96c-60.43 0-120.87 0-181.3 0 0-40.29 0-80.59 0-120.88h181.3zm-299.11-149.81c-5.25-14.76 10.13-24.88 16.63-36.49 5.29-8.91 15.88-16.09 13.14-27.6-.23-47.14.48-94.31-.38-141.42-2.63-43.354-48.59-78.102-90.913-65.443-36.004 8.893-58.517 46.783-54.786 82.713v356.32h146.079c0-53.3 0-106.59 0-159.89-10.2-.89-24.2 3.57-29.77-8.19z" style="opacity:.8;fill:none;stroke:#fff;stroke-linejoin:round;stroke-linecap:round;stroke-width:40"/><path d="m247.31 229.64h217.14v267.19c-72.38 0-144.76 0-217.14 0 0-89.06 0-178.13 0-267.19z" style="opacity:.765;stroke-opacity:.737;fill:#bebbb7;stroke-linejoin:round;stroke-linecap:round;stroke-width:11.8"/><g fill="#767572"><path d="m146.13 342.66c-5.25-14.76 10.13-24.88 16.63-36.49 5.29-8.91 15.88-16.09 13.14-27.6-.23-47.14.48-94.31-.38-141.42-2.63-43.354-48.59-78.102-90.913-65.443-36.004 8.893-58.517 46.783-54.786 82.713v356.32h146.079c0-53.3 0-106.59 0-159.89-10.2-.89-24.2 3.57-29.77-8.19z"/><path d="m477.07 219.83c-41.03-24.84-82.05-49.68-123.08-74.52-36.95 25.29-74.77 49.67-111.17 75.52-27.96 38.41-55.92 76.81-83.88 115.21h41.56v171.84h309.43c0-57.28 0-114.56 0-171.84h40.3c-24.39-38.74-48.77-77.47-73.16-116.21zm-161.61 24.68h78.26v80.93c-26.09 0-52.17 0-78.26 0 0-26.98 0-53.95 0-80.93zm129.78 247.96c-60.43 0-120.87 0-181.3 0 0-40.29 0-80.59 0-120.88h181.3z"/></g></svg>