<?xml version="1.0" encoding="UTF-8" standalone="no"?>
<svg
   xmlns:dc="http://purl.org/dc/elements/1.1/"
   xmlns:cc="http://creativecommons.org/ns#"
   xmlns:rdf="http://www.w3.org/1999/02/22-rdf-syntax-ns#"
   xmlns:svg="http://www.w3.org/2000/svg"
   xmlns="http://www.w3.org/2000/svg"
   xmlns:sodipodi="http://sodipodi.sourceforge.net/DTD/sodipodi-0.dtd"
   xmlns:inkscape="http://www.inkscape.org/namespaces/inkscape"
   height="580"
   width="580"
   version="1.1"
   id="svg14"
   sodipodi:docname="fast_food.svg"
   inkscape:version="1.0.1 (3bc2e813f5, 2020-09-07)">
  <metadata
     id="metadata20">
    <rdf:RDF>
      <cc:Work
         rdf:about="">
        <dc:format>image/svg+xml</dc:format>
        <dc:type
           rdf:resource="http://purl.org/dc/dcmitype/StillImage" />
      </cc:Work>
    </rdf:RDF>
  </metadata>
  <defs
     id="defs18" />
  <sodipodi:namedview
     pagecolor="#ffffff"
     bordercolor="#666666"
     borderopacity="1"
     objecttolerance="10"
     gridtolerance="10"
     guidetolerance="10"
     inkscape:pageopacity="0"
     inkscape:pageshadow="2"
     inkscape:window-width="1920"
     inkscape:window-height="1001"
     id="namedview16"
     showgrid="false"
     inkscape:zoom="1.4310345"
     inkscape:cx="290"
     inkscape:cy="290"
     inkscape:window-x="-9"
     inkscape:window-y="-9"
     inkscape:window-maximized="1"
     inkscape:current-layer="svg14"
     inkscape:document-rotation="0" />
  <path
     id="path2"
     style="opacity:0.8;fill:none;stroke:#ffffff;stroke-width:40;stroke-linecap:round;stroke-linejoin:round"
     d="m 287.09,393.05 c -78.70774,0.26007 -157.4188,-0.53009 -236.124,0.4 -34.546124,8.73719 -8.626065,56.55579 20.558704,42.34116 73.291606,-0.15451 146.586046,0.4877 219.875296,-0.35116 25.39308,-3.26613 20.89281,-43.87162 -4.31,-42.39 z M 45.059,459.47 c -4.832565,33.60817 34.934174,48.28546 62.34241,47.14563 46.35049,1.32319 92.84461,1.33285 139.15213,-0.51088 22.14421,1.7875 68.96924,-25.92842 43.82365,-47.22787 -77.25045,1.3371 -154.92853,0.2322 -232.348523,0.59312 -4.323223,0 -8.646445,0 -12.969667,0 z M 297.95,370.05 c 5.35961,-33.31448 -33.93244,-48.59402 -61.20665,-47.69819 -44.84538,-1.68752 -89.80923,-0.93124 -134.64679,0.004 C 78.487256,321.67608 31.176686,342.63355 50.633687,370.33172 132.68,369.71122 215.59114,370.21069 297.95,370.05 Z M 524.65,58.414 c -11.28016,39.809566 -22.5701,79.61636 -33.85,119.426 -57.47333,0 -114.94667,0 -172.42,0 13.84,109.84 27.68,219.68 41.52,329.52 47.04,0 94.08,0 141.12,0 14.04995,-109.83958 28.09005,-219.68042 42.14,-329.52 -10.63667,0 -21.27333,0 -31.91,0 11.07037,-37.89125 22.13152,-75.7852 33.2,-113.677 -6.60009,-1.916026 -13.19991,-3.832974 -19.8,-5.749 z" />
  <path
     id="path4"
     style="fill:#734a08"
     d="m 524.65,58.414 c -11.28016,39.809566 -22.5701,79.61636 -33.85,119.426 -57.47333,0 -114.94667,0 -172.42,0 13.84,109.84 27.68,219.68 41.52,329.52 47.04,0 94.08,0 141.12,0 14.04995,-109.83958 28.09005,-219.68042 42.14,-329.52 -10.63667,0 -21.27333,0 -31.91,0 11.07037,-37.89125 22.13152,-75.7852 33.2,-113.677 -6.60009,-1.916026 -13.19991,-3.832974 -19.8,-5.749 z" />
  <path
     id="path6"
     style="fill:#734a08"
     d="m 297.95,370.05 c 3.32987,-14.70103 -5.53414,-29.42838 -18.12223,-36.61809 -19.02982,-12.18405 -42.45808,-10.95912 -64.0947,-11.90357 -32.34123,-0.35355 -64.68482,0.35599 -97.02665,0.0284 -23.224891,0.22871 -49.029194,3.25996 -66.13042,20.71326 -5.914967,6.69251 -11.426405,18.32238 -4.738474,26.23688 5.905641,5.47773 13.656071,0.68895 20.59406,1.54312 76.506134,0 153.012274,0 229.518414,0 z" />
  <path
     id="path8"
     style="fill:#734a08"
     d="m 45.059,459.47 c -3.210186,15.22163 6.523123,30.09245 19.685447,37.04913 19.478607,11.6066 42.935663,9.86134 64.694153,10.84903 32.64613,0.30502 65.29532,-0.27499 97.94101,-0.12018 21.91407,-0.40962 46.57895,-2.82563 62.55131,-19.64634 5.73421,-6.17003 11.74092,-15.81553 7.31408,-24.24414 -4.80373,-7.10101 -13.91893,-4.38562 -20.9247,-3.8875 -77.0871,0 -154.1742,0 -231.2613,0 z" />
  <path
     id="path12"
     style="stroke:#ffffff;stroke-opacity:1;fill:#734a08;fill-opacity:1;opacity:0.33"
     d="m 287.09,393.05 c -78.70774,0.26007 -157.4188,-0.53009 -236.124,0.4 -11.964997,1.26231 -19.597849,14.36848 -16.104875,25.62875 2.120046,11.50661 14.334091,20.29391 25.850875,16.74125 76.89576,-0.25007 153.79456,0.5001 230.688,-0.38 14.00718,-1.42754 21.12058,-18.42024 15.00098,-30.34512 C 303.21243,397.54482 295.27064,392.61093 287.09,393.05 Z" />
</svg>
