<svg enable-background="new 0 0 580 580" height="580" viewBox="0 0 580 580" width="580" xmlns="http://www.w3.org/2000/svg"><path d="m401.05 141.47v135.39c-119.37.14-238.75-.1-358.12-.12-3.966-.14-7.963-.54-11.856-1.09 1.355 29.89 10.624 59.6 27.69 84.28 27.499-15.6 59.536-6.98 86.566 4.46 33.46 8.3 63.43-22.04 96.56-11.03 29.34 13.18 62.34 16.28 91.78 1.39 32.98-14.25 63.21 15.24 96.47 10.43 27.76-8.35 57.93-22.04 86.63-7.54 14.63-.9 19.83-29.22 25.86-43.32 2.45-14.99 16.76-46.99-10.38-37.81-4.04.02-8.08.03-12.12.04v-135.08zm25.98 39.78h70.33v76.85h-70.33zm12.65 14.94v51.5h48.27v-51.5zm48.94 180.18c-31.32-.67-60.64 24.75-92.26 10.23-28.04-13.92-58.74-11.7-86.5 1.2-32.15 13-59.9-15.25-91.81-10.72-28.69 5.39-57.12 22.77-86.65 8.08-28.11-15.41-58.67-6.39-86.58 3.97-18.282-4.25-14.95 9.61-14.82 21.65 1.391 8.7-3.455 19.98 3.916 26.33 24.502 3.19 46.606-20.14 72.354-11.93 29.57 10.66 61.79 20.22 91.78 4.56 29.38-15.37 57.58 4.79 86.59 8.37 31.65 3.36 59.89-23.61 92.11-10.63 26.97 14.65 58.31 13.14 86.01.93 29.5-14.09 57.79 9.88 87.24 10.12v-42.87c-17.13-10.5-41.04-14.18-61.38-19.29z" style="opacity:.8;fill:none;stroke:#fff;stroke-linejoin:round;stroke-linecap:round;stroke-width:40"/><path d="m427.03 181.25h70.33v76.85c-23.45 0-46.89 0-70.33 0 0-25.62 0-51.23 0-76.85z" style="stroke-width:11.8;stroke-linecap:round;stroke-linejoin:round;fill:#bbd9ec;stroke-opacity:.737;opacity:.765"/><path d="m401.05 141.47v183.48h119.08c0-61.16 0-122.32 0-183.48-39.69 0-79.39 0-119.08 0zm86.9 106.22c-16.09 0-32.18 0-48.27 0 0-17.17 0-34.33 0-51.5h48.27z" fill="#0073be"/><path d="m31.075 275.65c1.358 29.89 10.618 59.6 27.688 84.28 24.041-12.61 53.047-10.57 76.827 1.48 25.99 10.72 51.93-1.83 76.61-9.1 27.59-7.33 51.04 13.58 77.96 13.11 26.93.47 50.4-20.43 77.99-13.11 24.67 7.27 50.62 19.81 76.59 9.11 23.7-11.99 52.6-14.14 76.58-1.6 17.01-24.66 26.26-54.32 27.6-84.17-35.54 2.45-71.29.63-106.93 1.19-133.02 0-266.04.1-399.06-.1-3.968-.15-7.928-.52-11.855-1.11z" fill="#0073be"/><path d="m550 438.53c-26.91.51-50.37-20.35-77.94-13.03-24.66 7.28-50.59 19.66-76.56 9.08-23.9-12.1-53.03-14.03-77.16-1.37-25.19 11.3-52.18 2.44-76.21-6.89-27.34-8.89-51.51 9.96-77.85 12.09-27.34 3.05-50.41-18.86-77.975-13.52-16.766-1.58-48.696 24.93-56.305 7.65 0-13.92 0-27.83 0-41.75 26.907.48 50.351-20.43 77.92-13.12 24.69 7.27 50.64 19.82 76.63 9.12 23.87-12.15 53.02-14.08 77.12-1.38 25.2 11.42 52.2 2.43 76.23-6.9 27.36-8.93 51.54 9.99 77.9 12.16 27.33 3 50.37-18.98 77.94-13.6 17.9 4.95 43.57 11.02 56.26 17.31z" fill="#3d9ad4"/></svg>