<?xml version="1.0" encoding="UTF-8"?>
<svg width="580" height="580" version="1.1" xmlns="http://www.w3.org/2000/svg"><path d="m288 42c-43.7 2.7-75.9 47.8-122 38.6-30-8.54-38.2 32.5-12.9 43.3 3.85 12 37.1 28.1 18.3 6.25-19.1-8.67-32.8-46.5 0.6-39.3 43.3 1.74 74.6-36.4 116-40.8 52.1-0.74 88.2 52.8 141 47.5 35.6 13.2-38.5 43.2-12.3 49.3 25.8-10.5 50.6-60.6 5.28-56.8-35.2-1.45-64.2-22.4-93.7-39.1-12.9-6.11-27.1-10.3-41.5-8.95zm-188 80.9c-18.8 28.2-6.33 68-32.1 93.1-17.9 29.2-36.8 66.1-20.2 100 13.8 35.6 42 69.7 34.5 110 8.27 35 59.2-3.06 58.2-22.1-13.6 5.94-44.5 45-51.7 5.76 5.36-27.8-10.9-49.2-23.4-72-15-25.8-23-58.5-7.58-86.1 14.6-31.9 40.7-59.8 38.3-96 7.36-24.5 31.4-12.2 35.6 6.55 9.07 12.5 26.8 6.33 9.66-5-12-13.3-23.7-28.4-41.2-34.5zm381 10.6c-9.35 11.2-51.8 35.1-34.7 41.9 10.2-19.8 49.5-36.4 42.1 0.193 3.63 48.4 51.7 86.4 39.6 137-10.7 39.9-48 70.5-46.3 114-6.77 40.2-44.1-30.3-46.9-7.97 9.2 29.2 60.7 46.9 55.2 2.4 4.26-35.9 28.3-64.4 42.6-96.3 12.5-31.3 0.768-64-15.3-91.4-12.9-27.4-24.8-57.2-21.6-88.1-0.277-6.83-7.34-15.5-14.8-11.9zm-316 297c-21.1 11.8-58.5 58.8-11.8 59.1 39.9 2.26 69.8 31.6 106 44.4 30.6 11.2 61.6-1.34 88.5-15.8 24.4-11.8 50.9-23.9 78.7-19.8 37.4-8.43-9.22-62.2-22.7-54.1 7.37 13.3 45.5 39.4 11.3 44.5-34 0.755-63 18.9-92.7 32.8-27.4 12-60.4 11.8-85.5-5.63-26.9-14.5-53.5-34.2-85.4-34.2-33.1-15.3 33-40.5 17-54.2-1.1 0.974-2.19 1.95-3.29 2.92z" fill="none" opacity=".8" stroke="#fff" stroke-linecap="round" stroke-linejoin="round" stroke-width="46.8"/><path d="m97 128c-3.17 19.9-2.54 40.7-11.9 59-7.75 25-24.1 46.1-33.8 70.1-2.36 10.7-7.13 21.5-8.04 32.2 8.57 24.4 16.4 49.1 29.5 71.5 6.41 11.1 11.6 22.5 12.1 35.5l7.04 45.5c17.6-13.6 35.2-27.3 52.8-40.9 9.17 9.92 18.3 19.8 27.5 29.7-15.1 15.9-30.2 31.7-45.3 47.6 5.61 8.24 14.8 8.51 23.8 8.96 16 1.13 32.1 4.83 46.8 11 20.3 10.5 38.4 26 61 31.1 10.4 3.84 20.9 6.82 31.9 3.48 13.1-0.57 25.3-4.53 36.8-10.7 21-9.18 42-19.1 64-25.1 15.5-3.31 33.2-0.67 46.1-11.3 12.7-4.07-4.27-12-7.82-18.1-9.48-9.81-19-19.6-28.4-29.4 10.2-9.42 20.3-18.8 30.5-28.2 15.1 14.4 30.2 28.7 45.3 43.1 6.18-8.2 10-17.2 9.76-27.6 1.73-13.3 1.02-27.4 9.47-38.6 11.5-22.9 24.3-45.2 35.3-68.3 1.2-12.8 8.33-26.2 1.07-38.3-6.98-24.3-20-45.9-31.8-68-5.54-24.8-10.7-49.7-12.6-75.1-18.7 13-36.1 27.7-52.8 43.1-8.93-9.66-17.8-19.3-26.8-29 14.1-15.4 28.2-30.7 42.4-46.1-5.09-7.93-12.2-11.8-21.7-11.1-15.3-1.46-30.8-2.46-44.6-9.83-22.8-7.16-42.4-21.2-63.6-31.4-13.9-2.16-27.8-9.28-41.6-3.56-13.1 2.82-26.6 4.73-37.4 13.4-12.6 8.21-25.7 15.5-40.6 18.6-20.3 7.13-42.3 4.92-63.4 7.58-2.91 11.2 8.61 17 14.2 25 9.65 11 19.3 22 29 32.9-10.4 8.92-20.8 17.8-31.2 26.8-17.6-15.1-35.2-30.2-52.8-45.4z" fill="#fff" fill-rule="evenodd"/><path d="m288 42c-37.1 1.73-63.3 34.4-99.8 39-17.5 1.9-68.8-5.15-47.9 26.1 12.5 12 27.2 37.4 39.5 39.9 4.52-23-47.6-35.4-26.5-56 25.4-1.65 51.8 0.655 73.5-15.9 27.8-16.1 61.7-35.2 93.8-19.1 35.9 14.8 68.2 45.2 110 41.6 33.3 8.34-15.6 35.1-24.3 48.4 6.32 19.1 23.6-16.9 34.3-20.5 21.4-11 17-40.5-9.69-35-33.4-0.18-62.9-15.9-90-33.8-15.9-9.02-33.9-16.3-52.5-14.7zm-188 80.9c-19 17.3-3.86 47.4-18.7 67.9-15.4 35.5-48.2 69-38.4 111 10.4 42.3 48 78.8 39.2 125 0.317 29.1 29.4 16.2 39.6 0.381 10.9-1.65 35.7-32.9 14.4-24.1-12.2 11.1-46.4 49.9-44.9 12.7 2.46-24.5-8.52-46.4-20.4-66.9-16.2-27.6-30.7-62.3-14.6-93.4 14.9-34.9 45-66.2 41.8-107 9.41-31.5 35 19.2 48.9 25.9 17.5-3.97-16.7-23.7-20.7-33.3-7.39-7.64-15.7-15.1-26.1-18.1zm381 10.6c-12.1 14.8-49.5 32.4-43.2 48.1 18.1-3.64 37.5-51.4 50.4-25.3-0.328 24.4 3.29 48 16.9 68.9 16.5 30.5 35.5 67.7 17.9 102-14.8 33.6-44.5 63.7-41 103-9.74 32.9-34.6-18-51.3-22.9 1.56 18.6 29.4 39.2 47.8 48.2 20.4-17.7 6.8-57.4 26.9-79.9 17.8-29.1 40-61.7 31-97.8-13.7-42.8-45.3-81.8-40.3-129 0.128-8.04-5.2-18.7-15-15.1zm-316 297c-9.8 16.9-56.5 38.7-31.8 57.2 24 4.03 49.4 3.5 70.4 17.9 30.9 17.4 65 41.7 102 29.8 37.7-9.89 69.7-39.4 111-37.2 21.1 5.47 41.2-15 17.6-28.7-7.7-9.2-28.8-42.3-34.8-28 9.6 13.5 38.6 30.9 31.6 45.2-27.1 5.42-56.4 3.63-79.8 21.1-30.3 16.2-67.8 32.4-101 14.8-32.6-14.8-62.3-42.4-100-40-32.9-7.53 16.9-35.2 23.8-48.9 3.37-7.32-4.82-9.02-8.33-3.19z" fill="#734a08" stroke="#734a08" stroke-linecap="round" stroke-linejoin="round" stroke-width="9"/><g transform="matrix(.98 0 0 .98 5.69 -2.7)" fill="#734a08" fill-rule="evenodd"><path d="m199 429c-38.2-21.7-42.2-72.9-31.5-111 9.82-39.4 32.7-82 13.9-122 33.2 25.8 52.5 64.6 73.7 100 0.82-42.7-19.2-84.3-9.23-127 2.12-14.3 4.74-22.1 6.68-3.23 7.81 44.4 44.5 73.9 67.5 110 9.95 10.3 15.1 51 21.8 20.2 18.1-32 22.2-69.5 17.6-106-2.89-24.3 22.6 26 30.2 36.7 26 44.5 42.3 101 20.4 150-6.21 14.5-26.6 55.8-26.5 51.1 2.2-23.1 4.4-46.2 6.6-69.3-17.6 51.8-41.2 105-86 139 14.6-44.9 17.8-97.3-8.77-139-1.33 29.6-10.9 57.6-23.6 84.1-7.25 13.5 0 50.9-19.3 26.1-27.5-24.1-35.8-61.4-40.1-96.1-10.7 16.3-13.4 37-13.6 56.2z"/><path d="m278 75.1c-10.4 39.8-15.3 86.9 12.6 121 14.5 19.4 30.4 38.3 39.6 61 7.35-32.5 6.51-69.7-16.7-96-20.2-24.6-32.5-54.3-35.5-86z"/></g><path d="m97 128c-2.37 24.9-5.61 50-17.1 72.6-13.9 28.8-33 55.9-36.7 88.5 9.37 30.9 22.9 60.1 37.7 88.6 5.23 20.9 7.08 42.7 10.8 64 18.6-10.4 38.6-38.1 56.2-37.2 12.4 13.7 34.2 27.5 9.9 40.9-9.43 12.9-48.4 37.6-14.1 41.2 30.2 0.267 58.9 11.5 83.2 29.1 23.2 13.6 51 23.2 77.7 15 36.8-11.9 70.6-35.8 110-36.7 17.1-0.503 37.6-14.5 14.3-26.5-11.8-14.7-41.8-30-13.2-43.6 19.5-30.8 38.5 15.2 57.7 26.3 21.5-7.88 6.59-53.7 26.4-72.1 13.3-28.9 35.8-55.5 35.1-88.7-6.84-29.3-24.5-54.7-35.9-82-7.54-20.2-6.17-58.3-15.1-68-18.5 8.94-36.5 37.3-52.6 37-10.4-12.5-32.8-25-12.2-37.6 10.4-11.3 20.7-22.6 31.1-33.8-11.5-18-35.8-8.43-52.9-15.7-27.3-8.44-51.8-23.5-77-36.7-28.9-10.5-61.7-3.5-86.2 14.3-28.6 18.8-63.8 19.6-96.8 21.6 0.209 24.9 41.9 41.2 39.2 61.3-14.6 12.8-29.2 33-43.8 9.25-12.1-10.4-24.2-20.8-36.3-31.2z" fill="#734a08" opacity=".3"/></svg>
