<?xml version="1.0" encoding="UTF-8"?>
<svg width="580" height="580" version="1.1" xmlns="http://www.w3.org/2000/svg"><path d="m292 59.8c-135 0-245 105-245 234 0 129 110 234 245 234s245-105 245-234c0-129-110-234-245-234z" fill="none" opacity=".8" stroke="#fff" stroke-linecap="round" stroke-linejoin="round" stroke-miterlimit="10" stroke-width="57.4"/><path d="m164 112c-7.19 3-12.4 6.18-17.6 10.2-5.19 3.52-8.86 7.86-12.4 12.4-4.01 4.18-7.35 8.69-10 13.6l33.1-8.53c2.18-9.19 4.52-18.4 6.86-27.6z" fill="#fff" fill-rule="evenodd" stroke="#000" stroke-miterlimit="10" stroke-width=".167"/><path d="m199 97.2 74.2-18.1 51.2 42.3-13.5 54-56.8 26.4-71.9-19.1-10.7-44z" fill="#fff" fill-rule="evenodd" stroke="#000" stroke-miterlimit="10" stroke-width=".167"/><path d="m340 125-9.02 51.2 56.3 56.3 60.2-9.03 18.6-67.5-65.9-54z" fill="#fff" fill-rule="evenodd" stroke="#000" stroke-miterlimit="10" stroke-width=".167"/><path d="m399 251 56.8-10.2 33.8 56.8-46.6 77.1-58.5-5.52-21.4-49z" fill="#fff" fill-rule="evenodd" stroke="#000" stroke-miterlimit="10" stroke-width=".167"/><path d="m485 412-27.1-31.4 47.3-79.9 16.4-9.03c0.17 19.4-1.34 35.8-4.51 52.3-3.85 16.4-9.53 31.2-15.2 43.3-5.68 11.4-10.9 19.4-16.9 24.7z" fill="#fff" fill-rule="evenodd" stroke="#000" stroke-miterlimit="10" stroke-width=".167"/><path d="m204 354 67-49.5 75.4 19.7 24.1 56.7-41.6 54.7-94-19.7z" fill="#fff" fill-rule="evenodd" stroke="#000" stroke-miterlimit="10" stroke-width=".167"/><path d="m348 511c-13.9 2.02-27.9 3.51-42.8 3.85-15.4 0.33-31.8 0-46.6-1.67-15.9-2.34-30.6-6.52-43.5-10.7-12.9-4.51-22.7-9.53-31.4-15.7l-1.16-22.6 44.5-33.8 99.6 17.6 28.6 43.8z" fill="#fff" fill-rule="evenodd" stroke="#000" stroke-miterlimit="10" stroke-width=".167"/><path d="m113 263 61.4-62.4 66.4 18.6 16.9 71.9-69.2 53.5-60.2-1.67z" fill="#fff" fill-rule="evenodd" stroke="#000" stroke-miterlimit="10" stroke-width=".167"/><path d="m90.2 390c-5.35 2.18-10.4-3.52-15.7-15.2-5.85-12.7-13.7-38.3-16.4-57.3-2.51-19.2-2.34-37.9 1.17-56.8l34.9 11.2 18.6 77.6z" fill="#fff" fill-rule="evenodd" stroke="#000" stroke-miterlimit="10" stroke-width=".167"/><path d="m292 59.8c-96.3-1.32-192 57.9-228 148-33.9 79-15.9 176 42.8 238 67.9 76.1 184 101 278 63.5 84.1-31.6 148-114 152-204 5.86-87.7-45.9-174-123-215-37.2-20.4-79.6-31-122-31zm-18.4 19.4c17.1 14.1 34.1 28.2 51.2 42.3-4.51 18-9.01 36-13.5 54-19 8.8-37.9 17.6-56.8 26.4-24-6.35-47.9-12.7-71.9-19.1-3.56-14.7-7.12-29.3-10.7-44 9.19-13.9 18.4-27.7 27.6-41.6 24.7-6.02 49.5-12 74.2-18.1zm127 22.6c22 18 43.9 36 65.9 54-6.18 22.5-12.4 45-18.6 67.5-20.1 3-40.1 6.01-60.2 9.01l-56.3-56.3c3-17.1 6.01-34.1 9.01-51.2 20.1-7.69 40.1-15.4 60.2-23.1zm-237 10c-3.84 13.8-3.01 32-21.3 31.3-9.34 2.22-27.6 9.77-11.5-5.54 8.59-11.3 19.5-20.5 32.8-25.8zm10.5 88.6c22.1 6.18 44.2 12.4 66.4 18.6l16.9 71.9c-23.1 17.8-46.1 35.7-69.2 53.5-20.1-0.56-40.1-1.12-60.2-1.68l-15.2-79.9c20.5-20.8 40.9-41.6 61.4-62.3zm282 40.8c11.3 19 22.5 37.9 33.8 56.9-15.5 25.7-31.1 51.4-46.6 77.1-19.5-1.84-39-3.69-58.5-5.53-7.13-16.3-14.3-32.6-21.4-49 12-23.1 24-46.2 36-69.2 18.9-3.4 37.9-6.81 56.8-10.2zm-397 19.4c11.7 3.73 23.3 7.47 35 11.2 6.18 25.9 12.4 51.7 18.6 77.6-7.52 13.5-15 27.1-22.6 40.6-21.3-6.79-22.1-38.5-29.2-57.3-5.44-23.5-6.06-48.3-1.7-72zm462 31.2c0.686 41.5-8.19 85.2-34.4 118-6.43 2.71-12-11.8-18.1-16.4-4.37-6.47-15.7-12.3-7.02-20 14.4-24.3 28.8-48.6 43.2-72.9l16.4-9.03zm-251 12.9c25.1 6.58 50.3 13.2 75.4 19.7 8.03 18.9 16.1 37.8 24.1 56.7-13.9 18.2-27.7 36.4-41.6 54.7-31.3-6.57-62.6-13.1-94-19.7-10.3-20.6-20.6-41.3-30.9-61.9 22.3-16.5 44.7-33 67-49.5zm-43.8 125c33.2 5.86 66.4 11.7 99.6 17.6 9.53 14.6 19.1 29.2 28.6 43.8-4.13 11.5-6.12 25.8-22.9 21.2-50.4 5.15-105 2.13-149-26.3 0.964-7.77-3.75-18.2 0.997-24.2 14.1-10.7 28.2-21.4 42.3-32.2z" fill="#2f922e" fill-rule="evenodd"/><path d="m273 79.2-74.2 18.1c-9.19 13.9-18.4 27.7-27.6 41.6 3.56 14.7 7.13 29.3 10.7 44l71.9 19.1c18.9-8.81 37.9-17.6 56.8-26.4l13.5-54c-17.1-14.1-34.1-28.2-51.2-42.3zm127 22.6c-20.1 7.69-40.1 15.4-60.2 23.1-3.01 17.1-6.01 34.1-9.02 51.2 18.8 18.8 37.6 37.6 56.3 56.3l60.2-9.03c6.18-22.5 12.4-45 18.6-67.5-22-18-43.9-36-65.9-54zm-237 10c-15.2 5.03-37.1 25.8-37.5 35.5 10.2-2.63 20.4-5.26 30.6-7.9 2.18-9.22 4.52-18.4 6.86-27.6zm10.5 88.6c-20.5 20.8-40.9 41.6-61.4 62.4l15.2 79.9 60.2 1.68c23.1-17.8 46.1-35.7 69.2-53.5-5.63-24-11.3-47.9-16.9-71.9-22.1-6.18-44.2-12.4-66.4-18.6zm282 40.8c-18.9 3.4-37.9 6.8-56.8 10.2-12 23.1-24 46.1-35.9 69.2 7.13 16.3 14.3 32.7 21.4 49 19.5 1.84 39 3.68 58.5 5.52 15.5-25.7 31.1-51.4 46.6-77.1-11.3-18.9-22.5-37.9-33.8-56.8zm-397 19.4c-4.36 23.8-3.75 48.5 1.7 72.1 7.11 18.8 7.99 50.5 29.2 57.3 7.52-13.5 15-27.1 22.6-40.6-6.19-25.9-12.4-51.7-18.6-77.6-11.6-3.73-23.3-7.47-34.9-11.2zm461 33.2c-3.45 0.0374-9.22 3.94-14.5 7.09-15.8 26.6-31.5 53.3-47.3 79.9l27.1 31.4 2.22-2.13c23.2-29.2 33-67.4 34.2-104 2.55-9.16 1.33-12.1-1.71-12.1zm-249 10.9c-22.3 16.5-44.7 33-67 49.5 10.3 20.6 20.6 41.2 30.9 61.9l94 19.7c13.9-18.2 27.8-36.4 41.6-54.7-8.03-18.9-16.1-37.8-24.1-56.7-25.1-6.57-50.3-13.1-75.4-19.7zm-43.8 125c-14.8 11.3-29.6 22.5-44.5 33.8 1.89 8.06-2.32 19.5 4.49 24.8 48.1 28.8 107 29.6 161 22 2.39-6.41 4.79-12.8 7.19-19.2-9.53-14.6-19.1-29.2-28.6-43.8-33.2-5.85-66.4-11.7-99.6-17.6z" fill="#39ac39" fill-rule="evenodd" opacity=".3"/></svg>
