<svg height="580" width="580" xmlns="http://www.w3.org/2000/svg"><path d="m151.7674 27.19112c-41.40486 34.706621-82.841949 69.374758-124.254084 104.07269 41.413768 34.67773 82.841524 69.33875 124.254084 104.01793h97.64588c-26.63284-23.93333-53.27198-47.85965-79.88824-71.81143 80.36023-1.00035 160.72077-.87403 241.08148 0-26.6241 23.93781-53.24779 47.87607-79.87409 71.81143h97.64941c41.42219-34.66767 82.85599-69.32148 124.25408-104.01793-41.39645-34.716649-82.83959-69.37757-124.25408-104.07269-32.5498 0-65.09961 0-97.64941 0 26.61891 23.984205 53.25282 47.95174 79.87409 71.933324-80.48856-.584252-160.6054-.928155-241.08148.000011 26.6226-23.985348 53.2628-47.951149 79.88824-71.933335-32.54863 0-65.09725 0-97.64588 0zm-124.453707 280.33838v146.52005c30.606786 10.62887 45.006859 44.72546 66.713201 66.77426 15.118636 28.36737 50.890376 42.07093 68.851326 8.2514 23.39173-24.33125 40.18127-56.57629 69.90995-73.92865 32.85421.85238 47.95034 41.0741 69.64119 61.31904 14.83458 24.68193 48.26503 50.90096 68.68425 16.43124 25.14504-24.92813 42.25495-58.68873 72.72976-77.75028 33.76687 2.98273 48.86282 44.38176 72.00082 65.67725 7.27965 9.77194 41.72915 47.88619 38.40462 17.83855 0-44.48447 0-88.96895 0-133.45342-30.48168-14.25881-45.54235-48.72722-69.1813-71.61714-15.45511-27.34769-50.05614-33.8922-66.14198-3.40716-23.2244 24.44934-39.82589 57.00292-69.87371 73.92731-33.73861-2.89948-48.68289-44.65426-72.10723-65.67606-14.66304-24.64688-47.84364-43.96731-66.73562-12.07281-25.30456 24.80074-42.64719 58.2095-72.73589 77.74887-33.45675-3.19307-48.106994-44.49509-71.052474-65.67606-11.248657-11.6888-21.929251-28.11884-39.106913-30.90639z" style="fill:#fff;stroke:#fff;stroke-width:51.8084;stroke-linecap:round;stroke-linejoin:round;stroke-opacity:.8"/><path d="m151.7674 27.19112c-41.40486 34.706621-82.841949 69.374758-124.254084 104.07269 41.413768 34.67773 82.841524 69.33875 124.254084 104.01793h97.64588c-26.63284-23.93333-53.27198-47.85965-79.88824-71.81143 80.36023-1.00035 160.72077-.87403 241.08148 0-26.6241 23.93781-53.24779 47.87607-79.87409 71.81143h97.64941c41.42219-34.66767 82.85599-69.32148 124.25408-104.01793-41.39645-34.716649-82.83959-69.37757-124.25408-104.07269-32.5498 0-65.09961 0-97.64941 0 26.61891 23.984205 53.25282 47.95174 79.87409 71.933324-80.48856-.584252-160.6054-.928155-241.08148.000011 26.6226-23.985348 53.2628-47.951149 79.88824-71.933335-32.54863 0-65.09725 0-97.64588 0zm-124.453707 280.33838v146.52005c30.606786 10.62887 45.006859 44.72546 66.713201 66.77426 15.118636 28.36737 50.890376 42.07093 68.851326 8.2514 23.39173-24.33125 40.18127-56.57629 69.90995-73.92865 32.85421.85238 47.95034 41.0741 69.64119 61.31904 14.83458 24.68193 48.26503 50.90096 68.68425 16.43124 25.14504-24.92813 42.25495-58.68873 72.72976-77.75028 33.76687 2.98273 48.86282 44.38176 72.00082 65.67725 7.27965 9.77194 41.72915 47.88619 38.40462 17.83855 0-44.48447 0-88.96895 0-133.45342-30.48168-14.25881-45.54235-48.72722-69.1813-71.61714-15.45511-27.34769-50.05614-33.8922-66.14198-3.40716-23.2244 24.44934-39.82589 57.00292-69.87371 73.92731-33.73861-2.89948-48.68289-44.65426-72.10723-65.67606-14.66304-24.64688-47.84364-43.96731-66.73562-12.07281-25.30456 24.80074-42.64719 58.2095-72.73589 77.74887-33.45675-3.19307-48.106994-44.49509-71.052474-65.67606-11.248657-11.6888-21.929251-28.11884-39.106913-30.90639z" fill="#0073be"/></svg>