<?xml version="1.0" encoding="UTF-8"?>
<svg width="580" height="580" version="1.0" xmlns="http://www.w3.org/2000/svg"><path d="m543 198c-3.52-44.9-40.2-78.3-74-104-86.6-63.2-207-76.4-304-30.4-51.3 24.4-104 60.8-124 116-5.7 15.8-4.61 37.4 12.1 17.9 9.86-12 21 2.09 31.6 5.67 57.7 29.9 115 59.9 173 89.8-17.1-49.6-34.1-99.3-51.2-149 54-7.9 109-8.37 163-1.65-17.3 50.2-34.5 100-51.8 151 67.3-35 135-69.9 202-105 6.53 0.459 24.6 22 23.3 9.65zm-296 83.3-179-93c40.7-22.9 86.4-35.5 132-43 15.6 45.3 31.2 90.7 46.8 136zm81 0c15.8-45.9 31.6-91.8 47.4-138 47.7 6.7 95.3 18.9 138 41.4-61.8 32.1-124 64.2-185 96.3zm67.3-3.5c-14.8 3.76-23 19-34.6 28.3-6.22 12.4-15.3 1.97-23.6-2.25-9.84-5.85-19.4-13-31.5-10.7-16.6 0.393-33.3-0.79-49.7 0.597-10.9 6.8-22.2 13-33.3 19.6-12.1-11.3-23-24.1-36-34.3-28.8-6.49-18.5 26.8-2.46 35.4 12.1 10.1 20.8 25.7 36.1 30.5 12.2-3.26 22.6-11.4 34-17-0.653 24.3 1.3 49-0.974 73-12.9 41-27.3 81.5-39.4 123 1.12 27.6 41.9 23.6 42.4-2.32 10.6-31.7 21.1-63.4 31.7-95.1 12.7 36.2 23.2 73.4 37.3 109 16.6 22.5 48.3-5.04 32.7-26-11.9-37.6-25.1-75-36.2-113v-68.4c13 5.38 24.7 18.4 39.3 15.8 15.9-12.9 29.2-28.6 44.1-42.7 7.47-8.17 2.98-25-9.88-23.3zm-107 9.49c45.4 9e-4 23-73.6-14.7-48.6-21.8 13.3-10.9 49.9 14.7 48.6z" fill="none" opacity=".8" stroke="#fff" stroke-linecap="round" stroke-linejoin="round" stroke-width="50"/><path d="m542 198c-4.69-50-47-84.9-85.4-112-90.1-59.7-213-66.9-308-15.1-46.1 23.7-90 59.1-109 109-6.53 11-1.66 38 12.3 17.9 19.4-11.8 40 14.9 59.6 20.3 48.3 25.1 96.6 50.2 145 75.3-17.1-49.6-34.1-99.3-51.2-149 54-7.9 109-8.37 163-1.65-17.3 50.2-34.5 100-51.8 151 67.3-35 135-69.9 202-105 6.73-0.673 20.8 21.3 23.3 9.65zm-296 83.3c-59.7-31-119-62-179-93 40.7-22.9 86.4-35.5 132-43 15.6 45.3 31.2 90.7 46.8 136zm81 0c15.8-45.9 31.6-91.8 47.4-138 47.7 6.7 95.2 18.9 138 41.4-61.8 32.1-124 64.2-185 96.3zm67.3-3.5c-24 7.47-38.7 53.8-65.2 21.9-20.5-11.8-45.4-4.58-68-6.26-20.5 3.01-40.4 33.3-55 4.63-8.97-20-48-29.6-36.3 2.83 13.1 14 27.3 28 41.7 41.1 15.5 12.3 48.7-32.3 41.5 4.11-0.471 25.1 3.77 51.3-7.23 75-11.1 34.2-22.8 68.1-32.9 103 0.0163 27.4 44.4 23.4 42.7-3.01 10.5-31.5 21-62.9 31.5-94.4 12.9 36.5 23.3 74.1 37.8 110 24 23 49-15.8 29.1-36.9-10.8-35.2-24.5-70-33.1-106v-65.7c19 14.8 44.9 24.3 58.9-2.55 10.6-10.7 48.7-40.4 14.7-47.7zm-107 9.49c25.2 2.61 32.9-31.4 16.6-46.4-20.7-22.7-57.2 11.9-38.3 35.1 4.55 7.29 13 12 21.7 11.4z" fill="#2f922e"/></svg>
