<svg height="580" width="580" xmlns="http://www.w3.org/2000/svg"><path d="m255.54 30.023c-21.43-.9-26.87 21.358-24.74 38.314 3.58 18.233-29.56 4.053-33.45 25.039-18.07 22.474-14.43 51.374-13.75 78.214 4.31 30.64-7.67 59.57-17.96 87.82-25.91 68.07-68.436 128.15-96.066 195.43-9.779 39.67 17.292 84.36 58.366 90.61 43.33 9.24 88.06-33.03 81.42-76.65-.69-93.57-.85-187.14-.82-280.71 6.54 1.81 20.2-3.47 22.19 2.87-.1 107.53-.13 215.07-.19 322.61h25.46c.1 12.14.15 24.27.23 36.41 77.91-.1 155.83-.1 233.74-.14.1-12.09.12-24.18.18-36.27 6.39-1.77 20.08 3.82 21.9-2.56-.18-155.36.36-310.76-.27-466.108-1.61-17.028-20.25-15.143-32.7-14.879-74.51 0-149.03 0-223.54 0zm39.1 50.873c52.08.113 104.18-.227 156.26.171 16.97 2.474 10.93 22.143 12.06 34.123-.14 34.93.27 69.89-.21 104.81-3.48 16.25-22.13 9.91-34.03 11.14-45.64-.32-91.32.14-136.94-.66-17.49-3.51-12.63-23.41-13.16-36.37.41-33.95.1-67.92.95-101.845 1.01-7.194 8.16-11.682 15.07-11.369zm-108.13 197.614c1.87 68.85 3.12 137.9-2.88 206.59-7.17 26.46-36.02 49.96-63.71 37.39-23.52-10.05-38.237-43.3-23.315-65.67 29.045-59.9 59.455-119.12 89.905-178.31z" style="fill:none;opacity:.8;stroke:#fff;stroke-linejoin:round;stroke-linecap:round;stroke-width:40"/><path d="m268.25 67.425h210.98v176.895c-70.33 0-140.65 0-210.98 0 0-58.96 0-117.93 0-176.895z" fill="#bbd9ec" stroke-linecap="round" stroke-linejoin="round" stroke-opacity=".737" stroke-width="11.8"/><path d="m255.54 30.023c-21.43-.9-26.87 21.358-24.74 38.314 3.58 18.233-29.56 4.053-33.45 25.039-18.07 22.474-14.43 51.374-13.75 78.214 4.31 30.64-7.67 59.57-17.96 87.82-25.91 68.07-68.436 128.15-96.066 195.43-9.779 39.67 17.292 84.36 58.366 90.61 43.33 9.24 88.06-33.03 81.42-76.65-.69-93.57-.85-187.14-.82-280.71 6.54 1.81 20.2-3.47 22.19 2.87-.1 107.53-.13 215.07-.19 322.61h25.46c.1 12.14.15 24.27.23 36.41 77.91-.1 155.83-.1 233.74-.14.1-12.09.12-24.18.18-36.27 6.39-1.77 20.08 3.82 21.9-2.56-.18-155.36.36-310.76-.27-466.108-1.61-17.028-20.25-15.143-32.7-14.879-74.51 0-149.03 0-223.54 0zm39.1 50.873c52.08.113 104.18-.227 156.26.171 16.97 2.474 10.93 22.143 12.06 34.123-.14 34.93.27 69.89-.21 104.81-3.48 16.25-22.13 9.91-34.03 11.14-45.64-.32-91.32.14-136.94-.66-17.49-3.51-12.63-23.41-13.16-36.37.41-33.95.1-67.92.95-101.845 1.01-7.194 8.16-11.682 15.07-11.369zm-108.13 197.614c1.87 68.85 3.12 137.9-2.88 206.59-7.17 26.46-36.02 49.96-63.71 37.39-23.52-10.05-38.237-43.3-23.315-65.67 29.045-59.9 59.455-119.12 89.905-178.31z" fill="#0073be"/></svg>