<svg enable-background="new 0 0 580 580" height="580" viewBox="0 0 580 580" width="580" xmlns="http://www.w3.org/2000/svg" xmlns:xlink="http://www.w3.org/1999/xlink"><filter id="a" color-interpolation-filters="sRGB"><feGaussianBlur stdDeviation=".11848"/></filter><path d="m14.229 17.09c-2.105 0-4.21 0-6.3155 0 .7751-.724 1.5502-1.449 2.3255-2.173 1.38-.01 2.763.02 4.142-.02.971-.168.627-1.7-.315-1.491-.738 0-1.477 0-2.215 0 .393-.404.874-.735 1.195-1.198.4-.835-.869-1.462-1.351-.718-.684.639-1.367 1.277-2.0504 1.916-2.6196 0-5.2393 0-7.8589 0-1.05472-.03-.9081 1.692.1225 1.506h6.1244c-.7751.724-1.5502 1.449-2.3253 2.173-1.3576.01-2.7171-.02-4.0734.02-.97074.168-.6273 1.7.3151 1.491h2.1463c-.4096.418-.9056.765-1.2433 1.243-.3998.835.8693 1.461 1.3514.718.6994-.654 1.3987-1.307 2.0981-1.961h7.9275c.982.02.982-1.527 0-1.506z" style="opacity:.8;fill:#666;stroke:#fff;stroke-linejoin:round;stroke-linecap:round;stroke-width:1.208;filter:url(#a)" transform="matrix(33.115 0 0 33.115 24.77 -240.61)"/><path d="m495.97 325.43h-254.19c25.68-24.05 72.52-49.45 98.2-73.28 45.72 0 115.35 2.63 161 2.2 32.15-5.52 22.76-48.34-10.42-49.45-136.36 0-275.03 0-406.66 0-34.93-2.21-36.7 49.45 4.05 49.89l251.17-2.2c-25.68 24.06-71.88 49.23-97.54 73.29-44.96 0-117.8 0-162.71 0-32.14 5.52-27.39 51 10.44 49.45h406.66c32.52 0 32.52-50.55 0-49.89z" fill="#5f5f5f"/><path d="m455.88 166.93c21.86-22.08-10.9-56.08-32.96-34.44-146.63 137.1-146.94 138.2-296.02 275.96-24.3 23.62 11.12 59.38 41.51 29.36 140.22-133.78 139.12-135.11 287.47-270.88z" fill="#2c2c2c" stroke="#2c2c2c" stroke-width="6.623"/></svg>