<?xml version="1.0" encoding="UTF-8"?>
<svg width="580" height="580" version="1.1" xmlns="http://www.w3.org/2000/svg"><path d="m378 474c17.9 4.26 56.4 5.98 54 29-15.5 16.9-41.2 17-62.1 22.7-66.5 11.5-135 7.57-200-10.2-25.4-4.68-30.4-36.8-2.3-40.4 11-3.78 36.4 2.67 34.2-15.8-23.4 3.57-59.2 4-66.5 31.8 0.5 26.7 31.8 35.3 53.3 40.1 71.9 16.3 148 16.3 219-2.9 16.8-5.17 48.6-17.3 33.7-39.9-13.8-17.9-37.7-21.1-58.4-24.2-4.93 0.45-5.51 6.2-4.89 9.9zm-46.9 61.3c3.18-64.1 7.6-128 9.01-192 21.8-1.62 55-6.51 57-33.8-3.74-11.6-9.08-29.7 10.6-26.4 22.5-6.33 29.6-39.4 7.6-51.2-19.5-14.8 14-35.1-0.84-55-14.4-18.1 8.53-26.4 13-43.2 8.79-19.5 0.58-44.3-19.3-53.4-17.8-12.9-45.5-2.14-52.9-26.3-17.6-21.3-54.3-23.5-71.6-0.52-14.8 15.9-41.4 14.6-49.6 38.3-7.96 13.2 0.94 30.8-19.2 30.8-22.4 8.49-40 34.1-30 58 8.06 11.2 16.3 29.9-6.45 26.5-29.9 7.97-39.5 44.8-25 70 10.6 26.1 41.8 36.2 67.4 28.3 26.3-6.04 11.8 29.2 16.5 43.8 2.54 60.5 4.33 121 8.73 181 11.9 8.2 26.6 2.8 20.4-13.7-4.93-80.1-6.75-160-10.7-241-24.7 4.79-54 16.3-76.8 0.21-18.8-19.2-2.31-51.4 21.7-56 11.4-1.96 35.7-3.79 17.8-18.6-13.6-16.2-23.2-43.9-1.06-57.4 12.4-7.14 47.5-2.29 32.2-25.9-3.33-22.4 23.7-44 43.7-30.1 4.05-9.54 5.86-33.1 26.2-30 26.7-3.91 18.4 38.4 43.3 32.8 21.1-1.59 57.6 11.8 42.7 38.6-4.18 17.1-35 22.6-35.2 35.2 19.3 3.38 33.8 26.1 19.4 42.8-3.82 12.5-36.3 6.86-32.3 14.9 14.6 9.82 51.5 18 46.1 37.2-17.9 12-40.6 3.16-60.4 2.39-25-3.24 21 17.7 25.1 29.8 21.2 25.6-19.4 30.9-37.2 30.6-25.5-6.19-7.97 26.9-13 41.1-2.4 57.2-4.42 114-7.67 171 6.85 0.2 13.7 0.4 20.6 0.6z" fill="none" opacity=".8" stroke="#fff" stroke-linecap="round" stroke-linejoin="round" stroke-width="40"/><g fill="#fff"><path d="m140 490c9.5-22 37.4-21.7 57.6-25.1 59.1-5.02 119-2.96 178 3.14 22 3.06 47.3 6.74 62.6 24.4 6.81 24.6-29.8 28.9-46.8 34.1-71.9 16.3-148 14.5-219-5.71-14-4.68-33.6-12.6-32-30.7z" stroke-linejoin="round" stroke-width="12"/><path d="m256 535c-4.58-67.2-5.51-135-8.09-202-3.24-13.5 3.79-40.5-6.49-44.8-23 5.4-53 12.5-71.1-7.49-15.4-17.8-19.5-52.9 6.36-63.5 10.3-8.95 39.1-3.88 40.1-10.5-16.3-16.7-35.4-47.5-12.5-66.9 11.2-10.8 27.9-16.4 43.2-12.8-20.1-21.3 5.23-57 31-56.8 15.7-3.49 18.4-30.3 40.8-25 30.1-5.02 28.7 38.1 56.4 34.2 21.5-1.06 47.2 14.4 44.7 38.5 4.73 22.1-35.5 29.9-24.5 47.5 19.3 13.7 10.8 47.9-9.77 56.6 23.1 4.7 47.4 40.8 14.3 50.3-11 2.23-42.4-3.03-20 13.9 17.1 22.5-8.48 46.4-32 42.7-27-4.85-18.6 22.6-20 39.2-2.14 56-5.25 112-8.24 168-21.4 0.5-42.8-1.6-64.3-1.1z"/><path d="m331 535c3.18-64.1 7.6-128 9.01-192 21.8-1.62 55-6.51 57-33.8-3.74-11.6-9.08-29.7 10.6-26.4 22.5-6.33 29.6-39.4 7.6-51.2-19.5-14.8 14-35.1-0.84-55-14.4-18.1 8.53-26.4 13-43.2 8.79-19.5 0.58-44.3-19.3-53.4-17.8-12.9-45.5-2.14-52.9-26.3-17.6-21.3-54.3-23.5-71.6-0.52-14.8 15.9-41.4 14.6-49.6 38.3-7.96 13.2 0.94 30.8-19.2 30.8-22.4 8.49-40 34.1-30 58 8.06 11.2 16.3 29.9-6.45 26.5-29.9 7.97-39.5 44.8-25 70 10.6 26.1 41.8 36.2 67.4 28.3 26.3-6.04 11.8 29.2 16.5 43.8 2.54 60.5 4.33 121 8.73 181 11.9 8.2 26.6 2.8 20.4-13.7-4.93-80.1-6.75-160-10.7-241-24.7 4.79-54 16.3-76.8 0.21-18.8-19.2-2.31-51.4 21.7-56 11.4-1.96 35.7-3.79 17.8-18.6-13.6-16.2-23.2-43.9-1.06-57.4 12.4-7.14 47.5-2.29 32.2-25.9-3.33-22.4 23.7-44 43.7-30.1 4.05-9.54 5.86-33.1 26.2-30 26.7-3.91 18.4 38.4 43.3 32.8 21.1-1.59 57.6 11.8 42.7 38.6-4.18 17.1-35 22.6-35.2 35.2 19.3 3.38 33.8 26.1 19.4 42.8-3.82 12.5-36.3 6.86-32.3 14.9 14.6 9.82 51.5 18 46.1 37.2-17.9 12-40.6 3.16-60.4 2.39-25-3.24 21 17.7 25.1 29.8 21.2 25.6-19.4 30.9-37.2 30.6-25.5-6.19-7.97 26.9-13 41.1-2.4 57.2-4.42 114-7.67 171 6.85 0.2 13.7 0.4 20.6 0.6z" stroke-width="24"/><g stroke-width="12"><path d="m299 494c2.61-72.8 5.21-146 7.82-218" stroke-linecap="round"/><path d="m279 427c-1.83-63.2-3.65-126-5.48-190" stroke-linecap="round"/><path d="m378 474c17.9 4.26 56.4 5.98 54 29-15.5 16.9-41.2 17-62.1 22.7-66.5 11.5-135 7.57-200-10.2-25.4-4.68-30.4-36.8-2.3-40.4 11-3.78 36.4 2.67 34.2-15.8-23.4 3.57-59.2 4-66.5 31.8 0.5 26.7 31.8 35.3 53.3 40.1 71.9 16.3 148 16.3 219-2.9 16.8-5.17 48.6-17.3 33.7-39.9-13.8-17.9-37.7-21.1-58.4-24.2-4.93 0.45-5.51 6.2-4.89 9.9z"/></g></g><path d="m140 490c9.5-22 37.4-21.7 57.6-25.1 59.1-5.02 119-2.96 178 3.14 22 3.06 47.3 6.74 62.6 24.4 6.81 24.6-29.8 28.9-46.8 34.1-71.9 16.3-148 14.5-219-5.71-14-4.68-33.6-12.6-32-30.7z" fill="#bbd9ec" stroke="#0073be" stroke-linejoin="round" stroke-width="10.8"/><path d="m256 535c-4.58-67.2-5.51-135-8.09-202-3.24-13.5 3.79-40.5-6.49-44.8-23 5.4-53 12.5-71.1-7.49-15.4-17.8-19.5-52.9 6.36-63.5 10.3-8.95 39.1-3.88 40.1-10.5-16.3-16.7-35.4-47.5-12.5-66.9 11.2-10.8 27.9-16.4 43.2-12.8-20.1-21.3 5.23-57 31-56.8 15.7-3.49 18.4-30.3 40.8-25 30.1-5.02 28.7 38.1 56.4 34.2 21.5-1.06 47.2 14.4 44.7 38.5 4.73 22.1-35.5 29.9-24.5 47.5 19.3 13.7 10.8 47.9-9.77 56.6 23.1 4.7 47.4 40.8 14.3 50.3-11 2.23-42.4-3.03-20 13.9 17.1 22.5-8.48 46.4-32 42.7-27-4.85-18.6 22.6-20 39.2-2.14 56-5.25 112-8.24 168-21.4 0.5-42.8-1.6-64.3-1.1z" fill="#bbd9ec"/><path d="m299 494c2.61-72.8 5.21-146 7.82-218" fill="none" stroke="#0073be" stroke-linecap="round" stroke-width="10.8"/><g fill="#0073be"><path d="m279 427c-1.83-63.2-3.65-126-5.48-190" stroke="#0073be" stroke-linecap="round" stroke-width="10.8"/><path d="m331 535c3.18-64.1 7.6-128 9.01-192 21.8-1.62 55-6.51 57-33.8-3.74-11.6-9.08-29.7 10.6-26.4 22.5-6.33 29.6-39.4 7.6-51.2-19.5-14.8 14-35.1-0.84-55-14.4-18.1 8.53-26.4 13-43.2 8.79-19.5 0.58-44.3-19.3-53.4-17.8-12.9-45.5-2.14-52.9-26.3-17.6-21.3-54.3-23.5-71.6-0.52-14.8 15.9-41.4 14.6-49.6 38.3-7.96 13.2 0.94 30.8-19.2 30.8-22.4 8.49-40 34.1-30 58 8.06 11.2 16.3 29.9-6.45 26.5-29.9 7.97-39.5 44.8-25 70 10.6 26.1 41.8 36.2 67.4 28.3 26.3-6.04 11.8 29.2 16.5 43.8 2.54 60.5 4.33 121 8.73 181 11.9 8.2 26.6 2.8 20.4-13.7-4.93-80.1-6.75-160-10.7-241-24.7 4.79-54 16.3-76.8 0.21-18.8-19.2-2.31-51.4 21.7-56 11.4-1.96 35.7-3.79 17.8-18.6-13.6-16.2-23.2-43.9-1.06-57.4 12.4-7.14 47.5-2.29 32.2-25.9-3.33-22.4 23.7-44 43.7-30.1 4.05-9.54 5.86-33.1 26.2-30 26.7-3.91 18.4 38.4 43.3 32.8 21.1-1.59 57.6 11.8 42.7 38.6-4.18 17.1-35 22.6-35.2 35.2 19.3 3.38 33.8 26.1 19.4 42.8-3.82 12.5-36.3 6.86-32.3 14.9 14.6 9.82 51.5 18 46.1 37.2-17.9 12-40.6 3.16-60.4 2.39-25-3.24 21 17.7 25.1 29.8 21.2 25.6-19.4 30.9-37.2 30.6-25.5-6.19-7.97 26.9-13 41.1-2.4 57.2-4.42 114-7.67 171 6.85 0.2 13.7 0.4 20.6 0.6z" stroke-width="24"/><path d="m378 474c17.9 4.26 56.4 5.98 54 29-15.5 16.9-41.2 17-62.1 22.7-66.5 11.5-135 7.57-200-10.2-25.4-4.68-30.4-36.8-2.3-40.4 11-3.78 36.4 2.67 34.2-15.8-23.4 3.57-59.2 4-66.5 31.8 0.5 26.7 31.8 35.3 53.3 40.1 71.9 16.3 148 16.3 219-2.9 16.8-5.17 48.6-17.3 33.7-39.9-13.8-17.9-37.7-21.1-58.4-24.2-4.93 0.45-5.51 6.2-4.89 9.9z" stroke-width="12"/></g></svg>
