<svg height="580" width="580" xmlns="http://www.w3.org/2000/svg"><path d="m217.26 53.057c100.91 37.547 201.81 75.103 302.7 112.633-100.71 40.99-201.42 81.99-302.14 122.99-.18-78.55-.37-157.08-.56-235.623z" fill="none" opacity=".8" stroke="#fff" stroke-linejoin="round" stroke-width="57.47"/><path d="m207.07 58.186h24.78v469.604c-8.26 0-16.52 0-24.78 0 0-156.53 0-313.06 0-469.604z" style="opacity:.8;fill:#da0600;stroke:#fff;stroke-linejoin:round;stroke-linecap:square;stroke-width:86.2"/><path d="m207.07 58.186h24.78v469.604c-8.26 0-16.52 0-24.78 0 0-156.53 0-313.06 0-469.604z" fill="#fff" stroke="#2f922e" stroke-linecap="square" stroke-width="30.439"/><path d="m217.26 53.057c100.91 37.547 201.81 75.103 302.7 112.633-100.71 40.99-201.42 81.99-302.14 122.99-.18-78.55-.37-157.08-.56-235.623z" fill="#2f922e" fill-rule="evenodd"/></svg>