<svg height="580" width="580" xmlns="http://www.w3.org/2000/svg"><g transform="translate(0 -472.36218)"><path d="m220.1 618.28c45.38.34 90.81-.7 136.16.57 55.16 4.03 102.98 53.8 101.72 109.66-.21 65.93.43 131.89-.33 197.8-3.2 55.83-54.74 101.69-110.08 101.69-46.36-.3-92.76.7-139.09-.6-55.15-4-102.99-53.73-101.72-109.59.21-65.93-.43-131.89.33-197.81 3.56-57.35 56.2-102.86 113.01-101.72z"/><path d="m220.18 647.55c44.33.27 88.7-.55 133.01.43 44.35 3.32 79.51 46.27 75.52 90.29-.88 26.78 2.23 53.91-2.64 80.35-9.29 40-50.4 67.1-90.71 63.07-41.27-.26-82.57.54-123.81-.43-44.35-3.32-79.51-46.27-75.52-90.29.88-26.78-2.23-53.91 2.64-80.35 8.8-36.46 43.99-63.71 81.51-63.07z" fill="#fff" opacity=".9"/><path d="m267.74 471.94h29.26v160.98c-9.75 0-19.51 0-29.26 0 0-53.66 0-107.32 0-160.98z"/></g></svg>