<?xml version="1.0" encoding="UTF-8" standalone="no"?>
<svg
   xmlns:dc="http://purl.org/dc/elements/1.1/"
   xmlns:cc="http://creativecommons.org/ns#"
   xmlns:rdf="http://www.w3.org/1999/02/22-rdf-syntax-ns#"
   xmlns:svg="http://www.w3.org/2000/svg"
   xmlns="http://www.w3.org/2000/svg"
   xmlns:sodipodi="http://sodipodi.sourceforge.net/DTD/sodipodi-0.dtd"
   xmlns:inkscape="http://www.inkscape.org/namespaces/inkscape"
   height="857"
   width="580"
   version="1.1"
   id="svg8"
   sodipodi:docname="goods_lift_ctr.svg"
   inkscape:version="1.0.1 (3bc2e813f5, 2020-09-07)">
  <metadata
     id="metadata14">
    <rdf:RDF>
      <cc:Work
         rdf:about="">
        <dc:format>image/svg+xml</dc:format>
        <dc:type
           rdf:resource="http://purl.org/dc/dcmitype/StillImage" />
        <dc:title></dc:title>
      </cc:Work>
    </rdf:RDF>
  </metadata>
  <defs
     id="defs12" />
  <sodipodi:namedview
     pagecolor="#ffffff"
     bordercolor="#666666"
     borderopacity="1"
     objecttolerance="10"
     gridtolerance="10"
     guidetolerance="10"
     inkscape:pageopacity="0"
     inkscape:pageshadow="2"
     inkscape:window-width="1920"
     inkscape:window-height="1001"
     id="namedview10"
     showgrid="false"
     inkscape:zoom="0.71551724"
     inkscape:cx="285.80723"
     inkscape:cy="350.79517"
     inkscape:window-x="-9"
     inkscape:window-y="-9"
     inkscape:window-maximized="1"
     inkscape:current-layer="svg8"
     inkscape:document-rotation="0" />
  <path
     id="path843"
     style="opacity:0.8;fill:none;stroke:#ffffff;stroke-width:47.764;stroke-linecap:round;stroke-linejoin:round;stroke-miterlimit:4;stroke-dasharray:none"
     d="m 277.51719,345.05441 h 30.95598 v 304.00478 c -10.31507,0 -20.64091,0 -30.95598,0 0,-101.33492 0,-202.66985 0,-304.00478 z M 465.34518,647.9412 c -0.6,31.68 1.34,63.49 -1.28,95.06 -7.4,53.86 -60.14,94.64 -113.83,91.64 -44.18,-0.5 -88.44,1 -132.56,-0.9 -53.97,-5.2 -99.54,-55.14 -97.03,-109.84 0,-25.32 0,-50.64 0,-75.96 z" />
  <path
     d="m 465.34518,647.9412 c -0.6,31.68 1.34,63.49 -1.28,95.06 -7.4,53.86 -60.14,94.64 -113.83,91.64 -44.18,-0.5 -88.44,1 -132.56,-0.9 -53.97,-5.2 -99.54,-55.14 -97.03,-109.84 0,-25.32 0,-50.64 0,-75.96 z"
     id="path2" />
  <path
     d="m 278.63518,288.8712 h 28.72 v 359.07 c -9.57,0 -19.15,0 -28.72,0 0,-119.69 0,-239.38 0,-359.07 z"
     id="path4" />
  <rect
     style="opacity:0.8;fill:none;stroke:none;stroke-width:50;stroke-linecap:round;stroke-linejoin:round;stroke-opacity:0.8;paint-order:stroke fill markers"
     id="rect832"
     width="580"
     height="806.40967"
     x="6.9879518"
     y="50.313251" />
</svg>
