<svg height="580" width="580" xmlns="http://www.w3.org/2000/svg"><path d="m290.13437 25.376185c-25.13451-1.137136-30.96753 25.536334-28.57339 45.227386v483.733429h57.1468c-.10929-167.86614.21858-335.74253-.16393-503.602256-.72858-14.608551-14.05651-25.80594-28.40948-25.358559zm-190.489249 28.852407c-25.398568 19.234936-50.797137 38.469872-76.195705 57.704808 25.398568 19.23494 50.797137 38.46988 76.195705 57.70482h152.391419c0-38.46988 0-76.939752 0-115.409628-50.79714 0-101.59428 0-152.391419 0zm228.587089 115.409628v115.40964h152.39141c25.39857-19.23494 50.79715-38.46989 76.19572-57.70483-25.39857-19.23494-50.79715-38.46987-76.19572-57.70481-50.79714 0-101.59427 0-152.39141 0z" style="opacity:.8;fill:#fff;stroke:#fff;stroke-width:47.7749;stroke-linecap:round;stroke-linejoin:round"/><path d="m290.13437 25.376185c-25.13451-1.137136-30.96753 25.536334-28.57339 45.227386v483.733429h57.1468c-.10929-167.86614.21858-335.74253-.16393-503.602256-.72858-14.608551-14.05651-25.80594-28.40948-25.358559zm-190.489249 28.852407c-25.398568 19.234936-50.797137 38.469872-76.195705 57.704808 25.398568 19.23494 50.797137 38.46988 76.195705 57.70482h152.391419c0-38.46988 0-76.939752 0-115.409628-50.79714 0-101.59428 0-152.391419 0zm228.587089 115.409628v115.40964h152.39141c25.39857-19.23494 50.79715-38.46989 76.19572-57.70483-25.39857-19.23494-50.79715-38.46987-76.19572-57.70481-50.79714 0-101.59427 0-152.39141 0z" fill="#734a08"/></svg>