<svg height="580" width="580" xmlns="http://www.w3.org/2000/svg"><path d="m376.72 80.753c1.6 32.637-40.07 54.617-66.1 34.867-27.86-17.113-22.45-63.902 8.54-74.249 26.53-11.252 58.45 10.514 57.56 39.382zm-27.83 244.377c-11.08-17.29-20.15-35.89-31.45-53.03-17.59-20.48-48.36 9.15-30.29 28.26 5.31 9.2 10.62 18.41 15.92 27.63-12.59 8.15-27.19 13.69-38.16 23.94-15.66 20.23 14.9 43.8 32.06 26.69 16.69-10.39 35.17-18.55 50.47-30.65 4.85-6.48 5.63-15.83 1.45-22.84zm-76.33-191.39c-6.35-16.25-24.53-10.53-36.25-4.63-12.9 5.74-27.01 9.38-38.95 16.74-12.16 12.78 1.14 28.14 4.98 41.56 6.4 12.08 7.02 30.32 22.25 34.7 19.94 3.96 25.95-20.02 16.32-33.44-.85-6.6-10.37-16.95-5.55-21.11 12.43-6.52 29.41-7.44 37.04-20.37 1.82-4.23 1.89-9.17.16-13.45zm137.88 252.48c-98.2 17.07-196.53 33.47-294.64 50.99-36.288 8.41-51.807 57.86-26.94 85.5 14.34 19.55 39.17 20.43 61 19.48 93.71-.27 187.45.54 281.14-.41 46.14-3.31 80.94-53.13 67.94-97.6-9.27-38.48-49.5-64.72-88.5-57.96zm1.99 13.29c39.18-7.55 78.79 27.64 75.46 67.49-.79 36.18-35.82 65.59-71.49 61.74-96.79-.13-193.6.28-290.39-.21-30.788-1.66-47.449-42.74-26.668-65.42 15.608-18.6 42.438-14.84 63.738-20.67 83.11-14.31 166.23-28.62 249.35-42.93zm67.22 64.25c1.63 39.01-43.45 68.83-78.73 52.18-36.53-13.69-46.52-66.81-17.41-92.82 26.85-28.35 79.67-16.81 92.29 20.11 2.54 6.53 3.85 13.53 3.85 20.53zm-317.86 24.97c1.34 25.89-33.17 41.94-52.11 24.24-20.67-15.66-10.701-52.39 15.03-55.47 18.76-3.71 37.55 12.1 37.08 31.23zm236.28-319.44c-8.3-14.96-25.14-6.72-35.72.43-6.78 2.72-15.81 13.42-18.37 1.22-6.74-12.22-13.95-24.27-19.96-36.77-14.26-17.16-35.72-2.04-39.13 15.5-33.96 78.75-67.93 157.49-101.9 236.24-12.2 26.36 33.12 40.67 39.07 12.54 30.47-70.68 60.95-141.36 91.43-212.03 7.54 10.51 10.22 26.15 23.11 31.28 13.7 2.35 24.18-9.6 36.13-14.63 10.69-7.18 28.88-11.11 27.42-27.36l-.7-3.27z" style="opacity:.8;fill:none;stroke:#fff;stroke-linejoin:round;stroke-linecap:round;stroke-width:57.62"/><g fill="#2f922e"><path d="m398.07 169.29c-8.3-14.96-25.14-6.72-35.72.43-6.78 2.72-15.81 13.42-18.37 1.22-6.74-12.22-13.95-24.27-19.96-36.77-14.26-17.16-35.72-2.04-39.13 15.5-33.96 78.75-67.93 157.49-101.9 236.24-12.2 26.36 33.12 40.67 39.07 12.54 30.47-70.68 60.95-141.36 91.43-212.03 7.54 10.51 10.22 26.15 23.11 31.28 13.7 2.35 24.18-9.6 36.13-14.63 10.69-7.18 28.88-11.11 27.42-27.36l-.7-3.27z"/><path d="m161.79 488.73c1.34 25.89-33.17 41.94-52.11 24.24-20.67-15.66-10.701-52.39 15.03-55.47 18.76-3.71 37.55 12.1 37.08 31.23z"/><path d="m479.65 463.76c1.63 39.01-43.45 68.83-78.73 52.18-36.53-13.69-46.52-66.81-17.41-92.82 26.85-28.35 79.67-16.81 92.29 20.11 2.54 6.53 3.85 13.53 3.85 20.53z"/><path d="m410.44 386.22c-98.2 17.07-196.53 33.47-294.64 50.99-36.288 8.41-51.807 57.86-26.94 85.5 14.34 19.55 39.17 20.43 61 19.48 93.71-.27 187.45.54 281.14-.41 46.14-3.31 80.94-53.13 67.94-97.6-9.27-38.48-49.5-64.72-88.5-57.96zm1.99 13.29c39.18-7.55 78.79 27.64 75.46 67.49-.79 36.18-35.82 65.59-71.49 61.74-96.79-.13-193.6.28-290.39-.21-30.788-1.66-47.449-42.74-26.668-65.42 15.608-18.6 42.438-14.84 63.738-20.67 83.11-14.31 166.23-28.62 249.35-42.93z"/><path d="m272.56 133.74c-6.35-16.25-24.53-10.53-36.25-4.63-12.9 5.74-27.01 9.38-38.95 16.74-12.16 12.78 1.14 28.14 4.98 41.56 6.4 12.08 7.02 30.32 22.25 34.7 19.94 3.96 25.95-20.02 16.32-33.44-.85-6.6-10.37-16.95-5.55-21.11 12.43-6.52 29.41-7.44 37.04-20.37 1.82-4.23 1.89-9.17.16-13.45z"/><path d="m348.89 325.13c-11.08-17.29-20.15-35.89-31.45-53.03-17.59-20.48-48.36 9.15-30.29 28.26 5.31 9.2 10.62 18.41 15.92 27.63-12.59 8.15-27.19 13.69-38.16 23.94-15.66 20.23 14.9 43.8 32.06 26.69 16.69-10.39 35.17-18.55 50.47-30.65 4.85-6.48 5.63-15.83 1.45-22.84z"/><path d="m376.72 80.753c1.6 32.637-40.07 54.617-66.1 34.867-27.86-17.113-22.45-63.902 8.54-74.249 26.53-11.252 58.45 10.514 57.56 39.382z"/></g></svg>