<svg height="580" width="580" xmlns="http://www.w3.org/2000/svg"><path d="m536.83 287.05c6.07 159.68-168.38 288.02-318.99 235.24-154.237-41.43-225.5658-245.94-130.456-374.27 85.156-135.153 301.596-142.8181 396.096-14.02 34.37 43.09 53.49 97.95 53.35 153.05z" opacity=".8" stroke="#fff" stroke-linecap="round" stroke-linejoin="round" stroke-width="61.5"/><g stroke="#0073be"><path d="m536.83 287.05c6.07 159.68-168.38 288.02-318.99 235.24-154.237-41.43-225.5658-245.94-130.456-374.27 85.156-135.153 301.596-142.8181 396.096-14.02 34.37 43.09 53.49 97.95 53.35 153.05z" fill="#fff" stroke-width="21.449"/><path d="m170.89 123.98h43.38v131.42h157.63c0-43.81 0-87.61 0-131.42h43.37v320.61c-14.46 0-28.91 0-43.37 0 0-50.89 0-101.78 0-152.67-52.54 0-105.09 0-157.63 0v152.67c-14.46 0-28.92 0-43.38 0 0-106.87 0-213.74 0-320.61z" fill="#0073be" stroke-linecap="round" stroke-linejoin="round" stroke-width="17.403"/></g></svg>