<svg height="580" width="580" xmlns="http://www.w3.org/2000/svg"><path d="m535.82 285.97c6.12 161.03-169.8 290.45-321.68 237.22-155.539-41.78-227.47-248.01-131.558-377.43 85.878-136.2937 304.138-144.0234 399.448-14.14 34.66 43.46 53.93 98.78 53.79 154.35z" style="opacity:.8;fill:none;stroke:#fff;stroke-linejoin:round;stroke-linecap:round;stroke-width:71"/><g stroke="#da0600"><path d="m535.82 285.97c6.12 161.03-169.8 290.45-321.68 237.22-155.539-41.78-227.47-248.01-131.558-377.43 85.878-136.2937 304.138-144.0234 399.448-14.14 34.66 43.46 53.93 98.78 53.79 154.35z" fill="#fff" stroke-width="21.632"/><path d="m468.66 326.89c-120.76 0-241.51 0-362.27 0 0-27.28 0-54.56 0-81.84h362.27z" fill="#da0600" stroke-linejoin="round" stroke-width="20"/><path d="m246.6 467.11c0-120.76 0-241.51 0-362.27h81.84v362.27c-27.28 0-54.56 0-81.84 0z" fill="#da0600" stroke-linejoin="round" stroke-width="20"/></g></svg>