<svg height="580" width="580" xmlns="http://www.w3.org/2000/svg"><path d="m9.2857 16.018a1.5179 1.3393 0 1 1 -3.0357 0 1.5179 1.3393 0 1 1 3.0357 0zm-.2402 11.787a1.5179 1.3393 0 0 1 -3.0357 0 1.5179 1.3393 0 1 1 3.0357 0zm2.9435-9.501h8.951c.565 0 1.02.433 1.02.97 0 .538-.455.971-1.02.971h-8.951c-.565 0-1.02-.433-1.02-.971 0-.537.455-.97 1.02-.97zm-.24 11.787h8.951c.565 0 1.021.433 1.021.971 0 .538-.456.971-1.021.971h-8.951c-.565 0-1.02-.433-1.02-.971 0-.538.455-.971 1.02-.971zm-6.7889-10.262h3.8787c.1009 0 .1823.08.1823.173 0 .1-.081.173-.1823.173h-3.8787c-.1009 0-.1823-.08-.1823-.173 0-.1.081-.173.1823-.173zm-3.8298 3.023 25.3597.161m-21.7698 8.603h3.8787c.1009 0 .1823.08.1823.174 0 .1-.081.173-.1823.173h-3.8787c-.101 0-.1824-.08-.1824-.173 0-.1.081-.174.1824-.174zm21.6878 5.257.169-19.331m-25.69825 17.161 25.36025.161m-25.52932-22.382-.16906 24.874" style="opacity:.8;fill:none;stroke:#fff;stroke-linejoin:round;stroke-linecap:round;stroke-width:3.866" transform="matrix(18.921389 0 0 19.889185 34.117797 -204.86148)"/><g fill="#0073be" stroke="#0073be"><path d="m47.545774 43.393944-3.198996 494.726936" fill-rule="evenodd" stroke-linecap="round" stroke-width="35.829"/><path d="m50.744772 485.34997 479.849548 3.19899" fill-rule="evenodd" stroke-width="35.829"/><path d="m533.79332 528.52389 3.19899-384.4845" fill-rule="evenodd" stroke-linecap="round" stroke-width="35.829"/><rect height="38.605" rx="19.303" ry="19.302" stroke-width="34.702" width="207.97" x="237.13" y="393.63"/><path d="m9.2857143 16.017857a1.5178572 1.3392857 0 1 1 -3.0357144 0 1.5178572 1.3392857 0 1 1 3.0357144 0z" stroke-width="2.3" transform="matrix(18.921389 0 0 19.889185 29.572525 29.582841)"/><rect height="6.894" rx="3.447" stroke-width="30.18" width="80.29" x="119.98" y="423.96"/><path d="m55.503588 249.65197 479.849542 3.19899" fill-rule="evenodd" stroke-width="35.829"/><rect height="38.605" rx="19.303" ry="19.302" stroke-width="34.702" width="207.97" x="241.67" y="159.19"/><path d="m9.2857143 16.017857a1.5178572 1.3392857 0 1 1 -3.0357144 0 1.5178572 1.3392857 0 1 1 3.0357144 0z" stroke-width="2.3" transform="matrix(18.921389 0 0 19.889185 34.117797 -204.86148)"/><rect height="6.894" rx="3.447" stroke-width="30.18" width="80.29" x="124.52" y="189.52"/></g></svg>