<svg height="580" width="580" xmlns="http://www.w3.org/2000/svg"><path d="m367.59 73.254c-60.65 62.236-121.29 124.486-181.94 186.726h36.39v241.19h109.16c0-47.45 0-94.9 0-142.34h75.28v142.34h106.66c0-80.39 0-160.8 0-241.19h36.39c-60.65-62.24-121.29-124.49-181.94-186.726zm-225.94 49.686c-28.82 62.18-57.639 124.35-86.46 186.52 6.12 1.48 24.536-4.31 15.721 6-8.995 16.35-17.988 32.68-26.982 49.01 5.805 1.48 22.194-3.02 21.104 2.35-11.523 19.07-23.044 38.13-34.566 57.19 29.944-4.48 59.886-8.97 89.823-13.46v95.53c6.43-2.07 21.53 4.55 21.36-4.12 0-126.34 0-252.68 0-379.02zm.26 0v383.14c6.42-2.07 21.53 4.55 21.35-4.12 0-30.47 0-60.94 0-91.41 29.99 4.49 59.98 8.98 89.96 13.46-11.99-19.85-23.98-39.69-35.98-59.54 5.79-1.53 22.04 3.12 21.07-2.4-9.66-17.53-19.32-35.07-28.96-52.61 6.25-1.54 24.33 4.47 16.27-6.22-27.91-60.09-55.81-120.2-83.71-180.3z" style="opacity:.8;fill:none;stroke:#fff;stroke-linejoin:round;stroke-linecap:round;stroke-width:48.634"/><g stroke="#0073be"><path d="m137.48 118.25c-29.63 63.92-59.256 127.84-88.887 191.76 6.292 1.52 25.225-4.43 16.162 6.17-9.247 16.8-18.493 33.59-27.74 50.38 5.968 1.52 22.818-3.1 21.697 2.42-11.846 19.6-23.691 39.2-35.537 58.8 30.785-4.61 61.569-9.23 92.345-13.84v98.21c6.61-2.13 22.14 4.68 21.96-4.23 0-129.89 0-259.78 0-389.67zm.27 0v393.9c6.6-2.13 22.13 4.68 21.95-4.23 0-31.33 0-62.66 0-93.98 30.83 4.61 61.66 9.23 92.49 13.84-12.33-20.41-24.66-40.81-36.99-61.22 5.95-1.57 22.65 3.21 21.66-2.47-9.93-18.02-19.86-36.05-29.78-54.08 6.43-1.59 25.02 4.59 16.73-6.4-28.69-61.78-57.38-123.57-86.06-185.36z" fill="#0073be" fill-rule="evenodd" stroke-linecap="round" stroke-linejoin="round" stroke-width="4.258"/><path d="m369.77 67.164c-62.35 63.986-124.7 127.986-187.05 191.976h37.41v247.96h112.23c0-48.78 0-97.56 0-146.34h77.39v146.34h109.66c0-82.65 0-165.31 0-247.96h37.41c-62.35-63.99-124.7-127.99-187.05-191.976z" fill="#bbd9ec" fill-rule="evenodd" stroke-width="1.07"/><path d="m369.77 67.164c-62.35 63.986-124.7 127.986-187.05 191.976h37.41v247.96h112.23c0-48.78 0-97.56 0-146.34h77.39v146.34h109.66c0-82.65 0-165.31 0-247.96h37.41c-62.35-63.99-124.7-127.99-187.05-191.976z" fill="none" stroke-linecap="round" stroke-linejoin="round" stroke-width="10"/></g></svg>