<svg height="580" width="580" xmlns="http://www.w3.org/2000/svg"><path d="m94.729 293.37h89.571c2.22 0 4 1.78 4 4 0 2.21-1.78 4-4 4h-89.571c-2.215 0-3.999-1.79-3.999-4 0-2.22 1.784-4 3.999-4zm102.081-94.9a34.901 30.902 0 0 1 -69.8 0 34.901 30.902 0 1 1 69.8 0zm58.67 59.71h207.94c12.4 0 22.39 9.99 22.39 22.39 0 12.41-9.99 22.4-22.39 22.4h-207.94c-12.4 0-22.39-9.99-22.39-22.4 0-12.4 9.99-22.39 22.39-22.39zm278.31 174.34 3.2-163.14m-486.245 79.97 479.845 3.2m-483.044-159.95-3.199 249.52" style="opacity:.8;fill:none;stroke:#fff;stroke-linejoin:round;stroke-linecap:round;stroke-width:75"/><g fill="#0073be" stroke="#0073be"><path d="m47.545774 192.59912-3.198996 249.52176" fill-rule="evenodd" stroke-linecap="round" stroke-width="35.829"/><path d="m50.744772 349.34997 479.849548 3.19899" fill-rule="evenodd" stroke-width="35.829"/><path d="m533.79332 432.52389 3.19899-163.14885" fill-rule="evenodd" stroke-linecap="round" stroke-width="35.829"/><rect height="44.786" rx="22.393" stroke-width="41.2" width="252.72" x="233.09" y="258.18"/><path d="m9.2857143 16.017857a1.5178572 1.3392857 0 1 1 -3.0357144 0 1.5178572 1.3392857 0 1 1 3.0357144 0z" stroke-width="2.3" transform="matrix(22.993274 0 0 23.073314 -16.698545 -171.11131)"/><rect height="7.997" rx="3.999" ry="3.998" stroke-width="35.829" width="97.57" x="90.73" y="293.37"/></g></svg>