<svg height="580" width="580" xmlns="http://www.w3.org/2000/svg"><g stroke="#fff"><path d="m115.87 350.12h348c31.74 30.98 48.76 73.33 64.9 113.64-8.93 18.52-36.51 11.19-54 13.54-136.36 0-272.72 0-409.079 0-24.305-15.52.681-41.15 7.547-59.49 11.01-21.7 21.466-43.74 34.152-64.52l3.94-2.39zm10.97-287.146c109.76.219 219.53-.433 329.29.326 24.1 14.792 8.11 46.92 12.75 69.68 0 60.45.31 120.91 0 181.36-19.81 25.95-56.57 6.6-83.9 12.75-87.03 0-174.06.38-261.1-.31-24.372-14.6-8.41-46.89-13.03-69.66 0-60.45-.37-120.9.31-181.354 1.3-7.281 8.42-12.978 15.68-12.792z" fill="none" opacity=".8" stroke-linecap="round" stroke-linejoin="round" stroke-width="71.34"/><path d="m115.87 350.12h348c21.81 9.6 24.4 38.58 37.27 57.14 9.49 18.51 19.11 36.97 27.55 55.99-5.95 20.12-30.69 12.76-46.6 14.05-138.8-.1-277.6.18-416.399-.13-29.01-9.84.04-38.91 5.947-56.14 11.804-22.6 21.871-46.43 35.752-67.74 2.32-2.02 5.37-3.29 8.48-3.17z" fill="none" stroke-width="32.34"/><path d="m85.408 380.37h408.362" fill="none" stroke-width="8.09"/><path d="m73.398 401.47h430.712" fill="none" stroke-width="8.09"/><path d="m64.131 425.37h451.669" fill="none" stroke-width="8.09"/><path d="m115.87 350.12h348c21.81 9.6 24.4 38.58 37.27 57.14 9.49 18.51 19.11 36.97 27.55 55.99-5.95 20.12-30.69 12.76-46.6 14.05-138.8-.1-277.6.18-416.399-.13-29.01-9.84.04-38.91 5.947-56.14 11.804-22.6 21.871-46.43 35.752-67.74 2.32-2.02 5.37-3.29 8.48-3.17z" fill="#fff" stroke-width="32.34"/><path d="m85.408 380.37h408.362" fill="#fff" stroke-width="8.09"/><path d="m73.398 401.47h430.712" fill="#fff" stroke-width="8.09"/><path d="m64.131 425.37h451.669" fill="#fff" stroke-width="8.09"/></g><path d="m126.84 62.974c109.76.216 219.53-.432 329.29.325 22.38 10.62 9.27 40.971 12.75 60.761-.1 63.42.39 126.85-.28 190.28-13.52 23.98-48.31 8.08-71.04 12.75-91.32 0-182.64.4-273.96-.28-22.38-10.62-9.27-40.97-12.75-60.77.1-63.42-.39-126.85.28-190.274 1.33-7.263 8.33-12.961 15.71-12.792z" fill="#fff" stroke="#734a08" stroke-width="32.34"/><path d="m126.84 62.974c109.76.216 219.53-.432 329.29.325 22.38 10.62 9.27 40.971 12.75 60.761-.1 63.42.39 126.85-.28 190.28-13.52 23.98-48.31 8.08-71.04 12.75-91.32 0-182.64.4-273.96-.28-22.38-10.62-9.27-40.97-12.75-60.77.1-63.42-.39-126.85.28-190.274 1.33-7.263 8.33-12.961 15.71-12.792z" fill="none" stroke="#734a08" stroke-width="32.34"/><path d="m126.84 62.974c109.76.216 219.53-.432 329.29.325 22.38 10.62 9.27 40.971 12.75 60.761-.1 63.42.39 126.85-.28 190.28-13.52 23.98-48.31 8.08-71.04 12.75-91.32 0-182.64.4-273.96-.28-22.38-10.62-9.27-40.97-12.75-60.77.1-63.42-.39-126.85.28-190.274 1.33-7.263 8.33-12.961 15.71-12.792z" fill="#734a08" opacity=".1" stroke="#734a08" stroke-width="32.34"/><g fill="none" stroke="#734a08" transform="matrix(31.341 0 0 31.341 39.133 91.99)"><path d="m2.4484 8.2362h11.1036c.696.3063.779 1.2308 1.189 1.8238.303.59.61 1.179.879 1.786-.189.643-.979.407-1.487.448-4.4284 0-8.8572 0-13.28561 0-.92561-.315.001-1.241.18971-1.792.3767-.7244.6977-1.4851 1.1407-2.1648.074-.0644.1714-.1048.2706-.101z" stroke-width="1.032"/><g stroke-width=".258"><path d="m1.4765 9.2012h13.0295"/><path d="m1.0933 9.8746h13.7427"/><path d="m.79761 10.637h14.41139"/></g></g><g fill="#734a08" opacity=".1" stroke="#fff" transform="matrix(31.341 0 0 31.341 39.133 91.99)"><path d="m2.4484 8.2362h11.1036c.696.3063.779 1.2308 1.189 1.8238.303.59.61 1.179.879 1.786-.189.643-.979.407-1.487.448-4.4284 0-8.8572 0-13.28561 0-.92561-.315.001-1.241.18971-1.792.3767-.7244.6977-1.4851 1.1407-2.1648.074-.0644.1714-.1048.2706-.101z" stroke-width="1.032"/><g stroke-width=".258"><path d="m1.4765 9.2012h13.0295"/><path d="m1.0933 9.8746h13.7427"/><path d="m.79761 10.637h14.41139"/></g></g><path d="m272.78 119.2c.4-33.837 57.19-12.28 33.05 13.8-11.74 13.75-33.47 3.4-33.05-13.8zm-20.42 174.05c-4.25-11.96 7.47-10.37 15.83-11.62 13.17-8.6 4.64-29.88 6.89-43.99-.57-13.95 1.07-27.98-.69-41.85-7.89-3.83-33.65-10.67-13.28-15.01 18.53 1.6 28.42-19.4 45.38-17.96 2.54 38.68-.98 78.47.43 117.59 11.59-2.21 33.37 12.28 12.26 12.77-22.25-1.04-44.59-1.53-66.82.1z" fill="#734a08"/></svg>