<svg height="580" width="580" xmlns="http://www.w3.org/2000/svg"><g fill="#734a08"><path d="m248.99 83.747c0-13.527 4.38-24.613 13.15-33.256 8.77-8.642 20.04-12.964 33.82-12.964 14.78 0 27.05 4.572 36.82 13.716s14.66 19.478 14.66 31.001c0 8.518-1.94 17.036-5.83 25.556-3.88 8.51-10.02 15.34-18.41 20.48-8.39 5.13-16.97 7.7-25.74 7.7-12.02 0-23.11-5.14-33.26-15.41-10.14-10.27-15.21-22.543-15.21-36.823zm-52.61 448.303-.75-24.43 42.46-5.63c6.26-1.76 10.58-4.33 12.96-7.71s3.57-10.96 3.57-22.73v-4.14c0-3 .19-8.45.57-16.34.37-7.89.56-14.85.56-20.86 0-4.76-.38-13.9-1.13-27.43l.38-18.79-.38-17.66.75-61.25c0-7.77-.75-15.78-2.25-24.05-2.76-3.76-7.77-7.01-15.03-9.77-7.27-2.76-19.92-4.76-37.95-6.01v-21.05c25.8-1.5 48.47-6.89 68.01-16.16 13.28-6.01 27.68-16.65 43.21-31.94h25.18c1 31.07 1.5 71.4 1.5 121l-2.63 153.32c0 10.52.51 20.04 1.51 28.56 7.76 2.75 20.41 5.51 37.95 8.27 6.76 1 12.15 2.25 16.16 3.75l-.38 20.67c-6.76.25-11.77.38-15.03.38-3.76 0-9.52-.25-17.28-.75-25.56-1.26-59.75-1.88-102.59-1.88-12.28 0-24.18.44-35.7 1.31-11.52.88-19.41 1.32-23.67 1.32z" opacity=".8" stroke="#fff" stroke-linecap="round" stroke-linejoin="round" stroke-width="49.821"/><path d="m248.99 83.747c0-13.527 4.38-24.613 13.15-33.256 8.77-8.642 20.04-12.964 33.82-12.964 14.78 0 27.05 4.572 36.82 13.716s14.66 19.478 14.66 31.001c0 8.518-1.94 17.036-5.83 25.556-3.88 8.51-10.02 15.34-18.41 20.48-8.39 5.13-16.97 7.7-25.74 7.7-12.02 0-23.11-5.14-33.26-15.41-10.14-10.27-15.21-22.543-15.21-36.823zm-52.61 448.303-.75-24.43 42.46-5.63c6.26-1.76 10.58-4.33 12.96-7.71s3.57-10.96 3.57-22.73v-4.14c0-3 .19-8.45.57-16.34.37-7.89.56-14.85.56-20.86 0-4.76-.38-13.9-1.13-27.43l.38-18.79-.38-17.66.75-61.25c0-7.77-.75-15.78-2.25-24.05-2.76-3.76-7.77-7.01-15.03-9.77-7.27-2.76-19.92-4.76-37.95-6.01v-21.05c25.8-1.5 48.47-6.89 68.01-16.16 13.28-6.01 27.68-16.65 43.21-31.94h25.18c1 31.07 1.5 71.4 1.5 121l-2.63 153.32c0 10.52.51 20.04 1.51 28.56 7.76 2.75 20.41 5.51 37.95 8.27 6.76 1 12.15 2.25 16.16 3.75l-.38 20.67c-6.76.25-11.77.38-15.03.38-3.76 0-9.52-.25-17.28-.75-25.56-1.26-59.75-1.88-102.59-1.88-12.28 0-24.18.44-35.7 1.31-11.52.88-19.41 1.32-23.67 1.32z"/></g></svg>