<svg height="580" width="580" xmlns="http://www.w3.org/2000/svg"><path d="m501.29 34.199c-.75-.025-1.5-.022-2.24.014-142.66 1.275-285.34-1.134-427.982 1.301-14.913 3.876-21.391 21.308-18.972 35.326 1.552 101.95-1.414 203.98 1.59 305.88 4.73 14.53 22.388 20.24 36.406 17.39 139.558-.47 279.138.97 418.678-.8 15.22-3.95 22.03-21.86 18.87-36.17-.53-101.38 1.15-202.85-.97-304.179-2.7-11.24-14.17-18.38-25.38-18.762zm-435.489 372.601 1.662 130.48h43.297l-.72-129.03zm407.129 8.89-.52 122.52h44.03l.72-122.52z" style="opacity:.8;fill:none;stroke:#fff;stroke-linejoin:round;stroke-linecap:round;stroke-width:40"/><path d="m499.05 34.213c-142.66 1.275-285.34-1.135-427.981 1.3-14.913 3.876-21.392 21.308-18.973 35.326 1.552 101.951-1.414 203.981 1.59 305.881 4.73 14.53 22.387 20.24 36.405 17.39 139.559-.47 279.139.97 418.679-.8 15.22-3.95 22.03-21.86 18.87-36.17-.53-101.38 1.15-202.85-.97-304.179-2.88-11.989-15.74-19.315-27.62-18.748z" fill="#d0c2ac" stroke-width="10"/><g fill="#734a08"><path d="m483.08 57.541h20.31v470.519h-20.1l-.21-470.519z" fill-rule="evenodd" stroke="#734a08" stroke-linecap="round" stroke-linejoin="round" stroke-width="24.932"/><path d="m77.401 59.528h20.314v466.882h-20.102l-.212-466.882z" fill-rule="evenodd" stroke="#734a08" stroke-linecap="round" stroke-linejoin="round" stroke-width="24.834"/><path d="m266.16 110.8c0-7.45 2.4-13.563 7.26-18.356 4.88-4.792 11.09-7.176 18.72-7.176 8.15 0 14.97 2.483 20.38 7.536 5.42 5.054 8.07 10.816 8.07 17.196 0 4.7-1.06 9.4-3.2 14.09-2.12 4.7-5.57 8.51-10.18 11.35-4.62 2.83-9.41 4.26-14.28 4.26-6.66 0-12.76-2.84-18.35-8.52-5.58-5.67-8.42-12.49-8.42-20.38zm-29.07 247.86-.89-13.47 23.49-3.11c3.44-.97 5.85-2.39 7.17-4.24 1.32-1.87 1.94-6.13 1.94-12.6v-2.3c0-1.68 0-4.7 0-9.04 0-4.35 0-8.16 0-11.53 0-2.67 0-7.71-.86-15.16v-10.38-9.74l.86-33.87c0-4.34-.86-8.77-1.24-13.29-1.49-2.13-4.34-3.9-8.32-5.4-4.01-1.61-11-2.67-21.01-3.38v-11.61c14.27-.9 26.85-3.81 37.66-8.95 7.28-3.28 15.25-9.23 23.86-17.65h13.92c.88 17.2.88 39.45.88 66.93l-1.5 84.75c0 5.77 0 11.08.88 15.77 4.26 1.52 11.26 3.02 20.92 4.62 3.72.88 6.74 1.24 8.95 2.04v11.43c-3.71 0-6.55 0-8.33 0-2.04 0-5.23 0-9.57 0-14.1-.88-33.07-1.06-56.74-1.06-6.74 0-13.29 0-19.68.89-6.38.88-10.72.88-13.12.88z"/></g></svg>