<svg height="580" width="580" xmlns="http://www.w3.org/2000/svg"><path d="m509.54 26.926c-.78-.03-1.56-.02-2.33.01-148.26 1.328-296.56-1.175-444.79 1.357-15.495 4.028-22.227 22.141-19.711 36.714 1.613 105.943-1.471 211.983 1.651 317.893 3.492 10.72 13.762 16.82 24.641 18.39h-12.909l.221 151.61 46.717-.76v-150.85h-22.716c.632-.1 1.262-.2 1.881-.32 132.075-.45 264.185.73 396.255-.43l.23 152.56 48.24-.77-1.52-154.62h-2.22c11.66-6.62 16.57-22.33 13.74-35.2-.55-105.36 1.19-210.8-1-316.115-2.8-11.68-14.73-19.103-26.38-19.499z" style="opacity:.8;fill:none;stroke:#fff;stroke-linejoin:round;stroke-linecap:round;stroke-width:41.926"/><path d="m507.21 26.941c-148.26 1.324-296.56-1.18-444.79 1.352-15.495 4.028-22.227 22.14-19.711 36.713 1.613 105.944-1.471 211.984 1.651 317.894 4.917 15.09 23.261 21.03 37.835 18.07 145.035-.49 290.095.99 435.115-.84 15.83-4.1 22.88-22.72 19.61-37.59-.55-105.36 1.19-210.8-1-316.115-2.99-12.459-16.36-20.074-28.71-19.484zm-220.38 15.747c1.48-.02 2.95.382 4.14 1.257 25.15 33.721 47.93 69.215 72.44 103.445 5.29 3.95 5.99 14.87-1.81 16.29-17.49-4.52-33.83-12.83-50.58-19.58 0 22.03.52 44.35-2.01 66.18-6.77 6.59-17.31 3.19-25.8 3.63-8.07-.82-18.86 3.36-24.72-4.33-2.06-21.55.17-43.41.22-65.06-14.02 5.73-28.43 10.71-42.36 16.75-5.35 4.93-16.38.65-14.53-7.15 20.75-30.47 43.61-59.712 65.25-89.661 6.76-6.839 9.71-17.756 19.13-21.739.2-.02.43-.03.63-.03zm56.45 188.462c5.34-.22 11.03 2.83 11.01 8.73 0 46.22.87 92.54-.36 138.76-3.93 8.5-15.33 6.67-22.72 4.61-24.77-23.94-48.01-49.66-72.11-74.35-.1 21.87.71 43.78-.39 65.65.97 7.28-7.82 9.09-13.36 8.38-8.2-1.57-16.74 1.8-24.63-1.06-7.13-2.49-4.65-11.33-5.47-17.11.69-41.45-.85-82.93.58-124.37-1.58-6.91 6.3-9.14 11.65-9.15 4.21-.13 8.36.54 12.46 1.2 24.77 22.21 47.03 47.37 70.72 70.85 0-14.28-.12-28.57-.11-42.83 1.26-8.79-2.19-18.57 2.56-26.67 8.45-4.76 18.66-1.01 27.87-2.35.73-.17 1.5-.26 2.26-.29z" fill="#fff" stroke-width="10"/><g fill="#734a08"><path d="m490.61 51.191h21.12v488.979h-20.89z" fill-rule="evenodd" stroke="#734a08" stroke-linecap="round" stroke-linejoin="round" stroke-width="25.911"/><path d="m69.009 53.252h21.112v485.198h-20.89l-.222-485.198z" fill-rule="evenodd" stroke="#734a08" stroke-linecap="round" stroke-linejoin="round" stroke-width="25.809"/><path d="m507.21 26.941c-148.26 1.324-296.56-1.18-444.79 1.352-15.495 4.028-22.227 22.14-19.711 36.713 1.613 105.944-1.471 211.984 1.651 317.894 4.917 15.09 23.261 21.03 37.835 18.07 145.035-.49 290.095.99 435.115-.84 15.83-4.1 22.88-22.72 19.61-37.59-.55-105.36 1.19-210.8-1-316.115-2.99-12.459-16.36-20.074-28.71-19.484zm-220.38 15.747c1.48-.02 2.95.382 4.14 1.257 25.15 33.721 47.93 69.215 72.44 103.445 5.29 3.95 5.99 14.87-1.81 16.29-17.49-4.52-33.83-12.83-50.58-19.58 0 22.03.52 44.35-2.01 66.18-6.77 6.59-17.31 3.19-25.8 3.63-8.07-.82-18.86 3.36-24.72-4.33-2.06-21.55.17-43.41.22-65.06-14.02 5.73-28.43 10.71-42.36 16.75-5.35 4.93-16.38.65-14.53-7.15 20.75-30.47 43.61-59.712 65.25-89.661 6.76-6.839 9.71-17.756 19.13-21.739.2-.02.43-.03.63-.03zm56.45 188.462c5.34-.22 11.03 2.83 11.01 8.73 0 46.22.87 92.54-.36 138.76-3.93 8.5-15.33 6.67-22.72 4.61-24.77-23.94-48.01-49.66-72.11-74.35-.1 21.87.71 43.78-.39 65.65.97 7.28-7.82 9.09-13.36 8.38-8.2-1.57-16.74 1.8-24.63-1.06-7.13-2.49-4.65-11.33-5.47-17.11.69-41.45-.85-82.93.58-124.37-1.58-6.91 6.3-9.14 11.65-9.15 4.21-.13 8.36.54 12.46 1.2 24.77 22.21 47.03 47.37 70.72 70.85 0-14.28-.12-28.57-.11-42.83 1.26-8.79-2.19-18.57 2.56-26.67 8.45-4.76 18.66-1.01 27.87-2.35.73-.17 1.5-.26 2.26-.29z" opacity=".75" stroke-width="10"/></g><path d="m264.59 213.02c-1.48-.37-3.48-1.58-4.47-2.67-1.72-1.89-1.8-3.58-1.59-34.16l.22-32.18-5.34 1.99c-2.94 1.09-12.99 5.14-22.33 8.98-20.16 8.31-22.95 8.89-26.34 5.51-1.32-1.3-2.4-3.26-2.4-4.34 0-2.66 9.4-15.86 65.06-91.253 4.56-6.179 9.26-12.595 10.42-14.263 3.16-4.505 8.45-7.944 10.85-7.055 2.18.812 12.91 15.475 39.2 53.617 9.76 14.134 22.02 31.764 27.24 39.134 5.22 7.38 10.01 14.32 10.66 15.45 2.59 4.53.27 10.92-3.95 10.92-3.2 0-18.55-5.48-35.17-12.58-7.92-3.37-14.75-6.14-15.14-6.14-.41 0-1.01 13.17-1.36 29.26-.34 16.07-.87 31.04-1.17 33.25-.89 6.46-2.95 7.08-24.09 7.16-9.71 0-18.84-.25-20.3-.63z" fill="#fff"/><path d="m334.34 383.54c-2.12-.64-10.88-8.99-29.63-28.24-14.67-15.03-30.99-31.77-36.28-37.2l-9.63-9.85-.11 31.82c0 17.5-.35 33.5-.72 35.56-1.07 6.07-3.99 7-21.44 6.75-12.93-.18-14.6-.38-17-2.17-1.93-1.42-2.82-3.09-3.29-6.07-.8-5.16-.75-109.18 0-126.27l.6-12.63 3.29-1.64c3.36-1.67 11.07-2.15 17.05-1.06 2.62.48 9.31 6.75 38.69 36.23l35.5 35.66v-32.34c0-20.62.37-33.41 1.01-35.24 1.46-4.15 4.67-4.89 21.31-4.89h14.51l2.75 2.74 2.75 2.74v70.56 70.56l-2.81 2.69c-2.35 2.22-3.77 2.74-8.24 2.95-2.98.13-6.75-.16-8.4-.66z" fill="#fff"/></svg>