<svg height="580" width="580" xmlns="http://www.w3.org/2000/svg"><g fill="#6c4dda"><path d="m168.89906 221.30305c1.49797 30.72926-37.62618 51.54485-62.26993 33.11146-26.083462-15.82235-21.835042-59.38841 6.7929-69.92624 25.34071-11.51567 56.23642 8.94623 55.47703 36.81478zm32.70575 20.47231c46.71805-24.22765 90.89787-53.10525 135.99312-80.21441 25.93366 17.81965 56.38205.71778 79.89192-9.08146 24.79978 7.87476 49.63077 15.71832 74.43056 23.58268 13.50256 26.485 26.98432 52.98041 40.48689 79.46541-19.2552 11.87977-46.65563 1.04026-52.98041-20.37868-5.45096-9.36233-8.92542-20.99243-15.58309-28.96082-13.81464-4.70197-27.63969-9.38314-41.44393-14.08511 3.86977 33.50675 6.69927 67.29438 11.2348 100.63469 11.28682 27.32762 22.55283 54.63443 33.83964 81.96204 25.72561 11.214 51.43042 22.40719 77.15604 33.63159 13.75223 7.55228 21.69981 55.373-.62416 42.33855-35.68089-14.53242-71.58025-28.51351-107.11551-43.36841-13.6482-19.06795-19.85855-42.46339-29.99067-63.57025-4.51473-10.55863-9.01905-21.10686-13.53378-31.6759-12.73277 62.1451-25.47595 124.26939-38.19832 186.40408-14.26196 7.65631-28.52392 15.28141-42.77547 22.93772 12.0462-71.26817 25.11186-142.52594 36.52351-213.82532-3.25601-33.12186-6.53283-66.26452-9.78884-99.40719-31.83194 17.56999-63.67428 35.13997-95.50622 52.70995-16.8626 3.94258-33.53796-4.10903-42.01608-19.09916zm-86.6432 281.1301c-2.91273-66.44137-5.82545-132.88274-8.74858-199.33451-18.484371 14.90692-36.954176 29.81384-55.423982 44.72075-15.896204 2.10133-42.502918-7.83315-20.306903-20.50351 25.130586-24.56052 50.279897-49.08984 75.408405-73.65036 20.01459 7.92677 41.17346-.42651 59.90854-4.17144 19.35922 3.92177 38.70805 7.86436 58.05687 11.78613 10.04891 20.74278 20.10822 41.49595 30.15712 62.23872-15.71832 9.24791-35.85774-.52013-40.73655-17.29951-5.11808-5.96069-5.2013-19.73372-14.09552-19.82734-6.28317 1.79964-24.26925-5.91908-19.6401 4.72277 6.98014 27.97258 13.98109 55.96596 20.98203 83.93853 21.13808 2.85031 42.55702 4.16104 63.51824 8.05161 15.2294 8.4261 21.27331 33.06985-1.84126 26.15212-25.73601.27047-51.48243.52013-77.22885.7906-5.50298-7.77074-11.02675-15.55188-16.54013-23.32262-9.07106 2.59025-18.14212 5.1805-27.22359 7.77074.33289 29.83464.65537 59.63807.97785 89.47271-5.83586 9.98649-16.28006 15.82235-27.22359 18.46461zm298.93934-420.32721c1.71643 34.8903-42.69224 58.51459-70.67522 37.59497-29.60578-17.96528-24.79979-67.41921 7.70832-79.354106 28.76317-13.087504 63.81991 10.135247 62.9669 41.759136z" opacity=".8" stroke="#fff" stroke-linecap="round" stroke-linejoin="round" stroke-width="41.6104"/><path d="m367.49805 57.103516c-5.55742.084813-11.17136 1.260936-16.56446 3.714843-32.50811 11.934896-37.31281 61.390191-7.70703 79.355471 27.98298 20.91962 72.39026-2.70541 70.67383-37.59571.69307-25.694405-22.32021-45.842129-46.40234-45.474604zm49.99218 95.375004c-23.50987 9.79924-53.95891 26.90168-79.89257 9.08203-45.09525 27.10916-89.27414 55.98719-135.99219 80.21484 8.47812 14.99013 25.15302 23.04219 42.01562 19.09961 31.83194-17.56998 63.67392-35.14095 95.50586-52.71094 3.25601 33.14267 6.53306 66.28635 9.78907 99.40821-11.41165 71.29938-24.47724 142.55604-36.52344 213.82421 14.25155-7.65631 28.51343-15.28119 42.77539-22.9375 12.72237-62.13469 25.46645-124.25919 38.19922-186.40429 4.51473 10.56904 9.01847 21.11715 13.5332 31.67578 10.13212 21.10686 16.34204 44.50236 29.99023 63.57031 35.53526 14.8549 71.43435 28.83672 107.11524 43.36914 22.32397 13.03445 14.37723-34.78561.625-42.33789-25.72562-11.2244-51.43064-22.41881-77.15625-33.63281-11.28681-27.32761-22.55302-54.63332-33.83984-81.96094-4.53553-33.34031-7.36461-67.12801-11.23438-100.63476 13.80424 4.70197 27.62872 9.38201 41.44336 14.08398 6.65767 7.96839 10.13302 19.59861 15.58398 28.96094 6.32478 21.41894 33.72527 32.25867 52.98047 20.3789-13.50257-26.485-26.98572-52.97984-40.48828-79.46484-24.79979-7.86436-49.62991-15.70922-74.42969-23.58398zm-289.47265 28.74218c-4.89669.07273-9.84432 1.10839-14.5957 3.26758-28.627947 10.53783-32.876436 54.10343-6.79297 69.92578 24.64375 18.43339 63.7675-2.38207 62.26953-33.11133.617-22.64319-19.66188-40.3972-40.88086-40.08203zm37.78125 88.7461c-18.73508 3.74493-39.89362 12.09864-59.90821 4.17187-25.128503 24.56052-50.277612 49.08987-75.408198 73.65039-22.1960151 12.67036 4.410437 22.60329 20.30664 20.50196 18.469806-14.90691 36.939458-29.81379 55.423828-44.72071 2.92313 66.45177 5.83532 132.89457 8.74805 199.33594 10.94353-2.64226 21.38875-8.47835 27.22461-18.46484-.32248-29.83464-.64563-59.63802-.97852-89.47266 9.08147-2.59024 18.15355-5.18123 27.22461-7.77148 5.51338 7.77074 11.03608 15.55152 16.53906 23.32226 25.74642-.27047 51.49251-.52054 77.22852-.79101 23.11457 6.91773 17.0712-17.72429 1.8418-26.1504-20.96122-3.89056-42.3795-5.20242-63.51758-8.05273-7.00094-27.97257-14.00228-55.96492-20.98242-83.9375-4.62915-10.64185 13.35745-2.92302 19.64062-4.72266 8.89422.09362 8.97762 13.86549 14.0957 19.82618 4.87881 16.77938 25.01801 26.54869 40.73633 17.30078-10.0489-20.74277-20.10929-41.49746-30.1582-62.24024-19.34882-3.92177-38.69742-7.86338-58.05664-11.78515z"/></g></svg>