<?xml version="1.0" encoding="UTF-8"?>
<svg width="580" height="580" enable-background="new 0 0 580 580" version="1.1" viewBox="0 0 580 580" xmlns="http://www.w3.org/2000/svg"><path d="m278 1.26c-5.85-0.02-11.7 0.154-17.6 0.511-11 0.00574-21.9 0.00811-32.8-0.0218l0.767 0.0139c-16.4-0.573-32.7 6.5-41.6 18.4-8.91 11.9-10.7 26-8.52 38.6 2.22 12.6 8.59 24.7 20 33.3 10.5 7.86 25.5 11.2 40.1 8.36 47.7-0.894 93.3-0.343 130 18.7-10.3 2.28-20.3 7.66-28.2 16.2-18.9 17.7-37.8 35.4-56.7 53.1-73.8-0.805-147-1.79-223-1.54l0.374 2e-3c-14.2-0.177-28 5.1-37.1 14.5s-13.3 21.8-13 33.7c0.712 23.9 23.1 47.1 51.8 47.3a23.8 23.8 0 0 0 0.384-2e-3l121-1.07c-6.77 6.31-13.5 12.6-20.3 18.9h-103a23.8 23.8 0 0 0-0.372 2e-3c-14.4 0.225-28.3 5.94-37.1 15.9-8.82 9.93-12.2 22.8-10.9 34.7 1.3 11.9 7.28 23.5 17.7 31.5 9.52 7.27 22.5 10.5 35.5 9.24-1.11 1.27-2.17 2.58-3.17 3.93-0.564 0.477-1.12 0.964-1.66 1.47-9.27 8.65-15.8 21.1-16.3 35.2-0.512 14.1 5.46 28.8 16.2 40.3a23.8 23.8 0 0 0 1.13 1.13c35.6 33.3 58.5 55.6 85 71.9 26.4 16.2 55.3 24.4 96.5 29.3 118 16.8 240-47.5 292-154 49.3-93.9 40.3-213-24-298-53.8-74.4-142-121-234-121zm-0.194 47.7c26.2 0.136 52.2 4.94 77 13.6-34.8-9.98-70.2-10.5-103-10v-3.11c3.23-5.38e-4 6.47 0.0076 9.7 0.0059a23.8 23.8 0 0 0 1.52-0.0495c5.07-0.325 10.1-0.472 15.2-0.446zm116 29.5 0.864 0.452c-0.122-0.0668-0.245-0.122-0.367-0.188-0.169-0.0844-0.328-0.179-0.497-0.264zm88.6 84.4c45 68.6 49.8 163 11.5 235a23.8 23.8 0 0 0-0.281 0.551c-43.2 87.5-147 142-243 128a23.8 23.8 0 0 0-0.549-0.0714c-38.2-4.54-57.7-10.5-77.7-22.7-13.7-8.4-28.4-20.8-47.8-38.6 1.72-0.767 3.41-1.62 5.08-2.57 7.06 7.45 14.1 14.3 21.9 20.8 17.8 14.7 39.5 26.1 70.5 35.1a23.8 23.8 0 0 0 0.105 0.0297c112 32.1 237-37.3 277-144 27.2-68.5 20.3-149-16.3-212zm-103 1.1c0.0403 3e-3 3e-3 0.0682 0.0277 0.0871-0.112 0.17-1.15 1.45-2.67 3.28-7.91 7.17-15.8 14.4-23.6 21.6-0.0779-5.8e-4 -0.156 5.8e-4 -0.234 0 6.82-6.38 13.6-12.8 20.5-19.2a23.8 23.8 0 0 0 1.86-1.95c2.71-3.18 3.81-3.91 4.18-3.88zm45.8 0.236c6.21 7.81 11.8 16.2 16.7 25-3.41-0.301-6.88-0.287-10.3 0.0456-4.19 3e-3 -8.36-4e-3 -12.5-8e-3 4.16-7.95 6.18-16.6 6.23-25zm-45.7 6e-3c0.0116 0.233-0.112 0.533-0.24 0.43-0.0706-0.0571 0.122-0.23 0.24-0.43zm-320 69.3c-1.41e-4 -5e-3 -0.196 0.348-0.347 0.626-0.672-0.286 0.347-0.617 0.347-0.626zm2.29 0.925c3.41-0.011 6.75 0.0318 10.1 0.0258l-7.97 0.0714c-1.06-9e-3 -1.49-0.0619-2.18-0.0971zm405 33.5c1.45 14.4 1.41 28.9-0.196 43.1-8.03-7.21-19.7-11.7-31.4-11.4h-131c6.96-6.55 13.9-13.1 20.9-19.6 35.8 0.27 70 0.7 108 0.47a23.8 23.8 0 0 0 0.376-4e-3c12.8-0.28 24.3-5.11 33.1-12.5zm-331 124 2.49 0.0138c-1.74 1.67-3.48 3.34-5.22 5-0.462-0.411-0.932-0.804-1.4-1.19 1.38-1.27 2.76-2.55 4.14-3.82zm71 0.386 228 1.24-1.12-0.0336c0.803 0.0422 1.61 0.0557 2.41 0.0515-43 62.1-129 101-200 80.2-26.8-7.84-40.5-15.4-53.4-26.1-5.36-4.42-10.7-9.68-16.6-15.8 13.7-13.2 27.5-26.4 41.2-39.5z" fill="#fff" fill-rule="evenodd" opacity=".8"/><path d="m394 184c25.5-30.2-12.9-59.8-37.1-31.3-90.3 84.5-180 169-271 253-27.6 28.5 11.7 57.2 38.7 32.5 89.2-85.5 178-171 270-254z" fill="#2c2c2c"/><path d="m228 76.3v-50.7 50.7zm0-50.7c-36.1-4.47-32.3 55.8 1.51 52.1 58.1-4.4 121-1.9 171 31.8 102 65.7 121 223 42.7 314-55.9 67.3-156 101-238 64.6-39.1-13.7-62.8-49.4-91.5-76.7-25.4-19.6-59.7 18.7-37 41.6 39.6 37.1 79 81.5 135 92 62.6 14.8 130 9.87 188-20.3 92.5-44.8 152-148 144-250-5.02-111-89.2-210-195-239-39.2-12.7-80.2-9.74-121-9.69z" fill="#2c2c2c"/><path d="m435 324h-234c28-25.4 62.4-42.3 90.5-67.5 48.3-0.0275 96.7 1.29 145 0.484 17.1 0.146 31-21 19.9-35.5-12.4-14.2-33.3-5.56-49.5-7.92-116-0.211-232-3.03-348-2.38-17-0.367-28.7 20-19.7 34.4 8.38 15.6 27.5 13.3 42.4 13.1 69.8-0.617 140-1.23 209-1.85-27.8 25.3-62.1 42.2-89.9 67.5-47.4 0.127-94.8-0.254-142 0.191-15.9-0.0866-27.2 18.6-18.8 32.3 6.23 12.6 21.1 11.8 33 11.1 122 0.65 243 1.34 365 1.97 24.4-0.658 26.4-42.3 2.55-45.8l-2.52-0.248z" fill="#5f5f5f"/></svg>
