<svg height="580" width="580" xmlns="http://www.w3.org/2000/svg"><path d="m301.61 33.35 227.64 261.73v120.35l-234.18 138.47-234.17-264.63.72-125.42z" style="opacity:.8;fill:none;stroke:#fff;stroke-linejoin:round;stroke-linecap:round;stroke-width:40"/><path d="m63.075 188.5c3.383-9.18 6.767-18.37 10.15-27.55 76.125 84.58 152.255 169.17 228.375 253.75 71.77-39.63 143.55-79.27 215.32-118.9v120.34c-68.42 39.88-136.51 80.5-205.14 119.91-7.99 2.57-15.97 5.13-23.96 7.7-.96-33.59-1.93-67.18-2.89-100.77-73.95-84.83-147.9-169.65-221.855-254.48z" fill="#d0c2ac" fill-rule="evenodd"/><g stroke-linecap="round" stroke-linejoin="round"><path d="m73.931 159.89c76.169 86.49 152.339 172.99 228.499 259.48 72.94-41.95 145.88-83.91 218.82-125.87-74.23-85.85-148.46-171.7-222.69-257.545-74.88 41.311-149.75 82.625-224.629 123.935z" fill="#734a08" fill-rule="evenodd" stroke="#734a08" stroke-width="10"/><path d="m61.653 188.6c74.877 85.2 149.757 170.41 224.627 255.61.32 32.28.65 64.55.97 96.83-75.52-85.37-151.04-170.74-226.565-256.1.323-32.11.646-64.23.968-96.34z" fill="#734a08" fill-rule="evenodd" stroke="#734a08" stroke-width="10"/><path d="m519.51 327.14c-68.75 40.28-137.5 80.57-206.25 120.85.83 6.5 13.55-6.71 19.15-8.12 62.26-36.49 124.52-72.97 186.78-109.46.11-1.09.21-2.18.32-3.27z" fill="none" stroke="#947445" stroke-width="16.477"/><path d="m519.51 367.14c-68.75 40.28-137.5 80.57-206.25 120.85.83 6.5 13.55-6.71 19.15-8.12 62.26-36.49 124.52-72.97 186.78-109.46.11-1.09.21-2.18.32-3.27z" fill="none" stroke="#947445" stroke-width="16.477"/><path d="m519.51 407.14c-68.75 40.28-137.5 80.57-206.25 120.85.83 6.5 13.55-6.71 19.15-8.12 62.26-36.49 124.52-72.97 186.78-109.46.11-1.09.21-2.18.32-3.27z" fill="none" stroke="#947445" stroke-width="16.477"/></g></svg>