<svg enable-background="new 0 0 580 580" height="580" viewBox="0 0 580 580" width="580" xmlns="http://www.w3.org/2000/svg"><path d="m60.716 105.36c-18.787 0-20.353 20.35-19.048 34.44v318.84c4.174 19.05 25.57 14.88 39.92 15.4 15.395-2.62 36.792 5.47 44.882-12.01 3.39-22.17 0-45.4 2.61-67.84 0-35.22 0-70.71 0-105.92-34.967 12.52-79.585-12.01-80.889-50.89-2.87-29.74 18.525-61.31 49.575-63.66 11.484-5.47 36.274 0 31.314-18.53-2.61-14.6 4.18-31.82-5.49-44.35-12.78-9.66-29.739-4.17-44.611-5.48-5.74 0-11.741 0-17.482 0zm46.444 155.77c-26.355 2.61-39.922-35.74-19.31-51.92 15.13-10.18 34.44-9.92 51.4-15.14 121.32-26.62 242.39-54.01 363.45-80.62 25.05-4.18 43.32 28.44 26.88 47.49-12.52 14.34-33.13 12.52-49.83 18-123.15 27.14-246.31 54.8-369.46 81.93h-3.13zm360.33-1.83c-16.96 0-16.18 19.04-15.4 31.05v171.16c4.17 17.48 24.53 11.22 37.57 12.53 13.83 0 28.7 2.61 42.01-2.62 11.48-9.91 5.22-26.61 6.78-39.65 0-53.49 0-106.71 0-160.2-4.43-17.22-24.52-11.23-37.57-12.27-11.22 0-22.44 0-33.39 0z" style="opacity:.8;fill:none;stroke:#fff;stroke-linejoin:round;stroke-linecap:round;stroke-width:43.37"/><path d="m107.16 261.13c-26.355 2.61-39.922-35.74-19.31-51.92 15.13-10.18 34.44-9.92 51.4-15.14 121.32-26.62 242.39-54.01 363.45-80.62 25.05-4.18 43.32 28.44 26.88 47.49-12.52 14.34-33.13 12.52-49.83 18-123.15 27.14-246.31 54.8-369.46 81.93h-3.13z" fill="#2c2c2c"/><g fill="#5f5f5f"><path d="m60.716 105.36c-18.787 0-20.353 20.35-19.048 34.44v318.84c4.174 19.05 25.57 14.88 39.92 15.4 15.395-2.62 36.792 5.47 44.882-12.01 3.39-22.17 0-45.4 2.61-67.84 0-35.22 0-70.71 0-105.92-34.967 12.52-79.585-12.01-80.889-50.89-2.87-29.74 18.525-61.31 49.575-63.66 11.484-5.47 36.274 0 31.314-18.53-2.61-14.6 4.18-31.82-5.49-44.35-12.78-9.66-29.739-4.17-44.611-5.48-5.74 0-11.741 0-17.482 0z"/><path d="m467.49 259.3c-16.96 0-16.18 19.04-15.4 31.05v171.16c4.17 17.48 24.53 11.22 37.57 12.53 13.83 0 28.7 2.61 42.01-2.62 11.48-9.91 5.22-26.61 6.78-39.65 0-53.49 0-106.71 0-160.2-4.43-17.22-24.52-11.23-37.57-12.27-11.22 0-22.44 0-33.39 0z"/></g></svg>