<svg height="580" width="580" xmlns="http://www.w3.org/2000/svg"><g stroke-linejoin="round"><path d="m288.98 35.615-71.65 39.942c-1.18.777-1.77 1.756-1.77 2.939 0 1.961.98 2.94 2.94 2.94h140.97c2.36 0 3.54-.979 3.54-2.94 0-1.183-.59-2.162-1.76-2.939zm-255.294 45 .592 85.755 202.662-25.26v-34.65zm512.624 0-202.67 25.845v34.06l202.67 25.85zm-330.75 87.775c-4.31 0-6.46 2.16-6.46 6.47 0 4.3 2.15 6.45 6.46 6.45h12.33l-48.17 363.07h218.53l-47.58-363.07h12.34c4.3 0 6.45-2.15 6.45-6.45 0-4.31-2.15-6.47-6.45-6.47z" fill="#fff" opacity=".8" stroke="#fff" stroke-linecap="round" stroke-width="50"/><g stroke-width="10"><path d="m236.94 106.46-203.254-25.844.591 85.754 202.663-25.26zm106.71 34.06 202.66 25.85v-85.754l-202.66 25.844z" fill="#fff" stroke="#fff"/><path d="m359.48 81.436c2.35 0 3.53-.98 3.53-2.94 0-1.183-.59-2.163-1.76-2.94l-72.26-39.942-71.65 39.942c-1.19.777-1.78 1.757-1.78 2.94 0 1.96.98 2.94 2.94 2.94zm3.53 99.874c4.3 0 6.45-2.15 6.45-6.45 0-4.31-2.15-6.47-6.45-6.47h-147.45c-4.3 0-6.45 2.16-6.45 6.47 0 4.3 2.15 6.45 6.45 6.45h12.33l-48.17 363.07h218.53l-47.57-363.07z" fill="#0073be" stroke="#0073be"/><path d="m236.94 106.46-203.254-25.844.591 85.754 202.663-25.26zm106.71 34.06 202.66 25.85v-85.754l-202.66 25.844z" fill="#3d9ad4" opacity=".5" stroke="#3d9ad4"/></g><path d="m322.31 124.1a32.112 32.112 0 1 1 -64.22 0 32.112 32.112 0 1 1 64.22 0z" fill="#0073be" stroke="#0073be" stroke-linecap="round" stroke-width="8.705"/></g></svg>