<svg height="580" width="580" xmlns="http://www.w3.org/2000/svg"><path d="m126.43483 220.94165a12.0012 12.0012 0 0 0 -8.42968 3.19336c-14.25312 12.83029-23.03442 32.70811-25.220709 54.38476s2.640114 45.64072 18.249999 65.1211a12.0012 12.0012 0 1 0 18.72852-15.00782c-11.10144-13.85406-14.75823-31.26016-13.09961-47.70507 1.65862-16.44492 9.05168-31.43979 17.40039-38.95508a12.0012 12.0012 0 0 0 -7.62891-21.03125zm-2.18092-46.89477v.13085c-23.62596.69399-44.148873 14.69595-57.890629 34.44336-14.094655 20.25455-22.152345 46.90612-22.152343 76.04297 0 29.13686 8.057688 55.79038 22.152343 76.04492 14.094655 20.25455 35.296339 34.57422 59.691409 34.57422.12588 0 .24538-.0266.37109-.0273v.0273h333.15039 3.11524v-.22656c23.06671-1.17169 43.09201-14.97042 56.57617-34.34766 14.09466-20.25454 22.15234-46.90806 22.15234-76.04492s-8.05768-55.78842-22.15234-76.04297c-13.91017-19.98943-34.75742-34.13732-58.75-34.50586v-.0684h-.94141-333.52148zm1.80078 32c11.96895-.00002 23.69 6.86088 33.42578 20.85156 9.73578 13.99067 16.41797 34.64604 16.41797 57.76562 0 23.11959-6.68219 43.77691-16.41797 57.76758s-21.45683 20.85156-33.42578 20.85156-23.68805-6.86089-33.423831-20.85156c-9.735776-13.99067-16.419922-34.648-16.419921-57.76758-.000002-23.11958 6.684145-43.77495 16.419921-57.76562 9.735781-13.99068 21.454881-20.85156 33.423831-20.85156zm346.38672.35546a12.0012 12.0012 0 0 1 12.18164 12.16993s-.99022 4.77144-.99024 4.77148c-.00001.00004-1.95696 3.10539-1.95703 3.10547-.00013.00015-3.11081 2.54853-3.11133 2.54883-.00051.00029-1.28801.64521-1.71093.80468-.42292.15948-.7375.25308-.99805.32618-1.04222.29235-1.37063.30485-1.68555.34765-.62983.0855-.90923.0991-1.31836.125-.81826.0518-1.95254.0986-4.14648.15821-4.38788.11912-12.91074.27185-29.91992.42578-34.01837.30785-101.92847.61523-237.73047.61523a12.0012 12.0012 0 1 1 0-24c135.7658 0 203.64008-.30673 237.51367-.61328 16.93679-.15327 25.38772-.30865 29.48633-.41992 1.20956-.0328 1.40049-.0478 1.93554-.0703a12.0012 12.0012 0 0 1 2.45118-.29493zm22.06054 50.16602a12.0012 12.0012 0 0 1 12.17969 12.16992s-.98826 4.7695-.98828 4.76953c-.00002.00004-1.95892 3.10735-1.95898 3.10742-.00014.00015-3.10886 2.54658-3.10938 2.54688-.00052.00029-1.28997.64522-1.71289.80469s-.73554.25502-.99609.32812c-1.04223.29236-1.37063.30486-1.68555.34766-.62984.0855-.91118.0971-1.32031.12304-.81827.0519-1.95059.10056-4.14454.16016-4.38787.11913-12.91073.27185-29.91992.42578-34.01836.30786-101.92847.61524-237.73047.61524a12.0012 12.0012 0 1 1 0-24c135.7658 0 203.63814-.30869 237.51172-.61524 16.9368-.15327 25.38772-.30669 29.48633-.41797 1.20957-.0328 1.4005-.0478 1.93555-.0703a12.0012 12.0012 0 0 1 2.45312-.29492z" fill="none" opacity=".8" stroke="#fff" stroke-linejoin="round" stroke-width="57"/><path d="m126.43483 220.94165a12.0012 12.0012 0 0 0 -8.42968 3.19336c-14.25312 12.83029-23.03442 32.70811-25.220709 54.38476s2.640114 45.64072 18.249999 65.1211a12.0012 12.0012 0 1 0 18.72852-15.00782c-11.10144-13.85406-14.75823-31.26016-13.09961-47.70507 1.65862-16.44492 9.05168-31.43979 17.40039-38.95508a12.0012 12.0012 0 0 0 -7.62891-21.03125zm-2.18092-46.89477v.13085c-23.62596.69399-44.148873 14.69595-57.890629 34.44336-14.094655 20.25455-22.152345 46.90612-22.152343 76.04297 0 29.13686 8.057688 55.79038 22.152343 76.04492 14.094655 20.25455 35.296339 34.57422 59.691409 34.57422.12588 0 .24538-.0266.37109-.0273v.0273h333.15039 3.11524v-.22656c23.06671-1.17169 43.09201-14.97042 56.57617-34.34766 14.09466-20.25454 22.15234-46.90806 22.15234-76.04492s-8.05768-55.78842-22.15234-76.04297c-13.91017-19.98943-34.75742-34.13732-58.75-34.50586v-.0684h-.94141-333.52148zm1.80078 32c11.96895-.00002 23.69 6.86088 33.42578 20.85156 9.73578 13.99067 16.41797 34.64604 16.41797 57.76562 0 23.11959-6.68219 43.77691-16.41797 57.76758s-21.45683 20.85156-33.42578 20.85156-23.68805-6.86089-33.423831-20.85156c-9.735776-13.99067-16.419922-34.648-16.419921-57.76758-.000002-23.11958 6.684145-43.77495 16.419921-57.76562 9.735781-13.99068 21.454881-20.85156 33.423831-20.85156zm346.38672.35546a12.0012 12.0012 0 0 1 12.18164 12.16993s-.99022 4.77144-.99024 4.77148c-.00001.00004-1.95696 3.10539-1.95703 3.10547-.00013.00015-3.11081 2.54853-3.11133 2.54883-.00051.00029-1.28801.64521-1.71093.80468-.42292.15948-.7375.25308-.99805.32618-1.04222.29235-1.37063.30485-1.68555.34765-.62983.0855-.90923.0991-1.31836.125-.81826.0518-1.95254.0986-4.14648.15821-4.38788.11912-12.91074.27185-29.91992.42578-34.01837.30785-101.92847.61523-237.73047.61523a12.0012 12.0012 0 1 1 0-24c135.7658 0 203.64008-.30673 237.51367-.61328 16.93679-.15327 25.38772-.30865 29.48633-.41992 1.20956-.0328 1.40049-.0478 1.93554-.0703a12.0012 12.0012 0 0 1 2.45118-.29493zm22.06054 50.16602a12.0012 12.0012 0 0 1 12.17969 12.16992s-.98826 4.7695-.98828 4.76953c-.00002.00004-1.95892 3.10735-1.95898 3.10742-.00014.00015-3.10886 2.54658-3.10938 2.54688-.00052.00029-1.28997.64522-1.71289.80469s-.73554.25502-.99609.32812c-1.04223.29236-1.37063.30486-1.68555.34766-.62984.0855-.91118.0971-1.32031.12304-.81827.0519-1.95059.10056-4.14454.16016-4.38787.11913-12.91073.27185-29.91992.42578-34.01836.30786-101.92847.61524-237.73047.61524a12.0012 12.0012 0 1 1 0-24c135.7658 0 203.63814-.30869 237.51172-.61524 16.9368-.15327 25.38772-.30669 29.48633-.41797 1.20957-.0328 1.4005-.0478 1.93555-.0703a12.0012 12.0012 0 0 1 2.45312-.29492z" fill="#666"/></svg>