<svg enable-background="new 0 0 580 580" height="580" viewBox="0 0 580 580" width="580" xmlns="http://www.w3.org/2000/svg"><path d="m506.87 375.2c-142.09.2-284.2-.41-426.261.32-21.379 4.38-10.95 36.18 8.943 30.16 6.813 2.18 23.408-5.34 21.178 5.83v124.81c8.18 28.31 33.52 3.15 26.47-15.98 0-38.22 0-76.44 0-114.66h311.88v130.64c8.17 28.31 33.53 3.15 26.48-15.98 0-38.22 0-76.44 0-114.66 13.23-1.07 27.45 2.53 39.87-2.6 12.52-7.93 6.29-28.25-8.56-27.88zm42.41-233.55c-17.07-35.89-34.11-71.781-51.18-107.67-7.99-6.508-20.24-1.953-30.14-3.313-123.25 0-246.49 0-369.727 0-9.562 4.766-10.964 18.116-16.756 26.773-13.795 28.83-28.727 57.25-41.816 86.34 11.295 15.24 37.015 16.22 55.495 17.79 20.864 3.83 40.834-14.61 59.624-7.4 29.02 11.15 62.2 9.28 90.35-3.57 31.18 14.69 68.52 14.33 99.68-.22 31.11 14.79 68.44 14.67 99.66.22 32.53 15.23 72.25 14.56 103.82-2.58 1.58-1.68 1.95-4.35.99-6.37zm-309.22-1.44c-27.37 12.44-59.86 13.12-87.38.7 9.81-32.9 19.62-65.79 29.43-98.683h67.76c-3.27 32.66-6.54 65.323-9.81 97.983zm154.63 9.79c-15.7-2.51-48.64.33-45.29-22.77-2.42-28.341-4.84-56.67-7.27-85.003h67.8c9.31 32.876 18.64 65.753 27.95 98.633-13.63 5.73-28.34 9.15-43.19 9.14zm89.38 70.72c-12-15.29-26.18-13.51-38.63-.44-19.76 3.31-39.66 8.54-58.81 15.33-21.57 2.7-44.3 4.29-61.25 19.69-22.67 13.2-15.9 46.21.77 61.73 18.49 18.94 47.11 32.63 73.81 25.13 19.56-11.63 24.02-35.48 27.86-55.94 12.38-14.88 23.97-33.12 34.3-47.26 8.08-4.77 26.95-2.61 21.95-18.24zm-7.42 7.52c-11.75-1.86-28.56 18.36-32.86 4.92-9.54 1.92 21.06-25.93 23.78-15.27 4.14.9 16.88 4.64 9.08 10.35zm-301.67 18.96c4.37-5.53 3.8-17.54 6.25-25.59-.49-8.96 11.1-24.33-4.62-25.44-13.5.8 3.35 38.43-1.63 51.03zm-10.52-28.31c5.43-25.48-55.56-42.37-31.29-11.24 6.6 10.17 19.65 14.75 31.29 11.24zm36.41 25.76c-17.27 2.71-25.82 13.14-41.49.66-25.23-6.26-48.65 21.14-39.75 44.73 7.87 21.01 20.33 60.36 49.74 50.22 9.74-14.41 27.22 15.1 39.91-4.43 14.73-20.19 34.36-47.62 21.96-73.26-5.87-10.89-17.92-18.05-30.37-17.92zm36.22-41.24c-19.32-8.98-58.69 16.27-41.8 30.67 20.38 4.51 36.28-13.07 41.8-30.67z" style="opacity:.8;fill:none;stroke:#fff;stroke-linejoin:round;stroke-linecap:round;stroke-width:38.38"/><path d="m355.58 283.87c-25.28-13.58-19.83 21.73 1.34 14.67 7.07-2.99 2.77-11.39-1.34-14.67zm-8.92 2.75c24.96 9.81-15.15 5.33 0-.52z" fill="#fff" stroke="#fff" stroke-width="1.055"/><path d="m484.07 220.72c-12-15.29-26.18-13.51-38.63-.44-19.76 3.31-39.66 8.54-58.81 15.33-21.57 2.7-44.3 4.29-61.25 19.69-22.67 13.2-15.9 46.21.77 61.73 18.49 18.94 47.11 32.63 73.81 25.13 19.56-11.63 24.02-35.48 27.86-55.94 12.38-14.88 23.97-33.12 34.3-47.26 8.08-4.77 26.95-2.61 21.95-18.24zm-7.42 7.52c-11.75-1.86-28.56 18.36-32.86 4.92-9.54 1.92 21.06-25.93 23.78-15.27 4.14.9 16.88 4.64 9.08 10.35zm-90.74 110.31c-31.24-1.24-66.43-23.1-69.16-56.27-2.19-15.28 12.44-26.86 26.83-22.45 24.53 3.4 47.09 18.09 56.38 41.54 7.25 13.11 8.21 40.28-14.05 37.18z" fill="#eacdea" stroke="#fff" stroke-width="1.055"/><path d="m355.58 283.87c-25.28-13.58-19.83 21.73 1.34 14.67 7.07-2.99 2.77-11.39-1.34-14.67zm-8.92 2.75c24.96 9.81-15.15 5.33 0-.52z" fill="#ac3b98"/><path d="m484.07 220.72c-12-15.29-26.18-13.51-38.63-.44-19.76 3.31-39.66 8.54-58.81 15.33-21.57 2.7-44.3 4.29-61.25 19.69-22.67 13.2-15.9 46.21.77 61.73 18.49 18.94 47.11 32.63 73.81 25.13 19.56-11.63 24.02-35.48 27.86-55.94 12.38-14.88 23.97-33.12 34.3-47.26 8.08-4.77 26.95-2.61 21.95-18.24zm-7.42 7.52c-11.75-1.86-28.56 18.36-32.86 4.92-9.54 1.92 21.06-25.93 23.78-15.27 4.14.9 16.88 4.64 9.08 10.35zm-90.74 110.31c-31.24-1.24-66.43-23.1-69.16-56.27-2.19-15.28 12.44-26.86 26.83-22.45 24.53 3.4 47.09 18.09 56.38 41.54 7.25 13.11 8.21 40.28-14.05 37.18z" fill="#ac3b98"/><path d="m549.28 141.65c-17.07-35.89-34.11-71.781-51.18-107.67-7.99-6.508-20.24-1.953-30.14-3.313-123.25 0-246.49 0-369.727 0-9.562 4.766-10.964 18.116-16.756 26.773-13.795 28.83-28.727 57.25-41.816 86.34 11.295 15.24 37.015 16.22 55.495 17.79 20.864 3.83 40.834-14.61 59.624-7.4 29.02 11.15 62.2 9.28 90.35-3.57 31.18 14.69 68.52 14.33 99.68-.22 31.11 14.79 68.44 14.67 99.66.22 32.53 15.23 72.25 14.56 103.82-2.58 1.58-1.68 1.95-4.35.99-6.37z" fill="#eacdea" stroke="#fff" stroke-width="1.055"/><path d="m549.28 141.65c-17.07-35.89-34.11-71.781-51.18-107.67-7.99-6.508-20.24-1.953-30.14-3.313-123.25 0-246.49 0-369.727 0-9.562 4.766-10.964 18.116-16.756 26.773-13.795 28.83-28.727 57.25-41.816 86.34 11.295 15.24 37.015 16.22 55.495 17.79 20.864 3.83 40.834-14.61 59.624-7.4 29.02 11.15 62.2 9.28 90.35-3.57 31.18 14.69 68.52 14.33 99.68-.22 31.11 14.79 68.44 14.67 99.66.22 32.53 15.23 72.25 14.56 103.82-2.58 1.58-1.68 1.95-4.35.99-6.37zm-309.22-1.44c-27.37 12.44-59.86 13.12-87.38.7 9.81-32.9 19.62-65.79 29.43-98.683h67.76c-3.27 32.66-6.54 65.323-9.81 97.983zm154.63 9.79c-15.7-2.51-48.64.33-45.29-22.77-2.42-28.341-4.84-56.67-7.27-85.003h67.8c9.31 32.876 18.64 65.753 27.95 98.633-13.63 5.73-28.34 9.15-43.19 9.14z" fill="#ac3b98"/><g stroke="#fff"><path d="m506.87 375.2c-142.09.2-284.2-.41-426.261.32-21.379 4.38-10.95 36.18 8.943 30.16 6.813 2.18 23.408-5.34 21.178 5.83v124.81c8.18 28.31 33.52 3.15 26.47-15.98 0-38.22 0-76.44 0-114.66h311.88v130.64c8.17 28.31 33.53 3.15 26.48-15.98 0-38.22 0-76.44 0-114.66 13.23-1.07 27.45 2.53 39.87-2.6 12.52-7.93 6.29-28.25-8.56-27.88z" fill="#fff" stroke-width="1.055"/><path d="m237.09 203.41c-19.32-8.98-58.69 16.27-41.8 30.67 20.38 4.51 36.28-13.07 41.8-30.67z" fill="#fff" stroke-width="1.055"/><path d="m200.87 244.65c-17.27 2.71-25.82 13.14-41.49.66-25.23-6.26-48.65 21.14-39.75 44.73 7.87 21.01 20.33 60.36 49.74 50.22 9.74-14.41 27.22 15.1 39.91-4.43 14.73-20.19 34.36-47.62 21.96-73.26-5.87-10.89-17.92-18.05-30.37-17.92z" fill="#fff" stroke-width="1.055"/><path d="m164.46 218.89c5.43-25.48-55.56-42.37-31.29-11.24 6.6 10.17 19.65 14.75 31.29 11.24z" fill="#fff" stroke-width="1.055"/><path d="m174.98 247.2c4.37-5.53 3.8-17.54 6.25-25.59-.49-8.96 11.1-24.33-4.62-25.44-13.5.8 3.35 38.43-1.63 51.03z" fill="#fff" stroke-width="1.055"/></g><path d="m506.87 375.2c-142.09.2-284.2-.41-426.261.32-21.379 4.38-10.95 36.18 8.943 30.16 6.813 2.18 23.408-5.34 21.178 5.83v124.81c8.18 28.31 33.52 3.15 26.47-15.98 0-38.22 0-76.44 0-114.66h311.88v130.64c8.17 28.31 33.53 3.15 26.48-15.98 0-38.22 0-76.44 0-114.66 13.23-1.07 27.45 2.53 39.87-2.6 12.52-7.93 6.29-28.25-8.56-27.88z" fill="#ac3b98"/><path d="m237.09 203.41c-19.32-8.98-58.69 16.27-41.8 30.67 20.38 4.51 36.28-13.07 41.8-30.67z" fill="#ac3b98"/><path d="m200.87 244.65c-17.27 2.71-25.82 13.14-41.49.66-25.23-6.26-48.65 21.14-39.75 44.73 7.87 21.01 20.33 60.36 49.74 50.22 9.74-14.41 27.22 15.1 39.91-4.43 14.73-20.19 34.36-47.62 21.96-73.26-5.87-10.89-17.92-18.05-30.37-17.92z" fill="#ac3b98"/><path d="m164.46 218.89c5.43-25.48-55.56-42.37-31.29-11.24 6.6 10.17 19.65 14.75 31.29 11.24z" fill="#ac3b98"/><path d="m174.98 247.2c4.37-5.53 3.8-17.54 6.25-25.59-.49-8.96 11.1-24.33-4.62-25.44-13.5.8 3.35 38.43-1.63 51.03z" fill="#ac3b98"/></svg>