<?xml version="1.0" encoding="UTF-8" standalone="no"?>
<svg
   xmlns:dc="http://purl.org/dc/elements/1.1/"
   xmlns:cc="http://creativecommons.org/ns#"
   xmlns:rdf="http://www.w3.org/1999/02/22-rdf-syntax-ns#"
   xmlns:svg="http://www.w3.org/2000/svg"
   xmlns="http://www.w3.org/2000/svg"
   xmlns:sodipodi="http://sodipodi.sourceforge.net/DTD/sodipodi-0.dtd"
   xmlns:inkscape="http://www.inkscape.org/namespaces/inkscape"
   height="580"
   width="580"
   version="1.1"
   id="svg14"
   sodipodi:docname="memorial_statue.svg"
   inkscape:version="1.0.1 (3bc2e813f5, 2020-09-07)">
  <metadata
     id="metadata20">
    <rdf:RDF>
      <cc:Work
         rdf:about="">
        <dc:format>image/svg+xml</dc:format>
        <dc:type
           rdf:resource="http://purl.org/dc/dcmitype/StillImage" />
      </cc:Work>
    </rdf:RDF>
  </metadata>
  <defs
     id="defs18" />
  <sodipodi:namedview
     pagecolor="#ffffff"
     bordercolor="#666666"
     borderopacity="1"
     objecttolerance="10"
     gridtolerance="10"
     guidetolerance="10"
     inkscape:pageopacity="0"
     inkscape:pageshadow="2"
     inkscape:window-width="1920"
     inkscape:window-height="1001"
     id="namedview16"
     showgrid="false"
     inkscape:zoom="1.4310345"
     inkscape:cx="290"
     inkscape:cy="290"
     inkscape:window-x="-9"
     inkscape:window-y="-9"
     inkscape:window-maximized="1"
     inkscape:current-layer="svg14" />
  <path
     id="path2"
     style="fill:none;stroke:#ffffff;stroke-width:40;stroke-miterlimit:4;stroke-dasharray:none;stroke-linejoin:round"
     d="m 175.36,506.02 c -20.78358,-0.45206 -25.94706,21.52298 -24,38.05283 0.95571,6.90016 14.3777,1.33406 20.44047,3.12717 85.61318,0 171.22635,0 256.83953,0 0.22796,-14.32449 1.85999,-33.02656 -14.65594,-39.29469 -19.74441,-3.81652 -40.32719,-1.03907 -60.44524,-1.88531 -59.39294,0 -118.78588,0 -178.17882,0 z m 37.68,-58.84 c -20.78011,-0.44788 -25.94787,21.52301 -24,38.05283 0.95571,6.90016 14.3777,1.33406 20.44047,3.12717 60.74985,0 121.49969,0 182.24953,0 0.22948,-14.3257 1.85671,-33.02695 -14.66016,-39.29469 -19.74284,-3.81682 -40.32441,-1.03887 -60.44102,-1.88531 -34.52961,0 -69.05921,0 -103.58882,0 z m 45.45,-343.82 c -24.99638,0.1898 -44.82953,23.87587 -41.48,48.40765 0.14052,31.89624 -0.28185,63.81046 0.21254,95.6954 0.57087,21.49824 35.83159,-0.38341 29.74746,21.05719 0.1786,48.46016 -0.35893,96.94393 0.27182,145.38919 2.09519,17.1352 21.76657,13.24269 34.10606,13.64057 14.92967,-0.9752 30.63351,2.36703 44.89257,-2.5933 11.18114,-9.76784 5.30094,-26.31412 6.78955,-39.43976 0,-42.40565 0,-84.81129 0,-127.21694 16.96393,4.61314 34.77177,-3.92302 29.96,-23.10271 -0.494,-32.67416 1.02792,-65.47114 -0.8357,-98.06229 C 357.70551,109.13992 326.39956,99.626527 301.81544,103.76525 287.37239,103.86532 272.93047,103.59368 258.49,103.36 Z M 290.31,32.805 C 264.35803,31.30063 248.03757,65.812044 265.61707,84.931115 280.17482,105.17133 314.74783,97.878904 320.93271,74.092414 327.51276,54.239698 311.26907,32.152649 290.31,32.805 Z" />
  <path
     id="path4"
     style="fill:#734a08;stroke:none"
     d="M 290.31055 32.804688 C 281.64207 32.804688 274.07089 35.87674 267.81641 42.021484 C 261.45221 48.166231 258.37891 55.736353 258.37891 64.84375 C 258.37891 73.512233 261.56194 81.083416 267.81641 87.337891 C 274.18061 93.702093 281.64207 96.884766 290.31055 96.884766 C 298.97904 96.884766 306.55021 93.702093 312.80469 87.337891 C 319.16889 80.973688 322.24023 73.512233 322.24023 64.84375 C 322.24023 55.736353 319.05916 48.166231 312.80469 42.021484 C 306.44049 35.87674 298.97904 32.804687 290.31055 32.804688 z M 258.49023 103.35742 C 233.38086 105.26398 217.30102 122.68018 217.01172 145.38477 L 217.01172 244.14062 C 217.01172 253.5772 221.56642 258.4043 230.07031 258.4043 C 240.89446 258.4043 243.53658 258.37145 246.96875 258.34375 L 246.96875 409.82812 C 246.96875 421.54077 252.76553 427.45352 264.3418 427.58984 L 264.3418 427.60352 L 264.74414 427.60352 L 315.25586 427.60352 L 315.6582 427.60352 L 315.6582 427.58984 C 327.23447 427.45352 333.03125 421.54076 333.03125 409.82812 L 333.03125 258.34375 C 336.46342 258.37155 339.10554 258.4043 349.92969 258.4043 C 358.43358 258.4043 362.98828 253.5772 362.98828 244.14062 L 362.98828 145.38477 C 362.69898 122.68018 346.61914 105.26398 321.50977 103.35742 C 300.49971 104.11576 279.50099 103.70324 258.49023 103.35742 z M 213.04102 447.17578 C 199.78673 447.17678 189.04234 457.92149 189.04102 471.17578 L 189.04102 488.35742 L 391.73047 488.35742 L 391.73047 471.17578 C 391.72947 457.92149 380.98475 447.17711 367.73047 447.17578 L 213.04102 447.17578 z M 175.35547 506.01562 C 162.10118 506.01662 151.3568 516.76134 151.35547 530.01562 L 151.35547 547.19531 L 428.64453 547.19531 L 428.64453 530.01562 C 428.64353 516.76135 417.89882 506.01695 404.64453 506.01562 L 175.35547 506.01562 z " />
</svg>
