<?xml version="1.0" encoding="UTF-8"?>
<svg width="580" height="580" version="1.1" xmlns="http://www.w3.org/2000/svg"><path d="m213 164c-26.9 2e-3 -48.7 21.8-48.7 48.7v155c3e-3 26.9 21.8 48.7 48.7 48.7h155c26.9-3e-3 48.7-21.8 48.7-48.7v-155c-3e-3 -26.9-21.8-48.7-48.7-48.7z" fill="none" opacity=".8" stroke="#fff" stroke-linejoin="round" stroke-width="40"/><path d="m213 164c-26.9 2e-3 -48.7 21.8-48.7 48.7v155c3e-3 26.9 21.8 48.7 48.7 48.7h155c26.9-3e-3 48.7-21.8 48.7-48.7v-155c-3e-3 -26.9-21.8-48.7-48.7-48.7z" fill="#734a08"/><path d="m266 197c-2.01 9.33 7.73 9.82 8.53 1.29-5.5-8.24 15.3-12.6 2.98-13.7-6.28 0-11.6 6.04-11.5 12.4zm-26.2-12c-11.2 6.28 12.6 7.08 0 0zm6.04 19.6c5.55-0.644 10.6-15.2 4.67-19.3-7.73 1.93-8.37 14-4.67 19.3zm9.98-1.93c7.24 4.02 7.16-14.1 1.29-17.1-3.86 4.83-2.9 11.6-1.29 17.1zm54-6.44c0 0.805-0.0805 1.53-0.161 2.33 0.362 13.2 13.3 2.94 7.4-5.39 7.89-4.1-0.885 13.7 7.16 11.8 1.61-1.29 2.47-2.52 2.87-4.78 0.0336-6.08-2.24-13.9-7.98-14.3-4.97-0.108-8.7 6.34-9.29 10.3zm23.3 8.29c7.24 9.66 9.42-6.44 4.59-10.9-4.26 7.08-3.86-6.2-7.64-7.08l-0.0805 0.0805c-1.85 0.885-1.53 3.38-1.93 4.99-2.81 5.36 1.23 17.7 5.07 12.9zm-27.7-18.1c-2.66 4.35-14 12.1-7.24 20 12.3 2.73 14.6-15 7.24-20zm-79.6 17.5c7.24 9.66 9.42-6.44 4.67-10.9-4.26 7.08-4.02-6.2-7.77-7-3.85 6.9-3.08 25.9 3.1 17.9zm-12.1-0.483c7.24 4.02 7.16-14.1 1.29-17.1-3.86 4.83-2.9 11.6-1.29 17.1zm130 2.25c5.47-0.644 10.5-15.3 4.59-19.3-7.64 1.93-8.29 13.9-4.59 19.3zm11 1.05c11.2 6.92 15.8-14.5 7.24-20-2.66 4.35-14 12.1-7.24 20zm-67.6-5.07c-7 10.1 12.6 3.3 5.95-2.98-3.14 1.21 2.98-8.85-3.86-6.04-8.54-2.7-4.85 4.65-2.09 9.01zm-50.2 4.91c4.1 10.4 11.4-13 1.93-14-3.54 3.86-1.93 9.33-1.93 14zm42.2-13.8c-3.62 3.7-2.09 9.17-1.93 13.9 4.1 10.4 11.2-12.9 1.93-14zm22.4 4.75c6.52 9.66-4.75 3.46 0 0zm57.9 0.322c6.44 6.76-6.28 6.92 0 0zm-109 35.6c7.24 4.02 7.24-14.1 1.37-17.1-4.02 4.83-2.98 11.6-1.37 17.1zm8.61-17.1c-3.46 1.61-4.59 22.3 3.06 17.7 7.16 9.66 9.42-6.44 4.59-10.9-6.12 6.84-3.34-5.49-7.64-6.84zm-22.1 20c11.2 6.92 15.7-14.4 7.32-20-2.66 4.35-14 12.2-7.32 20zm-11.6-0.644c5.55-0.644 10.5-15.2 4.67-19.3-7.73 1.93-8.37 14-4.67 19.3zm64.9-1.29c7.24 9.66 9.42-6.44 4.59-10.9-4.26 7.08-3.86-6.28-7.68-6.96-3.34 1.81-4.55 22.3 3.1 17.8zm64.5-17.9c-11.2 6.2 12.5 7.32 0 0zm-53.7 19.5c5.63-0.644 10.5-15.2 4.67-19.3-7.73 1.93-8.37 14-4.67 19.3zm22.7 1.13c11.2 6.84 15.3-14.7 6.92-20-2.25 4.75-14.2 11.9-6.92 20zm17.2-2.33c7.24 9.66 9.42-6.44 4.59-10.9-4.18 7.08-3.94-6.04-7.64-7l-0.0402 0.0805c-3.34 1.77-4.47 22.3 3.1 17.8zm-68.9-11c0.241 1.21 4.1 5.31-0.322 8.61-0.563 16.9 21.7-8.85 4.91-9.82zm39.5 9.58c-6.52 9.98 13.1 1.53 5.87-3.94-3.22 1.45 1.93-6.36-1.61-6.44-8.85 0.644-7.01 3.58-4.26 10.4zm39 6.44c6.2 5.87 10.1-14.1 2.09-16-3.22 4.75-2.25 10.5-2.09 16zm-111-12.7c6.44 6.76-6.28 6.92 0 0zm87.8 0.885c6.04 7.16-6.68 6.6-0.0805 0zm-50 3.14c3.54 6.36-7.4 0.241 0 0zm35 47.2c-11.2 6.28 12.5 7.16 0 0zm-60.2 19.6c5.55-0.644 10.6-15.2 4.67-19.3-7.73 1.93-8.37 14-4.67 19.3zm66 0c5.55-0.644 10.6-15.2 4.67-19.3-7.73 1.93-8.37 14-4.67 19.3zm-44.2-1.85c7.24 3.94 7.16-14.1 1.37-17.1-4.02 4.83-2.98 11.6-1.37 17.1zm8.61-17.1c-3.46 1.61-4.59 22.2 2.98 17.7 7.16 9.66 9.42-6.44 4.59-10.9-6.16 6.88-3.22-5.57-7.56-6.84zm-18.3 15.4c-7.08 10.2 12.6 3.62 5.95-2.82-3.14 1.13 2.98-9.01-3.86-6.12-1.61-0.483-2.82-0.724-3.7-0.724-4.83-0.0805-0.402 6.12 1.61 9.66zm32.6 1.37c-0.644 15 21.6-9.01 4.99-10.4-8.5 0.507-0.64 8.1-4.99 10.4zm12.6 3.86c4.1 10.4 11.4-13 1.93-14-3.54 3.86-1.93 9.33-1.93 14zm-7-5.95c3.7 6.92-7.64 0.322 0 0zm2.25 30c-0.0805 8.85 7.48 5.07 7.89-1.21-3.78-6.76 8.53-7.64 6.04-13.6-8.34-2.1-14.9 8.65-13.9 14.8zm-43.1-14.8c-11.2 6.28 12.6 7.16 0 0zm75 19.6c5.55-0.644 10.6-15.2 4.67-19.3-7.73 1.93-8.37 14-4.67 19.3zm-101 1.05c11.2 6.84 15.3-14.6 6.92-20-2.25 4.75-14.2 11.9-6.92 20zm57.9-6.36c-0.644 13.3 12.2-0.805 8.69-7.16-4.45-2.65-8.34 3.6-8.69 7.16zm-37.3 5.31c-0.68-7.34 0.886-12.3-5.55-12.9-5.55 0.121-3.7 18.5 5.55 12.9zm67 0.322c9.33 8.69 12.9-10.9 4.59-12.9-13-0.25 1.94 9.74-4.59 12.9zm-43.9-3.46c2.9 15.3 22-9.01 6.68-9.33-4.74 0.446-7.3 5.65-6.68 9.33zm-7-9.33c-10.8 1.85-6.96 14.3-0.161 14.7 2.41-7.46 8.83-15.2 0.161-14.7zm-11.5 0.241c-3.62 3.78-2.09 9.33-1.93 14 5.85 8.18 8.92-12.7 1.93-14zm54.9 13.9c4.1 10.4 11.4-12.9 1.93-14-3.62 3.78-2.09 9.33-1.93 14zm-43.1-10.4c5.39 2.9-6.2 3.06 0 0zm-32.9 0.724c6.2 7.08-6.6 6.52 0 0zm46.7 0.0805c7.08 6.2-6.92 6.76 0 0zm-43.4 19c-11.2 6.28 12.6 7.08 0 0zm-27 19.6c5.55-0.563 10.6-15.2 4.67-19.3-7.64 1.85-8.29 13.9-4.67 19.3zm53.4-6.84c0.161 2.58 0.885 5.15 2.09 6.92 5.63-0.644 10.6-15.2 4.67-19.4-6.4 2.62-6.07 7.41-6.76 12.4zm-4.26-12.1c-2.66 4.35-14 12.2-7.24 20 13.4 4.56 13.6-15.3 7.24-20zm-37.6 0.0805c-3.46 1.61-4.59 22.3 3.06 17.7 7.16 9.66 9.42-6.44 4.59-10.9-4.26 7.08-4.02-6.12-7.68-7zm21.4 17c7.24 4.1 7.24-14.1 1.37-17.1-4.02 4.83-2.98 11.6-1.37 17.1zm95.8-15c-9.01 5.23 1.53 9.82 0.885 16.1 7.4 8.77 15-17.2 8.57-17.2zm-13 18.8c10.1 0 11.6-19 0.966-20-9.33 1.29-10.5 18.2-0.966 20zm2.49-12.3c3.62 10.5-8.85-0.0805-1.61-2.9 1.05 0.563 1.37 1.77 1.61 2.9zm13.6-2.82c7.4 5.31-6.2 6.6 0 0zm-58.7 10.5c-6.6 4.26 4.91 6.44 6.84 2.17-3.52-7.64 0.912-11.8-6.8-12.4-5.35-0.0805-2.45 7.24-0.0402 10.2zm25.5 9.42c7.44-6.54 14.8-18 3.26-19.6-8.73-0.241-10.2 16.6-3.26 19.6zm-15.4-18.2c0.241 1.21 4.1 5.31-0.322 8.69-0.563 16.9 21.7-8.85 4.91-9.82zm-57.9 15.2c6.2 5.87 10.1-14.1 2.09-16-3.22 4.75-2.17 10.5-2.09 16zm76.1-11.8c6.2 6.92-5.39 5.95 0 0zm-55.5 0.161c6.52 6.6-6.2 7 0 0zm41.8 3.78c3.54 6.28-7.32 0.322 0 0zm55.5 1.61c-11.2 6.28 12.2 6.92 0 0zm-88.5 13.7c-11.2 6.28 12.5 7.32 0 0zm-24.8 19.6c5.55-0.644 10.6-15.2 4.67-19.3-7.64 1.93-8.37 13.9-4.67 19.3zm32.2 0.402c4.75-4.18 8.29-16.1 3.06-19.7-6.6 1.77-8.29 13.8-3.06 19.7zm34.4-19.3c-3.46 1.61-6.76 28.8 3.06 17.7 7.24 9.66 9.42-6.44 4.59-10.9-6.02 6.84-3.31-5.49-7.64-6.84zm13.9 17c7.24 3.94 7.16-14.1 1.37-17.1-4.02 4.83-2.98 11.6-1.37 17.1zm-25.8-1.37c-6.04 4.75 4.75 7.64 7 3.14-3-7.84 1.11-11.5-6.24-12.6-4.63-0.201-3.42 6.72-0.764 9.46zm-42.2-9.01c-6.76 0.644-6.36 19 3.14 14.7 0.316-1.9 9.67-16.7-3.14-14.7zm27 1.13c0.241 1.13 4.1 5.31-0.322 8.69-0.563 16.9 21.7-8.85 4.91-9.86zm-18.9 13.2c4.1 10.5 11.4-12.9 1.93-13.9-3.62 3.7-2.09 9.33-1.93 13.9zm-7.56-10.3c5.47 2.25-5.95 3.14 0 0zm31.4 4.51c3.46 6.52-7.08 0.0805 0 0z" fill="#fff"/></svg>
