<svg height="580" width="580" xmlns="http://www.w3.org/2000/svg"><g fill="none" opacity=".8" stroke="#fff" stroke-width="38.41" transform="matrix(1.0413 0 0 1.0413 -11.668 -11.972)"><path d="m129.47 67.277v363.273c0 2.3 322.34 1.15 322.34 0v-363.273c0-14.583-12.29-28.014-27.77-28.014h-267.07c-14.2 0-27.5 13.431-27.5 28.014z"/><path d="m109.45 472.76h359.3c1.16 0-17.78-26.73-17.78-26.73h-323.56z"/><path d="m104.65 496.42v42.21c0 1.15 1.16 2.31 2.18 2.31h364.54c1.16 0 2.18-1.16 2.18-2.31v-42.21c0-1.15-1.16-1.15-2.18-1.15h-364.54c-1.16 0-2.18 0-2.18 1.15z"/></g><g transform="matrix(1.0413 0 0 1.0413 -11.668 -11.972)"><path d="m129.47 67.277v363.273c0 2.3 322.34 1.15 322.34 0v-363.273c0-14.583-12.29-28.014-27.77-28.014h-267.07c-14.2 0-27.5 13.431-27.5 28.014z" fill="#734a08"/><path d="m109.45 472.76h359.3c1.16 0-17.78-26.73-17.78-26.73h-323.56z" fill="#947445"/><path d="m104.65 496.42v42.21c0 1.15 1.16 2.31 2.18 2.31h364.54c1.16 0 2.18-1.16 2.18-2.31v-42.21c0-1.15-1.16-1.15-2.18-1.15h-364.54c-1.16 0-2.18 0-2.18 1.15z" fill="#734a08"/></g><path d="m254.2 76.194c-3.32 15.449 12.8 16.252 14.12 2.132-9.11-13.644 25.3-20.855 4.92-22.643-10.38 0-19.17 9.989-19.04 20.511zm-43.29-19.845c-18.51 10.388 20.91 11.721 0 0zm10 32.368c9.18-1.063 17.58-25.175 7.72-31.968-12.79 3.196-13.86 23.175-7.72 31.968zm16.5-3.198c11.99 6.657 11.86-23.31 2.14-28.371-6.39 7.992-4.79 19.18-2.14 28.371zm89.38-10.657c0 1.332-.13 2.532-.27 3.864.61 21.874 21.96 4.873 12.26-8.924 13.05-6.792-1.47 22.644 11.85 19.576 2.66-2.124 4.09-4.174 4.76-7.902.11-10.066-3.72-22.943-13.22-23.661-8.22-.179-14.41 10.489-15.38 17.047zm38.63 13.724c11.98 15.984 15.57-10.659 7.59-17.985-7.06 11.721-6.4-10.256-12.65-11.721l-.15.133c-3.05 1.465-2.52 5.594-3.19 8.258-4.64 8.88 2.05 29.372 8.4 21.315zm-45.83-29.973c-4.38 7.193-23.17 19.979-11.97 33.16 20.32 4.526 24.11-24.814 11.97-33.16zm-131.72 29.041c11.99 15.976 15.59-10.661 7.73-17.985-7.06 11.72-6.67-10.256-12.85-11.588-6.39 11.425-5.12 42.859 5.12 29.573zm-19.98-.801c11.99 6.655 11.86-23.311 2.14-28.372-6.4 7.991-4.81 19.179-2.14 28.372zm215.63 3.727c9.07-1.062 17.32-25.307 7.6-31.967-12.66 3.197-13.72 23.042-7.6 31.967zm18.25 1.731c18.52 11.449 26.11-23.974 11.99-33.164-4.39 7.192-23.18 19.978-11.99 33.164zm-111.88-8.392c-11.59 16.781 20.91 5.459 9.86-4.927-5.19 1.997 4.93-14.652-6.39-9.99-14.13-4.472-8.02 7.692-3.47 14.917zm-83.11 8.125c6.8 17.176 18.92-21.577 3.2-23.174-5.87 6.392-3.2 15.446-3.2 23.174zm69.8-22.909c-6 6.127-3.46 15.181-3.2 23.041 6.79 17.194 18.51-21.309 3.2-23.174zm37.03 7.858c10.78 15.984-7.87 5.729 0 0zm95.88.534c10.67 11.19-10.38 11.45 0 0zm-180.73 58.993c11.99 6.67 11.99-23.3 2.27-28.36-6.66 7.99-4.93 19.18-2.27 28.36zm14.26-28.23c-5.74 2.67-7.61 36.9 5.06 29.31 11.85 15.98 15.57-10.66 7.59-17.99-10.13 11.32-5.53-9.09-12.65-11.32zm-36.64 33.17c18.52 11.45 25.98-23.85 12.13-33.17-4.4 7.2-23.18 20.25-12.13 33.17zm-19.18-1.06c9.2-1.08 17.32-25.18 7.73-31.97-12.79 3.19-13.86 23.18-7.73 31.97zm107.36-2.14c11.98 15.99 15.58-10.65 7.59-17.98-7.06 11.72-6.39-10.38-12.72-11.53-5.53 3.01-7.52 36.97 5.13 29.51zm106.68-29.69c-18.52 10.24 20.64 12.11 0 0zm-88.83 32.22c9.32-1.07 17.3-25.18 7.72-31.96-12.78 3.19-13.85 23.17-7.72 31.96zm37.55 1.87c18.52 11.31 25.31-24.38 11.46-33.17-3.73 7.86-23.44 19.72-11.46 33.17zm28.5-3.87c12 15.99 15.59-10.65 7.59-17.98-6.92 11.73-6.52-9.99-12.65-11.59l-.1.15c-5.53 2.92-7.39 36.88 5.12 29.42zm-114-18.24c.39 1.99 6.8 8.79-.54 14.26-.93 27.95 35.97-14.67 8.13-16.27zm65.4 15.85c-10.8 16.51 21.71 2.53 9.72-6.53-5.34 2.39 3.2-10.53-2.67-10.65-14.65 1.06-11.6 5.91-7.05 17.18zm64.6 10.65c10.24 9.73 16.65-23.3 3.45-26.5-5.32 7.86-3.72 17.31-3.45 26.5zm-184.35-21.03c10.65 11.18-10.38 11.44 0 0zm145.31 1.45c10 11.85-11.05 10.92-.12 0zm-82.71 5.2c5.87 10.52-12.25.4 0 0zm57.94 78.04c-18.51 10.41 20.65 11.86 0 0zm-99.62 32.5c9.18-1.06 17.58-25.17 7.72-31.97-12.78 3.2-13.85 23.18-7.72 31.97zm109.21 0c9.19-1.06 17.58-25.17 7.73-31.97-12.79 3.2-13.85 23.18-7.73 31.97zm-73.12-3.06c11.99 6.53 11.85-23.31 2.27-28.37-6.67 8-4.93 19.19-2.27 28.37zm14.26-28.23c-5.74 2.66-7.61 36.76 4.91 29.29 11.86 16 15.59-10.65 7.6-17.97-10.19 11.38-5.33-9.23-12.51-11.32zm-30.38 25.44c-11.71 16.91 20.91 6 9.85-4.67-5.18 1.87 4.94-14.92-6.39-10.12-2.66-.8-4.66-1.19-6.12-1.19-7.99-.14-.66 10.12 2.66 15.98zm53.95 2.26c-1.07 24.91 35.82-14.92 8.26-17.18-14.08.84-1.06 13.4-8.26 17.18zm20.91 6.4c6.79 17.17 18.91-21.58 3.2-23.19-5.87 6.4-3.2 15.46-3.2 23.19zm-11.59-9.87c6.12 11.47-12.65.53 0 0zm3.73 49.69c-.13 14.65 12.39 8.39 13.04-2.01-6.24-11.18 14.13-12.64 10-22.5-13.81-3.49-24.61 14.32-23.04 24.51zm-71.39-24.51c-18.52 10.39 20.92 11.85 0 0zm124.13 32.5c9.19-1.06 17.58-25.17 7.72-31.97-12.78 3.2-13.84 23.18-7.72 31.97zm-167.55 1.74c18.51 11.3 25.3-24.25 11.45-33.18-3.73 7.86-23.45 19.72-11.45 33.18zm95.76-10.53c-1.07 21.98 20.26-1.33 14.39-11.86-7.37-4.37-13.8 5.97-14.39 11.86zm-61.67 8.79c-1.13-12.14 1.48-20.4-9.19-21.38-9.19.2-6.12 30.7 9.19 21.38zm110.96.53c15.45 14.38 21.31-18.11 7.59-21.31-21.44-.41 3.2 16.13-7.59 21.31zm-72.6-5.73c4.8 25.31 36.5-14.91 11.06-15.45-7.84.74-12.08 9.35-11.06 15.45zm-11.59-15.45c-17.88 3.07-11.52 23.64-.26 24.38 4-12.34 14.62-25.13.26-24.38zm-19.03.41c-6 6.25-3.48 15.45-3.2 23.16 9.67 13.54 14.74-20.94 3.2-23.16zm90.82 23.04c6.79 17.17 18.92-21.32 3.21-23.18-6 6.26-3.48 15.44-3.21 23.18zm-71.38-17.18c8.92 4.79-10.26 5.06 0 0zm-54.48 1.2c10.25 11.72-10.93 10.78 0 0zm77.25.13c11.72 10.26-11.45 11.18 0 0zm-71.79 31.43c-18.51 10.39 20.91 11.72 0 0zm-44.75 32.49c9.19-.92 17.58-25.16 7.73-31.96-12.67 3.07-13.73 23.04-7.73 31.96zm88.44-11.31c.27 4.25 1.46 8.52 3.46 11.46 9.32-1.07 17.58-25.18 7.73-32.04-10.6 4.34-10.05 12.26-11.19 20.58zm-7.07-19.99c-4.38 7.2-23.16 20.25-11.98 33.17 22.17 7.55 22.54-25.41 11.98-33.17zm-62.19.14c-5.73 2.67-7.59 36.9 5.06 29.3 11.85 15.98 15.58-10.65 7.59-17.98-7.05 11.72-6.66-10.12-12.72-11.59zm35.42 28.11c11.99 6.78 11.99-23.31 2.27-28.38-6.65 8.01-4.93 19.19-2.27 28.38zm158.64-24.78c-14.91 8.66 2.53 16.24 1.47 26.65 12.25 14.5 24.77-28.51 14.18-28.45zm-21.45 31.17c16.65 0 19.18-31.44 1.6-33.16-15.45 2.13-17.31 30.09-1.6 33.16zm4.13-20.38c5.99 17.31-14.65-.14-2.65-4.79 1.72.93 2.25 2.92 2.65 4.79zm22.52-4.67c12.25 8.79-10.26 10.93 0 0zm-97.24 17.46c-10.92 7.06 8.12 10.65 11.32 3.6-5.82-12.65 1.51-19.54-11.24-20.53-8.88-.12-4.08 11.99-.12 16.93zm42.23 15.58c12.3-10.84 24.49-29.87 5.39-32.51-14.45-.38-16.85 27.45-5.39 32.51zm-25.44-30.1c.39 2 6.8 8.79-.53 14.39-.94 27.96 35.96-14.66 8.12-16.25zm-95.78 25.17c10.27 9.72 16.65-23.31 3.47-26.5-5.33 7.86-3.59 17.31-3.47 26.5zm126.01-19.58c10.26 11.47-8.93 9.86 0 0zm-91.91.26c10.8 10.94-10.25 11.59 0 0zm69.27 6.27c5.86 10.38-12.12.53 0 0zm91.89 2.67c-18.5 10.38 20.25 11.44 0 0zm-146.51 22.64c-18.5 10.39 20.65 12.11 0 0zm-41.01 32.49c9.18-1.06 17.58-25.17 7.73-31.96-12.67 3.2-13.86 23.05-7.73 31.96zm53.28.67c7.85-6.93 13.7-26.64 5.05-32.63-10.91 2.93-13.71 22.9-5.05 32.63zm57-31.97c-5.73 2.67-11.18 47.69 5.06 29.31 11.99 15.98 15.59-10.66 7.59-17.98-9.97 11.32-5.48-9.1-12.65-11.33zm23.04 28.1c11.99 6.53 11.86-23.3 2.26-28.36-6.66 7.99-4.92 19.17-2.26 28.36zm-42.76-2.26c-9.98 7.86 7.86 12.66 11.59 5.19-4.97-12.97 1.84-19.02-10.32-20.85-7.67-.32-5.66 11.12-1.27 15.66zm-69.79-14.92c-11.18 1.07-10.52 31.44 5.2 24.38.53-3.15 16.01-27.64-5.2-24.38zm44.62 1.87c.41 1.86 6.8 8.79-.53 14.39-.93 27.97 35.97-14.66 8.12-16.32zm-31.3 21.84c6.8 17.32 18.92-21.31 3.2-23.04-5.99 6.13-3.47 15.45-3.2 23.04zm-12.52-17.05c9.05 3.72-9.85 5.2 0 0zm51.94 7.46c5.74 10.79-11.71.14 0 0z" fill="#fff"/></svg>