<?xml version="1.0" encoding="UTF-8"?>
<svg width="580" height="580" version="1.1" xmlns="http://www.w3.org/2000/svg"><path d="m164 118h252v246c0 131-252 131-252 0z" fill="none" opacity=".8" stroke="#fff" stroke-linecap="round" stroke-linejoin="round" stroke-width="40"/><path d="m164 118h252v246c0 131-252 131-252 0z" fill="#734a08"/><path d="m264 188c-2.21 10.2 8.48 10.8 9.37 1.41-6.04-9.05 16.8-13.8 3.27-15-6.89 0-12.7 6.63-12.6 13.6zm-28.7-13.2c-12.3 6.89 13.9 7.78 0 0zm6.63 21.5c6.1-0.707 11.7-16.7 5.12-21.2-8.48 2.12-9.19 15.4-5.12 21.2zm11-2.12c7.95 4.42 7.86-15.5 1.41-18.8-4.24 5.3-3.18 12.7-1.41 18.8zm59.3-7.07c0 0.884-0.0883 1.68-0.177 2.56 0.398 14.5 14.6 3.23 8.13-5.92 8.66-4.51-0.972 15 7.86 13 1.77-1.41 2.71-2.77 3.16-5.24 0.0368-6.68-2.46-15.2-8.77-15.7-5.46-0.119-9.56 6.96-10.2 11.3zm25.6 9.1c7.95 10.6 10.3-7.07 5.04-11.9-4.68 7.78-4.24-6.8-8.39-7.78l-0.0883 0.0884c-2.03 0.972-1.68 3.71-2.12 5.48-3.08 5.89 1.35 19.5 5.57 14.1zm-30.4-19.9c-2.92 4.77-15.4 13.3-7.95 22 13.5 3 16-16.5 7.95-22zm-87.4 19.3c7.95 10.6 10.3-7.07 5.12-11.9-4.68 7.78-4.42-6.8-8.53-7.69-4.23 7.58-3.38 28.4 3.4 19.6zm-13.3-0.53c7.95 4.42 7.86-15.5 1.41-18.8-4.24 5.3-3.18 12.7-1.41 18.8zm143 2.47c6.01-0.707 11.5-16.8 5.04-21.2-8.39 2.12-9.1 15.3-5.04 21.2zm12.1 1.15c12.3 7.6 17.3-15.9 7.95-22-2.92 4.77-15.4 13.3-7.95 22zm-74.2-5.57c-7.69 11.1 13.9 3.62 6.54-3.27-3.45 1.33 3.27-9.72-4.24-6.63-9.38-2.97-5.32 5.1-2.3 9.9zm-55.1 5.39c4.51 11.4 12.5-14.3 2.12-15.4-3.89 4.24-2.12 10.2-2.12 15.4zm46.3-15.2c-3.98 4.06-2.3 10.1-2.12 15.3 4.51 11.4 12.3-14.1 2.12-15.4zm24.6 5.21c7.16 10.6-5.21 3.8 0 0zm63.6 0.353c7.07 7.42-6.89 7.6 0 0zm-120 39.1c7.95 4.42 7.95-15.5 1.5-18.8-4.42 5.3-3.27 12.7-1.5 18.8zm9.45-18.7c-3.8 1.77-5.04 24.5 3.36 19.4 7.86 10.6 10.3-7.07 5.04-11.9-6.72 7.51-3.66-6.03-8.39-7.51zm-24.3 22c12.3 7.6 17.2-15.8 8.04-22-2.92 4.77-15.4 13.4-8.04 22zm-12.7-0.707c6.1-0.707 11.5-16.7 5.12-21.2-8.48 2.12-9.19 15.4-5.12 21.2zm71.2-1.41c7.95 10.6 10.3-7.07 5.04-11.9-4.68 7.78-4.24-6.89-8.44-7.64-3.67 1.99-4.99 24.5 3.4 19.6zm70.8-19.7c-12.3 6.8 13.7 8.04 0 0zm-58.9 21.4c6.19-0.707 11.5-16.7 5.12-21.2-8.48 2.12-9.19 15.4-5.12 21.2zm24.9 1.24c12.3 7.51 16.8-16.2 7.6-22-2.47 5.21-15.6 13.1-7.6 22zm18.9-2.56c7.95 10.6 10.3-7.07 5.04-11.9-4.59 7.78-4.33-6.63-8.39-7.69l-0.0442 0.0884c-3.67 1.94-4.9 24.5 3.4 19.5zm-75.6-12.1c0.265 1.33 4.51 5.83-0.353 9.45-0.618 18.6 23.9-9.72 5.39-10.8zm43.4 10.5c-7.16 11 14.4 1.68 6.45-4.33-3.53 1.59 2.12-6.98-1.77-7.07-9.72 0.707-7.7 3.93-4.68 11.4zm42.9 7.07c6.8 6.45 11-15.5 2.3-17.6-3.53 5.21-2.47 11.5-2.3 17.6zm-122-14c7.07 7.42-6.89 7.6 0 0zm96.4 0.972c6.63 7.86-7.33 7.25-0.0883 0zm-54.9 3.45c3.89 6.98-8.13 0.265 0 0zm38.4 51.8c-12.3 6.89 13.7 7.86 0 0zm-66.1 21.6c6.1-0.707 11.7-16.7 5.12-21.2-8.48 2.12-9.19 15.4-5.12 21.2zm72.5 0c6.1-0.707 11.7-16.7 5.12-21.2-8.48 2.12-9.19 15.4-5.12 21.2zm-48.5-2.03c7.95 4.33 7.86-15.5 1.5-18.8-4.42 5.3-3.27 12.7-1.5 18.8zm9.45-18.7c-3.8 1.77-5.04 24.4 3.27 19.4 7.86 10.6 10.3-7.07 5.04-11.9-6.77 7.55-3.54-6.12-8.31-7.51zm-20.1 16.9c-7.78 11.2 13.9 3.98 6.54-3.09-3.45 1.24 3.27-9.9-4.24-6.72-1.77-0.53-3.09-0.795-4.06-0.795-5.3-0.0884-0.442 6.72 1.77 10.6zm35.8 1.5c-0.707 16.5 23.8-9.9 5.48-11.4-9.34 0.557-0.703 8.89-5.48 11.4zm13.9 4.24c4.51 11.4 12.5-14.3 2.12-15.4-3.89 4.24-2.12 10.2-2.12 15.4zm-7.69-6.54c4.06 7.6-8.39 0.353 0 0zm2.47 33c-0.0884 9.72 8.22 5.57 8.66-1.33-4.15-7.42 9.37-8.39 6.63-14.9-9.16-2.31-16.3 9.5-15.3 16.3zm-47.4-16.3c-12.3 6.89 13.9 7.86 0 0zm82.3 21.6c6.1-0.707 11.7-16.7 5.12-21.2-8.48 2.12-9.19 15.4-5.12 21.2zm-111 1.15c12.3 7.51 16.8-16.1 7.6-22-2.47 5.21-15.6 13.1-7.6 22zm63.5-6.98c-0.707 14.6 13.4-0.884 9.54-7.86-4.89-2.91-9.15 3.95-9.54 7.86zm-40.9 5.83c-0.747-8.05 0.973-13.5-6.1-14.2-6.1 0.133-4.06 20.4 6.1 14.2zm73.6 0.353c10.2 9.54 14.1-12 5.04-14.1-14.2-0.275 2.13 10.7-5.04 14.1zm-48.2-3.8c3.18 16.8 24.2-9.9 7.33-10.2-5.2 0.489-8.01 6.2-7.33 10.2zm-7.69-10.2c-11.9 2.03-7.64 15.7-0.177 16.2 2.65-8.19 9.7-16.7 0.177-16.2zm-12.6 0.265c-3.98 4.15-2.3 10.2-2.12 15.4 6.42 8.98 9.79-13.9 2.12-15.4zm60.3 15.3c4.51 11.4 12.5-14.1 2.12-15.4-3.98 4.15-2.3 10.2-2.12 15.4zm-47.4-11.4c5.92 3.18-6.8 3.36 0 0zm-36.1 0.795c6.8 7.78-7.25 7.16 0 0zm51.2 0.0884c7.78 6.8-7.6 7.42 0 0zm-47.6 20.9c-12.3 6.89 13.9 7.78 0 0zm-29.7 21.6c6.1-0.618 11.7-16.7 5.12-21.2-8.39 2.03-9.1 15.3-5.12 21.2zm58.7-7.51c0.177 2.83 0.972 5.65 2.3 7.6 6.19-0.707 11.7-16.7 5.12-21.2-7.03 2.88-6.66 8.13-7.42 13.7zm-4.68-13.3c-2.92 4.77-15.4 13.4-7.95 22 14.7 5 15-16.9 7.95-22zm-41.3 0.0884c-3.8 1.77-5.04 24.5 3.36 19.4 7.86 10.6 10.3-7.07 5.04-11.9-4.68 7.78-4.42-6.72-8.44-7.69zm23.5 18.6c7.95 4.51 7.95-15.5 1.5-18.8-4.42 5.3-3.27 12.7-1.5 18.8zm105-16.4c-9.9 5.74 1.68 10.8 0.972 17.7 8.13 9.63 16.4-18.9 9.41-18.9zm-14.2 20.7c11 0 12.7-20.9 1.06-22-10.2 1.41-11.5 20-1.06 22zm2.74-13.5c3.98 11.5-9.72-0.0883-1.77-3.18 1.15 0.618 1.5 1.94 1.77 3.18zm14.9-3.09c8.13 5.83-6.8 7.25 0 0zm-64.5 11.6c-7.25 4.68 5.39 7.07 7.51 2.39-3.86-8.39 1-13-7.47-13.6-5.88-0.0884-2.69 7.95-0.0442 11.2zm28 10.3c8.17-7.19 16.2-19.8 3.58-21.6-9.59-0.265-11.2 18.2-3.58 21.6zm-16.9-20c0.265 1.33 4.51 5.83-0.353 9.54-0.619 18.6 23.9-9.72 5.39-10.8zm-63.5 16.7c6.8 6.45 11-15.5 2.3-17.6-3.53 5.21-2.39 11.5-2.3 17.6zm83.6-13c6.8 7.6-5.92 6.54 0 0zm-61 0.177c7.16 7.25-6.8 7.69 0 0zm45.9 4.15c3.89 6.89-8.04 0.353 0 0zm61 1.77c-12.3 6.89 13.4 7.6 0 0zm-97.2 15c-12.3 6.89 13.7 8.04 0 0zm-27.2 21.6c6.1-0.707 11.7-16.7 5.12-21.2-8.39 2.12-9.19 15.3-5.12 21.2zm35.3 0.442c5.21-4.59 9.1-17.7 3.36-21.6-7.25 1.94-9.1 15.2-3.36 21.6zm37.8-21.2c-3.8 1.77-7.42 31.6 3.36 19.4 7.95 10.6 10.3-7.07 5.04-11.9-6.61 7.51-3.63-6.03-8.39-7.51zm15.3 18.6c7.95 4.33 7.86-15.5 1.5-18.8-4.42 5.3-3.27 12.7-1.5 18.8zm-28.4-1.5c-6.63 5.21 5.21 8.39 7.69 3.45-3.29-8.61 1.22-12.6-6.85-13.8-5.08-0.221-3.76 7.38-0.839 10.4zm-46.3-9.9c-7.42 0.707-6.98 20.9 3.45 16.2 0.347-2.08 10.6-18.3-3.45-16.2zm29.6 1.24c0.265 1.24 4.51 5.83-0.353 9.54-0.618 18.6 23.9-9.72 5.39-10.8zm-20.8 14.5c4.51 11.5 12.5-14.1 2.12-15.3-3.98 4.06-2.3 10.2-2.12 15.3zm-8.31-11.3c6.01 2.47-6.54 3.45 0 0zm34.5 4.95c3.8 7.16-7.78 0.0884 0 0z" fill="#fff"/></svg>
