<?xml version="1.0" encoding="UTF-8" standalone="no"?>
<svg
   xmlns:dc="http://purl.org/dc/elements/1.1/"
   xmlns:cc="http://creativecommons.org/ns#"
   xmlns:rdf="http://www.w3.org/1999/02/22-rdf-syntax-ns#"
   xmlns:svg="http://www.w3.org/2000/svg"
   xmlns="http://www.w3.org/2000/svg"
   xmlns:sodipodi="http://sodipodi.sourceforge.net/DTD/sodipodi-0.dtd"
   xmlns:inkscape="http://www.inkscape.org/namespaces/inkscape"
   height="580"
   width="580"
   version="1.1"
   id="svg14"
   sodipodi:docname="memorial_war.svg"
   inkscape:version="1.0.1 (3bc2e813f5, 2020-09-07)">
  <metadata
     id="metadata20">
    <rdf:RDF>
      <cc:Work
         rdf:about="">
        <dc:format>image/svg+xml</dc:format>
        <dc:type
           rdf:resource="http://purl.org/dc/dcmitype/StillImage" />
      </cc:Work>
    </rdf:RDF>
  </metadata>
  <defs
     id="defs18" />
  <sodipodi:namedview
     pagecolor="#ffffff"
     bordercolor="#666666"
     borderopacity="1"
     objecttolerance="10"
     gridtolerance="10"
     guidetolerance="10"
     inkscape:pageopacity="0"
     inkscape:pageshadow="2"
     inkscape:window-width="1920"
     inkscape:window-height="1001"
     id="namedview16"
     showgrid="false"
     inkscape:zoom="1.4310345"
     inkscape:cx="290"
     inkscape:cy="290"
     inkscape:window-x="-9"
     inkscape:window-y="-9"
     inkscape:window-maximized="1"
     inkscape:current-layer="svg14" />
  <path
     id="path2"
     style="fill:none;stroke:#ffffff;stroke-width:40;stroke-miterlimit:4;stroke-dasharray:none;stroke-linejoin:round;stroke-linecap:round;opacity:0.8"
     d="m 107.32,493.44 c 0.4828,14.33417 -0.95195,29.07355 0.69125,43.1625 26.49715,1.64776 53.70096,0.23813 80.47047,0.7075 93.41943,0 186.83885,0 280.25828,0 4.68579,-6.31003 0.9349,-16.97043 2.14,-25.03897 -2.0304,-6.09045 4.77301,-20.5681 -4.8187,-19.96103 -119.36279,0.0942 -238.74337,-0.18845 -358.09505,0.14125 z m 4.72,-23.32 c 118.04,0 236.08,0 354.12,0 -8.33585,-12.2384 -14.30949,-31.3316 -32.26286,-26.35 -101.37905,0 -202.75809,0 -304.13714,0 -5.90667,8.78333 -11.81333,17.56667 -17.72,26.35 z M 131.77,70.498 c 0,119.34067 0,238.68133 0,358.022 100.14428,2.5686 200.41206,1.01031 300.60014,0.4678 16.98428,4.77228 19.0317,-5.4644 17.07986,-19.21872 0,-113.09036 0,-226.18072 0,-339.27108 0.38625,-21.12202 -21.42864,-30.389026 -39.40416,-27.608 -83.72195,0 -167.44389,0 -251.16584,0 -14.36241,0.135252 -27.03562,13.350296 -27.11,27.608 z" />
  <path
     id="path4"
     style="fill:#734a08;stroke:none"
     d="m 158.88086,42.890625 c -18.37065,0.13652 -29.88578,19.278246 -27.11133,36.199218 0,116.476567 0,232.953127 0,349.429687 92.852,2.5707 185.82796,0.93833 278.72592,0.7072 11.7186,-4.46674 42.56659,9.36183 38.95377,-10.5264 -0.093,-116.95899 0.18606,-233.92767 -0.13961,-350.880595 -1.38815,-17.598996 -19.5685,-27.508478 -35.8018,-24.92911 -84.87565,0 -169.7513,0 -254.62695,0 z M 129.75977,443.76953 c -5.9069,8.7832 -11.81381,17.56641 -17.72071,26.34961 118.04037,0 236.08073,0 354.1211,0 -8.2013,-9.36995 -11.79577,-29.86786 -27.3485,-26.34961 -103.01729,0 -206.03459,0 -309.05189,0 z m -20.29883,48.54102 c -4.77617,4.32368 -0.87287,15.10902 -2.14063,21.99469 1.16807,7.41349 -2.49472,17.30638 2.14063,23.00531 119.75976,0 239.51953,0 359.27929,0 4.62096,-5.70678 0.98153,-15.68117 2.14063,-23.13728 -1.28031,-6.83851 2.65461,-17.55839 -2.14063,-21.86272 -119.75976,0 -239.51953,0 -359.27929,0 z" />
  <path
     d="m159.94 130.41c36.26 22.1 70.7 47.13 102.98 74.69-16.06 16.05-33.3 33.89-46.95 48.9-13.46-10.42-35.38-10.67-46.14 3.8-11.64 14.18-15.46 38.09-.67 51.55-6.77 7.66-14.09 17.9-9.36 28.54 4.78 13.25 23.58 11.4 29.22 0 10.34-12.6 20.81-25.09 31.47-37.42 11.54 6.01 23.25-9.37 17.55-19.94 16.22-18.13 33.27-35.52 51.06-52.11 17.79 16.59 34.84 33.98 51.06 52.11-5.7 10.57 6.01 25.95 17.55 19.94 10.66 12.33 21.13 24.82 31.47 37.42 5.64 11.4 24.44 13.25 29.22 0 4.73-10.64-2.6-20.88-9.36-28.54 14.79-13.46 10.97-37.37-.67-51.55-10.76-14.47-32.68-14.22-46.14-3.8-16.77-17.9-31.15-33.53-46.95-48.9 32.28-27.56 66.71-52.59 102.98-74.69 3.65-1.98 4.22-9.53-30.89-.98-24.45 5.26-62.5 24.39-98.27 52.73-35.77-28.34-73.82-47.47-98.27-52.73-7.7-2.61-42.73-6.02-30.89.98zm23.35 159.12c1.2-8.04.1-13.73 8.8-13.52 8.74.22-8.53 15.72-8.8 13.52zm211.62 0c-.27 2.2-17.55-13.3-8.95-13.49 8.59-.18 9.45 8.76 8.95 13.49z"
     fill="#fff"
     fill-rule="evenodd"
     id="path12" />
</svg>
