<svg height="580" width="580" xmlns="http://www.w3.org/2000/svg"><g stroke-linecap="round" stroke-linejoin="round"><path d="m376.5 510.2c-10.97-6.5-19.32-16.73-29.45-24.5-8.94-8.09-19.25-15.51-26.57-25.13-.19-8.96 9.96-12.69 14.57-19.15 17.37-17.16 34.74-34.33 52.11-51.5-24.8-27.08-50.33-53.6-74.94-80.81-2.62-8.15 6.56-12.42 11.06-17.15 3.73-5.5 12.64-11.94 18.31-5.29 23.56 27.86 48.35 55.06 73 81.91 15.94-7.82 25.12-24.16 40.24-33.04 27.04-13.75 53.48-29.06 80.89-41.83 6.22-.49 7.83 8.23 3.75 11.78-16.94 31.98-28.63 66.63-46.66 98.09-9.08 8.8-18.91 17-28.22 25.47 5.32 5.69 14.06 10.29 15 18.66-5.39 6.56-12.01 13.88-20.5 15.71-6.98-2.86-10.97-9.67-16.5-14.4-21.28 19.69-42.05 39.72-62.43 60.43-1.13.58-2.39.92-3.66.75zm-136.16-279.21c-9.21-5.92-14.93-15.77-23.02-23.02-38.58-41.51-77.68-82.65-115.95-124.39-2.594-8.77 7.62-12.86 12.35-18.03 5.75-4.35 10.47-13.33 18.59-12.25 24.5 24.76 46.42 51.93 70.02 77.49 21.44 24.43 43.67 48.34 64.54 73.13 1.96 9.18-8.63 13.29-13.4 19-3.41 3.69-7.24 9.62-13.13 8.07zm-28.53 280.81c-14.63-7.8-27.3-18.76-41.25-27.74-38.37-26.75-75.254-57.11-100.122-97.32-12.306-18.77-25.268-37.34-37.032-56.32.74-9.51 11.764-11.39 17.392-17.26 13.516-9.06 25.86-21.01 40.637-27.94 9.135 2.18 11.225 13.09 17.175 19.25 14.78 20.88 28.85 42.43 44.08 62.89 5.14-3.39 7.54-9.62 12.84-13.12 98.22-98.04 195.77-196.76 293.72-295.07 7.55-4.11 13.17 4.63 17.47 9.41 4.96 6.11 14.25 10.5 14.86 19-12.32 14.94-27.59 27.85-41.57 41.5-91.16 87.24-182.59 175.06-273.98 262.25-.26 2.05 4.54 2.33 5.44 4.29 24.85 18.46 50.87 35.63 74.97 54.91 2.89 9.01-7.14 14.24-10.85 21.17-10.78 13.17-19.42 28.53-32.09 39.97-.54.16-1.13.2-1.69.13z" fill="none" opacity=".8" stroke="#fff" stroke-width="40"/><g stroke-width="10"><path d="m211.81 511.8c-14.63-7.8-27.3-18.76-41.25-27.74-38.37-26.75-75.254-57.11-100.122-97.32-12.306-18.77-25.268-37.34-37.032-56.32.74-9.51 11.764-11.39 17.392-17.26 13.516-9.06 25.86-21.01 40.637-27.94 9.135 2.18 11.225 13.09 17.175 19.25 14.78 20.88 28.85 42.43 44.08 62.89 5.14-3.39 7.54-9.62 12.84-13.12 98.22-98.04 195.77-196.76 293.72-295.067 7.55-4.112 13.17 4.631 17.47 9.407 4.96 6.11 14.25 10.502 14.86 19.003-12.32 14.937-27.59 27.847-41.57 41.497-91.16 87.24-182.59 175.06-273.98 262.25-.26 2.05 4.54 2.33 5.44 4.29 24.85 18.45 50.87 35.63 74.97 54.91 2.89 9.01-7.14 14.24-10.85 21.17-10.78 13.17-19.42 28.53-32.09 39.97-.54.16-1.13.2-1.69.13z" fill="#fff" opacity=".1" stroke="#fff"/><path d="m211.81 511.8c-14.63-7.8-27.3-18.76-41.25-27.74-38.37-26.75-75.254-57.11-100.122-97.32-12.306-18.77-25.268-37.34-37.032-56.32.74-9.51 11.764-11.39 17.392-17.26 13.516-9.06 25.86-21.01 40.637-27.94 9.135 2.18 11.225 13.09 17.175 19.25 14.78 20.88 28.85 42.43 44.08 62.89 5.14-3.39 7.54-9.62 12.84-13.12 98.22-98.04 195.77-196.76 293.72-295.067 7.55-4.112 13.17 4.631 17.47 9.407 4.96 6.11 14.25 10.502 14.86 19.003-12.32 14.937-27.59 27.847-41.57 41.497-91.16 87.24-182.59 175.06-273.98 262.25-.26 2.05 4.54 2.33 5.44 4.29 24.85 18.45 50.87 35.63 74.97 54.91 2.89 9.01-7.14 14.24-10.85 21.17-10.78 13.17-19.42 28.53-32.09 39.97-.54.16-1.13.2-1.69.13z" fill="#bebbb7" stroke="#000"/><path d="m376.5 510.2c-10.97-6.5-19.32-16.73-29.45-24.5-8.94-8.09-19.25-15.51-26.57-25.13-.19-8.96 9.96-12.69 14.57-19.15 17.37-17.16 34.74-34.33 52.11-51.5-24.8-27.08-50.33-53.6-74.94-80.81-2.62-8.16 6.56-12.42 11.06-17.16 3.73-5.49 12.64-11.93 18.31-5.28 23.56 27.86 48.35 55.05 73 81.91 15.94-7.82 25.12-24.16 40.24-33.04 27.04-13.75 53.48-29.06 80.89-41.84 6.22-.48 7.83 8.24 3.75 11.79-16.94 31.98-28.63 66.63-46.66 98.09-9.08 8.8-18.91 17-28.22 25.47 5.32 5.69 14.06 10.29 15 18.65-5.39 6.57-12.01 13.89-20.5 15.72-6.98-2.86-10.97-9.67-16.5-14.4-21.28 19.69-42.05 39.72-62.43 60.43-1.13.58-2.39.92-3.66.75zm-136.16-279.21c-9.21-5.92-14.93-15.77-23.02-23.02-38.58-41.51-77.68-82.65-115.95-124.39-2.594-8.769 7.62-12.857 12.35-18.032 5.75-4.352 10.47-13.331 18.59-12.25 24.5 24.76 46.42 51.932 70.02 77.492 21.44 24.43 43.67 48.34 64.54 73.13 1.96 9.18-8.63 13.29-13.4 19-3.41 3.69-7.24 9.62-13.13 8.07z" fill="#bebbb7" stroke="#000"/></g></g></svg>