<svg height="580" width="580" xmlns="http://www.w3.org/2000/svg"><g stroke-linecap="round" stroke-linejoin="round"><path d="m376.5 54.875c-10.97 6.503-19.32 16.736-29.45 24.509-8.94 8.081-19.25 15.502-26.57 25.126-.19 8.96 9.96 12.69 14.57 19.15 17.37 17.16 34.74 34.33 52.11 51.5-24.8 27.08-50.33 53.6-74.94 80.81-2.62 8.15 6.56 12.42 11.06 17.15 3.73 5.5 12.64 11.94 18.31 5.29 23.56-27.86 48.35-55.06 73-81.91 15.94 7.82 25.12 24.16 40.24 33.04 27.04 13.75 53.48 29.06 80.89 41.83 6.22.49 7.83-8.23 3.75-11.78-16.94-31.98-28.63-66.63-46.66-98.09-9.08-8.8-18.91-17-28.22-25.47 5.32-5.69 14.06-10.29 15-18.66-5.39-6.56-12.01-13.88-20.5-15.71-6.98 2.86-10.97 9.67-16.5 14.4-21.28-19.692-42.05-39.725-62.43-60.435-1.13-.576-2.39-.919-3.66-.75zm-136.16 279.215c-9.21 5.92-14.93 15.77-23.02 23.02-38.58 41.51-77.68 82.65-115.95 124.39-2.594 8.77 7.62 12.86 12.35 18.03 5.75 4.35 10.47 13.33 18.59 12.25 24.5-24.76 46.42-51.93 70.02-77.49 21.44-24.43 43.67-48.34 64.54-73.13 1.96-9.18-8.63-13.29-13.4-19-3.41-3.69-7.24-9.62-13.13-8.07zm-28.53-280.809c-14.63 7.796-27.3 18.756-41.25 27.736-38.37 26.753-75.254 57.113-100.122 97.323-12.306 18.77-25.268 37.34-37.032 56.32.74 9.51 11.764 11.39 17.392 17.26 13.516 9.06 25.86 21.01 40.637 27.94 9.135-2.18 11.225-13.09 17.175-19.25 14.78-20.88 28.85-42.43 44.08-62.89 5.14 3.39 7.54 9.62 12.84 13.12 98.22 98.04 195.77 196.76 293.72 295.07 7.55 4.11 13.17-4.63 17.47-9.41 4.96-6.11 14.25-10.5 14.86-19-12.32-14.94-27.59-27.85-41.57-41.5-91.16-87.24-182.59-175.06-273.98-262.25-.26-2.05 4.54-2.33 5.44-4.29 24.85-18.46 50.87-35.63 74.97-54.91 2.89-9.01-7.14-14.24-10.85-21.174-10.78-13.168-19.42-28.531-32.09-39.97-.54-.152-1.13-.197-1.69-.125z" fill="none" opacity=".8" stroke="#fff" stroke-width="40"/><g stroke-width="10"><path d="m211.8125 53.28125c-14.63595 7.795892-27.30066 18.755682-41.25217 27.736181-38.37131 26.748309-75.254538 57.111479-100.12283 97.326319-12.305417 18.76433-25.267546 37.33218-37.03125 56.3125.739829 9.5112 11.764158 11.39769 17.392218 17.26654 13.51593 9.06039 25.859727 21.01011 40.636086 27.93516 9.131176-2.18292 11.225706-13.08807 17.171946-19.24533 14.78123-20.88692 28.8487-42.43702 44.081-62.89387 5.14249 3.38851 7.54686 9.62052 12.84007 13.12132 98.2233 98.04072 195.76825 196.75722 293.72243 295.06618 7.55316 4.1125 13.17171-4.63057 17.46875-9.40625 4.95765-6.11006 14.24815-10.50201 14.8586-19.00321-12.32191-14.93443-27.58529-27.8424-41.56418-41.49339-91.16376-87.24597-182.59726-175.06447-273.98192-262.2534-.26516-2.05087 4.54116-2.32687 5.44321-4.29383 24.84666-18.45136 50.86955-35.63071 74.96085-54.90945 2.8989-9.00426-7.13373-14.23987-10.84095-21.170958-10.78526-13.16755-19.42048-28.530354-32.09436-39.969512-.54331-.151896-1.12735-.1972-1.6875-.125z" fill="#fff" opacity=".1" stroke="#fff"/><path d="m211.8125 53.28125c-14.63595 7.795892-27.30066 18.755682-41.25217 27.736181-38.37131 26.748309-75.254538 57.111479-100.12283 97.326319-12.305417 18.76433-25.267546 37.33218-37.03125 56.3125.739829 9.5112 11.764158 11.39769 17.392218 17.26654 13.51593 9.06039 25.859727 21.01011 40.636086 27.93516 9.131176-2.18292 11.225706-13.08807 17.171946-19.24533 14.78123-20.88692 28.8487-42.43702 44.081-62.89387 5.14249 3.38851 7.54686 9.62052 12.84007 13.12132 98.2233 98.04072 195.76825 196.75722 293.72243 295.06618 7.55316 4.1125 13.17171-4.63057 17.46875-9.40625 4.95765-6.11006 14.24815-10.50201 14.8586-19.00321-12.32191-14.93443-27.58529-27.8424-41.56418-41.49339-91.16376-87.24597-182.59726-175.06447-273.98192-262.2534-.26516-2.05087 4.54116-2.32687 5.44321-4.29383 24.84666-18.45136 50.86955-35.63071 74.96085-54.90945 2.8989-9.00426-7.13373-14.23987-10.84095-21.170958-10.78526-13.16755-19.42048-28.530354-32.09436-39.969512-.54331-.151896-1.12735-.1972-1.6875-.125z" stroke="#000"/><path d="m376.5 54.875c-10.97235 6.5028-19.31732 16.735542-29.44781 24.509018-8.93761 8.0813-19.25627 15.502418-26.56746 25.123242-.1948 8.9594 9.95227 12.69132 14.56276 19.14863 17.36959 17.16678 34.73917 34.33357 52.10876 51.50036-24.80085 27.08373-50.32451 53.60456-74.9375 80.8125-2.61844 8.15613 6.56466 12.42401 11.0625 17.15625 3.72716 5.49146 12.63518 11.93393 18.3125 5.28125 23.55242-27.85565 48.34353-55.05148 73-81.90625 15.93934 7.81589 25.11361 24.15554 40.23479 33.03594 27.04127 13.75185 53.47848 29.0633 80.89021 41.83906 6.22387.48814 7.83013-8.23323 3.75-11.78125-16.94158-31.97975-28.62991-66.63677-46.65625-98.09375-9.07964-8.80204-18.90897-17.00312-28.21875-25.46875 5.32116-5.69014 14.05126-10.28969 15-18.65625-5.39531-6.56492-12.0162-13.88162-20.5-15.71875-6.98051 2.8682-10.97467 9.67123-16.5 14.40625-21.28111-19.694808-42.05006-39.727802-62.4375-60.4375-1.12466-.575544-2.38264-.919197-3.65625-.75zm-136.15625 279.21875c-9.2108 5.91414-14.92913 15.76968-23.02059 23.01258-38.58525 41.51126-77.67973 82.65172-115.94816 124.39367-2.59898 8.76827 7.61902 12.85693 12.34375 18.03125 5.74688 4.3521 10.47125 13.33145 18.59375 12.25 24.49257-24.7598 46.41777-51.93604 70.01961-77.48931 21.44133-24.42735 43.66398-48.34615 64.54289-73.13569 1.95589-9.17416-8.63684-13.28593-13.40625-19-3.40432-3.68397-7.23423-9.61746-13.125-8.0625z" stroke="#000"/></g></g></svg>