<?xml version="1.0" encoding="UTF-8"?>
<svg width="580" height="580" version="1.0" xmlns="http://www.w3.org/2000/svg"><path d="m391 158c2.27-40-62.1-51.6-74.1-13.2-12.6 31.7 26.2 64.1 54.8 45.5 11.5-6.38 19.9-18.9 19.3-32.3zm-100 387c25.2-4.45 30.7-34.6 46.1-51.2 27.7-41.6 55.3-83.3 83-125 11.2 28.5-0.84 58.4-2.76 87.5-2.32 22.7-7.66 45.5-7.18 68.3 14.5 34.1 56.7 4.94 47.1-25 4.84-36.8 10.8-73.5 14-111-11.8-51.9-25.7-103-38.4-155 35.8-9.85 77.6-6.97 110-25.1 12.1-28.7-26.3-37.5-42.8-51.8-62-40.8-124-81.7-186-123-11.8 12.2-39.2 54.5-3.64 47.1 12.8-18.1 21.7-22.5 39-5.48 53 34.6 106 69.6 159 104-51.7 10.2-104 17.1-155 29.3-18.3 14-2.23 37.4 0.453 55.8 7.62 29.8 15.2 59.6 22.8 89.3-34.9 52.1-69.8 104-105 156-8.98 14 3.28 34.5 19.8 33.7zm-257-156c15.6 11.4 33.4 45.4 45 13.7 22.2-30.3 44.5-60.6 66.7-91-17.9-20.6-35.9 19.7-53 27-19.6 16.8-39.1 33.5-58.7 50.3zm230 0c-15.6 11.4-33.4 45.4-45 13.7-22.2-30.3-44.5-60.6-66.7-91 17.9-20.6 35.9 19.7 53 27 19.6 16.8 39.1 33.5 58.7 50.3zm0-175c-15.6-11.4-33.4-45.4-45-13.7-22.2 30.3-44.5 60.6-66.7 91 11.2 18.8 24.8-5.23 35.6-12.1 25.4-21.7 50.7-43.4 76.1-65.1zm-230 0c15.6-11.4 33.4-45.4 45-13.7 22.2 30.3 44.5 60.6 66.7 91-17.9 20.6-35.9-19.7-53-27-19.6-16.8-39.1-33.5-58.7-50.3zm51.2 299c12-78.5 23.9-157 35.9-236 18-18.7 42.9-17.6 56.1 4.14 9.55 77.6 21.3 155 27.8 233-39.9-1.77-79.8 1.15-120-1.43z" fill="#fff" opacity=".8" stroke="#fff" stroke-linecap="round" stroke-linejoin="round" stroke-width="55"/><path d="m85.5 514c12-78.5 23.9-157 35.9-236 9.93-4.58 19.9-14.7 29.8-15.8 8.44 8.06 26.3 10.1 26.7 23.3 9.42 73.6 19.4 147 27.1 221 3.8 14.8-16.9 5.55-24.8 8.05-31.4-0.3-63 1.1-94.4-0.801z" fill="#39ac39" opacity=".5"/><path d="m314 34.8c-10.1 13.4-39.8 51.1-5.09 47.8 12.5-9.05 19.5-30 34.5-9.6 55.3 35.2 110 72 165 108-51.6 10.1-104 17.2-155 29.2-20.5 19.7 3.24 50.1 5.02 74.2 6.05 23.7 12.1 47.3 18.2 71-35.2 53.1-71.3 106-106 159-12.6 32.6 41.9 41.9 47.5 9.44 34.2-51.5 68.4-103 103-155 10.8 25.9 0.322 53-1.69 79.5-2.69 25.3-8.42 50.7-8.29 76.1 13.9 33.7 56.4 5.93 47.1-24 4.34-37.1 11.4-74.1 13.7-111-10.7-52.2-25.8-103-38-155 34.6-7.14 70.4-10.8 104-20.2 18.7-12.8 1.59-36.4-14.7-41.7-69.6-45.9-139-91.7-209-138zm38.9 86c-33.9-2.73-51.8 46.9-24 66.5 26.1 22 72-4.84 61.3-38.6-4.41-16.2-20.4-28.7-37.3-28zm-286 63c-12.4 14.9-47.5 30.2-16.7 44.1 28.6 24.5 57.2 48.9 85.7 73.4 21.6-16.6-16.3-36.3-22.2-53.7-15.6-21.3-31.2-42.6-46.8-63.9zm165 0c-26.4 35.9-52.7 71.9-79.1 108 17.5 21.1 34.8-18.8 51.5-25.7 20.1-17.2 40.1-34.4 60.2-51.5-10.9-10.2-21.8-20.4-32.6-30.5zm-95.7 118c-33.9 29-67.7 58-102 87 15.6 11.4 33.4 45.4 45 13.7 22.2-30.3 44.5-60.6 66.7-91-3.36-3.25-6.71-6.5-10.1-9.74zm26.7 0c-21.6 16.6 16.3 36.3 22.2 53.7 15.6 21.3 31.2 42.6 46.8 63.9 9.07-13.7 46.6-28 20.6-40.9-29.8-25.6-59.7-51.1-89.5-76.7z" fill="#2f922e"/></svg>
