<svg height="580" width="580" xmlns="http://www.w3.org/2000/svg"><g stroke-linejoin="round"><g stroke-linecap="round"><path d="m44.09 505.35h491.8v43.06c-163.94 0-327.86 0-491.8 0 0-14.35 0-28.71 0-43.06z" fill="none" opacity=".8" stroke="#fff" stroke-width="46.34"/><path d="m133.99 455.83h312.62v29.96c-104.21 0-208.41 0-312.62 0 0-9.98 0-19.98 0-29.96z" fill="#734a08" opacity=".8" stroke="#fff" stroke-width="44.22"/><path d="m195.8 163.51h191.43v256.6c-63.81 0-127.62 0-191.43 0 0-85.53 0-171.07 0-256.6z" fill="#d0c2ac" opacity=".8" stroke="#fff" stroke-width="74.863"/><path d="m195.8 163.51h191.43v256.6c-63.81 0-127.62 0-191.43 0 0-85.53 0-171.07 0-256.6z" fill="#d0c2ac" stroke="#734a08" stroke-width="34.863"/><path d="m199.87 123.81c31.23-29.868 62.45-59.736 93.68-89.604 29.86 29.529 59.74 59.058 89.61 88.584-61.1.34-122.2.68-183.29 1.03z" fill="none" opacity=".8" stroke="#fff" stroke-width="51.621"/><path d="m202.4 373.58h176.26v29.95c-58.76 0-117.5 0-176.26 0 0-9.98 0-19.97 0-29.95z" fill="#734a08" stroke="#734a08" stroke-width="3.173"/></g><path d="m199.87 123.81c31.23-29.868 62.45-59.736 93.68-89.604 29.86 29.529 59.74 59.058 89.61 88.584-61.1.34-122.2.68-183.29 1.03z" fill="#734a08" stroke="#734a08" stroke-width="11.621"/><path d="m44.09 505.35h491.8v43.06c-163.94 0-327.86 0-491.8 0 0-14.35 0-28.71 0-43.06z" fill="#734a08" stroke="#734a08" stroke-linecap="round" stroke-width="6.345"/><path d="m133.99 455.83h312.62v29.96c-104.21 0-208.41 0-312.62 0 0-9.98 0-19.98 0-29.96z" fill="#734a08" stroke="#734a08" stroke-linecap="round" stroke-width="4.218"/></g></svg>