<svg height="580" width="580" xmlns="http://www.w3.org/2000/svg"><path d="m90.597 346.21c-10.765-7.22-21.53-14.43-32.296-21.65 76.309-21.32 154.389-40.46 234.079-40.5 24.06-2.55 52.94-4.34 69.25-24.57 9.71-20.14-13.68-38.14-10.96-59.25-3.25-30.73 6.39-69.49 38.73-80.8 31.01-10.61 74.91 1.7 82.18 37.44-.45 25.24 29.5 30.78 48.28 36.92 12.47-.55 30.52 10.07 11.48 18.49-24.49 3.26-51.03-1.66-75.97 3.9-30.4-1.39-24.37 36.68-2.84 45.59 20.4 8.29 39.19 21.38 49.18 41.76 23.31 38.94 23.81 96.01-12.96 126.99-40.02 33.32-95.57 35.43-145.3 32.97-65.64-3.76-130.81-21.02-188.36-53.14-37.96-16.52-75.736-33.97-115.412-46.06 16.974-6.03 33.946-12.06 50.919-18.09z" opacity=".7" stroke="#fff" fill="#fff" stroke-linecap="round" stroke-linejoin="round" stroke-width="57.14"/><path d="m90.597 346.21c-10.765-7.22-21.53-14.43-32.296-21.65 76.309-21.32 154.389-40.46 234.079-40.5 24.06-2.55 52.94-4.34 69.25-24.57 9.71-20.14-13.68-38.14-10.96-59.25-3.25-30.73 6.39-69.49 38.73-80.8 31.01-10.61 74.91 1.7 82.18 37.44-.45 25.24 29.5 30.78 48.28 36.92 12.47-.55 30.52 10.07 11.48 18.49-24.49 3.26-51.03-1.66-75.97 3.9-30.4-1.39-24.37 36.68-2.84 45.59 20.4 8.29 39.19 21.38 49.18 41.76 23.31 38.94 23.81 96.01-12.96 126.99-40.02 33.32-95.57 35.43-145.3 32.97-65.64-3.76-130.81-21.02-188.36-53.14-37.96-16.52-75.736-33.97-115.412-46.06 16.974-6.03 33.946-12.06 50.919-18.09z" fill="#2f922e" opacity=".7"/></svg>