<?xml version="1.0" encoding="UTF-8"?>
<svg width="580" height="580" enable-background="new 0 0 100 94.095" version="1.0" viewBox="0 0 580 546" xml:space="preserve" xmlns="http://www.w3.org/2000/svg"><path d="m278 137c-27.3 25.2-43.1 63-78.1 79.4-39-22 7.26-60.8 25-80.9 17.5-27 48-45.8 80.8-40 34.8-0.814 78.2-3.59 101 28.9 11.9 26.8 56.3 51.8 66.5 10.7 11.8-21.9 62.5-33.5 54.6 3.23-18.7 29.6-46.2 53.1-73.7 73.7-30.1 7.72-41-42.6-69.5-32-13.2 23.1-61.7 48.5-35.1 77.4 29.9 14.9 55.7 51.4 40.1 85.2-9.83 42.6-16.7 86.1-30.8 128-33.5 30.7-63.9-31.1-38.9-56 4.82-28.1 25.6-58.6 7.73-85.9-15.3-22.8-51.6-60.9-75.7-26.4-14.1 25.5-40.2 50.1-71.7 44.7-34 0.0574-68-0.43-102 0.483-37.4-13.5-3.65-70.9 28.4-54.5 32.7 9.13 77.1 6.44 96.8-25.7 32.1-42.4 70-80.4 103-122 10.1-16.9-22.1-4.09-28.3-8.26zm256 23.8c-52 106-104 212-156 317 35.7-4.28 35.7-47.1 51-71.6 43.1-77.7 79.6-159 120-238-2.6-5.56-11.2-3.58-15.3-7.61zm0.0814 0.214c24.8 27.2-14.7 53-21.9 78.7-34 74.8-72.7 147-109 221-2.42 21.4-21.8 15.9-17.3-3.44 17.1-26.9 30.2-54.9 43.3-84 34.8-70.8 69.6-142 104-213zm-0.0432-0.108c26.6 30.1-21.8 58.4-25.5 89.1-37.8 76-75.5 152-113 228-27.7-26.6 23.3-55.5 24.9-85.4 38-77.2 75.9-154 114-232zm-503 38.8c4.42 30.4 42 11.2 62.1 16.3h73.8c-5.27-30.7-43.1-11-63.7-16.3-24.1 1e-5 -48.2 2e-5 -72.3 3e-5zm0.0294 0.0294h136c-5.35 30.7-43.1 11-63.7 16.2h-72.2c-2e-6 -5.4-3e-6 -10.8-5e-6 -16.2zm-0.0148-0.0146h136c-5.31 30.7-43.1 11-63.7 16.2h-72.2c-3e-6 -5.41-5e-6 -10.8-8e-6 -16.2zm-1.14 118c-3.95 35 32.4 52.4 52.6 74.5 25.2 28 51.8 54.8 80 79.8 23.1 10.3 29.7-31.4 2.48-23.3-33.1-18.3-50.8-54.1-80.7-76.4-18.1-18.2-36.3-36.4-54.4-54.6zm0.0313 0.0736c45.3 45 89.7 90.8 136 135 27.8-16.8 17.1 40.2-3.91 15.7-31.5-21.5-54.4-53.1-81.7-79.3-19.5-21-55.2-37.7-49.9-71.8zm133 133c-44.3-44.4-88.5-88.8-133-133-3.88 35.1 32.4 52.4 52.7 74.5 25 27.6 51 54.7 79.5 78.8 27.5 10.4 31.1-31.7 0.587-20.1zm253-423c-39.6-3.97-55.1 61.9-18.1 76.3 33.2 18.9 76.5-28.6 51-59-7.3-10.6-19.8-17.8-32.8-17.4zm0 0.0313c39.5-4.09 55 62 18 76.2-33 19.3-76.4-29.1-50.9-58.9 7.31-10.5 19.8-17.8 32.8-17.3zm3.9e-4 79.8c39.5 4.07 55-62.1 18-76.3-32.9-19.3-76.5 29-50.9 58.9 7.31 10.6 19.8 17.8 32.9 17.4zm119 370c-4.59 31.1-43 24.7-65.8 24.1h-356c16.6 35.7 59.8 7.99 88.6 15.3 108 1.66 216 2.37 323-0.481 14.4-3.34 42.2-41.4 9.93-38.9z" fill="none" opacity=".8" stroke="#fff" stroke-linecap="round" stroke-linejoin="round" stroke-width="56.6"/><path d="m278 137c-21.8 24.9-43 50.3-65.2 74.8-23.8 18-45.8-21.6-21.6-35.6 22-25 43.4-50.7 65.9-75.3 15.9-7.96 34.8-2.81 52.1-4.29 22.4 0.927 45.2-2.11 67.2 1.98 20.3 14.4 36 34.6 54.3 51.5 7.1 4.32 14.2 22.3 21.3 10.1 16.3-15.7 31.5-32.6 48.5-47.5 22.3-14.1 43.6 21.8 22 35.6-21.5 20.9-41.5 43.5-64.1 63.2-18.5 11.9-32.1-8.32-43.8-19.6-7.02-7.05-14-14.1-21.1-21.2-19.7 22.8-39.5 45.6-59.2 68.5 19 19.7 39.7 38.1 57.5 58.7 8.77 19.6-3.13 40-5.7 59.9-8.22 35.7-15.7 71.6-24.4 107-11 31.5-61.3 11.5-48.3-19 8.09-36 16.2-72.1 24.3-108-20.5-20-41.1-40-61.6-59.9-19.1 20.7-37 42.6-56.9 62.4-21.1 11.1-45.9 4.85-68.8 6.54-24.9-0.695-50.2 1.66-74.9-1.23-30.3-8.96-16.7-56.9 13.6-50 29.2 0.084 58.5 0.168 87.7 0.252 45.6-52.8 91.2-106 137-159-11.9-0.059-23.8-0.118-35.8-0.177zm256 23.8c-52 106-104 212-156 317 10.6 0.994 20.8 1.29 22.9-11.4 49.6-99.8 99.1-200 149-299-5.22-2.19-10.4-4.38-15.7-6.57zm0.0814 0.214c10.8 3.12 19.6 7.01 9.68 17.8-49.5 99.7-99.1 199-149 299-11.7 1.11-21.6 1.13-11.3-11.4 50.1-102 100-204 150-306zm-0.0432-0.108c10.8 3.17 19.8 7 9.84 17.9-49.5 99.7-99.1 199-149 299-11.6 1.05-21.8 1.21-11.5-11.4 50.1-102 100-204 150-306zm-503 38.8c-0.604 9.73-2.22 20.5 11.1 16.3h125c1.44-11.1 0.972-20.3-12.7-16.3-41.1 1e-5 -82.2 2e-5 -123 3e-5zm0.0294 0.0294h136c1.46 11.1 0.945 20.2-12.7 16.2h-123c-2e-6 -5.4-3e-6 -10.8-5e-6 -16.2zm-0.0148-0.0146h136c1.45 11.1 0.958 20.3-12.7 16.2h-123c-3e-6 -5.41-5e-6 -10.8-8e-6 -16.2zm-1.14 118c1.3 10.4-4.14 23.6 6.79 30.1 39.9 39.9 79.5 80.2 120 120 12 10 49.5-1.97 26-15.4-9.95 1.18-22.9 1.1-29.7-11.4-40.9-41-81.8-82.1-123-123zm0.0313 0.0736c45.3 45 89.8 90.9 136 135 13-10.6 39.9 13.7 12.7 16.5-20.4 8.29-31.7-13.8-44.8-24.8-34.5-34.6-68.9-69.2-103-104-0.019-7.74-0.0381-15.5-0.0571-23.2zm133 133c-44.3-44.4-88.5-88.8-133-133 1.3 10.4-4.14 23.6 6.79 30 39.9 39.9 79.5 80.2 120 120 13.8 10.4 48.7-2.89 24.9-16.5-4.51-0.776-13.6 6.88-18.5-0.108zm253-423c-32.4-1.7-52.8 41.4-30.8 65.3 19.2 26 65.1 14.6 69.9-17.4 5.57-23.9-14.5-48.6-39.1-48zm0 0.0313c32.4-1.68 52.6 41.3 30.8 65.3-19.2 26-65 14.5-69.9-17.4-5.58-23.9 14.6-48.6 39.1-47.9zm3.9e-4 79.8c32.4 1.66 52.7-41.4 30.8-65.3-19.2-25.9-65-14.5-69.9 17.3-5.57 23.9 14.6 48.6 39.1 48zm119 370c0.089 22.8-24.5 25.8-41.9 24.1h-380c-1.4 11.1-1.03 20.4 12.7 16.4 130-0.124 259 0.248 389-0.186 18.5 2.75 48.1-32.8 30.3-40.2-3.3-0.036-6.61-0.0719-9.91-0.108z" fill="#2f922e"/></svg>
