<?xml version="1.0" encoding="UTF-8" standalone="no"?>
<svg
   xmlns:dc="http://purl.org/dc/elements/1.1/"
   xmlns:cc="http://creativecommons.org/ns#"
   xmlns:rdf="http://www.w3.org/1999/02/22-rdf-syntax-ns#"
   xmlns:svg="http://www.w3.org/2000/svg"
   xmlns="http://www.w3.org/2000/svg"
   xmlns:sodipodi="http://sodipodi.sourceforge.net/DTD/sodipodi-0.dtd"
   xmlns:inkscape="http://www.inkscape.org/namespaces/inkscape"
   height="22"
   width="22"
   version="1.1"
   id="svg6"
   sodipodi:docname="oneway_no_cycle.svg"
   inkscape:version="1.0.1 (3bc2e813f5, 2020-09-07)">
  <metadata
     id="metadata12">
    <rdf:RDF>
      <cc:Work
         rdf:about="">
        <dc:format>image/svg+xml</dc:format>
        <dc:type
           rdf:resource="http://purl.org/dc/dcmitype/StillImage" />
      </cc:Work>
    </rdf:RDF>
  </metadata>
  <defs
     id="defs10" />
  <sodipodi:namedview
     pagecolor="#ffffff"
     bordercolor="#666666"
     borderopacity="1"
     objecttolerance="10"
     gridtolerance="10"
     guidetolerance="10"
     inkscape:pageopacity="0"
     inkscape:pageshadow="2"
     inkscape:window-width="1920"
     inkscape:window-height="1001"
     id="namedview8"
     showgrid="false"
     inkscape:zoom="37.727273"
     inkscape:cx="11"
     inkscape:cy="11"
     inkscape:window-x="-9"
     inkscape:window-y="-9"
     inkscape:window-maximized="1"
     inkscape:current-layer="svg6" />
  <path
     id="path2"
     style="opacity:0.809;fill:none;stroke:#ffffff;stroke-width:1.75;stroke-linecap:square;stroke-miterlimit:10"
     d="m 11.283,9.956 c -1.4835256,-0.047091 -2.9683807,-0.011272 -4.4523,0 0.9104542,-0.7779317 1.8211964,-1.5555261 2.7317,-2.3334 -1.1134667,0 -2.2269333,0 -3.3404,0 C 4.8055957,8.7485624 3.388843,9.8740863 1.9724,11 c 1.4167678,1.125372 2.833358,2.250967 4.2496,3.377 1.1134667,0 2.2269333,0 3.3404,0 -0.9102896,-0.777991 -1.8214104,-1.555009 -2.7317,-2.333 1.4841,0 2.9682,0 4.4523,0 0,-0.696 0,-1.392 0,-2.088 z m 0,0 c 1.288667,0 2.577333,0 3.866,0 -0.917314,-0.774681 -1.831253,-1.5533472 -2.744,-2.3334 1.113667,0 2.227333,0 3.341,0 1.416796,1.1256376 2.833204,2.2517624 4.25,3.3774 -1.41712,1.125096 -2.833367,2.251291 -4.25,3.377 -1.113667,0 -2.227333,0 -3.341,0 0.910414,-0.778353 1.822586,-1.554647 2.733,-2.333 -1.289,0 -2.578,0 -3.867,0 0.004,-0.696 0.008,-1.392 0.012,-2.088 z" />
  <path
     id="path4"
     style="stroke:none;fill:#1aa5ff;fill-opacity:1"
     d="m 6.2617,7.6172 c -1.4162425,1.1261338 -2.8335239,2.2509601 -4.25,3.3768 1.4165249,1.125179 2.8335138,2.249773 4.25,3.375 1.1133,0 2.2266,0 3.3399,0 -0.910938,-0.776544 -1.8220979,-1.552828 -2.7325,-2.33 2.7486254,-0.03234 5.49726,-0.02829 8.2459,0 -0.910642,0.776695 -1.821285,1.55339 -2.732,2.33 1.113333,0 2.226667,0 3.34,0 1.416795,-1.124838 2.833978,-2.249188 4.25,-3.375 -1.415973,-1.1264731 -2.833448,-2.2510556 -4.25,-3.3768 -1.113333,0 -2.226667,0 -3.34,0 0.910484,0.7782136 1.82144,1.5558755 2.732,2.334 -2.752772,-0.01889 -5.4934824,-0.030016 -8.2459,0 0.9106155,-0.778255 1.8217929,-1.5558523 2.7325,-2.334 -1.1133,0 -2.2266,0 -3.3399,0 z" />
</svg>
