<?xml version="1.0" encoding="UTF-8" standalone="no"?>
<svg
   xmlns:dc="http://purl.org/dc/elements/1.1/"
   xmlns:cc="http://creativecommons.org/ns#"
   xmlns:rdf="http://www.w3.org/1999/02/22-rdf-syntax-ns#"
   xmlns:svg="http://www.w3.org/2000/svg"
   xmlns="http://www.w3.org/2000/svg"
   xmlns:sodipodi="http://sodipodi.sourceforge.net/DTD/sodipodi-0.dtd"
   xmlns:inkscape="http://www.inkscape.org/namespaces/inkscape"
   height="22"
   width="22"
   version="1.1"
   id="svg12"
   sodipodi:docname="oneway_cycle-1.svg"
   inkscape:version="1.0.1 (3bc2e813f5, 2020-09-07)">
  <metadata
     id="metadata18">
    <rdf:RDF>
      <cc:Work
         rdf:about="">
        <dc:format>image/svg+xml</dc:format>
        <dc:type
           rdf:resource="http://purl.org/dc/dcmitype/StillImage" />
      </cc:Work>
    </rdf:RDF>
  </metadata>
  <defs
     id="defs16" />
  <sodipodi:namedview
     pagecolor="#ffffff"
     bordercolor="#666666"
     borderopacity="1"
     objecttolerance="10"
     gridtolerance="10"
     guidetolerance="10"
     inkscape:pageopacity="0"
     inkscape:pageshadow="2"
     inkscape:window-width="1920"
     inkscape:window-height="1001"
     id="namedview14"
     showgrid="false"
     inkscape:zoom="37.727273"
     inkscape:cx="11"
     inkscape:cy="11"
     inkscape:window-x="-9"
     inkscape:window-y="-9"
     inkscape:window-maximized="1"
     inkscape:current-layer="svg12"
     inkscape:document-rotation="0" />
  <path
     id="path2-0"
     style="opacity:0.809;fill:none;stroke:#ffffff;stroke-width:1.75;stroke-linecap:square;stroke-miterlimit:10"
     d="m 11.298587,9.9562 c -1.483525,-0.04709 -2.96838,-0.01127 -4.4523,0 0.910455,-0.777932 1.821197,-1.555526 2.7317,-2.3334 -1.113466,0 -2.226933,0 -3.3404,0 -1.416404,1.125962 -2.833157,2.251486 -4.2496,3.3774 1.416768,1.125372 2.833358,2.250967 4.2496,3.377 1.113467,0 2.226934,0 3.3404,0 -0.910289,-0.777991 -1.82141,-1.555009 -2.7317,-2.333 1.4841,0 2.9682,0 4.4523,0 0,-0.696 0,-1.392 0,-2.088 z m 0,0 c 1.288667,0 2.577333,0 3.866,0 -0.917314,-0.774681 -1.831253,-1.553347 -2.744,-2.3334 1.113667,0 2.227333,0 3.341,0 1.416796,1.125638 2.833204,2.251762 4.25,3.3774 -1.41712,1.125096 -2.833367,2.251291 -4.25,3.377 -1.113667,0 -2.227333,0 -3.341,0 0.910414,-0.778353 1.822586,-1.554647 2.733,-2.333 -1.289,0 -2.578,0 -3.867,0 0.004,-0.696 0.008,-1.392 0.012,-2.088 z" />
  <path
     id="path4"
     style="fill:#1aa5ff;fill-opacity:1;stroke:none;stroke-width:0.714;stroke-linecap:square;stroke-miterlimit:10;stroke-opacity:0.914"
     d="m 11.12563,9.9251 c 1.329667,0.00833 2.659333,0.016667 3.989,0.025 -0.9106,-0.7778117 -1.821647,-1.5550991 -2.732,-2.3332 1.113333,0 2.226667,0 3.34,0 1.416763,1.1259119 2.833091,2.2523718 4.25,3.3781 -1.416796,1.124838 -2.833204,2.250162 -4.25,3.375 -1.113333,0 -2.226667,0 -3.34,0 0.91088,-0.77675 1.821614,-1.553671 2.732,-2.331 -1.329667,-0.01 -2.659333,-0.02 -3.989,-0.03 0,-0.694633 0,-1.389267 0,-2.0839 z" />
  <path
     id="path6"
     style="opacity:1;fill:#5f5f5f;fill-opacity:1;stroke:none;stroke-width:0.714;stroke-linecap:square;stroke-miterlimit:10;stroke-opacity:0.914"
     d="M 11.13563,9.9293 C 9.7133633,9.9365 8.2910967,9.9437 6.86883,9.9509 7.7795806,9.1728422 8.6903312,8.3947844 9.60123,7.6169 c -1.1136,0 -2.2272,0 -3.3408,0 -1.4163837,1.1259281 -2.8327187,2.2519173 -4.2489,3.3781 1.4160679,1.125292 2.832484,2.250146 4.2489,3.375 1.1136,0 2.2272,0 3.3408,0 -0.9112938,-0.776421 -1.8216,-1.554 -2.7324,-2.331 1.4226,-0.01 2.8452,-0.02 4.2678,-0.03 -3.33e-4,-0.693233 -6.67e-4,-1.386467 -10e-4,-2.0797 z" />
</svg>
