<svg height="580" width="580" xmlns="http://www.w3.org/2000/svg"><path d="m105.27 34.904c-11.732-.219-14.613 12.844-13.089 22.124.174 159.182-.347 318.422.26 477.572 3.034 13.85 19.259 10.08 29.609 10.49 17.42-.66 35.19 1.34 52.38-1.03 12.53-5.99 6.63-21.82 7.99-32.72 0-54.34 0-108.69 0-163.03 50.5-.64 101.09 1.58 151.5-1.8 47.73-3.92 99.02-20.58 125.6-63.31 44.99-65.24 37.1-166.62-27.49-216.334-48.78-35.276-111.43-31.606-168.7-31.956-52.69 0-105.42 0-158.06 0zm13.1 26.17c68.88.404 137.79-.912 206.65.878 43.23 1.294 92.41 12.964 116.07 52.848 35.7 56.35 25.14 141.24-30.08 181.42-49.45 30.75-109.53 25.34-165.31 25.91-26.73.4-53.61-.78-80.24.58-13.54 4.68-8.18 21.09-9.23 31.87v164.33c-12.62 0-25.25 0-37.87 0 0-152.61 0-305.25 0-457.836zm50.97 30.965c-11.73-.22-14.61 12.841-13.09 22.121.18 55.51-.34 111.06.26 166.55 3.03 13.86 19.26 10.09 29.62 10.5 46.19-.58 92.49 1.38 138.6-1.48 36.87-2.56 76.21-20.56 89.45-57.62 17.92-45.02 4.89-105.18-40.51-128.49-32.56-15.88-69.92-10.439-105.05-11.536-33.08-.03-66.3.06-99.28-.04zm13.08 26.171c52.04.64 104.2-1.63 156.15 2.01 34.74 1.64 59.01 36.6 57.04 69.69 2.07 30.03-16.24 61.42-46.76 68.31-38.72 10.74-79.29 5.54-118.94 6.78-15.83 0-31.65 0-47.48 0 0-48.91 0-97.99 0-146.79z" style="opacity:.8;fill:none;stroke:#fff;stroke-linejoin:round;stroke-linecap:round;stroke-width:41.19"/><path d="m105.29 531.99c0-161.33 0-322.67 0-483.995 73.46.419 146.95-.937 220.38.884 46.15 1.409 97.74 14.357 124.26 55.591 42.89 62.91 29.98 161.26-34.72 204.66-53.64 31.72-117.51 25.33-177.27 26.09-22.87 0-45.74 0-68.61 0v196.77c-21.35 0-42.69 0-64.04 0zm64.04-253.89c50.18-.5 100.43 1.13 150.56-1.1 33.13-2.02 70.14-16.03 82.28-49.82 15.72-39.85 4.12-94.28-37.34-113.4-31.29-12.39-65.82-7.68-98.8-8.67-32.24 0-64.47 0-96.7 0z" fill="#bbd9ec" stroke-linecap="round" stroke-linejoin="round" stroke-width="25.415"/><path d="m105.27 34.904c-11.732-.219-14.613 12.844-13.089 22.124.174 159.182-.347 318.422.26 477.572 3.034 13.85 19.259 10.08 29.609 10.49 17.42-.66 35.19 1.34 52.38-1.03 12.53-5.99 6.63-21.82 7.99-32.72 0-54.34 0-108.69 0-163.03 50.5-.64 101.09 1.58 151.5-1.8 47.73-3.92 99.02-20.58 125.6-63.31 44.99-65.24 37.1-166.62-27.49-216.334-48.78-35.276-111.43-31.606-168.7-31.956-52.69 0-105.42 0-158.06 0zm13.1 26.17c68.88.404 137.79-.912 206.65.878 43.23 1.294 92.41 12.964 116.07 52.848 35.7 56.35 25.14 141.24-30.08 181.42-49.45 30.75-109.53 25.34-165.31 25.91-26.73.4-53.61-.78-80.24.58-13.54 4.68-8.18 21.09-9.23 31.87v164.33c-12.62 0-25.25 0-37.87 0 0-152.61 0-305.25 0-457.836zm50.97 30.965c-11.73-.22-14.61 12.841-13.09 22.121.18 55.51-.34 111.06.26 166.55 3.03 13.86 19.26 10.09 29.62 10.5 46.19-.58 92.49 1.38 138.6-1.48 36.87-2.56 76.21-20.56 89.45-57.62 17.92-45.02 4.89-105.18-40.51-128.49-32.56-15.88-69.92-10.439-105.05-11.536-33.08-.03-66.3.06-99.28-.04zm13.08 26.171c52.04.64 104.2-1.63 156.15 2.01 34.74 1.64 59.01 36.6 57.04 69.69 2.07 30.03-16.24 61.42-46.76 68.31-38.72 10.74-79.29 5.54-118.94 6.78-15.83 0-31.65 0-47.48 0 0-48.91 0-97.99 0-146.79z" fill="#3d9ad4" stroke-width="22.688"/></svg>