<svg height="580" width="580" xmlns="http://www.w3.org/2000/svg"><g stroke-linecap="round" stroke-linejoin="round"><path d="m125.1 531.69c0-157.55 0-315.11 0-472.659 71.74.409 143.51-.916 215.23.865 45.07 1.374 95.44 14.016 121.34 54.294 41.9 61.44 29.28 157.48-33.9 199.86-52.39 30.97-114.76 24.74-173.11 25.48-22.34 0-44.67 0-67.01 0v192.16c-20.85 0-41.7 0-62.55 0zm62.55-247.94c49.01-.49 98.08 1.11 147.03-1.08 32.36-1.98 68.5-15.66 80.35-48.65 15.34-38.92 4.04-92.07-36.46-110.74-30.56-12.09-64.28-7.51-96.49-8.47-31.48 0-62.95 0-94.43 0z" fill="none" opacity=".8" stroke="#fff" stroke-width="80"/><path d="m125.1 531.69c0-157.55 0-315.11 0-472.659 71.74.409 143.51-.916 215.23.865 45.07 1.374 95.44 14.016 121.34 54.294 41.9 61.44 29.28 157.48-33.9 199.86-52.39 30.97-114.76 24.74-173.11 25.48-22.34 0-44.67 0-67.01 0v192.16c-20.85 0-41.7 0-62.55 0zm62.55-247.94c49.01-.49 98.08 1.11 147.03-1.08 32.36-1.98 68.5-15.66 80.35-48.65 15.34-38.92 4.04-92.07-36.46-110.74-30.56-12.09-64.28-7.51-96.49-8.47-31.48 0-62.95 0-94.43 0z" fill="#0073be" stroke="#0073be" stroke-width="25.558"/></g></svg>