<svg height="580" width="580" xmlns="http://www.w3.org/2000/svg"><path d="m406.80648 35.723138c-7.38028 19.019709-7.70915 50.975569-.72244 85.186602l-338.040007 132.89033v145.38538l-36.989537 36.34807v109.03733h110.970944v-109.03733l-36.99188-36.34807v-87.24503l138.93109-54.59101-64.9497 287.22144h36.98954l24.63552-109.03733h98.6894l24.63553 109.03733h36.99186l-72.46404-320.44286 99.55446-39.11634c.90627 1.80278 1.65155 3.69135 2.60221 5.46759 29.20484 54.51961 80.54792 95.26698 112.41346 99.66889 12.39579-31.94412 5.36425-100.23653-23.84061-154.75613-29.20484-54.519597-80.55025-95.266584-112.4158-99.668862zm-112.27085 201.749932 35.60544 157.46696h-80.31271l34.73803-153.56154z" fill="none" opacity=".8" stroke="#fff" stroke-linejoin="round" stroke-width="59.1481"/><path d="m406.80648 35.723138c-9.28314 27.436575-5.96994 57.25113-.72244 85.186602-112.68 44.29678-225.36001 88.59355-338.040007 132.89033v145.38538c-12.329845 12.11602-24.659691 24.23205-36.989537 36.34807v109.03733h110.970944c0-36.34578 0-72.69155 0-109.03733-12.33063-12.11602-24.66125-24.23205-36.99188-36.34807 0-29.08168 0-58.16335 0-87.24503 46.31037-18.19701 92.62072-36.394 138.93109-54.59101-21.6499 95.74049-43.2998 191.48095-64.9497 287.22144h36.98954c8.21184-36.34578 16.42369-72.69155 24.63552-109.03733h98.6894c8.21184 36.34578 16.42368 72.69155 24.63553 109.03733h36.99186c-24.15467-106.81429-48.30936-213.62858-72.46404-320.44286 33.18482-13.03878 66.36964-26.07756 99.55446-39.11634 22.74501 43.97227 58.44431 84.88027 105.5742 102.95872 22.82321 3.68041 13.0343-40.28465 14.32546-56.42361-7.25095-78.47201-52.59976-156.465856-124.93544-191.184194-5.2056-2.134092-10.61961-3.856529-16.20496-4.639428zm-112.27085 201.749932c11.86848 52.48897 23.73696 104.97797 35.60544 157.46696-26.7709 0-53.5418 0-80.31271 0 11.57933-51.18718 23.15869-102.37437 34.73803-153.56154 3.32309-1.30181 6.64616-2.60362 9.96924-3.90542z" stroke-width="1.14181"/></svg>