<?xml version="1.0" encoding="UTF-8" standalone="no"?>
<svg
   xmlns:dc="http://purl.org/dc/elements/1.1/"
   xmlns:cc="http://creativecommons.org/ns#"
   xmlns:rdf="http://www.w3.org/1999/02/22-rdf-syntax-ns#"
   xmlns:svg="http://www.w3.org/2000/svg"
   xmlns="http://www.w3.org/2000/svg"
   xmlns:sodipodi="http://sodipodi.sourceforge.net/DTD/sodipodi-0.dtd"
   xmlns:inkscape="http://www.inkscape.org/namespaces/inkscape"
   height="580"
   width="580"
   version="1.1"
   id="svg6"
   sodipodi:docname="pharmacy.svg"
   inkscape:version="1.0.1 (3bc2e813f5, 2020-09-07)">
  <metadata
     id="metadata12">
    <rdf:RDF>
      <cc:Work
         rdf:about="">
        <dc:format>image/svg+xml</dc:format>
        <dc:type
           rdf:resource="http://purl.org/dc/dcmitype/StillImage" />
      </cc:Work>
    </rdf:RDF>
  </metadata>
  <defs
     id="defs10" />
  <sodipodi:namedview
     pagecolor="#ffffff"
     bordercolor="#666666"
     borderopacity="1"
     objecttolerance="10"
     gridtolerance="10"
     guidetolerance="10"
     inkscape:pageopacity="0"
     inkscape:pageshadow="2"
     inkscape:window-width="1920"
     inkscape:window-height="1001"
     id="namedview8"
     showgrid="false"
     inkscape:zoom="1.4310345"
     inkscape:cx="290"
     inkscape:cy="290"
     inkscape:window-x="-9"
     inkscape:window-y="-9"
     inkscape:window-maximized="1"
     inkscape:current-layer="svg6" />
  <path
     d="m176.00131 177.9883-74.94829 74.9483v299.79314h374.74144v-299.79314l-74.94829-74.94831zm0-149.896577v112.422437h224.84486v-112.422437z"
     style="opacity:.8;fill:#fff;stroke:#fff;stroke-width:46.704;stroke-linecap:round;stroke-linejoin:round"
     id="path2" />
  <path
     id="path4"
     style="stroke:none;fill:#da0600;fill-opacity:1"
     d="m 176.00131,177.9883 c -24.98276,24.98277 -49.96553,49.96553 -74.94829,74.9483 0,99.93105 0,199.86209 0,299.79314 124.91381,0 249.82763,0 374.74144,0 0,-99.93105 0,-199.86209 0,-299.79314 -24.98276,-24.98277 -49.96553,-49.96554 -74.94829,-74.94831 -74.94829,0 -149.89657,1e-5 -224.84486,1e-5 z m 74.94828,74.9483 c 24.98277,0 49.96553,0 74.9483,0 0,24.98276 0,49.96552 0,74.94828 24.98276,0 49.96552,0 74.94828,0 0,24.98276 0,49.96553 0,74.94829 -24.98276,0 -49.96552,0 -74.94828,0 0,24.98276 0,49.96552 0,74.94828 -24.98277,0 -49.96553,0 -74.9483,0 0,-24.98276 0,-49.96552 0,-74.94828 -24.98276,0 -49.96552,0 -74.94828,0 0,-24.98276 0,-49.96553 0,-74.94829 24.98276,0 49.96552,0 74.94828,0 0,-24.98276 0,-49.96552 0,-74.94828 z M 176.00131,28.091723 c 0,37.474146 0,74.948287 0,112.422437 74.94829,0 149.89657,0 224.84486,0 0,-37.47415 0,-74.948291 0,-112.422437 -74.94829,0 -149.89657,0 -224.84486,0 z" />
</svg>
