<svg height="580" width="580" xmlns="http://www.w3.org/2000/svg"><path d="m209.13 292.92c16.67-40.96 33.34-81.93 50.01-122.89h51.26c16.67 40.96 33.34 81.93 50.01 122.89-50.43 0-100.85 0-151.28 0zm163.02-122.89h83.35c0-15.23 0-30.47 0-45.7-110.12 0-220.25 0-330.37 0v45.7h82.75c-16.67 40.96-33.34 81.93-50.01 122.89-40.76 0-81.511 0-122.267 0v45.68h103.737c-19.14 47.76-38.28 95.51-57.417 143.27h56.197c19.35-47.76 38.69-95.51 58.04-143.27h187.71c19.35 47.76 38.7 95.51 58.05 143.27h56.81c-19.35-47.76-38.69-95.51-58.04-143.27h104.36c0-15.23 0-30.45 0-45.68-40.96 0-81.92 0-122.88 0-16.67-40.96-33.35-81.93-50.02-122.89z" fill="none" opacity=".8" stroke="#fff" stroke-linejoin="round" stroke-width="51"/><path d="m209.13 292.92c16.67-40.96 33.34-81.93 50.01-122.89h51.26c16.67 40.96 33.34 81.93 50.01 122.89-50.43 0-100.85 0-151.28 0zm163.02-122.89h83.35c0-15.23 0-30.47 0-45.7-110.12 0-220.25 0-330.37 0v45.7h82.75c-16.67 40.96-33.34 81.93-50.01 122.89-40.76 0-81.511 0-122.267 0v45.68h103.737c-19.14 47.76-38.28 95.51-57.417 143.27h56.197c19.35-47.76 38.69-95.51 58.04-143.27h187.71c19.35 47.76 38.7 95.51 58.05 143.27h56.81c-19.35-47.76-38.69-95.51-58.04-143.27h104.36c0-15.23 0-30.45 0-45.68-40.96 0-81.92 0-122.88 0-16.67-40.96-33.35-81.93-50.02-122.89z" fill="#734a08" stroke="#734a08" stroke-linecap="round" stroke-width="11.68"/></svg>