<svg height="580" width="580" xmlns="http://www.w3.org/2000/svg"><g stroke-linecap="round" stroke-linejoin="round"><path d="m158.58019 40.625256c-27.55949 1.7258-51.47911 27.240069-51.42514 54.853489.0105 28.714535 26.13893 54.833435 54.85349 54.833435s54.84299-26.1189 54.85348-54.833435c.0585-29.900474-28.43978-56.722329-58.28183-54.853489zm292.55192 109.706964c-27.55949 1.72579-51.47911 27.24007-51.42514 54.85349.0105 28.71454 26.13893 54.83343 54.85349 54.83343s54.84299-26.11889 54.85349-54.83343c.0585-29.90047-28.43979-56.72232-58.28184-54.85349zm-307.40806 29.95951c-53.79263 0-68.231713 68.5086-71.99521 105.13586l-37.711771-13.71338v36.56899l218.271161 77.7091-35.42621 149.48818h146.27596l-34.28343-122.06143 217.12838 77.7091v-36.56898l-34.28342-12.5706c5.99957-31.49789 25.14118-151.98986-38.85455-151.98986-59.91691 0-70.03727 82.07913-71.99521 113.13531l-217.12837-77.7091c6.99425-41.36754 19.02501-145.13319-39.99733-145.13319z" fill="#fff" opacity=".8" stroke="#fff" stroke-width="60.3209"/><path d="m158.58019 40.625256c-27.55949 1.7258-51.47911 27.240069-51.42514 54.853489.0105 28.714535 26.13893 54.833435 54.85349 54.833435s54.84299-26.1189 54.85348-54.833435c.0585-29.900474-28.43978-56.722329-58.28183-54.853489zm292.55192 109.706964c-27.55949 1.72579-51.47911 27.24007-51.42514 54.85349.0105 28.71454 26.13893 54.83343 54.85349 54.83343s54.84299-26.11889 54.85349-54.83343c.0585-29.90047-28.43979-56.72232-58.28184-54.85349zm-307.40806 29.95951c-53.79263 0-68.231713 68.5086-71.99521 105.13586l-37.711771-13.71338v36.56899l218.271161 77.7091-35.42621 149.48818h146.27596l-34.28343-122.06143 217.12838 77.7091v-36.56898l-34.28342-12.5706c5.99957-31.49789 25.14118-151.98986-38.85455-151.98986-59.91691 0-70.03727 82.07913-71.99521 113.13531l-217.12837-77.7091c6.99425-41.36754 19.02501-145.13319-39.99733-145.13319z" fill="#c9e9c8" stroke="#2f922e" stroke-width="14.5938"/></g></svg>