<svg height="580" width="580" xmlns="http://www.w3.org/2000/svg"><path d="m3.40625 1c-.75363.047193-1.407726.7448953-1.40625 1.5.000287.7852156.714784 1.4994517 1.5 1.4994517s1.499713-.7142361 1.5-1.4994517c.0016-.8176455-.777702-1.5511045-1.59375-1.5zm8 3c-.75363.0471927-1.407726.7448953-1.40625 1.5.000287.7852156.714784 1.4994517 1.5 1.4994517s1.499713-.7142361 1.5-1.4994517c.001599-.8176455-.777702-1.5511044-1.59375-1.5zm-8.40625.5c-1.47099 0-1.865835 1.8734067-1.96875 2.875l-1.03125-.375v1l5.96875 2.125-.96875 3.875h4l-.9375-3.125 5.9375 2.125v-1l-.9375-.34375c.164062-.861328.6875-4.15625-1.0625-4.15625-1.638462 0-1.915209 2.244501-1.96875 3.09375l-5.9375-2.125c.191262-1.131219.52025-3.96875-1.09375-3.96875z" style="fill:#fff;stroke:#fff;stroke-width:1.25043;stroke-linecap:round;stroke-linejoin:round;opacity:.8" transform="matrix(37.586919 0 0 37.586919 29.002379 25.666428)"/><path d="m157.03282 63.253347c-28.32663 1.773839-52.91208 27.998319-52.8566 56.380383.0108 29.51383 26.86653 56.35977 56.38038 56.35977s56.36959-26.84594 56.38037-56.35977c.0601-30.73278-29.23142-58.301244-59.90415-56.380383zm300.69535 112.760753c-28.32663 1.77383-52.91208 27.99832-52.8566 56.38038.0108 29.51384 26.86653 56.35977 56.38038 56.35977s56.36959-26.84593 56.38038-56.35977c.0601-30.73277-29.23143-58.30123-59.90416-56.38038zm-315.96503 18.79346c-55.289986 0-70.130993 70.41559-73.999251 108.0624l-38.76151-14.0951v37.58692l224.346921 79.8722-36.41233 145.64931h150.34768l-35.23774-117.45912 223.17233 79.8722v-37.58691l-35.23773-12.92051c6.16658-32.37466 25.84101-156.22063-39.9361-156.22063-61.58474 0-71.98681 84.36388-73.99925 116.28453l-223.17233-79.8722c7.18895-42.51904 19.55459-149.17309-41.11069-149.17309z" fill="#2f922e" stroke-width="50.1158"/></svg>