<svg height="580" width="580" xmlns="http://www.w3.org/2000/svg"><path d="m287.96 35.618c-37.8 34.12-94.89 43.014-141.4 22.555-22.58-16.478-38.88 17.894-57.407 27.299-27.394 11.705-7.502 34.698-.491 53.698 14.068 30.47 15.788 65.83 3.244 97.15-15.321 42.45-40.906 85.19-30.58 132.15 6.76 45.54 38.007 84.17 78.444 104.91 50.41 28.6 107.63 42.91 157.77 71.89 18.68-7.19 35.52-20.28 54.51-27.93 53.2-25.3 114.03-44.25 151.44-92.65 34.18-45.85 34.09-111.13 5.44-159.66-19.03-37.92-36.22-82.24-19.74-124.37 6.41-23.44 32.07-52.921-2.87-65.198-19.36-13.533-40.66-41.15-64.02-18.668-43.72 16.978-96.48 9.578-132.49-20.965z" style="opacity:.8;fill:none;stroke:#fff;stroke-linejoin:round;stroke-linecap:round;stroke-width:53.772"/><path d="m299.17 542.35c62.59-43.23 145.11-55.53 196.85-114.44 36.49-43.33 38.84-108.96 11.2-157.42-17.95-37.38-37.92-80.32-24.06-122.35.35-19.4 23.79-43.11 16.03-58.183-18.03-13.586-36.04-27.172-54.06-40.758-47.43 30.021-113.81 26.92-156.62-10.067-41.3 38.69-107.57 44.207-156.07 15.995-18.94 15.449-37.865 30.898-56.797 46.343 17.744 35.87 37.407 76.6 24.907 117.33-9.089 46.66-43.728 87.56-36.615 137.19 2.085 49.48 35.323 92.4 78.365 114.57 49.96 28.32 107.17 41.41 156 71.94" style="fill:#fff;fill-rule:evenodd;stroke:#734a08;stroke-linejoin:round;stroke-linecap:round;stroke-width:9.168"/><g fill="#734a08"><path d="m183.16 229c1.97 22.85 41.15 14.67 33.69-7.21-3.43-13.32 1.16-32.08-13.45-39.38-17.06-4.88-28.81 12.09-22.68 27.55.82 6.34 1.62 12.69 2.44 19.04zm13.74-2.1c-11.2-9.71-1.35-48.08 6.42-19.81 1.37 3.73 3.59 29.06-6.42 19.81z"/><path d="m261.31 147.94c18.45 15.18 39.82-19.19 17.77-28.85-12.73-6.97-23.72-23.416-39.81-18.39-15.82 8.99-9.99 29.22 5.26 35.23 5.59 4 11.18 8.01 16.78 12.01zm7.85-11.2c-15.01 1.25-38.07-32.98-10.87-18.54 3.79 1.78 24.65 17.4 10.87 18.54z"/><path d="m238.24 126.46c11.17 4.23 16.23-24.16 14.11-8.15-4.4-18.27-24.94-10.5-38.18-10.37-11.56-5.14-25.28 16.69-21.96 11.28.47 7.36 20.39 12.2 32.61 8.4 4.48-.39 8.94-.77 13.42-1.16zm-1.53-13.81c-7.89 5.82-42.5.84-26.67 8.5 6.8-7.8 38.72 6.14 26.67-8.5z"/><path d="m210.77 132.91c15.57-18.13-18.35-40.215-28.48-18.37-7.23 12.58-23.9 23.22-19.2 39.4 8.65 16.01 29 10.62 35.33-4.5 4.12-5.51 8.24-11.02 12.35-16.53zm-11.04-8.08c.93 15.03-33.75 37.36-18.76 10.48 1.52-3.44 18.45-24.62 18.76-10.48z"/><path d="m182.76 189.72c-1.31 11.88 27.44 9.73 11.4 11.65 16.6-8.81 3.96-26.78.54-39.56 2.09-12.47-22.46-20.32-16.39-18.46-7.02 2.29-6.75 22.77 0 33.67 1.48 4.23 2.97 8.47 4.46 12.7zm13-4.91c-7.62-6.2-11.41-40.96-14.88-23.7 9.51 4.95 3.3 38.31 14.88 23.7z"/><g transform="matrix(.72517 -.34819 .34819 .72517 -34.228 144.02)"><path d="m137.93 221.66c-26.98 16.32-7.42 61.49 23.63 54.38 61.18 15.94 58.8 117.47-1.64 132.88-29.62 14.14-60.882-27.38-86.079 3.26-27.692 30.18 17.912 59.83 47.159 54.72 75.97 5.99 146.98-67.81 133.71-143.84-6.75-57.52-58.73-102.98-116.78-101.4z"/><path d="m133.09 224.65c-67.422-1.94-125.7861 63.47-116.48 130.23 3.393 40.06 26.091 80.29 63.782 97.06 8.866-15.42 17.732-30.85 26.598-46.27-35.307-3.59-51.264-42.28-45.102-73.73 3.09-42.4 50.422-78.52 91.322-61.42 16.5 13.92 13.81-12.43 18.71-22.56 14.69-25.44-23.38-20.27-38.83-23.31z" opacity=".8"/><path d="m156.76 289.15c20.14 13.24 43.99 37.85 68.88 21.6 33.8-21.66 13.95-65.26-2.09-91.77-20.51-17.16-61.02-14.59-84.35-1.66-27.1 22.28-10.78 59.64 17.4 71.57 4.06 2.95 8.12 5.89 12.18 8.84" fill-rule="evenodd"/></g><path d="m209.83 422.05c1.29 22.82-31.49 34.27-44.68 15.57-14.95-16.82 2.85-45.81 24.61-40.12 11.44 2.13 20.26 12.91 20.07 24.55z"/><g transform="matrix(-.76742 .24119 .24119 .76742 385.17 -87.532)"><path d="m137.93 221.66c-26.98 16.32-7.42 61.49 23.63 54.38 61.18 15.94 58.8 117.47-1.64 132.88-29.62 14.14-60.882-27.38-86.079 3.26-27.692 30.18 17.912 59.83 47.159 54.72 75.97 5.99 146.98-67.81 133.71-143.84-6.75-57.52-58.73-102.98-116.78-101.4z"/><path d="m133.09 224.65c-67.422-1.94-125.7861 63.47-116.48 130.23 3.393 40.06 26.091 80.29 63.782 97.06 8.866-15.42 17.732-30.85 26.598-46.27-35.307-3.59-51.264-42.28-45.102-73.73 3.09-42.4 50.422-78.52 91.322-61.42 16.5 13.92 13.81-12.43 18.71-22.56 14.69-25.44-23.38-20.27-38.83-23.31z" opacity=".8"/><path d="m156.76 289.15c20.14 13.24 43.99 37.85 68.88 21.6 33.8-21.66 13.95-65.26-2.09-91.77-20.51-17.16-61.02-14.59-84.35-1.66-27.1 22.28-10.78 59.64 17.4 71.57 4.06 2.95 8.12 5.89 12.18 8.84" fill-rule="evenodd"/></g><path d="m396.91 282.24c14.66 17.54 46.41 3.5 43.27-19.16-.57-22.49-33.38-31.5-45.38-12.49-6.9 9.38-5.97 23.28 2.11 31.65z"/></g><path d="m287.96 35.618c-37.8 34.12-94.89 43.014-141.4 22.555-22.58-16.478-38.88 17.894-57.407 27.299-27.394 11.705-7.502 34.698-.491 53.698 14.068 30.47 15.788 65.83 3.244 97.15-15.321 42.45-40.906 85.19-30.58 132.15 6.76 45.54 38.007 84.17 78.444 104.91 50.41 28.6 107.63 42.91 157.77 71.89 18.68-7.19 35.52-20.28 54.51-27.93 53.2-25.3 114.03-44.25 151.44-92.65 34.18-45.85 34.09-111.13 5.44-159.66-19.03-37.92-36.22-82.24-19.74-124.37 6.41-23.44 32.07-52.921-2.87-65.198-19.36-13.533-40.66-41.15-64.02-18.668-43.72 16.978-96.48 9.578-132.49-20.965z" fill="none" stroke="#734a08" stroke-linecap="round" stroke-linejoin="round" stroke-width="15.364"/><path d="m299.17 542.35c62.59-43.23 145.11-55.53 196.85-114.44 36.49-43.33 38.84-108.96 11.2-157.42-17.95-37.38-37.92-80.32-24.06-122.35.35-19.4 23.79-43.11 16.03-58.183-18.03-13.586-36.04-27.172-54.06-40.758-47.43 30.021-113.81 26.92-156.62-10.067-41.3 38.69-107.57 44.207-156.07 15.995-18.94 15.449-37.865 30.898-56.797 46.343 17.744 35.87 37.407 76.6 24.907 117.33-9.089 46.66-43.728 87.56-36.615 137.19 2.085 49.48 35.323 92.4 78.365 114.57 49.96 28.32 107.17 41.41 156 71.94" style="opacity:.1;fill:#734a08;fill-rule:evenodd;stroke:#734a08;stroke-linejoin:round;stroke-linecap:round;stroke-width:9.168"/></svg>