<?xml version="1.0" encoding="UTF-8"?>
<svg width="580" height="580" version="1.0" xmlns="http://www.w3.org/2000/svg"><path d="m539.27 292.54c6.11 160.82-169.58 290.07-321.26 236.91-155.33-41.72-227.17-247.68-131.38-376.92 85.76-136.12 303.74-143.84 398.92-14.13 34.61 43.4 53.86 98.65 53.72 154.14z" fill="none" opacity=".8" stroke="#fff" stroke-linecap="round" stroke-linejoin="round" stroke-width="58.08"/><path d="m538.08 290.31c6.11 160.81-169.58 290.07-321.27 236.91-155.32-41.73-227.16-247.69-131.37-376.94 85.763-136.11 303.73-143.83 398.91-14.12 34.62 43.4 53.87 98.65 53.73 154.15z" fill="#fff"/><path d="m146.54 201.42c29.17 29.31 58.35 58.63 87.53 87.95l-87.53 87.53v-175.48zm272.3-16.5c-37.48 36.86-74.03 74.72-112.1 110.92-17.24 11.66-36.25-0.44-47.52-14.29-32.21-32.21-64.41-64.42-96.62-96.63h256.24zm16.91 191.98c-29.17-29.17-58.35-58.35-87.52-87.53 29.17-29.32 58.35-58.64 87.52-87.95v175.48zm-273.58 16.49c29.33-29.18 58.64-58.35 87.96-87.53 19.78 24.53 61.09 24.85 80.76 0 29.32 29.18 58.63 58.35 87.95 87.53h-256.67zm-39.32 23.68h337.43v-256.25h-337.43v256.25z" fill="#734a08"/><path d="m539.27 292.54c6.11 160.82-169.58 290.07-321.26 236.91-155.33-41.72-227.17-247.68-131.38-376.92 85.76-136.12 303.74-143.84 398.92-14.13 34.61 43.4 53.86 98.65 53.72 154.14z" fill="none" stroke="#734a08" stroke-width="21.604"/><path d="m539.27 292.54c6.11 160.82-169.58 290.07-321.26 236.91-155.33-41.72-227.17-247.68-131.38-376.92 85.76-136.12 303.74-143.84 398.92-14.13 34.61 43.4 53.86 98.65 53.72 154.14z" fill="#734a08" opacity=".1" stroke="#fff" stroke-width="21.604"/></svg>
