<?xml version="1.0" encoding="UTF-8" standalone="no"?>
<svg xmlns="http://www.w3.org/2000/svg" xmlns:sodipodi="http://sodipodi.sourceforge.net/DTD/sodipodi-0.dtd" xmlns:inkscape="http://www.inkscape.org/namespaces/inkscape" height="580" width="580" version="1.0">
 <defs id="defs16">
  <filter id="filter3799">
   <feGaussianBlur id="feGaussianBlur3801" stdDeviation="8.4638"/>
  </filter>
 </defs>
 <metadata id="metadata2975"/>
 <path id="path8078" d="m 99.193,434.63 384.847,0 0,-292.26 -384.847,0 z" opacity="0.8" fill="#734a08" stroke="#ffffff" stroke-linejoin="round" stroke-linecap="round" stroke-width="40"/>
 <path id="path2993" d="m 126.2,188.67 c 33.28,33.44 66.55,66.87 99.83,100.31 -33.28,33.28 -66.55,66.55 -99.83,99.83 0,-66.71 0,-133.43 0,-200.14 z m 310.57,-18.81 c -41.82,41.51 -83.35,83.31 -125.34,124.64 -15.55,12.88 -39.17,7.02 -50.64,-8.37 -38.76,-38.76 -77.51,-77.51 -116.27,-116.27 97.42,0 194.83,0 292.25,0 z m 19.29,218.95 c -33.28,-33.28 -66.55,-66.55 -99.83,-99.83 33.28,-33.44 66.55,-66.87 99.83,-100.31 0,66.71 0,133.43 0,200.14 z m -312.02,18.81 c 33.44,-33.28 66.87,-66.55 100.31,-99.83 21.86,27.04 67.53,28.73 90.24,1.88 5,-3.46 10.02,8.49 15.03,11.21 29.05,28.91 58.1,57.83 87.15,86.74 -97.58,0 -195.16,0 -292.73,0 z m -44.847,27.01 c 128.277,0 256.567,0 384.847,0 0,-97.42 0,-194.84 0,-292.26 -128.28,0 -256.57,0 -384.847,0 0,97.42 0,194.84 0,292.26 z" fill="#ffffff" filter="url(#filter3799)"/>
 <path id="path3754-1" d="m 282.71,300.01 c -18.44,-7.52 -30.38,-25.21 -45.11,-38.07 -30.65,-30.47 -61.2,-61.04 -91.8,-91.57 96.4,0 192.79,0 289.18,-0 -42.16,41.83 -83.35,84.69 -126.76,125.23 -7.42,4.95 -16.86,6.59 -25.51,4.42 z" fill="#ffffff" color="#000000" stroke-width="16.52"/>
 <path id="path3756-7" d="m 406.02,337.48 c -16.26,-16.26 -32.52,-32.52 -48.77,-48.77 32.68,-32.68 65.36,-65.36 98.04,-98.04 -0.1,65.2 0.18,130.4 -0.25,195.59 -16.46,-16.14 -32.7,-32.5 -49.02,-48.78 z" fill="#ffffff" color="#000000" stroke-width="16.52"/>
 <path id="path3758-4" d="m 195,357.87 c 16.4,-16.4 32.79,-32.8 49.19,-49.19 21.85,25.18 64.91,28.32 88.4,3.69 5.18,-8.5 10.25,4.73 15.38,7.67 29,29.01 58.01,58.01 87.02,87.02 -96.4,0 -192.79,0 -289.18,0 16.39,-16.4 32.79,-32.79 49.19,-49.19 z" fill="#ffffff" color="#000000" stroke-width="16.52"/>
 <path id="path3760-0" d="m 126.55,288.71 c 0,-33.01 0,-66.02 0,-99.03 32.66,33.16 65.63,66.02 97.93,99.53 -32.33,33.19 -65.34,65.71 -98.04,98.53 0,-33.01 0,-66.02 0.1,-99.03 z" fill="#ffffff" color="#000000" stroke-width="16.52"/>
 <path id="flowRoot3192" d="m 126.2,188.67 c 33.28,33.44 66.55,66.87 99.83,100.31 -33.28,33.28 -66.55,66.55 -99.83,99.83 0,-66.71 0,-133.43 0,-200.14 z m 310.57,-18.81 c -41.82,41.51 -83.35,83.31 -125.34,124.64 -15.55,12.88 -39.17,7.02 -50.64,-8.37 -38.76,-38.76 -77.51,-77.51 -116.27,-116.27 97.42,0 194.83,0 292.25,0 z m 19.29,218.95 c -33.28,-33.28 -66.55,-66.55 -99.83,-99.83 33.28,-33.44 66.55,-66.87 99.83,-100.31 0,66.71 0,133.43 0,200.14 z m -312.02,18.81 c 33.44,-33.28 66.87,-66.55 100.31,-99.83 21.86,27.04 67.53,28.73 90.24,1.88 5,-3.46 10.02,8.49 15.03,11.21 29.05,28.91 58.1,57.83 87.15,86.74 -97.58,0 -195.16,0 -292.73,0 z m -44.847,27.01 c 128.277,0 256.567,0 384.847,0 0,-97.42 0,-194.84 0,-292.26 -128.28,0 -256.57,0 -384.847,0 0,97.42 0,194.84 0,292.26 z" fill="#734a08"/>
 <path id="path3754" d="m 282.71,300.01 c -18.44,-7.52 -30.38,-25.21 -45.11,-38.07 -30.65,-30.47 -61.2,-61.04 -91.8,-91.57 96.4,0 192.79,0 289.18,-0 -42.16,41.83 -83.35,84.69 -126.76,125.23 -7.42,4.95 -16.86,6.59 -25.51,4.42 z" opacity="0.1" fill="#734a08" color="#000000" stroke-width="16.52"/>
 <path id="path3756" d="m 406.02,337.48 c -16.26,-16.26 -32.52,-32.52 -48.77,-48.77 32.68,-32.68 65.36,-65.36 98.04,-98.04 -0.1,65.2 0.18,130.4 -0.25,195.59 -16.46,-16.14 -32.7,-32.5 -49.02,-48.78 z" opacity="0.1" fill="#734a08" color="#000000" stroke-width="16.52"/>
 <path id="path3758" d="m 195,357.87 c 16.4,-16.4 32.79,-32.8 49.19,-49.19 21.85,25.18 64.91,28.32 88.4,3.69 5.18,-8.5 10.25,4.73 15.38,7.67 29,29.01 58.01,58.01 87.02,87.02 -96.4,0 -192.79,0 -289.18,0 16.39,-16.4 32.79,-32.79 49.19,-49.19 z" opacity="0.1" fill="#734a08" color="#000000" stroke-width="16.52"/>
 <path id="path3760" d="m 126.55,288.71 c 0,-33.01 0,-66.02 0,-99.03 32.66,33.16 65.63,66.02 97.93,99.53 -32.33,33.19 -65.34,65.71 -98.04,98.53 0,-33.01 0,-66.02 0.1,-99.03 z" opacity="0.1" fill="#734a08" color="#000000" stroke-width="16.52"/>
</svg>
