<svg height="580" width="580" xmlns="http://www.w3.org/2000/svg"><g stroke-linecap="round" stroke-linejoin="round"><path d="m187.39 30.367c-4.34 46.035-26.9 88.023-55.34 123.613-22.32 36.56-6.34 86.31 28.03 109.4 18.53 12.99 43.3 23.46 66.21 13.13 51.13-22.32 77.53-89.6 53.71-140.59-17.83-44.497-54.36-78.285-92.61-105.553zm-62 254.373c12.08 89.64-.59 180.92-25.28 267.39h401.2c0-37.89 0-75.79 0-113.68-70.1 0-140.19 0-210.29 0-6.87-50.91-7.97-102.76-1.11-153.73-48.37 14.97-100.88 14.22-150.13 4.25-4.84-1.25-9.67-2.71-14.39-4.23z" fill="none" opacity=".8" stroke="#fff" stroke-width="48"/><path d="m125.39 284.74c11.99 89.46-.33 179.77-25.28 267.39h215.07c-24.95-87.62-37.27-177.93-25.27-267.39-42.27 13.96-90.61 13.18-135.28 7.5-10.05-1.78-19.8-4.39-29.24-7.5z" fill="#7f7f02" stroke="#7f7f02" stroke-width="9.15"/><path d="m282.1 438.47h219.21v113.68c-73.07 0-146.14 0-219.21 0 0-37.89 0-75.79 0-113.68z" fill="#7f7f02" stroke="#7f7f02" stroke-width="7.886"/></g><path d="m187.39 30.367c-4.56 43.403-23.67 83.663-51.04 117.263-25.05 32.9-16.36 81.76 14.54 107.74 9.79 10.36 40.94 30.58 18.78 5.57-21.18-25.98-13.15-61.17 9.43-83.16 16.21-13.96 20.48-56.31 33.92-55.58 30.88 23.3 50.82 63.5 39.16 102.1 0 12.9-18.46 46.52-11.65 45.14 38.14-27.6 59.28-79.04 42.73-124.54-15.97-48.609-55.23-85.638-95.87-114.533z" fill="none" stroke="#fff" stroke-linecap="square" stroke-width="8.957"/><path d="m187.39 30.367c-4.56 43.403-23.67 83.663-51.04 117.263-25.05 32.9-16.36 81.76 14.54 107.74 9.79 10.36 40.94 30.58 18.78 5.57-21.18-25.98-13.15-61.17 9.43-83.16 16.21-13.96 20.48-56.31 33.92-55.58 30.88 23.3 50.82 63.5 39.16 102.1 0 12.9-18.46 46.52-11.65 45.14 38.14-27.6 59.28-79.04 42.73-124.54-15.97-48.609-55.23-85.638-95.87-114.533z" fill="#aaaa47" fill-rule="evenodd" stroke="#7f7f02" stroke-linecap="square" stroke-width="8.957"/><path d="m179.82 275.01c-21.88-23.34-33.83-62.57-7.66-87.72 19.66-15.88 26.5-62.3 40.86-65.09 30.88 23.3 50.82 63.5 39.16 102.1-4.74 27.77-15.81 68.24-53.32 55.89-6.43-1.42-12.71-3.4-19.04-5.18z" fill="#d5d5ae" fill-rule="evenodd" stroke="#7f7f02" stroke-linecap="square" stroke-width="8.957"/></svg>