<?xml version="1.0" encoding="UTF-8"?>
<svg width="580" height="580" version="1.1" xmlns="http://www.w3.org/2000/svg"><g stroke-linecap="round" stroke-linejoin="round"><path d="m453 151c14.6-8.99 29.1-18 43.7-27m-83.7-11c7.92-15.2 15.8-30.3 23.8-45.5m-76 31.8v-51.3m106 157c17.1 0 34.2-0.11 51.3-0.11m-65.1 54.4c14.6 9 29.1 18 43.7 27m-83.7 11c7.92 15.2 15.8 30.4 23.8 45.5m-76-33.7v51.4m-51-63.2c-7.92 15.2-15.8 30.4-23.8 45.5m-16.2-83.5c-14.6 9-29.1 18-43.7 27m30-82.4c-17.1 0-34.2 0.1-51.3 0.1m65-54.4c-14.6-8.99-29.1-18-43.7-27m83.7-11c-7.92-15.2-15.8-30.3-23.8-45.5" fill="none" opacity=".8" stroke="#fff" stroke-width="70.1"/><path d="m430 204c1.93 45-51.7 79.4-93.6 60.2-43.5-15.8-55.3-77.1-20.7-107 31.9-32.7 94.8-19.4 110 23.2 3.03 7.53 4.58 15.6 4.58 23.7z" fill="#aaaa47" opacity=".8" stroke="#fff" stroke-width="46.7"/><g fill="none"><path d="m89.7 406c-15.6 1.62-14.4 20-19 31.3h57.7c1.27-10.4 2.55-20.8 3.83-31.3h-42.5zm64.8 0c-1.28 10.4-2.55 20.9-3.83 31.3h68.6c0.69-10.4 1.38-20.8 2.07-31.3h-66.8zm89 0c-0.69 10.4-1.38 20.9-2.07 31.3h65.3c-0.69-10.4-1.38-20.8-2.07-31.3h-61.2zm83.3 0c0.69 10.4 1.38 20.9 2.07 31.3h68.6c-1.28-10.4-2.55-20.8-3.83-31.3h-66.8zm89.1 0c1.28 10.4 2.56 20.9 3.83 31.3h57.7c-4.5-11.9-4.08-32.4-21.7-31.3h-39.8zm-350 49c-3.12 11-6.24 22.1-9.36 33.1h65.4c1.37-11 2.72-22.1 4.07-33.1h-60.1zm82.4 0c-1.36 11-2.72 22.1-4.07 33.1h71.4c0.73-11 1.45-22.1 2.17-33.1h-69.4zm91.6 0c-0.73 11-1.45 22.1-2.17 33.1h71.7c-0.73-11-1.45-22.1-2.18-33.1h-67.4zm89.5 0c0.72 11 1.45 22.1 2.18 33.1h71.3c-1.35-11-2.7-22.1-4.07-33.1h-69.4zm91.8 0c1.35 11 2.71 22.1 4.07 33.1h65.4c-3.12-11-6.24-22.1-9.36-33.1h-60.1zm-370 53c-1.78 12.1-12.5 26.4-2.22 37 12.4 6 27.2 1.88 40.8 3.1h25.2c1.64-13.4 3.29-26.7 4.93-40.1h-68.7zm90.9 0c-1.63 13.4-3.27 26.7-4.9 40.1h74.7c0.88-13.4 1.77-26.7 2.66-40.1h-72.5zm94.6 0c-0.89 13.4-1.78 26.7-2.66 40.1h79.7c-0.89-13.4-1.78-26.7-2.67-40.1h-74.4zm96.5 0c0.89 13.4 1.78 26.7 2.67 40.1h74.7c-1.64-13.4-3.27-26.7-4.91-40.1h-72.5zm94.8 0c1.64 13.4 3.29 26.7 4.93 40.1 20.2-0.24 40.4 0.48 60.5-0.37 15.7-4.33 8.64-21.4 5.4-32.2 0.39-11.7-12-6.52-19.6-7.58h-51.2z" opacity=".8" stroke="#fff" stroke-width="37.4"/><g stroke="#7f7f02" stroke-width="32.7"><path d="m467 205c17.1 0 34.2-0.11 51.3-0.11"/><path d="m362 304v51.4"/><path d="m413 297c7.92 15.2 15.8 30.4 23.8 45.5"/><path d="m453 259c14.6 9 29.1 18 43.7 27"/><path d="m413 113c7.92-15.2 15.8-30.3 23.8-45.5"/><path d="m453 151c14.6-8.99 29.1-18 43.7-27"/><path d="m256 203c-17.1 0-34.2 0.1-51.3 0.1"/><path d="m361 99.3v-51.3"/><path d="m310 111c-7.92-15.2-15.8-30.3-23.8-45.5"/><path d="m270 149c-14.6-8.99-29.1-18-43.7-27"/><path d="m361 309v51.4"/><path d="m310 297c-7.92 15.2-15.8 30.4-23.8 45.5"/><path d="m270 259c-14.6 9-29.1 18-43.7 27"/></g></g></g><path d="m89.7 406c-15.6 1.62-14.4 20-19 31.3h57.7c1.27-10.4 2.55-20.8 3.83-31.3h-42.5zm64.8 0c-1.28 10.4-2.55 20.9-3.83 31.3h68.6c0.69-10.4 1.38-20.8 2.07-31.3h-66.8zm89 0c-0.69 10.4-1.38 20.9-2.07 31.3h65.3c-0.69-10.4-1.38-20.8-2.07-31.3h-61.2zm83.3 0c0.69 10.4 1.38 20.9 2.07 31.3h68.6c-1.28-10.4-2.55-20.8-3.83-31.3h-66.8zm89.1 0c1.28 10.4 2.56 20.9 3.83 31.3h57.7c-4.5-11.9-4.08-32.4-21.7-31.3h-39.8zm-350 49c-3.12 11-6.24 22.1-9.36 33.1h65.4c1.37-11 2.72-22.1 4.07-33.1h-60.1zm82.4 0c-1.36 11-2.72 22.1-4.07 33.1h71.4c0.73-11 1.45-22.1 2.17-33.1h-69.4zm91.6 0c-0.73 11-1.45 22.1-2.17 33.1h71.7c-0.73-11-1.45-22.1-2.18-33.1h-67.4zm89.5 0c0.72 11 1.45 22.1 2.18 33.1h71.3c-1.35-11-2.7-22.1-4.07-33.1h-69.4zm91.8 0c1.35 11 2.71 22.1 4.07 33.1h65.4c-3.12-11-6.24-22.1-9.36-33.1h-60.1zm-370 53c-1.78 12.1-12.5 26.4-2.22 37 12.4 6 27.2 1.88 40.8 3.1h25.2c1.64-13.4 3.29-26.7 4.93-40.1h-68.7zm90.9 0c-1.63 13.4-3.27 26.7-4.9 40.1h74.7c0.88-13.4 1.77-26.7 2.66-40.1h-72.5zm94.6 0c-0.89 13.4-1.78 26.7-2.66 40.1h79.7c-0.89-13.4-1.78-26.7-2.67-40.1h-74.4zm96.5 0c0.89 13.4 1.78 26.7 2.67 40.1h74.7c-1.64-13.4-3.27-26.7-4.91-40.1h-72.5zm94.8 0c1.64 13.4 3.29 26.7 4.93 40.1 20.2-0.24 40.4 0.48 60.5-0.37 15.7-4.33 8.64-21.4 5.4-32.2 0.39-11.7-12-6.52-19.6-7.58h-51.2z" fill="#7f7f02" stroke-width="24.2"/><path d="m430 204c1.93 45-51.7 79.4-93.6 60.2-43.5-15.8-55.3-77.1-20.7-107 31.9-32.7 94.8-19.4 110 23.2 3.03 7.53 4.58 15.6 4.58 23.7z" fill="#aaaa47" stroke="#7f7f02" stroke-linecap="round" stroke-linejoin="round" stroke-width="9.84"/><g fill="none" stroke="#aaaa47" stroke-linecap="round" stroke-linejoin="round" stroke-width="21.5"><path d="m467 205c17.1 0 34.2-0.11 51.3-0.11"/><path d="m362 304v51.4"/><path d="m413 297c7.92 15.2 15.8 30.4 23.8 45.5"/><path d="m453 259c14.6 9 29.1 18 43.7 27"/><path d="m413 113c7.92-15.2 15.8-30.3 23.8-45.5"/><path d="m453 151c14.6-8.99 29.1-18 43.7-27"/><path d="m256 203c-17.1 0-34.2 0.1-51.3 0.1"/><path d="m361 99.3v-51.3"/><path d="m310 111c-7.92-15.2-15.8-30.3-23.8-45.5"/><path d="m270 149c-14.6-8.99-29.1-18-43.7-27"/><path d="m361 309v51.4"/><path d="m310 297c-7.92 15.2-15.8 30.4-23.8 45.5"/><path d="m270 259c-14.6 9-29.1 18-43.7 27"/></g></svg>
