<svg enable-background="new 0 0 580 580" height="580" viewBox="0 0 580 580" width="580" xmlns="http://www.w3.org/2000/svg"><path d="m421.72 55.799c-39.3 63.861-78.43 128.341-117.66 192.441-14.38-13.62-32.68-11.83-50.07-5.15-33.49-61.46-66.97-122.92-100.46-184.377-74.916 47.197-121.025 136.087-115.98 224.557 63.97 1.55 127.94 3.11 191.91 4.66-2.45 20.66 8.57 36.48 21.77 46.72-30.93 50.83-62.35 101.73-92.97 152.52 70.02 43.68 161.68 49 236.48 14.33-30.55-56.1-61.1-112.19-91.65-168.29 18.39-6.92 24.23-20.85 27.59-43.51 70.41.78 140.83 1.55 211.24 2.33 8.27-93.41-39.54-188.11-120.2-236.231z" style="opacity:.8;fill:none;stroke:#fff;stroke-linejoin:round;stroke-linecap:round;stroke-width:40"/><path d="m421.72 55.799c-39.3 63.861-78.43 128.341-117.66 192.441-14.38-13.62-32.68-11.83-50.07-5.15-33.49-61.46-66.97-122.92-100.46-184.377-74.916 47.197-121.025 136.087-115.98 224.557 63.97 1.55 127.94 3.11 191.91 4.66-2.45 20.66 8.57 36.48 21.77 46.72-30.93 50.83-62.35 101.73-92.97 152.52 70.02 43.68 161.68 49 236.48 14.33-30.55-56.1-61.1-112.19-91.65-168.29 18.39-6.92 24.23-20.85 27.59-43.51 70.41.78 140.83 1.55 211.24 2.33 8.27-93.41-39.54-188.11-120.2-236.231z" fill="#7f7f02"/></svg>