<svg enable-background="new 0 0 580 580" height="580" viewBox="0 0 580 580" width="580" xmlns="http://www.w3.org/2000/svg"><path d="m414.93 27.861c-36.36-.372-71.94 19.629-90.75 50.705-42.75-17.561-95.74 12.581-102.57 58.264-21.65 5.43-55.27 24.88-49.09 56.51 1.95 34.82 46.38 55.52 74.41 35.17 17.2-21.35 46.81 10.31 71.8-3.91 15.45-5.43 26.85-17.66 39.38 0 49.44 33.11 123.59 13.71 150.49-39.4 29.48-50.97 6.22-122.74-47.48-146.813-14.34-6.947-30.3-10.504-46.19-10.526zm-299.93 237.139c-18.826 95.72-37.644 191.42-56.463 287.14h227.463c-12.37-95.72-24.74-191.42-37.1-287.14z" style="opacity:.8;fill:none;stroke:#fff;stroke-linejoin:round;stroke-linecap:round;stroke-width:40"/><path d="m248.9 265c12.36 95.72 24.73 191.42 37.1 287.14-75.82 0-151.65 0-227.462 0 18.819-95.72 37.636-191.42 56.462-287.14z" fill="#7f7f02"/><path d="m414.93 27.861c-36.36-.372-71.94 19.63-90.75 50.706-42.75-17.561-95.74 12.58-102.57 58.263-21.65 5.43-55.27 24.88-49.09 56.51 1.95 34.82 46.38 55.52 74.41 35.17 17.2-21.35 46.81 10.31 71.8-3.91 15.45-5.43 26.85-17.66 39.38 0 49.44 33.11 123.59 13.71 150.49-39.4 29.48-50.97 6.22-122.74-47.48-146.813-14.34-6.947-30.3-10.504-46.19-10.526z" fill="#d5d5ae"/></svg>