<svg height="580" width="580" xmlns="http://www.w3.org/2000/svg"><g fill-rule="evenodd" stroke-linecap="round"><path d="m50.707 538.78c4.263-31.03 30.797-56.36 46.566-83.22 33.477-49.73 72.947-95.65 102.727-147.67-13.09-86.67-45.94-169.77-55.83-257.155 5.12-33.711 30.17 27.073 36.97 38.8 32.44 63.445 55.92 131.445 91.11 193.305 81.62 32 170.03 45.11 250.63 80.22 26.64 21.3-38.54 12.6-52.1 12.61-71.15-3.6-141.78-17.28-212.96-17.73-68.51 54.67-124.07 124.67-194.786 176.94-3.579 1.6-8.064 5.95-12.327 3.9z" fill="#7f7f02" opacity=".8" stroke="#fff" stroke-width="61.01"/><path d="m50.707 538.78c4.263-31.03 30.797-56.36 46.566-83.22 33.477-49.73 72.947-95.65 102.727-147.67-13.09-86.67-45.94-169.77-55.83-257.155 5.12-33.711 30.17 27.073 36.97 38.8 32.44 63.445 55.92 131.445 91.11 193.305 81.62 32 170.03 45.11 250.63 80.22 26.64 21.3-38.54 12.6-52.1 12.61-71.15-3.6-141.78-17.28-212.96-17.73-68.51 54.67-124.07 124.67-194.786 176.94-3.579 1.6-8.064 5.95-12.327 3.9z" fill="#7f7f02" stroke="#7f7f02" stroke-width="22.603"/><path d="m270.74 319.09c1.63 28.44-40.47 40.8-54.46 15.98-17.38-23.9 14-57.58 39.06-41.93 9.39 5 15.51 15.33 15.4 25.95z" fill="#fff" stroke="#fff" stroke-width="1.776"/></g></svg>