<svg height="580" width="580" xmlns="http://www.w3.org/2000/svg"><g stroke-linecap="round"><g fill="none" opacity=".8" stroke="#fff" stroke-linejoin="round" stroke-width="55" transform="translate(-2.829 3.6309)"><path d="m227.68 156.77c-33.25 35.43-86.62 51.56-132.917 34.33-22.578-7.62-43.582-20.03-61.285-35.96"/><path d="m227.68 73.065c-33.25 35.435-86.62 51.565-132.917 34.325-22.579-7.619-43.583-20.038-61.285-35.969"/><path d="m357.97 156.77c33.25 35.43 86.62 51.56 132.92 34.33 22.58-7.62 43.59-20.03 61.29-35.96"/><path d="m357.97 73.065c33.25 35.435 86.62 51.565 132.92 34.325 22.58-7.619 43.59-20.038 61.29-35.969"/></g><path d="m217.9 156.21c49.23.24 98.47.49 147.7.73m-86.33 58.73c.21-56.45.43-112.9.64-169.347m23.7 171.667c34.66 105.24 69.33 210.47 103.99 315.71m-106.02-318.03c.21-56.45.43-112.9.64-169.347m-84.32 30.826c49.23.243 98.47.487 147.7.73m-87.8 140.111c-34.66 105.24-69.33 210.47-103.99 315.71" opacity=".8" stroke="#fff" stroke-linejoin="round" stroke-width="67"/><g fill="none"><path d="m316.86 274.15c-23.15 24.58-46.31 49.16-69.46 73.74" stroke="#7f7f02" stroke-width="13.605"/><path d="m265.68 274.15c23.15 24.58 46.31 49.16 69.46 73.74" stroke="#7f7f02" stroke-width="13.605"/><path d="m240.83 347.67c49.77 46.22 99.53 92.44 149.3 138.66" stroke="#7f7f02" stroke-width="16.745"/><path d="m341.37 347.67c-49.77 46.22-99.53 92.44-149.3 138.66" stroke="#7f7f02" stroke-width="16.745"/><path d="m277.8 217.99c-34.66 105.24-69.33 210.47-103.99 315.71" stroke="#7f7f02" stroke-linejoin="round" stroke-width="27.14"/><g stroke="#aaaa47" stroke-linejoin="round" stroke-width="15" transform="translate(-2.829 3.6309)"><path d="m227.68 156.77c-33.25 35.43-86.62 51.56-132.917 34.33-22.578-7.62-43.582-20.03-61.285-35.96"/><path d="m227.68 73.065c-33.25 35.435-86.62 51.565-132.917 34.325-22.579-7.619-43.583-20.038-61.285-35.969"/><path d="m357.97 156.77c33.25 35.43 86.62 51.56 132.92 34.33 22.58-7.62 43.59-20.03 61.29-35.96"/><path d="m357.97 73.065c33.25 35.435 86.62 51.565 132.92 34.325 22.58-7.619 43.59-20.038 61.29-35.969"/></g><path d="m217.9 77.149c49.23.243 98.47.487 147.7.73" stroke="#7f7f02" stroke-linejoin="round" stroke-width="27.14"/><path d="m301.58 215.67c.21-56.45.43-112.9.64-169.347" stroke="#7f7f02" stroke-linejoin="round" stroke-width="27.14"/><path d="m303.61 217.99c34.66 105.24 69.33 210.47 103.99 315.71" stroke="#7f7f02" stroke-linejoin="round" stroke-width="27.14"/><path d="m279.27 215.67c.21-56.45.43-112.9.64-169.347" stroke="#7f7f02" stroke-linejoin="round" stroke-width="27.14"/><path d="m217.9 156.21c49.23.24 98.47.49 147.7.73" stroke="#7f7f02" stroke-linejoin="round" stroke-width="27.14"/></g></g></svg>