<svg height="580" width="580" xmlns="http://www.w3.org/2000/svg"><g fill="none"><path d="m550.4 138.81c-43.18 36.63-105.91 45.09-158.06 24.01-16.91-6.37-33.17-14.71-47.74-25.43m-104.3-.58c-42.86 36.59-105.35 45.11-157.222 24.01-16.822-6.37-33.003-14.71-47.48-25.43" opacity=".8" stroke="#fff" stroke-linecap="round" stroke-linejoin="round" stroke-width="50"/><path d="m288.15 90.096v422.854m72.72-378.43c-47.44 0-94.88 0-142.32 0" opacity=".8" stroke="#fff" stroke-linecap="round" stroke-linejoin="round" stroke-width="75"/><path d="m240.3 136.81c-42.86 36.59-105.35 45.11-157.222 24.01-16.822-6.37-33.003-14.71-47.48-25.43" stroke="#aaaa47" stroke-width="10"/><path d="m550.4 138.81c-43.18 36.63-105.91 45.09-158.06 24.01-16.91-6.37-33.17-14.71-47.74-25.43" stroke="#aaaa47" stroke-width="10"/><g stroke="#7f7f02"><path d="m360.87 134.52c-47.44 0-94.88 0-142.32 0" stroke-linecap="round" stroke-width="31.22"/><path d="m288.15 90.096v422.854" stroke-linecap="square" stroke-width="40"/></g></g></svg>