<svg height="580" width="580" xmlns="http://www.w3.org/2000/svg"><path d="m260.82 102.87c-9.3 0-18.62.1-27.92.13v51.77c-7.95 2.92-15.64 6.56-22.97 10.84v-31.66h-173.511v33.98c.112 284.63 0-33.98 0 309.2 263.951-1.97 136.021-.18 328.631-.1-9.93-50.62-18.09-76.97-18.09-76.97s67.58-68.69 66.02-117.14c.56-51.58-30.37-101.09-76.36-123.05-15.54-8.18-32.27-12.52-49.17-13.48-2.58-11.23-5.33-22.42-8.68-33.37-3.71-6.19-10.73-10.21-17.95-10.18zm169.14 284.69c-20 .14-40.07 15.79-60.06 4.46 2.05 9.04 4.09 18.08 6.13 27.13 12.7 15.15 36.46-5.53 53.87-3.02 25.57 12.54 50.89 5.13 76.77 0 12.44-.73 41.06 20.24 35.88-3.65 4.82-18.27-8.66-17.97-23.51-22.32-24.5-10.56-48.11 15.88-72.29 1.86-5.59-3.33-11.19-4.5-16.79-4.46zm77.98 52.22c-17.18.21-34.56 10.94-52.1 7.36-24.54-16.99-49.42 2.08-74.63.36 1.44 6.39 2.88 12.79 4.32 19.18.54 22.02 26.68.1 39.17 1.57 25.84 6.04 51.25 11.73 76.82 0 12.99-4.99 43.48 21.62 41.03-1.14.5-12.04 2.52-23.85-14.54-21.26-6.66-4.63-13.35-6.15-20.07-6.07z" style="opacity:.8;fill:#fff;stroke:#fff;stroke-linejoin:round;stroke-linecap:round;stroke-width:61"/><g stroke-width="1.017"><path d="m36.419 443.15h173.511v33.98c-57.84 0-115.676 0-173.511 0 0-11.33 0-22.66 0-33.98z" fill="#7f7f02"/><path d="m36.419 381.31h173.511v33.99c-57.84 0-115.676 0-173.511 0 0-11.34 0-22.66 0-33.99z" fill="#7f7f02"/><path d="m201.82 319.46c-55.13 0-110.272 0-165.408 0v33.99h173.528c0-8.13 0-16.28 0-24.41-2.9-3.01-5.77-6.1-8.12-9.58z" fill="#7f7f02"/><path d="m182.97 257.62c-48.85 0-97.705 0-146.558 0v34h154.928c-5.02-10.59-7.92-22.29-8.37-34z" fill="#7f7f02"/><path d="m194.52 195.85c-52.7 0-105.405 0-158.108 0v33.85h147.138c1.32-11.86 5.15-23.45 10.97-33.85z" fill="#7f7f02"/><path d="m36.419 133.95h173.511v33.98c-57.84 0-115.676 0-173.511 0 0-11.33 0-22.66 0-33.98z" fill="#7f7f02"/><path d="m337.02 357.82c-28.74 23.52-71.66 27.08-104.12 9.18v110.06h132.15c-9.34-39.74-18.68-79.49-28.03-119.24z" fill="#606000"/><path d="m260.82 102.88c-9.3 0-18.62.1-27.92.12v96.03c17.86-13.41 49.26-9.67 64.03-11.78-6.28-24.64-10.73-49.97-18.16-74.2-3.71-6.19-10.73-10.21-17.95-10.17z" fill="#606000"/><path d="m381.21 447.5c25.21 1.72 50.09-17.35 74.63-.36 24.41 4.97 48.5-17.73 72.17-1.29 17.06-2.59 15.04 9.22 14.54 21.26 2.45 22.76-28.04-3.85-41.03 1.14-25.57 11.73-50.98 6.04-76.82 0-12.49-1.49-38.63 20.45-39.17-1.57-1.44-6.39-2.88-12.79-4.32-19.18z" fill="#7f7f02"/><path d="m369.9 392.02c25.59 14.5 51.3-15.19 76.85 0 24.18 14.02 47.79-12.42 72.29-1.86 14.85 4.35 28.33 4.05 23.51 22.32 5.18 23.89-23.44 2.92-35.88 3.65-25.88 5.13-51.2 12.54-76.77 0-17.41-2.51-41.17 18.17-53.87 3.02-2.04-9.05-4.08-18.09-6.13-27.13z" fill="#7f7f02"/></g><path d="m414.4 282c2.73 84.05-81.1 156-163.78 140.52-83.26-10.16-141.54-103.49-114.1-182.77 22.43-80.69 123.05-124.54 197.37-85.85 48.49 22.87 81.1 74.39 80.51 128.1z" fill="none" stroke="#fff" stroke-linecap="round" stroke-linejoin="round" stroke-width="15.595"/><path d="m399.88 282c2.45 75.49-72.82 140.1-147.08 126.2-74.77-9.12-127.1-92.94-102.46-164.13 20.14-72.46 110.5-111.84 177.24-77.1 43.56 20.54 72.84 66.81 72.3 115.03z" fill="#fff" stroke="#606000" stroke-linecap="round" stroke-linejoin="round" stroke-width="14.01"/><path d="m266.3 280.45c-29.71-28.48-59.42-56.94-89.13-85.41 19.81-14.72 39.28-30.04 63.41-36.9 7.22 4.43 6.76 23.94 11.11 34.01 6.94 27.6 13.9 55.21 20.84 82.81-2.07 1.83-4.16 3.66-6.23 5.49z" fill="#606000" stroke-linecap="round" stroke-linejoin="round" stroke-width="13.612"/><path d="m276.86 281.82c29.71 28.46 59.42 56.94 89.13 85.39-19.81 14.72-39.28 30.06-63.43 36.92-7.22-4.43-6.74-23.94-11.09-34.01-6.94-27.62-13.89-55.23-20.84-82.84 2.07-1.82 4.16-3.65 6.23-5.46z" fill="#606000" stroke-linecap="round" stroke-linejoin="round" stroke-width="13.612"/><ellipse cx="272.75" cy="281.38" fill="#7f7f02" rx="5.517" ry="4.868" stroke="#7f7f02" stroke-linecap="round" stroke-linejoin="round" stroke-width="18.06"/></svg>