<svg height="580" width="580" xmlns="http://www.w3.org/2000/svg"><path d="m489.5 52.785c-13.88-9.269-37.67-6.612-55.66-9.127-105.54-5.139-211.53-5.747-316.97 1.814-12 2.465-38.754-1.357-30.532 17.563 20.602 157.115 41.212 314.235 61.812 471.355 13.66 8.46 39.92 5.42 58.29 7.68 69.87 2.13 140.06 3.13 209.72-3.54 15.1 2.32 9.54-12.71 12.47-22.08 20.29-154.55 40.58-309.11 60.87-463.665z" style="opacity:.8;fill:none;stroke:#fff;stroke-linejoin:round;stroke-linecap:round;stroke-width:40"/><path d="m110.72 98.979c115.52.937 231.03 1.871 346.55 2.811-18.71 138.43-37.41 276.86-56.12 415.29-79.04.94-158.07 1.87-237.11 2.81-17.77-140.3-35.55-280.61-53.32-420.911z" fill="#d0c2ac" fill-rule="evenodd"/><path d="m489.5 52.785c-13.88-9.269-37.67-6.612-55.66-9.127-105.54-5.139-211.53-5.747-316.97 1.814-12 2.465-38.754-1.357-30.532 17.563 20.602 157.115 41.212 314.235 61.812 471.355 13.66 8.46 39.92 5.42 58.29 7.68 69.87 2.13 140.06 3.13 209.72-3.54 15.1 2.32 9.54-12.71 12.47-22.08 20.29-154.55 40.58-309.11 60.87-463.665zm-103.77 446.395c-59.57 3.39-119.47 1.26-179.14.1-15.4 3.43-22.6-3.63-21.85-18.09-19.12-121.23-38.25-242.45-57.37-363.67 37.46 27.8 86.59 36.95 131.87 26.31 60.38-13.31 120.74-33.69 183.47-29.12-18.99 128.16-37.99 256.32-56.98 384.48z" fill="#734a08"/></svg>