<?xml version="1.0" encoding="UTF-8"?>
<svg width="580" height="580" enable-background="new 0 0 580 580" version="1.1" viewBox="0 0 580 580" xmlns="http://www.w3.org/2000/svg"><path d="m546 423c-16.8 6.22-26.6 33.7-49.4 36.4-37.6 14-88-9.81-90.1-52.8-4.3-31.4 25.1-63.8 57.5-55.5 28.3 3.41 42.1 43.5 19 61.6-28.7 28.5-62.5-35.5-19.8-33.3 25.2 9.13-11.6 33.8-5.11 8.29-23-13.6-8.28 39.6 13.9 21.5 34.6-22-19.9-63.8-36.8-28.2-14.5 23.4 9.89 54 36 48.2 36.6-3.95 46.1-56.4 18.6-77.6-11.8-16.2-51.8-11.9-53.4-11.5 10.2-3.74 36.4-39.2 13.2-31.7-22.1 43-89 52-120 13.4-25.7-29.2-9.95-86.1 31.8-88.4 27.2-4.25 53.6 25.1 41.1 51.1-10.1 35.1-69.9 8.9-42.8-19.4 19-18.4 32.9 26.2 9.05 15.8 5.02-23.4-22.8-9.5-8.8 6.89 24.7 26 51.2-28.2 17.4-35.9-27.1-9.6-46.6 27.9-28.9 47.5 18.8 24.9 62.4 12 66.9-18.3 8.22-16.7-12-45.5-13-46.5 38.9 16.1 88.8-1.66 107-39.9-12.5-17.5-23.9 26.7-42.2 26.8-36.7 20-92.6 1.29-99.4-43-7.91-32.8 22-70.2 56.8-61.2 28.3 3.39 42.1 43.5 19 61.6-28.7 28.5-62.5-35.5-19.8-33.3 25.2 9.12-11.6 33.8-5.1 8.3-23-13.6-8.27 39.5 13.9 21.5 34.6-22-19.9-63.8-36.8-28.2-14.5 23.4 9.89 54 36 48.2 36.6-3.94 46.1-56.4 18.6-77.6-29.7-26.6-81.5-9.28-91.2 28.8-12.1 20.5 11.3 46.4-10.3 61.2-31.7 33.7-97.9 27.4-115-18.1-14.1-31.3 8.03-75.5 44.8-73.6 27.4-1.73 49.9 30.3 35 54.5-15.4 35.8-73-5-35.8-25.3 26.3-9.89 15.3 36.6 2.66 14.7 1.44-25.6-24.2 8.29-2.89 14.9 34.1 16.1 38.7-47.7 2.43-41.2-29.3 1.61-33.8 45.3-9.18 57.1 25.6 15.8 60.2-7.22 58.6-36.5 2.09-38.7-46.1-61.4-77.7-43.2-29.2 14.5-40.1 53-28.4 82.3-23.9 43.2-94.2 49.4-122 6.61-21.3-29.9-4.27-81.7 35.1-83.8 27.2-4.24 53.7 25.2 41 51.2-12 39.9-76.2 0.28-37.4-22.1 26.3-9.88 15.3 36.6 2.65 14.7 1.47-25.6-24.2 8.29-2.88 14.9 34.1 16.1 38.7-47.7 2.43-41.2-29.3 1.59-33.9 45.3-9.18 57 25.6 15.9 60.2-7.22 58.6-36.5 2.1-38.5-45.8-61.2-77.4-43.3-44 21.5-43.2 90.4-2.77 115-34.2-15.3-75.2 11.2-79.3 47.4-8.14 40.5 25.6 80.4 66 83.3 11.9 6.12 48.5-9.1 42.1-3.44-33.1 29.7-24 89.4 15.1 110 36.5 21.7 87.8 10.5 112-24.4 29.2 48.1 107 45.8 137 0 28.8 47.4 105 46 136 1.69 2.64-4.75 11.8-12.5 4.41-17.5zm-212-81.4c-12-10.4-54.4 10.1-27.7-7.96 13.2-22.3 13.3 0.57 27.7 7.96zm32.1-136c4.03 11.6 32.7 26.7 6.65 17.5-13.1-3.81-38.6 9.44-16.5-6.19 3.6-3.48 6.9-7.28 9.84-11.3zm-35.7 28.5c-22.9 17.4-30.1 50.6-19.8 76.9-23.9 43.2-94.2 49.4-122 6.6-21.3-29.9-4.28-81.7 35.1-83.8 27.2-4.24 53.6 25.1 41.1 51.1-11.9 39.9-76.3 0.45-37.5-22 26.3-9.88 15.3 36.6 2.66 14.6 1.45-25.6-24.2 8.29-2.89 14.9 34.1 16.1 38.7-47.7 2.43-41.2-29.3 1.62-33.8 45.3-9.18 57.1 25.6 15.8 60.2-7.22 58.6-36.5 2.38-13.7-11.6-32.6-14.3-36.7 20.8 8.27 44.8 7.76 65.3-1.11zm-102-28.5c4.03 11.6 32.7 26.7 6.64 17.5-13.1-3.81-38.6 9.43-16.5-6.2 3.6-3.47 6.9-7.27 9.84-11.3zm-156 132c-38.7-18.8-40.6-84.3 1.1-100 25.5-11.8 61.6 8.27 57.1 38.2 1.26 34.5-60.1 35.4-51.3-0.91 7.9-31.8 47.3 9.01 16.3 8.66 1.5-12.1-12.7-23.5-13.8-3.34 5.59 33 54.7 5.06 32.5-19.1-20.1-25-58.3 5.29-45 31.7 11.1 29.8 58.6 26.8 68.7-2.49 14.6-17.8-10.2-56.2-10.3-54.4 20.8 8.25 44.8 7.76 65.3-1.11-22.9 17.4-30.1 50.6-19.8 76.9-19.7 33.9-67.1 46.3-101 26.2zm107-14.6c5.67 12.2 28.9 24.1 2.73 16.7-14.1-1.29-33 9.62-12.8-5.17 3.68-3.52 7.05-7.38 10-11.5zm87.5 45.6c-13.2 18.7-7.49 43.4-6.48 62.6-25.3 40.6-92.9 44.9-120 3.45-21.3-29.9-4.27-81.7 35.1-83.8 27.2-4.25 53.7 25.1 41 51.2-12 39.9-76.2 0.28-37.4-22.1 26.3-9.88 15.3 36.6 2.65 14.6 1.46-25.6-24.2 8.29-2.88 14.9 34.1 16.1 38.7-47.7 2.42-41.2-29.3 1.6-33.9 45.3-9.18 57 25.6 15.9 60.2-7.21 58.6-36.5 7.45-17.4-31.9-45.6-0.38-31.9 13.7 7.4 52.1-7.34 47.3-2.47-4.48 4.06-8.28 8.85-11.2 14.1zm137 0c-13.2 18.7-7.47 43.4-6.48 62.6-25.3 40.6-92.9 44.9-120 3.45-21.3-29.9-4.28-81.7 35.1-83.8 27.2-4.24 53.6 25.1 41.1 51.2-11.9 39.9-76.3 0.44-37.5-22 26.4-9.87 15.3 36.6 2.66 14.6 1.45-25.6-24.2 8.32-2.88 14.9 34.1 16.1 38.7-47.7 2.42-41.2-29.3 1.6-33.8 45.3-9.18 57.1 25.6 15.8 60.2-7.23 58.6-36.5 7.46-17.4-31.9-45.6-0.39-31.9 16.2 10.8 68.9-18.4 39.3 6.49z" fill="#0092d9" opacity=".8" stroke="#fff" stroke-width="41.6"/><path d="m548 429c-16.8 6.22-26.6 33.7-49.4 36.4-37.6 14-88-9.81-90.1-52.8-4.3-31.4 25.1-63.8 57.5-55.5 28.3 3.41 42.1 43.5 19 61.6-28.7 28.5-62.5-35.5-19.8-33.3 25.2 9.13-11.6 33.8-5.11 8.29-23-13.6-8.28 39.6 13.9 21.5 34.6-22-19.9-63.8-36.8-28.2-14.5 23.4 9.89 54 36 48.2 36.6-3.95 46.1-56.4 18.6-77.6-11.8-16.2-51.8-11.9-53.4-11.5 10.2-3.74 36.4-39.2 13.2-31.7-22.1 43-89 52-120 13.4-25.7-29.2-9.95-86.1 31.8-88.4 27.2-4.25 53.6 25.1 41.1 51.1-10.1 35.1-69.9 8.9-42.8-19.4 19-18.4 32.9 26.2 9.05 15.8 5.02-23.4-22.8-9.5-8.8 6.89 24.7 26 51.2-28.2 17.4-35.9-27.1-9.6-46.6 27.9-28.9 47.5 18.8 24.9 62.4 12 66.9-18.3 8.22-16.7-12-45.5-13-46.5 38.9 16.1 88.8-1.66 107-39.9-12.5-17.5-23.9 26.7-42.2 26.8-36.7 20-92.6 1.29-99.4-43-7.91-32.8 22-70.2 56.8-61.2 28.3 3.39 42.1 43.5 19 61.6-28.7 28.5-62.5-35.5-19.8-33.3 25.2 9.12-11.6 33.8-5.1 8.3-23-13.6-8.27 39.5 13.9 21.5 34.6-22-19.9-63.8-36.8-28.2-14.5 23.4 9.89 54 36 48.2 36.6-3.94 46.1-56.4 18.6-77.6-29.7-26.6-81.5-9.28-91.2 28.8-12.1 20.5 11.3 46.4-10.3 61.2-31.7 33.7-97.9 27.4-115-18.1-14.1-31.3 8.03-75.5 44.8-73.6 27.4-1.73 49.9 30.3 35 54.5-15.4 35.8-73-5-35.8-25.3 26.3-9.89 15.3 36.6 2.66 14.7 1.44-25.6-24.2 8.29-2.89 14.9 34.1 16.1 38.7-47.7 2.43-41.2-29.3 1.61-33.8 45.3-9.18 57.1 25.6 15.8 60.2-7.22 58.6-36.5 2.09-38.7-46.1-61.4-77.7-43.2-29.2 14.5-40.1 53-28.4 82.3-23.9 43.2-94.2 49.4-122 6.61-21.3-29.9-4.27-81.7 35.1-83.8 27.2-4.24 53.7 25.2 41 51.2-12 39.9-76.2 0.28-37.4-22.1 26.3-9.88 15.3 36.6 2.65 14.7 1.47-25.6-24.2 8.29-2.88 14.9 34.1 16.1 38.7-47.7 2.43-41.2-29.3 1.59-33.9 45.3-9.18 57 25.6 15.9 60.2-7.22 58.6-36.5 2.1-38.5-45.8-61.2-77.4-43.3-44 21.5-43.2 90.4-2.77 115-34.2-15.3-75.2 11.2-79.3 47.4-8.14 40.5 25.6 80.4 66 83.3 11.8 6.12 48.5-9.1 42.1-3.44-33.1 29.7-24 89.4 15.1 110 36.5 21.7 87.8 10.5 112-24.4 29.2 48.1 107 45.8 137 0 28.8 47.4 105 46 136 1.69 2.64-4.75 11.8-12.5 4.41-17.5zm-212-81.4c-12-10.4-54.4 10.1-27.7-7.96 13.2-22.3 13.3 0.57 27.7 7.96zm32.1-136c4.03 11.6 32.7 26.7 6.65 17.5-13.1-3.81-38.6 9.44-16.5-6.19 3.6-3.48 6.9-7.28 9.84-11.3zm-35.7 28.5c-22.9 17.4-30.1 50.6-19.8 76.9-23.9 43.2-94.2 49.4-122 6.6-21.3-29.9-4.28-81.7 35.1-83.8 27.2-4.24 53.6 25.1 41.1 51.1-11.9 39.9-76.3 0.45-37.5-22 26.3-9.88 15.3 36.6 2.66 14.6 1.45-25.6-24.2 8.29-2.89 14.9 34.1 16.1 38.7-47.7 2.43-41.2-29.3 1.62-33.8 45.3-9.18 57.1 25.6 15.8 60.2-7.22 58.6-36.5 2.38-13.7-11.6-32.6-14.3-36.7 20.8 8.27 44.8 7.76 65.3-1.11zm-102-28.5c4.03 11.6 32.7 26.7 6.64 17.5-13.1-3.81-38.6 9.43-16.5-6.2 3.6-3.47 6.9-7.27 9.84-11.3zm-156 132c-38.7-18.8-40.6-84.3 1.1-100 25.5-11.8 61.6 8.27 57.1 38.2 1.26 34.5-60.1 35.4-51.3-0.91 7.9-31.8 47.3 9.01 16.3 8.66 1.5-12.1-12.7-23.5-13.8-3.34 5.59 33 54.7 5.06 32.5-19.1-20.1-25-58.3 5.29-45 31.7 11.1 29.8 58.6 26.8 68.7-2.49 14.6-17.8-10.2-56.2-10.3-54.4 20.8 8.25 44.8 7.76 65.3-1.11-22.9 17.4-30.1 50.6-19.8 76.9-19.7 33.9-67.1 46.3-101 26.2zm107-14.6c5.67 12.2 28.9 24.1 2.73 16.7-14.1-1.29-33 9.62-12.8-5.17 3.68-3.52 7.05-7.38 10-11.5zm87.5 45.6c-13.2 18.7-7.49 43.4-6.48 62.6-25.3 40.6-92.9 44.9-120 3.45-21.3-29.9-4.27-81.7 35.1-83.8 27.2-4.25 53.7 25.1 41 51.2-12 39.9-76.2 0.28-37.4-22.1 26.3-9.88 15.3 36.6 2.65 14.6 1.46-25.6-24.2 8.29-2.88 14.9 34.1 16.1 38.7-47.7 2.42-41.2-29.3 1.6-33.9 45.3-9.18 57 25.6 15.9 60.2-7.21 58.6-36.5 7.45-17.4-31.9-45.6-0.38-31.9 13.7 7.4 52.1-7.34 47.3-2.47-4.48 4.06-8.28 8.85-11.2 14.1zm137 0c-13.2 18.7-7.47 43.4-6.48 62.6-25.3 40.6-92.9 44.9-120 3.45-21.3-29.9-4.28-81.7 35.1-83.8 27.2-4.24 53.6 25.1 41.1 51.2-11.9 39.9-76.3 0.44-37.5-22 26.4-9.87 15.3 36.6 2.66 14.6 1.45-25.6-24.2 8.32-2.88 14.9 34.1 16.1 38.7-47.7 2.42-41.2-29.3 1.6-33.8 45.3-9.18 57.1 25.6 15.8 60.2-7.23 58.6-36.5 7.46-17.4-31.9-45.6-0.39-31.9 16.2 10.8 68.9-18.4 39.3 6.49z" fill="#005186" stroke="#005186" stroke-linecap="round" stroke-linejoin="round" stroke-width="4"/><path d="m546 423c-16.8 6.22-26.6 33.7-49.4 36.4-37.6 14-88-9.81-90.1-52.8-4.3-31.4 25.1-63.8 57.5-55.5 28.3 3.41 42.1 43.5 19 61.6-28.7 28.5-62.5-35.5-19.8-33.3 25.2 9.13-11.6 33.8-5.11 8.29-23-13.6-8.28 39.6 13.9 21.5 34.6-22-19.9-63.8-36.8-28.2-14.5 23.4 9.89 54 36 48.2 36.6-3.95 46.1-56.4 18.6-77.6-11.8-16.2-51.8-11.9-53.4-11.5 10.2-3.74 36.4-39.2 13.2-31.7-22.1 43-89 52-120 13.4-25.7-29.2-9.95-86.1 31.8-88.4 27.2-4.25 53.6 25.1 41.1 51.1-10.1 35.1-69.9 8.9-42.8-19.4 19-18.4 32.9 26.2 9.05 15.8 5.02-23.4-22.8-9.5-8.8 6.89 24.7 26 51.2-28.2 17.4-35.9-27.1-9.6-46.6 27.9-28.9 47.5 18.8 24.9 62.4 12 66.9-18.3 8.22-16.7-12-45.5-13-46.5 38.9 16.1 88.8-1.66 107-39.9-12.5-17.5-23.9 26.7-42.2 26.8-36.7 20-92.6 1.29-99.4-43-7.91-32.8 22-70.2 56.8-61.2 28.3 3.39 42.1 43.5 19 61.6-28.7 28.5-62.5-35.5-19.8-33.3 25.2 9.12-11.6 33.8-5.1 8.3-23-13.6-8.27 39.5 13.9 21.5 34.6-22-19.9-63.8-36.8-28.2-14.5 23.4 9.89 54 36 48.2 36.6-3.94 46.1-56.4 18.6-77.6-29.7-26.6-81.5-9.28-91.2 28.8-12.1 20.5 11.3 46.4-10.3 61.2-31.7 33.7-97.9 27.4-115-18.1-14.1-31.3 8.03-75.5 44.8-73.6 27.4-1.73 49.9 30.3 35 54.5-15.4 35.8-73-5-35.8-25.3 26.3-9.89 15.3 36.6 2.66 14.7 1.44-25.6-24.2 8.29-2.89 14.9 34.1 16.1 38.7-47.7 2.43-41.2-29.3 1.61-33.8 45.3-9.18 57.1 25.6 15.8 60.2-7.22 58.6-36.5 2.09-38.7-46.1-61.4-77.7-43.2-29.2 14.5-40.1 53-28.4 82.3-23.9 43.2-94.2 49.4-122 6.61-21.3-29.9-4.27-81.7 35.1-83.8 27.2-4.24 53.7 25.2 41 51.2-12 39.9-76.2 0.28-37.4-22.1 26.3-9.88 15.3 36.6 2.65 14.7 1.47-25.6-24.2 8.29-2.88 14.9 34.1 16.1 38.7-47.7 2.43-41.2-29.3 1.59-33.9 45.3-9.18 57 25.6 15.9 60.2-7.22 58.6-36.5 2.1-38.5-45.8-61.2-77.4-43.3-44 21.5-43.2 90.4-2.77 115-34.2-15.3-75.2 11.2-79.3 47.4-8.14 40.5 25.6 80.4 66 83.3 11.9 6.12 48.5-9.1 42.1-3.44-33.1 29.7-24 89.4 15.1 110 36.5 21.7 87.8 10.5 112-24.4 29.2 48.1 107 45.8 137 0 28.8 47.4 105 46 136 1.69 2.64-4.75 11.8-12.5 4.41-17.5zm-212-81.4c-12-10.4-54.4 10.1-27.7-7.96 13.2-22.3 13.3 0.57 27.7 7.96zm32.1-136c4.03 11.6 32.7 26.7 6.65 17.5-13.1-3.81-38.6 9.44-16.5-6.19 3.6-3.48 6.9-7.28 9.84-11.3zm-35.7 28.5c-22.9 17.4-30.1 50.6-19.8 76.9-23.9 43.2-94.2 49.4-122 6.6-21.3-29.9-4.28-81.7 35.1-83.8 27.2-4.24 53.6 25.1 41.1 51.1-11.9 39.9-76.3 0.45-37.5-22 26.3-9.88 15.3 36.6 2.66 14.6 1.45-25.6-24.2 8.29-2.89 14.9 34.1 16.1 38.7-47.7 2.43-41.2-29.3 1.62-33.8 45.3-9.18 57.1 25.6 15.8 60.2-7.22 58.6-36.5 2.38-13.7-11.6-32.6-14.3-36.7 20.8 8.27 44.8 7.76 65.3-1.11zm-102-28.5c4.03 11.6 32.7 26.7 6.64 17.5-13.1-3.81-38.6 9.43-16.5-6.2 3.6-3.47 6.9-7.27 9.84-11.3zm-156 132c-38.7-18.8-40.6-84.3 1.1-100 25.5-11.8 61.6 8.27 57.1 38.2 1.26 34.5-60.1 35.4-51.3-0.91 7.9-31.8 47.3 9.01 16.3 8.66 1.5-12.1-12.7-23.5-13.8-3.34 5.59 33 54.7 5.06 32.5-19.1-20.1-25-58.3 5.29-45 31.7 11.1 29.8 58.6 26.8 68.7-2.49 14.6-17.8-10.2-56.2-10.3-54.4 20.8 8.25 44.8 7.76 65.3-1.11-22.9 17.4-30.1 50.6-19.8 76.9-19.7 33.9-67.1 46.3-101 26.2zm107-14.6c5.67 12.2 28.9 24.1 2.73 16.7-14.1-1.29-33 9.62-12.8-5.17 3.68-3.52 7.05-7.38 10-11.5zm87.5 45.6c-13.2 18.7-7.49 43.4-6.48 62.6-25.3 40.6-92.9 44.9-120 3.45-21.3-29.9-4.27-81.7 35.1-83.8 27.2-4.25 53.7 25.1 41 51.2-12 39.9-76.2 0.28-37.4-22.1 26.3-9.88 15.3 36.6 2.65 14.6 1.46-25.6-24.2 8.29-2.88 14.9 34.1 16.1 38.7-47.7 2.42-41.2-29.3 1.6-33.9 45.3-9.18 57 25.6 15.9 60.2-7.21 58.6-36.5 7.45-17.4-31.9-45.6-0.38-31.9 13.7 7.4 52.1-7.34 47.3-2.47-4.48 4.06-8.28 8.85-11.2 14.1zm137 0c-13.2 18.7-7.47 43.4-6.48 62.6-25.3 40.6-92.9 44.9-120 3.45-21.3-29.9-4.28-81.7 35.1-83.8 27.2-4.24 53.6 25.1 41.1 51.2-11.9 39.9-76.3 0.44-37.5-22 26.4-9.87 15.3 36.6 2.66 14.6 1.45-25.6-24.2 8.32-2.88 14.9 34.1 16.1 38.7-47.7 2.42-41.2-29.3 1.6-33.8 45.3-9.18 57.1 25.6 15.8 60.2-7.23 58.6-36.5 7.46-17.4-31.9-45.6-0.39-31.9 16.2 10.8 68.9-18.4 39.3 6.49z" fill="#0073be"/></svg>
