<svg height="580" width="580" xmlns="http://www.w3.org/2000/svg"><path d="m216.36841 345.52197c-21.11243-36.78329-42.21692-73.57113-63.32935-110.35442-42.45474 0-84.909481 0-127.364221 0 13.405047 14.33486 60.396267 19.6125 45.117729 41.72563-10.3795 23.15056-37.482089 46.03415-25.826829 73.35725 16.490821 29.96114 33.987095 59.4547 50.860719 89.2584 19.370582-43.2996 46.787942-82.38474 69.477722-123.95889 17.02295 9.98806 34.04128 19.98397 51.06423 29.97203zm-94.65127 88.54507c-18.79874 26.94927 11.60505 64.12133 41.95734 56.50602h116.04437c0-33.82135 0-67.6427 0-101.46405-44.03701 0-88.07402 0-132.11103 0-8.57887 15.01557-17.32888 29.93266-25.89068 44.95803zm169.58133-251.33471h126.67978c21.34442-36.77273 42.68096-73.55004 64.02539-110.322778-19.11391 4.492412-47.0781 42.664638-58.63409 18.303938-15.19478-20.010151-20.80647-54.940087-49.71284-58.898558-34.44211-.49607-68.97602-.155583-103.47154-.267309 27.29279 38.359287 47.69222 81.074307 72.18807 121.212687-16.90053 10.20143-34.05392 19.97461-51.07477 29.97202zm-61.97945-145.738699c-32.8664-.28762-40.76744 38.734171-56.64047 60.269386-8.68657 22.961813-39.55544 51.782983-33.91235 70.963033 27.52638 12.86127 59.27135 40.48546 84.48035 43.64413 21.48837-36.85574 42.79348-73.81816 63.96003-110.8596-16.45331-22.548943-23.56643-63.963117-57.88756-64.016949zm162.80019 350.733839c0-19.7423 0-39.48461 0-59.22691-21.12537 36.7769-42.23824 73.56097-63.37153 110.33332 21.13479 36.54295 42.24464 73.10032 63.37153 109.64783 0-19.74934 0-39.49867 0-59.24801 27.05195-2.75416 57.15029 6.23103 82.09717-6.0746 17.73696-17.01288 25.31625-41.71279 39.08613-61.78687 6.86962-15.84512 34.85596-44.5744.4828-33.20941-40.53021.38889-81.11372-.4537-121.6661-.43535zm93.98686-186.60274c-26.62566 18.60517-68.61759 32.93506-85.79644 54.00821 21.53842 37.17852 43.09596 74.34597 64.6726 111.50232 25.77241-2.64355 56.26951 7.30086 78.12234-10.25967 22.5052-22.26963 4.38885-51.96938-9.69923-72.94942-15.76617-27.43395-31.53422-54.86683-47.29927-82.30144z" style="stroke-width:47;stroke-linecap:round;fill:#fff;stroke:#fff;stroke-linejoin:round;opacity:.8"/><path d="m216.36841 345.52197c-21.11243-36.78329-42.21692-73.57113-63.32935-110.35442-42.45474 0-84.909481 0-127.364221 0 13.405047 14.33486 60.396267 19.6125 45.117729 41.72563-10.3795 23.15056-37.482089 46.03415-25.826829 73.35725 16.490821 29.96114 33.987095 59.4547 50.860719 89.2584 19.370582-43.2996 46.787942-82.38474 69.477722-123.95889 17.02295 9.98806 34.04128 19.98397 51.06423 29.97203zm-94.65127 88.54507c-18.79874 26.94927 11.60505 64.12133 41.95734 56.50602h116.04437c0-33.82135 0-67.6427 0-101.46405-44.03701 0-88.07402 0-132.11103 0-8.57887 15.01557-17.32888 29.93266-25.89068 44.95803zm169.58133-251.33471h126.67978c21.34442-36.77273 42.68096-73.55004 64.02539-110.322778-19.11391 4.492412-47.0781 42.664638-58.63409 18.303938-15.19478-20.010151-20.80647-54.940087-49.71284-58.898558-34.44211-.49607-68.97602-.155583-103.47154-.267309 27.29279 38.359287 47.69222 81.074307 72.18807 121.212687-16.90053 10.20143-34.05392 19.97461-51.07477 29.97202zm-61.97945-145.738699c-32.8664-.28762-40.76744 38.734171-56.64047 60.269386-8.68657 22.961813-39.55544 51.782983-33.91235 70.963033 27.52638 12.86127 59.27135 40.48546 84.48035 43.64413 21.48837-36.85574 42.79348-73.81816 63.96003-110.8596-16.45331-22.548943-23.56643-63.963117-57.88756-64.016949zm162.80019 350.733839c0-19.7423 0-39.48461 0-59.22691-21.12537 36.7769-42.23824 73.56097-63.37153 110.33332 21.13479 36.54295 42.24464 73.10032 63.37153 109.64783 0-19.74934 0-39.49867 0-59.24801 27.05195-2.75416 57.15029 6.23103 82.09717-6.0746 17.73696-17.01288 25.31625-41.71279 39.08613-61.78687 6.86962-15.84512 34.85596-44.5744.4828-33.20941-40.53021.38889-81.11372-.4537-121.6661-.43535zm93.98686-186.60274c-26.62566 18.60517-68.61759 32.93506-85.79644 54.00821 21.53842 37.17852 43.09596 74.34597 64.6726 111.50232 25.77241-2.64355 56.26951 7.30086 78.12234-10.25967 22.5052-22.26963 4.38885-51.96938-9.69923-72.94942-15.76617-27.43395-31.53422-54.86683-47.29927-82.30144z" fill="#734a08" stroke-width="1.05461"/></svg>