<svg height="580" width="580" xmlns="http://www.w3.org/2000/svg"><g fill="#734a08" transform="matrix(36.078 0 0 36.078 -1.4124 -1.591)"><g opacity=".8" stroke="#fff" stroke-linecap="round" stroke-linejoin="round" stroke-width="1.109"><path d="m12.98 1.3679c-.647-.2119-1.138.5671-1.59.9447-.699.7522-1.385 1.5295-1.9732 2.3692-.4659.6685.7962 1.2597-.0239 1.6905-1.9791 2.1211-4.057 4.1527-5.9497 6.3527-.3755.525-1.0702 1.177-.7228 1.876.3607.758 1.2222.351 1.6289-.125 1.6295-1.602 3.0217-3.424 4.5076-5.1559.6326-.755 1.2661-1.5093 1.9011-2.2621.444.6426 1.392.5975 1.802-.0559.874-.8957 1.812-1.78 2.386-2.9073.36-.6103-.385-.7982-.669-.2821-.677.6373-1.152 1.4825-1.917 2.0215-.658-.0127-.159-1.2574.157-1.5771.327-.6746 1.612-1.0657 1.4-1.8449-.63.041-.993.7285-1.432 1.1244-.426.438-.801.9607-1.35 1.2527-.753-.087.175-1.0245.437-1.3307.5-.6151 1.18-1.1346 1.458-1.8948.01-.068-.001-.1442-.05-.1959z"/><path d="m5.6963 5.2968c1.9676 2.3916 4.0701 4.67 6.0067 7.0862.415.601.998 1.21.998 1.984-.163.907-1.267.687-1.686.106-1.4358-1.461-2.5882-3.169-3.8741-4.758-.8406-1.0752-1.6912-2.1427-2.5556-3.1989-.5547.5394-1.4941.5978-2.0585.0422-1.0137-.9577-1.4473-2.4247-1.4129-3.7922-.0042-.7261.4503-1.5089 1.2251-1.5973 1.3489-.1666 2.7644.4857 3.5941 1.5468.6313.793.4628 1.8889-.2368 2.5812z"/></g><g><path d="m12.98 1.3679c-.647-.2119-1.138.5671-1.59.9447-.699.7522-1.385 1.5295-1.9732 2.3692-.4659.6685.7962 1.2597-.0239 1.6905-1.9791 2.1211-4.057 4.1527-5.9497 6.3527-.3755.525-1.0702 1.177-.7228 1.876.3607.758 1.2222.351 1.6289-.125 1.6295-1.602 3.0217-3.424 4.5076-5.1559.6326-.755 1.2661-1.5093 1.9011-2.2621.444.6426 1.392.5975 1.802-.0559.874-.8957 1.812-1.78 2.386-2.9073.36-.6103-.385-.7982-.669-.2821-.677.6373-1.152 1.4825-1.917 2.0215-.658-.0127-.159-1.2574.157-1.5771.327-.6746 1.612-1.0657 1.4-1.8449-.63.041-.993.7285-1.432 1.1244-.426.438-.801.9607-1.35 1.2527-.753-.087.175-1.0245.437-1.3307.5-.6151 1.18-1.1346 1.458-1.8948.01-.068-.001-.1442-.05-.1959z"/><path d="m5.6963 5.2968c1.9676 2.3916 4.0701 4.67 6.0067 7.0862.415.601.998 1.21.998 1.984-.163.907-1.267.687-1.686.106-1.4358-1.461-2.5882-3.169-3.8741-4.758-.8406-1.0752-1.6912-2.1427-2.5556-3.1989-.5547.5394-1.4941.5978-2.0585.0422-1.0137-.9577-1.4473-2.4247-1.4129-3.7922-.0042-.7261.4503-1.5089 1.2251-1.5973 1.3489-.1666 2.7644.4857 3.5941 1.5468.6313.793.4628 1.8889-.2368 2.5812z"/></g></g></svg>