<svg height="580" width="580" xmlns="http://www.w3.org/2000/svg"><path d="m338.52 107.19c-29.34 65.8-58.73 131.58-88.26 197.3-16.96-23.61-34.04-47.15-51.22-70.6-51.06 86.09-101.592 172.48-152.995 258.36 163.095-.15 326.185-.39 489.275-.51-62.81-134.06-125.98-267.95-189.08-401.874-2.57 5.776-5.15 11.544-7.72 17.324z" opacity=".8" stroke="#fff" stroke-linecap="round" stroke-linejoin="round" stroke-width="51"/><path d="m343.27 95.316c-31.08 66.034-62.32 131.994-93.62 197.924-15.25-21.02-30.64-41.94-46.05-62.84-54.29 87.06-108.213 174.35-162.942 261.14 163.872 1.32 327.752 2.71 491.622 4.07-62.94-133.46-125.98-266.87-189.01-400.294z" fill="#bebbb7" stroke-width="5"/><path d="m345.27 97.617c-31.08 66.033-62.32 131.993-93.62 197.923-15.25-21.02-30.64-41.94-46.05-62.84-54.29 87.06-108.214 174.35-162.942 261.14 163.872 1.32 327.752 2.71 491.622 4.07-62.94-133.46-125.98-266.87-189.01-400.293zm0 172.353c15.18 4.73 30.91 44.7 42.35 12.72 10.36-14.23 21.37 2.99 24.39 13.39 25.72 54.98 52.32 109.62 77.49 164.82.13 16.49-17.93 11.45-28.52 12.05-118.75-1-237.5-2.01-356.25-3.02-16.748-2.4-7.418-19.74-.84-27.85 22.03-35.36 44.06-70.73 66.09-106.09 16.89-11.84 35.85 22.82 55.54 2.45 10.98-16.85 26.59.33 31.71 2.28 9.14-18.75 17.43-37.98 27.1-56.44 16.3-13.68 26.48 28.62 42.45 2.57 6.71-4.88 9.18-16.17 18.49-16.88z" fill="#2c2c2c" stroke-width="10"/><path d="m338.52 107.19c-29.34 65.8-58.73 131.58-88.26 197.3-16.96-23.61-34.04-47.15-51.22-70.6-51.06 86.09-101.592 172.48-152.995 258.36 163.095-.15 326.185-.39 489.275-.51-62.81-134.06-125.98-267.95-189.08-401.874-2.57 5.776-5.15 11.544-7.72 17.324z" fill="none" stroke="#2c2c2c" stroke-width="11.244"/></svg>