<?xml version="1.0" encoding="UTF-8"?>
<svg width="580" height="580" version="1.0" xmlns="http://www.w3.org/2000/svg"><path d="m510 242h-82.5l-38-85.9c-0.459-1.43-1.29-3.27-1.77-4.11-0.144-0.268-0.239-0.411-0.239-0.536l-0.669-1.57-0.144 0.134c-7.06-14.9-21.8-25.6-39.2-26.2-3.41-0.201-6.49 0.134-9.57 0.784l-207 48.7c-12.5 2.96-20.4 15.3-17.4 28 2.82 12.6 15.1 20.3 27.7 17.5l138-32.9-105 174h-99.6c1.3-3.83 0.995-8.17-1.32-11.8-4.13-6.61-12.7-8.57-19.2-4.46-6.6 4.06-8.55 12.6-4.5 19.2 3.15 4.96 8.89 7.25 14.4 6.24l2.98 11.7c-1.13 0.354-2.24 0.803-3.31 1.45-6.42 4.06-8.44 12.6-4.31 19.1 3.14 5.1 8.97 7.37 14.4 6.28l2.96 11.6c-1.15 0.354-2.28 0.793-3.34 1.46-6.68 4.06-8.56 12.6-4.51 19.2 3.16 5.04 9.15 7.3 14.7 6.18l2.97 11.7c-1.2 0.334-2.36 0.775-3.46 1.43-6.6 4.19-8.57 12.8-4.52 19.2 4.07 6.61 12.6 8.57 19.3 4.51 5.24-3.31 7.48-9.68 5.89-15.5 0.382-0.191 0.803-0.199 1.18-0.439 3.09-1.77 5.04-4.91 5.64-8.12l14.9-45.4 0.526-1.82s68.8-0.258 69.4-0.258c13.8 0 25.7-3.81 32.7-15.4l31.9-52.8 71 70.7-27 106c-2.54-0.729-5.31-0.775-8 0.037-7.41 2.42-11.5 10.3-9.18 17.6 2.5 7.45 10.3 11.4 17.6 9.16 6.33-2.08 10.3-8.23 9.73-14.6h11.9c-0.172 1.83 0.01 3.72 0.612 5.57 2.36 7.45 10.3 11.5 17.5 9.17 6.38-2.12 10.3-8.33 9.62-14.7h12.1c-0.21 1.89-0.057 3.87 0.574 5.83 2.35 7.34 10.2 11.4 17.6 9.04 6.39-1.96 10.3-8.3 9.5-14.9h11.6c0.211 0 0.383-0.115 0.593-0.125-0.268 2.01-0.162 4.1 0.526 6.15 2.42 7.27 10.3 11.3 17.5 8.98 7.33-2.36 11.4-10.1 9.03-17.4-2.12-6.74-8.78-10.6-15.5-9.61 0-0.01 0.01-0.02 0.01-0.029 0-5.24-3.28-8.91-7.33-11.1l-45-24.9 21.6-85.2s5.37-18-11.7-34.6l-58.1-58.2s31.1-51.1 51-83.8l23.2 52.5c1.82 4.2 4.92 7.6 8.57 9.95 0 0.125 0.277 0.125 0.277 0.335 3.66 2.33 8.05 3.78 12.8 3.78h97c13 0.144 23.4-10.5 23.5-23.2 0.127-13-10.3-23.2-23-23.4zm-65.8-162c0-26-21.3-47.2-47.4-47.2-26 0-47.1 21.2-47.1 47.2 0 26.2 21.1 47.3 47.1 47.3 26.1 0 47.4-21.1 47.4-47.3z" color="#256f25" color-rendering="auto" fill="none" image-rendering="auto" opacity=".64" shape-rendering="auto" solid-color="#256f25" stroke="#fff" stroke-linecap="round" stroke-linejoin="round" stroke-width="50" style="isolation:auto;mix-blend-mode:normal;paint-order:stroke fill markers"/><path d="m510 242h-82.5l-38-85.9c-0.459-1.43-1.29-3.27-1.77-4.11-0.144-0.268-0.239-0.411-0.239-0.536l-0.669-1.57-0.144 0.134c-7.06-14.9-21.8-25.6-39.2-26.2-3.41-0.201-6.49 0.134-9.57 0.784l-207 48.7c-12.5 2.96-20.4 15.3-17.4 28 2.82 12.6 15.1 20.3 27.7 17.5l138-32.9-105 174h-99.6c1.3-3.83 0.995-8.17-1.32-11.8-4.13-6.61-12.7-8.57-19.2-4.46-6.6 4.06-8.55 12.6-4.5 19.2 3.15 4.96 8.89 7.25 14.4 6.24l2.98 11.7c-1.13 0.354-2.24 0.803-3.31 1.45-6.42 4.06-8.44 12.6-4.31 19.1 3.14 5.1 8.97 7.37 14.4 6.28l2.96 11.6c-1.15 0.354-2.28 0.793-3.34 1.46-6.68 4.06-8.56 12.6-4.51 19.2 3.16 5.04 9.15 7.3 14.7 6.18l2.97 11.7c-1.2 0.334-2.36 0.775-3.46 1.43-6.6 4.19-8.57 12.8-4.52 19.2 4.07 6.61 12.6 8.57 19.3 4.51 5.24-3.31 7.48-9.68 5.89-15.5 0.382-0.191 0.803-0.199 1.18-0.439 3.09-1.77 5.04-4.91 5.64-8.12l14.9-45.4 0.526-1.82s68.8-0.258 69.4-0.258c13.8 0 25.7-3.81 32.7-15.4l31.9-52.8 71 70.7-27 106c-2.54-0.729-5.31-0.775-8 0.037-7.41 2.42-11.5 10.3-9.18 17.6 2.5 7.45 10.3 11.4 17.6 9.16 6.33-2.08 10.3-8.23 9.73-14.6h11.9c-0.172 1.83 0.01 3.72 0.612 5.57 2.36 7.45 10.3 11.5 17.5 9.17 6.38-2.12 10.3-8.33 9.62-14.7h12.1c-0.21 1.89-0.057 3.87 0.574 5.83 2.35 7.34 10.2 11.4 17.6 9.04 6.39-1.96 10.3-8.3 9.5-14.9h11.6c0.211 0 0.383-0.115 0.593-0.125-0.268 2.01-0.162 4.1 0.526 6.15 2.42 7.27 10.3 11.3 17.5 8.98 7.33-2.36 11.4-10.1 9.03-17.4-2.12-6.74-8.78-10.6-15.5-9.61 0-0.01 0.01-0.02 0.01-0.029 0-5.24-3.28-8.91-7.33-11.1l-45-24.9 21.6-85.2s5.37-18-11.7-34.6l-58.1-58.2s31.1-51.1 51-83.8l23.2 52.5c1.82 4.2 4.92 7.6 8.57 9.95 0 0.125 0.277 0.125 0.277 0.335 3.66 2.33 8.05 3.78 12.8 3.78h97c13 0.144 23.4-10.5 23.5-23.2 0.127-13-10.3-23.2-23-23.4zm-65.8-162c0-26-21.3-47.2-47.4-47.2-26 0-47.1 21.2-47.1 47.2 0 26.2 21.1 47.3 47.1 47.3 26.1 0 47.4-21.1 47.4-47.3z" fill="#2f922e"/></svg>
