<svg height="580" width="580" xmlns="http://www.w3.org/2000/svg"><path d="m13.914 499.64h551.226m-531.889-49.6h490.439m-470.729-49.38c135.769 0 271.569 0 407.349-.12" fill="none" opacity=".8" stroke="#fff" stroke-linejoin="round" stroke-width="67.47"/><g fill="#734a08" fill-rule="evenodd"><path d="m58.253 91.256c104.177 9.134 208.367 18.254 312.527 27.384m-267.25-20.148v306.018m88.97-306.018v306.018m64.27-306.018c8.26 102.008 16.51 204.028 24.76 306.018m-9.79-196.15 123.51 196.15" opacity=".8" stroke="#fff" stroke-linecap="round" stroke-linejoin="round" stroke-width="95.66"/><path d="m13.914 499.64h551.226m-531.889-49.6h490.439m-470.729-49.38c135.769 0 271.569 0 407.349-.12" stroke="#734a08" stroke-width="22.07"/><path d="m58.253 91.256c104.177 9.134 208.367 18.254 312.527 27.384m-267.25-20.148v306.018m88.97-306.018v306.018m64.27-306.018c8.26 102.008 16.51 204.028 24.76 306.018m-9.79-196.15 123.51 196.15" stroke="#734a08" stroke-width="46.946"/></g></svg>