<svg height="580" width="580" xmlns="http://www.w3.org/2000/svg"><g stroke-linecap="round"><path d="m87.017771 538.64233 202.000309-497.60488 205.28488 495.14713 2.46909-1.64228" fill="none" opacity=".8" stroke="#fff" stroke-linejoin="round" stroke-width="79.2824"/><path d="m43.537017 136.00082h495.798363v310.32278c-165.26989 0-330.52847 0-495.798363 0 0-103.44093 0-206.88185 0-310.32278z" fill="none" opacity=".8" stroke="#fff" stroke-linejoin="round" stroke-width="67.9564"/><path d="m84.616645 542.47054c16.932455-40.98901 33.864915-81.96671 50.786065-122.95573 25.39303-14.6446 50.79738-29.28919 76.19041-43.93379.61161-55.54301 1.23454-111.09735 1.85748-166.64036 26.79746-56.56236 49.78937-114.800966 74.48018-172.295456m206.89318 505.825336c-13.80646-32.15469-25.88005-65.19281-40.75117-96.79253-40.0263-64.89833-80.0526-129.79667-120.07891-194.695 1.14394-34.75969 4.0434-69.82518 4.10003-104.38099-15.52803-36.65115-31.05606-73.303414-46.5841-109.956816" fill="none" stroke="#fff" stroke-width="34.8695"/><path d="m84.616645 542.47054c16.932455-40.98901 33.864915-81.96671 50.786065-122.95573 25.39303-14.6446 50.79738-29.28919 76.19041-43.93379.61161-55.54301 1.23454-111.09735 1.85748-166.64036 26.79746-56.56236 49.78937-114.800966 74.48018-172.295456m206.89318 505.825336c-13.80646-32.15469-25.88005-65.19281-40.75117-96.79253-40.0263-64.89833-80.0526-129.79667-120.07891-194.695 1.14394-34.75969 4.0434-69.82518 4.10003-104.38099-15.52803-36.65115-31.05606-73.303414-46.5841-109.956816" fill="none" stroke="#6c4dda" stroke-width="34.8695"/><path d="m43.525691 136.00082v310.3341h495.798369c0-103.44092 0-206.89317 0-310.3341-165.2699 0-330.52847 0-495.798369 0zm79.259769 29.31185c26.06128-1.52902 63.10883 3.2619 66.40471 35.7677 3.03538 26.88808-2.32184 54.56897 3.66965 81.02665 8.12078 12.51529-14.81449 4.66634-22.49356 6.84095-14.15758 4.85888-23.09384-7.35062-25.26845-12.69652-20.97586 18.59739-58.4538 22.47091-79.864587 2.82019-18.00844-18.17833-6.171572-52.22448 19.304139-55.52036 16.660628-9.06085 65.996968-1.78951 56.698268-27.26183-20.69272-15.99241-30.52375 13.47802-47.127744 9.83102-11.28076-1.18924-22.559252-2.3898-33.837745-3.57904 3.677573-30.96545 36.612629-37.98761 62.515319-37.22876zm318.21706 0c28.23586-1.89146 59.9715 11.67717 66.93702 41.55532-14.54266 1.93676-29.08532 3.87351-43.61666 5.81026-9.17411-30.65964-54.99936-10.88434-47.69405 17.64601-5.36855 32.82294 43.35616 40.56996 51.13716 11.54125 14.18024 1.61964 28.36046 3.22793 42.5407 4.84757-6.19536 29.71958-36.93429 47.46753-65.99697 45.07772-29.67428 2.21991-64.42264-11.28075-71.73927-43.14096-8.27935-30.86352 4.50777-68.93042 37.20611-79.05593 10.0349-3.32985 20.70405-4.24727 31.22596-4.28124zm-296.24449 66.24613c-16.52472 1.91412-61.636425 17.94049-30.13865 34.18206 20.91924 2.79754 33.34393-14.83713 30.13865-34.18206zm88.11676 23.7281h46.77665v57.81956c24.87203-27.83946 76.86998-13.52333 83.50705 23.54687 7.81499 31.28259.79282 75.69208-34.43122 86.37255-19.19768 12.62857-47.95456-15.60731-52.48498-14.24818 3.22793 12.68519-3.45445 15.46008-14.99571 13.36475-9.45726 0-18.91452 0-28.37179 0 0-55.62229 0-111.23325 0-166.85555zm67.80914 77.86668c-29.13063.66824-29.30053 56.24523-.69089 57.83088 26.44636-.58895 27.04663-56.81154.69089-57.83088z" fill="#6c4dda" stroke-linejoin="round" stroke-width="22.6521"/><path d="m43.537017 136.00082h495.798363v310.32278c-165.26989 0-330.52847 0-495.798363 0 0-103.44093 0-206.88185 0-310.32278z" fill="none" stroke="#6c4dda" stroke-linejoin="round" stroke-width="23.2467"/></g><path d="m85.590687 289.33305c-24.795017-3.60169-37.798468-37.00224-19.194278-54.86345 20.326883-16.24156 48.845901-14.35012 72.506051-23.33168 20.19436-8.08681-12.92304-27.62427-25.37039-16.00373-7.96222 18.29158-27.409058 7.49785-42.668662 7.88293-22.843535 1.07598 5.179409-31.14666 16.471493-32.01877 25.007929-5.86691 52.620879-6.2633 77.515569.12459 27.66957 10.30672 24.84937 44.8512 24.97396 68.86246-8.17742 17.37418 18.58606 56.18859-11.81308 48.60013-8.42659-2.28786-23.15047 4.91551-26.86542-4.49645-7.04482-21.24768-34.9409 17.05706-55.157919 6.6937l-5.561095-.47569zm46.889893-26.77481c17.14765-6.76167 19.36757-45.00977-5.11938-26.34442-24.87203-3.126-34.000834 35.38262-4.26993 29.67429l4.68898-1.2572z" fill="#fff" stroke-width="18.7107"/><path d="m420.49102 289.03857c-31.29391-4.05473-54.46703-35.22405-48.77002-66.48398-.11327-35.32599 35.98289-60.00548 69.25887-56.08666 26.92204-2.14063 57.41181 10.74843 65.1928 38.5539-18.57473 4.33789-41.40808 12.88907-52.96066-6.31994-30.46711-12.84375-45.87055 28.57567-32.64171 50.70679 12.23215 21.34964 40.44537 9.72909 48.14709-6.80697 13.6479 1.55168 27.28449 3.10335 40.93239 4.64369-7.45254 26.71818-33.79697 44.94182-61.42124 43.49208-9.26471.23785-18.58607-.12458-27.73752-1.69891z" fill="#fff" stroke-width="18.7107"/><path d="m301.87316 422.38031c-11.03158 3.43179-28.37178-31.5884-25.76679-10.25009 4.25861 12.9117-8.16609 9.14013-16.49074 9.45727-8.87964 0-17.77059 0-26.65022 0 0-55.11263 0-110.23658 0-165.3492h45.54209c.15857 19.1637-.4304 38.36138.5663 57.51375 22.92395-23.08251 66.68786-17.13634 79.72415 13.62525 11.91503 31.09005 8.15477 76.40562-24.91733 92.7378-10.02356 3.87351-21.5535 4.90418-32.00746 2.26522zm8.7324-34.15941c15.79985-14.25951 14.35012-58.03475-13.63658-54.56897-25.25711 4.2133-24.73612 51.94132-.38508 57.49109 4.79092.44172 9.91031-.22652 14.02166-2.92212z" fill="#fff" stroke-width="18.7107"/></svg>