<svg height="580" width="580" xmlns="http://www.w3.org/2000/svg"><path d="m278 184-221.3 119c-13.7 10 3.2 20 10.3 28 9 10 21 0 30-3l28-12v218c2 14 18 9 28 10 12 0 24-3 21-16v-22h215c0 11-1 21 1 32 3.11801 8.91925 17.46894 6.27019 29.72981 6.63043 13.99396.41117 18.74845-7.72981 18.27019-20.63043v-208c17 7 33 14 50 20 10-1 15-12 23-18 9-13-9-19-18-24-69-37-138-74-208-111-5.1808-.33912-5.37116.33569-7 1zm6 107 105 12v178h-214v-178c36-4 73-9 109-12zm-86 126c-1 24 34 35 49 17 15-15 2-42-17-42.5s-32 11.5-32 25.5zm73 19c-33 5-30 39 9 38 28-1 57 0 85-1 24-4 17-39-11.5-38.5s-51.5.5-82.5 1.5zm-86 26c2 14 18 9 27 10 10-1 21 2 30-3 10-16-11-16-23-17-9.05681-.0189-12 0-19 0s-13 1-15 10zm162-426c-15 14.6-36 33-48 48-4 9 10 17 16 9 14-15 29-30 43-45.2 2-4.8 1-13.2-6-13.3-1 0-3 .4-5 1.5zm-119 11c-27 24-54 52-76 75-5 8 8 18 14 10 25-25 50-49 74-74.1 2-4.9-1-11.9-8-11.9-1 0-2 0-4 1zm-98 28c-25 24-54 51-76 74-5 9 7.9 18 14 11 25-25 51-49 75-74 2-5-2-13-8-13-1 0-3 1-5 2zm379 5c-20 16-42 37-59 54-5 9 8 18 14 11 18-18 37-35 55-53 3-5-1-13-6-13-2 0-3 0-4 1zm-91 13c-16 15-47 46-69 69-5 8 8 18 14 10 25-24 50-49 75-74 4-3 3-14-5-14-4-.1-8 2-15 9zm-158 9c-24 22-55 53-77 76-5 8 8 17 15 10 24-25 49-49 73-74 3-5-1-13-7-13-1 0-3 1-4 1zm73 13c-13 10-29 25-42 39-4 9 9 17 15 9 12-12 26-24 37-37 3-4-1-12-6-12-2 0-3 0-4 1zm178 34c-20 18-44 41-61 59-5 8 8 18 14 10 19-19 39-37 57-56 3-5 1-14-6-14-1 0-2 0-4 1zm-96 29-22 23c-6 10 5 20 14 11l22-26c4-4 1-13-5-13-2 0-5 1-9 5zm-302-3c-20 19-44 41-61.4 60-5.6 8 7.4 17 14.4 10 18.9-20 39-39 58-59 3-4-1-12-7-12-2 0-3 0-4 1z" fill="none" opacity=".8" stroke="#fff" stroke-linejoin="round" stroke-width="64"/><path d="m278 184-221.3 119c-13.7 10 3.2 20 10.3 28 9 10 21 0 30-3l28-12v218c2 14 18 9 28 10 12 0 24-3 21-16v-22h215c0 11-1 21 1 32 3.11801 8.91925 17.46894 6.27019 29.72981 6.63043 13.99396.41117 18.74845-7.72981 18.27019-20.63043v-208c17 7 33 14 50 20 10-1 15-12 23-18 9-13-9-19-18-24-69-37-138-74-208-111-5.1808-.33912-5.37116.33569-7 1zm6 107 105 12v178h-214v-178c36-4 73-9 109-12zm-86 126c-1 24 34 35 49 17 15-15 2-42-17-42.5s-32 11.5-32 25.5zm73 19c-33 5-30 39 9 38 28-1 57 0 85-1 24-4 17-39-11.5-38.5s-51.5.5-82.5 1.5zm-86 26c2 14 18 9 27 10 10-1 21 2 30-3 10-16-11-16-23-17-9.05681-.0189-12 0-19 0s-13 1-15 10zm162-426c-15 14.6-36 33-48 48-4 9 10 17 16 9 14-15 29-30 43-45.2 2-4.8 1-13.2-6-13.3-1 0-3 .4-5 1.5zm-119 11c-27 24-54 52-76 75-5 8 8 18 14 10 25-25 50-49 74-74.1 2-4.9-1-11.9-8-11.9-1 0-2 0-4 1zm-98 28c-25 24-54 51-76 74-5 9 7.9 18 14 11 25-25 51-49 75-74 2-5-2-13-8-13-1 0-3 1-5 2zm379 5c-20 16-42 37-59 54-5 9 8 18 14 11 18-18 37-35 55-53 3-5-1-13-6-13-2 0-3 0-4 1zm-91 13c-16 15-47 46-69 69-5 8 8 18 14 10 25-24 50-49 75-74 4-3 3-14-5-14-4-.1-8 2-15 9zm-158 9c-24 22-55 53-77 76-5 8 8 17 15 10 24-25 49-49 73-74 3-5-1-13-7-13-1 0-3 1-4 1zm73 13c-13 10-29 25-42 39-4 9 9 17 15 9 12-12 26-24 37-37 3-4-1-12-6-12-2 0-3 0-4 1zm178 34c-20 18-44 41-61 59-5 8 8 18 14 10 19-19 39-37 57-56 3-5 1-14-6-14-1 0-2 0-4 1zm-96 29-22 23c-6 10 5 20 14 11l22-26c4-4 1-13-5-13-2 0-5 1-9 5zm-302-3c-20 19-44 41-61.4 60-5.6 8 7.4 17 14.4 10 18.9-20 39-39 58-59 3-4-1-12-7-12-2 0-3 0-4 1z" fill="#0073be" fill-rule="evenodd"/></svg>