<?xml version="1.0" encoding="UTF-8" standalone="no"?>
<svg
   xmlns:dc="http://purl.org/dc/elements/1.1/"
   xmlns:cc="http://creativecommons.org/ns#"
   xmlns:rdf="http://www.w3.org/1999/02/22-rdf-syntax-ns#"
   xmlns:svg="http://www.w3.org/2000/svg"
   xmlns="http://www.w3.org/2000/svg"
   version="1.0"
   width="580"
   height="580"
   id="svg27">
  <defs
     id="defs31" />
  <metadata
     id="metadata32">
    <rdf:RDF>
      <cc:Work
         rdf:about="">
        <dc:format>image/svg+xml</dc:format>
        <dc:type
           rdf:resource="http://purl.org/dc/dcmitype/StillImage" />
        <dc:title></dc:title>
      </cc:Work>
    </rdf:RDF>
  </metadata>
  <path
     id="path4162"
     style="opacity:0.8;stroke:#ffffff;stroke-width:50;stroke-linecap:round;stroke-linejoin:round;stroke-miterlimit:4;stroke-dasharray:none;stroke-opacity:1"
     d="m 357.15039,37.849609 c -17.2417,13.99531 -61.27655,40.632992 -46.51836,60.398633 24.61378,-7.411267 44.87844,-36.034042 52.62986,-56.876103 l -2.56041,-2.461878 z M 231.2207,49.90625 c -29.81014,20.719456 -51.7944,50.34423 -78.94478,74.05706 -9.65568,28.07879 27.13657,9.935 31.78987,-5.36526 14.28836,-23.760301 54.29018,-36.171705 53.16297,-65.897812 l -2.31458,-1.990485 z M 129.59961,78.949219 C 99.585397,99.722057 77.77843,129.96561 49.134937,152.32291 c -10.015228,27.1834 24.908662,13.48884 29.594119,-2.54045 16.330435,-23.83848 52.840154,-37.6385 56.764104,-67.512077 l -2.09672,-2.117182 z m 394.07422,5.138672 c -20.87756,17.215649 -64.4315,41.645199 -58.89602,67.190139 29.54883,-3.05652 43.4373,-38.78191 65.47178,-55.601309 2.88998,-5.068236 -1.15899,-10.895672 -6.57576,-11.58883 z m -82.52344,4.861328 c -33.91572,17.085691 -52.57796,52.609091 -83.05923,74.055461 -12.74775,24.00376 19.40228,21.50136 25.05943,3.29783 18.87285,-25.51208 53.61764,-41.02227 63.89503,-71.344767 0.38532,-3.228503 -2.50154,-6.507326 -5.89523,-6.008524 z M 264.05078,108.09961 c -30.10942,21.61778 -54.10205,50.6348 -80.54157,76.12501 -4.65237,28.65333 30.12033,2.85471 35.21365,-10.09319 13.94894,-21.86962 53.02297,-36.14513 50.0334,-62.96763 z M 340.19922,121.25 c -14.24317,10.92636 -57.58473,35.61114 -37.19521,50.9995 14.44212,-5.25438 56.34917,-38.20862 37.19521,-50.9995 z m 185.14844,35.87695 c -21.06187,19.3148 -65.10407,46.21362 -62.11123,70.40695 32.22008,0.18461 44.367,-40.82594 68.82423,-56.47637 3.87686,-5.74509 0.7104,-13.77113 -6.713,-13.93058 z m -93.89844,26.27344 c -14.25495,4.06564 -49.35885,42.32824 -19.73867,38.83581 8.8386,-8.01453 37.13978,-26.70623 19.73867,-38.83581 z m -320.7793,0.51953 c -20.890103,20.88034 -65.111173,46.66075 -63.792882,71.95154 32.342284,-0.43424 44.853104,-42.33071 70.208152,-58.4364 4.24339,-5.44402 0.14301,-12.8187 -6.41527,-13.51514 z m 173.48047,17.42969 C 215.45641,235.35558 148.16306,272.08948 81,309 c -3.800186,40.32271 48.6828,25.54113 67.46005,9.47489 39.45505,-14.30533 82.21734,-13.13896 123.24215,-19.54257 41.47575,-1.06061 82.47389,7.59723 123.51866,11.98395 29.90039,0.43361 63.12567,43.26526 88.71219,14.90459 C 497.33558,297.41606 456.3063,296.9976 440.94212,284.16139 388.53954,256.82056 336.4634,228.86052 284.15039,201.34961 Z M 191,339 c -11.11494,33.89631 27.15259,24.44765 45.38451,27.61369 -12.53983,21.22433 -10.36455,57.87064 -35.68893,68.38631 -20.23186,0 -40.46372,0 -60.69558,0 -9.61846,25.91872 15.96413,28.67925 34.1163,26 8.67737,2.23221 33.00421,-6.76357 21.63012,10.01285 -5.24524,21.42666 -32.27869,53.9182 -20.3019,70.5364 39.44128,10.72147 33.69756,-44.41152 49.4569,-66.34442 5.20824,-17.16894 21.82082,-14.393 35.56261,-14.20483 25.84532,0 51.69065,0 77.53597,0 15.75318,24.87968 14.38782,66.87251 41.30443,81 6.14575,-2.22128 26.12198,4.85704 21.9403,-4.30838 C 390.82982,512.12774 380.41491,486.56387 370,461 c 19.66667,0 39.33333,0 59,0 9.61846,-25.91872 -15.96413,-28.67925 -34.1163,-26 -11.96123,0 -23.92247,0 -35.8837,0 -2.26068,-21.65793 -34.50152,-54.54311 -18.69557,-70 12.56519,0 25.13038,0 37.69557,0 9.61846,-25.91872 -15.96413,-28.67925 -34.1163,-26 -50.96123,0 -101.92247,0 -152.8837,0 z m 75,26 c 10,0 20,0 30,0 2.26068,21.65793 34.50152,54.54311 18.69557,70 -25.56519,0 -51.13038,0 -76.69557,0 9.33333,-23.33333 18.66667,-46.66667 28,-70 z" />
  <path
     id="path4159"
     d="M 357.15039 37.849609 C 355.40039 37.999609 353.49922 38.4 351.19922 39.5 C 335.59922 54.7 314.39922 74.3 302.19922 89.5 C 297.79922 98.9 312.19961 107.00039 318.09961 98.400391 C 332.99961 82.700391 348.69961 67.7 363.09961 51.5 C 365.69961 46.8 364.30039 37.799609 357.15039 37.849609 z M 231.2207 49.90625 C 229.99961 49.880469 228.79961 50.200781 227.59961 50.800781 C 199.89961 76.100781 171.59961 104.50078 148.59961 128.80078 C 143.09961 137.60078 156.49922 147.39961 163.19922 139.59961 C 188.69922 113.69961 214.89922 88.599609 240.19922 62.599609 C 242.99922 57.899609 238.99922 50.600781 232.44922 50.050781 C 232.03672 49.963281 231.62773 49.914844 231.2207 49.90625 z M 129.59961 78.949219 C 128.19961 78.999219 126.30078 79.500391 124.30078 80.900391 C 98.800782 105.80039 68.500781 133.90039 45.300781 157.90039 C 39.900781 166.60039 53.100391 176.39922 59.900391 168.69922 C 85.600391 142.89922 111.90039 117.69922 136.90039 91.699219 C 139.70039 86.699219 135.49961 79.099219 129.59961 78.949219 z M 523.67383 84.087891 C 523.46933 84.083392 523.26172 84.087109 523.05078 84.099609 C 520.80078 84.599609 519.40078 84.999609 517.80078 86.099609 C 499.00078 101.99961 476 124 459 142 C 453.5 150.6 466.50039 160.6 473.40039 153 C 492.30039 134.4 512.00039 116.4 530.40039 97 C 533.20977 92.35 530.01313 84.227338 523.67383 84.087891 z M 441.15039 88.949219 C 437.30039 89.099219 432.19961 91.499609 425.59961 98.099609 C 408.99961 113.69961 376.59922 146.09961 353.69922 170.09961 C 348.19922 178.89961 361.60078 188.70039 368.30078 180.90039 C 394.10078 155.10039 420.30078 129.90039 446.30078 103.90039 C 450.60078 100.10039 449.40039 88.599219 441.15039 88.949219 z M 264.05078 108.09961 C 262.80078 108.09961 261.60039 108.39961 260.40039 109.09961 C 235.70039 131.09961 202.7 164.09961 180.5 187.09961 C 175 195.89961 188.39961 205.70039 195.09961 197.90039 C 220.69961 172.00039 246.99961 146.90039 272.09961 120.90039 C 275.19961 115.90039 270.40078 107.89961 264.05078 108.09961 z M 340.19922 121.25 C 338.79922 121.2 337.40039 121.59961 335.90039 122.59961 C 322.40039 132.99961 306.89961 148.59961 293.09961 162.59961 C 288.49961 171.89961 302.49922 180.29961 308.69922 172.09961 C 321.39922 159.19961 335.50078 147.39961 347.30078 134.09961 C 349.60078 129.29961 345.89922 121.3 340.19922 121.25 z M 525.34766 157.12695 C 524.28828 157.13164 523.2 157.37539 522 157.90039 C 501.4 175.90039 476.4 200.50039 459 218.90039 C 453.4 227.60039 466.6 237.60039 473.5 229.90039 C 493.1 210.30039 513.4 191.40039 532.5 171.90039 C 535.5 166.90039 533.30039 157.59922 526.40039 157.19922 C 526.05039 157.14922 525.70078 157.12539 525.34766 157.12695 z M 431.44922 183.40039 C 428.99922 183.40039 425.90039 184.69922 422.40039 188.19922 L 399 212.80078 C 393 222.90078 404.19922 233.20078 413.19922 223.30078 L 436.09961 196.90039 C 440.49961 192.60039 437.79922 183.50039 431.44922 183.40039 z M 110.66992 183.91992 C 109.62402 183.9083 108.30039 184.31211 106.90039 185.09961 C 86.300392 204.59961 61.900391 227.89961 42.900391 247.09961 C 37.400391 255.89961 50.8 265.70039 57.5 257.90039 C 77.5 237.40039 98.499218 217.90039 118.19922 196.90039 C 120.99922 192.10039 116.89961 184.19922 111.09961 183.94922 C 110.96211 183.93047 110.81934 183.92158 110.66992 183.91992 z M 284.15039 201.34961 C 216.00039 234.99961 141 276 81 309 C 74.9 313.9 78.599609 322.20078 84.099609 325.80078 C 89.899609 330.50078 95.099609 341.1 104.09961 337 C 125.89961 328.4 147.59961 319.2 169.09961 311 C 207.89961 306.5 247.09961 301.50039 285.09961 297.40039 C 323.89961 302.20039 363.09961 306.39961 401.09961 311.59961 C 423.49961 320.29961 445.09961 330.09922 468.09961 338.19922 C 476.39961 338.09922 480.19961 328.90039 486.09961 324.40039 C 492.59961 320.40039 492.39922 309.70039 484.69922 307.40039 C 418.69922 272.50039 352.69922 237.40039 285.69922 202.40039 C 284.89922 202.10039 284.15039 201.34961 284.15039 201.34961 z M 191 339 L 191 365 L 238 365 L 210 435 L 140 435 L 140 461 L 199 461 L 167 542 L 199 542 L 231 461 L 338 461 L 370 542 L 403 542 L 370 461 L 429 461 L 429 435 L 359 435 L 331 365 L 378 365 L 378 339 L 191 339 z M 266 365 L 296 365 L 324 435 L 238 435 L 266 365 z "
     style="fill:#734a08;fill-opacity:1" />
</svg>
