<svg height="580" width="580" xmlns="http://www.w3.org/2000/svg"><path d="m215.27 39.74c-15.97-.108-32.11 7.713-39.63 22.842-16.09 28.262 6.61 65.688 39.08 64.658 33.74 1.81 56.08-41.271 36.37-68.26-7.78-12.874-21.73-19.144-35.82-19.24zm278.6 79.52c-80.77 3.07-164.73 4.25-234.38 5.74-18.57-.5-32.09 10.95-9.37 15.28h.1c17.11 23.17-4.45 46.47-26.81 42.92h-58.43c-.17 53.92.34 107.9-.26 161.77-11.31 58.05-23.93 115.9-34.42 174.08-.71 32.15 50.11 30.38 49.99-.62 11.28-57.2 22.56-114.41 33.84-171.61 7.24.88 19.08-3.83 17.67 7.59 11.69 57.9 22.34 116.05 34.68 173.79 10.61 29.23 57.91 10.86 45.81-17.82-11.07-56.41-22.81-112.75-33.46-169.2v-142.43c7.48-9.68 14.97-19.37 22.45-29.06 7.8-1.23 17.06.26 24.01-2.56 6.5-7.35 11.62-17.32 18.97-23.08 51.5-2.87 103.01-5.74 154.51-8.61-1-6.05 2-16.4-4.86-16.2zm-267.65 17.99c-35.56 2.69-73.94 1.19-110.42 1.19-26.146.72-27.586 34.97 2.66 34.93 35.3-.17 75.71-.35 111-1 24.7-3.54 20.76-32.09-3.24-35.12z" style="opacity:.8;fill:#38ad37;stroke:#fff;stroke-linejoin:round;stroke-linecap:round;stroke-width:60"/><path d="m215.27 39.74c-15.97-.108-32.11 7.713-39.63 22.842-16.09 28.262 6.61 65.688 39.08 64.658 33.74 1.81 56.08-41.271 36.37-68.26-7.78-12.874-21.73-19.144-35.82-19.24zm278.6 79.52c-80.77 3.07-164.73 4.25-234.38 5.74-18.57-.5-32.09 10.95-9.37 15.28h.1c17.11 23.17-4.45 46.47-26.81 42.92h-58.43c-.17 53.92.34 107.9-.26 161.77-11.31 58.05-23.93 115.9-34.42 174.08-.71 32.15 50.11 30.38 49.99-.62 11.28-57.2 22.56-114.41 33.84-171.61 7.24.88 19.08-3.83 17.67 7.59 11.69 57.9 22.34 116.05 34.68 173.79 10.61 29.23 57.91 10.86 45.81-17.82-11.07-56.41-22.81-112.75-33.46-169.2v-142.43c7.48-9.68 14.97-19.37 22.45-29.06 7.8-1.23 17.06.26 24.01-2.56 6.5-7.35 11.62-17.32 18.97-23.08 51.5-2.87 103.01-5.74 154.51-8.61-1-6.05 2-16.4-4.86-16.2zm-267.65 17.99c-35.56 2.69-73.94 1.19-110.42 1.19-26.146.72-27.586 34.97 2.66 34.93 35.3-.17 75.71-.35 111-1 24.7-3.54 20.76-32.09-3.24-35.12z" fill="#2f922e"/></svg>