<svg height="580" width="580" xmlns="http://www.w3.org/2000/svg"><path d="m437.02 86.22 1.05 57.78c12.66 5.8 25.31 11.6 37.97 17.4 11.74-5.69 23.49-11.39 35.23-17.08-.56-19.6-1.11-39.19-1.67-58.79 7.42.708 17.85-2.463 23.48.537 5.21 23.993 10.41 47.983 15.62 71.973-19 10.89-37.99 21.78-56.99 32.67 5.16 93.46 10.57 186.92 15.57 280.39-.82 30.04-51.22 32.6-56.28 3.55-1.42-36.17.62-72.54.58-108.79.78-59.33 1.55-118.67 2.33-178.01-17.75-9.28-35.49-18.56-53.24-27.84 4.43-24.47 8.86-48.95 13.29-73.419 7.69-.124 15.37-.247 23.06-.371z" style="opacity:.8;fill:none;stroke:#fff;stroke-linejoin:round;stroke-linecap:round;stroke-width:47.706"/><path d="m136.4 140.99c-22.53-1.69-40.681 16-45.798 36.79-9.531 25.12-19.061 50.25-28.592 75.37-24.593 4.51-37.427 31.03-34.566 54.27v96h30.61c1.521 18.32-4.522 39.02 7.05 54.93 15.292 19.39 50.416 7.51 50.286-17.49.35-12.47.1-24.96.16-37.44h206.86c1.52 18.28-4.53 38.93 7.05 54.79 14.2 18.12 47.32 9.58 49.8-13.78 1.3-13.61.37-27.35.65-41.01h30.61c-.16-36.85.33-73.71-.25-110.55 1.41-24.79-25.26-32.79-36.69-46-11.25-28.31-20.78-57.39-33.2-85.18-10.89-20.78-35.76-21.62-56.31-20.7-49.21 0-98.57 0-147.67 0zm-.37 30.18c56.5.22 113.05-.45 169.53.34 15.34 4.44 15.35 23.45 21.49 35.74 5.45 15.01 10.91 30.03 16.36 45.04-82.95 0-165.9 0-248.845 0 9.465-24.68 17.155-50.16 27.895-74.26 2.94-4.52 8.24-6.98 13.57-6.86zm-48.304 112.85c28.604-.89 36.614 43.46 10.334 53.69-23.816 11.58-47.491-20.98-32.353-41.38 4.675-7.45 13.186-12.39 22.019-12.31zm262.544 0c28.61-.9 36.62 43.46 10.34 53.69-23.82 11.58-47.54-20.97-32.38-41.38 4.69-7.45 13.2-12.39 22.04-12.31z" style="opacity:.8;fill:none;stroke:#fff;stroke-linejoin:round;stroke-linecap:round;stroke-width:40"/><g fill="#ac39ac"><path d="m136.4 140.99c-22.53-1.69-40.681 16-45.798 36.79-9.531 25.12-19.061 50.25-28.592 75.37-24.593 4.51-37.427 31.03-34.566 54.27v96h30.61c1.521 18.32-4.522 39.02 7.05 54.93 15.292 19.39 50.416 7.51 50.286-17.49.35-12.47.1-24.96.16-37.44h206.86c1.52 18.28-4.53 38.93 7.05 54.79 14.2 18.12 47.32 9.58 49.8-13.78 1.3-13.61.37-27.35.65-41.01h30.61c-.16-36.85.33-73.71-.25-110.55 1.41-24.79-25.26-32.79-36.69-46-11.25-28.31-20.78-57.39-33.2-85.18-10.89-20.78-35.76-21.62-56.31-20.7-49.21 0-98.57 0-147.67 0zm-.37 30.18c56.5.22 113.05-.45 169.53.34 15.34 4.44 15.35 23.45 21.49 35.74 5.45 15.01 10.91 30.03 16.36 45.04-82.95 0-165.9 0-248.845 0 9.465-24.68 17.155-50.16 27.895-74.26 2.94-4.52 8.24-6.98 13.57-6.86zm-48.304 112.85c28.604-.89 36.614 43.46 10.334 53.69-23.816 11.58-47.491-20.98-32.353-41.38 4.675-7.45 13.186-12.39 22.019-12.31zm262.544 0c28.61-.9 36.62 43.46 10.34 53.69-23.82 11.58-47.54-20.97-32.38-41.38 4.69-7.45 13.2-12.39 22.04-12.31z"/><path d="m437.02 86.22 1.05 57.78c12.66 5.8 25.31 11.6 37.97 17.4 11.74-5.69 23.49-11.39 35.23-17.08-.56-19.6-1.11-39.19-1.67-58.79 7.42.708 17.85-2.463 23.48.537 5.21 23.993 10.41 47.983 15.62 71.973-19 10.89-37.99 21.78-56.99 32.67 5.16 93.46 10.57 186.92 15.57 280.39-.82 30.04-51.22 32.6-56.28 3.55-1.42-36.17.62-72.54.58-108.79.78-59.33 1.55-118.67 2.33-178.01-17.75-9.28-35.49-18.56-53.24-27.84 4.43-24.47 8.86-48.95 13.29-73.419 7.69-.124 15.37-.247 23.06-.371z" stroke="#ac39ac" stroke-linecap="round" stroke-linejoin="round" stroke-width="7.706"/></g></svg>