<svg height="580" width="580" xmlns="http://www.w3.org/2000/svg"><path d="m125.89 28.039c-4.76.02-9.52.215-14.26.549 10.24 44.384 39.14 92.442 87.75 100.342 18.6 2.31 56.32 5.53 41.07-22.9-9.72-41.977-48.38-72.913-90.82-76.557-7.87-1.038-15.8-1.471-23.74-1.434zm150.4 20.748c-8.35.113-13.27 4.709-7.26 17.488 12.07 51.625 11.36 105.225 13.14 157.955 9.79-52.91 19.58-105.82 29.37-158.736-3.5-7.456-23.05-16.871-35.25-16.707zm177.77 20.953c-9.64.02-19.26.768-28.77 2.438-49.01 6.67-88.44 47.682-97.6 95.552 6.61 16.14 41.95 12.99 59.75 11.81 53.22-9.03 87.63-58.63 103.61-106.688-12.21-1.964-24.61-3.138-36.99-3.112zm-250.71 145.47c-46.02.25-91.38 29-108.594 72.53-14.984 33.14-8.72 69.05 1.529 102.47 16.295 50.08 44.225 95.89 76.025 137.55 24.78 31.97 76.97 35.31 105.09 5.9 7.89-17.84 13.51-.99 22.75 5.47 30.27 24.99 78.74 17.06 101.27-14.39 34.51-46.74 65.63-98.06 79.12-155.17 12.8-44.02-.22-95.22-35.86-125.29-43.78-40.06-118.02-37.94-159.09 5.04-14.03-13.9-31.58-24.24-50.61-29.56-10.35-3.15-21.01-4.61-31.63-4.55z" style="opacity:.8;fill:none;stroke:#fff;stroke-linejoin:round;stroke-linecap:round;stroke-width:42"/><g fill="#ac3b98" stroke="#ac3b98"><path d="m491.05 72.852c-15.98 48.058-50.39 97.658-103.61 106.688-17.8 1.18-53.14 4.33-59.75-11.81 9.16-47.87 48.59-88.882 97.6-95.552 21.74-3.817 44.06-2.816 65.76.674z" stroke-width="1.109"/><path d="m285.59 249.32c41.07-42.98 115.31-45.1 159.09-5.04 35.64 30.07 48.66 81.27 35.86 125.29-13.49 57.11-44.61 108.43-79.12 155.17-22.53 31.45-71 39.38-101.27 14.39-9.24-6.46-14.86-23.31-22.75-5.47-28.12 29.41-80.31 26.07-105.09-5.9-31.8-41.66-59.73-87.47-76.025-137.55-10.249-33.42-16.513-69.33-1.529-102.47 21.184-53.58 85.004-84.76 140.224-67.98 19.03 5.32 36.58 15.66 50.61 29.56z" stroke-width="1.109"/><path d="m111.63 28.587c10.24 44.384 39.14 92.443 87.75 100.343 18.6 2.31 56.32 5.53 41.07-22.9-9.72-41.976-48.38-72.913-90.82-76.557-12.59-1.66-25.35-1.776-38-.886z" stroke-width="1.109"/><path d="m282.17 224.23c-1.78-52.73-1.07-106.33-13.14-157.954-14.79-31.456 36.61-13.339 42.51-.781-9.79 52.915-19.58 105.825-29.37 158.735z" stroke-width="5.362"/></g></svg>