<svg height="580" width="580" xmlns="http://www.w3.org/2000/svg"><path d="m343.64 379.52c11.84 35.33 36.2 64.23 57.04 93.13 20.49 25.69 39.21 54.59 66.19 77.07 22.35 0 46.02-19.27 55.78-41.75 1.6-22.47-15.7-41.74-23.8-61.01-23.5-41.75-45.66-86.71-79.06-122.03-19.2-19.27-32.59-44.96-47.91-67.44-41.04-70.65-62.34-147.72-82.55-224.788-73.23 25.69-143.22 57.803-209.555 96.338-10.1 16.06 13.135 44.96 17.483 64.23 30.802 73.86 76.192 141.29 124.072 205.52 13.9 9.63 26.14 48.17 44.33 32.11 25.99-16.05 51.99-35.32 77.98-51.38z" style="opacity:.8;fill:none;stroke:#fff;stroke-linejoin:round;stroke-linecap:round;stroke-width:40"/><g fill-rule="evenodd"><path d="m343.64 378.65c11.84 35.25 36.2 64.75 57.04 95.1 20.48 25.97 39.22 54.75 66.2 74.42 22.34.32 45.99-19.25 55.78-39.25 1.48-22.57-15.73-41.37-23.81-61.53-23.51-42.87-45.65-87.69-79.06-123.9-19.2-19.54-32.6-44.71-47.91-67.54-41.04-68.21-62.34-145.79-82.55-222.12-73.23 23.537-143.22 56.45-209.554 95.25-10.101 15.73 13.133 44.22 17.483 64.29 30.801 73.95 76.181 140.73 124.071 204.52 13.9 9.03 26.14 49.2 44.33 33.7 25.99-17.65 51.98-35.29 77.98-52.94z" fill="#d28dc6"/><path d="m259.6 408.42c-66.18-80.28-119.38-170.19-158.67-266.53 48.82-28.91 101.6-51.385 154.33-70.653 29.03-19.267 21.32 25.691 30.79 44.963 18.43 70.64 51.99 138.08 95.98 199.1-38.88 32.11-81.06 64.22-122.43 93.12zm84.04-28.9c11.84 35.33 36.2 64.23 57.04 93.13 20.49 25.69 39.21 54.59 66.19 77.07 22.35 0 46.02-19.27 55.78-41.75 1.6-22.47-15.7-41.74-23.8-61.01-23.5-41.75-45.66-86.71-79.06-122.03-19.2-19.27-32.59-44.96-47.91-67.44-41.04-70.65-62.34-147.72-82.55-224.788-73.23 25.69-143.22 57.803-209.555 96.338-10.1 16.06 13.135 44.96 17.483 64.23 30.802 73.86 76.192 141.29 124.072 205.52 13.9 9.63 26.14 48.17 44.33 32.11 25.99-16.05 51.99-35.32 77.98-51.38zm-130.4-240.85c.32-41.742 70.23-19.26 46.54 12.85-12.74 19.27-46.95 12.85-46.54-12.85z" fill="#ac3b98" stroke-width=".311"/><path d="m259.6 408.42c-66.18-80.28-119.38-170.19-158.67-266.53 48.82-28.91 101.6-51.385 154.33-70.653 29.03-19.267 21.32 25.691 30.79 44.963 18.43 70.64 51.99 138.08 95.98 199.1-38.88 32.11-81.06 64.22-122.43 93.12zm84.04-28.9c11.84 35.33 36.2 64.23 57.04 93.13 20.49 25.69 39.21 54.59 66.19 77.07 22.35 0 46.02-19.27 55.78-41.75 1.6-22.47-15.7-41.74-23.8-61.01-23.5-41.75-45.66-86.71-79.06-122.03-19.2-19.27-32.59-44.96-47.91-67.44-41.04-70.65-62.34-147.72-82.55-224.788-73.23 25.69-143.22 57.803-209.555 96.338-10.1 16.06 13.135 44.96 17.483 64.23 30.802 73.86 76.192 141.29 124.072 205.52 13.9 9.63 26.14 48.17 44.33 32.11 25.99-16.05 51.99-35.32 77.98-51.38zm-130.4-240.85c.32-41.742 70.23-19.26 46.54 12.85-12.74 19.27-46.95 12.85-46.54-12.85z" fill="#ac3b98" stroke-width=".311"/></g><path d="m265.77 139.87c.51 25.44-37.31 34.67-50.33 13.75-13.91-18.49 7.33-44.46 28.43-38.69 11.9 2.02 22.06 12.58 21.9 24.94z" fill="#eacdea" stroke="#d28dc6" stroke-linejoin="round" stroke-width="1.2"/></svg>