<svg height="580" width="580" xmlns="http://www.w3.org/2000/svg"><path d="m168.92 23.199c-14.02.242-28.03.485-42.05.727-3.16 3.472-4.32 6.358-3.57 11.021-.36 32.823 2.42 65.773-1.5 98.453-10.47 4.93-20.78 9.68-30.382 16.53-9.344 6.66-19.643 14.66-19.643 25.52v341.1c0 8.22 6.401 17.33 13.776 21.4 12.721 7.02 28.189 7.29 42.579 9.39 27.32 3.99 53.81-3.78 80.34-9.62 11.03-2.43 22.31-6.14 22.81-16.45 5.11-106.28-.36-212.81 1.39-319.2.17-10.43-3.26-19.56-5.55-29.43-2.36-10.17-12.3-14.26-18.74-21.23-8.93-9.66-22.78-10.32-34.38-15.11.65-32.34 1.3-64.675 1.95-97.013 1.05-7.086.71-13.465-7.03-16.088zm237.01 254.501c-10.51.11-21.06 1.1-31.53 2.02-14.28 1.26-28.22 5.51-42.35 8.1-1.22 5.56-3.11 10.46-2 16.42 3.91 20.95 5.03 42.61 12.02 62.74 4.15 11.95 12.3 22.55 20.81 31.98 7.31 8.09 18.17 12.37 27.17 18.64-.24 28.28-.49 56.55-.73 84.83-12.23 2.65-24.15 6.49-36.24 9.7-4.25 1.13-7.84 2.77-10.96 5.98-2.74 2.83-5.23 4.35-3.87 9.11 1.55 5.44 4.99 9.14 9.29 11.76 6.88 4.19 15.55 5.04 23.45 6.99 9.4 2.32 19.34 2.11 29.03 2.63 11.47.61 23.09-.83 34.47-2.57 7.14-1.09 13.2-6.34 20.09-8.68 5.44-1.85 11.42-4.93 12.32-10.27.71-4.23-4.23-7.74-7.6-10.38-4.86-3.81-11.8-4.7-17.77-6.71-8.55-2.88-17.92-2.47-26.83-3.94-.24-29.97-.49-59.93-.73-89.9 7.06-3.06 15.19-4.34 21.18-9.17 10.06-8.11 18.63-18.78 24.83-30.23 7.67-14.17 11.92-30.36 14.71-46.29 2.45-13.95-.43-28.44-.54-42.64-6.62-2.05-13.05-4.8-19.85-6.15-12.4-2.47-25.21-3.07-37.87-3.76-3.49-.19-6.99-.25-10.5-.21z" style="opacity:.8;fill:none;stroke:#fff;stroke-linejoin:round;stroke-linecap:round;stroke-width:40"/><path d="m334.49 290.81c-.37 41.87 9.07 90.06 44.88 116.1 22.99 16.34 53.91 2.34 67.11-19.84 19.02-28.07 25.47-62.84 24.87-96.26-44.6-10.88-92.27-11.07-136.86 0z" fill="#c182b7" stroke="#ac3b98" stroke-linecap="round" stroke-linejoin="round" stroke-width="9.988"/><g fill="#ac3b98"><path d="m466.13 526.67c-18.49 29.92-57.31 21.74-84.43 22.33-12.27-3.03-52.04-3.82-43.01-29.24 29.5-21.64 66.5-17.85 99.07-12.4 9.34 3.58 25.2 4.97 28.37 19.31z"/><path d="m401.4 397.29v122.6" stroke="#ac3b98" stroke-linecap="round" stroke-width="24"/><path d="m334 291.52c-.38 41.86 9.07 90.05 44.88 116.09 22.98 16.34 53.9 2.34 67.11-19.84 19.01-28.06 25.46-62.83 24.86-96.25-44.1 16.09-92.83 16.94-136.85 0z"/><path d="m94.753 181.15c12.427-19.89 42.877-34.47 66.677-28.73 16.06 9.07 47.38 14.68 47.86 36.72v326.2c-32.17 14.01-69.65 13.09-103.31 5.19-16.107-.56-10.188-16.1-11.227-26.49 0-104.3 0-208.6 0-312.89z" stroke="#ac3b98" stroke-linecap="round" stroke-linejoin="round" stroke-width="47.52"/><path d="m131.37 29.944h37.89v131.646c-12.63 0-25.26 0-37.89 0 0-43.88 0-87.762 0-131.646z" stroke="#ac3b98" stroke-linecap="round" stroke-linejoin="round" stroke-width="15.72"/></g></svg>