<svg height="580" width="580" xmlns="http://www.w3.org/2000/svg"><path d="m184.5 476.59c.16 36.93-49.15 55-76.07 31.68-23.82-15.86-20.315-54.94 3.09-67.77 28.36-17.51 71.95 0 71.2 35.95zm.26-118.52c.15 37.27-49.1 55.01-76.37 32.65-23.237-16.42-20.077-55.57 3.61-68.34 28.01-17.22 71.55.24 71.03 35.56zm8.66 19.26c99.82 26.47 199.16 54.26 298.5 80.96m-301.5 10.69c99.59-50.96 198.74-102.8 298.87-154.28" style="opacity:.8;fill:none;stroke:#fff;stroke-linejoin:round;stroke-linecap:round;stroke-width:75"/><path d="m517.6 54.203c-4.31-1.319-10.97.452-13.89-.736l-.19 116.793h-51.98l.1-109.579c3.6-11.904-13.56-4.078-20.18-6.058l-.17 115.627h-54.88v-108.081c3.48-11.616-13.57-4.078-20.53-6.178l-.1 114.189-54.87-.1.14-108.418c3.48-11.558-13.62-4.079-20.24-6.06l-.44 114.128h-51.99l.42-106.912c3.48-11.616-13.28-4.019-20.24-6.117l-.13 112.059h-51.7l.44-104.674c3.72-12.307-13.91-4.199-20.87-6.297v110.611l-48.879.1 1.2-104.948c3.688-12.308-14.291-4.378-20.559-6.238l-.111 110.616-11.258.45c-20.475 4.32-20.255 45.58-.573 50.14l478.34 1.43c23.21-1.36 23.65-44.91 5.02-50.21l-10.28.52.7-111.531c1.62-5.29-3.45-6.445-6.55-6.999z" style="opacity:.8;fill:none;stroke:#fff;stroke-linejoin:round;stroke-linecap:round;stroke-width:40"/><g fill="#ac3b98"><path d="m51.926 171.56c160.464.33 320.594.48 481.284 1.23 20.53 6.18 19.81 49.39-4.96 49.86-159.65-.45-319.03-.77-478.396-1.09-19.552-5.88-19.382-45.98 0-50.26z" fill-opacity=".986" opacity=".939"/><path d="m207.74 124.93c3.87 19.6.28 40.91.12 60.75-3.3-4.59 1.4-16.59-1.12-23.83.14-12.58-.98-25.59-.44-37z" fill-opacity=".986" opacity=".939"/><path d="m279.08 57.477c6.57 5.614 22.62-5.512 20.53 6.178.12 40.105-.34 80.485-.45 120.245-5.35-1.56-22.22 5.29-20.59-6.18-.18-40.16-.1-81.358.12-121.46z" fill-opacity=".986" opacity=".939"/><path d="m354.96 57.594c6.63 5.558 22.45-4.821 20.24 6.059.13 39.757 0 80.267-.16 120.367-5.3-1.56-21.75 5-20.54-6.18-.11-40.51-.1-81.36.19-121.807z" fill-opacity=".986" opacity=".939"/><path d="m430.91 56.27c6.33 1.861 22.85-5.047 20.59 6.179-.46 40.101-.22 79.861-.39 119.961-5.64-1.74-21.76 5-20.88-6.3-.11-40.1.18-80.954.53-121.746z" fill-opacity=".986" opacity=".939"/><path d="m206.36 58.664c6.63 5.616 22.51-5.108 20.53 6.237.12 40.039 0 80.619-.11 120.369-5.63-1.74-22.22 5.22-20.87-6.3-.11-40.57.29-81.3.12-121.463z" fill-opacity=".986" opacity=".939"/><path d="m133.92 60.317c5.94 5.435 22.28-5.573 20.19 6.116.12 39.757-.22 79.857-.34 119.957-5.29-1.62-21.87 5.35-20.87-6.3-.12-40.1.35-80.828.53-121.682z" fill-opacity=".986" opacity=".939"/><path d="m64.224 59.924c6.283 5.554 22.85-5.047 20.586 6.237.119 40.049-.339 80.149-.51 120.249-5.635-1.69-21.754 5-20.873-6.3.462-40.45.294-81.303.525-121.689z" fill-opacity=".986" opacity=".939"/><path d="m503.69 54.679c6.34 5.554 22.56-5.109 20.24 6.117.13 40.104 0 80.264-.16 120.364-5.63-1.68-22.16 5.23-20.87-6.3.46-40.44 0-81.357.23-121.804z" fill-opacity=".986" opacity=".939"/><path d="m190.42 468.98c99.59-50.96 198.74-102.8 298.87-154.28" stroke="#ac3b98" stroke-width="35.866"/></g><path d="m193.42 377.33c99.82 26.47 199.16 54.26 298.5 80.96" fill="#ab374f" stroke="#ac3b98" stroke-width="35.866"/><path d="m184.76 358.07c.15 37.27-49.1 55.01-76.37 32.65-23.237-16.42-20.077-55.57 3.61-68.34 28.01-17.22 71.55.24 71.03 35.56z" fill="none" opacity=".939" stroke="#ac3b98" stroke-width="30.465"/><path d="m184.5 476.59c.16 36.93-49.15 55-76.07 31.68-23.82-15.86-20.315-54.94 3.09-67.77 28.36-17.51 71.95 0 71.2 35.95z" fill="none" opacity=".939" stroke="#ac3b98" stroke-width="30.465"/></svg>