<svg height="580" viewBox="0 0 580 580" width="580" xmlns="http://www.w3.org/2000/svg"><path d="m292.65 21.939c-70.56 0-136.71 56.27-141.61 127.521 3.45 15.44-15.55 6.82-24.63 9.08h-47.566c-6.286 122.1-13.355 244.64-19.123 367.18v33.59h463.249c-7.07-133.43-14.15-267.32-21.24-400.77h-66.94c-.5-75.331-67.57-137.965-142.14-136.601zm0 58.543c42.53 0 82.83 34.958 83.48 78.058h-166.94c.72-43.56 40.81-78.968 83.46-78.058z" style="opacity:.8;fill:#fff;stroke:#fff;stroke-linejoin:round;stroke-linecap:round;stroke-width:40"/><path d="m292.65 21.939c-70.56 0-136.71 56.27-141.61 127.521 3.45 15.44-15.55 6.82-24.63 9.08-15.86 0-31.704 0-47.566 0-6.286 122.1-13.355 244.64-19.123 367.18v33.59h463.249c-7.07-133.43-14.15-267.32-21.24-400.77-22.32 0-44.62 0-66.94 0-.5-75.331-67.57-137.965-142.14-136.601zm0 58.543c42.53 0 82.83 34.958 83.48 78.058-55.65 0-111.3 0-166.94 0 .72-43.56 40.81-78.968 83.46-78.058zm-11.47 141.148c32.74 0 73.75 9.53 84.52 44.48 9.24 30.86-12.92 60.82-38.94 74.89-28.12 10.89 12.16 28.14 21.88 40.85 13.36 10.44 8.06-30.86 27.29-16.8 14.99 4.54 29.99 6.81 44.99 10 .98 18.15-25.84 39.93-14.57 52.17 11.53 7.73 22.54 16.35 34.82 22.7-13.22 14.99-26.41 30.41-39.61 45.39-21.49-8.16-40.75-37.66-62.51-15.44-40.55 18.17-87.98 20.43-130.55 8.64-38.53-10.44-65.55-54.92-48.83-93.04 10.11-26.33 35.02-42.67 60.1-52.2-22.68-23.15-35.35-62.18-15.16-90.78 16.66-24.95 48.7-30.86 76.57-30.86zm3.09 39.93c-35.21 0-26.4 40.41-5.41 54.47 23.25-6.8 45.75-47.19 10.78-54.01h-5.39zm-31.66 118.47c-21.46 10.44-35.82 40.85-13.72 58.09 21.46 18.62 52.78 9.09 73.94-4.99-21.09-16.34-40.8-34.49-60.22-53.1z" fill="#ac3b98" stroke-width="8"/></svg>