<svg enable-background="new 0 0 580 580" height="580" viewBox="0 0 580 580" width="580" xmlns="http://www.w3.org/2000/svg"><path d="m431.17 123.98h-69.48c-7.06 20.65-21.03 39.83-43.29 45.06-23.16 11.43-46.43.1-65.37-11.33-12.17-7.33-26.03-33.73-26.03-33.73h-78.17c-37.28 28-74.55 56-111.825 84v87.29c37.783-11.46 75.565-22.93 113.345-34.39v195.14h280.82v-194.67c37.27 11.31 74.55 22.61 111.82 33.92v-87.29c-37.27-28-74.55-56-111.82-84z" style="opacity:.8;fill:none;stroke:#fff;stroke-linejoin:round;stroke-linecap:round;stroke-width:40"/><path d="m431.17 123.98h-69.48c-7.06 20.65-21.03 39.83-43.29 45.06-23.16 11.43-46.43.1-65.37-11.33-12.17-7.33-26.03-33.73-26.03-33.73h-78.17c-37.28 28-74.55 56-111.825 84v87.29c37.783-11.46 75.565-22.93 113.345-34.39v195.14h280.82v-194.67c37.27 11.31 74.55 22.61 111.82 33.92v-87.29c-37.27-28-74.55-56-111.82-84z" fill="#ac3b98"/></svg>