<svg height="580" width="580" xmlns="http://www.w3.org/2000/svg"><g stroke-linecap="round" stroke-linejoin="round"><path d="m356.61 416.26c29.19-12.55 42.16-43.04 52.63-70.74 11.5-18.13 37.57-20.36 53.1-35.48 16.79-9.06 31.23-22.24 47.78-31.31 19.58 1.14 4.69 49.79 25.73 36.84 8.44-17.73 12.51-40.17 4.18-58.67-16.78-19.6-38.02 7.7-54.61 14.77-26.43 16.04-58.59 32.7-89.75 19.8-40.68-16.95-85.91-39.21-130.54-23.47-18.94 12.21-39.74 2.3-59.54-1.04-24.43-6.73-40.64-29.41-65.38-36.28-9.64-4.31-46.296-3.44-19.68-15.49 26.26-10.05 52.72-21.12 80.58-25.7 22.74-3.38 43.76 8.5 60.33 22.86 17.88 9.62 14.31-23.23-2.13-23.28-21.56-14.21-48.37-22.3-73.76-14.05-34.11 10.85-67.72 23.4-101.405 35.54-17.194 7.78-37.835 13.66-48.517 30.33.905 19.24 18.871 35.99 19.008 57.58 9.857 34.86 33.804 71.96 71.934 78.87 27.85 5.03 49.96-17.26 61.57-39.93 12.73-10.93 9.05-44.81 30.37-36.55 17.6 4.04-2.13 25.39 10.09 36.97 12.35 36.78 38.82 73.2 79.38 80.14 16.05 2.71 33.4 6.44 48.63-1.71zm-54.37-14.6c-39.44-15.13-61.27-65.73-45.35-104.8 13.82-21.41 43.73-17.92 65.06-12.14 28.82 8.37 61.29 28.76 62.02 62.2 3.18 34.33-30.6 63.38-63.96 58.67-6.07-.53-12.04-1.9-17.77-3.93zm-188.19-46.46c-30.864-16.26-48.139-54.72-43.02-88.76 4.368-24.98 36.3-28.71 56.13-21.37 40.45 14.06 55.32 69.39 32.65 104.03-10.61 14.68-31.18 13.41-45.76 6.1z" fill="none" opacity=".8" stroke="#fff" stroke-width="48.12"/><path d="m356.61 416.26c29.19-12.55 42.16-43.04 52.63-70.74 11.5-18.13 37.57-20.36 53.1-35.48 16.79-9.06 31.23-22.24 47.78-31.31 19.58 1.14 4.69 49.79 25.73 36.84 8.44-17.73 12.51-40.17 4.18-58.67-16.78-19.6-38.02 7.7-54.61 14.77-26.43 16.04-58.59 32.7-89.75 19.8-40.68-16.95-85.91-39.21-130.54-23.47-18.94 12.21-39.74 2.3-59.54-1.04-24.43-6.73-40.64-29.41-65.38-36.28-9.64-4.31-46.296-3.44-19.68-15.49 26.26-10.05 52.72-21.12 80.58-25.7 22.74-3.38 43.76 8.5 60.33 22.86 17.88 9.62 14.31-23.23-2.13-23.28-21.56-14.21-48.37-22.3-73.76-14.05-34.11 10.85-67.72 23.4-101.405 35.54-17.194 7.78-37.835 13.66-48.517 30.33.905 19.24 18.871 35.99 19.008 57.58 9.857 34.86 33.804 71.96 71.934 78.87 27.85 5.03 49.96-17.26 61.57-39.93 12.73-10.93 9.05-44.81 30.37-36.55 17.6 4.04-2.13 25.39 10.09 36.97 12.35 36.78 38.82 73.2 79.38 80.14 16.05 2.71 33.4 6.44 48.63-1.71zm-54.37-14.6c-39.44-15.13-61.27-65.73-45.35-104.8 13.82-21.41 43.73-17.92 65.06-12.14 28.82 8.37 61.29 28.76 62.02 62.2 3.18 34.33-30.6 63.38-63.96 58.67-6.07-.53-12.04-1.9-17.77-3.93zm-188.19-46.46c-30.864-16.26-48.139-54.72-43.02-88.76 4.368-24.98 36.3-28.71 56.13-21.37 40.45 14.06 55.32 69.39 32.65 104.03-10.61 14.68-31.18 13.41-45.76 6.1z" fill="#ac3b98" stroke="#ac3b98" stroke-width="9.624"/></g></svg>