<svg height="580" width="580" xmlns="http://www.w3.org/2000/svg"><g transform="matrix(13.007 0 0 13.007 -20.344 -40.095)"><path d="m6.837 26.974c-1.0908 1.635-1.7042 3.814-1.0108 5.718.7767 1.905 3.0383 2.726 3.6478 4.723 1.024 2.288 3.218 4.441 5.897 4.227 2.517-.06 4.754-1.902 5.486-4.281.513-1.542.466-3.194.761-4.781.149-.874.01-2.178 1.036-2.525.659.06.1.948.148 1.375-.283 2.468-.254 4.992.127 7.443.531 2.652 2.204 5.167 4.763 6.227.875.201 1.093-.869 1.062-1.533-1.468-1.175-2.941-2.567-3.342-4.486-.533-1.892-.893-3.868-.8-5.839.07-.798.144-1.734.554-2.386 1.102 2.032.517 4.693 2.119 6.524 1.207 1.619 2.628 3.333 4.63 3.936 1.863.543 3.72-.59 4.821-2.037 1.028-1.274 1.338-2.997 2.472-4.214.783-.939 2.069-1.414 2.483-2.651 1.004-2.251.511-5.192-1.542-6.691-2.223-1.903-5.342-1.721-8.073-1.536-1.036.02-2.066.24-3.096.24-.561 0-.645-.653-.02-.671 2.297-.608 4.807.1 7.001-.997 2.297-.803 4.56-2.44 5.136-4.933.613-2.112.04-4.803-1.984-5.941-1.233-.417-2.465-1.022-3.161-2.1793-.813-1.209-1.515-2.5522-2.813-3.3207-1.262-.8466-2.943-1.0077-4.319-.3299-1.618.676-3.121 1.8353-4.003 3.3672-.896 1.7087-1.293 3.6617-1.079 5.5847-.02 1.151.132 2.409-.23 3.482-.523.321-.334-.699-.474-.973-.461-2.672-.17-5.472-1.031-8.0683-1.172-2.1412-3.702-3.6407-6.172-3.0707-1.937.4328-3.374 2.0326-4.441 3.6034-.315.9286-1.246 1.4846-1.8531 2.2126-1.6565 1.19-3.6309 2.512-3.9192 4.707-.2298 1.337-.059 2.833.9796 3.808 1.2822 1.368 3.1724 1.894 4.8987 2.458 2.098.422 4.265.214 6.393.357.447-.08.867.64.304.848-2.84 1.105-6.053-.762-8.8078.774-.9549.428-1.8243 1.116-2.5482 1.829z" style="opacity:.8;fill:none;stroke:#fff;stroke-linejoin:round;stroke-linecap:round;stroke-width:3.075"/><path d="m6.837 26.974c-1.0908 1.635-1.7042 3.814-1.0108 5.718.7767 1.905 3.0383 2.726 3.6478 4.723 1.024 2.288 3.218 4.441 5.897 4.227 2.517-.06 4.754-1.902 5.486-4.281.513-1.542.466-3.194.761-4.781.149-.874.01-2.178 1.036-2.525.659.06.1.948.148 1.375-.283 2.468-.254 4.992.127 7.443.531 2.652 2.204 5.167 4.763 6.227.875.201 1.093-.869 1.062-1.533-1.468-1.175-2.941-2.567-3.342-4.486-.533-1.892-.893-3.868-.8-5.839.07-.798.144-1.734.554-2.386 1.102 2.032.517 4.693 2.119 6.524 1.207 1.619 2.628 3.333 4.63 3.936 1.863.543 3.72-.59 4.821-2.037 1.028-1.274 1.338-2.997 2.472-4.214.783-.939 2.069-1.414 2.483-2.651 1.004-2.251.511-5.192-1.542-6.691-2.223-1.903-5.342-1.721-8.073-1.536-1.036.02-2.066.24-3.096.24-.561 0-.645-.653-.02-.671 2.297-.608 4.807.1 7.001-.997 2.297-.803 4.56-2.44 5.136-4.933.613-2.112.04-4.803-1.984-5.941-1.233-.417-2.465-1.022-3.161-2.1793-.813-1.209-1.515-2.5522-2.813-3.3207-1.262-.8466-2.943-1.0077-4.319-.3299-1.618.676-3.121 1.8353-4.003 3.3672-.896 1.7087-1.293 3.6617-1.079 5.5847-.02 1.151.132 2.409-.23 3.482-.523.321-.334-.699-.474-.973-.461-2.672-.17-5.472-1.031-8.0683-1.172-2.1412-3.702-3.6407-6.172-3.0707-1.937.4328-3.374 2.0326-4.441 3.6034-.315.9286-1.246 1.4846-1.8531 2.2126-1.6565 1.19-3.6309 2.512-3.9192 4.707-.2298 1.337-.059 2.833.9796 3.808 1.2822 1.368 3.1724 1.894 4.8987 2.458 2.098.422 4.265.214 6.393.357.447-.08.867.64.304.848-2.84 1.105-6.053-.762-8.8078.774-.9549.428-1.8243 1.116-2.5482 1.829z" fill="#ac3b98"/></g></svg>