<svg height="580" width="580" xmlns="http://www.w3.org/2000/svg"><path d="m364.74 119.76-2.71-1.78c-17.41-34.88-110.34-59.46-127.86-15.87-1.49 8.1-10.59 16.05-19.94 17.39l-.25 146.85c8.22 0 17.26 9.26 17.43 17.49l4.52 237.92c.41 21.69-17.31 21.99-26.75 22.07l-43.55-.1c-9.5 0-28.46-6.26-27.9-24.66l6.54-235.31c.22-8.19 9.23-17.23 17.4-17.34 0 0 0-.1.1-.1l.2-147.38c-14.8-.79-22.74-7.54-27.79-16.43-9.76-17.163-30.45-11.537-48.128-9.987l.05 7.22c-.127 10.897-9.815 19.557-21.887 19.537-12.073-.02-21.765-8.73-21.748-19.503l.04-48.14c.078-10.83 9.766-19.485 21.838-19.407 10.919-.013 19.518 7.19 21.102 16.601 35.033-1.959 29.163-13.419 75.063-15.687l82.49-.764c58.2.65 96.28 38.906 121.74 87.38zm16.96 424c.44-24.43.88-48.85 1.32-73.28 16.22-7.36 32.45-14.72 48.67-22.08 15.06 7.23 30.13 14.45 45.19 21.68l-2.13 74.55c9.91.33 19.83.65 29.74.98 6.8-30.98 13.59-61.95 20.39-92.93-24.36-13.81-48.71-27.63-73.07-41.44 6.61-118.55 13.54-237.08 19.94-355.633-1.14-36.105-60.56-41.837-71.04-8.321-4.06 23.169-.64 47.078-1.27 70.574 1.3 99 2.59 198 3.89 297-22.75 11.77-45.5 23.53-68.25 35.3 5.68 31.05 11.37 62.09 17.05 93.14 9.86.15 19.71.31 29.57.46z" fill="none" opacity=".8" stroke="#fff" stroke-linejoin="round" stroke-width="40"/><g fill="#ac3b98"><path d="m381.7 543.76c.44-24.43.88-48.85 1.32-73.28 16.22-7.36 32.45-14.72 48.67-22.08 15.06 7.23 30.13 14.45 45.19 21.68l-2.13 74.55c9.91.33 19.83.65 29.74.98 6.8-30.98 13.59-61.95 20.39-92.93-24.36-13.81-48.71-27.63-73.07-41.44 6.61-118.55 13.54-237.08 19.94-355.633-1.14-36.105-60.56-41.837-71.04-8.321-4.06 23.169-.64 47.078-1.27 70.574 1.3 99 2.59 198 3.89 297-22.75 11.77-45.5 23.53-68.25 35.3 5.68 31.05 11.37 62.09 17.05 93.14 9.86.15 19.71.31 29.57.46z"/><path d="m364.74 119.76-2.71-1.78c-17.41-34.88-110.34-59.46-127.86-15.87-1.49 8.1-10.59 16.05-19.94 17.39l-.25 146.85c8.22 0 17.26 9.26 17.43 17.49l4.52 237.92c.41 21.69-17.31 21.99-26.75 22.07l-43.55-.1c-9.5 0-28.46-6.26-27.9-24.66l6.54-235.31c.22-8.19 9.23-17.23 17.4-17.34 0 0 0-.1.1-.1l.2-147.38c-14.8-.79-22.74-7.54-27.79-16.43-9.76-17.163-30.45-11.537-48.128-9.987l.05 7.22c-.127 10.897-9.815 19.557-21.887 19.537-12.073-.02-21.765-8.73-21.748-19.503l.04-48.14c.078-10.83 9.766-19.485 21.838-19.407 10.919-.013 19.518 7.19 21.102 16.601 35.033-1.959 29.163-13.419 75.063-15.687l82.49-.764c58.2.65 96.28 38.906 121.74 87.38z" stroke-linecap="round" stroke-linejoin="round" stroke-width="10.608"/></g></svg>