<svg height="580" width="580" xmlns="http://www.w3.org/2000/svg"><g stroke-linecap="round" stroke-linejoin="round"><path d="m240.59 35.598c-12.02.269-24.13 7.107-32.34 13.675-23.51.278-30.89 28.774-26.18 47.762 7.38 26.765 30.83 45.755 52.52 61.285 14.06 10.87 41.36 17.68 49.13-4.01 9.99-29.71 4.65-63.273-7.06-91.742-3.17-6.124-7.61-11.548-12.77-16.105-6.88-8.158-15.07-11.05-23.3-10.865zm102.66 2.287c-12.56.331-25.91 8.545-33.44 18.181-16.51 22.323-16.98 52.494-15.82 79.144.11 17.77 11.6 43.46 33.47 36.19 29.54-10.48 52.65-35.38 67.83-62.16 2.86-6.27 4.4-13.115 4.8-19.986 5.35-25.722-19.3-37.996-36.54-42.057-5.52-6.872-12.77-9.511-20.3-9.312zm-183.67 90.265c-3.45 0-6.89.38-10.28 1-26.25.94-32.3 27.81-32.13 45.52-14.29 18.66 3.58 42.05 21.42 50.07 25.62 10.71 55.03 3.98 80.64-3.5 17.24-4.35 39.44-21.63 27.16-41.14-17.21-26.19-46.91-42.7-76.53-51.06-3.39-.64-6.84-.92-10.28-.89zm247.73 19.98c-23.85.14-46.89 12.22-66.97 24.12-15.62 8.5-32.83 30.74-16.1 46.59 23.18 21.1 56.04 29.72 86.82 30.46 6.88-.44 13.64-2.32 19.88-5.21 25.2-7.43 24.39-34.95 19.83-52.06 9.2-21.64-13.92-39.86-33.19-43.19-3.43-.5-6.86-.73-10.27-.71zm-130.21 36.71c-.48 0-.89 0-1.21.1-1.74 11.25-23.98 43.6-2.18 37.75 7.97-19.74 41.93.95 33.14-22.23.66-7.96-22.57-15.59-29.75-15.62zm-34.38 35.17c-1.3 0-2.66.11-4.08.34-30.84 5.64-57.62 26.56-76.86 50.59-3.82 5.74-6.42 12.25-7.91 18.97-9.36 24.55 13.02 40.58 29.4 47.33 11.63 20.43 40.13 13.09 54.47-.22 19.85-19.42 25.1-49.13 28.19-75.62 2.54-16.47-3.68-41.39-23.21-41.39zm54.08 2.49c-7.48.15-14.3 3.46-18.5 11.83-13.49 28.3-12.23 62.25-4.03 91.92 2.41 6.46 6.17 12.38 10.74 17.52 14.4 21.98 40.51 13.23 55.57 3.91 23.37 2.56 34.12-24.84 31.74-44.26-4.1-27.46-25.1-49.13-44.76-67.16-7.51-7.42-19.83-13.97-30.76-13.76zm62.33 28.22c-2 0-1.96 1.18 1.5 4.46 22.13 24.18 33.4 66.32 8.46 92.49-7.95 17.11-9.72 37.67-16.31 55.84-13.29 44.98-29.83 88.92-46.87 132.59 8.8 6.91 29.93 17.54 38.59 14.56 27.41-71.36 55.14-143.53 67.47-219.29 3.42-24.91.16-52.88-17.61-71.94-4.95 2.2-29.24-8.67-35.23-8.71z" fill="none" opacity=".8" stroke="#fff" stroke-width="40"/><path d="m395.29 109.24c-15.18 26.78-38.29 51.68-67.83 62.16-21.87 7.27-33.36-18.42-33.47-36.19-1.16-26.65-.69-56.82 15.82-79.143 12.04-15.418 39.01-27.196 53.74-8.869 17.24 4.061 41.89 16.333 36.54 42.055-.4 6.871-1.94 13.717-4.8 19.987z" fill="#ac3b98" stroke-width=".161"/><path d="m411.06 249.3c-30.78-.74-63.64-9.36-86.82-30.46-16.73-15.85.48-38.09 16.1-46.59 22.95-13.6 49.76-27.43 77.24-23.41 19.27 3.33 42.39 21.55 33.19 43.19 4.56 17.11 5.37 44.63-19.83 52.06-6.24 2.89-13 4.77-19.88 5.21z" fill="#ac3b98" stroke-width=".161"/><path d="m161.78 270.94c19.24-24.03 46.02-44.95 76.86-50.59 22.74-3.7 30 23.48 27.29 41.05-3.09 26.49-8.34 56.2-28.19 75.62-14.34 13.31-42.84 20.65-54.47.22-16.38-6.75-38.76-22.78-29.4-47.33 1.49-6.72 4.09-13.23 7.91-18.97z" fill="#ac3b98" stroke-width=".161"/><path d="m169.86 129.04c29.62 8.36 59.32 24.87 76.53 51.06 12.28 19.51-9.92 36.79-27.16 41.14-25.61 7.48-55.02 14.21-80.64 3.5-17.84-8.02-35.71-31.41-21.42-50.07-.17-17.71 5.88-44.58 32.13-45.52 6.77-1.25 13.78-1.39 20.56-.11z" fill="#ac3b98" stroke-width=".161"/><path d="m276.66 62.568c11.71 28.469 17.05 62.032 7.06 91.742-7.77 21.69-35.07 14.88-49.13 4.01-21.69-15.53-45.14-34.52-52.52-61.284-4.71-18.988 2.67-47.485 26.18-47.763 13.83-11.062 38.7-22.892 55.64-2.811 5.16 4.557 9.6 9.982 12.77 16.106z" fill="#ac3b98" stroke-width=".161"/><path d="m327.17 198.22c1.28 32.38-38.34 54.84-65.86 38.41-29.15-13.79-30.84-59.41-2.71-75.24 27.99-18.84 69.4 2.57 68.57 36.83z" fill="#ac3b98" stroke-width=".25"/><path d="m274.27 326.25c-8.2-29.67-9.46-63.62 4.03-91.92 10.33-20.6 36.61-10.56 49.26 1.93 19.66 18.03 40.66 39.7 44.76 67.16 2.38 19.42-8.37 46.82-31.74 44.26-15.06 9.32-41.17 18.07-55.57-3.91-4.57-5.14-8.33-11.06-10.74-17.52z" fill="#ac3b98" stroke-width=".161"/></g><path d="m275.89 184.94c-1.74 11.25-23.98 43.6-2.18 37.75 7.97-19.74 41.93.95 33.14-22.23.7-8.49-25.77-16.61-30.96-15.52zm84.74 70.24c22.13 24.18 33.4 66.32 8.46 92.49-7.95 17.11-9.72 37.67-16.31 55.84-13.29 44.98-29.83 88.92-46.87 132.59 8.8 6.91 29.93 17.54 38.59 14.56 27.41-71.36 55.14-143.53 67.47-219.29 3.42-24.91.16-52.88-17.61-71.94-6.6 2.94-47.58-17.37-33.73-4.25z" fill="#ac3b98" stroke-width="34.559"/></svg>