<svg height="580" width="580" xmlns="http://www.w3.org/2000/svg"><g stroke-linecap="round" stroke-linejoin="round"><path d="m298.7 31.9 227.65 261.73v120.35l-234.18 138.47-234.17-264.63.725-125.42z" fill="none" opacity=".8" stroke="#fff" stroke-width="40"/><path d="m69.188 176.65c76.552 86.61 153.092 173.21 229.642 259.82.49 32.14.99 64.28 1.48 96.42" fill="none" stroke="#eacdea" stroke-width="18.4"/><g fill-rule="evenodd"><path d="m515.51 309.14c-68.75 40.28-137.5 80.57-206.25 120.85 17.02-2.54 30.18-16.26 45.67-23.65l160.26-93.93c.11-1.09.21-2.18.32-3.27z" fill="#eacdea" stroke="#eacdea" stroke-width="16.477"/><path d="m73.931 159.89c76.169 86.49 152.339 172.98 228.499 259.48 72.94-41.95 145.88-83.91 218.82-125.87-74.23-85.85-148.46-171.7-222.69-257.545-74.88 41.308-149.75 82.625-224.629 123.935z" fill="#ac3b98" stroke="#ac3b98" stroke-width="10"/><path d="m515.51 349.14c-68.75 40.28-137.5 80.57-206.25 120.85 17.02-2.54 30.18-16.26 45.67-23.65l160.26-93.93c.11-1.09.21-2.18.32-3.27z" fill="#fff" stroke="#eacdea" stroke-width="16.477"/><path d="m61.653 188.6c74.877 85.2 149.757 170.41 224.627 255.61.32 32.28.65 64.55.97 96.83-75.52-85.37-151.04-170.74-226.565-256.1.323-32.11.646-64.23.968-96.34z" fill="#ac3b98" stroke="#ac3b98" stroke-width="10"/><path d="m519.51 327.14c-68.75 40.28-137.5 80.57-206.25 120.85 22.67-5.5 39.97-22.97 60.92-32.6 48.33-28.33 96.67-56.65 145.01-84.98.11-1.09.21-2.18.32-3.27z" fill="#c182b7" stroke="#c182b7" stroke-width="16.477"/><path d="m515.51 389.14c-68.75 40.28-137.5 80.57-206.25 120.85 17.02-2.54 30.18-16.26 45.67-23.65l160.26-93.93c.11-1.09.21-2.18.32-3.27z" fill="#fff" stroke="#eacdea" stroke-width="16.477"/><path d="m519.51 367.14c-68.75 40.28-137.5 80.57-206.25 120.85 22.67-5.5 39.97-22.97 60.92-32.6 48.33-28.33 96.67-56.65 145.01-84.98.11-1.09.21-2.18.32-3.27z" fill="#fff" stroke="#c182b7" stroke-width="16.477"/></g><path d="m519.51 407.14c-68.75 40.28-137.5 80.57-206.25 120.85 22.67-5.5 39.97-22.97 60.92-32.6 48.33-28.33 96.67-56.65 145.01-84.98.11-1.09.21-2.18.32-3.27z" fill="none" stroke="#c182b7" stroke-width="16.477"/></g></svg>