<svg viewBox="0 0 580 580" xmlns="http://www.w3.org/2000/svg"><path d="m356.7 133.4c1.11 6.87-1.16 16.9 1.97 21.87 0 0 37.78-.7 35.73 3.51-2.04 4.21-10.98 16.51-13.42 25.12 1 6.37 6.64 16.19 4.92 20.56-57.34.24-114.69.48-172.03.72-3.62-8.46-7.25-16.92-10.87-25.38 12.57-3.87 25.13-7.73 37.7-11.6 2.3-10.64-4.45-11.39-13.21-9.95-26.05.42-52.09.83-78.14 1.25 5.78 7.52 8.21 19.12 19.04 20.51 9.08.57 9.44 10.04 12.68 16.57 2.93 7.02 9.97 6.18 3.25 12.66-8.99 16.53-23.79 41.75-32.79 58.28-42.91-20.21-105.634 1.01-125.55 54.95-19.9159 53.94 26.526 124.61 84.81 129.68 58.28 5.07 91.09-40.59 99.88-87.76 7.68.84 22.27-4.8 27.07 3.37 6.57 5.34 11.31 10.89 3.71 17.85-3.9 6.66-6.55 15.24-15.96 13.38-10.85-1.16-11.91 3.54-6.54 12.09 14.5-.49 29-.97 43.5-1.46 2.43-10.37-6.91-9.81-14.5-10.87 4.22-5.89 3.98-17.24 11.63-18.92 8.1-1 17.91-2.61 19.66-11.76 5.01-8.82 5.15-19.98 15.36-24.28l109.95-75.54c12.24 18.96-3.2 3.45-25.13 47s5.22 119.05 70.01 134.3c59.81 12.6 117.77-45.57 111.98-106.11-5.8-60.54-73.55-97.95-132.47-77.71-6.68-27.43-19.88-54.14-20.04-82.3 17.77-13.25 23.07-41.53-1.97-50.03z" style="opacity:.8;fill:none;stroke:#fff;stroke-linejoin:round;stroke-linecap:round;stroke-width:40"/><g fill="none" stroke="#ac3b98"><g stroke-width="27.19"><path d="m33.748 356.26c-2.02 53.17 56.06 95.89 106.202 78.32 51.35-13.79 75.1-81.88 43.43-124.61-28.35-44.99-100.402-47.54-131.872-4.66-11.442 14.34-17.801 32.61-17.759 50.95"/><path d="m385.08 354.66c-2.02 53.17 56.06 95.89 106.2 78.32 51.35-13.79 75.1-81.88 43.43-124.61-28.35-44.99-100.4-47.54-131.87-4.66-11.44 14.34-17.8 32.61-17.76 50.95z"/></g><path d="m402.11 215.2c-70.27.35-140.53.71-210.8 1.06-24.84 46.14-49.69 92.27-74.53 138.41h142.67c49.68-33.72 99.37-67.43 149.05-101.15" stroke-linejoin="round" stroke-width="21.833"/></g><g fill-rule="evenodd"><g fill="#ac3b98"><path d="m394.01 132.25c30.23-7.36 45.23 39.3 14.89 49.39-3.88 16.95 10.72 37.65 13.43 56.38 9.54 29.42 15.22 60.34 27.75 88.62 7.5 11.54 42.64 31.34 13.79 38.69-27.35-4.5-43.05-31.26-48.21-56.38-11.73-41.07-24.19-81.98-35.4-123.17-5.65-15.21 31.81-29.43 3.37-29.06-9.82 0-19.64-.1-29.46-.1 0-8.15-.1-16.31-.1-24.46 13.3 0 26.72-.1 39.94.1z" stroke-linecap="round" stroke-width="25"/><path d="m256.72 350.33c-24.09-58.97-48.19-117.94-72.28-176.91" stroke="#ac3b98" stroke-width="26.15"/></g><g stroke="#ac3b98"><path d="m281.56 305.16c-14.56 33.88-29.11 67.76-43.67 101.64" fill="#fff" stroke-linecap="round" stroke-width="9.544"/><path d="m235.54 354.93c-1.19 18.6 29.06 27.92 41.22 12.69 13.79-13.71-2.62-37.32-22.7-32.7-10.55 1.74-18.69 10.53-18.52 20.01z" fill="#ac3b98" stroke-width="8.677"/><g stroke-linecap="round"><path d="m301 305.21c-12.86.12-25.71.23-38.57.35" fill="#fff" stroke-width="13.336"/><path d="m257.56 405.34c-12.86.12-25.72.23-38.58.35" fill="#ac3b98" stroke-width="13.335"/></g><path d="m149.06 157.61h90.72c15.37 16.48-26.53 17.41-37.13 22.2-17.67 6.18-44.9 7-52.22-14.35l-.9-3.69z" fill="#ac3b98" stroke-width=".739"/></g></g></svg>