<svg height="580" width="580" xmlns="http://www.w3.org/2000/svg"><g stroke-linecap="round"><path d="m195.21 110.13c-22 .28-44.04 5.47-64.39 15.8-.23.11-.44.24-.67.34-.3.16-.61.28-.92.43-86.042 40.89-110.679 148.91-70.688 228.53 55.548 116.23 197.648 155.98 311.528 119.27 104.42-28.82 191.49-131.63 169.87-247.75-.14-.72-.22-1.44-.37-2.16h-.11c-12.17-80.68-94.96-129.12-171.2-110.13-27.41 6.82-51.82 18.16-73.62 32.64-27.82-24.67-63.52-37.41-99.48-36.97zm1.49 71.49c15.46.1 31 4.57 43.7 13.09-35.32 39.3-65.49 95.06-85.15 139.01-5.46 11.64-4.22 25.31 3.26 35.77 7.47 10.44 20.03 16.08 32.8 14.68 12.78-1.41 23.81-9.59 28.84-21.41 18.31-40.93 45.65-89.47 74.32-120.99 26.4 28.08 55.76 73.8 68.05 109.62 3.98 12.2 14.21 21.29 26.8 23.82 12.58 2.52 25.55-1.91 33.93-11.64 8.38-9.72 10.87-23.19 6.51-35.27-15.2-44.33-48.35-97.07-79.39-131.12 11.1-5.89 22.75-10.63 35.11-13.71 4.57-1.13 9.22-1.73 13.89-1.85 32.68-.82 65.77 22.32 70.09 54.57l.14 1.1.22 1.09c14.42 72.98-48.02 148.12-120.1 168.02l-.73.21-.73.21c-82.14 26.47-188.71-5.17-225.84-82.87l-.16-.31-.15-.33c-22.758-45.32-7.03-111.83 38.46-132.8l.8-.37.79-.42c10.54-5.51 22.51-8.15 34.54-8.1z" fill="none" opacity=".8" stroke="#fff" stroke-linejoin="round" stroke-width="42.34"/><g fill-rule="evenodd" stroke-width="72.954"><path d="m195.39 110.31c-22 .27-44.03 5.47-64.39 15.8-.23.11-.44.23-.67.34-.3.15-.62.27-.92.42-86.044 40.9-110.681 148.92-70.69 228.53 55.54 116.24 197.64 155.98 311.53 119.28 104.43-28.83 191.49-131.64 169.86-247.75-.13-.72-.22-1.44-.36-2.16h-.1c-12.14-80.69-94.93-129.12-171.17-110.14-27.41 6.82-51.82 18.16-73.62 32.65-27.82-24.67-63.52-37.42-99.47-36.97zm204.16 71.48c32.68-.81 65.77 22.33 70.08 54.58l.15 1.1.22 1.1c14.42 72.96-48.02 148.1-120.1 168l-.73.22-.73.21c-82.14 26.47-188.72-5.17-225.85-82.88l-.15-.3-.15-.34c-22.764-45.31-7.03-111.82 38.46-132.8l.8-.36.79-.43c24.08-12.59 55.66-10.16 78.25 5-35.33 39.3-61.28 86.59-80.93 130.54-5.46 11.64-4.21 25.32 3.27 35.77 7.48 10.46 20.01 16.07 32.79 14.67s23.81-9.59 28.85-21.41c18.29-40.92 41.4-80.99 70.08-112.51 26.39 28.08 47.29 61.09 59.58 96.91 3.98 12.2 14.22 21.31 26.8 23.84 12.59 2.52 25.55-1.93 33.93-11.65s10.87-23.2 6.52-35.27c-15.21-44.34-39.89-84.37-70.94-118.42 11.11-5.9 22.77-10.64 35.12-13.71 4.57-1.14 9.22-1.74 13.89-1.86z" fill="#fff"/><path d="m195.21 110.13c-21.99.27-44.03 5.48-64.39 15.81-.23.1-.44.23-.67.33-.3.16-.61.27-.91.43-86.052 40.89-110.689 148.91-70.698 228.53 55.538 116.23 197.638 155.97 311.528 119.27 104.43-28.83 191.49-131.63 169.87-247.75-.14-.72-.23-1.43-.37-2.16h-.1c-12.13-80.69-94.92-129.115-171.17-110.14-27.4 6.83-51.81 18.17-73.62 32.66-27.82-24.68-63.52-37.42-99.47-36.98zm211.04 20.5c2.72-.19 5.27 1.54 6.03 4.26l6.04 21.57c0 .12.1.26.12.39.76 3.14-1.19 6.31-4.33 7.07s-6.3-1.18-7.06-4.33l-6.04-21.56c-.86-3.11.94-6.32 4.06-7.19.38-.11.8-.18 1.18-.21zm-169.47 13.61c3.23-.13 5.96 2.38 6.1 5.61.13 3.23-2.38 5.95-5.61 6.09l-22.32 1.7c-3.23.25-6.04-2.16-6.28-5.39-.24-3.22 2.17-6.03 5.39-6.27l22.33-1.71h.39zm-108.46 10.94c.39 0 .77.1 1.16.15l21.87 4.9c.13 0 .24.1.36.1 3.13.81 5.03 4.03 4.21 7.15-.82 3.13-4.03 4.99-7.16 4.18l-21.84-4.94c-3.15-.71-5.13-3.82-4.42-6.97.63-2.76 3.1-4.63 5.82-4.57zm206.75 6.45c1.88 0 3.72.94 4.85 2.62 1.79 2.69 1.07 6.31-1.62 8.11l-18.21 13.06c-2.63 1.89-6.25 1.29-8.14-1.34-1.88-2.62-1.28-6.28 1.34-8.16l18.19-13.07c.1-.1.19-.14.3-.21 1.01-.67 2.17-1.01 3.29-1.01zm161.01 13.5c3.22-.14 5.95 2.37 6.09 5.6.13 3.23-2.38 5.96-5.61 6.09l-22.32 1.71c-3.22.24-6.03-2.17-6.28-5.39-.24-3.22 2.17-6.03 5.39-6.28l22.33-1.7h.4zm-299.38 6.49c15.46.1 31 4.57 43.71 13.09-35.32 39.31-65.51 95.06-85.16 139.01-5.46 11.64-4.22 25.31 3.26 35.76 7.47 10.46 20.02 16.08 32.8 14.68 12.78-1.39 23.81-9.58 28.84-21.41 18.3-40.92 45.64-89.46 74.32-120.98 26.39 28.09 55.76 73.79 68.05 109.62 3.98 12.2 14.22 21.29 26.8 23.82 12.58 2.52 25.55-1.92 33.93-11.64s10.87-23.19 6.52-35.27c-15.21-44.33-48.36-97.07-79.41-131.12 11.12-5.89 22.77-10.63 35.12-13.71 4.57-1.13 9.22-1.74 13.89-1.85 32.68-.81 65.77 22.32 70.08 54.58l.16 1.09.21 1.1c14.42 72.96-48.02 148.11-120.1 168.01l-.73.21-.73.21c-82.14 26.47-188.72-5.17-225.85-82.87l-.15-.31-.15-.33c-22.762-45.31-7.03-111.83 38.47-132.8l.79-.37.79-.42c10.54-5.51 22.52-8.15 34.54-8.1zm-104.654 39.23c1.802.1 3.551 1 4.63 2.62 1.793 2.68 1.075 6.33-1.615 8.13l-18.183 13.06c-2.626 1.89-6.281 1.26-8.163-1.37-1.883-2.62-1.285-6.28 1.34-8.16l18.184-13.04c.104-.1.225-.17.335-.24.84-.56 1.771-.89 2.71-.97h.762zm268.914 18.3c2.5 0 4.79 1.66 5.55 4.17.93 3.1-.84 6.38-3.93 7.31l-21.2 7.16c-3.06 1.04-6.4-.59-7.43-3.65-1.04-3.06.62-6.37 3.68-7.4l21.2-7.19c.12-.1.24-.1.37-.12.58-.18 1.19-.28 1.76-.28zm-107.79 3.44c3.23-.13 5.96 2.38 6.09 5.61.14 3.23-2.37 5.95-5.6 6.09l-22.33 1.7c-3.22.25-6.03-2.17-6.27-5.39-.25-3.22 2.17-6.03 5.39-6.27l22.32-1.71h.4zm246.53 2.32c1.13 0 2.27.29 3.29.94l18.85 12.09c.12.1.23.14.34.22 2.66 1.84 3.33 5.47 1.49 8.13s-5.5 3.33-8.16 1.49l-18.83-12.09c-2.71-1.75-3.51-5.38-1.76-8.1 1.09-1.7 2.9-2.64 4.78-2.68zm-122.78 60.18c.39 0 .77.1 1.16.16l21.84 4.93c.13 0 .27 0 .39.1 3.13.82 5 4.03 4.18 7.16s-4 4.99-7.13 4.17l-21.84-4.9c-3.15-.71-5.13-3.86-4.42-7.01.63-2.76 3.1-4.62 5.82-4.57zm-186.1 5.15c1.13 0 2.27.26 3.29.91l18.86 12.1c.11.1.22.13.33.21 2.66 1.84 3.3 5.5 1.46 8.16s-5.47 3.33-8.13 1.5l-18.85-12.13c-2.72-1.74-3.49-5.35-1.74-8.07 1.09-1.7 2.9-2.64 4.78-2.68zm-98.256 1.34c3.229-.13 5.957 2.38 6.091 5.61.135 3.23-2.374 5.95-5.604 6.09l-22.326 1.7c-3.221.25-6.03-2.17-6.274-5.39s2.169-6.03 5.391-6.27l22.326-1.71h.396zm405.366 14.5c1.88 0 3.73.94 4.85 2.62 1.79 2.69 1.04 6.31-1.65 8.1l-18.18 13.07c-2.63 1.88-6.28 1.28-8.17-1.34-1.88-2.63-1.28-6.28 1.35-8.17l18.21-13.06c.1-.1.19-.14.3-.22 1.01-.67 2.17-1.01 3.29-1zm-381.91 39.29c2.49.1 4.74 1.77 5.45 4.3l6.03 21.56c0 .13.1.24.12.36.76 3.15-1.18 6.31-4.32 7.07-3.15.76-6.31-1.15-7.07-4.29l-6.03-21.57c-.87-3.11.97-6.35 4.08-7.22.58-.16 1.16-.23 1.74-.21zm323.59 13.34c3.22-.14 5.94 2.38 6.09 5.61l1 22.35v.4c0 3.23-2.58 5.87-5.81 5.91-3.24 0-5.88-2.56-5.91-5.79l-.98-22.36c-.14-3.22 2.38-5.98 5.61-6.12zm-265.3 44.53c.39 0 .8.1 1.19.15l21.84 4.94c.13 0 .27.1.4.1 3.12.82 4.99 4 4.17 7.13-.82 3.12-4.03 4.99-7.16 4.17l-21.84-4.9c-3.15-.72-5.13-3.86-4.41-7.01.62-2.76 3.09-4.62 5.81-4.57zm204.26 9.99c3.23-.13 5.95 2.38 6.09 5.61.13 3.23-2.38 5.95-5.61 6.09l-22.32 1.7c-3.22.25-6.03-2.17-6.28-5.39-.24-3.22 2.17-6.03 5.4-6.27l22.32-1.71h.4zm-117.57 5.67c1.12 0 2.27.26 3.29.91l18.85 12.09c.12.1.23.14.34.22 2.65 1.83 3.3 5.5 1.46 8.16s-5.48 3.33-8.13 1.49l-18.86-12.12c-2.72-1.75-3.48-5.36-1.73-8.07 1.09-1.7 2.9-2.64 4.78-2.68z" fill="#ac3b98"/></g></g></svg>