<svg enable-background="new 0 0 580 580" height="580" viewBox="0 0 580 580" width="580" xmlns="http://www.w3.org/2000/svg"><path d="m290.03 30.895c-12.36.193-24.78 8.066-22.46 22.494.29 53.591-.5 107.241.33 160.801h-185.857c-13.716 1.48-29.506-3.8-41.34 4.65-8.528 12.01-3.128 27.99-4.65 41.88-.678 12.38-1.299 31.47 15.879 31.64h460.368c12.38.68 31.47 1.3 31.65-15.87v-30.65c.68-12.39 1.3-31.48-15.88-31.65h-215.49c0-.29-.1-.58-.15-.88v-164.224c-.63-12.555-11.49-18.362-22.4-18.191z" style="opacity:.8;fill:none;stroke:#fff;stroke-linejoin:round;stroke-linecap:round;stroke-width:40"/><path d="m498.18 253.27c-7.98 90.46-15.95 180.93-23.93 271.39-122.44 0-244.87 0-367.31 0-8.372-90.46-16.744-180.93-25.122-271.39z" style="opacity:.8;fill:none;stroke:#fff;stroke-linejoin:round;stroke-linecap:round;stroke-width:64;stroke-miterlimit:10"/><path d="m498.18 253.27c-7.98 90.46-15.95 180.93-23.93 271.39-122.44 0-244.87 0-367.31 0-8.372-90.46-16.744-180.93-25.122-271.39z" fill="#eacdea" stroke="#ac3b98" stroke-miterlimit="10" stroke-width="23.931"/><path d="m543.95 276.49c-.18 17.17-19.27 16.55-31.65 15.87-153.46 0-306.91 0-460.369 0-17.178-.17-16.556-19.26-15.878-31.64 1.522-13.89-3.877-29.87 4.651-41.88 11.834-8.45 27.623-3.17 41.339-4.65h446.027c17.18.17 16.56 19.26 15.88 31.65z" fill="#ac3b98"/><path d="m312.43 49.086c-1.35-26.784-49.23-22.856-44.86 4.302.3 56.452-.61 112.972.46 169.382 6.74 24.19 49.66 16.37 44.4-9.46 0-54.74 0-109.48 0-164.224z" fill="#ac3b98"/><path d="m306.6 254.12c.98 16.82-24.64 22.98-31.4 7.52-8.8-15.07 12.79-32.25 25.49-20.22 3.71 3.1 5.94 7.87 5.91 12.7z" fill="#eacdea"/><g fill="none" stroke="#ac3b98" stroke-linecap="round" stroke-miterlimit="10" stroke-width="17.948"><path d="m177.83 336.23v141.77"/><path d="m252.61 336.23v141.77"/><path d="m327.39 336.23v141.77"/><path d="m402.17 336.23v141.77"/></g></svg>