<svg height="580" width="580" xmlns="http://www.w3.org/2000/svg"><path d="m472.7 461.15c-46.42-50.56-93.66-100.48-139.58-151.44-14.54-21.25-23.48-48.55-11.68-73.25 5.72-14.25 8.68-31.15 22.36-40.05 36.63-32.82 73.52-65.36 109.99-98.35 17.79-17.771.76-48.229-22.06-49.807-21.54-2.593-34.1 17.726-49.22 29.271-28.41 25.346-56.83 50.696-85.24 76.046-16.66-1.63-33.53-.37-50.28-.77-30.03-38.05-58.99-77.033-89.7-114.488-20.33-19.653-60.943.735-54.14 29.166 6.84 16.767 20.98 29.409 31.22 44.232 21.06 27.08 42.11 54.17 63.17 81.25-.31 45.98.62 92.2-.46 138.04-23.57 61.78-47.52 123.43-70.84 185.3-7.95 28.93 33.46 48.22 53.91 29.5 11.94-12.31 14.36-30.45 21.46-45.66 18.5-48.28 37-96.55 55.5-144.83h31.39c45.7 49.24 91.1 98.77 136.98 147.83 20.43 19.97 60.75-.93 54.03-29.3-1.09-4.73-3.5-9.13-6.81-12.69z" fill="none" opacity=".8" stroke="#fff" stroke-width="40"/><g fill="#ac3b98"><path d="m472.7 461.15c-46.42-50.56-93.66-100.48-139.58-151.44-14.54-21.25-23.48-48.55-11.68-73.25 5.72-14.25 8.68-31.15 22.36-40.05 36.63-32.82 73.52-65.36 109.99-98.35 17.79-17.771.76-48.229-22.06-49.807-21.54-2.593-34.1 17.726-49.22 29.271-28.41 25.346-56.83 50.696-85.24 76.046-16.66-1.63-33.53-.37-50.28-.77-30.03-38.05-58.99-77.033-89.7-114.488-20.33-19.653-60.943.735-54.14 29.166 6.84 16.767 20.98 29.409 31.22 44.232 21.06 27.08 42.11 54.17 63.17 81.25-.31 45.98.62 92.2-.46 138.04-23.57 61.78-47.52 123.43-70.84 185.3-7.95 28.93 33.46 48.22 53.91 29.5 11.94-12.31 14.36-30.45 21.46-45.66 18.5-48.28 37-96.55 55.5-144.83h31.39c45.7 49.24 91.1 98.77 136.98 147.83 20.43 19.97 60.75-.93 54.03-29.3-1.09-4.73-3.5-9.13-6.81-12.69z"/><path d="m336.55 77.888c.79 39.172-47.84 63.202-80.51 44.592-30.94-13.55-38.35-59.431-11.82-81.043 28.53-28.004 84.86-12.774 91.53 27.814l.66 5.043z"/></g></svg>