<svg height="580" width="580" xmlns="http://www.w3.org/2000/svg"><path d="m82.438 65.406v454.974h411.782c0-151.66 0-303.32 0-454.974-137.26 0-274.52 0-411.782 0zm203.562 132.684c55.35-1.56 104.29 50.04 99.9 105.21-1.27 55.35-55.28 101.52-110.12 94.37-55.22-4.09-98.56-60.35-88.69-114.74 6.58-47.73 50.69-85.65 98.91-84.84z" fill="none" opacity=".8" stroke="#fff" stroke-width="61"/><g stroke-linecap="round"><path d="m386.02 298.15c2.47 64.87-68.4 117.01-129.59 95.57-62.67-16.83-91.65-99.92-53.01-152.07 34.6-54.9 122.54-58.02 160.94-5.69 13.95 17.5 21.73 39.8 21.66 62.19z" fill="#eacdea" stroke-linejoin="round" stroke-width="20"/><path d="m82.438 65.406v454.974h411.782c0-151.66 0-303.32 0-454.974-137.26 0-274.52 0-411.782 0zm203.562 132.684c55.35-1.56 104.29 50.04 99.9 105.21-1.27 55.35-55.28 101.52-110.12 94.37-55.22-4.09-98.56-60.35-88.69-114.74 6.58-47.73 50.69-85.65 98.91-84.84z" fill="#fff" stroke="#ac39ac" stroke-linejoin="round" stroke-width="20.955"/><path d="m82.438 65.406v454.974h411.782c0-151.66 0-303.32 0-454.974-137.26 0-274.52 0-411.782 0zm203.562 132.684c55.35-1.56 104.29 50.04 99.9 105.21-1.27 55.35-55.28 101.52-110.12 94.37-55.22-4.09-98.56-60.35-88.69-114.74 6.58-47.73 50.69-85.65 98.91-84.84z" fill="#ac39ac" opacity=".1" stroke="#ac39ac" stroke-linejoin="round" stroke-width="20.955"/><path d="m82.438 65.406v454.974h411.782c0-151.66 0-303.32 0-454.974-137.26 0-274.52 0-411.782 0zm203.562 132.684c55.35-1.56 104.29 50.04 99.9 105.21-1.27 55.35-55.28 101.52-110.12 94.37-55.22-4.09-98.56-60.35-88.69-114.74 6.58-47.73 50.69-85.65 98.91-84.84z" fill="#c182b7" stroke="#ac39ac" stroke-linejoin="round" stroke-width="20.955"/><path d="m386.03 298.16c2.46 64.88-68.41 117.02-129.6 95.57-62.67-16.83-91.65-99.92-53.01-152.06 34.6-54.91 122.54-58.02 160.93-5.7 13.97 17.51 21.74 39.8 21.68 62.19z" fill="none" stroke="#ac39ac" stroke-linejoin="round" stroke-width="20.956"/><path d="m190.33 248.17v104.52" fill="none" stroke="#ac39ac" stroke-width="19.557"/><path d="m378.2 300.43c-6.95 0-13.89 0-20.84 0" fill="none" stroke="#ac39ac" stroke-linejoin="round" stroke-width="41.703"/><path d="m392.73 118.07c.6 10.95-17.09 12.47-18.37 1.56-2.51-11.08 15.56-15.15 18.04-4.04.22.8.33 1.64.33 2.48z" fill="#ac39ac" stroke="#ac39ac" stroke-linejoin="round" stroke-width="21.326"/><path d="m450.01 118.07c.59 10.95-17.1 12.47-18.38 1.56-2.5-11.08 15.57-15.15 18.04-4.04.23.8.34 1.64.34 2.48z" fill="#ac39ac" stroke="#ac39ac" stroke-linejoin="round" stroke-width="21.326"/><path d="m335.45 118.07c.6 10.95-17.09 12.47-18.37 1.56-2.51-11.08 15.57-15.15 18.04-4.04.22.8.33 1.64.33 2.48z" fill="#ac39ac" stroke="#ac39ac" stroke-linejoin="round" stroke-width="21.326"/></g></svg>