<?xml version="1.0" encoding="UTF-8"?>
<svg width="580" height="580" version="1.0" xmlns="http://www.w3.org/2000/svg"><g transform="matrix(1.18 0 0 1.21 65.8 35.4)" fill="none" opacity=".8" stroke="#fff" stroke-linejoin="round" stroke-width="41.8"><path d="m291 377c-4.21-2.68-9.8-1.44-12.5 2.77-5.8 9.1-25.2 4.14-37.7 0.732-0.268-0.073-181-50.4-181-50.4-4.81-1.34-9.8 1.47-11.1 6.29-1.34 4.81 1.48 9.8 6.29 11.1l32.2 8.96c-1.66 1.94-2.94 4.25-3.67 6.87-2.68 9.62 2.95 19.6 12.6 22.3 9.62 2.68 19.6-2.95 22.3-12.6 0.729-2.62 0.825-5.26 0.408-7.78l91.2 25.4c-1.65 1.94-2.94 4.25-3.67 6.87-2.68 9.62 2.95 19.6 12.6 22.3 9.62 2.68 19.6-2.95 22.3-12.6 0.699-2.51 0.82-5.04 0.467-7.47 0.057 0.015 0.106 0.03 0.166 0.048 13.3 3.71 40 8.24 51.8-10.3 2.68-4.21 1.44-9.8-2.77-12.5z"/><path d="m194 80.7c4.88 3.28 10.4 5.55 16.2 6.68l0.058 0.012c14.3 2.77 29.3-1.83 39.6-12.1 10.4-10.4 15-25.8 12-40.3-2.96-14.1-12.9-26.1-26.2-31.6-13.6-5.65-29.4-4.08-41.6 4.14-12.2 8.22-19.6 22.3-19.5 37 0.139 14.4 7.57 28.1 19.5 36.1z"/><path d="m388 74.8c-0.913-9.86-9.65-17.1-19.5-16.2l-79.8 7.39c-4.51 0.528-18 5.75-29.7 9.79-1.69 2.52-3.62 4.88-5.78 7.04-11.1 11.1-27.4 16.1-42.8 13.1l-0.063-0.012c-6.24-1.22-12.2-3.68-17.5-7.22-2.75-1.85-5.27-4-7.55-6.36-26.4-2.32-57-4.77-77.2-1.46l-67 22.7c-6.82 2.3-11 9.41-9.46 16.6 1.66 7.77 9.3 12.7 17.1 11.1l65-13.8 50 6.7s-19.6 73.4-19.6 73.4c-8.51 34.6 21.4 59.8 21.4 59.8l-37.1 58.7c-4.96 7.89-3.08 18.4 4.56 24 7.99 5.86 19.2 4.13 25.1-3.86l50.1-68.3c2.78-3.81 4.09-8.48 3.76-13.1l25.5 4.76-44.9 70.1c-5.1 7.98-3.13 18.7 4.67 24.3 8.06 5.76 19.3 3.9 25-4.15l66.7-93.3c1.49-2.1 2.67-4.6 3.29-7.27 2.57-11-4.28-22-15.3-24.6l-0.977-0.226-42.8-9.98 20.2-75.5c0.95-3.55 1.44-7.12 1.52-10.6 0.483-0.223 0.964-0.457 1.44-0.717l41-22.5 75.3-10.7c9.39-1.35 16.2-9.85 15.3-19.4z"/></g><g transform="matrix(1.18 0 0 1.21 65.8 35.4)" fill="#2f922e" stroke-width=".94"><path d="m291 377c-4.21-2.68-9.8-1.44-12.5 2.77-5.8 9.1-25.2 4.14-37.7 0.732-0.268-0.073-181-50.4-181-50.4-4.81-1.34-9.8 1.47-11.1 6.29-1.34 4.81 1.48 9.8 6.29 11.1l32.2 8.96c-1.66 1.94-2.94 4.25-3.67 6.87-2.68 9.62 2.95 19.6 12.6 22.3 9.62 2.68 19.6-2.95 22.3-12.6 0.729-2.62 0.825-5.26 0.408-7.78l91.2 25.4c-1.65 1.94-2.94 4.25-3.67 6.87-2.68 9.62 2.95 19.6 12.6 22.3 9.62 2.68 19.6-2.95 22.3-12.6 0.699-2.51 0.82-5.04 0.467-7.47 0.057 0.015 0.106 0.03 0.166 0.048 13.3 3.71 40 8.24 51.8-10.3 2.68-4.21 1.44-9.8-2.77-12.5z"/><path d="m194 80.7c4.88 3.28 10.4 5.55 16.2 6.68l0.058 0.012c14.3 2.77 29.3-1.83 39.6-12.1 10.4-10.4 15-25.8 12-40.3-2.96-14.1-12.9-26.1-26.2-31.6-13.6-5.65-29.4-4.08-41.6 4.14-12.2 8.22-19.6 22.3-19.5 37 0.139 14.4 7.57 28.1 19.5 36.1z"/><path d="m388 74.8c-0.913-9.86-9.65-17.1-19.5-16.2l-79.8 7.39c-4.51 0.528-18 5.75-29.7 9.79-1.69 2.52-3.62 4.88-5.78 7.04-11.1 11.1-27.4 16.1-42.8 13.1l-0.063-0.012c-6.24-1.22-12.2-3.68-17.5-7.22-2.75-1.85-5.27-4-7.55-6.36-26.4-2.32-57-4.77-77.2-1.46l-67 22.7c-6.82 2.3-11 9.41-9.46 16.6 1.66 7.77 9.3 12.7 17.1 11.1l65-13.8 50 6.7s-19.6 73.4-19.6 73.4c-8.51 34.6 21.4 59.8 21.4 59.8l-37.1 58.7c-4.96 7.89-3.08 18.4 4.56 24 7.99 5.86 19.2 4.13 25.1-3.86l50.1-68.3c2.78-3.81 4.09-8.48 3.76-13.1l25.5 4.76-44.9 70.1c-5.1 7.98-3.13 18.7 4.67 24.3 8.06 5.76 19.3 3.9 25-4.15l66.7-93.3c1.49-2.1 2.67-4.6 3.29-7.27 2.57-11-4.28-22-15.3-24.6l-0.977-0.226-42.8-9.98 20.2-75.5c0.95-3.55 1.44-7.12 1.52-10.6 0.483-0.223 0.964-0.457 1.44-0.717l41-22.5 75.3-10.7c9.39-1.35 16.2-9.85 15.3-19.4z"/></g></svg>
