<?xml version="1.0" encoding="UTF-8"?>
<svg width="580" height="580" enable-background="new 0 0 100 100" version="1.1" viewBox="0 0 580 580" xml:space="preserve" xmlns="http://www.w3.org/2000/svg"><path d="m295 27c-37.4-2.03-63 45.4-40.8 75.6 19.1 31.9 72.1 27.1 85.2-7.67 14.3-30.8-10.5-68.6-44.4-67.9zm-53.2 86c-22 0.66-37.5 18.6-56.1 28.3-27.6 18.3-56.7 34.8-83.4 54.2-7.36 15.6-3.13 34.2-4.84 51.2-0.176 20.3-1.42 42.2-0.973 61.4 15.7 18.3-7.23 4.33-17.4 2.55-7.99-0.118-22.5-12.8-25.5-3.25-0.488 8.1-12.9 22.3 1.29 22.9 133 44.9 268 89.3 402 134 0.535-8.03 11.4-21.2 5.23-25.9-26.7-9.3-53.7-17.9-80.6-26.9 26.8-0.518 35.8-34.4 19.1-52.4-16-29.3-32-58.6-48-87.8-14.8-21.2-40.2-8.33-60.3-5.09-14.9 3.25-29.8 6.5-44.7 9.75 12-38 25.3-75.6 36.5-114 4.69-24.8-16.8-49.7-41.9-49.1zm-55.3 72.8c-12.1 37.9-25.8 75.5-36.9 114-9 14.8 19.7 41.8 14.6 40.1-16.5-5.48-33-11-49.5-16.4 21.2-0.55 19.4-23 19.5-37.9 0.592-22.4 1.18-44.8 1.78-67.2 16.8-10.7 33.7-21.5 50.5-32.2zm127 136c15.1 26.5 28.2 54.3 44.7 79.9 4.68 5.87-17.4-4.74-24.2-6.01-48.5-16.1-96.9-32.2-145-48.4 41.6-8.5 83.3-17 125-25.5zm178 30.2c-0.077 8.83-14.8 24.6-1.64 27.1 39.4 16.2 53.5 72.4 23.7 104-19 23-53 28.5-79.1 15.2-64.8-22.9-131-42.5-196-64.8-67.3-22.3-135-44.6-202-66.9-0.519 9.64-16.7 27.1 0.742 27.8 134 44.6 268 89.4 403 134 53.9 15.8 114-28.4 115-84.7 2.32-40.3-24.7-79.7-63.4-91.7z" fill="none" opacity=".8" stroke="#fff" stroke-linecap="round" stroke-linejoin="round" stroke-width="50"/><g display="none"><rect x="-192" width="185" height="99" display="inline"/><rect y="-36" width="100" height="30" display="inline"/><g fill="#000000"><text transform="translate(66,-19.5)" display="inline" font-family="Helvetica" font-size="2.4px">http://thenounproject.com</text><text transform="translate(7.17 -24.5)" display="inline" font-family="Helvetica-Bold"><tspan x="0" y="0" font-size="6.16px">The Noun Project</tspan><tspan x="1.12" y="4.8000002" font-size="4px">Icon Template</tspan></text><text transform="translate(-178 10.5)" display="inline" font-family="Helvetica-Bold" font-size="6.16px">Reminders</text></g><line x1="8" x2="18" y1="-14.5" y2="-14.5" display="inline" stroke="#fff" stroke-miterlimit="10"/><line x1="-179" x2="-162" y1="16.5" y2="16.5" display="inline" stroke="#fff" stroke-miterlimit="10"/><g display="inline"><rect x="-171" y="31.3" width="8.72" height="8.64"/><path d="m-164 42.3h4.75v-4.7h-4.75zm5.19 0.437h-5.63v-5.58h5.63zm-6.96 1.31h8.28v-8.2h-8.28zm8.72 0.438h-9.16v-9.08h9.16z"/><polygon points="-158 35.8 -158 35.9 -166 44.1 -166 44"/></g><rect x="-179" y="58" width="35" height="32.5" display="inline" fill="none"/><text transform="translate(-179 60.2)" display="inline" fill="#000000"><tspan x="0" y="0" font-family="Helvetica-Bold" font-size="3px">Strokes</tspan><tspan x="0" y="5" font-family="Helvetica" font-size="2.4px">Try to keep strokes at 4px</tspan><tspan x="0" y="10" font-family="Helvetica" font-size="2.4px">Minimum stroke weight is 2px</tspan><tspan x="0" y="14.5" font-family="Helvetica" font-size="2.4px">For thicker strokes use even </tspan><tspan x="0" y="17.5" font-family="Helvetica" font-size="2.4px">numbers: 6px, 8px etc.</tspan><tspan x="0" y="22" font-family="Helvetica-Bold" font-size="2.4px">Remember to expand strokes </tspan><tspan x="0" y="25" font-family="Helvetica-Bold" font-size="2.4px">before saving as an SVG </tspan></text><rect x="-136" y="58" width="35" height="32.5" display="inline" fill="none"/><text transform="translate(-136 60.2)" display="inline" fill="#000000"><tspan x="0" y="0" font-family="Helvetica-Bold" font-size="3px">Size</tspan><tspan x="0" y="5" font-family="Helvetica" font-size="2.4px">Cannot be wider or taller than </tspan><tspan x="0" y="8.5" font-family="Helvetica" font-size="2.4px">100px (artboard size)</tspan><tspan x="0" y="13.5" font-family="Helvetica" font-size="2.4px">Scale your icon to fill as much of </tspan><tspan x="0" y="16.5" font-family="Helvetica" font-size="2.4px">the artboard as possible</tspan></text><rect x="-94" y="58" width="35" height="32.5" display="inline" fill="none"/><text transform="translate(-94 60.2)" display="inline" fill="#000000"><tspan x="0" y="0" font-family="Helvetica-Bold" font-size="3px">Ungroup</tspan><tspan x="0" y="5" font-family="Helvetica" font-size="2.4px">If your design has more than one </tspan><tspan x="0" y="8" font-family="Helvetica" font-size="2.4px">shape, make sure to ungroup</tspan></text><rect x="-50" y="58" width="35" height="32.5" display="inline" fill="none"/><g fill="#000000"><text transform="translate(-50 60.2)" display="inline"><tspan x="0" y="0" font-family="Helvetica-Bold" font-size="3px">Save as</tspan><tspan x="0" y="5" font-family="Helvetica" font-size="2.4px">Save as .SVG and make sure </tspan><tspan x="0" y="8" font-family="Helvetica" font-size="2.4px">“Use Artboards” is checked</tspan></text><text transform="matrix(1.01 0 0 1 -126 30.6)" display="inline" font-family="Helvetica" font-size="2.57px">100px</text><text transform="matrix(1.01 0 0 1 -41 39)" display="inline" font-family="Helvetica-Bold" font-size="5.15px">.SVG</text></g><rect x="-127" y="34.8" width="10.3" height="10.2" display="inline"/><rect x="-126" y="31.8" width=".522" height="2.34" display="inline"/><rect x="-117" y="31.8" width=".523" height="2.34" display="inline"/><rect x="-127" y="32.3" width="11.2" height=".572" display="inline"/><g display="inline"><rect x="-83.8" y="33.8" width="10.3" height="10.2"/><rect x="-76.8" y="28.7" width="3.31" height="3.26"/></g><g stroke="#fff" stroke-miterlimit="10"><rect x="-178" y="22.5" width="30" height="30" display="inline"/><rect x="-136" y="22.5" width="30" height="30" display="inline"/><rect x="-93.5" y="22.5" width="30" height="30" display="inline"/><rect x="-49.5" y="22.5" width="30" height="30" display="inline"/></g></g><path d="m295 27c-35.4-1.8-61.3 41-43.2 71.5 15.2 31.7 64.5 34.4 83.1 4.57 22.4-30.7-1.89-76.9-39.9-76.1zm-53.2 86c-21.5 0.517-36.7 18-54.8 27.5-28.1 18.5-57.5 35.3-84.7 55-7.2 14.5-3.17 31.9-4.77 47.8-0.217 21.4-1.44 44.5-1.05 64.8 15.2 17.7-5.14 5.26-15.3 3.25-8.74-2.85-17.5-5.69-26.2-8.54-1.51 8.16-7.85 18.8-6.34 25.4 136 45.6 272 90.6 408 136 1.7-8.15 8.24-18.7 6.88-25.3-27.2-9.5-54.8-18.3-82.3-27.4 26.5-0.471 35.9-34 19.3-52-16.1-29.4-32.2-58.8-48.2-88.2-13.2-19.7-36.5-9.87-55-6.26-16.7 3.64-33.3 7.27-50 10.9 12-38 25.3-75.6 36.5-114 4.64-24.9-16.7-49.6-41.9-49.1zm-55.3 72.8c-12.1 37.9-25.8 75.5-36.9 114-8.57 13.6 21.4 47.8 16.4 40.7-17.1-5.68-34.2-11.4-51.3-17 17.1 0.209 20.6-18.3 19.3-31.7 0.647-24.5 1.29-49 1.94-73.4 16.8-10.7 33.7-21.5 50.5-32.2zm127 136c15.1 26.5 28.2 54.3 44.7 79.9 5.25 5.99-15.6-4.11-21.8-5.21-49.3-16.4-98.5-32.8-148-49.2 41.6-8.5 83.3-17 125-25.5zm178 30.2c-0.679 8.15-11.2 21.1-4.8 25.8 39.2 13.8 56.4 67 30.8 100-17.7 26.1-54.5 34.8-82.3 20.3-61.1-21.8-123-40.1-185-61.2-71.2-23.6-142-47.1-214-70.7-0.698 8.21-11.8 21.6-4.73 26 136 45.2 272 90.7 408 136 52.2 15.2 111-25.5 114-79.8 4.68-41.9-22.7-84.1-63-96.5z" fill="#2f922e"/></svg>
