<svg height="580" width="580" xmlns="http://www.w3.org/2000/svg"><path d="m317.52 367.39c12.39 0 22.43-9.97 22.43-22.36s-10.04-22.42-22.43-22.42c-12.38 0-22.42 10.03-22.42 22.42s10.04 22.36 22.42 22.36zm224.59 137.43c-10.94 0-21.34-2.47-30.58-6.64-9.61-4.42-20.37-7.02-31.61-7.02s-22 2.6-31.49 7.02c-9.37 4.17-19.76 6.64-30.7 6.64s-21.34-2.47-30.7-6.64c-9.55-4.42-20.31-7.02-31.49-7.02-11.3 0-22 2.6-31.61 7.02-9.25 4.17-19.76 6.64-30.64 6.64s-21.33-2.47-30.64-6.64c-9.61-4.42-20.43-7.02-31.61-7.02s-22 2.6-31.49 7.02c-9.3 4.17-19.82 6.64-30.7 6.64s-21.33-2.47-30.7-6.64c-9.49-4.42-20.31-7.02-31.49-7.02-11.179 0-21.997 2.6-31.546 7.02-9.308 4.17-19.824 6.64-30.642 6.64l-.725-182.64 251.593 69.32c-17.34-8.4-29.37-25.98-29.37-46.47 0-28.59 23.15-51.67 51.68-51.67 28.52 0 51.67 23.14 51.67 51.67 0 28.52-23.21 51.67-51.67 51.67-1.7 0-3.45-.36-5.08-.54l229.3 63.21zm-281.46-197.93c3.75-5.44 8.16-10.33 13.18-14.5l-230.083-63.52v18.25zm125.23 34.63c-.36-6.83-1.63-13.35-3.87-19.52l137.92 38.44-4.41 16.92zm-264.35-209.29 100.57 27.38 55.84-38.74 19.4 4.65-55.3 38.86 304.78 83.59-22.3 81.83-305.93-83.4c-118.52-35.24-96.94-114.29-96.94-114.29" style="opacity:.8;fill:none;stroke:#fff;stroke-linejoin:round;stroke-linecap:round;stroke-width:40"/><g fill="#0073be"><path d="m121.52892 132.23153 100.56651 27.37779 55.84341-38.73987 19.40016 4.65362-55.2995 38.86073 304.78178 83.58383-22.3011 81.83115-305.93008-83.4025c-118.51616-35.23454-96.94031-114.28561-96.94031-114.28561"/><path d="m385.87862 341.52348c-.36262-6.82934-1.63179-13.35649-3.86794-19.52101l137.91632 38.43767-4.41188 16.92225z"/><path d="m260.65398 306.89331c3.74706-5.43929 8.15894-10.33465 13.17518-14.50478l-230.082145-63.51886v18.25184z"/><path d="m317.52481 367.39035c12.38951 0 22.42198-9.97204 22.42198-22.36155 0-12.38949-10.03247-22.42197-22.42198-22.42197-12.38949 0-22.42196 10.03248-22.42196 22.42197 0 12.38951 10.03247 22.36155 22.42196 22.36155zm224.58241 137.43283c-10.93902 0-21.33411-2.4779-30.58091-6.64803-9.60942-4.41187-20.36714-7.01064-31.60834-7.01064-11.24121 0-21.99892 2.59877-31.48747 7.01064-9.36768 4.17013-19.76277 6.64803-30.70179 6.64803-10.93904 0-21.33413-2.4779-30.7018-6.64803-9.54898-4.41187-20.3067-7.01064-31.48747-7.01064-11.30165 0-21.99892 2.59877-31.60834 7.01064-9.2468 4.17013-19.76276 6.64803-30.64136 6.64803-10.87858 0-21.33412-2.4779-30.64135-6.64803-9.60943-4.41187-20.42757-7.01064-31.60835-7.01064-11.18077 0-21.99892 2.59877-31.48747 7.01064-9.30723 4.17013-19.8232 6.64803-30.70178 6.64803-10.8786 0-21.33413-2.4779-30.70181-6.64803-9.48854-4.41187-20.30669-7.01064-31.48746-7.01064-11.180769 0-21.998925 2.59877-31.5479 7.01064-9.307246 4.17013-19.823206 6.64803-30.641362 6.64803l-.725243-182.63941 251.597575 69.32078c-17.34531-8.40069-29.3722-25.98774-29.3722-46.47575 0-28.5865 23.14723-51.67328 51.6733-51.67328 28.52608 0 51.6733 23.14722 51.6733 51.67328 0 28.52609-23.20766 51.6733-51.6733 51.6733-1.69223 0-3.44488-.36262-5.07667-.54393l229.29646 63.21668z"/></g></svg>