<svg height="580" viewBox="0 0 580 580" width="580" xmlns="http://www.w3.org/2000/svg"><path d="m287.28 546.31c-31.03 6.47-46.41-38.59-11.6-44.8 27.79-4.59 43.99-36.16 26.45-59.64-15.93-32.38-45.61-53.97-70.44-79.07-22.13-22.94-32.92-59.64-17.27-89.06-45.34-32.38-68.82-93.64-50.74-147.07 18.36-63.421 88.52-105.25 153.02-90.407 64.5 11.874 113.07 77.717 104.98 143.027-5.4 66.39-67.74 121.44-134.4 118.74 0 27.8 27.26 45.07 45.88 62.07 30.49 20.24 54.51 55.59 48.04 93.64 0 37.79-25.91 72.06-60.72 86.36-9.99 7.29-21.59 6.48-33.2 6.21z" fill="none" opacity=".8" stroke="#fff" stroke-linejoin="round" stroke-width="40"/><path d="m287.28 546.31c-31.03 6.47-46.41-38.59-11.6-44.8 27.79-4.59 43.99-36.16 26.45-59.64-15.93-32.38-45.61-53.97-70.44-79.07-22.13-22.94-32.92-59.64-17.27-89.06-45.34-32.38-68.82-93.64-50.74-147.07 18.36-63.421 88.52-105.25 153.02-90.407 64.5 11.874 113.07 77.717 104.98 143.027-5.4 66.39-67.74 121.44-134.4 118.74 0 27.8 27.26 45.07 45.88 62.07 30.49 20.24 54.51 55.59 48.04 93.64 0 37.79-25.91 72.06-60.72 86.36-9.99 7.29-21.59 6.48-33.2 6.21z" fill="#0073be"/></svg>