<svg height="580" width="580" xmlns="http://www.w3.org/2000/svg"><path d="m289.98 128.51c-68.27.74-138.23 5.96-202.21 31.58-22.661 9.57-50.441 28.25-45.974 56.54 6.805 29.22 38.379 41.9 63.734 51.17 78.44 24.73 162.07 27.59 243.63 22.67 54.03-4.77 109.96-11.48 158.49-37.37 20.13-10.24 38.86-33.98 28-57.24-15.65-29.76-51.33-39.65-81.23-48.67-53.56-14.04-109.22-18.47-164.44-18.68zm246.91 85.37c-9.6 52.44-23.18 104.88-32.78 157.32m-459.781-160.63c8.967 52.44 19.92 104.22 28.886 156.66m430.845-20.89c-20.32 29.01-57.15 38.8-89.54 47.77-81.54 18.4-167.48 18.39-249.02 0-32.39-8.96-69.225-18.75-89.564-47.73-9.817 22.97 10.094 44.6 29.664 53.77 53.01 25.5 113.12 30.42 171.17 32.31 63.85.38 129.62-3.7 189.32-28.22 22.24-9.39 49.28-30.43 37.97-57.92zm-130.24 23.78c-.29 23.26.57 46.61-.44 69.8-8.79 15.41-28.92 9.57-43.67 10.74-32.32-.17-64.66.36-96.95-.27-16.03.23-18.87-15.11-17.22-27.42.5-18.71-1-37.64.77-56.2 9.6-35.62 50.78-49.12 84.06-47.54 30.05.96 72.83 14.51 73.45 50.89z" opacity=".8" stroke="#fff" stroke-linecap="round" stroke-linejoin="round" stroke-width="57.02"/><path d="m289.83 130.25c-70.38.97-143.14 5.75-208.2 34.87-22.019 10.31-44.629 33.14-37.305 59.49 1.959 16.93 22.413 23.16 23.51 39.14 3.548 22.58 8.938 45.39 11.342 67.82-12.759 20.78-1.099 47.55 18.566 59.32 52.497 29.92 114.637 34.91 173.847 37.18 68.18.79 139.15-2.58 201.89-31.95 21.17-10.22 40.62-35.02 29.65-59.2-6.59-10.96 2.09-23.63 2.43-35.37 3-15.83 6.02-31.66 9.02-47.49 20.84-13.69 31.18-45.74 12.97-65.65-25.11-30.36-66.18-37.76-102.58-46.22-44.45-8.78-89.95-11.84-135.14-11.94z" fill="#d7efd7" stroke-width="20"/><path d="m504.06 346.34c-20.32 29.01-57.15 38.8-89.54 47.77-81.54 18.4-167.48 18.39-249.02 0-32.39-8.96-69.225-18.75-89.564-47.73-9.817 22.97 10.094 44.6 29.664 53.77 53.01 25.5 113.12 30.42 171.17 32.31 63.85.38 129.62-3.7 189.32-28.22 22.24-9.39 49.28-30.43 37.97-57.92z" fill="#2f922e" stroke-width="20"/><path d="m58.223 209.91c8.967 52.44 17.935 104.88 26.902 157.32" fill="#fff" stroke="#2f922e" stroke-linecap="round" stroke-linejoin="round" stroke-width="26.519"/><path d="m523 209.91c-9.61 52.44-19.21 104.88-28.82 157.32" fill="#2f922e" stroke="#2f922e" stroke-linecap="round" stroke-linejoin="round" stroke-width="26.519"/><path d="m373.82 370.12c-.29 23.26.57 46.61-.44 69.8-8.79 15.41-28.92 9.57-43.67 10.74-32.32-.17-64.66.36-96.95-.27-16.03.23-18.87-15.11-17.22-27.42.5-18.71-1-37.64.77-56.2 9.6-35.62 50.78-49.12 84.06-47.54 30.05.96 72.83 14.51 73.45 50.89z" fill="#2f922e" stroke="#38ad37" stroke-width="1.768"/><path d="m445.94 165.79c-6.34.49-16.72-6.42-18.07 3.21-9.52 20.68-19.03 41.35-28.55 62.02 4.14-1.79 8.54-11.65 12.76-16.57 11.29-16.22 22.57-32.44 33.86-48.66zm-95.14-17.63c-8.2-1.7-15.44-2.3-13.05 8.34-1.38 22.11-2.77 44.21-4.16 66.31 4.4-.7 3.43-13.39 5.72-18.8 3.83-18.62 7.65-37.23 11.49-55.85zm-210.15 17.63c6.35.49 16.73-6.42 18.08 3.21 9.52 20.68 19.03 41.35 28.55 62.02-4.14-1.79-8.53-11.65-12.77-16.57-11.29-16.22-22.57-32.44-33.86-48.66zm95.15-17.63c8.19-1.7 15.44-2.3 13.05 8.34 1.39 22.11 2.77 44.21 4.16 66.31-4.41-.7-3.43-13.39-5.72-18.8-3.84-18.62-7.66-37.23-11.49-55.85zm57.22 73.71c-56.07.72-112.54 5.94-166.59 21.56 87.14 20.64 178.11 21.07 266.73 11.26 21.07-3.1 55.93-7.85 67.59-14.57-54.68-14.07-111.42-18.45-167.73-18.25z" fill="#81c57e" stroke="#81c57e" stroke-linecap="round" stroke-linejoin="round" stroke-width="9.647"/><path d="m289.98 128.51c-68.27.74-138.23 5.96-202.21 31.58-22.661 9.57-50.441 28.25-45.974 56.54 6.805 29.22 38.379 41.9 63.734 51.17 78.44 24.73 162.07 27.59 243.63 22.67 54.03-4.77 109.96-11.48 158.49-37.37 20.13-10.24 38.86-33.98 28-57.24-15.65-29.76-51.33-39.65-81.23-48.67-53.56-14.04-109.22-18.47-164.44-18.68zm0 33.06c62.62.78 126.71 5.13 185.73 27.6 13.94 4.47 43.29 21.15 18.5 33.17-41.35 23.74-90.09 29.22-136.72 34.24-78.18 6.03-158.25 3.71-234.07-17.8-17.02-6.6-39.001-11.28-48.488-28.28 9.543-16.94 31.478-21.64 48.488-28.22 53.89-15.9 110.6-20.37 166.56-20.71z" fill="#2f922e" stroke-width="20"/></svg>