<svg enable-background="new 0 0 580 580" height="580" viewBox="0 0 580 580" width="580" xmlns="http://www.w3.org/2000/svg"><g fill-rule="evenodd"><path d="m159.02834 25.023712c-14.5624 0-26.28593 11.830505-26.28593 26.525795v503.990073h52.57187v-53.05159h210.28747v53.05159h52.57186c0-167.9967 0-335.99338 0-503.990073 0-14.69529-11.72352-26.525795-26.28593-26.525795s-26.28593 11.830505-26.28593 26.525795v185.680543h-210.28747c0-61.89352 0-123.78702 0-185.680543 0-14.69529-11.72353-26.525795-26.28594-26.525795zm26.28594 265.257928h210.28747v53.05159h-210.28747zm0 106.10318h210.28747v53.05159h-210.28747z" style="opacity:.8;fill:#fff;stroke:#fff;stroke-width:46.707;stroke-linecap:round;stroke-linejoin:round"/><path d="m159.02834 25.023712c-14.5624 0-26.28593 11.830505-26.28593 26.525795v503.990073h52.57187v-53.05159h210.28747v53.05159h52.57186c0-167.9967 0-335.99338 0-503.990073 0-14.69529-11.72352-26.525795-26.28593-26.525795s-26.28593 11.830505-26.28593 26.525795v185.680543h-210.28747c0-61.89352 0-123.78702 0-185.680543 0-14.69529-11.72353-26.525795-26.28594-26.525795zm26.28594 265.257928h210.28747v53.05159h-210.28747zm0 106.10318h210.28747v53.05159h-210.28747z" fill="#2c2c2c" stroke-width="52.8112"/></g></svg>