<?xml version="1.0" encoding="UTF-8" standalone="no"?>
<svg
   xmlns:dc="http://purl.org/dc/elements/1.1/"
   xmlns:cc="http://creativecommons.org/ns#"
   xmlns:rdf="http://www.w3.org/1999/02/22-rdf-syntax-ns#"
   xmlns:svg="http://www.w3.org/2000/svg"
   xmlns="http://www.w3.org/2000/svg"
   xmlns:sodipodi="http://sodipodi.sourceforge.net/DTD/sodipodi-0.dtd"
   xmlns:inkscape="http://www.inkscape.org/namespaces/inkscape"
   version="1.1"
   width="580"
   height="580"
   viewBox="0 0 580 580"
   enable-background="new 0 0 580 580"
   id="svg7"
   sodipodi:docname="stone_historic.svg"
   inkscape:version="1.0.1 (3bc2e813f5, 2020-09-07)">
  <defs
     id="defs11" />
  <sodipodi:namedview
     pagecolor="#ffffff"
     bordercolor="#666666"
     borderopacity="1"
     objecttolerance="10"
     gridtolerance="10"
     guidetolerance="10"
     inkscape:pageopacity="0"
     inkscape:pageshadow="2"
     inkscape:window-width="1920"
     inkscape:window-height="1001"
     id="namedview9"
     showgrid="false"
     inkscape:zoom="1.4310345"
     inkscape:cx="290"
     inkscape:cy="290"
     inkscape:window-x="-9"
     inkscape:window-y="-9"
     inkscape:window-maximized="1"
     inkscape:current-layer="svg7"
     inkscape:document-rotation="0" />
  <metadata
     id="metadata15">
    <rdf:RDF>
      <cc:Work
         rdf:about="">
        <dc:format>image/svg+xml</dc:format>
        <dc:type
           rdf:resource="http://purl.org/dc/dcmitype/StillImage" />
      </cc:Work>
    </rdf:RDF>
  </metadata>
  <g
     transform="matrix(0.8054368,0,0,0.81412883,56.423328,53.902639)"
     id="g4160"
     mix-blend-mode="normal"
     solid-color="#000000"
     opacity="0.8"
     color-interpolation-filters="linearRGB"
     enable-background="accumulate"
     color="#000000"
     image-rendering="auto"
     color-rendering="auto"
     stroke-width="79"
     isolation="auto"
     color-interpolation="sRGB"
     solid-opacity="1"
     fill="none"
     stroke="#ffffff"
     shape-rendering="auto"
     style="stroke:#ffffff">
    <path
       id="path4162"
       d="m 525.924,336.543 c 0,75.342 -122.917,113.949 -235.486,113.949 -112.569,0 -236.362,-35.398 -236.362,-110.74 0,-39.82 42.978,-96.279 100.123,-140.665 50.974,-39.593 113.221,-69.579 166.294,-69.579 56.08,0 107.269,32.685 144.521,74.804 37.525,42.426 60.91,94.424 60.91,132.231 z"
       mix-blend-mode="normal"
       solid-color="#000000"
       stroke-width="79"
       isolation="auto"
       solid-opacity="1"
       style="stroke:#ffffff" />
  </g>
  <path
     id="path9"
     style="color:#000000;color-interpolation:sRGB;color-interpolation-filters:linearRGB;fill:#724907;fill-opacity:1;stroke:none;color-rendering:auto;image-rendering:auto;shape-rendering:auto"
     d="m 480.02187,327.892 c 0.17605,31.78091 -27.75328,54.24698 -54.2047,66.38562 -56.14824,25.29079 -119.65495,29.90697 -180.33942,24.04011 -42.7524,-5.08775 -87.51276,-14.25731 -121.98193,-41.68543 -19.41135,-15.05605 -29.357613,-42.18981 -20.01974,-65.63785 14.85769,-39.77036 46.60596,-70.48773 79.0759,-96.51451 38.21382,-28.80901 83.02036,-53.95207 132.0082,-55.1411 51.88231,0.28472 97.09293,34.27015 127.18815,74.18018 20.14309,27.45508 37.16142,59.66628 38.27354,94.37298 z" />
</svg>
