<svg enable-background="new 0 0 580 580" height="580" viewBox="0 0 580 580" width="580" xmlns="http://www.w3.org/2000/svg"><g transform="matrix(.8054368 0 0 .81412883 56.423328 53.902639)"><path d="m525.924 336.543c0 75.342-122.917 113.949-235.486 113.949s-236.362-35.398-236.362-110.74c0-39.82 42.978-96.279 100.123-140.665 50.974-39.593 113.221-69.579 166.294-69.579 56.08 0 107.269 32.685 144.521 74.804 37.525 42.426 60.91 94.424 60.91 132.231z" fill="none" opacity=".8" stroke="#fff" stroke-width="70.390258"/><path d="m525.924 336.543c0 75.342-122.917 113.949-235.486 113.949s-236.362-35.398-236.362-110.74c0-39.82 42.978-96.279 100.123-140.665 50.974-39.593 113.221-69.579 166.294-69.579 56.08 0 107.269 32.685 144.521 74.804 37.525 42.426 60.91 94.424 60.91 132.231z" fill="#666"/></g></svg>