<svg height="580" width="580" xmlns="http://www.w3.org/2000/svg"><path d="m517.68 318.29c5.6 149.93-155.62 270.44-294.81 220.87-142.557-38.9-208.477-230.91-120.58-351.4 78.7-126.91 278.74-134.107 366.07-13.18 31.77 40.46 49.44 91.96 49.32 143.71zm-466.06-287.749h477.01v39.751c-159 0-318.01 0-477.01 0 0-13.25 0-26.501 0-39.751z" style="opacity:.8;fill:none;stroke:#fff;stroke-linejoin:round;stroke-linecap:round;stroke-width:40"/><path d="m495.94 318.4c5.07 133.47-140.75 240.75-266.64 196.63-128.93-34.63-188.551-205.58-109.05-312.84 71.18-112.977 252.1-119.384 331.09-11.73 28.73 36.02 44.71 81.87 44.6 127.94z" fill="#bbd9ec" stroke="#0092da" stroke-linecap="round" stroke-linejoin="round" stroke-width="41.539"/><path d="m238.2 187.32c-24-.12-51.23-2.61-69.61 16.26-19.28 16.25-21.29 42.35-20.08 65.75.47 39.11-.98 78.32.8 117.37-1.33 28.49 33.45 38.15 41.43 55.59-2.98 11.86 3.16 14.61 14.04 12.61 13.03 4.74 4.77-11.82 9.23-15.66h151.39c-.12 8.62-2.75 19.74 9.82 15.66 11.9 3.2 13.78-3.6 12.04-14.03 14.39-14.26 46.19-29.49 44.26-58.99.29-46.17.48-92.38-.1-138.55-2.4-34.18-36.12-60.2-69.72-56.01-41.17 0-82.34 0-123.5 0zm75.03 0c-16.65 0-33.3 0-49.94 0zm-117.02 30.31c62.62.31 125.31-.62 187.89.47 19.61 3.07 20.63 24.09 19.56 39.73-.32 24.79.65 49.63-.51 74.36-4.2 19.9-26.14 19.24-42.08 18.62-56.54-.31-113.14.62-169.64-.48-19.54-3.14-20.32-24.16-19.32-39.71.31-24.78-.63-49.63.5-74.37 2.2-10.82 12.68-18.76 23.6-18.62zm6.71 150.81c33.15.11 16.91 54.37-10.86 35.71-15.81-9.81-7.76-36.37 10.86-35.71zm169.68 0c33.5 0 17.06 54.37-10.86 35.71-15.8-9.81-7.75-36.37 10.86-35.71z" fill="#0073be"/><path d="m51.62 30.541h477.01v39.751c-159 0-318.01 0-477.01 0 0-13.25 0-26.501 0-39.751z" fill="#0073be" fill-rule="evenodd"/><path d="m495.94 318.4c5.07 133.47-140.75 240.75-266.64 196.63-128.93-34.63-188.551-205.58-109.05-312.84 71.18-112.977 252.1-119.384 331.09-11.73 28.73 36.02 44.71 81.87 44.6 127.94z" fill="none" stroke="#0073be" stroke-linecap="round" stroke-linejoin="round" stroke-width="41.539"/></svg>