<svg height="580" width="580" xmlns="http://www.w3.org/2000/svg"><g stroke-linecap="round"><path d="m479.07 164.58c-140.96 0-281.92 0-422.874 0 16.556 64.61 33.112 129.21 49.664 193.82 106.51 14.85 213.02 29.7 319.54 44.54 17.89-79.45 35.78-158.91 53.67-238.36z" fill="none" opacity=".8" stroke="#fff" stroke-linejoin="round" stroke-width="68.17"/><path d="m538.76 90.924c-16.47 9.336-32.94 18.666-49.41 27.996-21.01 90.35-42.84 180.6-63.33 271.01v55.77c-96.29 0-192.58 0-288.87 0" fill="none" opacity=".8" stroke="#fff" stroke-linejoin="round" stroke-width="68.17"/><path d="m173.77 479.63c1.33 27.05-33.15 43.82-52.08 25.31-20.65-16.35-10.69-54.73 15.04-57.95 18.73-3.87 37.52 12.64 37.04 32.64" fill="none" opacity=".8" stroke="#fff" stroke-linejoin="round" stroke-width="68.22"/><path d="m418.75 481.63c1.33 27.05-33.15 43.82-52.08 25.31-20.65-16.35-10.69-54.73 15.04-57.95 18.74-3.87 37.52 12.64 37.04 32.64" fill="none" opacity=".8" stroke="#fff" stroke-linejoin="round" stroke-width="68.22"/><g stroke="#ac3b98"><path d="m538.76 90.924c-16.47 9.336-32.94 18.666-49.41 27.996-21.01 90.35-42.84 180.6-63.33 271.01v55.77c-96.29 0-192.58 0-288.87 0" fill="none" stroke-linejoin="round" stroke-width="28.17"/><path d="m479.07 164.58c-140.96 0-281.92 0-422.874 0 16.556 64.61 33.112 129.21 49.664 193.82 106.51 14.85 213.02 29.7 319.54 44.54 17.89-79.45 35.78-158.91 53.67-238.36z" fill="#eacdea" fill-rule="evenodd" stroke-linejoin="round" stroke-width="28.17"/><path d="m128.07 165.74v177.47" fill="none" stroke-width="18.782"/><path d="m86.425 243h358.765" fill="none" stroke-width="18.782"/><path d="m173.77 479.63c1.33 27.05-33.15 43.82-52.08 25.31-20.65-16.35-10.69-54.73 15.04-57.95 18.73-3.87 37.52 12.64 37.04 32.64" fill="#eacdea" stroke-linejoin="round" stroke-width="22.22"/><path d="m418.75 481.63c1.33 27.05-33.15 43.82-52.08 25.31-20.65-16.35-10.69-54.73 15.04-57.95 18.74-3.87 37.52 12.64 37.04 32.64" fill="#eacdea" stroke-linejoin="round" stroke-width="22.22"/><path d="m215.15 165.74v197.51" fill="none" stroke-width="18.782"/><path d="m306.24 165.74v206.42" fill="none" stroke-width="18.782"/><path d="m395.32 165.74v219.78" fill="none" stroke-width="18.782"/><path d="m104.24 322.08h323.14" fill="none" stroke-width="18.782"/></g></g></svg>