<svg height="580" width="580" xmlns="http://www.w3.org/2000/svg"><path d="m543.35 293.71c4.77 106.91-73.16 205.12-171.64 240.17-54.91 20.91-116.79 19.27-171.35-1.92-122.446-42.14-190.262-189.11-154.35-311.33 14.569-47.83 43.861-91.31 81.78-123.769 99.21-81.921 263.07-74.395 348.71 23.969 41.99 47.33 67.32 109.3 66.85 172.88z" opacity=".8" stroke="#fff" stroke-width="64"/><path d="m540.56 290.21c3.49 112.3-81 219.18-190.53 243.18-44.8 10.75-92.6 11.18-136.05-5.52-77.01-23.84-142.744-85.36-164.421-163.92-17.891-59.32-11.531-124 12.335-180.68 27.995-69.38 95.666-115.922 165.876-135.739 69.98-20.252 147.92-5.591 206.59 37.398 66.95 45.531 106.02 124.871 106.2 205.281z" fill="#fff" stroke-linecap="round" stroke-linejoin="round" stroke-width="33.413"/><g stroke="#780000"><path d="m93.816 413.69c65.334-116.43 130.654-232.88 195.984-349.315 65.4 116.545 130.79 233.095 196.19 349.635-130.72-.17-261.45-.22-392.174-.32z" fill="#b65555" fill-rule="evenodd" stroke-width="24"/><ellipse cx="291.45" cy="292.54" fill="#780000" rx="21.531" ry="22.249" stroke-linecap="round" stroke-linejoin="round" stroke-width="31.677"/><path d="m543.35 293.71c4.77 106.91-73.16 205.12-171.64 240.17-54.91 20.91-116.79 19.27-171.35-1.92-122.446-42.14-190.262-189.11-154.35-311.33 14.569-47.83 43.861-91.31 81.78-123.769 99.21-81.921 263.07-74.395 348.71 23.969 41.99 47.33 67.32 109.3 66.85 172.88z" fill="none" stroke-linecap="round" stroke-width="30"/></g></svg>