<svg height="580" width="580" xmlns="http://www.w3.org/2000/svg"><g transform="matrix(1.1639109 0 0 1.1639109 199.51056 13.523265)"><g style="opacity:.8;fill:#fff;stroke:#fff;stroke-width:40.381098;stroke-linejoin:round;stroke-linecap:round"><path d="m-142.84703 16.759047h440.96384v440.963833h-440.96384z" visibility="hidden"/><path d="m131.44286 33.823237c-3.94505.314975-7.75435 1.59377-11.81153 3.937178l-127.3018462 68.243875c-16.1490398 7.64317-22.4620698 31.5875-11.8115398 45.93332l34.1221 53.80767-146.988054 83.99227 1.31344 26.24774s19.65061-15.74871 40.684274-15.74871c19.89723 0 59.77076 31.49742 83.9928998 31.49742 21.1398102 0 62.8354602-31.49742 83.9932202-31.49742 22.02048 0 61.972746 31.49742 83.993216 31.49742h14.43621l-119.427806-188.98293 87.930396-45.933307c18.81403-10.86252 24.89461-29.74081 17.0612-43.30864-7.22614-12.515813-18.34945-20.627028-30.18523-19.685886zm72.18169 108.927833c-34.7911 0-62.99484 28.20468-62.99484 62.99421 0 34.78952 28.20374 62.9942 62.99484 62.9942 34.79142 0 62.99484-28.20468 62.99484-62.9942 0-34.78953-28.20342-62.99421-62.99484-62.99421z"/><path d="m-90.351246 363.2311c-13.499474 0-33.460964 11.41719-51.863334 20.50388l-.51026 63.83865c19.30918-9.20638 39.99952-21.34832 52.374224-21.34832 21.17603 0 61.57116 31.4971 83.9929098 31.4971 19.9696802 0 62.6710402-31.4971 83.9932202-31.4971 21.17634 0 63.907626 31.4971 83.993216 31.4971 21.17603 0 64.0626-31.4971 83.99322-31.4971 12.47392 0 33.94067 12.33848 53.44891 21.57038l1.46148-63.73692c-18.99074-9.43379-41.07988-21.59589-54.90945-20.82767-20.0859 0-61.53682 31.49711-83.99322 31.49711-18.6849 0-62.816866-31.49711-83.993216-31.49711-21.17603 0-65.26674 31.49711-83.9929002 31.49711-19.9696798 0-61.5714698-31.49711-83.9932198-31.49711z"/></g><g><path d="m-142.84703 16.759047h440.96384v440.963833h-440.96384z" fill="none" visibility="hidden"/><path d="m131.44286 33.823237c-3.94505.314975-7.75435 1.59377-11.81153 3.937178l-127.3018462 68.243875c-16.1490398 7.64317-22.4620698 31.5875-11.8115398 45.93332l34.1221 53.80767-146.988054 83.99227 1.31344 26.24774s19.65061-15.74871 40.684274-15.74871c19.89723 0 59.77076 31.49742 83.9928998 31.49742 21.1398102 0 62.8354602-31.49742 83.9932202-31.49742 22.02048 0 61.972746 31.49742 83.993216 31.49742h14.43621l-119.427806-188.98293 87.930396-45.933307c18.81403-10.86252 24.89461-29.74081 17.0612-43.30864-7.22614-12.515813-18.34945-20.627028-30.18523-19.685886zm72.18169 108.927833c-34.7911 0-62.99484 28.20468-62.99484 62.99421 0 34.78952 28.20374 62.9942 62.99484 62.9942 34.79142 0 62.99484-28.20468 62.99484-62.9942 0-34.78953-28.20342-62.99421-62.99484-62.99421z" fill="#2f922e"/><path d="m-90.351246 363.2311c-13.499474 0-33.460964 11.41719-51.863334 20.50388l-.51026 63.83865c19.30918-9.20638 39.99952-21.34832 52.374224-21.34832 21.17603 0 61.57116 31.4971 83.9929098 31.4971 19.9696802 0 62.6710402-31.4971 83.9932202-31.4971 21.17634 0 63.907626 31.4971 83.993216 31.4971 21.17603 0 64.0626-31.4971 83.99322-31.4971 12.47392 0 33.94067 12.33848 53.44891 21.57038l1.46148-63.73692c-18.99074-9.43379-41.07988-21.59589-54.90945-20.82767-20.0859 0-61.53682 31.49711-83.99322 31.49711-18.6849 0-62.816866-31.49711-83.993216-31.49711-21.17603 0-65.26674 31.49711-83.9929002 31.49711-19.9696798 0-61.5714698-31.49711-83.9932198-31.49711z" fill="#81c57e"/></g></g></svg>