<?xml version="1.0" encoding="UTF-8"?>
<svg width="580" height="580" version="1.1" xmlns="http://www.w3.org/2000/svg"><path d="m218.45 148.5c-42.834-2.1658-74.883 44.323-66.174 84.372v109.23c19.54-6.629 52.033-9.0643 40.788-38.255v-83.049c27.719-10.469 26.51 26.491 24.511 44.133v76.752c33.415 10.164 69.575-21.095 100.78 1.3983 19.706 13.245 47.937-4.5974 38.217-28.256v-94.027c28.345-10.023 24.749 28.127 23.634 45.71v68.598c27.189 6.3221 53.618-7.1053 39.489-37.412-0.78156-37.784 6.2125-77.752-8.1898-113.71-18.393-33.407-60.971-38.189-95.167-34.596-32.63-0.2957-65.26-0.5914-97.89-0.88711zm119.22-61.447c2.033-40.459-53.97-67.691-83.783-39.197-33.453 25.498-14.933 89.3 28.233 89.966 27.859 1.7344 56.662-21.806 55.551-50.769zm-205.41 400.14c-32.244-14.642-69.706-11.115-102.39 0.17756-25.204 25.302 20.206 49.897 36.938 24.882 34.011-5.2797 71.539 21.396 102.4-2.5139 35.049-2.1854 71.281 16.808 105.15 0.81182 32.802-5.034 67.708 23.17 98.226 1.3491 34.759-12.846 69.526 18.363 104.19 4.2029 19.535-22.789 79.003 26.531 69.418-24.898-16.745-18.257-47.8-18.096-69.622-9.7168-27.048 6.0127-54.821-0.37556-80.612-8.8116-32.843 8.3234-68.52 19.629-100.77 3.1267-31.333-5.7508-64.158 18.427-94.033 0.7362-23.639-11.401-46.231 6.1163-68.902 10.654zm1.8436-57.414c-32.244-14.642-69.706-11.115-102.39 0.17756-25.204 25.302 20.206 49.897 36.938 24.882 34.011-5.2796 71.539 21.396 102.4-2.5139 35.049-2.1854 71.28 16.808 105.15 0.81179 32.802-5.0339 67.708 23.17 98.226 1.3491 34.759-12.846 69.526 18.363 104.19 4.2029 19.535-22.789 79.003 26.531 69.418-24.898-16.745-18.257-47.8-18.096-69.622-9.7168-27.048 6.0127-54.821-0.37555-80.612-8.8116-32.843 8.3234-68.52 19.629-100.77 3.1267-31.333-5.7508-64.158 18.427-94.033 0.7362-23.639-11.401-46.231 6.1163-68.902 10.654zm-1.4485-57.941c-32.245-14.625-69.698-11.125-102.39 0.14534-25.206 25.31 20.199 49.913 36.947 24.904 34.004-5.2581 71.569 21.444 102.39-2.5691 35.049-2.1546 71.305 16.996 105.15 0.84096 32.806-5.2153 67.732 23.113 98.239 1.2442 34.767-12.907 69.489 18.502 104.17 4.359 19.513-22.821 79.018 26.519 69.407-24.9-16.737-18.272-47.785-18.126-69.605-9.7296-27.048 6.0151-54.82-0.38036-80.612-8.8119-32.843 8.3234-68.52 19.629-100.77 3.1267-31.333-5.7508-64.158 18.427-94.033 0.7362-23.639-11.401-46.231 6.1163-68.902 10.654z" fill="none" stroke="#fff" stroke-linecap="round" stroke-linejoin="round" stroke-opacity=".8" stroke-width="50"/><path d="m132.26 487.2c-23.229-1.9817-47.651-21.495-70.159-6.4351-17.833 3.8858-45.051 5.1461-37.549 31.271-1.2088 19.76 25.986 6.1093 36.685 3.16 14.12-5.7729 31.142-8.5113 44.451 0.85346 22.379 10.563 47.946 3.1565 68.708-7.3674 27.678-5.406 54.602 20.678 81.568 5.7761 23.379-10.234 49.37-3.2423 71.906 5.6598 27.448 5.7273 52.041-19.981 79.637-10.045 22.679 5.5396 48.239 17.051 70.426 3.565 22.053-16.431 47.907 12.507 66.954 0.46651 13.068-18.97-3.8548-37.123-24.112-35.069-21.867-12.206-41.275 1.4847-61.903 5.9861-24.431 2.1485-46.6-13.303-70.748-11.781-22.755 3.5401-45.858 20.509-68.971 8.8203-22.829-8.9674-49.713-11.142-71.815 1.017-26.475 7.3318-50.746-17.631-77.259-8.0374-13.006 2.7944-24.507 10.528-37.82 12.16zm1.8436-57.414c-23.229-1.9817-47.651-21.495-70.159-6.4351-17.833 3.8858-45.051 5.1461-37.549 31.271-1.2088 19.76 25.986 6.1093 36.685 3.16 14.12-5.7729 31.142-8.5112 44.451 0.85351 22.379 10.563 47.946 3.1564 68.708-7.3675 27.678-5.406 54.602 20.678 81.568 5.7761 23.379-10.234 49.37-3.2423 71.906 5.6599 27.448 5.7273 52.041-19.981 79.637-10.045 22.679 5.5396 48.239 17.051 70.426 3.565 22.053-16.431 47.907 12.507 66.954 0.46651 13.068-18.97-3.8548-37.123-24.112-35.069-21.867-12.206-41.275 1.4847-61.903 5.9861-24.431 2.1485-46.6-13.303-70.748-11.781-22.755 3.5401-45.858 20.509-68.971 8.8203-22.829-8.9674-49.713-11.142-71.815 1.017-26.475 7.3318-50.746-17.631-77.259-8.0374-13.006 2.7945-24.507 10.528-37.82 12.16zm-1.4485-57.941c-23.232-1.9861-47.642-21.486-70.161-6.4367-17.864 3.8289-45.057 5.1525-37.546 31.272-1.2065 19.755 25.982 6.0797 36.684 3.1522 14.123-5.755 31.143-8.4917 44.453 0.86422 22.384 10.579 47.968 3.1479 68.705-7.4332 27.687-5.3714 54.601 20.825 81.571 5.8529 23.352-10.283 49.377-3.4294 71.907 5.515 27.454 5.752 52.047-20.023 79.641-10.057 22.664 5.5861 48.214 17.224 70.414 3.7104 22.054-16.434 47.91 12.499 66.96 0.46662 13.077-18.984-3.8639-37.089-24.11-35.062-21.871-12.265-41.272 1.4699-61.904 5.9763-24.431 2.1485-46.6-13.303-70.748-11.781-22.755 3.5401-45.858 20.509-68.971 8.8202-22.829-8.9674-49.713-11.142-71.815 1.017-26.475 7.3318-50.746-17.631-77.259-8.0374-13.006 2.7945-24.507 10.528-37.82 12.159z" fill="#81c57e" stroke-width="1.3486"/><path d="m218.45 148.5c-37.344-1.5993-70.068 34.343-66.161 71.299-0.0341 40.768-1e-3 81.536-0.013 122.3 11.766-7.8271 31.726-7.5744 40.788-10.792v-110.51h24.511v120.88c27.326 12.051 53.983-15.469 81.594-5.2157 17.882 5.0968 37.048 14.917 55.704 7.333 3.8066-7.2036 0.8212-16.311 1.6999-24.4v-98.602h23.634v114.31c12.44-6.7067 30.808 3.8343 39.906 0.75349-0.30474-42.161 0.68229-84.356-0.54625-126.49-3.5351-33.484-35.051-61.558-69.009-59.465-44.027-0.88009-88.074-0.88384-132.11-1.4023zm119.22-61.447c-0.22306-29.239-28.596-56.466-58.345-50.305-27.674 4.1511-50.137 33.408-41.92 61.284 6.2672 27.07 36.65 47.773 63.852 37.378 20.517-6.5789 36.757-26.377 36.413-48.357z" fill="#2f922e" stroke-width="1.3486"/></svg>
