<?xml version="1.0" encoding="UTF-8"?>
<svg width="580" height="580" version="1.1" xmlns="http://www.w3.org/2000/svg"><path d="m102 35.9c-46.4 2.01-80.8 50.2-75.9 94.9 1.05 8.94-2.11 22.1 1.59 28.4h150c12.7-13.7 25.3-27.4 38-41.1h152c12.7 13.7 25.3 27.4 38 41.1h152c-0.495-30.1 4.31-63.2-16.3-88.4-16.2-24.2-45-38.1-74-34.9h-365zm-75.9 154c-2.04 15.9 2.07 31.4 15.4 41.6 17 15.6 41.3 7.88 62.2 9.75 20.7-1.35 45.4 5.67 60.6-12.9 12-8.39 17.4-27.3 12-38.5h-150zm380 0c-2.42 16.3 2.91 31.4 16.5 41.6 16.6 15.7 40.6 7.86 61.1 9.75 20.6-1.5 45.4 5.87 60.6-12.5 11.9-8.54 17.4-27.5 12-38.8h-150zm-323 134c-38.7-1.37-64.2 40.6-55.7 75.8 3.85 31.2 35.2 51.3 65.2 47.4 16.1 1.62 39.7-6.34 46.6 13.8 6.82 20.9-15.3 30.8-32.4 27.3h-61.6v41.1c28.9-0.578 58 1.27 86.8-1.14 50.4-9.54 62.7-85.8 19.8-113-23.1-17.3-52.9-4.41-78.2-12.2-21.5-13.5-3.7-45.3 19-38.5h66.4v-41.1h-75.9zm190 0c-33.7-2.64-57.8 30.3-56.9 61.6 0.864 32.1-1.9 64.5 1.74 96.5 3.75 28.8 30.8 51.1 60 47.3 26.3-0.663 58.5 5.08 76.2-19.5 20.6-28 12.1-63.8 13.9-96.1 0.943-29.3 0.884-65-27.2-82.3-20.4-11.8-45.3-6.26-67.8-7.56zm190 0c-38.7-1.37-64.2 40.6-55.7 75.8 3.85 31.2 35.2 51.3 65.2 47.4 16.1 1.62 39.7-6.34 46.6 13.8 6.82 20.9-15.3 30.8-32.4 27.3h-61.6v41.1c28.9-0.578 58 1.27 86.8-1.14 50.4-9.54 62.7-85.8 19.8-113-23.1-17.3-52.9-4.41-78.2-12.2-21.5-13.5-3.7-45.3 19-38.5h66.4v-41.1h-75.9zm-209 71.9c-1.65-23.4 21.2-34.2 41.2-30.8 21.8-4.36 38.1 16.6 34.8 37.2-0.704 21.7 1.58 43.6-1.5 65-3.72 20.6-25.9 22.4-42.8 21.1-22.9 3.43-34.5-20.9-31.6-40.3v-52.1z" fill="#fff" opacity=".8" stroke="#fff" stroke-linecap="round" stroke-linejoin="round" stroke-width="48.3"/><path d="m102 35.9c-45.9 1.98-80.5 49.5-75.9 93.8v29.5h152c12.7-13.7 25.3-27.4 38-41.1h152c12.7 13.7 25.3 27.4 38 41.1h152c-0.507-30.1 4.33-63.2-16.3-88.4-15.9-23.7-44.2-38-72.7-34.9h-367zm-75.9 154c0.0557 11.7-2.16 24.3 7.72 33.1 9.51 15.7 27.7 19.9 44.7 18.3 21.8-0.304 43.7 0.616 65.4-0.474 16.5-5.67 35.6-21.5 34-40.5 4.17-12.9-6.86-10.7-15.9-10.4h-136zm380 0c-0.0861 11.8-2.08 24.6 8.5 33.1 9.65 15.1 27.1 20.2 44 18.3 23-0.736 46.4 1.56 69.2-1.32 15.3-7.35 32.6-22.5 30.2-41.1 4.27-13-9.41-8.16-17.4-8.95h-134zm-323 134c-37.3-1.33-63.1 37.9-56.2 72.5 2.46 31.1 32.7 54.7 63.5 50.8 14.5 1.42 30.9-3.83 43.7 5.02 16.6 16.8-2.3 41.8-23.1 36.1h-65.8v41.1c28.9-0.59 58 1.28 86.8-1.14 48.4-9.2 62-79.9 24.3-109-22.3-20-52.7-9.72-79.2-14-24.6-8.45-10.9-46.8 13.3-40h68.7v-41.1h-75.9zm190 0c-31.4-2.48-55.3 26.4-56.6 55.9-0.343 32.5-1.21 65.1 0.514 97.5 2.52 28.8 27.2 55 57.5 52 26.3-1.18 57.9 5.87 77.4-16.8 22.5-26.3 14.6-62.4 16.1-94.1 0.163-28.6 2.95-62.1-21.1-82.6-20.5-17.4-49.1-10.4-73.8-11.9zm190 0c-37.3-1.33-63.1 37.9-56.2 72.5 2.46 31.1 32.7 54.7 63.5 50.8 14.5 1.42 30.9-3.83 43.7 5.02 16.6 16.8-2.3 41.8-23.1 36.1h-65.8v41.1c28.9-0.59 58 1.28 86.8-1.14 48.4-9.2 62-79.9 24.3-109-22.3-20-52.7-9.72-79.2-14-24.6-8.45-10.9-46.8 13.3-40h68.7v-41.1h-75.9zm-209 71.9c-1.36-21.4 19.2-34.4 38.6-30.8 19.1-3.46 38.6 10.1 37.3 30.8-0.747 23.8 1.65 47.8-1.5 71.4-3.44 19.1-23.8 22.7-40 21.1-19.8 3.66-36.8-14.1-34.4-33.7v-58.7z" fill="#da0600"/></svg>
