<svg height="580" width="580" xmlns="http://www.w3.org/2000/svg"><path d="m395.45 208.54c23.66 12.96 33.61-20.27 45.61-33.76 18.51-27.02 37.85-53.54 55.85-80.897 7.09-17.451-12.66-25.574-23.78-34.003-6.74-4.709-13.49-9.418-20.24-14.127-31.71 45.484-63.42 90.967-95.13 136.447 12.51 8.78 25.36 17.75 37.69 26.34zm-235.79 338.19c24.34 13.03 34.09-21.59 46.6-35.17 17.49-25.56 35.81-50.6 52.78-76.49 7.09-17.46-12.65-25.59-23.78-34.01-6.74-4.7-13.49-9.4-20.24-14.11-31.01 44.49-62.03 88.99-93.05 133.47 12.51 8.75 25.45 17.71 37.69 26.31zm282.79-508.198c-43.71-18.558-93.13-.951-131.62 22.101-74.17 46.737-128.05 118.887-172.9 192.887-35.16 61.56-65.348 132.72-53.619 205.1 3.965 18.98 11.864 44.93 28.389 53.39 30.68-44.01 61.37-88.02 92.05-132.02-21.32-17.4-.59-45.78 8.02-64.72 26.28-48.56 56.87-95.99 97.44-133.88 10.08-16.22 31.47-4.92 40.27-10.7 30.66-44.05 61.31-88.105 91.97-132.158z" style="opacity:.8;fill:none;stroke:#fff;stroke-linejoin:round;stroke-linecap:round;stroke-width:41.84"/><g fill="#724907"><path d="m442.45 38.532c-43.71-18.558-93.13-.951-131.62 22.101-74.17 46.737-128.05 118.887-172.9 192.887-35.16 61.56-65.348 132.72-53.619 205.1 3.965 18.98 11.864 44.93 28.389 53.39 30.68-44.01 61.37-88.02 92.05-132.02-21.32-17.4-.59-45.78 8.02-64.72 26.28-48.56 56.87-95.99 97.44-133.88 10.08-16.22 31.47-4.92 40.27-10.7 30.66-44.05 61.31-88.105 91.97-132.158z"/><path d="m159.66 546.73c24.34 13.03 34.09-21.59 46.6-35.17 17.49-25.56 35.81-50.6 52.78-76.49 7.09-17.46-12.65-25.59-23.78-34.01-6.74-4.7-13.49-9.4-20.24-14.11-31.01 44.49-62.03 88.99-93.05 133.47 12.51 8.75 25.45 17.71 37.69 26.31z"/><path d="m395.45 208.54c23.66 12.96 33.61-20.27 45.61-33.76 18.51-27.02 37.85-53.54 55.85-80.897 7.09-17.451-12.66-25.574-23.78-34.003-6.74-4.709-13.49-9.418-20.24-14.127-31.71 45.484-63.42 90.967-95.13 136.447 12.51 8.78 25.36 17.75 37.69 26.34z"/></g></svg>