<svg height="580" width="580" xmlns="http://www.w3.org/2000/svg"><path d="m294.48 101.92c-44.74-45.739-115.6-75.495-178.24-50.811-52.225 20.209-85.445 79.431-73.453 134.521 13.141 66.21 62.953 120.21 120.263 152.91 33.65 18.56 75.46 26.18 111.85 10.97 35.92 12.41 70.21 29.85 100.78 52.5-1.94 17.46 16.39 26.1 25.97 38.05 31.86 31.51 63.04 63.76 95.33 94.79 15.16 10.07 27.24-6.03 36.89-15.69 13.25-13.16-.24-28.46-10.94-37.47-35.51-34.94-69.96-71.09-106.15-105.27-26.47-3.57-33.64-37.88-47.34-58.3-11.19-23-24.23-46.51-11.71-71.69 6.83-55.44-25.73-106.88-63.25-144.51zm73.7 264.85c-19.63-13.35-54.78-23.08-66.88-35.09 12.68-6.83 26.91-33.08 35.43-30.27 9.37 22.3 19.86 44.13 31.45 65.36zm-152.49 102.86c1.82 43.56-48.52 76.87-87.91 58.27-40.803-15.29-51.951-74.61-19.44-103.65 29.98-31.65 88.96-18.78 103.05 22.46 2.84 7.28 4.3 15.11 4.3 22.92z" style="opacity:.8;fill:none;stroke:#fff;stroke-linejoin:round;stroke-linecap:round;stroke-width:57.46"/><g fill="#2f922e"><path d="m215.69 469.63c1.82 43.56-48.52 76.87-87.91 58.27-40.803-15.29-51.951-74.61-19.44-103.65 29.98-31.65 88.96-18.78 103.05 22.46 2.84 7.28 4.3 15.11 4.3 22.92z"/><path d="m294.48 101.92c-44.74-45.739-115.6-75.495-178.24-50.811-52.225 20.209-85.445 79.431-73.453 134.521 13.141 66.21 62.953 120.21 120.263 152.91 33.65 18.56 75.46 26.18 111.85 10.97 35.92 12.41 70.21 29.85 100.78 52.5-1.94 17.46 16.39 26.1 25.97 38.05 31.86 31.51 63.04 63.76 95.33 94.79 15.16 10.07 27.24-6.03 36.89-15.69 13.25-13.16-.24-28.46-10.94-37.47-35.51-34.94-69.96-71.09-106.15-105.27-26.47-3.57-33.64-37.88-47.34-58.3-11.19-23-24.23-46.51-11.71-71.69 6.83-55.44-25.73-106.88-63.25-144.51zm73.7 264.85c-19.63-13.35-54.78-23.08-66.88-35.09 12.68-6.83 26.91-33.08 35.43-30.27 9.37 22.3 19.86 44.13 31.45 65.36z"/></g></svg>