<svg height="580" width="580" xmlns="http://www.w3.org/2000/svg"><path d="m314.87 95.391c-4.97-.01-9.66 2.06-13.35 7.489-5.52 19.22-11.64 38.3-16.95 57.6-1.92-6.41-3.84-12.82-5.68-19.25-3.69-5.42-8.38-7.46-13.36-7.46-9.49 0-20.06 7.62-26.8 13.97-28.78 22.11-49.84 37.94-97.96 50.9-18.27 5.52-55.489-1.2-91.995-3.77-23.309-3.64-3.332 37.98-.215 54.91 20.726 64.91 44.574 130.6 86.69 185.03 24.02 26.73 57.25 50.03 94.5 49.61 30.77-2.58 56.18-27.29 63.39-56.74.62-1.99 1.2-4 1.72-6.02.82-3.08 1.62-6.16 2.35-9.26 11.8 18.39 31.22 31.8 53.44 33.64 37.25.44 70.46-22.88 94.48-49.62 42.12-54.42 65.99-120.1 86.72-185 3.11-16.93 23.06-58.56-.24-54.92-36.51 2.57-73.71 9.31-91.99 3.79-48.11-12.97-69.19-28.81-97.97-50.92-6.73-6.35-17.28-13.958-26.78-13.979zm-34.14 79.729c-.16.63-.3 1.26-.45 1.88.15-.62.29-1.25.45-1.88zm-1.49 6.25c-.27 1.13-.52 2.25-.78 3.38.26-1.13.51-2.25.78-3.38zm-1.4 6.22c-.23 1.12-.49 2.24-.72 3.36-3.63 31.94-5.71 64.38-4.79 96.66-.93-32.27 1.15-64.71 4.78-96.64.23-1.13.5-2.25.73-3.38zm8.6 198.99c.26.92.53 1.82.81 2.72.43 1.75.93 3.47 1.48 5.18-.55-1.71-1.06-3.43-1.49-5.18-.28-.9-.55-1.8-.8-2.72zm2.39 8.25c.21.64.44 1.26.66 1.88-.22-.62-.45-1.24-.66-1.88zm1.05 2.96c.18.47.37.95.56 1.43-.19-.48-.38-.96-.56-1.43zm1.18 2.96c.15.35.31.71.47 1.06-.16-.35-.32-.71-.47-1.06zm1.33 2.95c.13.25.25.51.37.77-.12-.26-.24-.52-.37-.77zm1.45 2.9c.1.17.18.34.27.5-.1-.16-.18-.33-.27-.5z" style="opacity:.8;fill:#fff;stroke:#fff;stroke-linejoin:round;stroke-linecap:round;stroke-width:58.941"/><g stroke="#734a08" stroke-width="19.647"><path d="m265.54 133.77c-9.5 0-20.07 7.62-26.8 13.97-28.79 22.1-49.85 37.94-97.96 50.9-18.28 5.52-55.499-1.2-92.005-3.78-23.309-3.63-3.332 38-.215 54.92 20.726 64.91 44.574 130.61 86.69 185.02 24.02 26.74 57.24 50.04 94.49 49.61 30.78-2.56 56.19-27.28 63.39-56.73.63-1.99 1.2-4 1.72-6.02.83-3.08 1.63-6.16 2.37-9.27-4.55-7.08-7.98-14.89-9.98-23.08-.62-1.99-1.17-4-1.69-6.02-16.74-62.58-15.71-128.44-8.44-192.33 2.12-10.25 4.69-20.4 7.46-30.48-1.93-6.4-3.84-12.82-5.68-19.25-3.7-5.42-8.38-7.47-13.35-7.46z" fill="#fff"/><path d="m265.54 133.77c-9.5 0-20.07 7.62-26.8 13.97-28.79 22.1-49.85 37.94-97.96 50.9-18.28 5.52-55.499-1.2-92.005-3.78-23.309-3.63-3.332 38-.215 54.92 20.726 64.91 44.574 130.61 86.69 185.02 24.02 26.74 57.24 50.04 94.49 49.61 30.78-2.56 56.19-27.28 63.39-56.73.63-1.99 1.2-4 1.72-6.02.83-3.08 1.63-6.16 2.37-9.27-4.55-7.08-7.98-14.89-9.98-23.08-.62-1.99-1.17-4-1.69-6.02-16.74-62.58-15.71-128.44-8.44-192.33 2.12-10.25 4.69-20.4 7.46-30.48-1.93-6.4-3.84-12.82-5.68-19.25-3.7-5.42-8.38-7.47-13.35-7.46z" fill="#734a08" opacity=".1"/><path d="m265.54 133.77c-9.5 0-20.07 7.62-26.8 13.97-28.79 22.1-49.85 37.94-97.96 50.9-18.28 5.52-55.499-1.2-92.005-3.78-23.309-3.63-3.332 38-.215 54.92 20.726 64.91 44.574 130.61 86.69 185.02 24.02 26.74 57.24 50.04 94.49 49.61 30.78-2.56 56.19-27.28 63.39-56.73.63-1.99 1.2-4 1.72-6.02.83-3.08 1.63-6.16 2.37-9.27-4.55-7.08-7.98-14.89-9.98-23.08-.62-1.99-1.17-4-1.69-6.02-16.74-62.58-15.71-128.44-8.44-192.33 2.12-10.25 4.69-20.4 7.46-30.48-1.93-6.4-3.84-12.82-5.68-19.25-3.7-5.42-8.38-7.47-13.35-7.46z" fill="none"/><path d="m313.43 103.35c-7.63 1.96-6.54 11.89-9.06 17.68-11.24 35.95-22.54 72.52-22.99 110.52-3.46 57.08-1.25 116.05 18.63 170.04 11.73 24.35 39.84 41.94 67.11 35.06 38.45-7.93 69.09-36.86 89.05-69.6 37.43-58.47 58.55-125.15 77.7-191.37.37-3.52 1.81-8.94-.34-11.48-18.45 1.28-37.04 3.71-55.59 5.34-20.22 1.92-40.9 0-59.83-7.37-33.78-11.19-63.54-31.34-90.62-54.06-4.14-2.77-8.99-4.94-14.06-4.76zm60.41 89.7c16.02-.51 23.34 22.38 12.43 32.85-14.68 15.83-37.73 26.46-59.43 20.84-13.32-4.79-20.86-23.99-10.71-35.24 15.98-13.88 38.93-11.53 57.71-18.45zm64.81 14.25c16.81-.5 29.06 15.39 31.25 30.79 4.39 10.6 12.16 22.51 6.66 34.2-4.04 8.8-15.47 10.42-23.73 7.18-19.76-4.59-32.92-24.14-33.31-43.99-1.8-11.39 3.55-25.99 16.21-27.88.96-.18 1.93-.28 2.92-.3zm-65.24 103.7c20.75.33 39.72 12.99 51.88 29.13 7.73 13.25 4.05 34.52-11.63 39.94-10.77 2.37-17.9-7.95-26.47-12.37-13.71-8.79-31.24-8.9-46.23-3.66-7.37 2.31-17.37.64-20.17-7.49-4.79-11.3 2.04-24.38 11.92-30.39 11.64-8.98 25.85-15.12 40.7-15.16z" fill="#734a08" fill-rule="evenodd"/><path d="m285.54 383.3c-16.75-62.58-15.69-128.47-8.42-192.35 6.17-29.87 15.99-58.79 24.39-88.07 10.75-15.789 29.88-3.184 40.14 6.49 28.78 22.1 49.86 37.95 97.97 50.91 18.28 5.53 55.48-1.21 91.99-3.78 23.31-3.64 3.35 37.99.24 54.92-20.73 64.91-44.6 130.59-86.72 185-24.02 26.73-57.23 50.05-94.48 49.63-30.78-2.57-56.19-27.29-63.4-56.74-.62-1.99-1.19-3.99-1.71-6.01z" fill="none"/></g><path d="m187.96 416.99c-15.31-2.12-29.94-11.2-37.3-25 8.15-9.06 19.8.12 29.32.98 22.2 2.81 42.95-11.79 53.77-30.33 7.01-6.72 7.92-25.05 20.12-22.36 8.8 4.87 7.14 16.07 4.99 24.21-1.39 10.84-6.66 20.6-13.63 28.87-5.49 7.35-10.95 15.77-20.44 18.21-12.15 2.25-24.23 7.99-36.83 5.42zm-54.25-118.71c-11.71-6.91-25.82-11.15-34.116-22.62-1.85-13.05 14.616-21.56 25.556-16.47 12.9 4.04 25.09 11.42 33.25 22.36 5.42 9.84-3.98 25.38-15.68 20.31-3.1-.94-5.99-2.43-9.01-3.58zm74.65-24.15c-8.18-10.76-8.26-29.47 4.46-36.85 8.36-5.52 20.35-9.31 29.23-2.8 4.66 9.61-3.55 18.42-7.25 26.73-2.24 8.39-7.75 17.82-17.34 18.66-3.86.1-7.29-2.47-9.1-5.74z" fill="#734a08"/></svg>