<?xml version="1.0" encoding="UTF-8" standalone="no"?>
<svg
   xmlns:dc="http://purl.org/dc/elements/1.1/"
   xmlns:cc="http://creativecommons.org/ns#"
   xmlns:rdf="http://www.w3.org/1999/02/22-rdf-syntax-ns#"
   xmlns:svg="http://www.w3.org/2000/svg"
   xmlns="http://www.w3.org/2000/svg"
   xmlns:sodipodi="http://sodipodi.sourceforge.net/DTD/sodipodi-0.dtd"
   xmlns:inkscape="http://www.inkscape.org/namespaces/inkscape"
   height="580"
   width="580"
   version="1.1"
   id="svg6"
   sodipodi:docname="toilets.svg"
   inkscape:version="1.0.1 (3bc2e813f5, 2020-09-07)">
  <metadata
     id="metadata12">
    <rdf:RDF>
      <cc:Work
         rdf:about="">
        <dc:format>image/svg+xml</dc:format>
        <dc:type
           rdf:resource="http://purl.org/dc/dcmitype/StillImage" />
      </cc:Work>
    </rdf:RDF>
  </metadata>
  <defs
     id="defs10" />
  <sodipodi:namedview
     pagecolor="#ffffff"
     bordercolor="#666666"
     borderopacity="1"
     objecttolerance="10"
     gridtolerance="10"
     guidetolerance="10"
     inkscape:pageopacity="0"
     inkscape:pageshadow="2"
     inkscape:window-width="1920"
     inkscape:window-height="1001"
     id="namedview8"
     showgrid="false"
     inkscape:zoom="1.4310345"
     inkscape:cx="290"
     inkscape:cy="290"
     inkscape:window-x="-9"
     inkscape:window-y="-9"
     inkscape:window-maximized="1"
     inkscape:current-layer="svg6" />
  <path
     id="path2"
     style="opacity:0.8;fill:#ffffff;stroke:#ffffff;stroke-width:47;stroke-linecap:round;stroke-linejoin:round"
     d="m 262.86153,25.973035 c 0,176.053095 0,352.106185 0,528.159275 18.92731,0 37.85461,0 56.78192,0 0,-176.05309 0,-352.10618 0,-528.159275 -18.92731,0 -37.85461,0 -56.78192,0 z M 120.90668,63.698699 C 79.666042,61.7685 49.586263,111.83884 70.97803,147.26063 c 18.001762,36.77745 75.56309,39.5401 97.01313,4.66573 25.92365,-35.96397 -2.82465,-89.573611 -47.08448,-88.227661 z m 340.69159,0 c -41.24064,-1.930199 -71.32043,48.140141 -49.92865,83.561931 18.00176,36.77745 75.56309,39.5401 97.01313,4.66573 C 534.6064,115.96239 505.8581,62.352749 461.59827,63.698699 Z M 83.052069,214.60135 c -26.097144,-0.90901 -49.706421,33.58904 -30.461141,55.23729 10.681197,22.09253 51.926442,43.23682 33.811311,69.7072 -27.200597,23.09647 -56.955035,49.61079 -59.388134,87.9349 -7.690015,19.00389 12.253052,12.47553 23.696302,13.47459 13.935106,0 27.870211,0 41.805316,0 0,37.72566 0,75.45132 0,113.17698 18.927317,0 37.854627,0 56.781937,0 0,-37.72566 0,-75.45132 0,-113.17698 22.08186,0 44.16372,0 66.24558,0 2.05592,-40.74693 -25.10365,-74.4389 -55.89471,-97.67602 -27.26878,-22.98796 13.79891,-48.27895 25.9927,-68.26005 23.13583,-20.0686 4.04814,-56.9439 -22.8661,-60.16312 -26.55231,-0.58197 -53.15652,-0.0942 -79.723061,-0.25479 z m 321.764271,0 c -26.99026,-0.19399 -45.78522,30.76281 -35.00813,55.13971 16.45337,57.53221 50.8284,108.7762 63.20905,167.51439 0.43954,38.9493 0.0662,77.91946 0.19004,116.87686 18.92731,0 37.85463,0 56.78194,0 0.46681,-40.27965 -0.95247,-80.66763 0.74397,-120.87692 14.67048,-61.50909 52.70488,-115.08598 65.31158,-177.17134 3.409,-25.23774 -21.78812,-45.48635 -45.81134,-41.4827 -35.13903,0 -70.27807,0 -105.41711,0 z" />
  <path
     id="path4"
     d="m 262.86153,25.973035 c 0,176.053095 0,352.106185 0,528.159275 18.92731,0 37.85461,0 56.78192,0 0,-176.05309 0,-352.10618 0,-528.159275 -18.92731,0 -37.85461,0 -56.78192,0 z M 120.90668,63.698699 C 79.666042,61.7685 49.586263,111.83884 70.97803,147.26063 c 18.001762,36.77745 75.56309,39.5401 97.01313,4.66573 25.92365,-35.96397 -2.82465,-89.573611 -47.08448,-88.227661 z m 340.69159,0 c -41.24064,-1.930199 -71.32043,48.140141 -49.92865,83.561931 18.00176,36.77745 75.56309,39.5401 97.01313,4.66573 C 534.6064,115.96239 505.8581,62.352749 461.59827,63.698699 Z M 83.052069,214.60135 c -27.50163,-0.95943 -50.751968,36.32962 -28.731182,57.70595 12.322266,18.66128 32.789761,33.04442 38.194836,55.47104 -11.037182,25.07299 -42.035879,36.03366 -53.472771,62.04488 -4.525548,11.96282 -24.877785,50.8236 -3.794323,51.13211 19.089031,0 38.178063,0 57.267094,0 0,37.72566 0,75.45132 0,113.17698 18.927317,0 37.854627,0 56.781937,0 0,-37.72566 0,-75.45132 0,-113.17698 22.08186,0 44.16372,0 66.24558,0 1.69456,-39.21648 -23.2713,-73.06926 -53.47277,-95.51729 -28.46182,-17.58168 1.93747,-44.01666 15.29931,-60.23712 17.58655,-15.43451 27.70254,-43.41062 5.83197,-60.22043 -17.22503,-16.27427 -42.07527,-8.57845 -63.34724,-10.37914 -12.26748,0 -24.534962,0 -36.802441,0 z m 321.764271,0 c -26.99026,-0.19399 -45.78522,30.76281 -35.00813,55.13971 16.39154,57.54647 50.92504,108.75533 63.20905,167.51439 0.43936,38.94931 0.0664,77.91946 0.19004,116.87686 18.92731,0 37.85463,0 56.78194,0 0.46146,-40.27997 -0.94503,-80.66718 0.74397,-120.87692 14.58695,-61.52838 52.80274,-115.06525 65.31158,-177.17134 3.36552,-24.88733 -21.30174,-45.30688 -45.14666,-41.4827 -35.3606,0 -70.72119,0 -106.08179,0 z"
     style="fill:#734a08;fill-opacity:1" />
</svg>
