<?xml version="1.0" encoding="UTF-8" standalone="no"?>
<svg xmlns="http://www.w3.org/2000/svg" xmlns:sodipodi="http://sodipodi.sourceforge.net/DTD/sodipodi-0.dtd" xmlns:inkscape="http://www.inkscape.org/namespaces/inkscape" height="580" width="580" version="1.0">
 <metadata id="metadata10"/>
 <path id="path8092" d="m 161.95,376.9 c 84.21,43.91 168.43,87.82 252.64,131.73 m -7.08,-242.64 c -80.58,37.45 -161.17,74.9 -241.75,112.35 m 246.83,-1.44 c -84.21,43.91 -168.43,87.82 -252.64,131.73 m 7.81,-242.64 c 80.58,37.45 161.17,74.9 241.75,112.35" opacity="0.8" stroke="#ffffff" stroke-linejoin="round" stroke-width="55"/>
 <path id="path8079" d="m 170.78,256.44 c -6.67,91.74 -13.35,183.47 -20.02,275.21 m 258,-275.21 c 6.67,91.74 13.35,183.47 20.02,275.21 M 465.79,52.574 c 0,65.746 0,131.496 0,197.246 -118.67,0 -237.33,0 -356,0 0,-65.75 0,-131.5 0,-197.246" opacity="0.8" fill="none" stroke="#ffffff" stroke-linejoin="round" stroke-linecap="round" stroke-width="70"/>
 <path stroke="#ffffff" fill-rule="evenodd" fill="#0092d9" d="m 257.53,61.188 c -26.31,2.317 -51.03,24.871 -78.05,12.484 -19.15,-9.826 -41.43,-13.703 -61.21,-3.219 -8.62,2.375 -10.75,41.207 4.58,28.6 20.11,-8.944 41.23,-2.394 60.01,6.217 31.09,12.53 58.69,-22.56 90.08,-11.05 20.17,7.86 42.56,16.25 63.5,5.512 23.33,-9.883 48.73,-6.768 71.39,3.158 13.61,4.48 45.47,9.22 47.79,-9.403 0,-7.725 0,-15.449 0,-23.174 -20.01,9.468 -42.65,5.666 -62.23,-2.759 -22.21,-10.278 -45.38,-2.175 -67.09,4.649 -24.32,8.734 -45.19,-10.409 -68.77,-11.015 z" id="path8083" opacity="0.8" stroke-linejoin="bevel" stroke-width="40"/>
 <path id="path9895" d="M 412.59,376.9 C 328.38,420.81 244.16,464.72 159.95,508.63" fill="none" stroke="#000000" stroke-linecap="round" stroke-width="15"/>
 <path id="path5520" d="m 407.51,265.99 c -80.58,37.45 -161.17,74.9 -241.75,112.35" fill="none" stroke="#000000" stroke-linecap="round" stroke-width="15"/>
 <path id="path5518" d="m 161.95,376.9 c 84.21,43.91 168.43,87.82 252.64,131.73" fill="none" stroke="#000000" stroke-linecap="round" stroke-width="15"/>
 <path id="path5522" d="m 167.76,265.99 c 80.58,37.45 161.17,74.9 241.75,112.35" fill="none" stroke="#000000" stroke-linecap="round" stroke-width="15"/>
 <path id="rect7883" d="m 134.64,89.17 c 102.1,0 204.2,0 306.3,0 18.63,-0.294 21.59,19.7 20.09,34.04 -0.26,34.22 0.53,68.49 -0.41,102.67 -3.23,17.52 -22.47,16.5 -36.17,16.03 -96.6,0 -193.21,0 -289.81,0 -18.63,0.29 -21.59,-19.7 -20.09,-34.04 0.26,-34.22 -0.53,-68.49 0.41,-102.67 1.7,-9.14 10.38,-16.209 19.68,-16.03 z" fill="#bbd9ec"/>
 <path id="path121" d="m 257.53,61.188 c -26.31,2.317 -51.03,24.871 -78.05,12.484 -19.15,-9.826 -41.43,-13.703 -61.21,-3.219 -8.62,2.375 -10.75,41.207 4.58,28.6 20.11,-8.944 41.23,-2.394 60.01,6.217 31.09,12.53 58.69,-22.56 90.08,-11.05 20.17,7.86 42.56,16.25 63.5,5.512 23.33,-9.883 48.73,-6.768 71.39,3.158 13.61,4.48 45.47,9.22 47.79,-9.403 0,-7.725 0,-15.449 0,-23.174 -20.01,9.468 -42.65,5.666 -62.23,-2.759 -22.21,-10.278 -45.38,-2.175 -67.09,4.649 -24.32,8.734 -45.19,-10.409 -68.77,-11.015 z" fill="#0092d9" fill-rule="evenodd"/>
 <path id="path3021" d="m 257.53,61.188 c -26.31,2.317 -51.03,24.871 -78.05,12.484 -19.15,-9.826 -41.43,-13.703 -61.21,-3.219 -8.62,2.375 -10.75,41.207 4.58,28.6 20.11,-8.944 41.23,-2.394 60.01,6.217 31.09,12.53 58.69,-22.56 90.08,-11.05 20.17,7.86 42.56,16.25 63.5,5.512 23.33,-9.883 48.73,-6.768 71.39,3.158 13.61,4.48 45.47,9.22 47.79,-9.403 0,-7.725 0,-15.449 0,-23.174 -20.01,9.468 -42.65,5.666 -62.23,-2.759 -22.21,-10.278 -45.38,-2.175 -67.09,4.649 -24.32,8.734 -45.19,-10.409 -68.77,-11.015 z" fill="#0073be" fill-rule="evenodd" stroke="#ffffff"/>
 <path id="path9928" d="m 408.76,256.44 c 6.67,91.74 13.35,183.47 20.02,275.21" fill="none" stroke="#000000" stroke-linejoin="round" stroke-linecap="round" stroke-width="30"/>
 <path id="path5516" d="m 170.78,256.44 c -6.67,91.74 -13.35,183.47 -20.02,275.21" fill="none" stroke="#000000" stroke-linejoin="round" stroke-linecap="round" stroke-width="30"/>
 <path id="rect9358" d="m 465.79,52.574 c 0,65.746 0,131.496 0,197.246 -118.67,0 -237.33,0 -356,0 0,-65.75 0,-131.5 0,-197.246" fill="none" stroke="#000000" stroke-linejoin="round" stroke-linecap="round" stroke-width="25"/>
</svg>
