<svg height="580" width="580" xmlns="http://www.w3.org/2000/svg"><g stroke-linecap="round"><path d="m287.3 162.14c4.97 89.69 24.64 178.77 57.69 262.31 16.37 40.2 36.69 79.01 62.74 113.83m-120.14-375.68c-4.98 89.7-24.65 178.77-57.7 262.31-16.37 40.2-36.69 79.01-62.74 113.83" fill="none" opacity=".8" stroke="#fff" stroke-linejoin="round" stroke-width="60"/><path d="m371.33 76.251c52.52 32.209 49.17 116.359-4.97 145.129l-5.47 3.18m53.07-183.653c76.3 53.537 66.48 178.883-15.02 222.383l-.84.52m-57.76-152.27c26.43 14.19 24.5 55.26-2.51 67.69l-2.75 1.48m-169.04-139.593c-76.297 53.537-66.481 178.883 15.02 222.383l.84.52m26.77-187.559c-52.52 32.209-49.17 116.359 4.97 145.129l5.47 3.18m20.55-113.03c-26.43 14.19-24.5 55.26 2.51 67.69l2.75 1.48" fill="none" opacity=".8" stroke="#fff" stroke-linejoin="round" stroke-width="50"/><g stroke="#000"><path d="m312.55 145.45c.37 22.85-33.67 31.22-45.03 11.96-12.08-16.68 6.57-40.21 25.65-34.96 10.71 1.93 19.57 11.66 19.38 22.75" stroke-width="2.578"/><path d="m262.43 314.64c22.83 21.14 45.67 42.27 68.5 63.41" fill="none" stroke-width="12.53"/><path d="m312.9 314.64c-22.84 21.14-45.67 42.27-68.51 63.41" fill="none" stroke-width="12.53"/><path d="m317.06 377.87c-35.75 33.09-71.49 66.18-107.24 99.27" fill="none" stroke-width="15.422"/><path d="m257.92 377.87c35.74 33.09 71.49 66.18 107.23 99.27" fill="none" stroke-width="15.422"/><path d="m287.59 162.6c-4.98 89.7-24.65 178.77-57.7 262.31-16.37 40.2-36.69 79.01-62.74 113.83" fill="none" stroke-width="19.809"/><path d="m287.3 162.14c4.97 89.69 24.64 178.77 57.69 262.31 16.37 40.2 36.69 79.01 62.74 113.83" fill="none" stroke-width="19.809"/><path d="m239.66 111.74c-26.43 14.19-24.5 55.26 2.51 67.69l2.75 1.48" display="block" fill="none" stroke-linejoin="round" stroke-width="10"/><path d="m208.67 76.461c-52.52 32.209-49.17 116.359 4.97 145.129l5.47 3.18" display="block" fill="none" stroke-linejoin="round" stroke-width="10"/><path d="m166.04 41.117c-76.297 53.537-66.481 178.883 15.02 222.383l.84.52" fill="none" stroke-linejoin="round" stroke-width="10"/><path d="m340.34 111.54c26.43 14.19 24.5 55.26-2.51 67.69l-2.75 1.48" display="block" fill="none" stroke-width="10"/><path d="m413.96 40.907c76.3 53.537 66.48 178.883-15.02 222.383l-.84.52" fill="none" stroke-width="10"/><path d="m371.33 76.251c52.52 32.209 49.17 116.359-4.97 145.129l-5.47 3.18" display="block" fill="none" stroke-width="10"/></g></g></svg>