<svg height="580" width="580" xmlns="http://www.w3.org/2000/svg"><path d="m190.17 519.42c-2.27 10.26-4.53 20.52-6.8 30.78-14.68-.1-29.36-.1-44.04-.14 25.13-113.49 50.27-226.99 75.4-340.48-14.51-.13-29.01-.27-43.52-.4 0-41.3 0-82.59 0-123.891 42.41-19.013 84.81-38.025 127.22-57.038 42.41 19.013 84.81 38.025 127.22 57.038v123.891c-14.5.13-29.01.27-43.51.4 25.09 113.49 50.18 226.99 75.27 340.48-14.63.1-29.27.1-43.9.14-3.11-10.69-3.56-22.68-8.36-32.55-35.59-43.39-71.19-86.77-106.78-130.16-36.07 43.98-72.13 87.95-108.2 131.93zm17.71-80.17c22.21-27.05 44.43-54.1 66.64-81.15-12.81-15.53-25.62-31.05-38.43-46.58-9.4 42.58-18.81 85.15-28.21 127.73zm142.7-173.94c-4.09-18.62-8.19-37.24-12.28-55.86-26.55 0-53.1 0-79.65 0-4.1 18.6-8.19 37.2-12.29 55.8 17.36 21.28 34.71 42.56 52.07 63.84 17.38-21.26 34.77-42.52 52.15-63.78zm10.2 46.21c-12.81 15.53-25.63 31.05-38.44 46.58 22.22 27.05 44.44 54.1 66.66 81.15-9.41-42.58-18.81-85.15-28.22-127.73zm-141.79-208.91v62.54h158.9c0-20.85 0-41.69 0-62.54-52.97 0-105.93 0-158.9 0z" opacity=".8" stroke="#fff" stroke-linecap="round" stroke-linejoin="round" stroke-width="40"/><path d="m190.17 519.42c-2.27 10.26-4.53 20.52-6.8 30.78-14.68-.1-29.36-.1-44.04-.14 25.13-113.49 50.27-226.99 75.4-340.48-14.51-.13-29.01-.27-43.52-.4 0-41.3 0-82.59 0-123.891 42.41-19.013 84.81-38.025 127.22-57.038 42.41 19.013 84.81 38.025 127.22 57.038v123.891c-14.5.13-29.01.27-43.51.4 25.09 113.49 50.18 226.99 75.27 340.48-14.63.1-29.27.1-43.9.14-3.11-10.69-3.56-22.68-8.36-32.55-35.59-43.39-71.19-86.77-106.78-130.16-36.07 43.98-72.13 87.95-108.2 131.93zm17.71-80.17c22.21-27.05 44.43-54.1 66.64-81.15-12.81-15.53-25.62-31.05-38.43-46.58-9.4 42.58-18.81 85.15-28.21 127.73zm142.7-173.94c-4.09-18.62-8.19-37.24-12.28-55.86-26.55 0-53.1 0-79.65 0-4.1 18.6-8.19 37.2-12.29 55.8 17.36 21.28 34.71 42.56 52.07 63.84 17.38-21.26 34.77-42.52 52.15-63.78zm10.2 46.21c-12.81 15.53-25.63 31.05-38.44 46.58 22.22 27.05 44.44 54.1 66.66 81.15-9.41-42.58-18.81-85.15-28.22-127.73zm-141.79-208.91v62.54h158.9c0-20.85 0-41.69 0-62.54-52.97 0-105.93 0-158.9 0z"/></svg>