<?xml version="1.0" encoding="UTF-8" standalone="no"?>
<svg
   xmlns:dc="http://purl.org/dc/elements/1.1/"
   xmlns:cc="http://creativecommons.org/ns#"
   xmlns:rdf="http://www.w3.org/1999/02/22-rdf-syntax-ns#"
   xmlns:svg="http://www.w3.org/2000/svg"
   xmlns="http://www.w3.org/2000/svg"
   xmlns:sodipodi="http://sodipodi.sourceforge.net/DTD/sodipodi-0.dtd"
   xmlns:inkscape="http://www.inkscape.org/namespaces/inkscape"
   height="580"
   width="580"
   version="1.1"
   id="svg6"
   sodipodi:docname="townhall.svg"
   inkscape:version="1.0.1 (3bc2e813f5, 2020-09-07)">
  <metadata
     id="metadata12">
    <rdf:RDF>
      <cc:Work
         rdf:about="">
        <dc:format>image/svg+xml</dc:format>
        <dc:type
           rdf:resource="http://purl.org/dc/dcmitype/StillImage" />
      </cc:Work>
    </rdf:RDF>
  </metadata>
  <defs
     id="defs10" />
  <sodipodi:namedview
     pagecolor="#ffffff"
     bordercolor="#666666"
     borderopacity="1"
     objecttolerance="10"
     gridtolerance="10"
     guidetolerance="10"
     inkscape:pageopacity="0"
     inkscape:pageshadow="2"
     inkscape:window-width="1920"
     inkscape:window-height="1001"
     id="namedview8"
     showgrid="false"
     inkscape:zoom="1.4310345"
     inkscape:cx="290"
     inkscape:cy="290"
     inkscape:window-x="-9"
     inkscape:window-y="-9"
     inkscape:window-maximized="1"
     inkscape:current-layer="svg6" />
  <path
     id="path2"
     d="m 289.99998,36.391518 c -19.17566,-0.371364 -18.9587,20.757076 -18.11496,34.580783 0,41.308369 0,82.616739 0,123.925109 -66.42151,31.70118 -132.84302,63.40236 -199.264534,95.10354 144.919674,0 289.839354,0 434.759024,0 -66.42152,-31.70118 -132.84304,-63.40236 -199.26456,-95.10354 -0.26599,-48.25989 0.53544,-96.568954 -0.40688,-144.797687 -1.25127,-8.422169 -9.47338,-14.094264 -17.70809,-13.708205 z m 36.22992,0 c 0,36.229921 0,72.459842 0,108.689762 48.30656,0 96.61311,0 144.91967,0 -24.15328,-18.11497 -48.30656,-36.22993 -72.45984,-54.344898 24.15328,-18.114955 48.30656,-36.229909 72.45984,-54.344864 -48.30656,0 -96.61311,0 -144.91967,0 z M 72.620486,326.23088 c 0,12.07664 0,24.15327 0,36.22991 12.076638,0 24.153276,0 36.229914,0 0,48.30656 0,96.61311 0,144.91967 -12.076638,0 -24.153276,0 -36.229914,0 0,12.07664 0,24.15328 0,36.22992 144.919674,0 289.839354,0 434.759024,0 0,-12.07664 0,-24.15328 0,-36.22992 -12.07665,0 -24.15329,0 -36.22994,0 0,-48.30656 0,-96.61311 0,-144.91967 12.07665,0 24.15329,0 36.22994,0 0,-12.07664 0,-24.15327 0,-36.22991 -144.91967,0 -289.83935,0 -434.759024,0 z m 217.379494,54.34487 c 31.09076,-0.87994 70.17197,15.70727 72.35481,51.0014 0.24121,25.26453 0.0379,50.53604 0.10504,75.80331 -48.30656,0 -96.61311,0 -144.91967,0 0.82896,-28.37214 -1.81123,-57.0473 1.62752,-85.19691 8.34838,-30.08758 42.77515,-41.67608 70.8323,-41.6078 z"
     style="stroke:#ffffff;stroke-opacity:1;opacity:0.8;stroke-width:60;stroke-miterlimit:4;stroke-dasharray:none;stroke-linejoin:round;stroke-linecap:round" />
  <path
     id="path4"
     style="fill:#241c1c;stroke:none"
     d="m 289.99998,36.391453 c -18.26791,-0.502044 -19.16687,19.36869 -18.11496,32.812018 0,41.897959 0,83.795909 0,125.693869 -66.42151,31.70118 -132.84302,63.40236 -199.264534,95.10354 144.919674,0 289.839354,0 434.759024,0 -66.42152,-31.70118 -132.84304,-63.40236 -199.26456,-95.10354 -0.26906,-48.25975 0.5396,-96.569143 -0.40688,-144.797683 -1.25127,-8.422168 -9.47338,-14.094263 -17.70809,-13.708204 z m 36.22992,0 c 0,36.229919 0,72.459837 0,108.689757 48.30656,0 96.61311,0 144.91967,0 -24.15328,-18.11497 -48.30656,-36.22993 -72.45984,-54.344898 24.15328,-18.114953 48.30656,-36.229906 72.45984,-54.344859 -48.30656,0 -96.61311,0 -144.91967,0 z M 72.620486,326.23081 c 0,12.07664 0,24.15327 0,36.22991 12.076638,0 24.153276,0 36.229914,0 0,48.30656 0,96.61311 0,144.91967 -12.076638,0 -24.153276,0 -36.229914,0 0,12.07664 0,24.15328 0,36.22992 144.919674,0 289.839354,0 434.759024,0 0,-12.07664 0,-24.15328 0,-36.22992 -12.07665,0 -24.15329,0 -36.22994,0 0,-48.30656 0,-96.61311 0,-144.91967 12.07665,0 24.15329,0 36.22994,0 0,-12.07664 0,-24.15327 0,-36.22991 -144.91967,0 -289.83935,0 -434.759024,0 z m 217.379494,54.34487 c 30.03722,-0.64353 67.63036,14.2423 72.04413,47.76405 0.92298,26.31558 0.17277,52.69802 0.41572,79.04066 -48.30656,0 -96.61311,0 -144.91967,0 0.51293,-27.37726 -1.09015,-54.88859 0.92543,-82.17186 6.34429,-31.90067 42.61664,-44.86962 71.53439,-44.63285 z" />
</svg>
