<svg enable-background="new 0 0 580 580" height="580" viewBox="0 0 580 580" width="580" xmlns="http://www.w3.org/2000/svg"><path d="m485.21 48.061c-18.53 2.554-36.48 15.005-56.08 17.13-36.63 10.03-69.94-12.203-103.97-21.462-34.96-8.374-67.8 12.313-101.04 19.675-33.14 11.523-67.16-3.878-95.91-19.667-6.9-10.104-38.57-10.949-37.198 6.338v485.595c3.346 9.57 16.588 3.65 24.538 5.3 11.68 3.33 14.45-7.54 12.7-16.84v-200.18c27.09 20.91 64.03 33.99 97.86 22.82 30.59-6.53 59.91-24.81 91.99-20.78 35.17 7.99 68.16 31.49 105.71 23.82 21.82-3.92 44.14-10.1 63.12-21.53 1.83-25.07.28-50.62.8-75.87v-199.837l-.67-2.583z" style="opacity:.8;fill:none;stroke:#fff;stroke-linejoin:round;stroke-linecap:round;stroke-width:57.48"/><path d="m485.21 48.06c-18.53 2.554-36.48 15.005-56.08 17.13-36.63 10.031-69.94-12.203-103.97-21.462-34.96-8.374-67.8 12.313-101.04 19.675-33.14 11.523-67.16-3.878-95.91-19.667-3.9-7.88-17.34-5.115-24.53-3.235-3.4 11.205-.68 23.968-1.56 35.809v459.36c3.23 8.58 17.38 5.6 24.58 3.75 3.41-11.63.67-24.83 1.55-37.09 0-59.46 0-118.91 0-178.38 27.09 20.91 64.03 33.99 97.86 22.82 30.59-6.53 59.91-24.81 91.99-20.78 35.17 7.99 68.16 31.49 105.71 23.82 21.82-3.92 44.14-10.1 63.12-21.53 1.83-25.07.28-50.62.8-75.87 0-66.61 0-133.23 0-199.838l-.67-2.583z" fill="#d7efd7"/><g fill="#2f922e"><path d="m485.21 48.061c-18.53 2.554-36.48 15.005-56.08 17.13-36.63 10.03-69.94-12.203-103.97-21.462-34.96-8.374-67.8 12.313-101.04 19.675-33.14 11.523-67.16-3.878-95.91-19.667-6.9-10.104-38.57-10.949-37.198 6.338v485.595c3.346 9.57 16.588 3.65 24.538 5.3 11.68 3.33 14.45-7.54 12.7-16.84 0-66.73 0-133.45 0-200.18 27.09 20.91 64.03 33.99 97.86 22.82 30.59-6.53 59.91-24.81 91.99-20.78 35.17 7.99 68.16 31.49 105.71 23.82 21.82-3.92 44.14-10.1 63.12-21.53 1.83-25.07.28-50.62.8-75.87 0-66.61 0-133.23 0-199.837l-.67-2.583zm-78.32 292.459c-17.47 4.66-16.37-8.8-15.5-20.91-.4-21.54.8-43.35-.58-64.74-29.56-6.57-56.75-26.24-87.99-24.65-5.16 5.93-1.17 16.56-2.43 24.44v60.22c-31.12 4.4-59.61 19.25-90.55 24.55 0-27.15 0-54.29 0-81.44-21.04-2.96-47.88-6.09-68.41-18.52-15.2-1.77-12.86-14.52-12.71-25.75-.14-26.39-.49-52.8-.47-79.19 21.85 17.67 50.76 30.16 79.28 27.38 4.95-6.08 1.1-16.53 2.31-24.43 0-20.09 0-40.172 0-60.261 31.06-4.78 59.56-19.556 90.55-24.586v81.517c17.12 3.57 38.62 7.36 56.12 16.03 12.17 4.13 40.62 20.5 34.88-3.96 0-23.18 0-46.362 0-69.544 29.4 4.998 58.86-4.724 85.72-15.874v84.168c-26.22 12.14-55.39 20.22-84.28 17.77-2.16 17.36-.34 35.6-.94 53.31.41 12.47-.84 25.25.64 37.53 28.64 6.11 58.25-4.88 84.58-15.68v84.19c-22.1 9.79-45.88 17.92-70.22 18.43z"/><path d="m297.57 137.96c-29.8 5.5-57.87 18.2-87.31 24.69-1.45 29.38-.21 59.24-.63 88.8 13.06 5.89 31.94-6.97 46.62-9.5 12.78-8.54 39.43-4.12 44.38-18.08 0-27.74 0-55.49 0-83.25 1.57-3.35-3.11-1.13-3.06-2.66z"/></g></svg>