<svg enable-background="new -0.2 -0.2 19 19" height="580" viewBox="-.2 -.2 580 580" width="580" xmlns="http://www.w3.org/2000/svg"><path d="m381.09 457.95c-61.96 0-123.63 0-185.59 0 0-109.35 0-218.71 0-328.06h188.16v328.06h-2.85zm3.14-8.28c0 46.83-34.83 92.22-82.23 97.65-44.83 6.85-89.94-24.84-101.64-68.24-14.85-46.54 8.85-102.79 55.1-121.06 37.98-16.56 85.09-2.86 108.79 31.98 12.56 17.13 19.98 38.26 19.98 59.67zm-.85-319.78c0 46.82-34.55 92.22-81.95 97.65-44.83 6.85-90.22-24.85-101.65-68.24-14.84-46.54 8.86-102.792 55.11-121.066 40.83-17.702 91.94 0 113.92 38.546 9.71 15.703 14.57 34.55 14.57 53.11z" style="opacity:.8;fill:none;stroke:#fff;stroke-linejoin:round;stroke-linecap:round;stroke-width:40"/><path d="m383.38 129.89c0 46.82-34.55 92.22-81.95 97.65-44.83 6.85-90.22-24.85-101.65-68.24-14.84-46.54 8.86-102.792 55.11-121.066 40.83-17.702 91.94 0 113.92 38.546 9.71 15.703 14.57 34.55 14.57 53.11z"/><path d="m384.23 449.67c0 46.83-34.83 92.22-82.23 97.65-44.83 6.85-89.94-24.84-101.64-68.24-14.85-46.54 8.85-102.79 55.1-121.06 37.98-16.56 85.09-2.86 108.79 31.98 12.56 17.13 19.98 38.26 19.98 59.67z"/><path d="m381.09 457.95c-61.96 0-123.63 0-185.59 0 0-109.35 0-218.71 0-328.06h188.16v328.06h-2.85z"/><path d="m357.39 129.89c2.86 40.26-35.97 79.37-77.09 72.8-42.26-6.85-71.66-53.96-57.96-94.79 9.71-38.829 56.53-63.955 93.37-45.967 25.69 11.706 41.97 39.977 41.68 67.957z" fill="#f00"/><path d="m360.25 446.82c2.85 39.68-33.98 77.09-74.24 73.95-41.97 0-73.38-44.83-65.95-85.09 3.99-39.4 44.82-70.52 83.94-61.1 33.12 6.57 56.82 39.12 56.25 72.24z" fill="#32cd32"/><path d="m360.25 285.78c2.85 39.4-33.98 76.81-74.24 73.67-41.97 0-73.38-44.83-65.95-85.09 3.99-39.12 44.82-70.52 83.94-61.1 33.12 6.85 56.82 39.12 56.25 72.52z" fill="#ff0"/></svg>