<svg height="580" width="580" xmlns="http://www.w3.org/2000/svg"><path d="m333.08 36.035c-41.46 27.306-82.91 54.612-124.37 81.915 38.95 25.61 77.88 51.2 116.82 76.81h-90.39c-4.57 5.38-8.2 12.76-16.45 10.27h-86.92c-.48 9.91 1.31 20.96-.56 30.16-21.81 43.42-43.625 86.84-65.44 130.26.127 27.43-.255 54.89.195 82.31 3.362 18.09 22.3 29.22 39.865 26.59h403.21v-269.32h-71.36c-5.07-4.48-8.59-12.58-16.56-10.27h-80.51c38.05-25.63 76.08-51.25 114.13-76.87-40.56-27.285-81.11-54.571-121.66-81.855zm-183.22 199.785h40.28c0 44.1-.1 88.21-.13 132.31-20.46-.43-41.08.89-61.44-.73-22.54-5.8-29.725-35.15-17.28-53.19 12.85-26.13 25.71-52.26 38.57-78.39zm72.83 0h.04 49.56c12.08 4.87 14.49 16.54 13.03 28.04 0 57.84-.1 115.68-.1 173.52-2.73 11.96-14.7 19.28-26.5 16.93h-34.42c-11.37-5.82-16.17-17.33-14.3-29.49 0-58.6-.1-117.19-.1-175.78 1.2-6.44 8.21-9.48 12.79-13.22zm96.18 0h.02 163.54c11.95 4.8 13.9 16.47 12.57 27.72 0 29.25-.1 58.49-.1 87.74-2.62 11.95-14.57 19.04-26.25 16.72h-147.75c-10.64-6.24-17.52-15.62-15.34-27.88.1-30.43.13-60.87.19-91.3 1.57-6.28 8.54-9.22 13.12-13zm19.18 255.81c-1.23-.06-2.69.11-4.43.55h-58.37c4.85 11.66-16.83 34.63 3 30.38h71.28c-9.34-8.38.41-30.37-11.48-30.93zm-177.63.09c-1.55 26.08 20.1 50.57 46.49 50.7 26.46 2.37 51.17-20.32 50.65-47-1.16-6.49-13.99-1.64-20.21-3.22-25.64-.16-51.29-.32-76.93-.48zm200.5 0c-1.69 26.96 21.58 51.84 48.77 50.75 25.74 1.16 48.81-21.26 48.38-47.05-1.16-6.49-13.99-1.64-20.21-3.22-25.65-.16-51.29-.32-76.94-.48z" fill="none" opacity=".8" stroke="#fff" stroke-linecap="round" stroke-width="40"/><path d="m208.71 117.95c41.46-27.302 82.91-54.608 124.37-81.914 40.55 27.284 81.1 54.568 121.66 81.854-40.53 27.29-81.05 54.59-121.58 81.89-41.48-27.28-82.96-54.55-124.45-81.83z" fill="none" stroke="#0073be" stroke-width="16"/><path d="m235.14 194.76c-4.57 5.38-8.2 12.76-16.45 10.27-28.97 0-57.95 0-86.92 0-.48 9.91 1.31 20.96-.56 30.16-21.81 43.42-43.625 86.84-65.44 130.26.127 27.43-.256 54.89.194 82.31 3.362 18.09 22.301 29.22 39.866 26.59h403.21c0-89.77 0-179.55 0-269.32-23.79 0-47.57 0-71.36 0-5.07-4.48-8.59-12.58-16.56-10.27-61.99 0-123.99 0-185.98 0zm-85.28 41.06h40.28c0 44.1-.1 88.21-.13 132.31-20.46-.43-41.08.89-61.44-.73-22.54-5.8-29.724-35.15-17.28-53.19 12.85-26.13 25.71-52.26 38.57-78.39zm72.87 0h49.56c12.08 4.87 14.49 16.54 13.03 28.04 0 57.84-.1 115.68-.1 173.52-2.73 11.96-14.7 19.28-26.5 16.93-11.48 0-22.95 0-34.42 0-11.37-5.82-16.17-17.33-14.3-29.49 0-58.6-.1-117.19-.1-175.78 1.2-6.44 8.21-9.48 12.79-13.22zm96.16 0h163.54c11.95 4.8 13.9 16.47 12.57 27.72 0 29.25-.1 58.49-.1 87.74-2.62 11.95-14.57 19.04-26.25 16.72-49.25 0-98.5 0-147.75 0-10.64-6.24-17.52-15.62-15.34-27.88.1-30.43.13-60.87.19-91.3 1.57-6.28 8.54-9.22 13.12-13zm42.03 255.9c-1.69 26.96 21.58 51.84 48.77 50.75 25.74 1.16 48.81-21.26 48.38-47.05-1.16-6.49-13.99-1.64-20.21-3.22-25.65-.16-51.29-.32-76.94-.48zm-200.5 0c-1.55 26.08 20.1 50.57 46.49 50.7 26.46 2.37 51.17-20.32 50.65-47-1.16-6.49-13.99-1.64-20.21-3.22-25.64-.16-51.29-.32-76.93-.48zm114.83.46c4.85 11.66-16.83 34.63 3 30.38h71.28c-10.3-9.25 2.63-35.06-15.91-30.38-19.46 0-38.91 0-58.37 0z" fill="#0073be"/></svg>