<?xml version="1.0" encoding="UTF-8" standalone="no"?>
<svg xmlns="http://www.w3.org/2000/svg" xmlns:sodipodi="http://sodipodi.sourceforge.net/DTD/sodipodi-0.dtd" xmlns:inkscape="http://www.inkscape.org/namespaces/inkscape" width="580" height="580" version="1.1">
 <metadata id="metadata12"/>
 <path id="path4138" d="m 113.86,313.27 c -6.45,0 -9.64,5.28 -12.28,10.69 -10.795,25.9 -21.672,44.83 -25.625,80.03 -0.815,24.8 -2.049,49.39 -1.727,74.77 0,14.99 17.52,38.03 32.202,38.03 l 280.03,0 0,-28.05 c -0.56,-0.14 -1.11,-0.28 -1.67,-0.44 l 0,-25.31 1.67,0.32 0,-7.85 C 328.51,437.04 279.64,399.57 252.68,333.33 c -4.67,-11.94 -13.86,-19.23 -26,-20.06 l -112.82,0 z m -0.89,16.65 109.01,0 c 7.09,0 13.34,26.71 18.47,40.38 1.62,4.44 0.34,11.55 -3.11,11.55 l -141.814,0 c -3.26,0 -4.606,-5.81 -3.239,-11.2 6.894,-13.58 14.763,-40.73 20.683,-40.73 z m 151.86,58.71 c 7.98,7.73 16.55,18.32 23.95,23.17 l 0,47.04 -21.57,-9.88 c -2.05,-19.84 -2.25,-40.08 -2.38,-60.33 z m 36.28,34.14 c 8.93,7.57 12.59,9.05 20.3,14.69 l 0.32,36.2 -20.62,-8.62 c -0.48,-19.86 0.13,-22.02 0,-42.27 z m -192.92,13.96 c 7.33,-0.18 13.13,5.6 13.13,12.74 0,7.14 -5.8,12.93 -12.95,12.93 -7.16,0 -12.969,-5.79 -12.969,-12.93 0,-6.92 5.459,-12.58 12.789,-12.74 z m 106.96,0 c 7.33,-0.18 13.13,5.6 13.13,12.74 0,7.14 -5.8,12.93 -12.95,12.93 -7.16,0 -12.97,-5.79 -12.97,-12.93 0,-6.92 5.46,-12.58 12.79,-12.74 z m 116.91,7.16 20.15,8.21 0,29.76 c -7.39,-0.8 -14.25,-2.51 -20.15,-5.67 l 0,-32.3 z m 28.48,12.22 16.02,4.11 0,26.98 c -5.46,-0.25 -10.86,-0.87 -16.02,-2.87 l 0,-28.22 z m -159.48,67.29 0,13.34 -59.38,0 0,-13.3 -40.53,0 0,13.46 -26.903,0 -0.04,18.94 189.313,0 c 26.65,-11.99 73.18,-27.09 122.94,-29.18 l 0,-3.26 -185.4,0 z M 152.6,224.68 c 5.13,5.79 13.21,9.53 17.76,9.53 l 99.25,0 85.89,140.71 c 2.64,4.4 7.34,7.04 12.49,7.04 l 38.68,0 c 9.99,0 17.1,-9.75 13.94,-19.28 l -42.58,-130.45 53.6,0 23.04,29.17 c 2.07,2.64 5.29,4.18 8.67,4.18 l 30.61,0 c 7.34,0 12.71,-7.18 10.5,-14.22 l -14.54,-47.71 15.42,-49.1 c 2.2,-7.04 -3.08,-14.22 -10.49,-14.22 l -30.62,0 c -3.37,0 -6.61,1.53 -8.66,4.25 l -23.05,29.31 -53.59,0 42.58,-130.451 c 3.15,-9.455 -3.97,-19.056 -13.96,-19.275 l -38.68,0 c -5.13,0 -9.9,2.712 -12.47,7.108 l -85.89,142.918 -93.97,0 c -9.1,0 -17.33,3.66 -22.61,9.45 -5.29,5.79 -7.71,13.05 -8.22,20.49 -0.51,7.44 1.76,14.76 6.9,20.55 z" inkscape:connector-curvature="0" opacity="0.8" fill="none" stroke="#ffffff" stroke-linejoin="round" stroke-width="40"/>
 <path d="m 158.05,227.5 c 4.93,5.54 12.69,9.12 17.06,9.12 l 95.31,0 82.48,134.64 c 2.54,4.21 7.05,6.74 11.99,6.74 l 37.15,0 c 9.59,0 16.42,-9.33 13.39,-18.45 l -40.89,-124.83 51.47,0 22.13,27.91 c 1.98,2.53 5.08,4 8.32,4 l 29.4,0 c 7.05,0 12.2,-6.87 10.08,-13.6 l -13.96,-45.66 14.81,-46.98 c 2.11,-6.74 -2.96,-13.61 -10.08,-13.61 l -29.4,0 c -3.24,0 -6.35,1.47 -8.32,4.07 l -22.14,28.05 -51.46,0 40.89,-124.831 c 3.03,-9.047 -3.81,-18.234 -13.4,-18.444 l -37.15,0 c -4.93,0 -9.51,2.595 -11.98,6.802 l -82.48,136.753 -90.24,0 c -8.74,0 -16.64,3.51 -21.71,9.05 -5.08,5.54 -7.41,12.48 -7.9,19.6 -0.49,7.12 1.69,14.13 6.63,19.67 z" id="path4173" isolation="auto" white-space="normal" mix-blend-mode="normal" inkscape:connector-curvature="0" fill="#ac3b98" color-rendering="auto" solid-opacity="1" color-interpolation-filters="linearRGB" shape-rendering="auto" image-rendering="auto" color-interpolation="sRGB" color="#000000" solid-color="#000000"/>
 <path d="m 120.85,312.27 c -6.2,0 -9.26,5.05 -11.8,10.23 -10.363,24.78 -20.808,42.89 -24.604,76.58 -0.783,23.73 -1.968,47.26 -1.659,71.54 0,14.35 16.825,36.39 30.923,36.39 l 268.92,0 0,-26.84 c -0.54,-0.13 -1.06,-0.27 -1.6,-0.42 l 0,-24.22 1.6,0.31 0,-7.51 C 326.98,430.7 280.05,394.85 254.16,331.46 c -4.49,-11.42 -13.31,-18.4 -24.97,-19.19 l -108.34,0 z m -0.86,15.93 104.69,0 c 6.81,0 12.81,25.56 17.73,38.64 1.56,4.25 0.33,11.05 -2.98,11.05 l -136.19,0 c -3.13,0 -4.423,-5.56 -3.11,-10.72 6.62,-12.99 14.18,-38.97 19.86,-38.97 z m 145.84,56.18 c 7.66,7.39 15.89,17.53 23,22.17 l 0,45.01 -20.72,-9.45 c -1.97,-18.99 -2.16,-38.36 -2.28,-57.73 z m 34.84,32.67 c 8.57,7.24 12.09,8.66 19.49,14.05 l 0.31,34.64 -19.8,-8.25 c -0.46,-19 0.12,-21.07 0,-40.44 z M 115.4,430.4 c 7.04,-0.17 12.61,5.36 12.61,12.19 0,6.84 -5.57,12.38 -12.44,12.38 -6.87,0 -12.45,-5.54 -12.45,-12.38 0,-6.62 5.24,-12.03 12.28,-12.19 z m 102.72,0 c 7.04,-0.17 12.61,5.36 12.61,12.19 0,6.84 -5.57,12.38 -12.44,12.38 -6.87,0 -12.45,-5.54 -12.45,-12.38 0,-6.62 5.24,-12.03 12.28,-12.19 z m 112.27,6.86 19.35,7.85 0,28.48 c -7.1,-0.77 -13.68,-2.4 -19.35,-5.43 l 0,-30.9 z m 27.35,11.69 15.38,3.93 0,25.82 c -5.24,-0.24 -10.42,-0.83 -15.38,-2.75 l 0,-27 z m -153.15,64.39 0,12.76 -57.03,0 0,-12.72 -38.92,0 0,12.88 -25.834,0 -0.04,18.12 181.802,0 c 25.59,-11.47 70.28,-25.92 118.06,-27.92 l 0,-3.12 -178.04,0 z" id="path4171" isolation="auto" white-space="normal" mix-blend-mode="normal" inkscape:connector-curvature="0" fill="#ac3b98" color-rendering="auto" solid-opacity="1" color-interpolation-filters="linearRGB" shape-rendering="auto" image-rendering="auto" color-interpolation="sRGB" color="#000000" solid-color="#000000"/>
</svg>
