<svg height="580" width="580" xmlns="http://www.w3.org/2000/svg"><path d="m285.76 38.993c-35.31-1.684-72.76 22.449-77.06 59.312-1.56 26.215-31.34 14.525-47.01 24.005-45.69 21.94-51.15 93.19-11.5 123.71.49 19.88-35.49 28.13-40.38 50.55-26.91 50.73 17.35 120.67 74.84 117.33 22.9 2.51 40.26-19.6 59.61-22.09 9.33 24.21 4.55 51.49 4.22 76.93-.62 23.58-6.43 46.39-13.77 68.65h111.63c-10.66-30.72-14.81-63.13-14.89-95.59 2.64-13.58-6.89-51.69 13.05-49.28 24.18 19.82 59.44 29.25 88.15 13.4 42.51-20.7 61.8-81.13 32.12-120.04-5.78-15.89-38.01-24.01-33.75-39.86 29.67-11.84 30.49-50.28 20.61-75.97-9.42-28.03-33.51-52.45-64.12-54.71-22.93-7.35-13.04-40.804-32.96-53.658-17.72-18.42-44.17-23.857-68.79-22.689z" style="opacity:.8;fill:none;stroke:#fff;stroke-linejoin:round;stroke-linecap:round;stroke-width:60"/><path d="m285.76 38.993c-35.31-1.684-72.76 22.449-77.06 59.312-1.56 26.215-31.34 14.525-47.01 24.005-45.69 21.94-51.15 93.19-11.5 123.71.49 19.88-35.49 28.13-40.38 50.55-26.91 50.73 17.35 120.67 74.84 117.33 22.9 2.51 40.26-19.6 59.61-22.09 9.33 24.21 4.55 51.49 4.22 76.93-.62 23.58-6.43 46.39-13.77 68.65h111.63c-10.66-30.72-14.81-63.13-14.89-95.59 2.64-13.58-6.89-51.69 13.05-49.28 24.18 19.82 59.44 29.25 88.15 13.4 42.51-20.7 61.8-81.13 32.12-120.04-5.78-15.89-38.01-24.01-33.75-39.86 29.67-11.84 30.49-50.28 20.61-75.97-9.42-28.03-33.51-52.45-64.12-54.71-22.93-7.35-13.04-40.804-32.96-53.658-17.72-18.42-44.17-23.857-68.79-22.689z" fill="#2f922e"/></svg>