<svg enable-background="new 0 0 580 580" height="580" viewBox="0 0 580 580" width="580" xmlns="http://www.w3.org/2000/svg"><path d="m258.04 205.88c-19.42 0-18.52 25.68-17.62 42.41v235.37c5.07 23.6 28.07 15.23 43.01 16.73 15.83-2.99 32.85 3.58 48.09-3.59 13.14-13.44 5.97-36.14 7.76-54.36 0-73.18 0-146.66 0-219.84-5.07-23.89-28.07-15.53-43.01-17.02-12.84 0-25.68 0-38.23 0zm-186.174 75.47c-29.869 5.08-49.582-30.77-28.375-49.88 16.129-12.25 37.933-14.94 56.749-22.4 134.71-43.61 268.82-87.82 403.53-131.13 27.78-7.766 52.57 23 36.14 44.5-12.24 16.43-36.14 17.33-54.66 25.09-136.5 44.51-273 89.31-409.799 133.22h-3.585zm436.084 0c29.87 5.08 49.59-30.77 28.38-49.88-16.13-12.25-37.93-14.94-56.75-22.4-134.71-43.61-268.82-87.82-403.532-131.13-27.778-7.766-52.569 23-36.142 44.5 12.247 16.43 36.142 17.33 54.661 25.09 136.503 44.51 273.003 89.31 409.803 133.22h3.58z" fill="none" opacity=".8" stroke="#fff" stroke-width="40"/><path d="m258.04 205.88c-19.42 0-18.52 25.68-17.62 42.41v235.37c5.07 23.6 28.07 15.23 43.01 16.73 15.83-2.99 32.85 3.58 48.09-3.59 13.14-13.44 5.97-36.14 7.76-54.36 0-73.18 0-146.66 0-219.84-5.07-23.89-28.07-15.53-43.01-17.02-12.84 0-25.68 0-38.23 0z" fill="#5f5f5f"/><path d="m508.05 281.44c29.86 5.08 49.58-30.76 28.37-49.88-16.13-12.24-37.93-14.93-56.75-22.4-134.71-43.61-268.82-87.81-403.534-131.124-27.778-7.766-52.569 22.994-36.141 44.504 12.246 16.43 36.141 17.32 54.66 25.09 136.505 44.51 273.005 89.31 409.805 133.22h3.59z" fill="#868684"/><path d="m71.955 281.44c-29.869 5.08-49.583-30.76-28.376-49.88 16.129-12.24 37.934-14.93 56.751-22.4 134.71-43.61 268.82-87.81 403.53-131.124 27.78-7.766 52.57 22.994 36.15 44.504-12.25 16.43-36.15 17.32-54.67 25.09-136.5 44.51-273 89.31-409.801 133.22h-3.584z" fill="#868684"/><g fill="#2c2c2c"><path d="m71.955 281.44c-29.869 5.08-49.583-30.76-28.376-49.88 16.129-12.24 37.934-14.93 56.751-22.4 134.71-43.61 55.56-17.92 190.27-61.23 97.07 32.86 0 0 97.07 32.86-136.5 44.5-175.33 56.15-312.131 100.06h-3.584z"/><path d="m509.24 282.94c29.87 5.08 49.58-30.77 28.08-49.88-15.83-12.25-37.94-14.94-56.75-22.41-134.42-43.6-55.56-17.92-189.97-61.23-97.38 32.86 0 0-97.38 32.86 136.8 44.5 175.63 56.15 312.44 100.06h3.58z"/></g></svg>