<svg height="580" width="580" xmlns="http://www.w3.org/2000/svg"><path d="m91.852578 413.13481c-4.199762 18.04204-8.40472 36.08407-12.609678 54.11572 4.204958-18.03165 8.409916-36.07368 12.609678-54.11572zm-26.009215-3.5024c-1.41551 17.56397-2.83102 35.13832-4.244452 52.70229 1.413432-17.56397 2.828942-35.13832 4.244452-52.70229zm-9.511562-4.074c-1.414471 17.57435-2.828941 35.13831-4.243412 52.72306 1.414471-17.58475 2.828941-35.14871 4.243412-52.72306zm49.839049 5.32115c-5.87198 19.34114-11.743956 38.68229-17.613853 58.03383 5.869897-19.35154 11.741873-38.69269 17.613853-58.03383zm-24.217488.28061c-4.203919 18.03164-8.408877 36.07367-12.613835 54.10532 4.204958-18.03165 8.409916-36.07368 12.613835-54.10532zm24.269448-4.85348c-2.52547 16.22328-12.606561 53.87668-34.093835 44.02423-11.654573-18.19793-22.834191-52.77503 1.436296-65.69338 14.857657-6.82812 33.166789 5.33155 32.657539 21.66915zm27.52034-151.68405c-9.91481.1559-19.82961.3014-29.73402.43651-22.801976 47.64095-23.826714 101.86059-28.905713 153.48201-4.794235 16.41036-.33673 24.63112 16.02166 20.95204 7.500539-12.73127 2.449601-39.76315 6.928931-57.21279 4.604042-37.67418 6.568302-77.64519 26.096512-111.1934 2.7749-2.69175 5.95512-5.06133 9.59263-6.46437zm-6.91126 84.47331c8.85473-26.17965 17.71985-52.34892 26.57458-78.52858 61.7233 1.76679 123.4466 3.52319 185.1803 5.28998 41.09343-22.38626 82.20766-44.75174 123.3011-67.1276 16.44153 19.09172 32.88306 38.18343 49.33499 57.27515-39.96062 5.59137-83.70424 11.8167-113.26158 42.14312-16.85725 9.05219-27.26052 38.99407-45.80142 36.57253-46.99659-14.78906-96.37315-31.76063-146.17582-21.68993-27.63466 4.26108-54.07414 13.90567-79.15215 26.06533zm144.21157-227.67677c-81.97902 41.17659-163.95804 82.35317-245.930824 123.51935 102.166144 1.36147 204.328134 2.73333 306.490114 4.10519 74.4234-38.807 148.85719-77.61401 223.28058-116.42101-94.61675-3.73105-189.23351-7.46209-283.83987-11.20353z" style="opacity:.8;fill:none;stroke:#fff;stroke-linejoin:round;stroke-linecap:round;stroke-width:49.5169"/><g stroke="#6c4dda"><path d="m271.04346 111.41918c-81.97902 41.17659-163.95804 82.35317-245.930824 123.51935 102.166144 1.36147 204.328134 2.73333 306.490114 4.10519 74.4234-38.807 148.85719-77.61401 223.28058-116.42101-94.61675-3.73105-189.23351-7.46209-283.83987-11.20353z" fill="#6c4dda" fill-rule="evenodd" stroke-linecap="round" stroke-linejoin="round" stroke-width="9.90337"/><path d="m126.83189 339.09595c8.85473-26.17965 17.71985-52.34892 26.57458-78.52858 61.7233 1.76679 123.4466 3.52319 185.1803 5.28998 41.09343-22.38626 82.20766-44.75174 123.3011-67.1276 16.44153 19.09172 32.88306 38.18343 49.33499 57.27515-39.96062 5.59137-83.70424 11.8167-113.26158 42.14312-16.85725 9.05219-27.26052 38.99407-45.80142 36.57253-46.99659-14.78906-96.37315-31.76063-146.17582-21.68993-27.63466 4.26108-54.07414 13.90567-79.15215 26.06533z" fill="#6c4dda" fill-rule="evenodd" stroke-linecap="round" stroke-linejoin="round" stroke-width="9.90337"/><path d="m133.74315 254.62264c-9.91481.1559-19.82961.3014-29.73402.43651-22.801976 47.64095-23.826714 101.86059-28.905713 153.48201-4.794235 16.41036-.33673 24.63112 16.02166 20.95204 7.500539-12.73127 2.449601-39.76315 6.928931-57.21279 4.604042-37.67418 6.568302-77.64519 26.096512-111.1934 2.7749-2.69175 5.95512-5.06133 9.59263-6.46437z" fill="#6c4dda" fill-rule="evenodd" stroke-width="19.8088"/><path d="m106.22281 406.30669c-2.52547 16.22328-12.606561 53.87668-34.093835 44.02423-11.654573-18.19793-22.834191-52.77503 1.436296-65.69338 14.857657-6.82812 33.166789 5.33155 32.657539 21.66915z" fill="none" stroke-linejoin="round" stroke-width="15.3253"/><path d="m81.953362 411.16017c-4.203919 18.03164-8.408877 36.07367-12.613835 54.10532 4.204958-18.03165 8.409916-36.07368 12.613835-54.10532z" fill="none" stroke-linecap="round" stroke-linejoin="round" stroke-width="9.90337"/><path d="m106.17085 410.87956c-5.87198 19.34114-11.743956 38.68229-17.613853 58.03383 5.869897-19.35154 11.741873-38.69269 17.613853-58.03383z" fill="none" stroke-linecap="round" stroke-linejoin="round" stroke-width="9.90337"/><path d="m56.331801 405.55841c-1.414471 17.57435-2.828941 35.13831-4.243412 52.72306 1.414471-17.58475 2.828941-35.14871 4.243412-52.72306z" fill="none" stroke-linecap="round" stroke-linejoin="round" stroke-width="9.90337"/><path d="m65.843363 409.63241c-1.41551 17.56397-2.83102 35.13832-4.244452 52.70229 1.413432-17.56397 2.828942-35.13832 4.244452-52.70229z" fill="none" stroke-linecap="round" stroke-linejoin="round" stroke-width="9.90337"/><path d="m91.852578 413.13481c-4.199762 18.04204-8.40472 36.08407-12.609678 54.11572 4.204958-18.03165 8.409916-36.07368 12.609678-54.11572z" fill="none" stroke-linecap="round" stroke-linejoin="round" stroke-width="9.90337"/></g></svg>