<svg height="580" width="580" xmlns="http://www.w3.org/2000/svg"><g stroke-linejoin="round"><path d="m236.05 287.14c-45.75-18.33-93.36-32.36-141.461-42.97-22.244-5.19-53.388 1.81-56.238 28.77-6.732 24.83 9.384 54.52 37.378 52.96 38.511.25 74.611-16.15 111.671-24.55 16.24-4.65 32.56-9.07 48.65-14.21zm110.3-.45c45.75-18.32 93.36-32.35 141.46-42.97 22.24-5.18 53.39 1.82 56.24 28.78 6.73 24.83-9.39 54.52-37.38 52.96-38.51.24-74.61-16.16-111.67-24.56-16.24-4.65-32.56-9.06-48.65-14.21zm-80.06 46.24c-39.28 29.76-75.85 63.32-109.74 99.07-15.9 16.39-25.96 46.68-4.33 63.02 17.81 18.57 51.56 20.06 64.65-4.73 20.06-32.87 24.62-72.26 36.53-108.35 4.38-16.31 9.01-32.57 12.89-49.01zm53.5 3.19c39.28 29.76 75.85 63.32 109.74 99.07 15.9 16.39 25.96 46.69 4.33 63.03-17.81 18.56-51.56 20.06-64.65-4.73-20.06-32.88-24.62-72.26-36.52-108.36-4.39-16.31-9.02-32.57-12.9-49.01zm3.4-102.18c7.61-48.69 19.86-96.79 35.3-143.567 6.91-21.771 28.83-44.975 53.46-33.656 24.79 6.894 42.08 35.911 26.45 59.183-19.46 33.23-52 55.9-78.15 83.47-12.29 11.59-24.42 23.37-37.06 34.57zm-58.68 1.56c-38.37-30.94-73.9-65.6-106.69-102.36-15.4-16.86-24.54-47.449-2.41-63.125 18.36-18.018 52.14-18.486 64.47 6.69 19.05 33.465 22.41 72.975 33.22 109.415 3.89 16.44 8.02 32.83 11.41 49.38z" fill="none" opacity=".8" stroke="#fff" stroke-width="53"/><g fill="#734a08" stroke="#734a08" stroke-linecap="round" stroke-width="13.06"><path d="m264.51 235.5c-38.37-30.94-73.9-65.6-106.69-102.36-15.4-16.86-24.54-47.449-2.41-63.125 18.36-18.018 52.14-18.486 64.47 6.69 19.05 33.465 22.41 72.975 33.22 109.415 3.89 16.44 8.02 32.83 11.41 49.38z"/><path d="m323.19 233.94c7.61-48.69 19.86-96.79 35.3-143.567 6.91-21.771 28.83-44.975 53.46-33.656 24.79 6.894 42.08 35.911 26.45 59.183-19.46 33.23-52 55.9-78.15 83.47-12.29 11.59-24.42 23.37-37.06 34.57z"/><path d="m319.79 336.12c39.28 29.76 75.85 63.32 109.74 99.07 15.9 16.39 25.96 46.69 4.33 63.03-17.81 18.56-51.56 20.06-64.65-4.73-20.06-32.88-24.62-72.26-36.52-108.36-4.39-16.31-9.02-32.57-12.9-49.01z"/><path d="m266.29 332.93c-39.28 29.76-75.85 63.32-109.74 99.07-15.9 16.39-25.96 46.68-4.33 63.02 17.81 18.57 51.56 20.06 64.65-4.73 20.06-32.87 24.62-72.26 36.53-108.35 4.38-16.31 9.01-32.57 12.89-49.01z"/><path d="m346.35 286.69c45.75-18.32 93.36-32.35 141.46-42.97 22.24-5.18 53.39 1.82 56.24 28.78 6.73 24.83-9.39 54.52-37.38 52.96-38.51.24-74.61-16.16-111.67-24.56-16.24-4.65-32.56-9.06-48.65-14.21z"/><path d="m236.05 287.14c-45.75-18.33-93.36-32.36-141.461-42.97-22.244-5.19-53.388 1.81-56.238 28.77-6.732 24.83 9.384 54.52 37.378 52.96 38.511.25 74.611-16.15 111.671-24.55 16.24-4.65 32.56-9.07 48.65-14.21z"/></g></g></svg>