<?xml version="1.0" encoding="UTF-8" standalone="no"?>
<svg
   xmlns:dc="http://purl.org/dc/elements/1.1/"
   xmlns:cc="http://creativecommons.org/ns#"
   xmlns:rdf="http://www.w3.org/1999/02/22-rdf-syntax-ns#"
   xmlns:svg="http://www.w3.org/2000/svg"
   xmlns="http://www.w3.org/2000/svg"
   xmlns:sodipodi="http://sodipodi.sourceforge.net/DTD/sodipodi-0.dtd"
   xmlns:inkscape="http://www.inkscape.org/namespaces/inkscape"
   height="580"
   width="580"
   version="1.1"
   id="svg10"
   sodipodi:docname="water_park.svg"
   inkscape:version="1.0.1 (3bc2e813f5, 2020-09-07)">
  <metadata
     id="metadata16">
    <rdf:RDF>
      <cc:Work
         rdf:about="">
        <dc:format>image/svg+xml</dc:format>
        <dc:type
           rdf:resource="http://purl.org/dc/dcmitype/StillImage" />
      </cc:Work>
    </rdf:RDF>
  </metadata>
  <defs
     id="defs14" />
  <sodipodi:namedview
     pagecolor="#ffffff"
     bordercolor="#666666"
     borderopacity="1"
     objecttolerance="10"
     gridtolerance="10"
     guidetolerance="10"
     inkscape:pageopacity="0"
     inkscape:pageshadow="2"
     inkscape:window-width="1920"
     inkscape:window-height="1001"
     id="namedview12"
     showgrid="false"
     inkscape:zoom="1.4310345"
     inkscape:cx="290"
     inkscape:cy="290"
     inkscape:window-x="-9"
     inkscape:window-y="-9"
     inkscape:window-maximized="1"
     inkscape:current-layer="svg10"
     inkscape:document-rotation="0" />
  <path
     d="m177.11986 541.57485c-8.58648-2.31384-16.45947-5.76136-42.522-18.62313-25.60528-12.6363-34.37622-15.96202-44.569375-16.90016-9.56877-.88297-20.4821 2.71196-45.3061 14.90795-10.63858 5.22765-19.40125 9.35828-19.4722 9.17893-.0788-.19709.0307-17.07755.23651-37.55214l.35476-37.22616 14.98601-7.29277c45.45511-22.1211 47.12369-22.09351 96.133125 1.5925 34.84135 16.83788 39.52148 18.56479 50.43835 18.61288 11.10963.0394 13.59416-.83961 49.01891-17.53598 44.38608-20.91963 49.49113-22.12623 67.73782-16.01325 6.11771 2.04975 22.73642 9.29324 36.93013 16.09682 32.32332 15.49371 41.45179 18.6925 51.06707 17.89625 10.43203-.86325 19.37721-4.27844 50.15612-19.14581 15.25327-7.36805 31.64652-14.57054 36.42953-16.00537 15.32224-4.59617 25.88159-2.14435 58.8155 13.6596l17.94554 8.61129-.55581 24.59736c-.70163 31.02923-1.44664 48.92943-2.06945 49.54908-.27593.27592-9.1868-3.79597-19.82539-9.02204-21.17585-10.40523-34.97025-15.3396-42.88227-15.3396-8.46388 0-19.879 4.25165-49.03941 18.266-15.25327 7.33061-32.24724 14.7641-37.76422 16.519-16.20166 5.15315-21.05247 4.06047-56.05623-12.62566-49.13913-23.42387-55.82012-25.09757-74.79171-18.73508-6.08499 2.04187-23.07897 9.49151-37.76422 16.55722-36.77679 17.69524-43.90124 19.67009-57.62351 15.97346z"
     style="fill:#fff;stroke-width:47;stroke:#fff;stroke-linejoin:round;stroke-linecap:round;opacity:.8"
     id="path2" />
  <path
     id="path4"
     style="opacity:0.8;fill:#ffffff;fill-rule:evenodd;stroke:#ffffff;stroke-width:47;stroke-linecap:round;stroke-linejoin:round"
     d="m 119.36654,212.93496 c -1.27742,-74.18325 52.38401,-144.37314 123.92068,-163.464135 68.91463,-20.524092 148.69633,8.274307 188.20488,68.466155 43.02913,61.21821 37.61524,150.60177 -12.4681,206.19068 -48.26941,57.40837 -135.92014,75.37621 -203.00033,41.96154 -58.08766,-27.249 -97.3753,-88.85266 -96.65713,-153.15424 z"
     sodipodi:nodetypes="cccccc" />
  <path
     id="path6"
     d="M 119.36654,212.93496 C 118.01472,138.12409 172.90203,67.218202 245.27744,48.797167 311.592,30.425969 387.63795,56.328501 427.81,112.49442 c 40.83145,54.76531 44.0673,134.53481 6.24525,191.72403 -34.78562,54.88027 -102.31345,86.70602 -166.78709,77.26396 -66.76225,-8.52956 -126.01475,-59.65813 -142.30898,-125.26064 -3.7195,-14.10719 -5.61706,-28.69649 -5.59264,-43.28681 z m 30.59905,-52.85334 c 17.24967,-2.61715 30.7677,-7.82691 36.02893,-25.55251 8.17278,-15.08806 32.01736,-21.22226 21.13127,-40.998356 -2.98444,-11.871732 -20.00244,8.898136 -26.88057,13.718166 -14.49093,14.55846 -24.92396,33.02482 -30.27963,52.8327 z m 9.4823,121.68372 c 18.25277,34.04975 52.33936,57.88983 89.99303,65.4766 16.77208,4.31865 34.05,6.88936 51.3896,6.88943 -24.93201,-52.22524 -50.25056,-104.46052 -69.41459,-159.13288 -8.55687,-6.75802 -18.20131,13.04036 -30.42689,5.09331 -19.76345,-8.19419 -20.80748,16.86646 -26.24594,29.19466 -5.81403,17.27334 -10.97478,34.77113 -15.29521,52.47888 z m 97.80419,-174.20891 c 9.05876,10.22607 -2.19562,36.47811 15.8907,35.49566 42.00685,1.66108 84.32969,6.33538 124.10835,20.60511 9.34439,2.21533 38.43411,18.82564 26.86939,-0.90332 -17.86628,-41.68547 -51.92733,-77.688823 -95.33746,-92.555067 -18.77981,-1.691039 -33.77368,13.113921 -49.71945,20.906487 -7.66429,4.93195 -15.02195,10.36373 -21.81153,16.45113 z"
     style="fill:#2f922e;fill-opacity:1" />
  <path
     id="path8"
     style="stroke:none;fill:#81c57e;fill-opacity:1"
     d="m 177.11986,541.57485 c -30.23715,-8.7325 -55.7782,-30.27643 -87.091375,-35.52329 -23.667439,0.0842 -43.443535,15.83469 -64.7783,24.08688 0.0093,-24.92678 0.394541,-49.85228 0.59127,-74.7783 20.795481,-9.04507 40.613574,-23.72705 64.019916,-23.56907 32.246229,5.29519 58.573089,27.7833 89.950589,35.92096 23.63944,3.75829 43.57668,-12.55157 64.48075,-20.6697 19.35055,-8.52106 41.31431,-22.1659 62.62409,-11.3177 26.44586,9.61963 50.4119,25.63892 77.74586,32.71039 25.23631,1.46026 46.58988,-15.30115 69.10081,-24.2717 16.875,-7.9611 35.98663,-17.85235 54.74809,-9.41727 16.23184,5.68659 31.447,13.80124 46.988,21.09025 -0.75259,24.71674 -0.52859,49.50682 -2.62526,74.14644 -21.89644,-7.9256 -42.00385,-24.03142 -66.04885,-24.15158 -33.14016,7.38016 -60.91269,30.01243 -94.1339,37.12265 -21.13956,0.13035 -39.12102,-13.59307 -58.13076,-21.19914 -19.99085,-8.83168 -42.77008,-22.58987 -64.81313,-11.70143 -27.37828,9.69291 -51.8803,27.45608 -80.58238,33.02016 -4.07127,0.2879 -8.13246,-0.42656 -12.04542,-1.49855 z" />
</svg>
