<svg enable-background="new 0 0 580 580" height="580" viewBox="0 0 579.99 580.02" width="580" xmlns="http://www.w3.org/2000/svg"><path d="m336.17 288.52c-9.21-42.29-32.84-82.59-27.37-127.12 3.98-37.07 2.49-80.35-29.6-105.972-18.16-23.383-55.22-27.364-78.61-9.702-24.87 20.15-53.73 3.981-75.87-10.945-24.63-17.165-48.757 4.975-71.145 14.428-16.916-2.736-10.448 13.184-11.443 23.632v45.029c25.871 0 45.772-32.093 73.138-20.153 24.13 9.953 49.5 36.323 76.62 18.653 20.64-17.906 54.47-20.892 63.43 10.95 5.72 39.55 0 80.6 13.18 119.4 12.19 50.5 26.37 101 26.12 153.24 2.49 48.51-3.73 97.02-2.48 145.53 21.14 8.21 55.22 4.23 73.13-4.48 5.23-42.29-3.98-84.58-8.21-126.37-6.96-42.04-9.7-85.58-22.14-126.12zm159.7 77.86c-32.34-8.46-56.72 22.14-69.4 47.51-18.91 36.82-29.85 77.37-37.57 117.91 18.16-31.59 52.49-48.01 86.82-53.98 34.83-4.23 65.18-36.81 62.69-72.39-2.49-21.89-23.14-34.32-42.54-39.05zm-355.98-206.47c-30.1 0-59.947 0-90.047 2.49v386.82h210.697c-4.97-107.47-4.47-215.18-16.17-322.15-4.97-27.61-6.96-63.18-34.08-77.86-23.38-8.46-48.26 3.48-70.4 10.95z" fill="none" opacity=".8" stroke="#fff" stroke-linejoin="round" stroke-width="40"/><path d="m140.64 173.09c-28.86 0-57.463 0-86.319 2.49v359.46h201.749c-4.73-99.75-4.23-200.01-15.43-299.51-4.72-25.62-6.71-58.71-32.58-72.14-22.64-7.96-46.27 3.23-67.42 9.95z" fill="#3d9ad4" stroke="#3d9ad4" stroke-width="25.374"/><g fill="#0073be"><path d="m495.87 366.38c-32.34-8.46-56.72 22.14-69.4 47.51-18.91 36.82-29.85 77.37-37.57 117.91 18.16-31.59 52.49-48.01 86.82-53.98 34.83-4.23 65.18-36.81 62.69-72.39-2.49-21.89-23.14-34.32-42.54-39.05z"/><path d="m336.17 288.52c-9.21-42.29-32.84-82.59-27.37-127.12 3.98-37.07 2.49-80.35-29.6-105.972-18.16-23.383-55.22-27.364-78.61-9.702-24.87 20.15-53.73 3.981-75.87-10.945-24.63-17.165-48.757 4.975-71.145 14.428-16.916-2.736-10.448 13.184-11.443 23.632v45.029c25.871 0 45.772-32.093 73.138-20.153 24.13 9.953 49.5 36.323 76.62 18.653 20.64-17.906 54.47-20.892 63.43 10.95 5.72 39.55 0 80.6 13.18 119.4 12.19 50.5 26.37 101 26.12 153.24 2.49 48.51-3.73 97.02-2.48 145.53 21.14 8.21 55.22 4.23 73.13-4.48 5.23-42.29-3.98-84.58-8.21-126.37-6.96-42.04-9.7-85.58-22.14-126.12z"/></g></svg>