<?xml version="1.0" encoding="UTF-8" standalone="no"?>
<svg xmlns:i="http://ns.adobe.com/AdobeIllustrator/10.0/" xmlns="http://www.w3.org/2000/svg" xmlns:sodipodi="http://sodipodi.sourceforge.net/DTD/sodipodi-0.dtd" xmlns:inkscape="http://www.inkscape.org/namespaces/inkscape" version="1.0" width="580" height="580">
 <metadata id="metadata2975"/>
 <path id="path8092" d="m 540.22,462.36 c -4.12,1.56 -9.6,1.88 -16.92,1.03 -7.44,-0.91 -14.83,-8.14 -26.87,-6.45 -12.37,1.58 -28.85,14.35 -45.78,15.94 -17.19,1.25 -37.57,-8.6 -55.09,-6.95 -17.44,1.75 -32.17,15.34 -48.9,17.28 -17.03,1.71 -35.1,-8.09 -51.81,-6.76 -16.97,1.16 -32.04,13.17 -47.85,14.53 -15.61,1.15 -30.48,-8.72 -45.89,-6.76 -15.81,2.09 -32.07,16.01 -47.52,18.2 -15.6,1.71 -30.87,-8.61 -44.69,-7.44 -13.955,1.07 -28.769,11.32 -37.991,14.17 -9.226,2.79 -15.166,3.28 -17.528,2.15 l 3.059,32.53 c 2.361,1.13 8.302,0.64 17.53,-2.14 9.22,-2.87 24.034,-13.11 37.99,-14.17 13.82,-1.18 29.09,9.15 44.69,7.44 15.45,-2.2 31.71,-16.11 47.52,-18.21 15.41,-1.95 30.28,7.93 45.89,6.76 15.81,-1.36 30.88,-13.36 47.85,-14.53 16.71,-1.32 34.77,8.44 51.81,6.76 16.73,-1.94 31.46,-15.52 48.9,-17.28 17.52,-1.64 37.9,8.2 55.09,6.95 16.93,-1.59 33.42,-14.35 45.78,-15.94 12.06,-1.57 19.42,5.54 26.87,6.51 7.32,0.87 12.81,0.6 16.92,-1.08 l -3.06,-32.54 z m -5.12,-54.47 c -4.11,1.7 -9.6,1.96 -16.92,1.11 -7.44,-0.97 -14.81,-8.08 -26.88,-6.52 -12.37,1.59 -28.83,14.36 -45.76,15.95 -17.2,1.25 -37.58,-8.61 -55.1,-6.96 -17.44,1.77 -32.18,15.35 -48.89,17.29 -17.04,1.7 -35.11,-8.09 -51.82,-6.76 -16.97,1.15 -32.03,13.17 -47.86,14.53 -15.61,1.16 -30.47,-8.72 -45.88,-6.77 -15.81,2.1 -32.06,16.02 -47.51,18.21 -15.61,1.72 -30.87,-8.6 -44.7,-7.43 -13.951,1.06 -28.769,11.3 -37.989,14.16 -9.24,2.67 -15.158,3.41 -17.524,2.21 l 3.059,32.53 c 2.367,1.2 8.284,0.45 17.523,-2.21 9.222,-2.85 24.039,-13.1 37.991,-14.16 13.83,-1.17 29.09,9.15 44.7,7.44 15.46,-2.08 31.68,-16.3 47.51,-18.22 15.4,-2.06 30.28,8.05 45.89,6.83 15.82,-1.36 30.89,-13.3 47.84,-14.58 16.72,-1.33 34.78,8.42 51.83,6.76 16.71,-1.95 31.45,-15.52 48.88,-17.3 17.52,-1.74 37.92,8.33 55.1,7.03 16.94,-1.59 33.42,-14.36 45.78,-15.95 12.06,-1.69 19.44,5.54 26.87,6.46 7.32,0.85 12.81,0.58 16.91,-1.1 L 535.1,407.89 Z M 63.186,203.95 285.41,235.72 87.044,178.96 63.186,203.95 Z m 78.534,202.07 138.68,-176.5 -148.38,143.36 9.7,33.14 z M 492.75,263.6 269.66,238.46 469.65,289.31 492.75,263.6 Z M 410.57,65.714 274.8,244.5 420.79,98.695 410.31,65.797 Z M 197.68,35.371 282.61,243.09 231.34,43.275 197.68,35.371 Z m 162.04,402.299 -87.31,-206.8 53.54,199.22 33.77,7.58 z" inkscape:connector-curvature="0" opacity="0.8" fill="none" stroke="#ffffff" stroke-linejoin="round" stroke-linecap="round" stroke-width="41.758"/>
 <path id="circle8095" d="M 427.58,188.57 A 156.31,156.31 0 0 1 326.14,384.98 156.31,156.31 0 0 1 129.73,283.55 156.31,156.31 0 0 1 231.17,87.137 156.31,156.31 0 0 1 427.58,188.57 Z" inkscape:connector-curvature="0" opacity="0.8" fill="none" stroke="#ffffff" stroke-linejoin="round" stroke-linecap="round" stroke-width="85.42"/>
 <path d="m 359.72,437.67 -87.31,-206.8 53.54,199.22 33.77,7.58 z" id="path12318" inkscape:connector-curvature="0" fill="#734a08" fill-rule="evenodd" stroke="#734a08" stroke-linejoin="round" stroke-linecap="round" stroke-width="10.26"/>
 <circle r="156.31" cy="309.56" cx="193.77" id="path12306" transform="matrix(0.95274,-0.30379,0.30379,0.95274,0,0)" fill="none" stroke="#734a08" stroke-linejoin="round" stroke-linecap="round" stroke-width="43.657"/>
 <path d="M 197.64,35.365 282.55,243.14 231.28,43.303 197.64,35.365 Z" id="path12310" inkscape:connector-curvature="0" fill="#ffffff" fill-rule="evenodd" stroke="#ffffff" stroke-width="5.463"/>
 <circle transform="matrix(0.95274,-0.30379,0.30379,0.95274,0,0)" id="path12308" cx="193.91" cy="309.54" r="28.886" fill="#734a08" stroke="#734a08" stroke-linejoin="round" stroke-linecap="round" stroke-width="10.258"/>
 <path id="path12312" d="M 197.68,35.371 282.61,243.09 231.34,43.275 197.68,35.371 Z" inkscape:connector-curvature="0" fill="#734a08" fill-rule="evenodd" stroke="#734a08" stroke-linejoin="round" stroke-linecap="round" stroke-width="10.26"/>
 <path d="M 410.57,65.714 274.8,244.5 420.79,98.695 410.31,65.797 Z" id="path12314" inkscape:connector-curvature="0" fill="#734a08" fill-rule="evenodd" stroke="#734a08" stroke-linejoin="round" stroke-linecap="round" stroke-width="10.26"/>
 <path id="path12316" d="m 492.75,263.6 -223.09,-25.14 199.99,50.85 23.1,-25.71 z" inkscape:connector-curvature="0" fill="#734a08" fill-rule="evenodd" stroke="#734a08" stroke-linejoin="round" stroke-linecap="round" stroke-width="10.26"/>
 <path id="path12320" d="m 141.72,406.02 138.68,-176.5 -148.38,143.36 9.7,33.14 z" inkscape:connector-curvature="0" fill="#734a08" fill-rule="evenodd" stroke="#734a08" stroke-linejoin="round" stroke-linecap="round" stroke-width="10.26"/>
 <path d="M 63.186,203.95 285.41,235.72 87.044,178.96 63.186,203.95 Z" id="path12322" inkscape:connector-curvature="0" fill="#734a08" fill-rule="evenodd" stroke="#734a08" stroke-linejoin="round" stroke-linecap="round" stroke-width="10.26"/>
 <path d="m 535.1,407.89 c -4.11,1.7 -9.6,1.96 -16.92,1.11 -7.44,-0.97 -14.81,-8.08 -26.88,-6.52 -12.37,1.59 -28.83,14.36 -45.76,15.95 -17.2,1.25 -37.58,-8.61 -55.1,-6.96 -17.44,1.77 -32.18,15.35 -48.89,17.29 -17.04,1.7 -35.11,-8.09 -51.82,-6.76 -16.97,1.15 -32.03,13.17 -47.86,14.53 -15.61,1.16 -30.47,-8.72 -45.88,-6.77 -15.81,2.1 -32.06,16.02 -47.51,18.21 -15.61,1.72 -30.87,-8.6 -44.7,-7.43 -13.951,1.06 -28.769,11.3 -37.989,14.16 -9.24,2.67 -15.158,3.41 -17.524,2.21 l 3.059,32.53 c 2.367,1.2 8.284,0.45 17.523,-2.21 9.222,-2.85 24.039,-13.1 37.991,-14.16 13.83,-1.17 29.09,9.15 44.7,7.44 15.46,-2.08 31.68,-16.3 47.51,-18.22 15.4,-2.06 30.28,8.05 45.89,6.83 15.82,-1.36 30.89,-13.3 47.84,-14.58 16.72,-1.33 34.78,8.42 51.83,6.76 16.71,-1.95 31.45,-15.52 48.88,-17.3 17.52,-1.74 37.92,8.33 55.1,7.03 16.94,-1.59 33.42,-14.36 45.78,-15.95 12.06,-1.69 19.44,5.54 26.87,6.46 7.32,0.85 12.81,0.58 16.91,-1.1 l -3.05,-32.55 z" i:knockout="Off" id="path113" inkscape:connector-curvature="0" fill="#734a08" fill-rule="evenodd"/>
 <path d="m 540.22,462.36 c -4.12,1.56 -9.6,1.88 -16.92,1.03 -7.44,-0.91 -14.83,-8.14 -26.87,-6.45 -12.37,1.58 -28.85,14.35 -45.78,15.94 -17.19,1.25 -37.57,-8.6 -55.09,-6.95 -17.44,1.75 -32.17,15.34 -48.9,17.28 -17.03,1.71 -35.1,-8.09 -51.81,-6.76 -16.97,1.16 -32.04,13.17 -47.85,14.53 -15.61,1.15 -30.48,-8.72 -45.89,-6.76 -15.81,2.09 -32.07,16.01 -47.52,18.2 -15.6,1.71 -30.87,-8.61 -44.69,-7.44 -13.955,1.07 -28.769,11.32 -37.991,14.17 -9.226,2.79 -15.166,3.28 -17.528,2.15 l 3.059,32.53 c 2.361,1.13 8.302,0.64 17.53,-2.14 9.22,-2.87 24.034,-13.11 37.99,-14.17 13.82,-1.18 29.09,9.15 44.69,7.44 15.45,-2.2 31.71,-16.11 47.52,-18.21 15.41,-1.95 30.28,7.93 45.89,6.76 15.81,-1.36 30.88,-13.36 47.85,-14.53 16.71,-1.32 34.77,8.44 51.81,6.76 16.73,-1.94 31.46,-15.52 48.9,-17.28 17.52,-1.64 37.9,8.2 55.09,6.95 16.93,-1.59 33.42,-14.35 45.78,-15.94 12.06,-1.57 19.42,5.54 26.87,6.51 7.32,0.87 12.81,0.6 16.92,-1.08 l -3.06,-32.54 z" i:knockout="Off" id="path121" inkscape:connector-curvature="0" fill="#734a08" fill-rule="evenodd"/>
</svg>
