<?xml version="1.0" encoding="UTF-8" standalone="no"?>
<svg
   xmlns:dc="http://purl.org/dc/elements/1.1/"
   xmlns:cc="http://creativecommons.org/ns#"
   xmlns:rdf="http://www.w3.org/1999/02/22-rdf-syntax-ns#"
   xmlns:svg="http://www.w3.org/2000/svg"
   xmlns="http://www.w3.org/2000/svg"
   xmlns:sodipodi="http://sodipodi.sourceforge.net/DTD/sodipodi-0.dtd"
   xmlns:inkscape="http://www.inkscape.org/namespaces/inkscape"
   version="1.0"
   width="580"
   height="580"
   id="svg8"
   sodipodi:docname="water_works.svg"
   inkscape:version="1.0.1 (3bc2e813f5, 2020-09-07)">
  <defs
     id="defs12" />
  <sodipodi:namedview
     pagecolor="#ffffff"
     bordercolor="#666666"
     borderopacity="1"
     objecttolerance="10"
     gridtolerance="10"
     guidetolerance="10"
     inkscape:pageopacity="0"
     inkscape:pageshadow="2"
     inkscape:window-width="1920"
     inkscape:window-height="1001"
     id="namedview10"
     showgrid="false"
     inkscape:zoom="1.3810345"
     inkscape:cx="290"
     inkscape:cy="318.9638"
     inkscape:window-x="-9"
     inkscape:window-y="-9"
     inkscape:window-maximized="1"
     inkscape:current-layer="svg8"
     inkscape:document-rotation="0" />
  <metadata
     id="metadata10">
    <rdf:RDF>
      <cc:Work
         rdf:about="">
        <dc:format>image/svg+xml</dc:format>
        <dc:type
           rdf:resource="http://purl.org/dc/dcmitype/StillImage" />
      </cc:Work>
    </rdf:RDF>
  </metadata>
  <path
     id="path4167"
     style="fill:none;fill-opacity:1;stroke:#ffffff;stroke-width:58.673;stroke-linecap:round;stroke-linejoin:round;stroke-miterlimit:4;stroke-dasharray:none;stroke-opacity:0.8;paint-order:stroke fill markers"
     d="M 289.94367,30.155517 C 279.59502,31.766591 273.19993,42.58876 264.30896,47.436774 189.14802,105.76942 113.33722,163.38192 38.577392,222.15912 c -5.88259,7.28518 2.144554,18.15449 10.812461,15.72556 11.986266,0 23.97253,0 35.958795,0 0.239888,101.46238 -0.477474,203.01276 0.354612,304.42075 3.546795,11.29028 18.07184,6.12455 26.41257,7.17298 125.03172,-0.19549 250.12621,0.39036 375.11886,-0.29164 10.84508,-3.01663 6.71315,-17.19851 7.32764,-25.27448 0,-95.34254 0,-190.68508 0,-286.02761 14.27515,-0.95894 29.10455,1.70773 43.13751,-0.91171 8.60592,-3.78314 6.30262,-16.63198 -1.92565,-19.55728 C 454.96175,155.33277 374.66046,92.42371 293.53199,30.851494 c -1.13809,-0.460336 -2.36303,-0.69792 -3.58832,-0.695977 z" />
  <path
     id="path838"
     style="fill:#767572;fill-opacity:1;stroke:none;stroke-width:40.6119;stroke-linecap:round;stroke-linejoin:round;stroke-miterlimit:4;stroke-dasharray:none;stroke-opacity:0.8;paint-order:stroke fill markers"
     d="M 290.08809,30.192595 C 279.73943,31.80367 273.34434,42.625838 264.45338,47.473854 189.29244,105.8065 113.48163,163.419 38.721797,222.19619 c -5.882584,7.28518 2.144558,18.15449 10.812466,15.72556 11.986266,0 23.972533,0 35.958787,0 0.239895,101.46238 -0.477468,203.01277 0.354614,304.42076 3.546799,11.29027 18.071856,6.12454 26.412576,7.17297 125.03172,-0.19548 250.12621,0.39036 375.11881,-0.29164 10.8451,-3.01663 6.71318,-17.19851 7.3277,-25.27448 0,-95.34253 0,-190.68508 0,-286.02761 14.27517,-0.95894 29.10449,1.70773 43.13748,-0.91171 8.60597,-3.78314 6.30261,-16.63198 -1.92566,-19.55728 C 455.10613,155.36984 374.80487,92.460791 293.6764,30.888573 c -1.13809,-0.460336 -2.36303,-0.69792 -3.58831,-0.695978 z" />
  <path
     id="path1484"
     d="m 196.64037,405.59714 c 15.27261,0.21719 29.04933,11.14999 44.53748,11.45896 16.22979,0.12758 32.69583,-10.79065 50.07162,-10.34274 17.13371,0.25655 34.57501,12.06397 52.07114,11.99888 17.1939,-0.38133 33.48599,-12.9517 51.40465,-13.08065 13.2368,0 27.46025,6.58545 41.07085,10.20873 v 33.83697 c -13.61001,-3.62338 -27.83468,-10.20872 -41.07085,-10.20872 -17.91867,0.12481 -34.21074,12.73376 -51.40465,13.11511 -17.49614,0.0651 -34.93742,-11.74425 -52.07114,-12.0008 -17.37581,-0.4479 -33.84185,10.47224 -50.07162,10.34465 -15.98912,-0.31894 -30.16925,-11.97064 -46.03665,-11.45896 -16.28998,0.63788 -34.14406,13.42724 -50.07162,14.19686 -0.28975,0.004 -0.57788,0.003 -0.86666,0 V 419.794 c 0.28878,0.003 0.57691,0.004 0.86666,0 15.92756,-0.76962 33.78164,-13.52455 50.07162,-14.16241 0.49583,-0.0159 1.00652,-0.0413 1.49917,-0.0344 z m -0.0169,-63.15737 c 15.27281,0.21979 29.0663,11.16479 44.55445,11.47237 16.22979,0.13034 32.69583,-10.79118 50.07162,-10.34467 17.13371,0.25515 34.57502,12.06325 52.07114,12.0008 17.1939,-0.38412 33.48599,-12.98806 51.40466,-13.11701 13.23615,0 27.46084,6.5847 41.07084,10.20871 v 33.93846 c -13.61001,-3.65079 -27.83468,-10.32065 -41.07084,-10.27574 -17.91868,0.12758 -34.21075,12.73292 -51.40466,13.11702 -17.49613,0.061 -34.93742,-11.7815 -52.07114,-12.03527 -17.37581,-0.31894 -33.84184,10.54201 -50.07162,10.41167 -15.98912,-0.25516 -30.16925,-12.13132 -46.03665,-11.49342 -16.28998,0.44792 -34.14405,13.56227 -50.07162,14.19878 -0.28984,0.005 -0.57776,-0.0315 -0.86665,-0.0344 V 356.6501 c 0.28877,0.003 0.57691,0.004 0.86665,0 15.92757,-0.76686 33.78165,-13.55675 50.07162,-14.19876 0.49585,-0.0161 0.98951,-0.0185 1.4822,-0.0114 z m 0,-63.18035 c 15.27281,0.21979 29.0663,11.16481 44.55445,11.47236 16.22979,0.13035 32.69583,-10.78925 50.07162,-10.34275 17.13371,0.25516 34.57502,12.06135 52.07114,11.9989 17.1939,-0.38412 33.48599,-12.98615 51.40466,-13.1151 13.23615,0 27.46084,6.58469 41.07084,10.20871 V 323.42 c -13.61001,-3.6508 -27.83468,-10.32064 -41.07084,-10.27575 -17.91868,0.12759 -34.21075,12.731 -51.40466,13.11512 -17.49613,0.0611 -34.93742,-11.77959 -52.07114,-12.03337 -17.37581,-0.31894 -33.84184,10.54202 -50.07162,10.41168 -15.98912,-0.25516 -30.16925,-12.13132 -46.03665,-11.49343 -16.28998,0.44791 -34.14405,13.56034 -50.07162,14.19688 -0.28984,0.005 -0.57776,-0.0296 -0.86665,-0.0325 v -33.83889 c 0.28877,0.003 0.57691,0.004 0.86665,0 15.92757,-0.76686 33.78165,-13.55483 50.07162,-14.19685 0.49585,-0.016 0.98951,-0.0204 1.4822,-0.0136 z"
     style="fill:#ffffff;stroke-width:1.0153" />
</svg>
