<svg height="580" width="580" xmlns="http://www.w3.org/2000/svg"><path d="m251.88 39.431v77.469h-70.16v69.35h70.16v138.48c23.34-2.6 47.11 4.21 70.18-1.57.39-45.26.78-90.52 1.16-135.77l69.32-.47v-68.89c-22.97-.42-45.95-.84-68.91-1.25-.43-25.376-.84-50.748-1.25-76.117zm-225.042 296.329 1.426 203.39 524.896 1.42-1.43-204.09z" style="opacity:.8;fill:#947445;stroke:#fff;stroke-linejoin:round;stroke-linecap:round;stroke-width:39.29"/><path d="m322.06 323.16c.39-45.26.78-90.52 1.16-135.77 23.11-.16 46.21-.31 69.32-.47 0-22.97 0-45.93 0-68.89-22.97-.42-45.95-.84-68.91-1.25-.43-25.377-.84-50.747-1.25-76.116-23.5-.41-47-.821-70.5-1.232v77.468c-23.39 0-46.78 0-70.16 0v69.35h70.16v138.48c23.34-2.6 47.11 4.21 70.18-1.57z" fill="#734a08"/><path d="m32.537 349.3h510.653v181.3c-170.22 0-340.43 0-510.653 0 0-60.43 0-120.87 0-181.3z" fill="#947445" stroke="#947445" stroke-linecap="round" stroke-linejoin="round" stroke-width="10.78"/><g fill="none"><path d="m23.533 345.61h527.587" stroke="#734a08" stroke-width="19.647"/><path d="m23.533 530.3h527.587" stroke="#734a08" stroke-width="19.647"/><path d="m38.734 435.99h499.856" stroke="#fff" stroke-dasharray="38.2477 38.2477" stroke-width="19.12"/></g></svg>