<svg enable-background="new 0 0 580 580" height="580" viewBox="0 0 579.99 580.02" width="580" xmlns="http://www.w3.org/2000/svg"><path d="m517.07 304.77c-30.99.2-61.02 25.76-91.86 10.58-21.34-14.11-57.88-6.24-72.98-19.57-9.59-32-37.93-60.18-30.42-95.84 4.49-28.02-9.64-57.17-35.36-69.62-25.81-15.19-58.43-13.01-84.69-.18-32 10.58-62.93-7.17-93.17-14.64-26.294-.26-56.198 9.44-77.991 18.14-.889 13.87-.07 27.88-.344 41.82 30.938-3.1 61.615-25.42 92.845-10.75 26.78 9.67 57.45 21.06 84.93 7.1 22.93-11.59 61.06-10.64 66.11 20.89.94 29.85 4.84 59.17 19.28 85.92 6.51 17.19 16.35 34.08 13.95 53.03v27.55c30.5-.5 61.2-21.34 91.32-6.93 27.15 11.48 60.07 19.4 86.63 2.19 19.39-11.51 52.54 4.48 65.2-3.11 0-12.95 0-25.89 0-38.84-10.81-3.76-21.89-7.47-33.45-7.74zm-63.91 106.6c-32.02-2.47-63.19-28.27-95.52-13.78-13.43 8.16-46.1-1.58-44.53 20.99v31.74c30.6-.34 61.13-21.44 91.33-6.89 26.86 11.47 59.44 19.32 85.87 2.56 17.62-10.75 49.03 3.14 60.21-5.51 0-12.95 0-25.89 0-38.84-28.63-13.58-58.71 1.34-86.53 8.92l-5.4.62zm-315.81-203.96c-34.96 0-69.959 0-104.848 2.5v254.89h245.408c-5.96-74.02-4.83-149.16-21.06-221.95-6.28-33.69-40.94-49.88-72.46-42.53-15.5.91-33.43 6.72-47.04 7.09z" fill="none" opacity=".8" stroke="#fff" stroke-width="40"/><path d="m138.85 217.4c-32.12 0-64.241 0-96.362 0v234.67h225.682c-5.4-68.18-4.34-137.38-19.34-204.41-5.85-30.91-37.7-45.89-66.69-39.09-14.12 2.16-31.46 3.63-43.29 8.83z" fill="#3d9ad4" stroke="#3d9ad4" stroke-width="23.24"/><g fill="#0073be"><path d="m517.07 304.77c-30.99.2-61.02 25.76-91.86 10.58-21.34-14.11-57.88-6.24-72.98-19.57-9.59-32-37.93-60.18-30.42-95.84 4.49-28.02-9.64-57.17-35.36-69.62-25.81-15.19-58.43-13.01-84.69-.18-32 10.58-62.93-7.17-93.17-14.64-26.294-.26-56.198 9.44-77.991 18.14-.889 13.87-.07 27.88-.344 41.82 30.938-3.1 61.615-25.42 92.845-10.75 26.78 9.67 57.45 21.06 84.93 7.1 22.93-11.59 61.06-10.64 66.11 20.89.94 29.85 4.84 59.17 19.28 85.92 6.51 17.19 16.35 34.08 13.95 53.02v27.56c30.5-.5 61.2-21.34 91.32-6.93 27.15 11.48 60.07 19.4 86.63 2.19 19.39-11.51 52.53 4.48 65.2-3.11 0-12.94 0-25.89 0-38.84-10.81-3.76-21.89-7.47-33.45-7.74z"/><path d="m453.16 411.37c-32.02-2.47-63.19-28.27-95.52-13.78-13.43 8.16-46.09-1.58-44.53 20.98v31.75c30.6-.34 61.13-21.44 91.33-6.89 26.86 11.47 59.44 19.32 85.87 2.56 17.62-10.75 49.03 3.13 60.21-5.51 0-12.94 0-25.89 0-38.84-28.63-13.58-58.71 1.34-86.53 8.92l-5.4.62z"/></g></svg>