<svg enable-background="new 0 0 580 580" height="580" viewBox="0 0 580 580" width="580" xmlns="http://www.w3.org/2000/svg"><path d="m552.53 204.66h-94.34v-115.214h-25.73-4.47-49.97v-48.102h-41.02v48.102h-57.42v-21.627h-91.73v21.627h-67.86v-50.339h-41.018v50.339h-50.711v30.204h50.711v186.81h-44.745v60.41h30.203v174.88h319.56v-174.88h36.17v-60.41h-42.14v-186.81h49.97v123.42h30.2v-8.2h94.34zm-432.54-85.01h67.86v12.3h10.07v174.51h-77.93zm217.01 186.81h-123.79v-174.51h66.37v-12.3h57.42z" style="opacity:.8;fill:none;stroke:#fff;stroke-linejoin:round;stroke-linecap:round;stroke-width:39.606"/><path d="m15.029 5.7028h-2.528v-3.0921h-.694-.115-1.341v-1.2938h-1.1024v1.2938h-1.54v-.5757h-2.4586v.5757h-1.8175v-1.351h-1.1028v1.351h-1.35869v.8086h1.35879v5.0136h-1.1972v1.6171h.8087v4.69h8.5717v-4.69h.97v-1.6171h-1.132v-5.0136h1.341v3.3134h.809v-.2213h2.528zm-11.5965-2.2835h1.8175v.3311h.2669v4.6825h-2.0844zm5.8161 5.0136h-3.3231v-4.6825h1.7831v-.3311h1.54z" fill="#0073be" transform="matrix(37.09 0 0 37.09 -6.7207 -6.6879)"/></svg>