<svg height="580" width="580" xmlns="http://www.w3.org/2000/svg"><g fill="none" stroke="#fff" stroke-linejoin="round" stroke-width="64"><path d="m274.4 289c4.8 11 16.5 23.7 7.7 36-3.9 6.3-15.4 13-2.3 11 5.2-.7 11.6 2 15.3-3 9.7-6.9 15.7-20.4 8.8-31-5.2-10.2-15.3-22.4-6.9-33.8 3.9-6.3 15.4-13 2.3-11l-11.4-.1c-10.3 6.4-19.9 19.6-13.5 31.9zm-40.7 30.8c-5.6 9.9-14 22-6.8 33 4.6 6.6 10.8 15 19.9 13 2.8-.8 14 1.7 10.5-1.5-10.6-7.6-15.9-22.4-7.1-33.5 5.5-9.2 12.3-21 5.5-31-4.5-6.7-10.9-14.7-19.9-12.9h-12.1c10.1 7.3 18.3 21 10 32.9zm95.8 0c-5.6 9.9-14 22-6.8 33 4.6 6.6 10.8 15 19.9 13 2.8-.8 14 1.7 10.5-1.5-10.6-7.6-15.9-22.4-7.1-33.5 5.5-9.2 12.3-21 5.5-31-4.5-6.7-10.9-14.7-19.9-12.9h-12.1c10.1 7.3 18.3 21 10 32.9zm-134.1 83.1c-11-.6-26.4 2.2-29 14.9-.6 13.6 15.2 19.8 26.7 18.5 6.4-2 5.2 3.4 5.1 7.8-.7 15.9.9 32.7 11.3 45.5 11.9 16.7 32.9 24.4 52.9 22.9 23-.3 46 .6 70-.5 29-3 52-31 49.8-60v-15.5c11.3.4 25.6.1 31-11.7 5.1-12.9-10.5-22.6-21.8-21.7-3.5-.9-11.2 2.5-9.4-3.6-.5-6.4 3.1-16-8.1-15.3l-173.95-.1c-3.85 5 2.15 18.1-4.55 18.8z" opacity=".8"/><path d="m40.7 198c-6.8 3.6-8 12.7-2.7 18 18.3 25.5 22 21.5 47 11.3v273c0 6.3 5 11.4 11.4 11.4h30.4c6.3 0 11.4-5.1 11.4-11.4 0-104-.1-176-.1-294l8-3.2 144-17 144 17.2 5.8 2.3c-.6 98-.3 197-.3 295 0 6.3 5 11.4 11.4 11.4h30.4c6.3 0 11.3-5.1 11.4-11.4v-273c32 13.5 26.6 13.3 49.9-10.5 5.3-5.4 4-14.4-2.7-18l-245-130.3c-3.4-1.6-7.4-1.8-10.7.1z" opacity=".8"/><path d="m288 257c-10.4 6.5-20 19.7-13.6 32 4.8 11 16.5 23.7 7.7 36-3.9 6.3-15.4 13-2.3 11 5.2-.7 11.6 2 15.3-3 9.7-6.9 15.7-20.4 8.8-31-5.2-10.2-15.3-22.4-6.9-33.8 3.9-6.3 15.4-13 2.3-11h-11.5m-64 29.7c10 7.3 18.2 21 9.9 32.9-5.6 9.9-14 22-6.8 33 4.6 6.6 10.8 15 19.9 13 2.8-.8 14 1.7 10.5-1.5-10.6-7.6-15.9-22.4-7.1-33.5 5.5-9.2 12.3-21 5.5-31-4.5-6.7-10.9-14.7-19.9-12.9h-12.2m96 0c10 7.3 18.2 21 9.9 32.9-5.6 9.9-14 22-6.8 33 4.6 6.6 10.8 15 19.9 13 2.8-.8 14 1.7 10.5-1.5-10.6-7.6-15.9-22.4-7.1-33.5 5.5-9.2 12.3-21 5.5-31-4.5-6.7-10.9-14.7-19.9-12.9h-12.2m-119.4 97.1c-3.9 5.1 2.1 18.2-4.6 18.9-11-.6-26.4 2.2-29 14.9-.6 13.6 15.2 19.8 26.7 18.5 6.4-2 5.2 3.4 5.1 7.8-.7 15.9.9 32.7 11.3 45.5 11.9 16.7 32.9 24.4 52.9 22.9 23-.3 46 .6 70-.5 29-3 52-31 49.8-60v-15.5c11.3.4 25.6.1 31-11.7 5.1-12.9-10.5-22.6-21.8-21.7-3.5-.9-11.2 2.5-9.4-3.6-.5-6.4 3.1-16-8.1-15.3h-174" opacity=".8"/></g><path d="m274.4 289c4.8 11 16.5 23.7 7.7 36-3.9 6.3-15.4 13-2.3 11 5.2-.7 11.6 2 15.3-3 9.7-6.9 15.7-20.4 8.8-31-5.2-10.2-15.3-22.4-6.9-33.8 3.9-6.3 15.4-13 2.3-11l-11.4-.1c-10.3 6.4-19.9 19.6-13.5 31.9zm-40.7 30.8c-5.6 9.9-14 22-6.8 33 4.6 6.6 10.8 15 19.9 13 2.8-.8 14 1.7 10.5-1.5-10.6-7.6-15.9-22.4-7.1-33.5 5.5-9.2 12.3-21 5.5-31-4.5-6.7-10.9-14.7-19.9-12.9h-12.1c10.1 7.3 18.3 21 10 32.9zm95.8 0c-5.6 9.9-14 22-6.8 33 4.6 6.6 10.8 15 19.9 13 2.8-.8 14 1.7 10.5-1.5-10.6-7.6-15.9-22.4-7.1-33.5 5.5-9.2 12.3-21 5.5-31-4.5-6.7-10.9-14.7-19.9-12.9h-12.1c10.1 7.3 18.3 21 10 32.9zm-134.1 83.1c-11-.6-26.4 2.2-29 14.9-.6 13.6 15.2 19.8 26.7 18.5 6.4-2 5.2 3.4 5.1 7.8-.7 15.9.9 32.7 11.3 45.5 11.9 16.7 32.9 24.4 52.9 22.9 23-.3 46 .6 70-.5 29-3 52-31 49.8-60v-15.5c11.3.4 25.6.1 31-11.7 5.1-12.9-10.5-22.6-21.8-21.7-3.5-.9-11.2 2.5-9.4-3.6-.5-6.4 3.1-16-8.1-15.3l-173.95-.1c-3.85 5 2.15 18.1-4.55 18.8z" fill="#0073be" fill-rule="evenodd"/><path d="m40.7 198c-6.8 3.6-8 12.7-2.7 18 18.3 25.5 22 21.5 47 11.3v273c0 6.3 5 11.4 11.4 11.4h30.4c6.3 0 11.4-5.1 11.4-11.4 0-104-.1-176-.1-294l8-3.2 144-17 144 17.2 5.8 2.3c-.6 98-.3 197-.3 295 0 6.3 5 11.4 11.4 11.4h30.4c6.3 0 11.3-5.1 11.4-11.4v-273c32 13.5 26.6 13.3 49.9-10.5 5.3-5.4 4-14.4-2.7-18l-245-130.3c-3.4-1.6-7.4-1.8-10.7.1z" fill="#0073be" fill-rule="evenodd"/></svg>