<svg height="580" width="580" xmlns="http://www.w3.org/2000/svg"><g fill="none" stroke="#fff" stroke-linejoin="round" stroke-width="64"><path d="m286 326c-8.9 5.5-17.3 16.8-11.6 27.5 4.1 9.5 14 20.3 6.6 30.7-3.3 5.4-13.2 11.2-2 9.5 4.4-.6 9.9 1.7 13-2.5 8.3-5.9 13.4-17.4 7.5-26.8-4.5-8.8-13-19-5.9-28.9 3.3-5.4 13.2-11.2 2-9.5h-9.8m-54.7 25.4c8.6 6.3 15.6 18 8.4 28-4.8 8.5-12 18.8-5.8 28.4 4 5.7 9.2 12.8 17 11.2 2.4-.7 12 1.4 9-1.3-9-6.5-13.6-19-6.1-28.7 4.7-7.9 10.5-17.9 4.7-26.8-3.9-5.8-9.3-12.6-17-11h-10.4m82 0c8.6 6.3 15.6 18 8.4 28-4.8 8.5-12 18.8-5.8 28.4 4 5.7 9.2 12.8 17 11.2 2.4-.7 12 1.4 9-1.3-9-6.5-13.6-19-6.1-28.7 4.7-7.9 10.5-17.9 4.7-26.8-3.9-5.8-9.3-12.6-17-11h-10.4m-102 83c-3.3 4.4 1.8 15.6-3.9 16-9.5-.5-22.6 1.9-24.8 12.7-.5 11.6 13 16.9 22.9 15.8 5.4-1.7 4.5 2.9 4.4 6.7-.6 13.6.8 27.9 9.7 38.9 10.2 14.3 28 20.9 45 19.6 19.8-.2 39.6.5 59-.4 25-2.5 44-26.7 42.6-52v-13.3c9.7.4 21.9.1 26.7-10 4.3-11-8.9-19.3-18.6-18.5-3-.7-9.5 2.2-8-3-.4-5.4 2.7-13.7-6.9-13h-149" opacity=".8"/><path d="m161 113.5c6.5 30 37 54.9 69 50 19.9-1.9 38.6-13.7 49-30.7 9.4-4.4 21 2.7 29.8-4.4 6.8-4.3 11.5-17.8 20-15.3 4.8 3.2 8 11.9 14.8 10.5 6.9-3.2 12.7-18.2 19.4-6.4 3.4 4.2 10.2 10.5 15 4.2 5.7-9.3 13.7-12 19.8-1.5 4.4 5.6 10.3 4.4 15.7-1 6.9-7.2 15-14.2 19-23.3-.5-9.4-6.9-13.4-14.2-19.9-12.3-11.8-22.3-8.7-34.3-8.7-35-1-73 .9-105-1-15-21-32-32-57-31.5-38.7-.6-71 41-61 79zm45.9 1.2c-11 7-28-2.3-25.5-16 2.3-10.5 10.2-15.3 21.4-14.35s17.2 23.05 4.1 30.35z" opacity=".8"/><path d="m75 276c-5.8 3.1-6.9 10.9-2.3 15.3 15.6 21.8 18.9 18.3 40 9.6v233c0 5.4 4.3 9.8 9.8 9.8h26c5.4 0 9.8-4.4 9.8-9.8 0-89-.1-150-.1-251l6.9-2.7 123-14.6 123 14.7 4.9 2c-.5 84-.2 168-.2 252 0 5.4 4.3 9.8 9.8 9.8h26c5.4 0 9.6-4.4 9.8-9.8v-233c27.5 11.6 22.7 11.4 42.6-9 4.5-4.6 3.4-12.3-2.3-15.3l-209.7-111c-2.9-1.4-6.3-1.5-8.95.05z" opacity=".8"/></g><path d="m286 326c-8.9 5.5-17.3 16.8-11.6 27.5 4.1 9.5 14 20.3 6.6 30.7-3.3 5.4-13.2 11.2-2 9.5 4.4-.6 9.9 1.7 13-2.5 8.3-5.9 13.4-17.4 7.5-26.8-4.5-8.8-13-19-5.9-28.9 3.3-5.4 13.2-11.2 2-9.5h-9.8m-54.7 25.4c8.6 6.3 15.6 18 8.4 28-4.8 8.5-12 18.8-5.8 28.4 4 5.7 9.2 12.8 17 11.2 2.4-.7 12 1.4 9-1.3-9-6.5-13.6-19-6.1-28.7 4.7-7.9 10.5-17.9 4.7-26.8-3.9-5.8-9.3-12.6-17-11h-10.4m82 0c8.6 6.3 15.6 18 8.4 28-4.8 8.5-12 18.8-5.8 28.4 4 5.7 9.2 12.8 17 11.2 2.4-.7 12 1.4 9-1.3-9-6.5-13.6-19-6.1-28.7 4.7-7.9 10.5-17.9 4.7-26.8-3.9-5.8-9.3-12.6-17-11h-10.4m-102 83c-3.3 4.4 1.8 15.6-3.9 16-9.5-.5-22.6 1.9-24.8 12.7-.5 11.6 13 16.9 22.9 15.8 5.4-1.7 4.5 2.9 4.4 6.7-.6 13.6.8 27.9 9.7 38.9 10.2 14.3 28 20.9 45 19.6 19.8-.2 39.6.5 59-.4 25-2.5 44-26.7 42.6-52v-13.3c9.7.4 21.9.1 26.7-10 4.3-11-8.9-19.3-18.6-18.5-3-.7-9.5 2.2-8-3-.4-5.4 2.7-13.7-6.9-13h-149" fill="#0073be" fill-rule="evenodd"/><path d="m161 113.5c6.5 30 37 54.9 69 50 19.9-1.9 38.6-13.7 49-30.7 9.4-4.4 21 2.7 29.8-4.4 6.8-4.3 11.5-17.8 20-15.3 4.8 3.2 8 11.9 14.8 10.5 6.9-3.2 12.7-18.2 19.4-6.4 3.4 4.2 10.2 10.5 15 4.2 5.7-9.3 13.7-12 19.8-1.5 4.4 5.6 10.3 4.4 15.7-1 6.9-7.2 15-14.2 19-23.3-.5-9.4-6.9-13.4-14.2-19.9-12.3-11.8-22.3-8.7-34.3-8.7-35-1-73 .9-105-1-15-21-32-32-57-31.5-38.7-.6-71 41-61 79zm45.9 1.2c-11 7-28-2.3-25.5-16 2.3-10.5 10.2-15.3 21.4-14.35s17.2 23.05 4.1 30.35z" fill="#0073be"/><path d="m75 276c-5.8 3.1-6.9 10.9-2.3 15.3 15.6 21.8 18.9 18.3 40 9.6v233c0 5.4 4.3 9.8 9.8 9.8h26c5.4 0 9.8-4.4 9.8-9.8 0-89-.1-150-.1-251l6.9-2.7 123-14.6 123 14.7 4.9 2c-.5 84-.2 168-.2 252 0 5.4 4.3 9.8 9.8 9.8h26c5.4 0 9.6-4.4 9.8-9.8v-233c27.5 11.6 22.7 11.4 42.6-9 4.5-4.6 3.4-12.3-2.3-15.3l-209.7-111c-2.9-1.4-6.3-1.5-8.95.05z" fill="#0073be" fill-rule="evenodd"/></svg>