<svg height="580" width="580" xmlns="http://www.w3.org/2000/svg"><path d="m184.78 542.02 55.55-326.73 52.31-31.32 51.16 32.16s46.85 331.2 41.4 328.54c-5.45-2.65-199.33 1.33-200.42-2.65z" style="opacity:.8;fill:none;stroke:#fff;stroke-linejoin:round;stroke-linecap:round;stroke-width:40"/><path d="m78.358 421.92 60.712 56.81 147.12-200.59-18.74-18.13zm427.832 0-60.71 56.81-147.12-200.59 18.74-18.13zm0-325.092-60.71-56.815-147.12 200.587 18.74 18.13zm-427.832 0 60.712-56.815 147.12 200.587-18.74 18.13z" style="opacity:.8;fill:none;stroke:#fff;stroke-linejoin:round;stroke-linecap:round;stroke-width:64"/><g fill-rule="evenodd"><path d="m184.78155 542.01606 55.55066-326.72348 52.30492-31.31861 51.16448 32.1539s46.84413 331.20079 41.39798 328.54447c-5.44615-2.65628-199.3288 1.32817-200.41804-2.65628z" fill="#fff"/><path d="m184.78155 542.01606 55.55066-326.72348 52.30492-31.31861 51.16448 32.1539s46.84413 331.20079 41.39798 328.54447c-5.44615-2.65628-199.3288 1.32817-200.41804-2.65628z" fill="#947445" stroke-width="14.07"/><path d="m78.35819 96.82824 60.7129-56.814999 147.12386 200.587909-18.74171 18.13141z" fill="#734a08" stroke="#734a08" stroke-linecap="round" stroke-linejoin="round" stroke-width="24.6"/><path d="m506.19495 96.82824-60.7129-56.814999-147.12386 200.587909 18.74171 18.13141z" fill="#734a08" stroke="#734a08" stroke-linecap="round" stroke-linejoin="round" stroke-width="24.6"/><path d="m506.19495 421.91756-60.7129 56.815-147.12386-200.58791 18.74171-18.13141z" fill="#734a08" stroke="#734a08" stroke-linecap="round" stroke-linejoin="round" stroke-width="24.6"/><path d="m78.35819 421.91756 60.7129 56.815 147.12386-200.58791-18.74171-18.13141z" fill="#734a08" stroke="#734a08" stroke-linecap="round" stroke-linejoin="round" stroke-width="24.6"/></g></svg>