<svg height="580" width="580" xmlns="http://www.w3.org/2000/svg"><path d="m198.22266 3.390625c-19.36362-.6837755-34.74785 20.023-29.12821 38.434152 4.3124 15.34281-.67309 8.210004-6.54514-1.021586-10.67486-15.943647-36.14089-16.517401-47.92092-1.515477-16.448705 17.402638-34.891009 33.108297-50.288073 51.411361-10.011693 15.091305-2.505022 36.476345 13.389479 44.116765 13.551378 7.51337-1.93758 2.8902-8.78198 2.01426-18.577462-3.06815-36.247517 14.36361-34.043519 32.94646.673922 23.93678-1.261306 48.0832.792675 71.91311 3.591169 17.75117 24.021327 27.56554 40.663495 21.7287 14.894446-4.26941.679852 3.41146-4.782152 7.63249-15.30617 10.96602-15.47498 35.78869-.775064 47.36967 17.40211 16.44923 33.106609 34.8927 51.409519 50.28991 9.28862 5.89634 21.82441 6.02979 31.23645.33253-9.79301 59.48972-21.56812 118.79037-29.15587 178.56681.16512 17.43982 17.36028 31.27249 34.41481 28.97236 52.44923-.4851 105.03487.97658 157.41537-.5966 16.57672-2.87222 27.64639-21.02109 23.37207-37.15316-8.72041-56.71791-18.66181-113.23896-28.38427-169.79136 14.01563 8.8452 32.75638 2.83481 42.08061-10.04915 15.3945-16.48588 33.08541-31.04103 47.27462-48.54786 9.67935-15.0976 2.09866-36.14184-13.63184-43.72478-15.20179-8.49883 6.05438-1.90814 12.68938-1.36898 28.8639 4.5588 57.50814 11.26711 86.4952 14.64248 15.73421-.17265 27.84963-13.9856 29.90168-28.93841 9.4228-33.56507 20.6312-66.73206 29.0561-100.52078 2.45995-19.51467-17.60247-37.00758-36.60707-32.08929-43.30368 7.4053-86.60735 14.81061-129.91103 22.21591 12.04285-7.24866 26.26829-17.01848 26.27053-32.7936 1.26028-19.560198-18.29765-30.320777-29.41746-43.20294-12.74028-10.757596-22.0776-26.12258-37.05321-33.964103-15.50535-7.137096-33.84337 1.984197-40.90413 16.773278-6.91805 12.260828-1.38066-5.073986-1.07962-10.496815 2.86219-19.131375-15.66779-36.42446229-34.53758-33.585355-21.17162 0-42.34323 0-63.51485 0zm274.14453 182.351565c-2.92969 9.92187-5.85938 19.84375-8.78907 29.76562-27.03841-4.79687-54.07682-9.59375-81.11523-14.39062 29.9681-5.125 59.9362-10.25 89.9043-15.375zm-262.77735 212.40234h45.38477c6.74881 39.36829 13.42324 78.75004 19.78125 118.18359-26.78861-2.14661-63.45249 4.09135-84.46105-3.0182 6.21423-38.42448 12.71728-76.80169 19.29503-115.16539z" fill="#fff" opacity=".8"/><g fill="#734a08"><path d="m198.22266 33.523438c7.83008 43.991537 15.66015 87.983072 23.49023 131.974612h21.13672c7.83073-43.99154 15.66146-87.983075 23.49219-131.974612-22.70638 0-45.41276 0-68.11914 0zm-60.11719 24.90039c-16.05534 16.055991-32.11068 32.111981-48.166017 48.167972 36.643227 25.56966 73.286457 51.13932 109.929687 76.70898 4.98232-4.98188 9.96495-9.96344 14.94727-14.94531-25.57031-36.64388-51.14063-73.287761-76.71094-109.931642zm188.35351 0c-25.57031 36.643881-51.14062 73.287762-76.71093 109.931642 4.98177 4.98177 9.96354 9.96354 14.94531 14.94531 36.64388-25.56966 73.28776-51.13932 109.93164-76.70898-16.05534-16.055991-32.11068-32.111981-48.16602-48.167972zm188.50391 89.462892c-82.4707 14.10417-164.94141 28.20833-247.41211 42.3125v21.13672c72.43294 12.84896 144.86589 25.69791 217.29883 38.54687 10.03776-33.9987 20.07552-67.99739 30.11328-101.99609zm-449.925781 18.82226v68.11719c43.992191-7.83008 87.984371-15.66015 131.976561-23.49023 0-7.04557 0-14.09115 0-21.13672-43.99219-7.83008-87.98437-15.66016-131.976561-23.49024zm134.832031 51.5254c-36.64323 25.56966-73.28646 51.13932-109.929687 76.70898 16.055337 16.05599 32.110677 32.11198 48.166017 48.16797 25.57031-36.64388 51.14063-73.28776 76.71094-109.93164-4.98281-4.98138-9.96281-9.96558-14.94727-14.94531zm64.82422 0c-4.98381 4.97972-9.96313 9.96395-14.94531 14.94531l76.71093 109.93164 48.16602-48.16797c-36.64388-25.56966-73.28776-51.13932-109.93164-76.70898zm-42.98047 17.80273c-7.83008 43.99154-15.66015 87.98307-23.49023 131.97461h68.11914c-7.83073-43.99154-15.66146-87.98307-23.49219-131.97461-7.04557 0-14.09115 0-21.13672 0z"/><path d="m226.70277 188.75435c-17.65155-4.79625-11.93014 17.8197-16.17041 28.82864-19.08465 109.55588-38.94082 218.99174-56.13032 328.86582 51.91992.0282 103.83984.0288 155.75976 0-18.72672-119.46795-40.47205-238.43751-61.15437-357.57678-7.43559-.0607-14.86979-.10135-22.30466-.11768z" opacity=".5"/></g></svg>