<svg height="580" width="580" xmlns="http://www.w3.org/2000/svg"><g stroke-linecap="round" stroke-linejoin="round"><path d="m233.54049 347.62872c-19.78078-5.16185-36.8806-15.49525-52.96015-32.00377-25.61212-26.2954-39.60113-54.4369-47.8849-96.32948-4.72473-23.89386-4.73276-24.47541-.38174-27.65697 8.91312-6.51744 12.43603-4.16874 15.42598 10.28439 15.58224 75.32278 64.3961 124.28872 111.88279 112.23137 14.16255-3.59602 27.67379-17.19221 31.73824-31.93782 5.24075-19.01315-3.99176-51.86871-20.04029-71.31709l-5.70333-6.91155-9.64094 9.93433c-10.19547 10.50574-22.7602 19.16494-27.83011 19.1796-3.04844.00883-16.96651-28.14239-16.96651-34.31707 0-1.80829 6.62002-6.31436 14.71116-10.01345 22.70623-10.3808 32.36453-22.07322 32.36453-39.18076 0-11.1334-1.9627-15.01576-9.58348-18.95661-9.81266-5.07433-26.15139-4.20649-45.95345 2.44085-9.64122 3.23646-18.08109 5.88447-18.75528 5.88447-1.73528 0-15.1516-30.36182-15.1516-34.28885 0-6.736842 14.55077-11.34115 38.83745-12.289372 22.27487-.869677 24.23016-.554976 36.44063 5.865254 15.3458 8.068798 26.75464 22.039518 31.75877 38.890268 4.08139 13.74351 4.66878 31.63448 1.32718 40.42356-3.5589 9.3606.96738 9.43333 13.05096.20972 13.20294-10.07801 22.13383-14.02749 36.63896-16.20267 10.4589-1.5684 10.97497-2.02473 13.8326-12.23123 6.82073-24.36122 24.88678-38.74127 49.10305-39.08464 18.0774-.25633 28.24057 3.46049 38.67146 14.14269 13.77009 14.10185 18.70169 31.12515 19.90292 68.70231 1.49103 46.64316-4.77319 71.854-23.0166 92.63213-15.72533 17.91016-40.46224 24.52975-59.76231 15.99241-16.28786-7.20489-20.58436-18.38456-22.45385-58.42559-1.20093-25.72199-2.20169-31.83981-5.8718-35.89521-5.67888-6.2751-9.1666-6.13034-24.52185 1.01791l-12.58909 5.86055 5.05188 7.65074c32.81973 49.70317 26.02363 103.82525-15.33456 122.11994-13.0248 5.76148-41.13179 7.54741-56.33672 3.57964zm170.1096-83.92278c16.96891-10.34598 28.20533-39.42685 25.73981-66.61695-1.61154-17.77248-11.95776-38.72152-22.60588-45.77247-14.4158-9.54582-34.21756-6.40351-47.1976 7.48968l-5.76597 6.17162 4.52409 7.58627c3.76446 6.31247 4.64958 13.11945 5.27133 40.53928.87302 38.49984 1.23162 40.77206 7.7407 49.04703 6.20453 7.88777 20.75796 8.58879 32.29352 1.55554zm-117.13676-159.2721c-5.81865-2.03574-14.99218-6.737468-20.38561-10.448257-10.76923-7.409407-31.41034-29.854532-31.41034-34.155531 0-1.49157 2.71142-4.488526 6.02536-6.659916 5.89818-3.864632 6.22665-3.766149 15.55955 4.665578 12.36763 11.173415 23.76574 15.829436 38.83292 15.86293 13.49985.030011 29.75765-7.794228 38.01927-18.297191 2.54652-3.237372 5.42261-5.886109 6.39131-5.886109 1.87368 0 26.91594 20.604606 29.97379 24.662225 2.94786 3.91166-21.46905 24.297482-35.30024 29.472421-14.95812 5.59654-33.09838 5.8946-47.70601.78385zm.82773-52.641492c-6.28786-6.621031-11.72771-12.846132-12.08857-13.833568-.36088-.987436 4.76714-6.868202 11.39561-13.068353l12.05176-11.273003 12.53571 12.380012c6.89466 6.809004 11.96815 13.562035 11.27442 15.006718-.69371 1.444705-6.31822 7.171651-12.49888 12.726583l-11.23758 10.09983z" fill="none" opacity=".8" stroke="#fff" stroke-width="40"/><path d="m207.06 373h168.92v168.92h-168.92z" fill="#767572" opacity=".8" stroke="#fff" stroke-width="60"/><path d="m207.06 373h168.92v168.92h-168.92z" fill="#767572" stroke="#000" stroke-width="20.14"/></g><path d="m233.54049 347.62872c-19.78078-5.16185-36.8806-15.49525-52.96015-32.00377-25.61212-26.2954-39.60113-54.4369-47.8849-96.32948-4.72473-23.89386-4.73276-24.47541-.38174-27.65697 8.91312-6.51744 12.43603-4.16874 15.42598 10.28439 15.58224 75.32278 64.3961 124.28872 111.88279 112.23137 14.16255-3.59602 27.67379-17.19221 31.73824-31.93782 5.24075-19.01315-3.99176-51.86871-20.04029-71.31709l-5.70333-6.91155-9.64094 9.93433c-10.19547 10.50574-22.7602 19.16494-27.83011 19.1796-3.04844.00883-16.96651-28.14239-16.96651-34.31707 0-1.80829 6.62002-6.31436 14.71116-10.01345 22.70623-10.3808 32.36453-22.07322 32.36453-39.18076 0-11.1334-1.9627-15.01576-9.58348-18.95661-9.81266-5.07433-26.15139-4.20649-45.95345 2.44085-9.64122 3.23646-18.08109 5.88447-18.75528 5.88447-1.73528 0-15.1516-30.36182-15.1516-34.28885 0-6.736842 14.55077-11.34115 38.83745-12.289372 22.27487-.869677 24.23016-.554976 36.44063 5.865254 15.3458 8.068798 26.75464 22.039518 31.75877 38.890268 4.08139 13.74351 4.66878 31.63448 1.32718 40.42356-3.5589 9.3606.96738 9.43333 13.05096.20972 13.20294-10.07801 22.13383-14.02749 36.63896-16.20267 10.4589-1.5684 10.97497-2.02473 13.8326-12.23123 6.82073-24.36122 24.88678-38.74127 49.10305-39.08464 18.0774-.25633 28.24057 3.46049 38.67146 14.14269 13.77009 14.10185 18.70169 31.12515 19.90292 68.70231 1.49103 46.64316-4.77319 71.854-23.0166 92.63213-15.72533 17.91016-40.46224 24.52975-59.76231 15.99241-16.28786-7.20489-20.58436-18.38456-22.45385-58.42559-1.20093-25.72199-2.20169-31.83981-5.8718-35.89521-5.67888-6.2751-9.1666-6.13034-24.52185 1.01791l-12.58909 5.86055 5.05188 7.65074c32.81973 49.70317 26.02363 103.82525-15.33456 122.11994-13.0248 5.76148-41.13179 7.54741-56.33672 3.57964zm170.1096-83.92278c16.96891-10.34598 28.20533-39.42685 25.73981-66.61695-1.61154-17.77248-11.95776-38.72152-22.60588-45.77247-14.4158-9.54582-34.21756-6.40351-47.1976 7.48968l-5.76597 6.17162 4.52409 7.58627c3.76446 6.31247 4.64958 13.11945 5.27133 40.53928.87302 38.49984 1.23162 40.77206 7.7407 49.04703 6.20453 7.88777 20.75796 8.58879 32.29352 1.55554zm-117.13676-159.2721c-5.81865-2.03574-14.99218-6.737468-20.38561-10.448257-10.76923-7.409407-31.41034-29.854532-31.41034-34.155531 0-1.49157 2.71142-4.488526 6.02536-6.659916 5.89818-3.864632 6.22665-3.766149 15.55955 4.665578 12.36763 11.173415 23.76574 15.829436 38.83292 15.86293 13.49985.030011 29.75765-7.794228 38.01927-18.297191 2.54652-3.237372 5.42261-5.886109 6.39131-5.886109 1.87368 0 26.91594 20.604606 29.97379 24.662225 2.94786 3.91166-21.46905 24.297482-35.30024 29.472421-14.95812 5.59654-33.09838 5.8946-47.70601.78385zm.82773-52.641492c-6.28786-6.621031-11.72771-12.846132-12.08857-13.833568-.36088-.987436 4.76714-6.868202 11.39561-13.068353l12.05176-11.273003 12.53571 12.380012c6.89466 6.809004 11.96815 13.562035 11.27442 15.006718-.69371 1.444705-6.31822 7.171651-12.49888 12.726583l-11.23758 10.09983z"/></svg>