<svg height="580" width="580" xmlns="http://www.w3.org/2000/svg"><g stroke-linecap="round" stroke-linejoin="round"><path d="m207.06 373h168.92v168.92h-168.92z" fill="none" opacity=".8" stroke="#fff" stroke-width="60"/><path d="m209.97 335.29c-4.11-31.76-1.35-64.07-2.08-96.06 1.15-15.66-1.81-31.88-6.11-45.88 13.23-1.42 13.88-13.38 12.88-23.96 2.6-8.5-7.25-4.85-12.38-5.79-11.55-.47-23.3.1-34.63-2.4-4.47-13.4-5.32-36.35 15.71-29.03 10.58 5.73 42.35-6.59 22.12-15.47-13.41-5.13-39.48 3.58-41.51-16.26-8.22-10.722-27.75-14.381-28.01-32.084-1.86-9.29-24.85-31.392-2.4-28.151 17.99 6.693 36.07 14.454 55.59 15.61 31.73 5.514 63.89 8.088 96.1 6.825 32.37-.877 65-.122 97.12-4.501 20.13-3.635 40.52-7.032 59.03-16.24 19.07-8.12 11.87 14.075 5.11 22.872-1.22 16.743-18.26 25.005-27.85 35.369-4.13 20.86-29.83 10.16-44.13 16.57-10.86 11.76 16.96 19.22 26.6 13.63 20.42-8.9 21.09 20.66 11.66 29.23-14.83 1.78-29.8 1.31-44.7 1.74 1.51 8.1-1.71 18.64 4.77 24.69 14.18 1.19 18.3 12.49 6.68 20.87-5.15 4.58-1.36 12.31-2.29 18.37.46 35.48 2.7 71.01.56 106.46-9.38 12.75-36.5 6.16-29.91-13.54-2.75-37.95-1.11-76.23-5.73-114.01 0-10.43 4.32-22 2.87-33.45 1.65-7.47-.99-10.57-8.57-8.67-32.72.65-65.47.43-98.14 2.2-2.92 57.18-.75 114.63-5.43 171.71-5.17 6.4-17.97 5.71-22.93-.65zm67.55-209.47c1.45-7.41-.66-11.27-8.58-9.31-9.63 1.1-23.43-3.57-28.98 5.94 3.86 13.03 19.56 13.03 30.84 12.66 9.4 1.89 6.27-2.48 6.72-9.29zm60.5 2.98c13.73-13.91-10.02-12.86-19.44-12.29-5.87-.1-13.56-1.91-10.8 6.67-.88 6.63-.45 11.95 7.62 9.63 7.62-.15 16.16.79 22.62-4.01z" fill="none" opacity=".8" stroke="#fff" stroke-width="40"/><path d="m207.06 373h168.92v168.92h-168.92z" fill="#767572" stroke="#000" stroke-width="20.14"/></g><path d="m209.97 335.29c-1.66-3.1-2.4-25.31-2.14-64.78.33-51.28-.16-61.12-3.38-67.33-4.94-9.56-4.9-9.68 3.22-12.52 6.56-2.28 6.99-3.17 6.99-14.6v-12.17l-22.7-.54c-12.49-.29-23.43-1.26-24.31-2.15-2.13-2.13-3.09-24.55-1.19-27.63.91-1.47 8.21-1.97 18.86-1.29 14.59.94 18.25.42 22.84-3.25 9.29-7.43 5.83-11.9-10.51-13.57-31.41-3.21-31.28-3.16-32.92-11.92-.83-4.39-2.52-7.982-3.77-7.982s-6.47-2.774-11.59-6.165c-7.26-4.803-9.88-8.414-11.88-16.346-1.41-5.6-5.61-14.391-9.34-19.536s-6.16-10.362-5.4-11.592c2.11-3.405 12.14-2.673 20.15 1.47 8.91 4.605 27.47 10.197 37.46 11.285 4.14.451 19.57 2.615 34.3 4.808 22.08 3.291 37.99 3.79 90.8 2.851 35.21-.627 68.73-2.266 74.5-3.643 5.76-1.377 17.15-3.557 25.3-4.845 8.16-1.288 21.41-5.421 29.45-9.185 19.54-9.141 25.5-3.957 15.08 13.122-2.55 4.192-4.65 10.083-4.65 13.09 0 5.375-18.12 24.686-23.16 24.686-1.27 0-3.19 3.371-4.25 7.492-2.14 8.25-6.9 10.51-22.93 10.9-14.25.35-24.16 2.78-24.16 5.94 0 1.54 2.41 5.06 5.36 7.82 4.92 4.63 6.65 4.87 21.53 3.03 9.95-1.23 17.26-1.15 18.96.21 2.81 2.23 1.73 24.48-1.34 27.95-.8.9-11.72 1.81-24.26 2.02l-22.8.39.7 11.94c.65 11.19 1.17 12.1 8.26 14.39 12.22 3.95 13.26 6.44 6.17 14.86l-6.31 7.5 1.35 59.79c.83 37.06.48 61.34-.93 63.85-2.79 4.99-23.34 5.73-27.28.98-1.61-1.93-3.12-25.8-4.1-64.61-.85-33.84-2.55-63.48-3.78-65.86-1.48-2.87-1.37-5.18.32-6.87 1.4-1.4 2.55-9.93 2.55-18.96v-16.41l-52.95.76c-29.12.42-53.31 1.12-53.76 1.56-.44.45-1.37 38.34-2.07 84.22-.69 45.88-2.21 85.25-3.36 87.49-3.15 6.08-19.58 5.62-22.93-.65zm67.55-209.47v-9.31h-17.35c-13.71 0-17.79.81-19.5 3.85-1.62 2.89-.63 5.2 3.96 9.24 4.85 4.27 8.89 5.4 19.5 5.46l13.39.1v-9.32zm60.5 2.98c2.58-2.21 4.69-5.87 4.69-8.15 0-3.6-2.28-4.14-17.46-4.14h-17.47v8.15 8.15h12.78c8.73 0 14.27-1.27 17.46-4.01z"/></svg>