<svg height="580" width="580" xmlns="http://www.w3.org/2000/svg"><g stroke-linecap="round" stroke-linejoin="round"><path d="m330.44 360.47c.45-52.38.89-104.77 1.34-157.15 26.74-.18 53.49-.35 80.23-.53 0-26.59 0-53.17 0-79.75-26.59-.48-53.17-.97-79.76-1.45-.48-29.369-.97-58.73-1.45-88.093-27.2-.476-54.39-.95-81.59-1.426v89.659c-27.08 0-54.14 0-81.22 0v80.28h81.22v160.28c27-3.01 54.53 4.88 81.23-1.82z" opacity=".8" stroke="#fff" stroke-width="41.624"/><path d="m203.69 361.68h175.78v175.78c-58.6 0-117.18 0-175.78 0 0-58.6 0-117.19 0-175.78z" fill="none" opacity=".8" stroke="#fff" stroke-width="62.44"/><path d="m203.69 361.68h175.78v175.78c-58.6 0-117.18 0-175.78 0 0-58.6 0-117.19 0-175.78z" fill="#767572" stroke="#fff" stroke-width="20.958"/><path d="m203.69 361.68h175.78v175.78c-58.6 0-117.18 0-175.78 0 0-58.6 0-117.19 0-175.78z" fill="none" stroke="#000" stroke-width="20.958"/></g><path d="m330.44 360.47c.45-52.38.89-104.77 1.34-157.15 26.74-.18 53.49-.35 80.23-.53 0-26.59 0-53.17 0-79.75-26.59-.48-53.17-.97-79.76-1.45-.48-29.369-.97-58.73-1.45-88.093-27.2-.476-54.39-.95-81.59-1.426v89.659c-27.08 0-54.14 0-81.22 0v80.28h81.22v160.28c27-3.01 54.53 4.88 81.23-1.82z"/></svg>