<svg height="580" width="580" xmlns="http://www.w3.org/2000/svg"><g stroke-linecap="round" stroke-linejoin="round"><path d="m280.45232 351.0856c-3.01813-3.01812-4.60459-7.67431-4.60459-13.51422v-8.90965l-13.35767-2.62795c-51.83317-10.19756-97.67645-63.92612-108.80054-119.59884-3.39284-.26191-5.26882-.39392-8.85421-.39392-11.21344 0-18.63675-7.48255-18.63675-18.78548 0-10.27404 6.31517-16.28404 17.84025-16.97814l8.63614-.52011 4.07596-15.817c6.80015-26.38826 16.89737-43.7485 37.33933-64.19781 20.95121-20.958735 38.48751-31.483998 63.80352-37.756071 7.69195-1.905702 8.2826-.435756 16.94103-2.367289 1.14391-12.02781.1018-25.442085 18.49108-24.811533 14.5349.507058 15.92247 9.382082 15.98242 24.108205 4.9847.488455 6.6028.635756 15.23162 2.410065 51.88246 10.668398 98.47297 57.474973 107.56413 109.820413 1.43887 8.28469 2.2112 9.137 7.69349 8.49019 7.23662-.85378 19.09098 4.7804 21.10594 10.03131 4.99085 13.00599-2.32587 24.18142-17.13358 26.16952-9.69428 1.30158-10.15407 1.7229-11.68629 10.70901-2.39968 14.07351-11.81593 35.62511-22.32952 51.10703-18.52998 27.28662-47.41652 47.59093-80.95357 56.90217l-17.26721 4.79409-.74558 9.14128c-.41008 5.02771-2.3837 10.95434-4.38585 13.1703-5.12362 5.67079-20.03392 5.34006-25.94955-.57557zm-4.60459-88.63835c0-15.82828-.79989-28.77869-1.77756-28.77869-.97765 0-10.53104 8.79919-21.22974 19.55376-10.76742 10.82364-16.84759 17.4699-19.10766 20.73223 2.78586 2.03974 7.67617 7.53776 19.91425 12.56883 10.25428 4.21552 18.70587 5.42308 22.57386 6.00639-.6396-4.8098-.37315-12.02397-.37315-30.08252zm69.14081 18.66896 10.02134-6.17816-20.53914-20.63474c-11.29653-11.34911-21.33776-20.63475-22.31387-20.63475-.9761 0-1.77472 13.07991-1.77472 29.06647v29.06648l12.29253-2.25358c4.11535-.82174 14.15658-4.61601 22.31386-8.43172zm-115.20361-54.93011 21.33304-20.14508h-30.48379-30.48381l1.56082 8.31992c1.78538 9.51688 13.00108 33.47921 15.24614 32.5733.82199-.33169 11.09441-9.66835 22.8276-20.74814zm160.78661 5.38792c3.60309-7.91414 5.16923-14.45367 5.95567-17.93589l1.42986-7.59711h-30.50126-30.50126l20.62465 20.72065c11.34356 11.39636 21.47771 20.72066 22.52033 20.72066s6.86894-7.99417 10.47201-15.90831zm-88.82585-22.76265c3.95958-2.04757 10.45884-8.87189 12.37622-13.4608 3.05604-7.31414 1.18568-15.05515-4.55438-21.34882-9.15381-10.03667-21.04507-10.0968-31.20204-.52646-9.91145 9.33898-7.48483 22.3076-1.85724 28.89322 6.4544 7.55317 16.89853 10.75508 25.23744 6.44286zm-53.5255-39.65507c0-.65954-9.18114-10.33774-20.40253-21.50714l-20.40252-20.30799-4.91091 7.946c-5.51706 8.92678-9.05663 18.57054-12.09458 35.12616 1.51897.21381 4.00706-.05788 29.03185-.05788 15.82828 0 28.77869-.53961 28.77869-1.19915zm147.85372-5.00105c-.37221-3.0285-2.15423-12.30164-5.87711-20.60323-3.76154-8.38779-9.46748-15.78903-10.46552-15.78903-1.66463 0-41.72145 39.74127-41.72196 41.39331-.00021.65954 13.20921.98361 29.35426.72016 29.07851-.47448 29.34857-.52829 28.71033-5.72121zm-120.22618-50.24989v-29.973688l-6.33132 1.429863c-11.53806.504893-35.67051 13.844758-35.10999 16.334135.35188 1.56273 39.26773 42.18339 40.81773 42.18339.34297 0 .62358-13.48816.62358-29.9737zm63.08336-22.235606c-8.59824-4.036107-18.4764-5.383755-21.64206-5.779566l-5.75573-.719651-.63953 29.929833-.63956 29.92983 22.02845-21.8718 22.02843-21.8718z" fill="none" opacity=".8" stroke="#fff" stroke-width="40"/><path d="m207.06 373h168.92v168.92h-168.92z" fill="none" opacity=".8" stroke="#fff" stroke-width="60"/><path d="m207.06 373h168.92v168.92h-168.92z" fill="#767572" stroke="#000" stroke-width="20.14"/></g><path d="m280.45232 351.0856c-3.01813-3.01812-4.60459-7.67431-4.60459-13.51422v-8.90965l-13.35767-2.62795c-51.83317-10.19756-97.67645-63.92612-108.80054-119.59884-3.39284-.26191-5.26882-.39392-8.85421-.39392-11.21344 0-18.63675-7.48255-18.63675-18.78548 0-10.27404 6.31517-16.28404 17.84025-16.97814l8.63614-.52011 4.07596-15.817c6.80015-26.38826 16.89737-43.7485 37.33933-64.19781 20.95121-20.958735 38.48751-31.483998 63.80352-37.756071 7.69195-1.905702 8.2826-.435756 16.94103-2.367289 1.14391-12.02781.1018-25.442085 18.49108-24.811533 14.5349.507058 15.92247 9.382082 15.98242 24.108205 4.9847.488455 6.6028.635756 15.23162 2.410065 51.88246 10.668398 98.47297 57.474973 107.56413 109.820413 1.43887 8.28469 2.2112 9.137 7.69349 8.49019 7.23662-.85378 19.09098 4.7804 21.10594 10.03131 4.99085 13.00599-2.32587 24.18142-17.13358 26.16952-9.69428 1.30158-10.15407 1.7229-11.68629 10.70901-2.39968 14.07351-11.81593 35.62511-22.32952 51.10703-18.52998 27.28662-47.41652 47.59093-80.95357 56.90217l-17.26721 4.79409-.74558 9.14128c-.41008 5.02771-2.3837 10.95434-4.38585 13.1703-5.12362 5.67079-20.03392 5.34006-25.94955-.57557zm-4.60459-88.63835c0-15.82828-.79989-28.77869-1.77756-28.77869-.97765 0-10.53104 8.79919-21.22974 19.55376-10.76742 10.82364-16.84759 17.4699-19.10766 20.73223 2.78586 2.03974 7.67617 7.53776 19.91425 12.56883 10.25428 4.21552 18.70587 5.42308 22.57386 6.00639-.6396-4.8098-.37315-12.02397-.37315-30.08252zm69.14081 18.66896 10.02134-6.17816-20.53914-20.63474c-11.29653-11.34911-21.33776-20.63475-22.31387-20.63475-.9761 0-1.77472 13.07991-1.77472 29.06647v29.06648l12.29253-2.25358c4.11535-.82174 14.15658-4.61601 22.31386-8.43172zm-115.20361-54.93011 21.33304-20.14508h-30.48379-30.48381l1.56082 8.31992c1.78538 9.51688 13.00108 33.47921 15.24614 32.5733.82199-.33169 11.09441-9.66835 22.8276-20.74814zm160.78661 5.38792c3.60309-7.91414 5.16923-14.45367 5.95567-17.93589l1.42986-7.59711h-30.50126-30.50126l20.62465 20.72065c11.34356 11.39636 21.47771 20.72066 22.52033 20.72066s6.86894-7.99417 10.47201-15.90831zm-88.82585-22.76265c3.95958-2.04757 10.45884-8.87189 12.37622-13.4608 3.05604-7.31414 1.18568-15.05515-4.55438-21.34882-9.15381-10.03667-21.04507-10.0968-31.20204-.52646-9.91145 9.33898-7.48483 22.3076-1.85724 28.89322 6.4544 7.55317 16.89853 10.75508 25.23744 6.44286zm-53.5255-39.65507c0-.65954-9.18114-10.33774-20.40253-21.50714l-20.40252-20.30799-4.91091 7.946c-5.51706 8.92678-9.05663 18.57054-12.09458 35.12616 1.51897.21381 4.00706-.05788 29.03185-.05788 15.82828 0 28.77869-.53961 28.77869-1.19915zm147.85372-5.00105c-.37221-3.0285-2.15423-12.30164-5.87711-20.60323-3.76154-8.38779-9.46748-15.78903-10.46552-15.78903-1.66463 0-41.72145 39.74127-41.72196 41.39331-.00021.65954 13.20921.98361 29.35426.72016 29.07851-.47448 29.34857-.52829 28.71033-5.72121zm-120.22618-50.24989v-29.973688l-6.33132 1.429863c-11.53806.504893-35.67051 13.844758-35.10999 16.334135.35188 1.56273 39.26773 42.18339 40.81773 42.18339.34297 0 .62358-13.48816.62358-29.9737zm63.08336-22.235606c-8.59824-4.036107-18.4764-5.383755-21.64206-5.779566l-5.75573-.719651-.63953 29.929833-.63956 29.92983 22.02845-21.8718 22.02843-21.8718z"/></svg>