<?xml version="1.0" encoding="UTF-8" standalone="no"?>
<svg
   xmlns:dc="http://purl.org/dc/elements/1.1/"
   xmlns:cc="http://creativecommons.org/ns#"
   xmlns:rdf="http://www.w3.org/1999/02/22-rdf-syntax-ns#"
   xmlns:svg="http://www.w3.org/2000/svg"
   xmlns="http://www.w3.org/2000/svg"
   xmlns:sodipodi="http://sodipodi.sourceforge.net/DTD/sodipodi-0.dtd"
   xmlns:inkscape="http://www.inkscape.org/namespaces/inkscape"
   height="580"
   width="580"
   version="1.1"
   id="svg22"
   sodipodi:docname="worship_unknown.svg"
   inkscape:version="1.0.1 (3bc2e813f5, 2020-09-07)">
  <metadata
     id="metadata28">
    <rdf:RDF>
      <cc:Work
         rdf:about="">
        <dc:format>image/svg+xml</dc:format>
        <dc:type
           rdf:resource="http://purl.org/dc/dcmitype/StillImage" />
      </cc:Work>
    </rdf:RDF>
  </metadata>
  <defs
     id="defs26" />
  <sodipodi:namedview
     pagecolor="#ffffff"
     bordercolor="#666666"
     borderopacity="1"
     objecttolerance="10"
     gridtolerance="10"
     guidetolerance="10"
     inkscape:pageopacity="0"
     inkscape:pageshadow="2"
     inkscape:window-width="1920"
     inkscape:window-height="1001"
     id="namedview24"
     showgrid="false"
     inkscape:zoom="1.4310345"
     inkscape:cx="290"
     inkscape:cy="262.04819"
     inkscape:window-x="-9"
     inkscape:window-y="-9"
     inkscape:window-maximized="1"
     inkscape:current-layer="svg22" />
  <path
     d="m 285.65,43.5 c 32.89,1.153 57.71,31.985 57.28,58.73 -0.43,26.75 -21.84,53.02 -56.56,54.37 -34.72,1.35 -58.81,-30.19 -58.72,-57.275 0.1,-27.088 25.11,-56.978 58,-55.825 z m -171.83,69.6 c 0,0 18.6,-12.8 29.73,-1.45 26.9,27.43 72.5,81.92 72.5,81.92 l 71.77,-10.87 30.45,-17.4 c 0,0 28.4,-1.27 41.33,3.63 12.93,4.9 14.17,5.5 29,26.09 14.83,20.59 36.25,134.86 36.25,134.86 0,0 12.03,41.27 8.7,55.1 -3.33,13.83 -17.4,23.92 -17.4,23.92 l -73.95,54.37 c 0,0 49.08,-2.37 76.12,-0.72 27.04,1.64 37.01,19.22 37.7,34.8 0.55,12.46 -19.2,33.71 -31.17,34.08 -83.1,2.51 -134.1,0.57 -187.78,2.17 -26.08,0.78 -39.41,-56.89 -21.02,-75.4 19,-19.12 92.07,-79.02 92.07,-79.02 l -34.07,-133.4 -82.65,5.07 c 0,0 -56.49,-57.26 -89.18,-105.12 -6.256,-9.16 5.81,-31.91 5.81,-31.91"
     opacity="0.8"
     stroke="#ffffff"
     stroke-width="40"
     id="path2"
     style="fill:none;stroke-linecap:round;stroke-linejoin:round" />
  <path
     d="m 336.04,228.2 c 10.87,42.6 21.74,85.19 32.6,127.79"
     stroke-width="128.99"
     id="path4"
     style="fill:none;stroke:#000000;stroke-linecap:round;stroke-linejoin:round" />
  <path
     d="m 282.62,81.43 c -20.48,0.629 -22.36,34.34 -1.7,36.89 29.07795,10.25036 34.81398,-39.716337 8.67,-36.25 l -3.42,-0.668 -3.55,0.03 z"
     stroke-width="78.4"
     id="path6"
     style="fill:#000000;stroke:#000000;stroke-linecap:round;stroke-linejoin:round"
     sodipodi:nodetypes="cccccc" />
  <path
     d="m 327.15,205.27 c -41.76,5.96 -83.53,11.92 -125.29,17.87 C 177.39,194 152.91,164.86 128.44,135.72"
     stroke-width="56.673"
     id="path8"
     style="fill:none;stroke:#000000;stroke-linecap:round;stroke-linejoin:round" />
  <path
     d="m 419.19,496.11 c -57.76,0.63 -115.52,1.25 -173.28,1.88"
     stroke-width="71.797"
     id="path10"
     style="fill:none;stroke:#000000;stroke-linecap:round;stroke-linejoin:round" />
  <path
     d="m 395.96,373.03 c -49.7,36.84 -99.41,73.68 -149.11,110.53"
     stroke-width="78.4"
     id="path12"
     style="fill:none;stroke:#000000;stroke-linecap:round;stroke-linejoin:round" />
  <path
     d="m 381.6,361.98 c -44.92,40.53 -89.83,81.05 -134.75,121.58"
     stroke-width="78.4"
     id="path14"
     style="fill:none;stroke:#000000;stroke-linecap:round;stroke-linejoin:round" />
  <path
     d="m 327.15,215.27 c -41.76,2.63 -83.53,5.25 -125.29,7.87 C 177.39,194 152.91,164.86 128.44,135.72"
     stroke-width="56.673"
     id="path16"
     style="fill:none;stroke:#000000;stroke-linecap:round;stroke-linejoin:round" />
</svg>
