<svg height="580" width="580" xmlns="http://www.w3.org/2000/svg"><g stroke-linecap="round" stroke-linejoin="round"><path d="m207.06 373h168.92v168.92h-168.92z" fill="none" opacity=".8" stroke="#fff" stroke-width="60"/><path d="m266.27191 338.46746c-5.6741-1.12821-16.70034-4.29499-24.50274-7.03733-39.98769-14.05453-78.60206-53.63421-93.01112-95.33628-5.02689-14.5485-8.26957-30.39029-8.07876-51.72233.18629-21.34713 3.05187-35.04228 8.07876-49.59078 13.73716-39.757458 48.48413-77.13033 86.79931-93.358922 13.91946-5.895658 44.84034-11.629677 62.7134-11.629677 26.63921 0 77.07899 16.84186 87.29092 29.146471 5.22069 6.29056.36439 6.503781-25.36216 1.113545-20.58854-4.313712-27.41825-4.711546-43.33738-2.524359-45.83657 6.297609-87.07178 40.84116-103.55151 86.747142-7.77411 21.65556-7.80387 60.59983-.06275 82.11702 16.02656 44.54744 56.62329 79.38394 101.46024 87.06419 13.9149 2.38351 20.29595 2.00054 43.13125-2.5886 14.74016-2.96227 27.75776-4.46426 28.92797-3.33775 2.72492 2.62316-9.53268 11.34615-27.50679 19.575-26.53978 12.15029-65.24223 16.87951-92.98864 11.36266zm85.14606-102.50317c-.78052-1.26291 1.45486-10.7461 4.96752-21.07373 3.51267-10.32766 6.38668-19.09515 6.38668-19.48331 0-.38813-7.525-6.07543-16.72221-12.63843-9.19722-6.56301-16.72221-12.94199-16.72221-14.17552 0-1.23351 9.55095-2.579 21.22433-2.98999l21.22435-.74719 6.68775-19.16584c3.6783-10.54124 7.90512-19.57165 9.39302-20.0676 1.48786-.49595 5.80904 8.41809 9.60255 19.809l6.8973 20.71076h21.87064c12.06356 0 21.48608 1.05059 21.01305 2.34293-.47165 1.28862-8.09311 7.65353-16.93659 14.14424-8.84347 6.49074-16.07904 12.78016-16.07904 13.97652 0 1.19639 2.31538 8.90499 5.14529 17.13029 4.95515 14.40242 6.54304 24.44014 3.8662 24.44014-.70352 0-8.35585-5.20961-17.00523-11.57691-8.64936-6.36731-16.80589-11.57691-18.1256-11.57691-1.31972 0-8.42792 4.41656-15.79603 9.8146-17.81352 13.05055-19.23502 13.80763-20.89177 11.12695z" opacity=".8" stroke="#fff" stroke-width="40"/><path d="m207.06 373h168.92v168.92h-168.92z" fill="#fff" stroke="#fff" stroke-width="20.14"/><path d="m207.06 373h168.92v168.92h-168.92z" fill="#767572" stroke="#000" stroke-width="20.14"/></g><path d="m266.27191 338.46746c-5.6741-1.12821-16.70034-4.29499-24.50274-7.03733-39.98769-14.05453-78.60206-53.63421-93.01112-95.33628-5.02689-14.5485-8.26957-30.39029-8.07876-51.72233.18629-21.34713 3.05187-35.04228 8.07876-49.59078 13.73716-39.757458 48.48413-77.13033 86.79931-93.358922 13.91946-5.895658 44.84034-11.629677 62.7134-11.629677 26.63921 0 77.07899 16.84186 87.29092 29.146471 5.22069 6.29056.36439 6.503781-25.36216 1.113545-20.58854-4.313712-27.41825-4.711546-43.33738-2.524359-45.83657 6.297609-87.07178 40.84116-103.55151 86.747142-7.77411 21.65556-7.80387 60.59983-.06275 82.11702 16.02656 44.54744 56.62329 79.38394 101.46024 87.06419 13.9149 2.38351 20.29595 2.00054 43.13125-2.5886 14.74016-2.96227 27.75776-4.46426 28.92797-3.33775 2.72492 2.62316-9.53268 11.34615-27.50679 19.575-26.53978 12.15029-65.24223 16.87951-92.98864 11.36266zm85.14606-102.50317c-.78052-1.26291 1.45486-10.7461 4.96752-21.07373 3.51267-10.32766 6.38668-19.09515 6.38668-19.48331 0-.38813-7.525-6.07543-16.72221-12.63843-9.19722-6.56301-16.72221-12.94199-16.72221-14.17552 0-1.23351 9.55095-2.579 21.22433-2.98999l21.22435-.74719 6.68775-19.16584c3.6783-10.54124 7.90512-19.57165 9.39302-20.0676 1.48786-.49595 5.80904 8.41809 9.60255 19.809l6.8973 20.71076h21.87064c12.06356 0 21.48608 1.05059 21.01305 2.34293-.47165 1.28862-8.09311 7.65353-16.93659 14.14424-8.84347 6.49074-16.07904 12.78016-16.07904 13.97652 0 1.19639 2.31538 8.90499 5.14529 17.13029 4.95515 14.40242 6.54304 24.44014 3.8662 24.44014-.70352 0-8.35585-5.20961-17.00523-11.57691-8.64936-6.36731-16.80589-11.57691-18.1256-11.57691-1.31972 0-8.42792 4.41656-15.79603 9.8146-17.81352 13.05055-19.23502 13.80763-20.89177 11.12695z"/><path d="m387.4375 123.65625c-5.4844 3.94887-6.54022 11.68793-9.4375 17.46875-2.63624 7.22265-5.08211 14.52938-7.65625 21.78125-13.8735 1.18214-28.57294-.64006-41.90625 3.6875-3.36635 3.97288 3.49423 7.07989 5.75 9.65625 8.49761 6.97024 17.75342 12.89692 26.34375 19.78125-3.65416 13.32797-10.39352 26.22977-11.15625 40.125 2.29297 6.16621 9.30037 1.11392 12.50869-1.32066 8.76383-5.78573 16.95888-13.37013 26.39756-17.67934 12.06843 6.45295 22.32418 16.2866 34.375 22.9375 5.3842.1545 3.82457-7.43909 3.1875-10.875-1.98837-11.0572-7.51602-21.82388-9.3125-32.59375 9.90221-10.18885 23.05458-16.58428 32.5-27.21875.60599-5.33705-7.23109-4.04746-10.625-4.875-10.85994-.69671-21.7511-.24672-32.625-.375-5.15103-13.28221-7.50252-28.2007-15.9375-39.8125-.65906-.52935-1.52611-.93797-2.40625-.6875z" stroke-linecap="round" stroke-linejoin="round" stroke-width="14.4"/></svg>