<svg height="580" width="580" xmlns="http://www.w3.org/2000/svg"><path d="m87.505 375.64c35.635 3.06-13.207-46.2-19.786-14.48-4.125 25.69-18.568-15.05-8.712-24.03 13.302-23.39 17.071-49.72 25.857-74.65 9.025-25.29 36.856-27.82 57.226-38.6 27.57-15.02 33.12 32.17 34.07 50.52-3.47 21.82-11.7 42.16-15.56 64.09-5.18 20.38-14.16 40.45-14.33 61.59-7.47 14.7-44.14 39.64-11.63 49.01 20.81 3.47 61.98 8.69 61.93-21.86-6.87-26.24 16.98-40.68 22.55-63.52.65-7.86 11.93-25.32 9.49-6.38.91 27.86 32.11 53.55 10.13 79.41-15.08 22.86 11.91 40.23 31.26 26.26 23.58-1.04 53.94-17.94 35.31-44.13-3.1-28.64-4.87-57.27-14.21-84.38.36-28.62 27.92-16 41.53-5.51 28.76 5.35 35.41 32.13 34.85 56.66-3.03 18.34-33.19 39.77-.49 47.55 24.4 4.6 66.35 9.43 64.86-27.17 4.82-13.92-9.46-47.75 3.96-50.26 10.05 21.87 40.28 53.84 13.1 74.5-22.65 22.11 14.37 35.12 32.76 33.53 35.32 10.48 50.8-26.96 43.56-55.81-1.62-24.34-16.1-46.02-8.89-70.7 2.63-20.8 2.83-41.92-.29-62.6 5.07-26.67 9.1 17.15 8.2 25.86 0 23.59-3.1 47.75 3.44 70.82-8.33 12.51 19.07 40.85 15.13 13.96-16.93-34.89-.11-72.36-.35-108.6 2.38-36.97-7.45-78.32-39.76-100.3-23.79-18.44-50.52-32.71-75.65-49.04-30.65-12.04-64.21-.37-95.61-8.52-28.56-4.37-57.49-6.2-86.27-7.09-34.24-7.48-61.83-40.913-99.24-33.193-31.62 7.856-53.604 35.313-74.85 58.063-15.776 25.62-14.665 57.3-28.49 83.83-10.34 23.23-15.448 49.23-8.848 74.22 2.512 25.97-5.456 51.55-4.003 77.5 6.15 25.33 53.848 36.08 57.756 3.45z" style="opacity:.8;fill:none;stroke:#fff;stroke-linejoin:round;stroke-linecap:round;stroke-width:41.971"/><path d="m87.505 375.64c35.635 3.06-13.207-46.2-19.786-14.48-4.125 25.69-18.568-15.05-8.712-24.03 13.302-23.39 17.071-49.72 25.857-74.65 9.025-25.29 36.856-27.82 57.226-38.6 27.57-15.02 33.12 32.17 34.07 50.52-3.47 21.82-11.7 42.16-15.56 64.09-5.18 20.38-14.16 40.45-14.33 61.59-7.47 14.7-44.14 39.64-11.63 49.01 20.81 3.47 61.98 8.69 61.93-21.86-6.87-26.24 16.98-40.68 22.55-63.52.65-7.86 11.93-25.32 9.49-6.38.91 27.86 32.11 53.55 10.13 79.41-15.08 22.86 11.91 40.23 31.26 26.26 23.58-1.04 53.94-17.94 35.31-44.13-3.1-28.64-4.87-57.27-14.21-84.38.36-28.62 27.92-16 41.53-5.51 28.76 5.35 35.41 32.13 34.85 56.66-3.03 18.34-33.19 39.77-.49 47.55 24.4 4.6 66.35 9.43 64.86-27.17 4.82-13.92-9.46-47.75 3.96-50.26 10.05 21.87 40.28 53.84 13.1 74.5-22.65 22.11 14.37 35.12 32.76 33.53 35.32 10.48 50.8-26.96 43.56-55.81-1.62-24.34-16.1-46.02-8.89-70.7 2.63-20.8 2.83-41.92-.29-62.6 5.07-26.67 9.1 17.15 8.2 25.86 0 23.59-3.1 47.75 3.44 70.82-8.33 12.51 19.07 40.85 15.13 13.96-16.93-34.89-.11-72.36-.35-108.6 2.38-36.97-7.45-78.32-39.76-100.3-23.79-18.44-50.52-32.71-75.65-49.04-30.65-12.04-64.21-.37-95.61-8.52-28.56-4.37-57.49-6.2-86.27-7.09-34.24-7.48-61.83-40.913-99.24-33.193-31.62 7.856-53.604 35.313-74.85 58.063-15.776 25.62-14.665 57.3-28.49 83.83-10.34 23.23-15.448 49.23-8.848 74.22 2.512 25.97-5.456 51.55-4.003 77.5 6.15 25.33 53.848 36.08 57.756 3.45z" fill="#734a08"/></svg>