<?xml version="1.0" encoding="UTF-8" standalone="no"?>
<svg xmlns="http://www.w3.org/2000/svg" xmlns:sodipodi="http://sodipodi.sourceforge.net/DTD/sodipodi-0.dtd" xmlns:inkscape="http://www.inkscape.org/namespaces/inkscape" version="1.0" width="580" height="580">
 <metadata id="metadata2975"/>
 <g id="g1970" transform="translate(68.799779,58.552307)" fill="#0092da" stroke="#0092da" stroke-linejoin="round" stroke-linecap="round" stroke-width="30">
  <path id="path1972" d="M 196.91,25.3815 C 196.97,-8.6185 248.219,-8.6185 248.185,26.3395 L 248.185,169.031 L 447.949,289.095 L 447.949,341.812 L 249.144,276.382 L 249.144,383.029 L 295.152,418.973 L 295.152,460.667 L 224.225,438.621 L 153.298,460.667 L 153.298,418.973 L 198.827,383.029 L 198.827,276.382 L 0,341.812 L 0,289.095 L 196.91,169.031 L 196.91,25.3815 z"/>
  <path d="M 248.185,169.031 L 447.949,289.095 L 447.949,341.812 L 249.144,276.382 L 198.827,276.382 L 0,341.812 L 0,289.095 L 196.91,169.031 L 248.185,169.031 z" id="path7842" sodipodi:nodetypes="ccccccccc"/>
 </g>
 <g transform="translate(68.799779,58.552307)" id="g7850" fill="#0092da" stroke="#0092da" stroke-linejoin="round" stroke-linecap="round" stroke-width="40">
  <path d="M 248.185,169.031 L 447.949,289.095 L 447.949,341.812 L 249.144,276.382 L 198.827,276.382 L 0,341.812 L 0,289.095 L 196.91,169.031 L 248.185,169.031 z" id="path7852" sodipodi:nodetypes="ccccccccc"/>
  <path sodipodi:nodetypes="ccccccccc" id="path7854" d="M 248.185,169.031 L 447.949,289.095 L 447.949,341.812 L 249.144,276.382 L 198.827,276.382 L 0,341.812 L 0,289.095 L 196.91,169.031 L 248.185,169.031 z"/>
 </g>
</svg>
