<?xml version="1.0" encoding="UTF-8" standalone="no"?>
<svg xmlns="http://www.w3.org/2000/svg" xmlns:sodipodi="http://sodipodi.sourceforge.net/DTD/sodipodi-0.dtd" xmlns:inkscape="http://www.inkscape.org/namespaces/inkscape" version="1.0" width="580" height="580">
 <metadata id="metadata10"/>
 <defs id="defs4">
  <clipPath id="clipoutline2">
   <path d="M 55.8,12 L 56.56,12.16 C 65.4,9.22 85.24,20.8 80.82,31.12 C 79.7,32.74 79.89,35.62 81.24,37.43 L 56.43,62.25 C 55.04,60.86 51.95,60.89 50.53,62.25 L 9.5,101.63 C 5.76,105.22 8.7,108.27 10.28,109.88 L 17.64,117.24 C 19.25,118.84 23.5,121 26.52,117.8 L 65.24,76.99 C 66.59,75.57 66.6,72.52 65.24,71.12 C 65.24,71.12 65.25,71.1 65.24,71.1 L 90.15,46.2 C 92.78,48.57 95.263827,48.774854 97.62,48.13 C 102.17057,46.884568 104.70725,51.336643 107.43,54.59 L 106.2,55.8 C 104.38,57.64 104.55,60.74 106.59,62.78 C 108.63,64.82 111.74,64.99 113.56,63.17 L 121.7,55.04 C 123.52,53.2 123.35,50.1 121.3,48.07 C 119.46,46.22 116.79,45.98 114.93,47.3 C 109.35,41.04 112.28,40.1 104.92,31.95 L 91.13,17.86 C 81.2,8.12 68.3,8.13 55.8,12 z" id="outline2"/>
  </clipPath>
  <clipPath id="clipoutline1">
   <path d="M 22.42,17.2 L 35.38,30.15 L 32.88,38.93 L 24.1,41.43 L 11.14,28.47 L 5.28,34.33 L 20.17,55.79 L 37.73,52.45 L 99.36,118.07 C 108.8,127.58 121.53,113.32 112.7,105.2 L 46.85,42.92 L 50.86,25.16 L 28.72,10.89 L 22.42,17.2 z M 103.48,109.17 C 105.16,107.49 107.88,107.49 109.56,109.17 C 111.24,110.85 111.24,113.57 109.56,115.25 C 107.88,116.92 105.16,116.92 103.48,115.25 C 101.8,113.57 101.8,110.85 103.48,109.17 z" id="outline1"/>
  </clipPath>
  <marker viewBox="0 0 10 10" refY="5" refX="10" orient="auto" markerWidth="4" markerUnits="strokeWidth" markerHeight="3" id="ArrowStart">
   <path id="path2295" d="M 10 0 L 0 5 L 10 10 z"/>
  </marker>
  <marker viewBox="0 0 10 10" refY="5" orient="auto" markerWidth="4" markerUnits="strokeWidth" markerHeight="3" id="ArrowEnd">
   <path id="path2292" d="M 0 0 L 10 5 L 0 10 z"/>
  </marker>
 </defs>
 <path inkscape:connector-curvature="0" d="m 66.574092,398.90001 43.901888,49.46693 56.26863,33.39017 60.59699,17.93176 51.94026,3.09169 20.40511,-12.36673 13.6034,-22.87846 9.8934,-74.20039 -52.55863,-98.3155 -85.94877,-35.86353 -71.72704,-7.42004 -33.390171,12.36673 -23.496799,22.26012 -8.656698,35.86353 4.946687,43.90188 14.221743,32.77184 z" id="path6439-1" fill="#ffffff" fill-rule="evenodd"/>
 <path inkscape:connector-curvature="0" d="m 397.38415,173.82551 41.42854,-17.93177 35.24519,-30.29848 19.16843,9.27505 29.68016,19.78677 4.94669,17.93176 -16.69508,14.84008 -33.39017,5.56502 -46.37524,30.91682 -51.94029,-6.8017 17.93177,-43.28355 z" id="path6441-7" fill="#ffffff" fill-rule="evenodd"/>
 <path inkscape:connector-curvature="0" d="m 478.27795,118.99972 c -4.15679,0.0111 -7.61395,1.13708 -10.43833,2.4936 -4.93987,2.44765 -8.47127,5.59494 -11.83009,8.81458 -4.94359,4.83039 -9.3031,10.10894 -13.0479,14.26571 -1.85199,2.06539 -3.51563,3.85893 -4.75524,4.9872 -0.6124,0.56598 -1.11898,0.96682 -1.39177,1.15981 -0.0464,0.0353 -0.0863,0.0377 -0.11598,0.0579 l -22.79034,9.80042 c -0.80535,-0.013 -1.55925,0 -2.37761,0 -31.1368,0.0427 -58.996,9.07763 -85.30428,17.33921 -29.00276,9.18572 -56.70281,20.10096 -84.66637,25.51589 -12.84144,2.52376 -27.3215,3.21779 -42.44917,4.4073 -15.11842,1.22476 -30.95589,2.89489 -46.50852,8.35065 -13.83056,4.85079 -25.54234,10.35389 -38.09987,18.20907 -5.50032,3.47389 -10.33718,7.65616 -14.961592,11.07622 -4.496346,3.44234 -8.820149,5.85613 -10.438321,6.205 l -7.132852,4.75524 c 0,0 -6.425199,4.90994 -9.75854,7.76798 l -13.420934,11.50724 c -13.487738,11.56453 -17.885342,40.81888 -17.87792,57.15648 0,0.002 0,0.013 0,0.0579 0,0.0445 0,0.15032 0,0.23197 0.11691,25.03528 8.238387,48.7117 21.224585,69.76277 13.045581,21.14015 30.973976,39.82243 51.321744,55.55506 40.88296,31.35948 92.21815,51.76665 140.68536,51.95964 9.46781,-0.004 18.8646,-0.79795 28.00949,-2.55159 8.55106,-1.5699 15.98177,-5.64458 21.63052,-10.84425 3.5518,-3.26233 10.17853,-6.93569 12.52599,-10.78627 4.11039,-1.86127 4.31868,-4.44719 7.48079,-7.77075 4.66709,-4.83967 7.7225,-10.18084 11.25019,-16.7593 5.82136,-11.00062 12.91383,-22.73513 18.55702,-35.37431 6.43559,-14.5821 8.75009,-29.96447 10.96023,-44.36286 2.13775,-14.39655 4.1461,-27.86892 8.17669,-38.27384 4.10667,-10.76862 11.24137,-19.83003 20.12276,-29.45926 8.81085,-9.61996 19.28584,-19.56976 28.24146,-32.41678 6.97185,-10.12102 15.20097,-19.0743 22.38439,-30.32912 6.3205,-9.82594 11.45339,-21.90702 12.52599,-36.47613 l 17.97711,-9.45248 1.50775,-1.56575 c 1.94476,-1.92253 3.51238,-2.74876 5.97304,-3.53743 3.63718,-1.18578 9.37872,-1.41358 16.70131,-2.02968 7.14817,-0.6699 16.72962,-2.15122 25.34193,-9.10453 3.55179,-2.88933 6.55665,-5.96562 8.87257,-9.68444 2.30478,-3.67245 3.84594,-8.20128 3.82738,-12.87393 0.013,-3.80976 -1.02991,-7.49518 -2.55159,-10.43832 -2.71862,-5.19411 -6.42351,-8.44669 -10.09037,-11.07622 -5.55968,-3.88584 -11.51231,-6.40078 -17.10725,-8.40865 -2.43654,-0.85919 -4.81415,-1.62698 -7.01687,-2.26163 -1.22664,-2.72232 -2.67592,-5.2122 -4.63925,-7.59678 -1.87239,-2.23426 -4.27368,-4.33121 -7.19085,-5.79907 -2.90046,-1.48456 -6.28387,-2.22405 -9.33649,-2.20364 z m -0.52192,13.91776 c 4.3907,-0.29867 8.31117,3.22679 11.13421,13.33786 13.28682,2.98768 48.82998,13.65239 25.86384,32.24281 -14.13303,11.44225 -34.56801,0.94453 -49.17609,15.77346 l -23.31225,12.23603 c -0.013,-0.44351 -0.0358,-0.88283 -0.0579,-1.33378 -5.89371,2.13962 -11.94467,4.72879 -18.0351,5.85705 -0.87589,-6.19804 -2.25052,-12.22955 -3.88537,-18.15107 -4.53162,1.79446 -10.05,3.36809 -14.55566,4.17532 1.72209,-8.39148 3.64135,-14.81684 7.94472,-21.22458 l 28.82137,-12.35201 c 9.43919,-4.10274 24.03764,-29.79782 35.25832,-30.56109 z m -366.90696,132.3927 c 1.05999,-0.0327 2.12593,4.6e-4 3.18948,0 25.35631,0.0501 51.82325,8.71901 72.02442,16.35337 16.41369,6.23889 29.97607,12.02031 42.33318,20.06477 12.36081,8.02964 23.30344,18.31577 34.50445,32.9387 17.54568,22.92535 35.7988,51.56669 43.20305,81.47689 1.77964,7.26507 2.95381,16.461 2.95752,26.0958 -0.0241,10.62946 -1.39224,21.77434 -5.62509,31.48893 -4.09741,9.62367 -12.03794,18.26614 -23.89216,20.47071 -8.1929,1.57176 -16.69064,2.31592 -25.34192,2.31963 -44.47558,-0.0742 -93.6373,-19.32064 -132.27671,-49.06011 C 83.430616,417.71014 54.958125,377.10784 54.830082,332.9273 54.82637,318.58828 57.924,303.9663 64.630505,289.66626 l 11.656124,-12.98991 12.873929,-7.88673 c 6.991837,-2.19205 14.268502,-3.25126 21.688512,-3.47944 z m 31.083,65.64544 c 8.61973,0.0612 17.69921,2.00647 24.53005,7.71276 2.61654,2.25467 5.77169,5.73829 8.64061,10.03238 2.78912,4.31265 5.41262,9.2915 5.50911,15.30954 0.007,2.45882 -0.51449,5.16024 -1.91369,7.59678 -1.88539,3.31615 -4.96864,5.55968 -8.00271,6.72691 -3.05636,1.19877 -6.12799,1.55833 -9.10454,1.56575 -8.09087,-0.0408 -15.96831,-2.64994 -19.94879,-3.94336 l -0.52191,-0.17388 -17.45519,-9.51047 -0.69589,-0.40594 -0.6379,-0.52191 c -5.25906,-4.93802 -8.51025,-10.12517 -8.58262,-16.06342 -0.0241,-3.42933 1.30456,-6.71068 3.24748,-9.10453 1.94665,-2.42169 4.37806,-4.12987 7.01687,-5.45113 5.2906,-2.60913 11.50952,-3.74712 17.91912,-3.76939 z m 0,12.98991 c -3.55182,-0.009 -6.9844,0.55532 -9.68445,1.44976 -2.72044,0.87033 -4.55018,2.13684 -5.10317,2.89954 -0.38599,0.52889 -0.38181,0.64996 -0.40594,0.98584 -0.0687,0.45836 0.44491,2.61051 3.88538,5.97304 l 15.71547,8.58262 c 3.66315,1.21734 10.30981,3.11618 15.25154,3.0735 1.88167,0.0111 3.44187,-0.26675 4.3493,-0.6379 0.93344,-0.40268 1.15657,-0.69217 1.44977,-1.15981 0.12619,-0.2338 0.22454,-0.47645 0.23196,-1.10182 0.0965,-1.50681 -1.16027,-4.99184 -3.30547,-8.11869 -2.06539,-3.14171 -4.85683,-6.08207 -6.32098,-7.30683 -3.0879,-2.76683 -9.63155,-4.7042 -16.06341,-4.63925 z" id="path3" sodipodi:nodetypes="ccccssccccccscccczzssscccccccccccccccccccccccccccccccccccccccccccccccccccccccccccccccccccccccccccsscccsscccc" fill="#ac39ac" stroke="#ffffff" stroke-width="1.856"/>
 <path inkscape:connector-curvature="0" d="m 66.574092,398.90001 43.901888,49.46693 56.26863,33.39017 60.59699,17.93176 51.94026,3.09169 20.40511,-12.36673 13.6034,-22.87846 9.8934,-74.20039 -52.55863,-98.3155 -85.94877,-35.86353 -71.72704,-7.42004 -33.390171,12.36673 -23.496799,22.26012 -8.656698,35.86353 4.946687,43.90188 14.221743,32.77184 z" id="path6439" opacity="0.1" fill="#ac39ac" fill-rule="evenodd"/>
 <path inkscape:connector-curvature="0" d="m 397.38415,173.82551 41.42854,-17.93177 35.24519,-30.29848 19.16843,9.27505 29.68016,19.78677 4.94669,17.93176 -16.69508,14.84008 -33.39017,5.56502 -46.37524,30.91682 -51.94029,-6.8017 17.93177,-43.28355 z" id="path6441" opacity="0.1" fill="#ac39ac" fill-rule="evenodd"/>
</svg>
