<?xml version="1.0" encoding="UTF-8" standalone="no"?>
<svg xmlns="http://www.w3.org/2000/svg" xmlns:sodipodi="http://sodipodi.sourceforge.net/DTD/sodipodi-0.dtd" xmlns:inkscape="http://www.inkscape.org/namespaces/inkscape" version="1.0" width="580" height="580">
 <metadata id="metadata2975"/>
 <path d="m 49.302816,232.71463 0.353768,-96.69793 32.160709,0 0,32.16103 32.160707,0 0,-32.16103 32.16071,0 0,32.16103 32.16071,0 0,-32.16103 32.16071,0 0,96.48342 -32.16071,0 0,64.31916 32.16071,0 0,-32.15813 32.16071,0 0,32.15813 32.16071,0 0,-32.15813 32.16071,0 0,32.15813 0,32.16103 0,32.16104 3.83929,0 0,12.16103 -68.16071,0 0,84.32206 -160.803547,0 0,-225.12432 -32.516085,0.28944 0.0016,-0.0749 8e-6,-3e-5 z" id="path2958" sodipodi:nodetypes="ccccccccccccccccccccccccccccccccc" fill="#734a08" stroke="#734a08" stroke-linejoin="round" stroke-linecap="round" stroke-width="6"/>
 <path d="m 532.24315,232.71463 -0.35056,-96.69793 -32.11665,0 0,32.16103 -32.11632,0 0,-32.16103 -32.11633,0 0,32.16103 -32.11633,0 0,-32.16103 -32.11633,0 0,96.48342 32.11633,0 0,64.32206 -32.11633,0 0,-32.16103 -32.11633,0 0,32.16103 -32.11632,0 0,-32.16103 -32.11633,0 0,32.16103 0,32.15813 0,32.16104 16.11633,0 0,12.16103 48.11632,0 0,84.32206 160.58164,0 0,-225.12432 32.47139,0.28944 -0.004,-0.0749 -1.8e-4,-3e-5 z" id="path2958-0" sodipodi:nodetypes="ccccccccccccccccccccccccccccccccc" fill="#734a08" stroke="#734a08" stroke-linejoin="round" stroke-linecap="round" stroke-width="6"/>
</svg>
