<?xml version="1.0" encoding="UTF-8" standalone="no"?>
<svg xmlns="http://www.w3.org/2000/svg" xmlns:sodipodi="http://sodipodi.sourceforge.net/DTD/sodipodi-0.dtd" xmlns:inkscape="http://www.inkscape.org/namespaces/inkscape" version="1.0" width="580" height="580">
 <metadata id="metadata2975"/>
 <g id="hammer" transform="matrix(2.8112949,-2.7606223,2.7606223,2.8112949,-145.81685,248.30731)" fill="#ac39ac" stroke-linejoin="round" stroke-linecap="round" stroke-width="2.347">
  <path d="m 55.8,12 0.76,0.16 c 8.84,-2.94 28.68,8.64 24.26,18.96 -1.12,1.62 -0.93,4.5 0.42,6.31 L 56.43,62.25 c -1.39,-1.39 -4.48,-1.36 -5.9,0 L 9.5,101.63 c -3.74,3.59 -0.8,6.64 0.78,8.25 l 7.36,7.36 c 1.61,1.6 5.86,3.76 8.88,0.56 L 65.24,76.99 c 1.35,-1.42 1.36,-4.47 0,-5.87 0,0 0.01,-0.02 0,-0.02 L 90.15,46.2 c 2.63,2.37 5.113827,2.574854 7.47,1.93 4.55057,-1.245432 7.08725,3.206643 9.81,6.46 l -1.23,1.21 c -1.82,1.84 -1.65,4.94 0.39,6.98 2.04,2.04 5.15,2.21 6.97,0.39 l 8.14,-8.13 c 1.82,-1.84 1.65,-4.94 -0.4,-6.97 -1.84,-1.85 -4.51,-2.09 -6.37,-0.77 -5.58,-6.26 -2.65,-7.2 -10.01,-15.35 L 91.13,17.86 C 81.2,8.12 68.3,8.13 55.8,12 Z" id="path5678" inkscape:connector-curvature="0"/>
 </g>
 <path inkscape:connector-curvature="0" id="path4657" d="m 382.27474,521.34963 1.00877,-65.31588 36.93091,-19.69079 34.27849,19.32055 -1.61875,66.469 22.56244,0.87475 15.47345,-82.85542 -55.43803,-36.94317 15.05987,-313.516825 c 2.64187,-38.427096 -54.90245,-43.678766 -55.37665,0.120364 l 3.53692,316.628611 -51.77873,31.47653 12.94166,83.00316 22.41965,0.42912 z m 40.0647,-421.20877 c -8.13063,-0.146793 -16.02396,-6.69365 -15.80281,-14.89599 0.0751,-8.204977 4.15985,-18.650919 17.87589,-20.351376 9.73728,0.1758 17.1882,8.297493 16.61588,18.417232 -0.14767,8.179316 -10.41227,16.979564 -18.68896,16.830134 z" stroke-dasharray="none" fill="#ac39ac" stroke="#ac39ac" stroke-linejoin="round" stroke-linecap="round" stroke-width="8.081" stroke-miterlimit="4"/>
</svg>
