<?xml version="1.0" encoding="UTF-8" standalone="no"?>
<svg xmlns="http://www.w3.org/2000/svg" xmlns:sodipodi="http://sodipodi.sourceforge.net/DTD/sodipodi-0.dtd" xmlns:inkscape="http://www.inkscape.org/namespaces/inkscape" version="1.0" width="580" height="580">
 <metadata id="metadata2975"/>
 <defs id="defs4">
  <symbol viewBox="244.5 110 489 219.9" id="symbol-university">
   <path id="path4460" d="M79,43l57,119c0,0,21-96,104-96s124,106,124,106l43-133l82-17L0,17L79,43z"/>
   <path id="path4462" d="M94,176l-21,39" stroke-width="20" stroke="#000000" fill="none"/>
   <path id="path4464" d="M300,19c0,10.5-22.6,19-50.5,19S199,29.5,199,19s22.6-19,50.5-19S300,8.5,300,19z"/>
   <path id="path4466" d="M112,216l-16-38L64,88c0,0-9-8-4-35s16-24,16-24" stroke-width="20" stroke="#000000" ill="none"/>
  </symbol>
 </defs>
 <path inkscape:connector-curvature="0" d="m 335.74696,72.535064 c -9.91399,3.707372 -23.49847,9.222318 -28.58918,9.222318 -5.09072,0 -9.22233,-4.131598 -9.22233,-9.222318 0,-5.09072 4.13161,-9.222319 9.22233,-9.222319 4.85211,0.186313 18.96004,5.919963 28.58918,9.222319 z" id="path3340" sodipodi:nodetypes="csscc" opacity="0.985" fill="#734a08" stroke="#734a08" stroke-linejoin="round" stroke-linecap="round" stroke-width="15"/>
 <path inkscape:connector-curvature="0" sodipodi:nodetypes="csscc" id="path3345" d="m 326.83545,72.535064 c 9.914,3.707372 23.49848,9.222318 28.58919,9.222318 5.09072,0 9.22232,-4.131598 9.22232,-9.222318 0,-5.09072 -4.1316,-9.222319 -9.22232,-9.222319 -4.85211,0.186313 -18.96005,5.919963 -28.58919,9.222319 z" opacity="0.985" fill="#734a08" stroke="#734a08" stroke-linejoin="round" stroke-linecap="round" stroke-width="15"/>
 <path inkscape:connector-curvature="0" d="m 331.13579,72.073947 0,56.256143 0.69168,21.903" id="path3347" fill="none" stroke="#734a08" stroke-linecap="round" stroke-width="30"/>
 <path sodipodi:type="arc" id="path3349" sodipodi:cx="401.44211" sodipodi:cy="125.39394" sodipodi:rx="22.784552" sodipodi:ry="45.569103" d="m 424.22666,125.39394 a 22.784552,45.569103 0 1 1 -45.5691,0 22.784552,45.569103 0 1 1 45.5691,0 z" transform="matrix(0.85,0,0,0.85,-10.089994,38.806527)" opacity="0.985" fill="#734a08" stroke="#734a08" stroke-linejoin="round" stroke-linecap="round" stroke-width="35.29"/>
 <path inkscape:connector-curvature="0" d="m 434.42576,150.00254 -151.24641,-0.8545 -11.98863,-0.0677 c -59.02283,-0.92223 -55.33391,54.41168 -55.33391,54.41168" id="path3351" sodipodi:nodetypes="cccc" fill="none" stroke="#734a08" stroke-width="50"/>
 <path inkscape:connector-curvature="0" d="m 313.93285,253.57194 -0.13409,0 c 0.15332,-0.13249 0.23773,-0.26604 0.23773,-0.40067 0,-3.17166 -43.30757,-5.74286 -96.73113,-5.74286 -53.42302,0 -96.73112,2.5712 -96.73112,5.74286 0,0.13463 0.0844,0.26818 0.23826,0.40067 l -0.23826,0 30.18981,230.21014 0.13623,0 c -0.26711,0.14424 -0.40868,0.29061 -0.40868,0.43859 0,2.19137 29.91415,3.96659 66.81483,3.96659 36.90122,0 66.81483,-1.77522 66.81483,-3.96659 0,-0.14798 -0.1421,-0.29489 -0.40867,-0.43859 l 30.22026,-230.21014 z m -49.60381,213.37931 c -1.54656,1.43118 -93.27509,0.76051 -94.82166,-0.67066 L 140.82931,267.51088 c 48.94776,0.16312 84.19739,2.59607 150.73525,-1.34133 l -27.23552,200.7817 z" id="path2209" sodipodi:nodetypes="ccsssccccsssccccccc" fill="#734a08"/>
 <path inkscape:connector-curvature="0" d="m 132.8727,263.7534 165.65429,1.34133 -26.8266,212.11689 -113.34242,1.34134 L 132.8727,263.7534 z" id="path2381" sodipodi:nodetypes="ccccc" opacity="0.1" fill="#734a08" fill-rule="evenodd"/>
</svg>
