<?xml version="1.0" encoding="UTF-8" standalone="no"?>
<svg xmlns="http://www.w3.org/2000/svg" xmlns:sodipodi="http://sodipodi.sourceforge.net/DTD/sodipodi-0.dtd" xmlns:inkscape="http://www.inkscape.org/namespaces/inkscape" version="1.0" width="580" height="580">
 <metadata id="metadata2975"/>
 <path d="m 45.40739,51.732619 c 0,0 -16.350222,50.048161 11.143019,86.686211 13.994406,21.23491 49.465031,43.56226 81.749971,53.83063 l 47.95323,52.58841 c -8.96271,-5.88003 -19.79708,-11.67254 -32.42157,-16.19633 -41.40787,-14.83785 -97.049733,2.87969 -96.292972,1.21744 0,0 19.575307,56.0518 62.645422,71.64639 24.63542,10.662 77.12792,7.08512 94.35704,-23.24054 29.42478,34.57551 55.98994,55.92576 80.33889,70.00034 -27.72792,-3.28483 -55.79358,-4.07231 -83.55771,-1.11373 -37.64168,5.84064 -57.78739,32.18574 -97.37167,53.5952 -2.8719,1.93327 -12.93841,11.64264 -16.472125,12.07729 36.804325,21.5252 73.154445,55.12801 108.281415,59.15653 69.07118,7.92139 133.60026,-43.00233 131.69336,-104.53024 14.58598,4.94693 28.36106,8.29604 41.52072,11.8495 24.42151,6.59444 40.50898,13.93993 63.59551,33.478 23.08652,19.53807 41.28913,51.66297 68.31834,108.38335 l 23.29251,-5.41654 c -27.48504,-57.67671 -52.60463,-91.41713 -77.54695,-112.52582 -24.94249,-21.1087 -49.51276,-29.18239 -74.35217,-35.88969 -11.34547,-3.06359 -8.81076,0.16193 -20.58845,-3.4489 57.26934,-33.5127 48.17776,-180.2404 -63.52277,-227.61601 -34.70391,98.09383 -3.50573,169.43318 38.28669,218.46383 -30.17504,-12.98586 -77.42856,-41.65556 -117.33588,-90.24747 60.90387,-61.86154 42.90909,-131.81273 -36.09796,-195.880868 -36.70745,77.340058 -18.1936,123.238578 10.35771,165.615288 l -43.00949,-47.238 c -0.0153,-14.61261 -2.61204,-45.44792 -22.07298,-71.2039 C 101.78157,80.678551 43.863781,52.708899 45.40739,51.732619 z" id="path5095" sodipodi:nodetypes="ccccscccccccscssccsscccccccsc" color="#000000" stroke-width="4.217" stroke-linecap="round" stroke-linejoin="round" stroke="#000000"/>
</svg>
