<?xml version="1.0" encoding="UTF-8" standalone="no"?>
<svg xmlns="http://www.w3.org/2000/svg" xmlns:sodipodi="http://sodipodi.sourceforge.net/DTD/sodipodi-0.dtd" xmlns:inkscape="http://www.inkscape.org/namespaces/inkscape" version="1.0" width="580" height="580">
 <metadata id="metadata10"/>
 <path inkscape:connector-curvature="0" d="m 289.99982,40.1158 -252.059441,191.90742 50.41156,0 0,307.86098 151.236001,0 104.28079,0 147.77899,0 0,-307.86099 50.4119,0 -252.0598,-191.90741 0,0 0,0 z" id="path645-1" sodipodi:nodetypes="cccccccccccc" fill="#ffffff" fill-rule="evenodd" stroke="#ffffff" stroke-width="1.241"/>
 <path inkscape:connector-curvature="0" d="M 289.99982,40.115795 37.940379,232.02323 l 50.41156,0 0,307.86098 151.236001,0 104.28079,0 147.77899,0 0,-307.86099 50.4119,0 -252.0598,-191.907425 0,0 0,0 z" id="path645" sodipodi:nodetypes="cccccccccccc" opacity="0.2" fill="#734a08" fill-rule="evenodd" stroke="#ffffff" stroke-width="1.241"/>
 <path inkscape:connector-curvature="0" sodipodi:nodetypes="cccccccccccc" id="path3198" d="M 289.99982,35.115795 37.94038,227.02323 l 50.41156,0 0,317.86098 151.236,0 104.28079,0 147.77899,0 0,-317.86099 50.4119,0 -252.0598,-191.907425 0,0 0,0 z" fill="none" fill-rule="evenodd" stroke="#734a08" stroke-linejoin="round" stroke-width="20"/>
 <path d="m 257.72649,150.58896 c 0,-10.86092 3.51977,-19.76107 10.55957,-26.70072 7.03967,-6.93875 16.09082,-10.40831 27.15332,-10.4087 11.86678,3.9e-4 21.72248,3.67115 29.56681,11.01217 7.84421,7.34179 11.76625,15.6386 11.76651,24.89044 -2.6e-4,6.83898 -1.55901,13.67758 -4.67651,20.51579 -3.11762,6.83898 -8.04553,12.3199 -14.78334,16.44288 -6.73819,4.1235 -13.62712,6.18518 -20.66666,6.18493 -9.65462,2.5e-4 -18.55477,-4.12299 -26.70071,-12.36985 -8.14608,-8.24622 -12.21899,-18.10178 -12.21899,-29.56694 l 0,0 z m -42.23839,359.9315 -0.60347,-19.61071 34.09245,-4.52551 c 5.02832,-1.40789 8.49788,-3.46957 10.40883,-6.18493 1.91069,-2.71523 2.86609,-8.79961 2.86609,-18.25303 l 0,-3.3187 c 0,-2.4135 0.15087,-6.78827 0.45261,-13.12406 0.3016,-6.33566 0.45247,-11.91725 0.45247,-16.74449 0,-3.82151 -0.30173,-11.16291 -0.90508,-22.02434 l 0.30174,-15.08508 -0.30174,-14.18013 0.60347,-49.17752 c -1.2e-4,-6.235 -0.60347,-12.67133 -1.81028,-19.30899 -2.21255,-3.01683 -6.23525,-5.63152 -12.06811,-7.8442 -5.83299,-2.2123 -15.99028,-3.82138 -30.47189,-4.82725 l 0,-16.89536 c 20.71686,-1.20668 38.91957,-5.53099 54.60812,-12.97332 10.6601,-4.82698 22.22541,-13.3752 34.69592,-25.64464 l 20.21406,0 c 0.80441,24.9409 1.20668,57.32373 1.20681,97.14825 l -2.11189,123.09475 c -1.3e-4,8.44768 0.40214,16.09082 1.20668,22.92941 6.23513,2.21256 16.39243,4.42498 30.47202,6.63753 5.43059,0.80454 9.7549,1.81015 12.97319,3.01697 l -0.30161,16.59362 c -5.43084,0.2012 -9.45355,0.30173 -12.06811,0.30173 -3.01722,0 -7.64327,-0.20107 -13.87839,-0.60334 -20.51593,-1.00574 -47.97085,-1.50854 -82.36491,-1.50854 -9.85556,0 -19.40952,0.35193 -28.66174,1.05594 -9.25222,0.70401 -15.58801,1.05594 -19.00724,1.05594 l 0,0 z" id="flowRoot6828" inkscape:connector-curvature="0" fill="#734a08"/>
</svg>
