<?xml version="1.0" encoding="UTF-8" standalone="no"?>
<svg xmlns="http://www.w3.org/2000/svg" xmlns:sodipodi="http://sodipodi.sourceforge.net/DTD/sodipodi-0.dtd" xmlns:inkscape="http://www.inkscape.org/namespaces/inkscape" version="1.0" width="580" height="580">
 <defs id="defs22">
  <marker viewBox="0 0 10 10" refY="5" refX="10" orient="auto" markerWidth="4" markerUnits="strokeWidth" markerHeight="3" id="ArrowStart">
   <path id="path3568" d="M 10 0 L 0 5 L 10 10 z"/>
  </marker>
  <marker viewBox="0 0 10 10" refY="5" orient="auto" markerWidth="4" markerUnits="strokeWidth" markerHeight="3" id="ArrowEnd">
   <path id="path3565" d="M 0 0 L 10 5 L 0 10 z"/>
  </marker>
  <marker viewBox="0 0 10 10" refY="5" refX="10" orient="auto" markerWidth="4" markerUnits="strokeWidth" markerHeight="3" id="marker2959">
   <path id="path2626" d="M 10 0 L 0 5 L 10 10 z"/>
  </marker>
  <marker viewBox="0 0 10 10" refY="5" orient="auto" markerWidth="4" markerUnits="strokeWidth" markerHeight="3" id="marker2956">
   <path id="path2623" d="M 0 0 L 10 5 L 0 10 z"/>
  </marker>
 </defs>
 <metadata id="metadata10"/>
 <path d="m 68.837859,135.30745 c -4.195247,-0.0822 -8.386918,1.63409 -11.288544,4.66517 -2.901644,3.03108 -4.469507,7.33125 -4.204406,11.51892 l 17.220788,273.40161 c 0.341089,5.47059 3.883904,10.62375 8.86957,12.9012 L 307.68271,542.21337 c 4.58364,2.09005 10.20101,1.71741 14.45624,-0.9791 4.25524,-2.6965 7.01696,-7.6336 7.08414,-12.67082 l 4.3196,-296.03629 c 0.0923,-6.43689 -4.36479,-12.68188 -10.48222,-14.68663 L 73.330238,136.05618 c -1.44873,-0.47251 -2.968712,-0.72584 -4.492379,-0.74873 z m 68.883151,102.92157 c 4.73153,-0.10724 10.61429,0.74335 17.68155,2.53417 9.4229,2.38795 19.70104,6.03411 30.75552,11.00057 17.74515,7.97282 31.99031,15.52983 42.85039,22.63468 10.8598,7.10515 20.04867,15.8446 27.53022,26.26314 5.25385,7.24653 9.54633,16.05482 12.8436,26.49352 3.29692,10.43883 5.11851,19.86225 5.47149,28.16377 l 3.28289,77.81031 c 0.35257,8.30151 1.12482,15.09753 2.24619,20.21571 1.12093,5.11807 3.38258,11.97679 6.79616,20.67647 l -55.57879,-24.93847 c -2.42329,-5.54036 -4.00057,-9.64058 -4.78036,-12.32525 -0.78006,-2.68497 -1.63913,-6.75576 -2.53416,-12.15246 -7.39539,5.03762 -14.84151,7.62199 -22.34671,7.83287 -10.26572,0.16495 -22.30299,-2.81228 -36.16941,-9.04236 -18.4241,-8.27766 -32.65475,-19.43063 -42.62001,-33.46246 -9.96535,-14.03191 -15.2318,-28.22606 -15.83852,-42.50483 -0.56913,-13.39322 2.40926,-22.85367 8.92716,-28.39414 6.51787,-5.54034 18.92139,-6.24609 37.26372,-2.131 21.9894,4.88518 36.22826,7.78205 42.7352,8.69679 6.50675,0.91489 13.39025,1.39192 20.61887,1.38227 -0.35287,-8.3015 -2.09409,-14.79574 -5.24111,-19.46698 -3.14727,-4.67112 -8.50543,-8.69657 -16.0689,-12.09487 -9.69692,-4.35658 -16.9001,-5.85596 -21.59798,-4.49238 -3.66427,1.06818 -6.52135,4.86954 -8.524,11.46133 l -56.84588,-32.25298 c 1.65353,-10.33155 4.3142,-17.79453 8.06325,-22.4619 3.74905,-4.66704 9.34109,-7.68084 16.70243,-9.04235 1.3211,-0.24784 2.80002,-0.36741 4.37719,-0.40317 z m 41.00736,118.93287 c -3.72921,0.0927 -6.36578,0.67569 -7.89046,1.72784 -3.14179,2.17144 -4.57481,5.60299 -4.37719,10.25184 0.22568,5.31303 2.0219,10.36956 5.4139,15.20498 3.39181,4.83551 8.21079,8.68707 14.51384,11.51892 6.5938,2.96254 12.68233,3.86853 18.19989,2.76454 5.51735,-1.10423 9.30888,-3.75782 11.46133,-7.94805 2.1522,-4.19033 3.06431,-10.47874 2.70695,-18.89104 l -0.46076,-10.77019 c -8.00436,-0.33897 -16.33781,-1.28822 -25.05365,-2.70695 -5.9345,-0.87477 -10.78463,-1.24461 -14.51385,-1.15189 z" id="path4040-9" inkscape:connector-curvature="0" color="#000000" stroke-width="16.52" fill="#ffffff"/>
 <path d="m 513.3125,115.9375 c -2.10641,0.124 -4.18563,0.69204 -6.0625,1.65625 l -195.9375,101.1875 c -4.8811,2.52971 -8.16728,7.87756 -8.21875,13.375 l -3.25,297.09375 c -0.0694,5.5507 3.1632,11.01503 8.0625,13.625 4.89931,2.60997 11.24457,2.24797 15.8125,-0.90625 l 179.75,-123.78125 c 3.75454,-2.58077 6.23988,-6.92421 6.5625,-11.46875 l 19.375,-274.5 c 0.3072,-4.30696 -1.30827,-8.7104 -4.34375,-11.78125 -3.03548,-3.07085 -7.43977,-4.75729 -11.75,-4.5 z m -51.75,153.59375 c 0.68844,-10e-4 1.3525,0.0145 2,0.0625 10.35975,0.76779 17.21511,6.61198 20.46875,17.625 l -46.6875,32.1875 c -1.00361,-4.31649 -3.28395,-6.69607 -6.875,-7.125 -3.59131,-0.4286 -8.60498,1.23397 -15.03125,4.90625 -8.11335,4.63658 -14.91402,11.08529 -20.40625,19.4375 -5.49238,8.35248 -8.73114,18.10107 -9.6875,29.21875 -0.85241,9.90777 0.99316,16.01583 5.53125,18.3125 4.53793,2.29686 10.69452,1.25074 18.40625,-3.15625 6.42625,-3.67234 11.94894,-8.3347 16.59375,-13.9375 4.64461,-5.60265 8.34048,-12.23805 11.0625,-19.90625 L 483.09375,325.5 c -3.35797,10.62048 -8.24778,20.98689 -14.6875,31.03125 -6.44,10.04452 -14.34517,19.52132 -23.78125,28.4375 -9.43631,8.91619 -21.19243,17.37287 -35.25,25.40625 -13.57576,7.75806 -24.76167,12.99933 -33.59375,15.78125 -8.83216,2.78201 -16.2958,3.39498 -22.34375,1.78125 -6.04805,-1.61358 -10.61046,-4.95789 -13.6875,-10.03125 -3.07707,-5.07327 -4.11527,-13.56333 -3.09375,-25.4375 1.06703,-12.40344 4.19859,-23.99789 9.40625,-34.8125 3.81398,-7.93247 8.78967,-15.93805 14.90625,-24 6.11654,-8.0618 12.3048,-14.99365 18.53125,-20.78125 9.87796,-9.16854 22.27739,-18.02394 37.21875,-26.5625 19.58022,-11.18927 34.51711,-16.75999 44.84375,-16.78125 z" id="path4042-4" inkscape:connector-curvature="0" color="#000000" stroke-width="30.447" fill="#ffffff"/>
 <path d="m 272.6875,47.03125 c -1.89621,0.04667 -3.78298,0.451737 -5.53125,1.1875 l -202.125,85.84375 c -5.657996,2.38678 -9.517002,8.48871 -9.28125,14.625 0.235752,6.13629 4.550556,11.89812 10.375,13.84375 l 247.34375,83.15625 c 3.89056,1.30341 8.30802,0.94493 11.9375,-0.96875 l 193.75,-102 c 5.348,-2.81749 8.66578,-9.05111 8.03125,-15.0625 -0.63454,-6.01138 -5.18161,-11.42368 -11,-13.0625 l -238.96875,-67 c -1.47077,-0.413427 -3.00403,-0.603764 -4.53125,-0.5625 z M 315.15625,111.25 c 1.15078,0.006 2.32109,0.0344 3.5,0.0625 18.86252,0.45021 38.78788,4.31343 59.78125,11.625 13.99549,4.87452 24.58241,9.95902 31.75,15.25 7.16739,5.29109 10.30533,10.24932 9.40625,14.875 -0.89938,4.62574 -5.10346,8.65915 -12.625,12.0625 -6.43858,2.91334 -14.19466,4.92797 -23.25,6.0625 -6.92715,0.81575 -16.75211,0.90371 -29.46875,0.28125 l 18.96875,6.59375 -34.40625,15.5625 -176.875,-61.59375 37.09375,-16.78125 61.3125,21.34375 c -1.47713,-3.45369 -1.18319,-6.68091 0.90625,-9.6875 2.08953,-3.00655 5.96881,-5.7843 11.625,-8.34375 10.94404,-4.95185 25.0195,-7.39822 42.28125,-7.3125 z m -1.9375,22.78125 c -6.32685,-0.0472 -11.3358,0.76246 -14.96875,2.40625 -4.99434,2.25988 -6.60004,4.94153 -4.8125,8.09375 1.7877,3.15232 7.72702,6.49831 17.78125,10 11.01949,3.83794 20.54816,5.89813 28.59375,6.21875 8.04562,0.32074 14.43383,-0.56778 19.1875,-2.71875 4.39262,-1.98755 5.63768,-4.51985 3.75,-7.5625 -1.88772,-3.04253 -8.56044,-6.55645 -20.0625,-10.5625 -10.13472,-3.52971 -19.02349,-5.44888 -26.6875,-5.78125 -0.958,-0.0415 -1.87741,-0.087 -2.78125,-0.0937 z" id="path4044-8" inkscape:connector-curvature="0" color="#000000" stroke-width="30.447" fill="#ffffff"/>
 <path d="M 68.564095,150.51046 318.30511,232.32214 313.99924,528.35134 85.78763,423.9338 68.564095,150.51046 z" id="path3933" sodipodi:nodetypes="ccccc" fill="none" stroke="#39ac39" stroke-linejoin="round" stroke-linecap="round" stroke-width="30.447"/>
 <path d="M 514.22263,131.13401 318.30511,232.32214 315.0757,529.42783 494.84619,405.63379 514.22263,131.13401 z" id="path3935" fill="none" stroke="#39ac39" stroke-linejoin="round" stroke-linecap="round" stroke-width="30.447"/>
 <path d="M 273.09339,62.239925 70.986184,148.08842 318.30511,231.24568 512.06968,129.25014 273.09339,62.239925 z" id="path3937" sodipodi:nodetypes="ccccc" fill="none" stroke="#39ac39" stroke-linejoin="round" stroke-linecap="round" stroke-width="30.447"/>
 <path inkscape:connector-curvature="0" d="m 68.837859,135.30745 c -4.195247,-0.0822 -8.386918,1.63409 -11.288544,4.66517 -2.901644,3.03108 -4.469507,7.33125 -4.204406,11.51892 l 17.220788,273.40161 c 0.341089,5.47059 3.883904,10.62375 8.86957,12.9012 L 307.68271,542.21337 c 4.58364,2.09005 10.20101,1.71741 14.45624,-0.9791 4.25524,-2.6965 7.01696,-7.6336 7.08414,-12.67082 l 4.3196,-296.03629 c 0.0923,-6.43689 -4.36479,-12.68188 -10.48222,-14.68663 L 73.330238,136.05618 c -1.44873,-0.47251 -2.968712,-0.72584 -4.492379,-0.74873 z m 68.883151,102.92157 c 4.73153,-0.10724 10.61429,0.74335 17.68155,2.53417 9.4229,2.38795 19.70104,6.03411 30.75552,11.00057 17.74515,7.97282 31.99031,15.52983 42.85039,22.63468 10.8598,7.10515 20.04867,15.8446 27.53022,26.26314 5.25385,7.24653 9.54633,16.05482 12.8436,26.49352 3.29692,10.43883 5.11851,19.86225 5.47149,28.16377 l 3.28289,77.81031 c 0.35257,8.30151 1.12482,15.09753 2.24619,20.21571 1.12093,5.11807 3.38258,11.97679 6.79616,20.67647 l -55.57879,-24.93847 c -2.42329,-5.54036 -4.00057,-9.64058 -4.78036,-12.32525 -0.78006,-2.68497 -1.63913,-6.75576 -2.53416,-12.15246 -7.39539,5.03762 -14.84151,7.62199 -22.34671,7.83287 -10.26572,0.16495 -22.30299,-2.81228 -36.16941,-9.04236 -18.4241,-8.27766 -32.65475,-19.43063 -42.62001,-33.46246 -9.96535,-14.03191 -15.2318,-28.22606 -15.83852,-42.50483 -0.56913,-13.39322 2.40926,-22.85367 8.92716,-28.39414 6.51787,-5.54034 18.92139,-6.24609 37.26372,-2.131 21.9894,4.88518 36.22826,7.78205 42.7352,8.69679 6.50675,0.91489 13.39025,1.39192 20.61887,1.38227 -0.35287,-8.3015 -2.09409,-14.79574 -5.24111,-19.46698 -3.14727,-4.67112 -8.50543,-8.69657 -16.0689,-12.09487 -9.69692,-4.35658 -16.9001,-5.85596 -21.59798,-4.49238 -3.66427,1.06818 -6.52135,4.86954 -8.524,11.46133 l -56.84588,-32.25298 c 1.65353,-10.33155 4.3142,-17.79453 8.06325,-22.4619 3.74905,-4.66704 9.34109,-7.68084 16.70243,-9.04235 1.3211,-0.24784 2.80002,-0.36741 4.37719,-0.40317 z m 41.00736,118.93287 c -3.72921,0.0927 -6.36578,0.67569 -7.89046,1.72784 -3.14179,2.17144 -4.57481,5.60299 -4.37719,10.25184 0.22568,5.31303 2.0219,10.36956 5.4139,15.20498 3.39181,4.83551 8.21079,8.68707 14.51384,11.51892 6.5938,2.96254 12.68233,3.86853 18.19989,2.76454 5.51735,-1.10423 9.30888,-3.75782 11.46133,-7.94805 2.1522,-4.19033 3.06431,-10.47874 2.70695,-18.89104 l -0.46076,-10.77019 c -8.00436,-0.33897 -16.33781,-1.28822 -25.05365,-2.70695 -5.9345,-0.87477 -10.78463,-1.24461 -14.51385,-1.15189 z" id="path4040" opacity="0.9" fill="#39ac39" color="#000000" stroke-width="16.52"/>
 <path inkscape:connector-curvature="0" d="m 513.3125,115.9375 c -2.10641,0.124 -4.18563,0.69204 -6.0625,1.65625 l -195.9375,101.1875 c -4.8811,2.52971 -8.16728,7.87756 -8.21875,13.375 l -3.25,297.09375 c -0.0694,5.5507 3.1632,11.01503 8.0625,13.625 4.89931,2.60997 11.24457,2.24797 15.8125,-0.90625 l 179.75,-123.78125 c 3.75454,-2.58077 6.23988,-6.92421 6.5625,-11.46875 l 19.375,-274.5 c 0.3072,-4.30696 -1.30827,-8.7104 -4.34375,-11.78125 -3.03548,-3.07085 -7.43977,-4.75729 -11.75,-4.5 z m -51.75,153.59375 c 0.68844,-10e-4 1.3525,0.0145 2,0.0625 10.35975,0.76779 17.21511,6.61198 20.46875,17.625 l -46.6875,32.1875 c -1.00361,-4.31649 -3.28395,-6.69607 -6.875,-7.125 -3.59131,-0.4286 -8.60498,1.23397 -15.03125,4.90625 -8.11335,4.63658 -14.91402,11.08529 -20.40625,19.4375 -5.49238,8.35248 -8.73114,18.10107 -9.6875,29.21875 -0.85241,9.90777 0.99316,16.01583 5.53125,18.3125 4.53793,2.29686 10.69452,1.25074 18.40625,-3.15625 6.42625,-3.67234 11.94894,-8.3347 16.59375,-13.9375 4.64461,-5.60265 8.34048,-12.23805 11.0625,-19.90625 L 483.09375,325.5 c -3.35797,10.62048 -8.24778,20.98689 -14.6875,31.03125 -6.44,10.04452 -14.34517,19.52132 -23.78125,28.4375 -9.43631,8.91619 -21.19243,17.37287 -35.25,25.40625 -13.57576,7.75806 -24.76167,12.99933 -33.59375,15.78125 -8.83216,2.78201 -16.2958,3.39498 -22.34375,1.78125 -6.04805,-1.61358 -10.61046,-4.95789 -13.6875,-10.03125 -3.07707,-5.07327 -4.11527,-13.56333 -3.09375,-25.4375 1.06703,-12.40344 4.19859,-23.99789 9.40625,-34.8125 3.81398,-7.93247 8.78967,-15.93805 14.90625,-24 6.11654,-8.0618 12.3048,-14.99365 18.53125,-20.78125 9.87796,-9.16854 22.27739,-18.02394 37.21875,-26.5625 19.58022,-11.18927 34.51711,-16.75999 44.84375,-16.78125 z" id="path4042" opacity="0.6" fill="#39ac39" color="#000000" stroke-width="30.447"/>
 <path inkscape:connector-curvature="0" d="m 272.6875,47.03125 c -1.89621,0.04667 -3.78298,0.451737 -5.53125,1.1875 l -202.125,85.84375 c -5.657996,2.38678 -9.517002,8.48871 -9.28125,14.625 0.235752,6.13629 4.550556,11.89812 10.375,13.84375 l 247.34375,83.15625 c 3.89056,1.30341 8.30802,0.94493 11.9375,-0.96875 l 193.75,-102 c 5.348,-2.81749 8.66578,-9.05111 8.03125,-15.0625 -0.63454,-6.01138 -5.18161,-11.42368 -11,-13.0625 l -238.96875,-67 c -1.47077,-0.413427 -3.00403,-0.603764 -4.53125,-0.5625 z M 315.15625,111.25 c 1.15078,0.006 2.32109,0.0344 3.5,0.0625 18.86252,0.45021 38.78788,4.31343 59.78125,11.625 13.99549,4.87452 24.58241,9.95902 31.75,15.25 7.16739,5.29109 10.30533,10.24932 9.40625,14.875 -0.89938,4.62574 -5.10346,8.65915 -12.625,12.0625 -6.43858,2.91334 -14.19466,4.92797 -23.25,6.0625 -6.92715,0.81575 -16.75211,0.90371 -29.46875,0.28125 l 18.96875,6.59375 -34.40625,15.5625 -176.875,-61.59375 37.09375,-16.78125 61.3125,21.34375 c -1.47713,-3.45369 -1.18319,-6.68091 0.90625,-9.6875 2.08953,-3.00655 5.96881,-5.7843 11.625,-8.34375 10.94404,-4.95185 25.0195,-7.39822 42.28125,-7.3125 z m -1.9375,22.78125 c -6.32685,-0.0472 -11.3358,0.76246 -14.96875,2.40625 -4.99434,2.25988 -6.60004,4.94153 -4.8125,8.09375 1.7877,3.15232 7.72702,6.49831 17.78125,10 11.01949,3.83794 20.54816,5.89813 28.59375,6.21875 8.04562,0.32074 14.43383,-0.56778 19.1875,-2.71875 4.39262,-1.98755 5.63768,-4.51985 3.75,-7.5625 -1.88772,-3.04253 -8.56044,-6.55645 -20.0625,-10.5625 -10.13472,-3.52971 -19.02349,-5.44888 -26.6875,-5.78125 -0.958,-0.0415 -1.87741,-0.087 -2.78125,-0.0937 z" id="path4044" opacity="0.75" fill="#39ac39" color="#000000" stroke-width="30.447"/>
 <path d="m 258.63901,460.15561 c -12.80876,-5.77797 -24.30369,-11.42215 -25.54431,-12.54265 -1.24061,-1.12049 -3.58968,-6.83547 -5.22015,-12.69995 -3.12871,-11.25335 -4.58315,-12.32341 -10.81616,-7.95763 -15.69669,10.99438 -55.82726,-1.47486 -80.91548,-25.14182 -8.89271,-8.38892 -14.1452,-15.30055 -19.21542,-25.2851 -6.25216,-12.31208 -7.03307,-15.34121 -7.51198,-29.13873 -0.62504,-18.00788 2.64847,-25.4889 13.0562,-29.83753 8.61128,-3.59802 12.05248,-3.32878 47.49131,3.71572 17.24256,3.42746 35.19465,6.23472 39.89354,6.23836 9.3375,0.007 8.82375,1.10492 5.93936,-12.69021 -1.60956,-7.698 -8.22612,-14.33304 -19.71157,-19.76663 -14.4291,-6.82617 -22.72906,-6.82271 -28.23078,0.0118 l -4.16057,5.16839 -27.1128,-15.42297 -27.11281,-15.42296 2.33135,-7.7465 c 4.79121,-15.91999 12.64108,-21.90461 28.7317,-21.90461 10.93386,0 35.37061,8.32261 59.57579,20.29017 23.95496,11.84384 34.33336,18.83046 46.16797,31.07976 19.44642,20.12781 26.61281,41.74399 28.42275,85.7323 1.99626,48.51653 4.42538,77.08449 7.23049,85.035 1.47805,4.18923 2.68736,7.91852 2.68736,8.28728 0,1.47702 -3.6177,0.084 -25.97579,-10.00152 z m -43.8083,-66.46816 c 1.76507,-2.33999 3.67794,-6.5982 4.25084,-9.46268 1.57354,-7.86773 1.24845,-22.33536 -0.52654,-23.43236 -0.86249,-0.53305 -11.33155,-1.92459 -23.26457,-3.09231 -20.19738,-1.97643 -21.94563,-1.89759 -25.30335,1.14111 -6.86088,6.20901 -4.00399,21.82253 5.64067,30.82756 11.08739,10.35207 32.7506,12.57276 39.20295,4.01868 l 0,0 z" id="path3007" inkscape:connector-curvature="0" fill="#ffffff" color="#000000" stroke="none"/>
 <path d="m 252.36899,162.5618 c -44.83064,-15.69079 -82.71947,-29.01755 -84.1974,-29.61502 -1.70475,-0.68916 3.40086,-3.93727 13.96531,-8.88451 l 16.65246,-7.79821 30.63986,10.67841 c 16.85193,5.87313 30.87163,10.67842 31.1549,10.67842 0.28327,0 0.76764,-2.60986 1.07639,-5.79968 0.45184,-4.66809 1.97217,-6.57548 7.79216,-9.77594 29.95912,-16.47476 90.12479,-10.58043 132.7144,13.00181 20.09711,11.12795 21.32201,20.56111 3.71645,28.6212 -11.02647,5.04809 -34.38358,8.75887 -44.43874,7.06006 -4.54453,-0.76779 -6.96405,-0.49946 -6.96405,0.77233 0,1.07189 1.00768,1.98526 2.23929,2.0297 1.23161,0.0444 4.65773,1.12371 7.61359,2.39838 l 5.37431,2.31759 -14.13591,6.55878 c -7.77475,3.60733 -15.8362,6.49727 -17.91434,6.42209 -2.07814,-0.0752 -40.45805,-12.97462 -85.28868,-28.66541 z m 106.26023,-3.71189 c 8.77706,-4.61988 7.61365,-9.01143 -3.92419,-14.81284 -20.35936,-10.23701 -50.98359,-13.59201 -59.59102,-6.52842 -5.11632,4.19865 -3.48284,8.08214 5.64947,13.4312 14.27836,8.36325 48.19621,12.99971 57.86574,7.91006 l 0,0 z" id="path3009" inkscape:connector-curvature="0" fill="#ffffff" color="#000000" stroke="none"/>
 <path d="m 350.77349,425.71974 c -2.53162,-1.06344 -6.46834,-4.65588 -8.74826,-7.9832 -3.81659,-5.56995 -4.07728,-7.43379 -3.28749,-23.50444 0.6904,-14.04837 1.89278,-19.90867 6.16115,-30.02879 14.38253,-34.10037 43.85249,-62.89448 85.71778,-83.75195 17.81381,-8.87492 30.42881,-11.44589 38.86538,-7.92086 6.50246,2.7169 13.08735,10.26141 11.91105,13.64685 -0.33895,0.97552 -10.37198,8.5407 -22.29562,16.8115 -19.9982,13.87171 -21.84004,14.7805 -23.75168,11.71948 -6.48019,-10.37644 -33.74241,6.71238 -44.58931,27.94998 -3.3687,6.59572 -4.8382,12.73286 -5.43655,22.70498 -0.7296,12.15965 -0.40107,14.08495 2.98045,17.46648 4.77583,4.77583 9.56692,4.79743 19.29731,0.087 9.03022,-4.37145 24.6032,-20.74936 27.594,-29.02026 1.83538,-5.07566 4.67278,-7.0078 22.60333,-15.39189 11.27747,-5.27319 21.00284,-9.08927 21.61194,-8.48017 1.68496,1.68496 -11.20871,25.30952 -20.16754,36.95219 -14.73911,19.15457 -39.16813,37.5572 -67.96395,51.1979 -17.49194,8.28601 -32.21075,11.028 -40.50199,7.54517 l 0,10e-6 z" id="path3011" inkscape:connector-curvature="0" fill="#ffffff" color="#000000" stroke="none"/>
</svg>
