<?xml version="1.0" encoding="UTF-8" standalone="no"?>
<svg xmlns="http://www.w3.org/2000/svg" xmlns:sodipodi="http://sodipodi.sourceforge.net/DTD/sodipodi-0.dtd" xmlns:inkscape="http://www.inkscape.org/namespaces/inkscape" version="1.0" width="580" height="580">
 <metadata id="metadata2975"/>
 <path d="M 35.844853,509.62169 L 540.74919,509.62892 M 53.553541,473.50382 L 522.78718,473.53056 M 71.615504,437.55222 L 504.7284,437.49148" id="path2161" fill-rule="evenodd" stroke-width="18.02" fill="#734a08" stroke="#734a08"/>
 <path d="M 71.756306,212.26887 L 504.86921,212.20813 M 108.42188,217.53947 L 108.45313,440.35593 M 180.51255,217.53947 L 180.5438,440.35593 M 252.60322,217.53947 L 252.63447,440.35593 M 324.69389,217.53947 L 324.72515,440.35593 M 396.78457,217.53947 L 396.81582,440.35593 M 468.87524,217.53947 L 468.90649,440.35593" id="path3157" fill-rule="evenodd" stroke-width="36.05" fill="#734a08" stroke="#734a08"/>
 <path d="M 71.974325,176.86692 L 71.974325,143.90333 L 286.16213,53.07543 L 502.5664,141.90804 L 502.5664,174.87293 L 284.19038,90.539858 L 71.974325,176.86692 z M 130.54849,175.34844 L 287.82283,112.43779 L 440.79415,177.03805 L 378.83496,176.75646 L 287.30556,144.35008 L 196.03681,174.70177 L 130.54849,175.34844 z" id="polygon6239" fill="#734a08" fill-rule="evenodd" stroke-width="18.02"/>
</svg>
