<?xml version="1.0" encoding="UTF-8" standalone="no"?>
<svg xmlns="http://www.w3.org/2000/svg" xmlns:sodipodi="http://sodipodi.sourceforge.net/DTD/sodipodi-0.dtd" xmlns:inkscape="http://www.inkscape.org/namespaces/inkscape" width="580" height="580" version="1.1">
 <metadata id="metadata7"/>
 <g inkscape:label="Ebene 1" inkscape:groupmode="layer" id="layer1" transform="translate(0,-472.36218)">
  <path d="m 227.92078,675.4022 c 0,23.62174 0,47.24349 0,70.86523 107.95433,0.24577 215.95069,-0.50756 323.87889,0.39258 12.64434,2.23959 16.84813,21.44126 5.82032,28.40039 -9.77132,6.40448 -21.88915,1.7557 -32.69922,3.20508 -98.99999,0 -197.99999,0 -296.99999,0 0,24.70443 0,49.40885 0,74.11328 C 159.25845,822.37192 90.595529,792.36642 21.932499,762.36118 90.595489,732.35651 159.25847,702.3518 227.92078,672.34556 c 0,1.01888 0,2.03776 0,3.05664 z" id="path2994-0" inkscape:connector-curvature="0" visibility="visible" shape-rendering="auto" mix-blend-mode="normal" color-interpolation-filters="linearRGB" isolation="auto" stroke-dasharray="none" stroke-opacity="1" white-space="normal" opacity="1" fill="#666666" solid-opacity="1" stroke-miterlimit="4" image-rendering="auto" fill-opacity="1" solid-color="#000000" stroke="#ffffff" display="inline" color="#000000" fill-rule="nonzero" stroke-linecap="round" stroke-linejoin="miter" stroke-width="8" color-rendering="auto" stroke-dashoffset="0" color-interpolation="sRGB"/>
 </g>
</svg>
