<?xml version="1.0" encoding="UTF-8" standalone="no"?>
<svg xmlns="http://www.w3.org/2000/svg" xmlns:sodipodi="http://sodipodi.sourceforge.net/DTD/sodipodi-0.dtd" xmlns:inkscape="http://www.inkscape.org/namespaces/inkscape" version="1.0" width="580" height="580">
 <metadata id="metadata10"/>
 <defs id="defs4">
  <marker viewBox="0 0 10 10" refY="5" refX="10" orient="auto" markerWidth="4" markerUnits="strokeWidth" markerHeight="3" id="ArrowStart">
   <path id="path2295" d="M 10 0 L 0 5 L 10 10 z"/>
  </marker>
  <marker viewBox="0 0 10 10" refY="5" orient="auto" markerWidth="4" markerUnits="strokeWidth" markerHeight="3" id="ArrowEnd">
   <path id="path2292" d="M 0 0 L 10 5 L 0 10 z"/>
  </marker>
 </defs>
 <path d="m 153.84894,122.5 c -2.57836,3e-4 -5.14976,1.05282 -6.97294,2.876 -1.82318,1.82318 -2.8757,4.39457 -2.876,6.97294 l 0,19.50795 30.68636,0 0,-29.35689 -20.83742,0 z m 58.11686,0 0,28.02741 36.41122,0 0,-28.02741 -36.41122,0 z m 74.12478,0 0,27.29485 36.41122,0 0,-26.48089 c -9.18438,-0.53981 -19.54018,-0.81378 -31.229,-0.81396 l -5.18222,0 z m 75.94263,6.51169 0,19.42656 36.41122,0 0,-2.84887 c -0.38851,-0.27824 -0.7736,-0.56915 -1.16668,-0.84109 -10.14636,-7.01861 -21.94375,-12.23893 -35.24454,-15.7366 z m 36.62828,18.47693 0,36.41122 31.17473,0 c -0.0353,-0.0725 -0.0731,-0.14461 -0.10853,-0.21705 -7.24718,-14.81918 -16.86105,-27.0281 -28.73285,-36.19417 l -2.33335,0 z m -149.6333,1.62793 0,36.08563 36.41122,0 0,-36.08563 -36.41122,0 z m 75.18293,0.13566 0,36.41122 36.41122,0 0,-36.41122 -36.41122,0 z m -148.87359,2.14343 0,36.41122 36.41122,0 0,-36.41122 -36.41122,0 z m 186.69568,33.45383 0,20.10485 c 0.19857,0.26956 0.40092,0.53791 0.5969,0.81396 3.31589,4.67103 5.80536,9.79943 7.43419,15.51954 l 28.38013,0 0,-36.43835 -36.41122,0 z M 144,188.26811 l 0,36.41122 30.68636,0 0,-36.41122 -30.68636,0 z m 290.66572,7.13573 0,24.93436 -36.00423,0 0,36.41122 36.41122,0 0,-35.40734 5.69773,0 c -1.10582,-8.97985 -3.13052,-17.64294 -6.10472,-25.93824 z m -259.32819,28.81424 0,36.41122 36.41122,0 0,-36.41122 -36.41122,0 z m 194.86243,33.48096 c -1.70812,6.44085 -4.44076,11.95588 -8.16675,16.74048 l 0,19.67074 36.41122,0 0,-36.41122 -28.24447,0 z m 64.46576,0.0543 0,23.63202 c 2.63748,-7.55241 4.5243,-15.44696 5.69774,-23.63202 l -5.69774,0 z M 144,261.09055 l 0,36.41122 30.68636,0 0,-36.41122 -30.68636,0 z m 254.66149,32.07009 0,36.41122 4.17833,0 c 2.38825,-2.05811 4.64505,-4.24176 6.75588,-6.53883 8.35597,-9.09331 15.09426,-19.08531 20.21339,-29.87239 l -31.1476,0 z m -76.15969,0.70543 c -4.76466,0.73499 -9.91174,1.28058 -15.51953,1.57366 l 15.51953,0 0,-1.57366 z m 1.70932,1.05815 0,36.41122 36.41122,0 0,-36.41122 -36.41122,0 z m -112.24532,0.78683 0,0.48838 36.41122,0 0,-0.48838 -36.41122,0 z m 37.06239,0 0,35.4616 36.41122,0 0,-35.4616 -36.41122,0 z m -73.69066,1.32947 0,36.41122 36.41122,0 0,-36.41122 -36.41122,0 z m 186.69568,33.48096 0,19.96919 c 14.20334,-4.088 26.37132,-9.84352 36.41122,-17.39165 l 0,-2.57754 -36.41122,0 z m -75.94263,1.32947 0,26.53515 9.41483,0 c 9.45843,3e-5 18.46191,-0.35268 26.99639,-1.05815 l 0,-25.477 -36.41122,0 z m -74.12478,0.7597 0,25.77545 36.41122,0 0,-25.77545 -36.41122,0 z M 144,333.91299 l 0,36.43835 30.68636,0 0,-36.43835 -30.68636,0 z m 31.33753,35.9771 0,36.41122 36.41122,0 0,-36.41122 -36.41122,0 z M 144,406.76256 l 0,36.41122 30.68636,0 0,-36.41122 -30.68636,0 z m 31.33753,35.94997 0,36.41122 36.41122,0 0,-36.41122 -36.41122,0 z M 144,479.585 l 0,17.06606 c 3e-4,2.57836 1.05282,5.14976 2.876,6.97294 1.82318,1.82318 4.39458,2.8757 6.97294,2.876 l 20.83742,0 0,-26.915 -30.68636,0 z" id="text2419" inkscape:connector-curvature="0" opacity="0.75" color="#000000" stroke-width="22.688" fill="#0092da"/>
</svg>
