<?xml version="1.0" encoding="UTF-8" standalone="no"?>
<svg xmlns="http://www.w3.org/2000/svg" xmlns:sodipodi="http://sodipodi.sourceforge.net/DTD/sodipodi-0.dtd" xmlns:inkscape="http://www.inkscape.org/namespaces/inkscape" version="1.0" width="580" height="580">
 <metadata id="metadata2975"/>
 <defs id="defs4">
  <symbol viewBox="244.5 110 489 219.9" id="symbol-university">
   <path id="path4460" d="M79,43l57,119c0,0,21-96,104-96s124,106,124,106l43-133l82-17L0,17L79,43z"/>
   <path id="path4462" d="M94,176l-21,39" stroke-width="20" stroke="#000000" fill="none"/>
   <path id="path4464" d="M300,19c0,10.5-22.6,19-50.5,19S199,29.5,199,19s22.6-19,50.5-19S300,8.5,300,19z"/>
   <path id="path4466" d="M112,216l-16-38L64,88c0,0-9-8-4-35s16-24,16-24" stroke-width="20" stroke="#000000" ill="none"/>
  </symbol>
 </defs>
 <path d="m 220.80517,294.38208 42.82055,-105.21207 43.88541,0 42.82055,105.21207 -129.52651,0 z m 139.57822,-105.21207 71.3622,0 0,-39.12578 -282.8512,0 0,39.12578 70.8459,0 -42.82055,105.21207 -104.679629,0 0,39.10965 88.819569,0 -49.16134,122.66942 48.11261,0 49.69378,-122.66942 160.71421,0 49.69378,122.66942 48.64505,0 -49.69378,-122.66942 89.352,0 0,-39.10965 -105.21205,0 -42.82055,-105.21207 z" id="flowRoot3192" inkscape:connector-curvature="0" stroke-width="10" stroke-linecap="round" fill="#734a08" stroke="#734a08"/>
</svg>
