<?xml version="1.0" encoding="UTF-8" standalone="no"?>
<svg xmlns="http://www.w3.org/2000/svg" xmlns:sodipodi="http://sodipodi.sourceforge.net/DTD/sodipodi-0.dtd" xmlns:inkscape="http://www.inkscape.org/namespaces/inkscape" version="1.0" width="580" height="580">
 <metadata id="metadata2975"/>
 <defs id="defs4">
  <symbol viewBox="244.5 110 489 219.9" id="symbol-university">
   <path id="path4460" d="M79,43l57,119c0,0,21-96,104-96s124,106,124,106l43-133l82-17L0,17L79,43z"/>
   <path id="path4462" d="M94,176l-21,39" stroke-width="20" stroke="#000000" fill="none"/>
   <path id="path4464" d="M300,19c0,10.5-22.6,19-50.5,19S199,29.5,199,19s22.6-19,50.5-19S300,8.5,300,19z"/>
   <path id="path4466" d="M112,216l-16-38L64,88c0,0-9-8-4-35s16-24,16-24" stroke-width="20" stroke="#000000" ill="none"/>
  </symbol>
  <marker viewBox="0 0 10 10" refY="5" refX="10" orient="auto" markerWidth="4" markerUnits="strokeWidth" markerHeight="3" id="ArrowStart">
   <path id="path3634" d="M 10 0 L 0 5 L 10 10 z"/>
  </marker>
  <marker viewBox="0 0 10 10" refY="5" orient="auto" markerWidth="4" markerUnits="strokeWidth" markerHeight="3" id="ArrowEnd">
   <path id="path3631" d="M 0 0 L 10 5 L 0 10 z"/>
  </marker>
  <marker viewBox="0 0 10 10" refY="5" refX="10" orient="auto" markerWidth="4" markerUnits="strokeWidth" markerHeight="3" id="marker2611">
   <path id="path1325" d="M 10 0 L 0 5 L 10 10 z"/>
  </marker>
  <marker viewBox="0 0 10 10" refY="5" orient="auto" markerWidth="4" markerUnits="strokeWidth" markerHeight="3" id="marker2608">
   <path id="path1322" d="M 0 0 L 10 5 L 0 10 z"/>
  </marker>
 </defs>
 <path inkscape:connector-curvature="0" id="path3526-1" d="m 109.53419,508.69651 44.83749,-108.55394 67.26813,-38.79503 1.63527,-147.12758 18.51055,-40.23748 L 289.0426,62.097177 M 471.71115,508.69651 437.81131,426.6232 329.70819,251.33902 333.85002,160.40114 292.20274,62.097177" sodipodi:nodetypes="ccccccccccc" fill="none" stroke="#ffffff" stroke-linecap="round" stroke-width="30.787"/>
 <path id="path3526" d="M 109.53419,508.69651 L 154.37168,400.14257 L 221.63981,361.34754 L 223.27508,214.21996 L 241.78563,173.98248 L 289.0426,62.097177 M 471.71115,508.69651 L 437.81131,426.6232 L 329.70819,251.33902 L 333.85002,160.40114 L 292.20274,62.097177" sodipodi:nodetypes="ccccccccccc" opacity="0.75" fill="none" fill-rule="evenodd" stroke="#39ac39" stroke-linecap="round" stroke-width="30.787"/>
 <path d="M 73.249534,149.81914 L 73.249534,423.82196 L 510.99983,423.82196 L 510.99983,149.81914 L 73.249534,149.81914 z M 143.22544,175.69932 C 155.48659,175.69942 165.32433,176.41043 172.76156,177.78385 C 180.19859,179.15747 186.40374,182.02353 191.36194,186.37851 C 194.84589,189.39366 197.59367,193.64677 199.60383,199.17429 C 201.61375,204.70197 202.61825,209.99166 202.61838,215.01668 L 202.61838,262.12694 C 202.61825,267.15205 202.94382,271.11311 203.58046,273.96064 C 204.21686,276.80821 205.60535,280.44218 207.74951,284.86431 L 169.36218,284.86431 C 167.82105,282.11721 166.81655,280.01918 166.34763,278.57867 C 165.87853,277.13804 165.4055,274.86202 164.93658,271.7799 C 159.57642,276.93901 154.22685,280.63292 148.93383,282.84392 C 141.69764,285.79195 133.30825,287.26953 123.72712,287.26953 C 110.99685,287.26953 101.33578,284.3144 94.736179,278.41832 C 88.136549,272.52217 84.826659,265.25415 84.826667,256.61097 C 84.826657,248.50385 87.221095,241.82567 91.978192,236.59953 C 96.735261,231.37349 105.51008,227.50436 118.30735,224.95826 C 133.65058,221.87626 143.57595,219.71979 148.13209,218.4802 C 152.6881,217.24074 157.53539,215.61572 162.62756,213.60561 C 162.62748,208.58061 161.59376,205.06483 159.51681,203.05471 C 157.43967,201.04476 153.77502,200.04025 148.549,200.04016 C 141.84883,200.04024 136.82629,201.10317 133.47627,203.24713 C 130.86318,204.92224 128.73448,208.08465 127.12649,212.70767 L 88.033629,208.57068 C 89.507642,201.73664 91.634918,196.35934 94.415483,192.43967 C 97.196016,188.5202 101.21547,185.12267 106.44159,182.24153 C 110.19362,180.1646 115.33299,178.5702 121.89915,177.43109 C 128.46522,176.29217 135.58725,175.69943 143.22544,175.69932 z M 424.18737,175.69932 C 441.6076,175.69943 454.87206,178.83264 464.01784,185.06365 C 473.16339,191.29486 479.60649,200.39383 483.29168,212.38697 L 444.77607,217.51811 C 443.56996,212.96209 441.38426,209.53538 438.2018,207.22376 C 435.01915,204.91231 430.73397,203.76033 425.37395,203.76024 C 418.60677,203.76032 413.14181,206.18253 408.9543,211.04004 C 404.76667,215.8977 402.66861,223.25482 402.66866,233.10394 C 402.6686,241.88114 404.73603,248.52728 408.89017,253.08331 C 413.04419,257.63943 418.36451,259.94624 424.7967,259.94621 C 430.1567,259.94624 434.64636,258.55631 438.298,255.80923 C 441.94948,253.0622 444.69871,248.83688 446.50782,243.14174 L 485.37621,247.56734 C 483.23204,255.67452 479.71627,262.70749 474.8253,268.63708 C 469.9341,274.56667 463.70117,279.17598 456.09664,282.45909 C 448.49191,285.74209 438.83084,287.36574 427.10571,287.36574 C 415.78245,287.36574 406.35789,286.30139 398.8203,284.19084 C 391.28263,282.08031 384.78112,278.68426 379.35405,273.96064 C 373.92691,269.23708 369.67237,263.68164 366.59033,257.31651 C 363.50826,250.95142 361.9723,242.50074 361.97232,231.9815 C 361.97232,220.99336 363.83241,211.86519 367.58449,204.56198 C 370.33151,199.20198 374.08382,194.38532 378.84093,190.13066 C 383.598,185.87615 388.50369,182.71519 393.52881,180.63805 C 401.50191,177.35509 411.72509,175.69943 424.18737,175.69932 z M 162.62756,234.19431 C 156.99938,236.20439 151.11837,237.97688 145.02134,239.51786 C 136.71313,241.72896 131.45408,243.91607 129.24309,246.06007 C 126.96498,248.27115 125.84366,250.78241 125.84371,253.59643 C 125.84367,256.81252 126.96642,259.44205 129.21102,261.48555 C 131.4555,263.52911 134.73332,264.56426 139.08846,264.56424 C 143.64448,264.56426 147.90045,263.44006 151.8201,261.229 C 155.73958,259.01799 158.51659,256.33004 160.1582,253.14746 C 161.79965,249.96493 162.62748,245.82865 162.62756,240.73651 L 162.62756,234.19431 z M 240.42845,255.13577 L 281.73413,255.13577 L 281.73413,306.1906 C 285.82115,301.90263 290.45969,298.68179 295.65234,296.53765 C 300.84488,294.3937 306.57553,293.3308 312.87373,293.33068 C 325.87187,293.3308 336.62649,297.99854 345.13576,307.34511 C 353.64479,316.69185 357.89934,330.10523 357.89947,347.59248 C 357.89934,359.25073 355.94874,369.53376 352.0628,378.41138 C 348.1766,387.28906 342.79929,393.90588 335.93178,398.29455 C 329.06404,402.68312 321.4412,404.90089 313.06614,404.90089 C 305.89693,404.90089 299.33843,403.33287 293.3754,400.2508 C 288.88626,397.83885 284.01261,393.31853 278.71958,386.68535 L 278.71958,402.4636 L 240.42845,402.4636 L 240.42845,255.13577 z M 300.30244,323.89303 C 294.74129,323.8931 290.22243,325.92991 286.70491,330.0504 C 283.18732,334.17104 281.41338,340.43603 281.41343,348.81113 C 281.41338,357.99034 283.15809,364.6379 286.60871,368.75843 C 290.05922,372.87903 294.39995,374.9479 299.69311,374.94787 C 304.58412,374.9479 308.6912,372.90824 312.00784,368.85464 C 315.32432,364.8011 317.01062,357.97544 317.01071,348.39422 C 317.01063,339.95211 315.38559,333.77905 312.13612,329.82592 C 308.88648,325.87292 304.92545,323.89311 300.30244,323.89303 z" id="rect3530" fill="#39ac39" stroke-linejoin="round" stroke-linecap="round" stroke-width="20"/>
 <rect y="149.82" x="73.26" height="273.99" width="437.75" id="rect3544" fill="none" stroke="#39ac39" stroke-linejoin="round" stroke-linecap="round" stroke-width="20.525"/>
 <path d="m 110.3851,285.20345 c -19.260268,-5.30237 -28.330494,-20.1638 -23.291223,-38.1623 2.025881,-7.23574 9.140207,-14.38984 17.297063,-17.39377 3.3948,-1.25021 14.82075,-4.18828 25.391,-6.52906 10.57025,-2.34077 22.45686,-5.29059 26.41469,-6.55516 l 7.19604,-2.29921 -0.70666,-4.27042 c -0.38867,-2.34873 -1.10927,-5.03827 -1.60133,-5.97675 -1.59534,-3.04266 -6.81394,-4.35962 -15.68,-3.95699 -9.3518,0.42469 -12.72504,2.09915 -16.5053,8.19318 l -2.11592,3.41098 -7.93469,-0.58588 c -4.36408,-0.32223 -12.83744,-1.13167 -18.8297,-1.79876 l -10.895015,-1.21289 0.710273,-3.28757 c 2.013461,-9.31952 9.498813,-18.32995 18.819822,-22.65419 8.9704,-4.16159 15.16589,-4.96643 38.23052,-4.96643 20.11647,0 22.9357,0.22593 29.81699,2.3895 10.36561,3.25908 15.91592,7.7119 20.15755,16.17169 4.75911,9.49186 5.55112,16.4533 5.56028,48.87231 0.007,25.71409 0.20054,28.79563 2.12338,33.85466 1.16345,3.0611 2.11562,5.68465 2.11591,5.83012 2.9e-4,0.14547 -8.25859,0.26449 -18.35306,0.26449 l -18.3536,0 -1.68632,-3.96734 c -0.92747,-2.18204 -1.98402,-5.03853 -2.34788,-6.34775 -0.86267,-3.10401 -1.26698,-3.02681 -6.67854,1.27527 -2.51495,1.99933 -6.61661,4.62463 -9.11481,5.83398 -9.9951,4.83855 -29.36595,6.72414 -39.73947,3.86829 z m 41.39996,-23.64088 c 5.89507,-3.14324 8.97914,-7.05588 10.39266,-13.18474 1.30946,-5.6777 1.42085,-14.61883 0.18212,-14.61883 -1.71115,0 -28.1426,8.6834 -31.1634,10.23796 -4.323,2.2247 -6.54629,8.09954 -5.00812,13.23349 2.4322,8.11797 14.62598,10.18171 25.59674,4.33212 z" id="path3821" inkscape:connector-curvature="0" fill="#ffffff" color="#000000" stroke-width="16.52"/>
 <path d="m 406.08446,284.94493 c -20.3064,-3.6519 -35.98948,-16.86675 -41.38795,-34.87422 -2.67807,-8.93312 -2.45476,-28.1977 0.43125,-37.20441 5.5856,-17.43169 20.67372,-30.7798 39.24069,-34.71533 9.15355,-1.94022 30.41032,-1.90581 39.70987,0.0643 10.69744,2.26624 19.91516,6.96539 26.08163,13.29626 4.95691,5.08908 11.56853,16.09224 11.56853,19.25255 0,1.00378 -4.20494,1.93083 -14.90007,3.28494 -8.19503,1.03758 -16.41531,2.13239 -18.26728,2.43293 -3.07894,0.49964 -3.52505,0.19835 -5.21089,-3.51927 -2.41789,-5.33195 -5.83271,-7.66144 -13.2233,-9.02056 -16.20169,-2.97946 -26.40842,6.51169 -27.49492,25.56731 -0.70699,12.39953 1.36089,19.51902 7.20214,24.79624 5.33445,4.81935 8.13166,5.90857 15.09793,5.87907 9.21929,-0.039 15.93065,-4.20265 20.43926,-12.68011 l 1.97348,-3.7107 18.72797,2.12376 18.72798,2.12376 -2.51257,6.17322 c -6.75059,16.58578 -20.23373,27.46681 -38.32435,30.92811 -9.87479,1.88936 -26.76406,1.80115 -37.8794,-0.19784 z" id="path3823" inkscape:connector-curvature="0" fill="#ffffff" color="#000000" stroke-width="16.52"/>
 <path d="m 301.34658,402.67106 c -7.34078,-2.42683 -11.31496,-5.00084 -17.11395,-11.08445 l -5.63215,-5.90858 0,8.14817 0,8.14818 -19.04325,0 -19.04325,0 0,-72.99913 0,-72.99912 20.10121,0 20.1012,0 0,25.391 c 0,13.96505 0.22839,25.391 0.50752,25.391 0.27914,0 3.0166,-1.91542 6.08326,-4.25648 16.52584,-12.61567 40.89326,-10.77978 55.88342,4.21037 9.36596,9.36596 13.60061,22.03565 13.66112,40.87276 0.0838,26.08167 -9.61876,44.99076 -27.23853,53.08468 -7.22264,3.31784 -21.27521,4.31292 -28.2666,2.0016 l 0,0 z m 7.70872,-30.15861 c 4.59267,-3.27027 7.51154,-10.05508 8.28846,-19.26622 0.96976,-11.49736 -0.90899,-19.25728 -5.97807,-24.69159 -3.97539,-4.26183 -4.17881,-4.3402 -11.26563,-4.3402 -8.81168,0 -12.70719,2.32861 -16.38348,9.7935 -2.06408,4.19123 -2.47121,6.67372 -2.47121,15.06852 0,13.8552 3.41046,21.18397 11.63755,25.00803 4.33359,2.01431 12.21121,1.24856 16.17238,-1.57204 z" id="path3825" inkscape:connector-curvature="0" fill="#ffffff" color="#000000" stroke-width="16.52"/>
</svg>
