<?xml version="1.0" encoding="UTF-8" standalone="no"?>
<svg xmlns:i="http://ns.adobe.com/AdobeIllustrator/10.0/" xmlns="http://www.w3.org/2000/svg" xmlns:sodipodi="http://sodipodi.sourceforge.net/DTD/sodipodi-0.dtd" xmlns:inkscape="http://www.inkscape.org/namespaces/inkscape" width="580" height="580" version="1.1">
 <defs id="defs4">
  <pattern y="0" x="0" height="6" width="6" patternUnits="userSpaceOnUse" id="EMFhbasepattern"/>
 </defs>
 <metadata id="metadata7"/>
 <g inkscape:label="Ebene 1" inkscape:groupmode="layer" id="layer1" transform="translate(0,-472.36218)">
  <path d="m 342.66801,943.26509 c -2.44495,-4.56443 -5.83845,-8.16927 -10.61633,-9.3315 -9.89493,-2.40698 -28.93191,-0.73836 -34.77263,-0.0671 -5.84071,0.67125 12.15684,14.56589 19.28795,18.59332 4.98924,-2.03271 23.01898,-5.15969 26.10101,-9.19469 z" id="path3944-8" inkscape:connector-curvature="0" sodipodi:nodetypes="csscc" fill="#ffffff" stroke="#ac39ac" stroke-width="12"/>
  <path d="m 43.961847,960.7486 c 0,0 76.579263,3.03119 131.003763,2.2707 53.94805,-0.75384 139.13247,-9.3843 167.95252,-22.77607 0.88236,2.56964 4.02072,5.00405 5.11213,7.98972 1.29095,3.53156 4.92285,17.72631 2.74957,23.09622 -2.1733,5.36991 -37.74443,14.0539 -64.91055,18.34983 -27.16611,4.29593 -63.60167,4.32851 -92.39775,4.32851 -28.79608,0 -91.27532,3.34385 -115.181503,2.58725 -23.949408,-0.75801 -31.157353,-2.74958 -35.796185,-6.44392 -0.725973,-6.65234 1.468005,-29.40224 1.468005,-29.40224 z" id="path3934-1" inkscape:connector-curvature="0" sodipodi:nodetypes="cscssssscc" fill="#ffffff" stroke="#ac39ac" stroke-linejoin="round" stroke-width="12"/>
  <path d="m 57.673909,825.8641 c 0,0 2.444951,28.19205 -2.988272,65.51293 -5.031569,34.56192 -7.606513,32.75647 -8.421496,44.57028 -0.814984,11.8138 0.814983,31.14548 0.814983,31.14548 0,0 122.247526,2.68496 155.933506,0.80549 33.68598,-1.87947 114.64101,-15.57275 114.64101,-15.57275 0,0 -0.54332,-10.20282 -11.68143,-15.84123 -11.1381,-5.63841 -32.871,-7.51788 -45.63908,-12.08231 -12.76807,-4.56442 -51.0723,-13.69328 -70.90356,-38.66337 -19.83126,-24.97009 -37.57707,-54.33959 -46.1824,-58.26355 -7.95287,1.06187 -24.72116,2.14797 -45.910734,1.61098 C 76.14687,828.54906 57.673909,825.8641 57.673909,825.8641 Z" id="path3015" inkscape:connector-curvature="0" sodipodi:nodetypes="csscscssscsc" fill="#ac39ac"/>
  <path d="m 342.66801,943.26509 c -2.44495,-4.56443 -5.83845,-8.16927 -10.61633,-9.3315 -9.89493,-2.40698 -28.93191,-0.73836 -34.77263,-0.0671 -5.84071,0.67125 12.15684,14.56589 19.28795,18.59332 4.98924,-2.03271 23.01898,-5.15969 26.10101,-9.19469 z" id="path3944" inkscape:connector-curvature="0" sodipodi:nodetypes="csscc" fill="#ac39ac" stroke="#ac39ac" fill-opacity="0.251" stroke-width="12"/>
  <path d="m 43.961847,960.7486 c 0,0 76.579263,3.03119 131.003763,2.2707 53.94805,-0.75384 139.13247,-9.3843 167.95252,-22.77607 0.88236,2.56964 4.02072,5.00405 5.11213,7.98972 1.29095,3.53156 4.92285,17.72631 2.74957,23.09622 -2.1733,5.36991 -37.74443,14.0539 -64.91055,18.34983 -27.16611,4.29593 -63.60167,4.32851 -92.39775,4.32851 -28.79608,0 -91.27532,3.34385 -115.181503,2.58725 -23.949408,-0.75801 -31.157353,-2.74958 -35.796185,-6.44392 -0.725973,-6.65234 1.468005,-29.40224 1.468005,-29.40224 z" id="path3934" inkscape:connector-curvature="0" sodipodi:nodetypes="cscssssscc" fill="#ac39ac" stroke="#ac39ac" stroke-linejoin="round" fill-opacity="0.251" stroke-width="12"/>
  <path d="m 266.30968,956.21873 c 2.85245,11.41105 6.11238,26.84955 6.92736,35.44141" id="path3936" inkscape:connector-curvature="0" fill="none" stroke="#ac39ac" stroke-width="12"/>
  <path d="m 118.98282,827.3279 c 13.5522,21.56868 15.18802,45.06328 34.60063,66.63196 19.4126,21.56869 35.16246,34.81261 61.90058,41.62377 26.73812,6.81117 69.42004,14.73515 69.42004,14.73515" id="path3942" inkscape:connector-curvature="0" sodipodi:nodetypes="cssc" fill="none" stroke="#ffffff" stroke-linecap="round" stroke-width="12"/>
  <ellipse ry="3.872" rx="4.962" cy="652.42" cx="541.15" id="path3017-0-38" transform="matrix(0.86028259,0.50981748,-0.49024638,0.8715839,0,0)" fill="#ffffff" stroke-width="7.667"/>
  <ellipse ry="3.872" rx="4.962" cy="665.02" cx="562.53" id="path3017-0-38-5" transform="matrix(0.86028259,0.50981748,-0.49024638,0.8715839,0,0)" fill="#ffffff" stroke-width="7.667"/>
  <ellipse ry="3.872" rx="4.962" cy="675.19" cx="584.12" id="path3017-0-38-8" transform="matrix(0.86028259,0.50981748,-0.49024638,0.8715839,0,0)" fill="#ffffff" stroke-width="7.667"/>
  <ellipse ry="3.951" rx="4.984" cy="673.19" cx="599.74" id="path3017-0-38-6" transform="matrix(0.85319548,0.5215913,-0.47871479,0.87797047,0,0)" fill="#ffffff" stroke-width="7.762"/>
  <ellipse ry="3.945" rx="4.992" cy="776.63" cx="491.09" id="path3017-0-38-6-2" transform="matrix(0.93036229,0.36664152,-0.31766006,0.94820466,0,0)" fill="#ffffff" stroke-width="7.762"/>
  <ellipse ry="3.277" rx="4.775" cy="808.6" cx="563.01" id="path3017-0-38-6-2-3" transform="matrix(0.95025886,0.31146122,-0.3736276,0.92757879,0,0)" fill="#ffffff" stroke-width="6.919"/>
  <ellipse ry="3.277" rx="4.775" cy="807.18" cx="586.47" id="path3017-0-38-6-2-3-9" transform="matrix(0.95025886,0.31146122,-0.3736276,0.92757879,0,0)" fill="#ffffff" stroke-width="6.919"/>
  <ellipse ry="2.993" rx="4.771" cy="895.94" cx="484.54" id="path3017-0-38-6-2-3-9-1" transform="matrix(0.99139741,0.13088614,-0.2244311,0.97448996,0,0)" fill="#ffffff" stroke-width="6.609"/>
  <ellipse ry="25.902" rx="27.11" cy="890.99" cx="102.57" id="path3017" fill="#ffffff" stroke="#d8d8d8"/>
  <ellipse ry="25.902" rx="27.11" cy="890.99" cx="102.57" id="path3017-4" fill="#ac39ac" stroke="#d8d8d8" fill-opacity="0.251"/>
  <path d="m 118.98282,827.3279 c 13.5522,21.56868 15.18802,45.06328 34.60063,66.63196 19.4126,21.56869 35.16246,34.81261 61.90058,41.62377 26.73812,6.81117 69.42004,14.73515 69.42004,14.73515" id="path3942-8" inkscape:connector-curvature="0" sodipodi:nodetypes="cssc" stroke-opacity="0.251" fill="none" stroke="#ac39ac" stroke-linecap="round" stroke-width="12"/>
  <g id="g4407" transform="matrix(0.62383916,0,0,0.62383916,-197.19687,272.23602)">
   <circle id="circle2441" r="50.55" cy="726.29" cx="459.59" fill="#ac39ac"/>
   <path inkscape:connector-curvature="0" id="path2443" d="m 573.113,432.47818 c -53.502,-53.501 -127.868,-64.464 -173.241,-20.506 -49.437,47.896 -32.996,119.739 20.506,173.241 41.901,41.901 91.901,63.271 137.089,45.097 18.605,6.366 50.105,19.328 80.532,41.943 -1.016,4.799 0.331,9.996 4.058,13.723 l 90.51,90.51 c 5.857,5.858 15.355,5.858 21.213,10e-4 l 10.606,-10.606 c 5.857,-5.858 5.857,-15.355 0,-21.214 l -90.51,-90.509 c -3.727,-3.727 -8.923,-5.072 -13.722,-4.058 -22.709,-30.555 -35.684,-62.186 -42.022,-80.761 17.662,-44.908 -3.277,-95.118 -45.019,-136.861 z m 58.886,211.623 c -19.857,-10.854 -38.697,-19.558 -55.349,-26.429 5.108,-4.233 10.157,-8.811 15.132,-13.786 4.976,-4.975 9.55,-10.033 13.776,-15.159 6.876,16.658 15.582,35.506 26.441,55.374 z" fill="#ac39ac"/>
  </g>
  <g id="g4386" transform="matrix(0.4329065,0,0,0.4329065,-36.69742,417.61189)">
   <path inkscape:connector-curvature="0" id="path10544-7" stroke-miterlimit="10" i:knockout="Off" d="m 947.85553,278.64542 c -7.88534,3.30084 -13.57013,6.78506 -19.25491,11.18619 -5.68479,3.85098 -9.71915,8.61887 -13.57013,13.57013 -4.40113,4.5845 -8.06873,9.53577 -11.00281,14.85379 l 36.30927,-9.35239 0,0 c 2.38394,-10.0859 4.95126,-20.17181 7.51858,-30.25772 z" fill="#ffffff" fill-rule="evenodd" stroke="#000000" stroke-width="0.424"/>
   <path inkscape:connector-curvature="0" id="path10546-4" stroke-miterlimit="10" i:knockout="Off" d="m 986.73213,262.69135 81.42077,-19.80506 56.1143,46.39518 -14.8537,59.23179 -62.3493,28.97406 -78.85347,-20.90534 -11.73633,-48.22898 30.25773,-45.66165 z" fill="#ffffff" fill-rule="evenodd" stroke="#000000" stroke-width="0.424"/>
   <path inkscape:connector-curvature="0" id="path10548-0" stroke-miterlimit="10" i:knockout="Off" d="m 1141.8717,292.94907 -9.8974,56.11433 61.794,61.79911 66.0169,-9.90253 20.3552,-74.08558 -72.2518,-59.23179 -66.0169,25.30646 z" fill="#ffffff" fill-rule="evenodd" stroke="#000000" stroke-width="0.424"/>
   <path inkscape:connector-curvature="0" id="path10550-9" stroke-miterlimit="10" i:knockout="Off" d="m 1206.6049,431.76785 62.3493,-11.18619 37.0428,62.34925 -51.1631,84.53825 -64.183,-6.05154 -23.4676,-53.73548 39.4216,-75.91429 z" fill="#ffffff" fill-rule="evenodd" stroke="#000000" stroke-width="0.424"/>
   <path inkscape:connector-curvature="0" id="path10552-4" stroke-miterlimit="10" i:knockout="Off" d="m 1300.4956,608.17956 -29.7076,-34.47547 51.8966,-87.66081 17.9712,-9.89743 c 0.1834,21.27209 -1.467,39.23826 -4.9512,57.39798 -4.2178,17.96617 -10.4578,34.29209 -16.6876,47.49546 -6.2298,12.46476 -11.9197,21.2721 -18.5214,27.14027 z" fill="#ffffff" fill-rule="evenodd" stroke="#000000" stroke-width="0.424"/>
   <path inkscape:connector-curvature="0" id="path10554-8" stroke-miterlimit="10" i:knockout="Off" d="m 991.86677,544.54664 73.53543,-54.28052 82.7045,21.63886 26.4067,62.17096 -45.6616,59.96022 -103.0597,-21.63886 -33.92533,-67.85066 z" fill="#ffffff" fill-rule="evenodd" stroke="#000000" stroke-width="0.424"/>
   <path inkscape:connector-curvature="0" id="path10556-8" stroke-miterlimit="10" i:knockout="Off" d="m 1150.1238,716.18538 c -15.2205,2.21074 -30.6244,3.85098 -46.9453,4.21774 -16.8709,0.36676 -34.8422,0 -51.163,-1.82871 -17.4211,-2.56732 -33.5586,-7.15182 -47.6789,-11.74142 -14.12025,-4.94617 -24.93968,-10.44758 -34.47545,-17.23264 l -1.28366,-24.76142 48.77911,-37.0377 109.2997,19.26001 31.3529,48.04561 -7.8854,21.07853 z" fill="#ffffff" fill-rule="evenodd" stroke="#000000" stroke-width="0.424"/>
   <path inkscape:connector-curvature="0" id="path10558-2" stroke-miterlimit="10" i:knockout="Off" d="m 892.10797,444.2377 67.30051,-68.4008 72.80192,20.3552 18.5214,78.85347 -75.91938,58.68674 -66.01686,-1.8389 -16.68759,-87.65571 z" fill="#ffffff" fill-rule="evenodd" stroke="#000000" stroke-width="0.424"/>
   <path inkscape:connector-curvature="0" id="path10560-4" stroke-miterlimit="10" i:knockout="Off" d="m 867.35165,583.79509 c -5.86817,2.37885 -11.36957,-3.86117 -17.23774,-16.69269 -6.4183,-13.93689 -15.03717,-41.99405 -17.97125,-62.89939 -2.75071,-21.09381 -2.56733,-41.6273 1.28366,-62.34925 l 38.32645,12.28647 20.3552,85.09348 -24.75632,44.56138 z" fill="#ffffff" fill-rule="evenodd" stroke="#000000" stroke-width="0.424"/>
   <path id="path10456" d="m 1088.3255,221.59896 c -148.49719,0 -269.03127,114.77592 -269.03127,256.1875 0,141.40648 120.52899,256.15625 269.03127,256.15625 148.5023,0 269.0313,-114.74978 269.0312,-256.15625 0,-141.41157 -120.534,-256.1875 -269.0312,-256.1875 z m -20.1875,21.28125 56.125,46.40625 -14.8438,59.21875 -62.3437,28.96875 -78.87502,-20.90625 -11.71875,-48.21875 30.25,-45.65625 81.40627,-19.8125 z m 139.75,24.75 72.25,59.25 -20.3438,74.09375 -66.0312,9.875 -61.7813,-61.78125 9.875,-56.125 66.0313,-25.3125 z m -260.03127,11 c -2.56732,10.08591 -5.14731,20.19535 -7.53125,30.28125 l -36.3125,9.34375 c 2.93408,-5.31802 6.63012,-10.25925 11.03125,-14.84375 3.85098,-4.95126 7.8777,-9.74277 13.5625,-13.59375 5.68478,-4.40113 11.36467,-7.88665 19.25,-11.1875 z m 11.5625,97.21875 72.78127,20.34375 18.5312,78.84375 -75.90622,58.6875 -66.03125,-1.84375 -16.6875,-87.65625 67.3125,-68.375 z m 309.53127,44.71875 37.0312,62.375 -51.1562,84.53125 -64.1875,-6.0625 -23.4688,-53.71875 39.4375,-75.9375 62.3438,-11.1875 z m -435.53127,21.28125 38.34375,12.28125 20.34375,85.09375 -24.75,44.5625 c -5.86816,2.37884 -11.38184,-3.85598 -17.25,-16.6875 -6.4183,-13.9369 -15.03467,-42.00091 -17.96875,-62.90625 -2.7507,-21.09382 -2.56973,-41.6218 1.28125,-62.34375 z m 507.24997,34.28125 c 0.1834,21.2721 -1.4845,39.24653 -4.9687,57.40625 -4.2178,17.96615 -10.4577,34.29663 -16.6875,47.5 -6.2298,12.46475 -11.9296,21.28808 -18.5313,27.15625 l -29.6875,-34.5 51.875,-87.65625 18,-9.90625 z m -275.2812,14.125 82.7187,21.65625 26.4063,62.15625 -45.6563,59.96875 -103.0625,-21.625 -33.93747,-67.875 73.53127,-54.28125 z m -48.0313,137.53125 109.3125,19.28125 31.3438,48.03125 -7.875,21.09375 c -15.2206,2.21073 -30.6479,3.85199 -46.9688,4.21875 -16.8709,0.36678 -34.8354,-0.015 -51.1562,-1.84375 -17.4211,-2.56733 -33.5673,-7.1604 -47.6875,-11.75 -14.12029,-4.94615 -24.933,-10.43369 -34.46877,-17.21875 l -1.28125,-24.75 48.78122,-37.0625 z" inkscape:connector-curvature="0" fill="#ac39ac" fill-rule="evenodd" stroke-width="0.183" stroke-miterlimit="10"/>
   <path inkscape:connector-curvature="0" id="path10544" stroke-miterlimit="10" i:knockout="Off" d="m 947.85553,278.64542 c -7.88534,3.30084 -13.57013,6.78506 -19.25491,11.18619 -5.68479,3.85098 -9.71915,8.61887 -13.57013,13.57013 -4.40113,4.5845 -8.06873,9.53577 -11.00281,14.85379 l 36.30927,-9.35239 0,0 c 2.38394,-10.0859 4.95126,-20.17181 7.51858,-30.25772 z" opacity="0.202" fill="#ac39ac" fill-rule="evenodd" stroke="#000000" stroke-width="0.424"/>
   <path inkscape:connector-curvature="0" id="path10546" stroke-miterlimit="10" i:knockout="Off" d="m 986.73213,262.69134 81.42077,-19.80505 56.1143,46.39518 -14.8537,59.23179 -62.3493,28.97406 -78.85347,-20.90534 -11.73633,-48.22898 30.25773,-45.66166 z" opacity="0.202" fill="#ac39ac" fill-rule="evenodd" stroke="#000000" stroke-width="0.424"/>
   <path inkscape:connector-curvature="0" id="path10548" stroke-miterlimit="10" i:knockout="Off" d="m 1141.8717,292.94907 -9.8974,56.11433 61.794,61.79911 66.0169,-9.90253 20.3552,-74.08558 -72.2518,-59.23179 -66.0169,25.30646 z" opacity="0.202" fill="#ac39ac" fill-rule="evenodd" stroke="#000000" stroke-width="0.424"/>
   <path inkscape:connector-curvature="0" id="path10550" stroke-miterlimit="10" i:knockout="Off" d="m 1206.6049,431.76785 62.3493,-11.18619 37.0428,62.34925 -51.1631,84.53825 -64.183,-6.05154 -23.4676,-53.73548 39.4216,-75.91429 z" opacity="0.202" fill="#ac39ac" fill-rule="evenodd" stroke="#000000" stroke-width="0.424"/>
   <path inkscape:connector-curvature="0" id="path10552" stroke-miterlimit="10" i:knockout="Off" d="m 1300.4956,608.17956 -29.7076,-34.47547 51.8966,-87.66081 17.9712,-9.89743 c 0.1834,21.27209 -1.467,39.23826 -4.9512,57.39798 -4.2178,17.96617 -10.4578,34.29209 -16.6876,47.49546 -6.2298,12.46476 -11.9197,21.2721 -18.5214,27.14027 z" opacity="0.202" fill="#ac39ac" fill-rule="evenodd" stroke="#000000" stroke-width="0.424"/>
   <path inkscape:connector-curvature="0" id="path10554" stroke-miterlimit="10" i:knockout="Off" d="m 991.86677,544.54664 73.53543,-54.28052 82.7045,21.63886 26.4067,62.17096 -45.6616,59.96022 -103.0597,-21.63886 -33.92533,-67.85066 z" opacity="0.202" fill="#ac39ac" fill-rule="evenodd" stroke="#000000" stroke-width="0.424"/>
   <path inkscape:connector-curvature="0" id="path10556" stroke-miterlimit="10" i:knockout="Off" d="m 1150.1238,716.18538 c -15.2205,2.21074 -30.6244,3.85098 -46.9453,4.21774 -16.8709,0.36676 -34.8422,0 -51.163,-1.82871 -17.4211,-2.56732 -33.5586,-7.15182 -47.6789,-11.74142 -14.12025,-4.94617 -24.93968,-10.44758 -34.47545,-17.23264 l -1.28366,-24.76142 48.77911,-37.0377 109.2997,19.26001 31.3529,48.04561 -7.8854,21.07853 z" opacity="0.202" fill="#ac39ac" fill-rule="evenodd" stroke="#000000" stroke-width="0.424"/>
   <path inkscape:connector-curvature="0" id="path10558" stroke-miterlimit="10" i:knockout="Off" d="m 892.10797,444.2377 67.30051,-68.4008 72.80192,20.3552 18.5214,78.85347 -75.91938,58.68674 -66.01686,-1.8389 -16.68759,-87.65571 z" opacity="0.202" fill="#ac39ac" fill-rule="evenodd" stroke="#000000" stroke-width="0.424"/>
   <path inkscape:connector-curvature="0" id="path10560" stroke-miterlimit="10" i:knockout="Off" d="m 867.35165,583.79509 c -5.86817,2.37885 -11.36957,-3.86117 -17.23774,-16.69269 -6.4183,-13.93689 -15.03717,-41.99405 -17.97125,-62.89939 -2.75071,-21.09381 -2.56733,-41.6273 1.28366,-62.34925 l 38.32645,12.28647 20.3552,85.09348 -24.75632,44.56138 z" opacity="0.202" fill="#ac39ac" fill-rule="evenodd" stroke="#000000" stroke-width="0.424"/>
  </g>
  <circle id="path3267-1" cx="299.59" cy="1585.62" r="273.26" fill="#ffffff"/>
  <g id="g3807" transform="matrix(0.48937829,0,0,0.48937829,330.46626,508.15504)" fill="#ac39ac">
   <path sodipodi:nodetypes="ccccc" inkscape:connector-curvature="0" id="path3805" d="m 169.39419,872.34127 c 90.67355,-197.59162 -11.33419,23.24607 79.33936,-174.34554 22.66838,0 34.00258,0 45.33677,23.24607 -45.33677,92.98429 -34.00258,69.73821 -79.33936,174.34554 -22.66838,0 -34.00258,-11.62304 -45.33677,-23.24607 z"/>
   <path sodipodi:nodetypes="ccascccccsc" inkscape:connector-curvature="0" id="path3803" d="m 156.81677,690.33379 c 16.11496,9.95959 24,12 48,0 0,-49.47727 27.44227,-72.86472 60,-84 39.51404,-13.51446 113.81583,-19.65749 120,36 12,108 -72,276 -84,300 -48,36 -92.07145,1.89574 -92.07145,-34.10426 -36,-12 -44.07145,-22.10426 -48,-24 0,131.99997 120,155.99997 176.07145,94.10426 27.92855,-34.10426 99.92855,-202.10426 96,-348 -8.07145,-58.10426 -31.61177,-78.33609 -108,-84 -108.36715,-8.03504 -180,84 -168,144 z"/>
  </g>
  <ellipse ry="3.872" rx="4.962" cy="652.42" cx="541.15" id="path3017-0-38-4" transform="matrix(0.86028259,0.50981748,-0.49024638,0.8715839,0,0)" fill="#ac39ac" fill-opacity="0.251" stroke-width="7.667"/>
  <ellipse ry="3.872" rx="4.962" cy="665.02" cx="562.53" id="path3017-0-38-5-4" transform="matrix(0.86028259,0.50981748,-0.49024638,0.8715839,0,0)" fill="#ac39ac" fill-opacity="0.251" stroke-width="7.667"/>
  <ellipse ry="3.872" rx="4.962" cy="675.19" cx="584.12" id="path3017-0-38-8-8" transform="matrix(0.86028259,0.50981748,-0.49024638,0.8715839,0,0)" fill="#ac39ac" fill-opacity="0.251" stroke-width="7.667"/>
  <ellipse ry="3.951" rx="4.984" cy="673.19" cx="599.74" id="path3017-0-38-6-0" transform="matrix(0.85319548,0.5215913,-0.47871479,0.87797047,0,0)" fill="#ac39ac" fill-opacity="0.251" stroke-width="7.762"/>
  <ellipse ry="3.945" rx="4.992" cy="776.63" cx="491.09" id="path3017-0-38-6-2-9" transform="matrix(0.93036229,0.36664152,-0.31766006,0.94820466,0,0)" fill="#ac39ac" fill-opacity="0.251" stroke-width="7.762"/>
  <ellipse ry="3.277" rx="4.775" cy="808.6" cx="563.01" id="path3017-0-38-6-2-3-5" transform="matrix(0.95025886,0.31146122,-0.3736276,0.92757879,0,0)" fill="#ac39ac" fill-opacity="0.251" stroke-width="6.919"/>
  <ellipse ry="3.277" rx="4.775" cy="807.18" cx="586.47" id="path3017-0-38-6-2-3-9-3" transform="matrix(0.95025886,0.31146122,-0.3736276,0.92757879,0,0)" fill="#ac39ac" fill-opacity="0.251" stroke-width="6.919"/>
  <ellipse ry="2.993" rx="4.771" cy="895.94" cx="484.54" id="path3017-0-38-6-2-3-9-1-3" transform="matrix(0.99139741,0.13088614,-0.2244311,0.97448996,0,0)" fill="#ac39ac" fill-opacity="0.251" stroke-width="6.609"/>
 </g>
</svg>
