<?xml version="1.0" encoding="UTF-8" standalone="no"?>
<svg xmlns="http://www.w3.org/2000/svg" xmlns:sodipodi="http://sodipodi.sourceforge.net/DTD/sodipodi-0.dtd" xmlns:inkscape="http://www.inkscape.org/namespaces/inkscape" version="1.0" width="580" height="580">
 <metadata id="metadata2975"/>
 <path inkscape:connector-curvature="0" id="path8448-1" d="m 454.93025,189.87027 -16.16896,-2.2584 -32.15618,69.87649 0.59472,0.99439 z m -98.62833,-18.27468 -12.91403,-1.17342 -4.92699,78.55632 1.71919,0.99439 z m -217.84102,18.27468 16.16896,-2.2584 32.15618,69.87649 -0.59472,0.99439 z m 98.62833,-18.27468 12.91403,-1.17342 4.92699,78.55632 -1.71919,0.99439 z M 296.40625,248 c -58.15272,0.73744 -116.76511,6.184 -172.6875,22.34375 65.9861,16.22062 134.61121,19.43848 202.40286,17.50329 49.43696,-1.96006 99.20082,-6.84765 146.84714,-20.22204 C 415.55493,252.49212 355.69862,247.78689 296.40625,248 z" fill="#ffffff" stroke="#ffffff" stroke-linejoin="round" stroke-linecap="round" stroke-width="10"/>
 <path d="m 515.17299,377.03118 c -20.79972,36.33327 -112.22974,63.68581 -221.89963,63.68581 -109.6294,0 -201.055428,-27.31618 -221.899622,-63.62941 -1.65365,4.05018 -2.593567,8.39759 -2.593567,13.0869 0,15.63105 10.372889,27.69444 23.092722,36.44025 12.719837,8.74584 29.252907,15.58444 49.178017,21.37905 39.85024,11.5892 93.24163,18.44575 152.22245,18.44575 58.98082,0 112.32234,-6.85655 152.17258,-18.44575 19.92509,-5.79461 36.50806,-12.63321 49.22788,-21.37905 12.71985,-8.74581 23.14261,-20.8092 23.14261,-36.44025 0,-4.71397 -0.97353,-9.07516 -2.64344,-13.1433 z" id="path8348" inkscape:connector-curvature="0" color="#000000" stroke-width="20" fill="#39ac39" stroke="#39ac39"/>
 <path d="M 53.011285,235.60069 80.898961,398.67962" id="path8386" inkscape:connector-curvature="0" sodipodi:nodetypes="cc" fill="#39ac39" stroke="#39ac39" stroke-linejoin="round" stroke-linecap="round" stroke-width="27.495"/>
 <path sodipodi:nodetypes="cc" inkscape:connector-curvature="0" id="path8390" d="M 534.81537,235.60069 504.92769,398.67962" fill="#39ac39" stroke="#39ac39" stroke-linejoin="round" stroke-linecap="round" stroke-width="27.495"/>
 <path d="m 380.16282,401.68557 0,69.53157 c 0,7.7333 -9.97321,13.95902 -22.36146,13.95902 l -119.34969,0 c -12.38825,0 -22.36144,-6.22572 -22.36144,-13.95902 l 0,-69.53157 c 15.10064,-75.61835 164.69789,-65.07936 164.07259,0 z" id="rect8396" inkscape:connector-curvature="0" sodipodi:nodetypes="csssscc" fill="#39ac39" stroke-width="1.833"/>
 <path d="m 293.26086,151.21526 c -67.73755,0 -129.02076,7.64529 -174.78745,20.56796 -22.883345,6.46133 -41.873216,14.08314 -56.481532,23.83526 -14.608315,9.75211 -26.550681,23.17075 -26.550681,40.60029 0,17.42953 11.942366,30.84818 26.550681,40.60029 14.608316,9.75211 33.598187,17.42748 56.481532,23.88882 45.76669,12.92266 107.0499,20.56796 174.78745,20.56796 67.73753,0 129.02075,-7.6453 174.78744,-20.56796 22.88334,-6.46134 41.92773,-14.13671 56.53604,-23.88882 14.60833,-9.75211 26.55068,-23.17076 26.55068,-40.60029 0,-17.42954 -11.94235,-30.84818 -26.55068,-40.60029 -14.60831,-9.75212 -33.6527,-17.37393 -56.53604,-23.83526 -45.76669,-12.92267 -107.04991,-20.56796 -174.78744,-20.56796 z m 0,34.27992 c 65.02777,0 123.95371,7.58484 165.19212,19.2289 20.6192,5.82203 36.78382,12.79314 46.50457,19.28246 9.72078,6.48932 11.28541,10.89799 11.28541,12.21223 0,1.31424 -1.56463,5.77647 -11.28541,12.26578 -9.72075,6.48932 -25.88537,13.46044 -46.50457,19.28247 -41.23841,11.64406 -100.16435,19.22889 -165.19212,19.22889 -65.02778,0 -123.8992,-7.58483 -165.13761,-19.22889 -20.61921,-5.82203 -36.838335,-12.79315 -46.559104,-19.28247 -9.720766,-6.48931 -11.230883,-10.95154 -11.230883,-12.26578 0,-1.31424 1.510117,-5.72291 11.230883,-12.21223 9.720769,-6.48932 25.939894,-13.46043 46.559104,-19.28246 41.23841,-11.64406 100.10983,-19.2289 165.13761,-19.2289 z" id="path8399" inkscape:connector-curvature="0" color="#000000" stroke-width="20" fill="#39ac39" stroke="#39ac39"/>
 <path id="path8448" d="m 454.93025,189.87027 -16.16896,-2.2584 -32.15618,69.87649 0.59472,0.99439 z m -98.62833,-18.27468 -12.91403,-1.17342 -4.92699,78.55632 1.71919,0.99439 z m -217.84102,18.27468 16.16896,-2.2584 32.15618,69.87649 -0.59472,0.99439 z m 98.62833,-18.27468 12.91403,-1.17342 4.92699,78.55632 -1.71919,0.99439 z M 296.40625,248 c -58.15272,0.73744 -116.76511,6.184 -172.6875,22.34375 65.9861,16.22062 134.61121,19.43848 202.40286,17.50329 49.43696,-1.96006 99.20082,-6.84765 146.84714,-20.22204 C 415.55493,252.49212 355.69862,247.78689 296.40625,248 z" opacity="0.5" fill="#39ac39" stroke="#39ac39" stroke-linejoin="round" stroke-linecap="round" stroke-width="10"/>
</svg>
