<?xml version="1.0" encoding="UTF-8" standalone="no"?>
<svg xmlns="http://www.w3.org/2000/svg" xmlns:sodipodi="http://sodipodi.sourceforge.net/DTD/sodipodi-0.dtd" xmlns:inkscape="http://www.inkscape.org/namespaces/inkscape" version="1.0" width="580" height="580">
 <metadata id="metadata2975"/>
 <defs id="defs4">
  <symbol viewBox="244.5 110 489 219.9" id="symbol-university">
   <path id="path4460" d="M79,43l57,119c0,0,21-96,104-96s124,106,124,106l43-133l82-17L0,17L79,43z"/>
   <path id="path4462" d="M94,176l-21,39" stroke-width="20" stroke="#000000" fill="none"/>
   <path id="path4464" d="M300,19c0,10.5-22.6,19-50.5,19S199,29.5,199,19s22.6-19,50.5-19S300,8.5,300,19z"/>
   <path id="path4466" d="M112,216l-16-38L64,88c0,0-9-8-4-35s16-24,16-24" stroke-width="20" stroke="#000000" ill="none"/>
  </symbol>
 </defs>
 <path d="m 284.86224,470.51461 28.64945,0 0,-361.02922 -28.64945,0 0,361.02922 z m -86.14509,-295.08766 -57.82669,0 c -9.01663,2.8e-4 -17.12598,3.24402 -24.32812,9.73124 -5.40998,5.03633 -9.01109,10.62216 -10.80334,16.75754 l -24.872399,82.68261 c -0.714763,1.80347 -1.072131,3.42535 -1.07209,4.86561 -4.1e-5,8.29096 4.139855,12.43636 12.419703,12.4362 5.772718,1.6e-4 9.560756,-3.24359 11.364126,-9.73124 l 22.69524,-75.6728 12.41971,0 -37.29211,134.57157 36.22002,0 0,104.85006 c -9e-5,9.36838 4.50267,14.05257 13.50829,14.05258 9.0054,-1e-5 13.50817,-4.6842 13.50829,-14.05258 l 0,-105.37785 13.52478,0 0,105.92214 c -1.3e-4,9.00552 4.50262,13.50828 13.50829,13.50829 9.00536,-1e-5 13.50813,-4.50277 13.50828,-13.50829 l 0,-105.39435 36.20354,0 -37.81991,-134.57157 12.96401,0 22.69524,75.6728 c 1.8031,6.48765 5.58564,9.7314 11.34763,9.73124 8.29057,1.6e-4 12.43597,-4.14524 12.43619,-12.4362 -2.2e-4,-1.80312 -0.35758,-3.425 -1.07208,-4.86561 l -24.87241,-82.68261 c -1.8035,-5.77252 -5.9434,-11.35836 -12.4197,-16.75754 -7.92811,-6.48722 -16.57627,-9.73096 -25.94449,-9.73124 l 0,0 z m -27.56087,-5.9542 c 8.27967,2.8e-4 15.30319,-2.8806 21.07061,-8.64268 5.76713,-5.76146 8.65076,-12.60632 8.65092,-20.53457 -1.6e-4,-8.29048 -2.88379,-15.31677 -8.65092,-21.07888 -5.76742,-5.76143 -12.79094,-8.64231 -21.07061,-8.64265 -7.92806,3.4e-4 -14.77567,2.88122 -20.54283,8.64265 -5.76738,5.76211 -8.65101,12.7884 -8.65092,21.07888 -9e-5,7.92825 2.88354,14.77311 8.65092,20.53457 5.76716,5.76208 12.61477,8.64296 20.54283,8.64268 l 0,0 z m 252.81213,-0.52781 c 7.92751,2.9e-4 14.77512,-2.88335 20.54282,-8.65091 5.76683,-5.76696 8.65046,-12.61457 8.65091,-20.54282 -4.5e-4,-8.27949 -2.88408,-15.2123 -8.65091,-20.79848 -5.7677,-5.5855 -12.61531,-8.37842 -20.54282,-8.37876 -7.92836,3.4e-4 -14.77321,2.79326 -20.53459,8.37876 -5.76217,5.58618 -8.64305,12.51899 -8.64266,20.79848 -3.9e-4,7.92825 2.88049,14.77586 8.64266,20.54282 5.76138,5.76756 12.60623,8.6512 20.53459,8.65091 l 0,0 z m 38.38068,5.93773 -77.28917,0 c -10.44634,2.6e-4 -19.36389,3.69484 -26.75269,11.08371 -7.38949,7.38941 -11.08406,16.48839 -11.08372,27.29697 l 0,89.70889 c -3.4e-4,8.65381 3.96362,12.98063 11.89191,12.98049 7.56472,1.4e-4 11.34727,-4.32668 11.34763,-12.98049 l 0,-87.54822 14.05258,0 0,237.80525 c -3.8e-4,10.80883 5.40403,16.21324 16.21324,16.21326 10.80842,-2e-5 16.21283,-5.40443 16.21324,-16.21326 l 0,-137.82083 14.05258,0 0,137.82083 c -4.2e-4,10.80883 5.40399,16.21324 16.21324,16.21326 11.17125,-2e-5 16.75709,-5.40443 16.75754,-16.21326 l 0,-237.80525 13.5083,0 0,87.54822 c -4.8e-4,9.00567 3.78206,13.50843 11.34762,13.5083 7.57558,1.3e-4 11.36362,-4.50263 11.3641,-13.5083 l 0,-89.18109 c -4.8e-4,-10.44572 -3.51362,-19.54196 -10.53942,-27.28872 -7.02677,-7.74624 -16.12574,-11.6195 -27.29698,-11.61976 l 0,0 z" id="flowRoot3192" sodipodi:nodetypes="ccccccccccssccccccsccccsccccccssccccccssssssscccsccssscccccsccsccccsccccsccccsccccc" inkscape:connector-curvature="0" fill="#734a08"/>
</svg>
