<?xml version="1.0" encoding="UTF-8" standalone="no"?>
<svg xmlns="http://www.w3.org/2000/svg" xmlns:sodipodi="http://sodipodi.sourceforge.net/DTD/sodipodi-0.dtd" xmlns:inkscape="http://www.inkscape.org/namespaces/inkscape" version="1.0" width="580" height="580">
 <metadata id="metadata2975"/>
 <g id="g4245" transform="matrix(0.70194587,0,0,0.70194587,83.00087,85.487611)">
  <circle transform="matrix(0.91935484,0,0,0.91935484,29.263352,9.6518204)" id="path4809-1" cx="288.47" cy="119.68" r="95.13" fill="#ffffff"/>
  <circle id="path4813-7" transform="matrix(0.91935484,0,0,0.91935484,29.263352,181.65182)" cx="288.47" cy="119.68" r="95.13" fill="#ffffff"/>
  <circle transform="matrix(0.91935484,0,0,0.91935484,29.263352,351.65182)" id="path4815-4" cx="288.47" cy="119.68" r="95.13" fill="#ffffff"/>
  <circle transform="matrix(0.91935484,0,0,0.91935484,29.263356,9.6518182)" id="path4809" cx="288.47" cy="119.68" r="95.13" opacity="0.6" fill="#0092da"/>
  <circle id="path4813" transform="matrix(0.91935484,0,0,0.91935484,29.263356,181.65182)" cx="288.47" cy="119.68" r="95.13" opacity="0.2" fill="#0092da"/>
  <circle transform="matrix(0.91935484,0,0,0.91935484,29.263356,351.65182)" id="path4815" cx="288.47" cy="119.68" r="95.13" opacity="0.3" fill="#0092da"/>
  <path id="path4782" d="m 296.09195,17.829971 c -1.1544,-0.01235 -2.31572,5.1e-4 -3.47009,0.02965 -49.73086,-0.08599 -95.36898,42.46164 -97.87428,92.298409 -1.58709,25.61454 0.16862,51.29301 -0.50421,76.93512 0.21255,95.85547 -0.63683,191.72795 0.50421,287.57244 4.1478,45.80317 43.39248,85.55474 89.33253,89.62911 43.41739,4.86929 88.30297,-21.28198 103.92469,-62.28363 8.26021,-19.9307 8.13,-41.86942 7.41471,-63.08442 -0.27357,-110.32898 0.62412,-220.67496 -0.53386,-330.99303 -4.11589,-45.50134 -42.81102,-85.076596 -88.44276,-89.451162 -3.44097,-0.392503 -6.88777,-0.615452 -10.35094,-0.652495 z m -0.0297,24.972772 c 42.62651,0 77.20205,34.575538 77.20205,77.202047 0,42.62651 -34.57554,77.17239 -77.20205,77.17239 -42.62651,0 -77.17239,-34.54588 -77.17239,-77.17239 0,-42.626509 34.54588,-77.202047 77.17239,-77.202047 z m 0,170.835107 c 42.62651,0 77.20205,34.57554 77.20205,77.20205 0,42.62651 -34.57554,77.17239 -77.20205,77.17239 -42.62651,0 -77.17239,-34.54588 -77.17239,-77.17239 0,-42.62651 34.54588,-77.20205 77.17239,-77.20205 z m 0,170.83512 c 42.62651,0 77.20205,34.57553 77.20205,77.20204 0,42.62651 -34.57554,77.17239 -77.20205,77.17239 -42.62651,0 -77.17239,-34.54588 -77.17239,-77.17239 0,-42.62651 34.54588,-77.20204 77.17239,-77.20204 z" inkscape:connector-curvature="0" color="#000000" stroke-width="200" fill="#0092da"/>
  <path d="m 296.09195,17.829971 c -1.1544,-0.01235 -2.31572,5.1e-4 -3.47009,0.02965 -49.73086,-0.08599 -95.36898,42.46164 -97.87428,92.298409 -1.58709,25.61454 0.16862,51.29301 -0.50421,76.93512 0.21255,95.85547 -0.63683,191.72795 0.50421,287.57244 4.1478,45.80317 43.39248,85.55474 89.33253,89.62911 43.41739,4.86929 88.30297,-21.28198 103.92469,-62.28363 8.26021,-19.9307 8.13,-41.86942 7.41471,-63.08442 -0.27357,-110.32898 0.62412,-220.67496 -0.53386,-330.99303 -4.11589,-45.50134 -42.81102,-85.076596 -88.44276,-89.451162 -3.44097,-0.392503 -6.88777,-0.615452 -10.35094,-0.652495 z m -0.0297,24.972772 c 42.62651,0 77.20205,34.575538 77.20205,77.202047 0,42.62651 -34.57554,77.17239 -77.20205,77.17239 -42.62651,0 -77.17239,-34.54588 -77.17239,-77.17239 0,-42.626509 34.54588,-77.202047 77.17239,-77.202047 z m 0,170.835107 c 42.62651,0 77.20205,34.57554 77.20205,77.20205 0,42.62651 -34.57554,77.17239 -77.20205,77.17239 -42.62651,0 -77.17239,-34.54588 -77.17239,-77.17239 0,-42.62651 34.54588,-77.20205 77.17239,-77.20205 z m 0,170.83512 c 42.62651,0 77.20205,34.57553 77.20205,77.20204 0,42.62651 -34.57554,77.17239 -77.20205,77.17239 -42.62651,0 -77.17239,-34.54588 -77.17239,-77.17239 0,-42.62651 34.54588,-77.20204 77.17239,-77.20204 z" id="path8151" inkscape:connector-curvature="0" color="#000000" stroke-width="8" fill="#0092da"/>
 </g>
</svg>
