<svg height="128" viewBox="0 0 33.866666 33.866668" width="128" xmlns="http://www.w3.org/2000/svg"><path d="m8.2983077 3.5938399a.91362462.82553031 0 0 0 -.9135914.8254998.91362462.82553031 0 0 0 .9135914.8259345.91362462.82553031 0 0 0 .9135905-.8259345.91362462.82553031 0 0 0 -.9135905-.8254998zm-.609381 1.9263114c-.5583262 0-1.0149948.4130695-1.0149948.9175599v2.1095629c0 .3741493.2513689.69713.6089007.8393961v2.6462908c0 .403592.3655263.73344.8121881.73344h.4060934c.4466615 0 .8121881-.329848.8121881-.73344v-2.6462908c.357532-.1423577.6088998-.4652468.6088998-.8393961v-2.1095629c0-.5044904-.4566686-.9175599-1.0149932-.9175599z" style="fill:#fff;stroke-width:.79375;opacity:.3;stroke:#fff;stroke-linejoin:round;stroke-linecap:round"/><path d="m8.2983077 3.5938399a.91362462.82553031 0 0 0 -.9135914.8254998.91362462.82553031 0 0 0 .9135914.8259345.91362462.82553031 0 0 0 .9135905-.8259345.91362462.82553031 0 0 0 -.9135905-.8254998zm-.609381 1.9263114c-.5583262 0-1.0149948.4130695-1.0149948.9175599v2.1095629c0 .3741493.2513689.69713.6089007.8393961v2.6462908c0 .403592.3655263.73344.8121881.73344h.4060934c.4466615 0 .8121881-.329848.8121881-.73344v-2.6462908c.357532-.1423577.6088998-.4652468.6088998-.8393961v-2.1095629c0-.5044904-.4566686-.9175599-1.0149932-.9175599z" fill="#b02020" opacity=".2" stroke-width=".096495"/><g font-family="'Helvetica Neue', Helvetica, Arial-Unicode, Arial, Sans-serif" font-size=".545781" font-weight="bold" stroke-width=".109156"><text x="-6.929892" y="14.749611">Created by Jens Tärning</text><text x="-6.929892" y="15.295391">from the Noun Project</text></g></svg>