<svg height="128" viewBox="0 0 33.866666 33.866668" width="128" xmlns="http://www.w3.org/2000/svg"><path d="m8.2983799 2.2179557a1.187712 1.0731894 0 0 0 -1.1876688 1.0731498 1.187712 1.0731894 0 0 0 1.1876688 1.0737148 1.187712 1.0731894 0 0 0 1.1876677-1.0737148 1.187712 1.0731894 0 0 0 -1.1876677-1.0731498zm-.7921953 2.5042049c-.725824 0-1.3194932.5369903-1.3194932 1.1928278v2.7424318c0 .4863941.3267796.906269.7915709 1.0912149v3.4401779c0 .52467.4751842.953472 1.0558445.953472h.5279214c.58066 0 1.0558446-.428802 1.0558446-.953472v-3.4401779c.4647912-.185065.7915702-.6048208.7915702-1.0912149v-2.7424318c0-.6558375-.5936697-1.1928278-1.3194916-1.1928278z" style="opacity:.3;fill:#fff;stroke:#fff;stroke-width:1.03188;stroke-linecap:round;stroke-linejoin:round"/><path d="m8.2983799 2.2179557a1.187712 1.0731894 0 0 0 -1.1876688 1.0731498 1.187712 1.0731894 0 0 0 1.1876688 1.0737148 1.187712 1.0731894 0 0 0 1.1876677-1.0737148 1.187712 1.0731894 0 0 0 -1.1876677-1.0731498zm-.7921953 2.5042049c-.725824 0-1.3194932.5369903-1.3194932 1.1928278v2.7424318c0 .4863941.3267796.906269.7915709 1.0912149v3.4401779c0 .52467.4751842.953472 1.0558445.953472h.5279214c.58066 0 1.0558446-.428802 1.0558446-.953472v-3.4401779c.4647912-.185065.7915702-.6048208.7915702-1.0912149v-2.7424318c0-.6558375-.5936697-1.1928278-1.3194916-1.1928278z" fill="#b02020" opacity=".2" stroke-width=".125444"/><g font-family="'Helvetica Neue', Helvetica, Arial-Unicode, Arial, Sans-serif" font-size=".545781" font-weight="bold" stroke-width=".109156"><text x="-6.929892" y="14.749611">Created by Jens Tärning</text><text x="-6.929892" y="15.295391">from the Noun Project</text></g></svg>