<?xml version="1.0" encoding="UTF-8"?>
<svg width="128" height="128" version="1.1" viewBox="0 0 33.9 33.9" xmlns="http://www.w3.org/2000/svg"><path d="m24.6 22c-0.347 0.0734-0.126 0.587-0.533 0.632-0.957 0.617-1.51 1.83-1.31 2.95 0.122 0.573 0.681 0.0673 0.976-0.0756 0.487-0.239 0.966-0.519 1.49-0.667 0.329 0.911 0.637 1.83 0.934 2.75-0.349-0.242-0.755-0.0897-1.09 0.0997-0.325 0.157-0.706 0.403-1.06 0.174-0.37-0.138-0.715-0.449-1.13-0.397-0.251 0.0667-0.476 0.203-0.709 0.314-0.0027 0.343-0.0076 0.687-0.0078 1.03 0.347-0.136 0.71-0.455 1.1-0.276 0.388 0.134 0.729 0.445 1.15 0.451 0.473-0.102 0.86-0.479 1.35-0.507 0.487 0.0781 0.876 0.468 1.37 0.509 0.465-0.0964 0.847-0.44 1.32-0.514 0.298-0.0074 0.645 0.333 0.854 0.285 0.0179-0.324 0.0206-0.648 0.0291-0.972-0.367-0.16-0.761-0.472-1.17-0.255-0.401 0.13-0.772 0.498-1.22 0.41-0.234-0.224-0.262-0.657-0.411-0.966-0.269-0.771-0.522-1.55-0.768-2.33 0.581-0.233 1.21-0.33 1.82-0.451 0.407 0.0422 0.833-0.302 0.443-0.671-0.578-0.936-1.72-1.47-2.81-1.33-0.298 0.15-0.37-0.15-0.618-0.203z" fill="#fff" opacity=".4" stroke="#fff" stroke-linecap="round" stroke-linejoin="round" stroke-width=".774"/><path d="m24.6 22c-0.35 0.044-0.1 0.561-0.479 0.596-0.973 0.599-1.55 1.79-1.38 2.93 0.0295 0.526 0.548 0.292 0.81 0.0836 0.519-0.28 1.05-0.55 1.6-0.755 0.207 0.128 0.23 0.561 0.359 0.814 0.223 0.64 0.434 1.28 0.642 1.93-0.312-0.211-0.684-0.131-0.986 0.0519-0.339 0.135-0.695 0.441-1.07 0.26-0.386-0.141-0.732-0.438-1.16-0.446-0.279 0.0478-0.52 0.206-0.773 0.324-0.0027 0.343-0.0076 0.687-0.0078 1.03 0.347-0.136 0.709-0.455 1.1-0.276 0.368 0.135 0.691 0.397 1.08 0.455 0.491-0.0638 0.881-0.454 1.37-0.514 0.484 0.0575 0.87 0.421 1.34 0.513 0.498-0.0522 0.892-0.445 1.38-0.516 0.295-0.0116 0.65 0.342 0.854 0.285 0.0179-0.324 0.0207-0.648 0.0291-0.972-0.34-0.144-0.685-0.426-1.07-0.296-0.404 0.139-0.759 0.435-1.19 0.474-0.376-0.0365-0.312-0.574-0.482-0.841-0.288-0.82-0.559-1.65-0.819-2.47 0.537-0.22 1.12-0.308 1.69-0.428 0.276-0.037 0.916-0.0743 0.687-0.506-0.501-0.976-1.6-1.6-2.7-1.53-0.306 0.0578-0.571 0.0716-0.781-0.181l-0.0573-0.0074z" fill="#2f922e" opacity=".5"/></svg>
