<?xml version="1.0" encoding="UTF-8"?>
<svg width="580" height="580" version="1.1" xmlns="http://www.w3.org/2000/svg"><path d="m0 0h580v580h-580v-580z" fill="#e6d44a" opacity=".5"/><path d="m243 5.53c-35-11.1-32.2 44 2.43 32.5 29.7-1.99 16.4-26.3-2.43-32.5zm-78.9 31.7c-37.2-4.09 18.6 21.8 4.9 2.05zm107 25.6c8.53 14.3 30.4-3.64 0 0zm186 17.8c8.53 14.3 30.4-3.64 0 0zm-294 32.8c-28.4-10.9-25.3 33.7 2.15 23.4 24.3 3.15 10.9-20-2.15-23.4zm337 16.7c-28.4-10.9-25.3 33.7 2.15 23.4 24.3 3.15 10.9-20-2.15-23.4zm-452 20c-35-11.1-32.2 44 2.43 32.5 29.7-1.99 16.4-26.3-2.43-32.5zm506 21.7c-37.2-4.09 18.6 21.8 4.9 2.05zm-166 3.34c-37.2-4.09 18.6 21.8 4.9 2.05zm-208 46.8c8.53 14.3 30.4-3.64 0 0zm139 2.72c-26.2-9.05-24.1 26.5 0.926 19 22.4-1.1 11-13.5-0.926-19zm-207 42.9c-37.2-4.09 18.6 21.8 4.9 2.05zm357 27.3c-28.4-10.9-25.3 33.7 2.15 23.4 24.3 3.15 10.9-20-2.15-23.4zm-189 10.5c8.53 14.3 30.4-3.64 0 0zm-64.6 17.3c-28.4-10.9-25.3 33.7 2.15 23.4 24.3 3.15 10.9-20-2.15-23.4zm141 21.1c-35-11.1-32.2 44 2.43 32.5 29.7-1.99 16.4-26.3-2.43-32.5zm-267 11.1c-26.2-9.05-24.1 26.5 0.926 19 22.4-1.1 11-13.5-0.926-19zm38.6 75.1c-37.2-4.09 18.6 21.8 4.9 2.05zm282 16.1c-26.2-9.05-24.1 26.5 0.926 19 22.4-1.1 11-13.5-0.926-19zm-123 36.8c-28.4-10.9-25.3 33.7 2.15 23.4 24.3 3.15 10.9-20-2.15-23.4zm212 9.44c8.53 14.3 30.4-3.64 0 0zm-312 36.7c8.53 14.3 30.4-3.64 0 0zm337 13.9c-35-11.1-32.2 44 2.43 32.5 29.7-1.99 16.4-26.3-2.43-32.5zm-440 5.58c-28.4-10.9-25.3 33.7 2.15 23.4 24.3 3.15 10.9-20-2.15-23.4zm316 4.95c-37.2-4.09 18.6 21.8 4.9 2.05z" fill="#cbc5a9"/></svg>
