<?xml version="1.0" encoding="UTF-8"?>
<svg width="128" height="128" version="1.1" viewBox="0 0 33.9 33.9" xmlns="http://www.w3.org/2000/svg"><path d="m24.3 20.9c-0.451 0.0954-0.164 0.763-0.693 0.822-1.24 0.802-1.97 2.37-1.71 3.84 0.159 0.745 0.886 0.0875 1.27-0.0983 0.633-0.311 1.26-0.675 1.94-0.867 0.428 1.18 0.828 2.38 1.21 3.58-0.454-0.315-0.981-0.117-1.41 0.13-0.423 0.204-0.918 0.524-1.38 0.226-0.482-0.18-0.929-0.583-1.47-0.517-0.327 0.0868-0.619 0.264-0.922 0.408-0.0034 0.446-0.0099 0.893-0.0101 1.34 0.451-0.176 0.923-0.592 1.43-0.358 0.505 0.174 0.947 0.578 1.5 0.586 0.614-0.133 1.12-0.623 1.76-0.66 0.632 0.102 1.14 0.609 1.78 0.662 0.605-0.125 1.1-0.572 1.71-0.668 0.387-0.0096 0.839 0.434 1.11 0.371 0.0232-0.421 0.0268-0.842 0.0379-1.26-0.476-0.208-0.99-0.614-1.52-0.331-0.521 0.168-1 0.648-1.58 0.533-0.304-0.292-0.341-0.854-0.534-1.26-0.35-1-0.679-2.01-0.998-3.02 0.755-0.303 1.57-0.429 2.37-0.587 0.53 0.0549 1.08-0.392 0.576-0.872-0.752-1.22-2.24-1.91-3.65-1.73-0.388 0.195-0.481-0.195-0.803-0.264z" fill="#fff" opacity=".4" stroke="#fff" stroke-linecap="round" stroke-linejoin="round" stroke-width="1.01"/><path d="m24.3 20.9c-0.456 0.0572-0.13 0.729-0.623 0.775-1.26 0.779-2.01 2.33-1.8 3.8 0.0383 0.683 0.713 0.38 1.05 0.109 0.674-0.364 1.36-0.715 2.08-0.982 0.269 0.167 0.299 0.729 0.467 1.06 0.29 0.832 0.564 1.67 0.835 2.51-0.406-0.275-0.889-0.17-1.28 0.0675-0.441 0.176-0.904 0.573-1.4 0.338-0.502-0.183-0.951-0.57-1.5-0.579-0.362 0.0621-0.675 0.268-1 0.421-0.0034 0.446-0.0099 0.893-0.0101 1.34 0.451-0.176 0.922-0.592 1.43-0.358 0.478 0.176 0.899 0.516 1.41 0.591 0.638-0.0829 1.15-0.591 1.79-0.668 0.629 0.0748 1.13 0.547 1.75 0.667 0.647-0.0678 1.16-0.578 1.8-0.671 0.384-0.0151 0.846 0.445 1.11 0.371 0.0232-0.421 0.0269-0.842 0.0379-1.26-0.442-0.187-0.89-0.553-1.39-0.384-0.525 0.18-0.987 0.565-1.55 0.616-0.489-0.0475-0.406-0.746-0.626-1.09-0.374-1.07-0.726-2.14-1.07-3.22 0.698-0.286 1.46-0.401 2.19-0.556 0.358-0.0481 1.19-0.0966 0.894-0.657-0.652-1.27-2.08-2.08-3.51-1.99-0.398 0.0752-0.742 0.093-1.02-0.236l-0.0744-0.0096z" fill="#2f922e" opacity=".5"/></svg>
