<svg height="128" viewBox="0 0 33.866666 33.866668" width="128" xmlns="http://www.w3.org/2000/svg"><path d="m.00000008 0h33.99351092v33.951229c-11.33117 0-22.662341 0-33.99351092 0 0-11.317076 0-22.634153 0-33.951229z" fill="#31a65b" opacity=".3"/><g fill="#b0b0b0" stroke="#b0b0b0"><path d="m10.9125 7.4470114c0-2.1067863-1.4705074-3.815583-3.2835004-3.815583-1.8129969 0-3.283505 1.7087967-3.283505 3.815583 0 .036518.015711.069386.018777.1022525h-.018777v8.2810911h6.5670054v-8.2810916h-.01877c.0031-.032867.01877-.065733.01877-.102252z" stroke-width=".846784"/><path d="m27.893306 21.736648c0-2.106786-1.470507-3.815583-3.2835-3.815583-1.812997 0-3.283505 1.708797-3.283505 3.815583 0 .03652.01571.06939.01878.102252h-.01878v8.281091h6.567005v-8.281091h-.01877c.0031-.03287.01877-.06573.01877-.102252z" stroke-width=".846783"/></g></svg>