<svg height="128" viewBox="0 0 33.866666 33.866668" width="128" xmlns="http://www.w3.org/2000/svg"><path d="m11.25086 2.4804688c-.251252-.0009684-.502846.00185-.753984.00413-2.3466924-.0468937-4.857297.3213583-6.6606192 1.8345176-1.0678459.8519724-2.0202935 1.8841117-3.30709013 2.45153-.15860764.1686266.16774856.2104914.29376646.1679482.53964687-.1277048.95468707-.5239856 1.44065577-.7756631.9564863-.5947775 1.7756586-1.3408242 2.5473674-2.1259686.788415-.5343195 1.7872501-.672754 2.708078-.9172565 1.4670408-.2982013 2.9859817-.4917249 4.4868517-.3725873 1.072476.2564037 1.742829 1.1817919 2.683033 1.6789675.908032.5542632 1.886341 1.0499286 2.707556 1.6949871.066743-.1078209-.054437-.3103365-.068876-.4397667-.188652-.3956447-.684162-.5525669-1.028444-.8139038-.931183-.5310945-1.887799-1.051582-2.649637-1.7823202-.442256-.3988525-1.029734-.6201841-1.645197-.5865274-.250896-.0124215-.50221-.0171183-.753461-.0180868zm9.194942 4.7382122c-1.099201.03335-2.227778.1848064-3.223082.6283854-.673412.4045799-1.338144.812749-1.998969 1.2345501-.08787.05939-.397188.2853558-.125229.1715656 1.385103-.42609 2.621029-1.2473202 4.079858-1.4836304 1.233139-.2888258 2.665932-.4196276 3.773046.2733686.738529.4319587 1.375945 1.0120791 2.172724 1.35909.854265.435397 1.47885 1.3871617 2.458664 1.4986167-.980484-1.2960517-2.67706-1.8515574-3.86436-2.9574425-.880464-.7751099-2.145669-.7074345-3.272652-.7245035zm-7.917606 3.768246c-1.892145.146359-3.8536729.527817-5.3676298 1.661397-1.0192552.719374-1.857114 1.669298-2.9955831 2.223637-.1149323.155843.1699645.408225.2953319.211873 1.4506484-.737616 2.4863584-2.00684 3.8800129-2.813782 1.3611155-.668103 2.9288431-.812335 4.4331081-.987536 1.051432-.05028 2.165954.269464 2.84583 1.049031.913314.720398 2.082932 1.111321 2.920446 1.915646.379273.292507.688116.755779 1.163064.864546-.03176-.328467-.375858-.549823-.570314-.803568-.83924-.85629-1.965676-1.370863-2.976798-2.013314-.559946-.445479-1.065132-1.106132-1.877392-1.117761-.581728-.08633-1.158997-.202406-1.750076-.190169z" fill="#84c078" stroke="#84c078" stroke-linecap="round" stroke-linejoin="round" stroke-width=".370417"/></svg>