<?xml version="1.0" encoding="UTF-8"?>
<svg width="128" height="128" version="1.1" viewBox="0 0 33.9 33.9" xmlns="http://www.w3.org/2000/svg"><g fill="#8fc3dd" stroke-width="1.07"><path d="m5.7 0.622c-0.912 0-0.912 1.16 0 1.16s0.912-1.16 0-1.16z"/><path d="m24.1 4.38c-0.911 0-0.911 1.16 0 1.16 0.911 8.7e-4 0.911-1.16 0-1.16z"/><path d="m14 6.65c-0.912 0-0.912 1.17 0 1.17s0.912-1.17 0-1.17z"/><path d="m8.93 11c-0.912 0-0.912 1.17 0 1.17 0.911 0 0.911-1.17 0-1.17z"/><path d="m22 8.53c-0.455 0-0.455 0.584 0 0.584 0.455 0 0.455-0.584 0-0.584z"/><path d="m1.97 0.196c-0.455 0-0.455 0.583 0 0.583 0.455 0 0.455-0.583 0-0.583z"/><path d="m5.19 5.82c-0.455 0-0.455 0.582 0 0.582s0.456-0.582 0-0.582z"/><path d="m16.2 1.5c-0.455 0-0.455 0.582 0 0.582 0.455 8.7e-4 0.455-0.582 0-0.582z"/><path d="m19.7 2.42c-0.455 0-0.455 0.582 0 0.582s0.455-0.582 0-0.582z"/><path d="m17.2 3.7c-0.455 0-0.455 0.582 0 0.582 0.455 8.7e-4 0.455-0.582 0-0.582z"/><path d="m28.5 5.53c-0.454 0-0.454 0.583 0 0.583 0.456 0 0.456-0.583 0-0.583z"/><path d="m27.9 10.4c-0.455 0-0.455 0.583 0 0.583 0.454 0 0.454-0.583 0-0.583z"/><path d="m7.71 6.83c-0.455 0-0.455 0.583 0 0.583 0.455 0 0.455-0.583 0-0.583z"/><path d="m13.1 11.3c-0.455 0-0.455 0.584 0 0.584 0.455 0 0.455-0.584 0-0.584z"/><path d="m15.5 15.1c-0.455 0-0.455 0.582 0 0.582s0.455-0.582 0-0.582z"/><path d="m3.12 11.6c-0.455 0-0.455 0.583 0 0.583 0.454 0 0.454-0.583 0-0.583z"/><path d="m9.27 0.622c-0.455 0-0.455 0.582 0 0.582 0.455 0 0.456-0.582 0-0.582z"/><path d="m11 2.71c-0.455 0-0.455 0.582 0 0.582s0.455-0.582 0-0.582z"/><path d="m25.8 2.08c-0.455 0-0.455 0.582 0 0.582 0.455 0 0.455-0.582 0-0.582z"/><path d="m6.22 15.9c-0.455 0-0.455 0.583 0 0.583 0.455 0 0.455-0.583 0-0.583z"/><path d="m2.31 7.81c-0.455 0-0.455 0.582 0 0.582 0.454 0 0.454-0.582 0-0.582z"/><path d="m33.3 4.04c-0.454 0-0.454 0.582 0 0.582 0.456 0 0.456-0.582 0-0.582z"/><path d="m33.3 11.4c-0.454 0-0.454 0.582 0 0.582 0.455 0 0.455-0.582 0-0.582z"/><path d="m25.4 14.2c-0.911 0-0.911 1.17 0 1.17 0.911 0 0.911-1.17 0-1.17z"/><path d="m20.1 12.9c-0.455 0-0.455 0.582 0 0.582s0.455-0.582 0-0.582z"/><path d="m23.1 11.6c-0.455 0-0.455 0.582 0 0.582 0.455 0 0.455-0.582 0-0.582z"/><path d="m21.1 15.1c-0.455 0-0.455 0.581 0 0.581s0.455-0.581 0-0.581z"/><path d="m30.6 13.8c-0.454 0-0.454 0.582 0 0.582 0.457 0 0.457-0.582 0-0.582z"/></g><g fill="none" stroke="#8fc3dd" stroke-linecap="round"><path d="m14 3.7c-0.627 0.633-1.76-1.83-4.75-0.833-2.11 0.704-5.86 0.13-6.77 0.13" stroke-width="1.13"/><g transform="matrix(1.02 0 0 .87 -.0256 -.0682)" stroke-width="1.2"><path d="m15.9 17.9c-0.681-0.9-3.9-0.663-7.51-1.58-2.74-0.697-4.36 2.12-7.35 0.834"/><path d="m12.143 16.414c.335.334 1.313-.101 2.185-.973.604-.604.999-1.258 1.071-1.715"/></g><g stroke-width="1.13"><path d="m31.7 9.03c-0.694-0.783-3.86-1.37-7.66-1.37-3.55 0-6.56 0.517-7.5 1.22"/><path d="m27.9 7.76c0.343 0.291 1.34-0.0879 2.23-0.846 0.616-0.525 1.02-1.09 1.09-1.49"/><path d="m24.2 8.43c0.616-0.526 1.09-1.39 1.16-1.79"/></g></g><g transform="matrix(-1.02 0 0 .87 35.3 17)" fill="#8fc3dd" stroke-width="1.11"><path d="m5.62 0.794c-0.894 0-0.894 1.34 0 1.34s0.894-1.34 0-1.34z"/><path d="m23.6 5.11c-0.893 0-0.893 1.34 0 1.34 0.893 1e-3 0.893-1.34 0-1.34z"/><path d="m13.7 7.72c-0.894 0-0.894 1.34 0 1.34s0.894-1.34 0-1.34z"/><path d="m8.776 12.721c-.894 0-.894 1.34 0 1.34.893 0 .893-1.34 0-1.34z"/><path d="m21.583 9.886c-.446 0-.446.671 0 .671s.446-.671 0-.671z"/><path d="m1.953.304c-.446 0-.446.67 0 .67s.446-.67 0-.67z"/><path d="m5.115 6.769c-.446 0-.446.669 0 .669s.447-.669 0-.669z"/><path d="m15.87 1.798c-.446 0-.446.669 0 .669.446.001.446-.669 0-.669z"/><path d="m19.345 2.855c-.446 0-.446.669 0 .669s.446-.669 0-.669z"/><path d="m16.893 4.333c-.446 0-.446.669 0 .669.446.001.446-.669 0-.669z"/><path d="m28.002 6.434c-.445 0-.445.67 0 .67.447 0 .447-.67 0-.67z"/><path d="m27.334 12.051c-.446 0-.446.67 0 .67.445 0 .445-.67 0-.67z"/><path d="m7.587 7.93c-.446 0-.446.67 0 .67s.446-.67 0-.67z"/><path d="m12.821 13.056c-.446 0-.446.671 0 .671s.446-.671 0-.671z"/><path d="m15.2 17.463c-.446 0-.446.669 0 .669s.446-.669 0-.669z"/><path d="m3.083 13.391c-.446 0-.446.67 0 .67.445 0 .445-.67 0-.67z"/><path d="m9.111.794c-.446 0-.446.669 0 .669s.447-.669 0-.669z"/><path d="m10.784 3.19c-.446 0-.446.669 0 .669s.446-.669 0-.669z"/><path d="m25.266 2.468c-.446 0-.446.669 0 .669s.446-.669 0-.669z"/><path d="m6.12 18.408c-.446 0-.446.67 0 .67s.446-.67 0-.67z"/><path d="m2.287 9.058c-.446 0-.446.669 0 .669.445 0 .445-.669 0-.669z"/><path d="m32.689 4.727c-.445 0-.445.669 0 .669.447 0 .447-.669 0-.669z"/><path d="m32.629 13.128c-.445 0-.445.669 0 .669.446 0 .446-.669 0-.669z"/><path d="m25 16.5c-0.893 0-0.893 1.34 0 1.34s0.893-1.34 0-1.34z"/><path d="m19.679 14.924c-.446 0-.446.669 0 .669s.446-.669 0-.669z"/><path d="m22.671 13.463c-.446 0-.446.669 0 .669s.446-.669 0-.669z"/><path d="m20.703 17.459c-.446 0-.446.668 0 .668s.446-.668 0-.668z"/><path d="m30.03 15.998c-.445 0-.445.669 0 .669.448 0 .448-.669 0-.669z"/></g><g transform="matrix(-1.02 0 0 .87 32.7 17)" fill="none" stroke="#8fc3dd" stroke-linecap="round" stroke-width="1.2"><path d="m13.8 4.33c-0.615 0.728-1.73-2.1-4.66-0.958-2.07 0.809-5.75 0.15-6.64 0.15"/><path d="m15.9 17.9c-0.681-0.9-3.9-0.663-7.51-1.58-2.74-0.697-4.36 2.12-7.35 0.834"/><path d="m12.143 16.414c.335.334 1.313-.101 2.185-.973.604-.604.999-1.258 1.071-1.715"/><path d="m31.1 10.5c-0.68-0.9-3.78-1.58-7.51-1.58-3.48 0-6.43 0.594-7.35 1.41"/><path d="m27.3 9c0.336 0.334 1.31-0.101 2.19-0.973 0.604-0.604 0.998-1.26 1.07-1.72"/><path d="m23.8 9.77c0.604-0.605 1.07-1.6 1.14-2.06"/></g></svg>
