<?xml version="1.0" encoding="UTF-8" standalone="no"?>
<svg
   xmlns:dc="http://purl.org/dc/elements/1.1/"
   xmlns:cc="http://creativecommons.org/ns#"
   xmlns:rdf="http://www.w3.org/1999/02/22-rdf-syntax-ns#"
   xmlns:svg="http://www.w3.org/2000/svg"
   xmlns="http://www.w3.org/2000/svg"
   height="580"
   width="580"
   version="1.1"
   id="svg6">
  <metadata
     id="metadata12">
    <rdf:RDF>
      <cc:Work
         rdf:about="">
        <dc:format>image/svg+xml</dc:format>
        <dc:type
           rdf:resource="http://purl.org/dc/dcmitype/StillImage" />
        <dc:title></dc:title>
      </cc:Work>
    </rdf:RDF>
  </metadata>
  <defs
     id="defs10" />
  <path
     d="m0 0h580v580c-193.33333 0-386.66667 0-580 0 0-193.33333 0-386.66667 0-580z"
     fill="#e6ffdb"
     fill-rule="evenodd"
     opacity=".8"
     id="path2"
     style="fill:#e6f4f0;fill-opacity:1" />
  <path
     id="path4"
     style="opacity:0.4;fill:#2f922e;fill-opacity:1"
     d="M 116.22266,70.646484 C 90.297286,70.066161 67.960306,95.273507 71.637668,120.93746 c 2.143038,25.97097 29.807692,45.57055 55.018732,38.9945 25.56618,-5.04545 41.93761,-34.73713 32.56981,-59.05059 -6.07064,-17.947348 -24.05896,-30.592927 -43.00355,-30.234886 z m 271.27929,54.396486 c -25.92537,-0.58032 -48.26234,24.62702 -44.58498,50.29097 2.143,25.97074 29.80775,45.57105 55.01869,38.99407 25.56524,-5.04646 41.93536,-34.73739 32.56788,-59.05016 -6.07043,-17.94668 -24.05768,-30.59211 -43.00159,-30.23488 z M 98.197266,288.93945 c -26.04724,-0.78683 -48.632481,24.50118 -44.926785,50.29293 2.143008,25.97074 29.807751,45.57105 55.018689,38.99407 25.5655,-5.04651 41.93477,-34.73726 32.56854,-59.05027 -6.01073,-17.81163 -23.86124,-30.46503 -42.660444,-30.23673 z m 381.486324,16.95508 c -26.04724,-0.78683 -48.63248,24.50118 -44.92678,50.29293 2.143,25.97074 29.80775,45.57105 55.01869,38.99407 25.56549,-5.04651 41.93476,-34.73726 32.56853,-59.05027 -6.01073,-17.81163 -23.86124,-30.46503 -42.66044,-30.23673 z M 245.50391,418.22266 c -25.92537,-0.58032 -48.26235,24.62702 -44.58499,50.29097 2.14303,25.97097 29.80768,45.57055 55.01873,38.9945 25.56618,-5.04545 41.93761,-34.73713 32.5698,-59.05059 -6.07063,-17.94734 -24.05895,-30.59292 -43.00354,-30.23488 z" />
</svg>
