<svg height="128" viewBox="0 0 33.866666 33.866668" width="128" xmlns="http://www.w3.org/2000/svg"><g fill="none" stroke="#baa6c2" stroke-linecap="round" stroke-linejoin="round" stroke-width=".689071"><path d="m6.0883894 19.660425.01917-5.012677"/><path d="m8.9610014 16.417899-1.533815 3.249324"/><path d="m10.881558 17.679129-1.8789226 1.981296"/><path d="m3.4730205 16.279209 1.3229146 3.388014"/><path d="m1.3607367 17.738568 1.8597494 1.921857"/><path d="m27.228631 8.075572.01917-5.0126769"/><path d="m30.101243 4.8330465-1.533814 3.2493235"/><path d="m32.0218 6.0942765-1.878922 1.9812955"/><path d="m24.613262 4.6943561 1.322915 3.3880139"/><path d="m22.500979 6.1537152 1.859749 1.9218568"/><path d="m12.641864 30.441948.01917-5.012677"/><path d="m15.514475 27.199423-1.533814 3.249324"/><path d="m17.435033 28.460653-1.878923 1.981295"/><path d="m10.026495 27.060732 1.322915 3.388015"/><path d="m7.914211 28.520091 1.85975 1.921857"/></g></svg>