<svg height="128" viewBox="0 0 33.866666 33.866668" width="128" xmlns="http://www.w3.org/2000/svg"><path d="m22.463077 21.264297c-.113633-.473417-.433552-.872025-.648598-1.308247-1.475649-2.647069-2.951297-5.294139-4.426946-7.941208-.340253-.39694-.844159-.07218-.973104.329121-1.635147 2.880565-3.277835 5.756976-4.908261 8.640142-.340014.475402.134797 1.07695.675356.943353h9.71343c.34401.0063.612435-.330122.568123-.663161zm-5.076104-.868287c-.713412.692243-1.640388-.684165-.706679-1.061927.642712-.284375 1.218408.587805.706679 1.061927zm.162643-4.746341c-.08718.836729-.115225 1.68198-.248221 2.512168-.196899.775251-.982428.153109-.83884-.41078-.05423-1.025872-.172495-2.051131-.163843-3.07811.01152-.672444 1.159669-.832004 1.232403-.108175.07478.356084.0504.725186.0185 1.084897z" style="opacity:.7;fill:#fff;stroke:#fff;stroke-width:1.5875;stroke-linecap:round;stroke-linejoin:round"/><path d="m22.463077 21.264297c-.113633-.473417-.433552-.872025-.648598-1.308247-1.475649-2.647069-2.951297-5.294139-4.426946-7.941208-.340253-.39694-.844159-.07218-.973104.329121-1.635147 2.880565-3.277835 5.756976-4.908261 8.640142-.340014.475402.134797 1.07695.675356.943353h9.71343c.34401.0063.612435-.330122.568123-.663161zm-5.076104-.868287c-.713412.692243-1.640388-.684165-.706679-1.061927.642712-.284375 1.218408.587805.706679 1.061927zm.162643-4.746341c-.08718.836729-.115225 1.68198-.248221 2.512168-.196899.775251-.982428.153109-.83884-.41078-.05423-1.025872-.172495-2.051131-.163843-3.07811.01152-.672444 1.159669-.832004 1.232403-.108175.07478.356084.0504.725186.0185 1.084897z" fill="#b8b859" opacity=".7" stroke-width="1.20016"/></svg>