<svg height="128" viewBox="0 0 33.866666 33.866668" width="128" xmlns="http://www.w3.org/2000/svg"><path d="m11.664685 28.150759c-.066962-.291699-.264695-.536057-.396468-.803999-.952362-1.708379-1.9047239-3.416759-2.8570858-5.125139-.2145812-.251507-.5382845-.050947-.6203713.204971-1.0493103 1.848516-2.1034497 3.694372-3.1497323 5.544557-.2167258.302425.083387.689372.4291501.60471h6.2303253c.220525.004.392575-.21162.364182-.4251zm-3.2539129-.556594c-.4573154.443745-1.0515328-.43857-.4529993-.680723.4119947-.182289.7810296.376797.4529993.680723zm.1042582-3.042526c-.055911.536362-.073822 1.078198-.1591173 1.610364-.1371501.509465-.6365153.07775-.5391449-.284702-.034295-.650485-.1096347-1.300569-.1035992-1.951766.00463-.377153.6202945-.536881.7601575-.16897.087611.253979.062724.53203.041704.795074z" style="opacity:.5;fill:#fff;stroke:#fff;stroke-width:.79375;stroke-linecap:round;stroke-linejoin:round"/><path d="m11.664685 28.150759c-.066962-.291699-.264695-.536057-.396468-.803999-.952362-1.708379-1.9047239-3.416759-2.8570858-5.125139-.2145812-.251507-.5382845-.050947-.6203713.204971-1.0493103 1.848516-2.1034497 3.694372-3.1497323 5.544557-.2167258.302425.083387.689372.4291501.60471h6.2303253c.220525.004.392575-.21162.364182-.4251zm-3.2539129-.556594c-.4573154.443745-1.0515328-.43857-.4529993-.680723.4119947-.182289.7810296.376797.4529993.680723zm.1042582-3.042526c-.055911.536362-.073822 1.078198-.1591173 1.610364-.1371501.509465-.6365153.07775-.5391449-.284702-.034295-.650485-.1096347-1.300569-.1035992-1.951766.00463-.377153.6202945-.536881.7601575-.16897.087611.253979.062724.53203.041704.795074z" fill="#b8b859" opacity=".6" stroke-width=".014364"/></svg>