<svg height="128" viewBox="0 0 33.866666 33.866668" width="128" xmlns="http://www.w3.org/2000/svg"><path d="m21.440138 9.6451317c-.23839-.1598866-.476782-.3195517-.715195-.4794387 1.689862-.4721308 3.418941-.8959858 5.183674-.8968716.532808-.056469 1.172356-.09611 1.533542-.544102.215026-.4459998-.302946-.8446092-.24271-1.3120899-.07197-.6805151.141497-1.5388544.857675-1.7893142.686715-.2349583 1.658879.037645 1.819873.8291079-.0099.5589395.653278.6816225 1.069159.8175926.276149-.012181.675865.223.254226.4094606-.542332.072193-1.130059-.03676-1.682355.086367-.673206-.030781-.539673.8122779-.06287 1.0095895.451758.1835819.867861.4734598 1.089089.9247743.516199.8623254.527273 2.1261388-.286999 2.8121888-.886248.737871-2.1164.784597-3.217671.730119-1.453601-.08326-2.89679-.465486-4.171233-1.176782-.840623-.365834-1.677171-.752265-2.555796-1.019998.375887-.1335349.751734-.267068 1.1276-.4006023z" style="opacity:.4;fill:#fff;stroke:#fff;stroke-width:1.03188;stroke-linecap:round;stroke-linejoin:round"/><path d="m21.440138 9.6451317c-.23839-.1598866-.476782-.3195517-.715195-.4794387 1.689862-.4721308 3.418941-.8959858 5.183674-.8968716.532808-.056469 1.172356-.09611 1.533542-.544102.215026-.4459998-.302946-.8446092-.24271-1.3120899-.07197-.6805151.141497-1.5388544.857675-1.7893142.686715-.2349583 1.658879.037645 1.819873.8291079-.0099.5589395.653278.6816225 1.069159.8175926.276149-.012181.675865.223.254226.4094606-.542332.072193-1.130059-.03676-1.682355.086367-.673206-.030781-.539673.8122779-.06287 1.0095895.451758.1835819.867861.4734598 1.089089.9247743.516199.8623254.527273 2.1261388-.286999 2.8121888-.886248.737871-2.1164.784597-3.217671.730119-1.453601-.08326-2.89679-.465486-4.171233-1.176782-.840623-.365834-1.677171-.752265-2.555796-1.019998.375887-.1335349.751734-.267068 1.1276-.4006023z" fill="#2f922e" fill-opacity="0.85" opacity=".45" stroke-width=".022145"/></svg>