<?xml version="1.0" encoding="UTF-8" standalone="no"?>
<svg
   xmlns:dc="http://purl.org/dc/elements/1.1/"
   xmlns:cc="http://creativecommons.org/ns#"
   xmlns:rdf="http://www.w3.org/1999/02/22-rdf-syntax-ns#"
   xmlns:svg="http://www.w3.org/2000/svg"
   xmlns="http://www.w3.org/2000/svg"
   xmlns:sodipodi="http://sodipodi.sourceforge.net/DTD/sodipodi-0.dtd"
   xmlns:inkscape="http://www.inkscape.org/namespaces/inkscape"
   height="128"
   viewBox="0 0 33.866666 33.866668"
   width="128"
   version="1.1"
   id="svg6"
   sodipodi:docname="nature_reserve_large.svg"
   inkscape:version="1.0.1 (3bc2e813f5, 2020-09-07)">
  <metadata
     id="metadata12">
    <rdf:RDF>
      <cc:Work
         rdf:about="">
        <dc:format>image/svg+xml</dc:format>
        <dc:type
           rdf:resource="http://purl.org/dc/dcmitype/StillImage" />
      </cc:Work>
    </rdf:RDF>
  </metadata>
  <defs
     id="defs10" />
  <sodipodi:namedview
     pagecolor="#ffffff"
     bordercolor="#666666"
     borderopacity="1"
     objecttolerance="10"
     gridtolerance="10"
     guidetolerance="10"
     inkscape:pageopacity="0"
     inkscape:pageshadow="2"
     inkscape:window-width="1920"
     inkscape:window-height="1001"
     id="namedview8"
     showgrid="false"
     inkscape:zoom="6.484375"
     inkscape:cx="64"
     inkscape:cy="64"
     inkscape:window-x="-9"
     inkscape:window-y="-9"
     inkscape:window-maximized="1"
     inkscape:current-layer="svg6" />
  <path
     d="m22.456761 9.3576739c-.183377-.1229897-.366755-.245809-.55015-.368799 1.299894-.3631775 2.629955-.6892198 3.987442-.6899012.409852-.043438.901812-.073931 1.179647-.41854.165405-.3430768-.233035-.6496994-.1867-1.0092999-.05536-.5234732.108844-1.1837342.65975-1.3763956.528243-.1807371 1.276061.028958 1.399903.6377753-.0076.4299535.502521.524325.82243.6289174.212422-.00937.519896.1715385.195558.3149697-.417178.055533-.869276-.028277-1.294119.066436-.517851-.023678-.415133.6248292-.04836.7766073.347506.1412169.667585.3641999.837761.7113649.397076.6633272.405594 1.6354912-.220769 2.1632222-.681729.567593-1.628.603536-2.475131.56163-1.118155-.06405-2.2283-.358066-3.208641-.905217-.646633-.281411-1.290132-.5786652-1.965997-.7846134.289144-.1027196.578257-.2054374.867385-.3081561z"
     style="fill:none;stroke-width:0.79375;stroke:#ffffff;stroke-linejoin:round;stroke-linecap:round;opacity:0.4"
     id="path2" />
  <path
     id="path4"
     style="stroke:none;fill:#2f922e;fill-opacity:0.75;opacity:0.45"
     d="M 22.456761,9.3576739 C 22.302644,9.2038933 21.643428,8.9681266 22.150694,8.9212847 23.39599,8.5740283 24.673872,8.2990158 25.97179,8.2909009 c 0.41538,-0.045475 1.153186,-0.1080646 1.136003,-0.662337 -0.13687,-0.3586195 -0.287552,-0.7195431 -0.223854,-1.1142695 0.02207,-0.4907839 0.339654,-1.0226271 0.869547,-1.0690141 0.504728,-0.088696 1.162266,0.1949007 1.197636,0.7640013 0.11213,0.4661849 0.688201,0.4802351 1.058705,0.6098712 0.286897,0.3228506 -0.411175,0.2902905 -0.607577,0.2767397 -0.358155,0.038702 -1.129073,-0.1255625 -1.079998,0.4369966 0.105828,0.4886322 0.744781,0.460405 0.983846,0.8601673 0.518552,0.6577354 0.631807,1.7327536 -0.01007,2.3502206 -0.756685,0.672521 -1.842754,0.665002 -2.793863,0.59315 -1.052093,-0.08995 -2.083044,-0.402432 -3.007392,-0.912408 -0.626366,-0.273517 -1.250372,-0.5585668 -1.905383,-0.7581884 0.289121,-0.102714 0.578285,-0.2054425 0.867376,-0.3081567 z" />
</svg>
