<?xml version="1.0" encoding="UTF-8"?>
<svg width="580" height="580" version="1.1" xmlns="http://www.w3.org/2000/svg"><path d="m455 0c-10.8 1.91-21.7 3.81-32.5 5.72 12.2 16 58.3 53 65.2 20.4-2.85-15.8-22-17.8-32.7-26.1zm-442 8.58c-21.3 13.7-11.4 41.6-13.4 62.9v57.5c19.2-14.7 7.96-41 9.29-61.9-0.157-11.8-4.92-24.4 10.9-20.7 1.21-12.8-12.8-24.8-6.82-37.9zm324 1.81c-28 5.81-55.5 17.9-83.5 6.89-19.2-10.2-64.5 23.4-27.6 26.2 24.9-1.85 47.5-15.1 73.1-9.02 16.8-2.03 48.2 10.7 38.3-17.8zm231 4.62c-5.66 32.4-65.6-10.8-49.2 25.5 18.1 22.5 81.4 2.2 53-25zm-419 14.7c-29.1-11.9-37.8 68.2-11.7 34.2 9.29-10.1 21.3 0.888 13.7-18.6-0.8-5.16-1.55-10.3-2.05-15.5zm271 45.7c-32.3 13.1-20.4 61.1-12.9 83.6 27.6-0.549-3.2-37.6 16-50.6 4-10.9 1.51-22.7-3.08-33zm-244 15.7c-18.9 16.4-10.9 44.6-17.4 66.3-6.98 16 0.76 33.6 12.5 12.5 8.91-25.2 3.86-52.6 4.95-78.8zm369 2.86c-30.8 16.3 8.35 40.5-3.21 65.3-1.03 42.7-4.44 85.2-8.09 128 6.04 23.3 46.6 18.9 26.4-7.38-10.1-47.4-3.47-96.6-8.92-144 0.747-13.7 23.5-46.4-6.21-41.3zm-477 41.5c-6.43 33.8-62.2 0.985-61.1 39.9 17.1 1.92 38.2-15.5 55.1 1.24 21.2 1.84 30.7-39.6 6.03-41.2zm251 3.57c-18.8 11.9-72.5 2.03-65.4 32.6 21.9-3.42 43.5-9.45 66.1-4.85-2.27-16.1 9.06-10.1 18.8-10.3-6.19-6.16-13.2-11.5-19.6-17.5zm112 32.9c-33.8 20.2 21.8 19.1 0 0zm-164 17.2c2.41 23.6-11.5 67.5 10.3 77.2 12.4-3.17 31.2-24.3 6.85-23.9-12.9-14.8-9.78-36.2-17.2-53.3zm159 20.7c-21.9 10.2-33.2 76 1.53 62.4 17.9-5.68-14.4-21.5-2.65-37.1 0.646-8.39 1.85-16.8 1.12-25.2zm-240 40c-12.2 33.9-39.4-3.68-64.1 6.72-16.9-1.53-46.7-2.47-20.9 16.7 22.5 14.7 72.3-5.19 82.3 15.2-25.4 14 17.5 50.9 14.2 15.8-13.1-24.3 61.9-36.5 23.8-39.5-13-0.123-28.9-1.53-35.3-15zm317 3.57c-22 10.2 26.3 20.3 1.84 1.92l-1.14-1.19zm-502 14.3c-3.64 34.1-5.45 69.8 2.25 103 0.386 21.4 1.23 35.5 11.9 11.3 7.63-12.3 16.9-23 2.37-34.3-7.91-26.2-1.16-55.6-16.5-80.1zm481 7.86c-21.3-13.4-35.6 35.4-11.7 17.8 20 8.28 40.1-6.74 11.7-17.8zm-227 16.4c-8.22 26.2 14.6 51.6 4.51 79.2-7.1 18.8 5.53 49.4 23.9 25.5-1.37-18.2-18.3-35-0.0304-51.7 2.44-15.5-15.9-25.7-5.92-42.7-10.2 0.488-15.6-2.08-22.5-10.3zm268 24.3c-19.7 30.1-56.1 8.92-80.1 12.7-10.1 11.9-26.4 14.5-36.3 8.09-9.33 8.83-49.6 14.5-42.8 18.3 33.1 5.83 64.2-2.95 95.9-6.86 23-5.13 78.3 12.8 72.5-24.4-2.51-3.19-5.79-5.6-9.14-7.81zm41.7 52.2c-2.38 14.5-45.8 16.4-35.4 23.2 19.5-6.45 50.2 1e-3 47 15.7 5.42-14.2 0.506-29.9-11.6-38.9zm-522 46.5c-10.8 1.91-21.7 3.81-32.5 5.72 12.2 16 58.3 53 65.2 20.4-2.85-15.8-22-17.8-32.7-26.1zm193 7.86c-24.9 28.6-70.7-2.61-89.8 20.6-13 4.39-51.6-17.7-40.2 10.5 27 28.3 60.5-12.3 88.7 4.81 17.5-3.62 31.1-10.2 45.7 3.44 16.3-9.77 17.3-23-4.45-21.2-13.6-3.33-0.851-11.4 0.109-18zm186 0.715c-28 19.4-28.1 53.1-16.3 79.8-4.89 14.3-27.2 56 0.167 50.1 18.1-24.5 14.2-54.4 11.4-82.5 2.55-14.4 19.1-7.89 6.67-23.6-1.89-7.77-1.35-15.8-1.92-23.7zm-38.1 7.15c-20 0.238-40 0.477-60 0.715-12.2 17.6 29.2 6.48 41.7 9.29 6.18-2.04 28.9 4.49 22.6-4.03-1.41-1.99-2.81-3.98-4.22-5.98zm175 14c-29.1-11.9-37.8 68.2-11.7 34.2 9.29-10.1 21.3 0.884 13.7-18.6-0.8-5.16-1.55-10.3-2.05-15.5zm-549 45.7c-20 13.3-8.31 40.3-11.3 60.4 1.12 9.07-4.87 36.1 9.78 19 2.35-18.3-10.5-40.7 7.38-53.7-0.141-8.94-4.58-17-5.89-25.7zm124 18.6c-30.3 15.5 6.38 38-3.16 61.5 11.8 25.3 9.07-17.7 12.1-27.6 2.02-12.5 14.8-39.4-8.97-33.9zm444 4.31c-3.52 18-18.7 59.9-2.5 64.6 6.4-17.9 0.903-38.1 2.5-57.2v-7.46zm-308-4.33c-16.3 13.4-25.6 75.1 5.85 63.3 9.51-16.8-20.4-30.9 2-48.4 2.32-6.31-3.41-11.6-7.85-14.9zm199 41.5c-5.47 31.4-65.4 8.48-62.9 29.1 25.4 1.22 50.8 0.243 76.2 0.547-1.77-10.7 5.44-31.9-13.4-29.6z" fill="#808080" fill-opacity=".9"/></svg>
