<svg height="128" viewBox="0 0 33.866666 33.866668" width="128" xmlns="http://www.w3.org/2000/svg"><g stroke="#86bc86" stroke-linecap="round" stroke-linejoin="round"><path d="m0 0h33.866669v33.866669c-11.28889 0-22.577779 0-33.866669 0 0-11.28889 0-22.577779 0-33.866669z" fill="#1f9f1f" opacity=".25" stroke-width=".044185"/><path d="m21.596614 8.6046429c-.0064 1.5931841-.01275 3.1863691-.01912 4.7795531.0064-1.593184.01275-3.186369.01912-4.7795531zm-2.62723 1.5554611c.439766 1.076764.879533 2.153529 1.319299 3.230293-.439766-1.076764-.879533-2.153529-1.319299-3.230293zm5.472535.132291c-.509875 1.032667-1.019749 2.065335-1.529624 3.098002.509875-1.032667 1.019749-2.065335 1.529624-3.098002zm1.915128 1.202511c-.624424.629763-1.248847 1.259527-1.873271 1.88929.624424-.629763 1.248847-1.259527 1.873271-1.88929zm-9.493995.05684c.61805.610815 1.236101 1.221631 1.854151 1.832446-.61805-.610815-1.236101-1.221631-1.854151-1.832446zm-2.633945 7.316873c-.0062 1.593184-.0124 3.186369-.0186 4.779553.0062-1.593184.0124-3.186369.0186-4.779553zm-2.62723 1.555461c.439767 1.076765.879533 2.153529 1.3193 3.230294-.439767-1.076765-.879533-2.153529-1.3193-3.230294zm5.473051.132291c-.509874 1.032668-1.019748 2.065335-1.529622 3.098003.509874-1.032668 1.019748-2.065335 1.529622-3.098003zm1.915129 1.202511c-.624596.629763-1.249192 1.259527-1.873788 1.88929.624596-.629763 1.249192-1.259527 1.873788-1.88929zm-9.4945127.05684c.6182227.610815 1.2364457 1.221631 1.8546687 1.832446-.618223-.610815-1.236446-1.221631-1.8546687-1.832446zm10.9455857 6.526221h9.840227c-3.280076 0-6.560151 0-9.840227 0zm-14.766024 3.438033h21.855513c-7.285171 0-14.570342 0-21.855513 0z" fill="none" stroke-width=".672042"/></g></svg>