<svg height="580" width="580" xmlns="http://www.w3.org/2000/svg"><path d="m0 0h580v580h-580z" fill="#e6ffdb" fill-rule="evenodd" opacity=".8"/><path d="m116.22266 70.646484a45.213154 45.213154 0 0 0 -44.871098 45.212896 45.213154 45.213154 0 0 0 45.212888 45.21289 45.213154 45.213154 0 0 0 45.21485-45.21289 45.213154 45.213154 0 0 0 -45.21485-45.212896 45.213154 45.213154 0 0 0 -.34179 0zm271.27929 54.396486a45.213154 45.213154 0 0 0 -44.87109 45.21289 45.213154 45.213154 0 0 0 45.21289 45.21289 45.213154 45.213154 0 0 0 45.21289-45.21289 45.213154 45.213154 0 0 0 -45.21289-45.21289 45.213154 45.213154 0 0 0 -.3418 0zm-289.304684 163.89648a45.213154 45.213154 0 0 0 -45.212891 45.21485 45.213154 45.213154 0 0 0 45.212891 45.21289 45.213154 45.213154 0 0 0 45.212894-45.21289 45.213154 45.213154 0 0 0 -45.212894-45.21485zm381.486324 16.95508a45.213154 45.213154 0 0 0 -45.21289 45.21485 45.213154 45.213154 0 0 0 45.21289 45.21289 45.213154 45.213154 0 0 0 45.21289-45.21289 45.213154 45.213154 0 0 0 -45.21289-45.21485zm-234.17968 112.32813a45.213154 45.213154 0 0 0 -44.8711 45.21289 45.213154 45.213154 0 0 0 45.21289 45.21289 45.213154 45.213154 0 0 0 45.21485-45.21289 45.213154 45.213154 0 0 0 -45.21485-45.21289 45.213154 45.213154 0 0 0 -.34179 0z" fill="#a401ff" opacity=".25"/></svg>