<svg height="128" viewBox="0 0 33.866666 33.866668" width="128" xmlns="http://www.w3.org/2000/svg"><g fill-rule="evenodd" transform="scale(.26458334)"><path d="m97.541016 82.964844c-5.320676-.000004-9.634774 4.463339-9.634766 9.96875.000019 5.505399 4.314106 9.968756 9.634766 9.968746 5.320644-.00001 9.632804-4.463362 9.632814-9.968746.00001-5.5054-4.31215-9.968731-9.632814-9.96875zm1.767578 1.537109s1.464556.067806 3.443356 1.978516c1.98786 1.919455 2.61914 4.210937 2.61914 4.210937s-2.83734-1.088764-4.61914-1.443359c-1.56076-.310594-4.749997-.443359-4.749997-.443359 0-.000001.077164-.583089-.076172-1.248047-.062853-.272686-.234375-.806641-.234375-.806641s.706387-.696314 1.945313-1.408203c1.238921-.711878 1.671875-.839844 1.671875-.839844zm-6.507813 1.097656.244141 1.3125s-.423586.230892-1.095703 1.052735c-.672129.821843-.8125 1.443359-.8125 1.443359l-1.501953.423828s.303604-1.265654 1.130859-2.419922c.827255-1.154267 2.035156-1.8125 2.035156-1.8125zm1.333985 6.023438s1.321847 3.700512 2.140625 5.478515c.784422 1.703396 1.876953 4.115238 1.876953 4.115238s-2.173168.07866-4.707032-1.03516c-2.125504-.934317-3.27539-3.210937-3.27539-3.210937s.035068-.242212.460937-1.761719c.425874-1.519502 1.050782-3.18164 1.050782-3.18164s.643884.246404 1.027343.220703c.894097-.059354 1.425782-.625 1.425782-.625zm-7.244141 12.800783c-.826258 0-2.049429.72677-3.175781 1.30469l-.029297 4.06054c1.181854-.58555 2.447672-1.35937 3.205078-1.35937 1.296128 0 3.768252 2.0039 5.140625 2.0039 1.222269 0 3.835554-2.0039 5.140625-2.0039 1.296128 0 3.911245 2.0039 5.140625 2.0039 1.29613 0 3.92074-2.0039 5.14062-2.0039.76351 0 2.07746.78587 3.27149 1.37304l.08984-4.05468c-1.16235-.60003-2.51485-1.37308-3.36133-1.32422-1.22938 0-3.76613 2.0039-5.14062 2.0039-1.14364 0-3.844497-2.0039-5.140625-2.0039-1.296132 0-3.994445 2.0039-5.140625 2.0039-1.222269 0-3.768252-2.0039-5.140625-2.0039z" style="fill:#fff;stroke:#fff;stroke-width:3;stroke-linecap:round;stroke-linejoin:round;opacity:.4"/><path d="m97.541016 82.964844c-5.320676-.000004-9.634774 4.463339-9.634766 9.96875.000019 5.505399 4.314106 9.968756 9.634766 9.968746 5.320644-.00001 9.632804-4.463362 9.632814-9.968746.00001-5.5054-4.31215-9.968731-9.632814-9.96875zm1.767578 1.537109s1.464556.067806 3.443356 1.978516c1.98786 1.919455 2.61914 4.210937 2.61914 4.210937s-2.83734-1.088764-4.61914-1.443359c-1.56076-.310594-4.749997-.443359-4.749997-.443359 0-.000001.077164-.583089-.076172-1.248047-.062853-.272686-.234375-.806641-.234375-.806641s.706387-.696314 1.945313-1.408203c1.238921-.711878 1.671875-.839844 1.671875-.839844zm-6.507813 1.097656.244141 1.3125s-.423586.230892-1.095703 1.052735c-.672129.821843-.8125 1.443359-.8125 1.443359l-1.501953.423828s.303604-1.265654 1.130859-2.419922c.827255-1.154267 2.035156-1.8125 2.035156-1.8125zm1.333985 6.023438s1.321847 3.700512 2.140625 5.478515c.784422 1.703396 1.876953 4.115238 1.876953 4.115238s-2.173168.07866-4.707032-1.03516c-2.125504-.934317-3.27539-3.210937-3.27539-3.210937s.035068-.242212.460937-1.761719c.425874-1.519502 1.050782-3.18164 1.050782-3.18164s.643884.246404 1.027343.220703c.894097-.059354 1.425782-.625 1.425782-.625zm-7.244141 12.800783c-.826258 0-2.049429.72677-3.175781 1.30469l-.029297 4.06054c1.181854-.58555 2.447672-1.35937 3.205078-1.35937 1.296128 0 3.768252 2.0039 5.140625 2.0039 1.222269 0 3.835554-2.0039 5.140625-2.0039 1.296128 0 3.911245 2.0039 5.140625 2.0039 1.29613 0 3.92074-2.0039 5.14062-2.0039.76351 0 2.07746.78587 3.27149 1.37304l.08984-4.05468c-1.16235-.60003-2.51485-1.37308-3.36133-1.32422-1.22938 0-3.76613 2.0039-5.14062 2.0039-1.14364 0-3.844497-2.0039-5.140625-2.0039-1.296132 0-3.994445 2.0039-5.140625 2.0039-1.222269 0-3.768252-2.0039-5.140625-2.0039z" fill="#2f922e" opacity=".5"/></g></svg>