<svg height="128" viewBox="0 0 33.866666 33.866668" width="128" xmlns="http://www.w3.org/2000/svg"><g fill-rule="evenodd"><path d="m25.830827 20.86095c-1.830091-.000002-3.313961 1.535202-3.313958 3.428834.000007 1.893628 1.483873 3.428837 3.313958 3.428834 1.83008-.000004 3.313284-1.535211 3.313287-3.428834.000003-1.893628-1.4832-3.428828-3.313287-3.428834zm.607974.528701s.503746.02332 1.184371.680527c.683741.660213.900875 1.448387.900875 1.448387s-.975927-.374489-1.588792-.496455c-.536837-.106832-1.633801-.152497-1.633801-.152497 0-.000001.02654-.200559-.0262-.429276-.02162-.09379-.08062-.277451-.08062-.277451s.242967-.239503.669106-.484364c.426137-.244856.575056-.288871.575056-.288871zm-2.238417.377548.08397.451445s-.145696.07942-.376876.362097c-.231184.28268-.279466.496456-.279466.496456l-.516609.145779s.104427-.435332.388968-.832352.700009-.623425.700009-.623425zm.458835 2.071812s.454661 1.272822.736286 1.884381c.269809.585897.645594 1.41547.645594 1.41547s-.74748.02706-1.619023-.356052c-.731085-.321366-1.126598-1.104428-1.126598-1.104428s.01206-.08331.158543-.605958c.146483-.522646.361425-1.094352.361425-1.094352s.22147.08475.353364.07591c.307532-.02042.490409-.214974.490409-.214974zm-2.491683 4.402936c-.284198 0-.704918.249978-1.092336.448759l-.01008 1.396657c.406509-.201405.841897-.467567 1.102413-.467567.445815 0 1.296122.689258 1.768161.689258.42041 0 1.319271-.689258 1.768161-.689258.445814 0 1.345306.689258 1.768161.689258.445815 0 1.348571-.689258 1.768159-.689258.262616 0 .71456.270306 1.125256.472268l.0309-1.394641c-.3998-.206385-.865004-.472282-1.156158-.455476-.422855 0-1.295392.689258-1.768159.689258-.393364 0-1.322347-.689258-1.768161-.689258-.445815 0-1.373922.689258-1.768161.689258-.420409 0-1.296121-.689258-1.768161-.689258z" style="opacity:.4;fill:#fff;stroke:#fff;stroke-width:1.03188;stroke-linecap:round;stroke-linejoin:round"/><path d="m25.830827 20.86095c-1.830091-.000002-3.313961 1.535202-3.313958 3.428834.000007 1.893628 1.483873 3.428837 3.313958 3.428834 1.83008-.000004 3.313284-1.535211 3.313287-3.428834.000003-1.893628-1.4832-3.428828-3.313287-3.428834zm.607974.528701s.503746.02332 1.184371.680527c.683741.660213.900875 1.448387.900875 1.448387s-.975927-.374489-1.588792-.496455c-.536837-.106832-1.633801-.152497-1.633801-.152497 0-.000001.02654-.200559-.0262-.429276-.02162-.09379-.08062-.277451-.08062-.277451s.242967-.239503.669106-.484364c.426137-.244856.575056-.288871.575056-.288871zm-2.238417.377548.08397.451445s-.145696.07942-.376876.362097c-.231184.28268-.279466.496456-.279466.496456l-.516609.145779s.104427-.435332.388968-.832352.700009-.623425.700009-.623425zm.458835 2.071812s.454661 1.272822.736286 1.884381c.269809.585897.645594 1.41547.645594 1.41547s-.74748.02706-1.619023-.356052c-.731085-.321366-1.126598-1.104428-1.126598-1.104428s.01206-.08331.158543-.605958c.146483-.522646.361425-1.094352.361425-1.094352s.22147.08475.353364.07591c.307532-.02042.490409-.214974.490409-.214974zm-2.491683 4.402936c-.284198 0-.704918.249978-1.092336.448759l-.01008 1.396657c.406509-.201405.841897-.467567 1.102413-.467567.445815 0 1.296122.689258 1.768161.689258.42041 0 1.319271-.689258 1.768161-.689258.445814 0 1.345306.689258 1.768161.689258.445815 0 1.348571-.689258 1.768159-.689258.262616 0 .71456.270306 1.125256.472268l.0309-1.394641c-.3998-.206385-.865004-.472282-1.156158-.455476-.422855 0-1.295392.689258-1.768159.689258-.393364 0-1.322347-.689258-1.768161-.689258-.445815 0-1.373922.689258-1.768161.689258-.420409 0-1.296121-.689258-1.768161-.689258z" fill="#2f922e" opacity=".5"/></g></svg>