<svg height="128" viewBox="0 0 33.866666 33.866668" width="128" xmlns="http://www.w3.org/2000/svg"><g fill="#21930f" fill-opacity=".4"><path d="m10.570096 4.8200234c-.607205-.010467-1.246808.3260722-1.375878 1.0142723-.05435.2915848-.10033.3851207-.445738.3913914-1.0628688.018368-1.5148768 1.5807196-.6171334 2.3180398.088836.072641.037624.1363934-.2617979.363696-1.5248054 1.1600641.1170582 3.4728781 1.6763453 2.3629781.228878-.163036.264934-.164596.316144-.03032.108684.283223.0601 1.643947-.07578 2.094911l-.13586.448348h.816227c.08099 0 .120712.000523.186559 0 .06636.000523.107637 0 .189165 0h.816227l-.13272-.448348c-.13586-.450964-.186558-1.811688-.07785-2.094911.05172-.134813.08779-.13272.315621.03032 1.559294 1.1099 3.201674-1.203435 1.676345-2.3629781-.298904-.2278319-.365791-.3229359-.258667-.363696.898788-.3448841.416995-2.1424625-.62027-2.3180398-.34018-.0574725-.387734-.0997967-.442601-.3913914-.135347-.7211213-.83138-1.0534642-1.462623-1.0080017-.02718-.00217-.05696-.00573-.08569-.00632z" stroke-width=".522551"/><path d="m24.225563 18.597142c-.607205-.01047-1.246808.326073-1.375878 1.014273-.05435.291584-.10033.38512-.445738.391391-1.062869.01837-1.514877 1.58072-.617134 2.31804.08884.07264.03762.136394-.261797.363696-1.524806 1.160064.117058 3.472878 1.676345 2.362978.228878-.163036.264934-.164596.316144-.03032.108684.283223.0601 1.643947-.07578 2.094911l-.13586.448348h.816227c.08099 0 .120712.000529.186559 0 .06636.000529.107637 0 .189165 0h.816227l-.13272-.448348c-.13586-.450964-.186558-1.811688-.07785-2.094911.05172-.134813.08779-.13272.315621.03032 1.559294 1.1099 3.201674-1.203435 1.676345-2.362978-.298904-.227832-.365791-.322935-.258667-.363696.898788-.344884.416995-2.142463-.62027-2.31804-.34018-.05747-.387734-.0998-.442601-.391391-.135347-.721122-.83138-1.053465-1.462623-1.008002-.02718-.0022-.05696-.0057-.08569-.0063z" stroke-width=".522552"/></g></svg>