<?xml version="1.0" encoding="UTF-8"?>
<svg width="128" height="128" version="1.1" viewBox="0 0 33.9 33.9" xmlns="http://www.w3.org/2000/svg"><path transform="scale(.265)" d="m13.3 11-8.05 15.2 3.66-0.564-4.86 5.59 4.29-0.805-6.1 5.77 8.92-1.21v7.79h1.99c0.00715-1.49 0.0143-2.99 0.0215-4.48v4.48h1.99v-7.79l8.8 1.29-5.54-5.85 3.86 0.805-4.79-5.5 3.73 0.449-7.92-14.4c0.00123-0.258 0.00267-0.516 0.00391-0.773zm101 72.6-8.05 15.2c1.22-0.188 2.44-0.376 3.66-0.564l-4.86 5.59c1.43-0.268 2.86-0.536 4.29-0.805l-6.1 5.77c2.97-0.403 5.95-0.806 8.92-1.21v7.79h1.99c0.0078-1.63 0.0156-3.26 0.0234-4.89v4.89h1.99v-7.79c2.93 0.429 5.86 0.86 8.8 1.29l-5.54-5.85c1.29 0.268 2.57 0.536 3.86 0.805l-4.79-5.5c1.24 0.15 2.49 0.3 3.73 0.449-2.64-4.81-5.28-9.62-7.92-14.4 0.00122-0.256 0.00268-0.512 0.0039-0.768z" fill="#436c43" fill-opacity=".46"/><path transform="scale(.265)" d="m39.9 18.2c-2.4-0.114-4.95 1.53-5.24 4.03-0.106 1.78-2.13 0.989-3.2 1.63-3.11 1.49-3.48 6.33-0.783 8.41 0.0312 1.35-2.41 1.91-2.74 3.44-1.83 3.45 1.18 8.2 5.09 7.97 1.56 0.17 2.74-1.33 4.05-1.5 0.632 1.65 0.309 3.5 0.285 5.23-0.0426 1.6-0.436 3.15-0.938 4.67 2.53 7.2e-5 5.06 7.2e-5 7.59 0-0.727-2.09-1.01-4.29-1.01-6.5 0.18-0.923-0.465-3.51 0.889-3.35 1.64 1.35 4.04 1.99 5.99 0.91 2.89-1.41 4.2-5.51 2.18-8.16-0.393-1.08-2.58-1.63-2.29-2.71 2.02-0.805 2.07-3.42 1.4-5.16-0.641-1.91-2.28-3.57-4.36-3.72-1.56-0.5-0.888-2.77-2.24-3.65-1.2-1.25-3-1.62-4.67-1.54zm51.6 52.1c-2.4-0.115-4.95 1.53-5.24 4.03-0.106 1.78-2.13 0.987-3.2 1.63-3.11 1.49-3.48 6.33-0.783 8.41 0.0314 1.35-2.41 1.91-2.74 3.44-1.83 3.45 1.18 8.2 5.09 7.97 1.56 0.17 2.74-1.33 4.05-1.5 0.632 1.65 0.309 3.5 0.285 5.23-0.0426 1.6-0.436 3.16-0.938 4.67 2.53 7e-5 5.06 7e-5 7.59 0-0.727-2.09-1.01-4.29-1.01-6.5 0.18-0.923-0.465-3.51 0.889-3.35 1.64 1.35 4.04 1.99 5.99 0.91 2.89-1.41 4.2-5.51 2.18-8.16-0.393-1.08-2.58-1.63-2.29-2.71 2.02-0.805 2.07-3.42 1.4-5.16-0.641-1.91-2.28-3.57-4.36-3.72-1.56-0.5-0.888-2.77-2.24-3.65-1.2-1.25-3-1.62-4.67-1.54z" fill="#21930f" fill-opacity=".4"/></svg>
