<?xml version="1.0" encoding="UTF-8" standalone="no"?>
<svg
   xmlns:dc="http://purl.org/dc/elements/1.1/"
   xmlns:cc="http://creativecommons.org/ns#"
   xmlns:rdf="http://www.w3.org/1999/02/22-rdf-syntax-ns#"
   xmlns:svg="http://www.w3.org/2000/svg"
   xmlns="http://www.w3.org/2000/svg"
   xmlns:sodipodi="http://sodipodi.sourceforge.net/DTD/sodipodi-0.dtd"
   xmlns:inkscape="http://www.inkscape.org/namespaces/inkscape"
   height="128"
   viewBox="0 0 33.866666 33.866668"
   width="128"
   version="1.1"
   id="svg8"
   sodipodi:docname="wood-coniferous.svg"
   inkscape:version="1.0.1 (3bc2e813f5, 2020-09-07)">
  <metadata
     id="metadata14">
    <rdf:RDF>
      <cc:Work
         rdf:about="">
        <dc:format>image/svg+xml</dc:format>
        <dc:type
           rdf:resource="http://purl.org/dc/dcmitype/StillImage" />
      </cc:Work>
    </rdf:RDF>
  </metadata>
  <defs
     id="defs12" />
  <sodipodi:namedview
     pagecolor="#ffffff"
     bordercolor="#666666"
     borderopacity="1"
     objecttolerance="10"
     gridtolerance="10"
     guidetolerance="10"
     inkscape:pageopacity="0"
     inkscape:pageshadow="2"
     inkscape:window-width="1920"
     inkscape:window-height="1001"
     id="namedview10"
     showgrid="false"
     inkscape:zoom="6.484375"
     inkscape:cx="64"
     inkscape:cy="64"
     inkscape:window-x="-9"
     inkscape:window-y="-9"
     inkscape:window-maximized="1"
     inkscape:current-layer="svg8" />
  <path
     id="path2"
     style="fill:#436c43;stroke:none;fill-opacity:0.45882353"
     d="M 3.5092801,2.917353 C 2.7991607,4.2595194 2.0890413,5.6016857 1.3789219,6.9438521 1.7017304,6.8940194 2.024539,6.8441866 2.3473475,6.7943539 1.9184756,7.2877285 1.4896038,7.7811032 1.0607319,8.2744778 1.4388064,8.2034532 1.816881,8.1324285 2.1949555,8.0614039 1.6573386,8.5705618 1.1197217,9.0797197 0.58210483,9.5888776 1.3687921,9.482194 2.1554793,9.3755104 2.9421666,9.2688268 c 0,0.6874514 0,1.3749032 0,2.0623542 0.1756306,0 0.3512613,0 0.5268919,0 0.013407,-2.8046093 0.026814,-5.6092187 0.040222,-8.413828 z m -0.034406,0.1429198 c 0,2.7569654 0,5.5139308 0,8.2708962 0.1754815,0 0.3509629,0 0.5264444,0 0,-0.687451 0,-1.3749025 0,-2.0623538 C 4.7771314,9.3823678 5.5529444,9.4959205 6.3287575,9.6094731 5.8400012,9.0934461 5.3512448,8.5774192 4.8624885,8.0613922 5.2027258,8.1324168 5.5429632,8.2034415 5.8832005,8.2744661 5.4607341,7.7894214 5.0382678,7.3043767 4.6158014,6.819332 4.9447176,6.8589353 5.2736337,6.8985386 5.6025499,6.9381419 4.8933246,5.6455189 4.1840992,4.3528958 3.4748739,3.0602728 Z" />
  <path
     id="path4"
     style="fill:#436c43;stroke:none;fill-opacity:0.45882353"
     d="m 30.315106,22.112692 c -0.710119,1.342166 -1.420239,2.684333 -2.130358,4.026499 0.322809,-0.04983 0.645617,-0.09967 0.968426,-0.149498 -0.428872,0.493375 -0.857744,0.986749 -1.286616,1.480124 0.378075,-0.07102 0.756149,-0.142049 1.134224,-0.213074 -0.537617,0.509158 -1.075234,1.018316 -1.612851,1.527474 0.786687,-0.106684 1.573375,-0.213367 2.360062,-0.320051 0,0.687451 0,1.374903 0,2.062354 0.175631,0 0.351261,0 0.526892,0 0.01341,-2.804609 0.02681,-5.609219 0.04022,-8.413828 z m -0.03441,0.14292 c 0,2.756965 0,5.513931 0,8.270896 0.175481,0 0.350963,0 0.526444,0 0,-0.687451 0,-1.374903 0,-2.062354 0.775813,0.113553 1.551626,0.227105 2.327439,0.340658 -0.488756,-0.516027 -0.977512,-1.032054 -1.466268,-1.548081 0.340237,0.07103 0.680474,0.142049 1.020711,0.213074 -0.422466,-0.485045 -0.844932,-0.970089 -1.267398,-1.455134 0.328916,0.0396 0.657832,0.07921 0.986748,0.11881 -0.709225,-1.292623 -1.418451,-2.585246 -2.127676,-3.877869 z" />
</svg>
